<?xml version="1.0" encoding="utf-8"?>
<!-- Generator: Adobe Illustrator 26.3.1, SVG Export Plug-In . SVG Version: 6.00 Build 0)  -->
<svg version="1.1" id="Layer_1" xmlns="http://www.w3.org/2000/svg" xmlns:xlink="http://www.w3.org/1999/xlink" x="0px" y="0px"
	 viewBox="0 0 1920 737" style="enable-background:new 0 0 1920 737;" xml:space="preserve">
<style type="text/css">
	.st0{fill:#E2D8C7;}
	.st1{fill:#BAB5A8;}
	.st2{fill:#D9B154;}
	.st3{fill:#AA410B;}
	.st4{fill:#B6D1DA;}
	.st5{fill:#BC6F27;}
	.st6{enable-background:new    ;}
	.st7{fill:#FFFFFF;}
</style>
<g id="Layer_3">
	<rect class="st0" width="1920" height="736.1"/>
</g>
<g id="Layer_2_00000139283404242600368760000004521387294033770164_">
	<path class="st1" d="M1427.2,596.6c25.8,4.5,52.9,2.2,77.8,10.4c56.3,18.5,80.6,81.1,117.1,129.2H1920c0-156.4,0-312.8,0-469.1
		c-45.9-75.5-90.3-93-117.8-97.3c-29-4.5-32.7,6.9-124.2,27.1c-99.3,22-109.6,11.9-136.7,33.3c-25.7,20.3-43.7,51.1-74.6,52.9
		c-5.6,0.3-19.3,0.2-29.6,9.5c-8.5,7.6-10.6,18-11.4,21.7c-6.9,31.8-9.5,9.1-32.7,99.1c-21,81.2-7.4,55-21.7,107.3
		c-2.6,9.4-4.4,18.7-2.2,30.4C1373.9,576.7,1401.4,592,1427.2,596.6z"/>
	<path class="st2" d="M1242.8,736.1c70.8-61.2,79.4-94.6,72.7-114c-11.4-33-67.5-25.7-139.4-86.4c-28.9-24.4-23.2-28.4-51.9-51
		c-23.5-18.5-72.1-56.8-137.8-58.6c-40.7-1.1-110.4,11.1-122.6,49c-12.9,40.2,49,78,32.3,110.1c-12.1,23.3-47.1,16.1-84.9,53.3
		c-7,6.9-13.3,15.8-18.5,27.9c-8.5,19.5-12.5,43.9-14.5,69.6C933.1,736.2,1088,736.1,1242.8,736.1z"/>
	<path class="st3" d="M1026.8-0.6c-6,0.7-48.1,6-60.7,34.6c-13.1,30,12.8,70.2,29,87.9c10.3,11.3,18.3,15.3,27.7,30.7
		c12.9,21.3,7.5,29.8,15.1,43.8c24.6,45.1,119.8,33.6,167.2,46.8c6.1,1.7,12.5,3.4,18.7,2.3c10.5-2,17.7-11.5,23.7-20.4
		c25.2-37.2,53.3-78.7,97.2-88.6c65.5-14.7,138.7,48,195.9,13c24.2-14.8,36.3-43.1,45.6-70c8.8-25.2,15.5-54.9,10.9-80.2
		C1407-0.7,1216.9-0.6,1026.8-0.6z"/>
	<path class="st4" d="M642.2,248.9c-32-35.7-75.3-84-141.7-100.6C372.8,116.4,281,231.7,208,181.9c-33.6-22.9-31.4-59.3-72.2-71.3
		c-44.7-13.2-89,18.2-97.2,24c-16.3,11.6-28.6,25.5-37.9,39.9v189.6c6.3,19.1,13.9,42.4,23,71.1c18,56.6,27,84.9,27.7,88.5
		c9.8,47,7.2,71.8,27.1,88.3c4.9,4,19.3,14.4,58.6,11.7c56.2-3.8,96.8-29.6,123.2-45.6c110.3-66.6,170.5-103,246.8-109
		c40.8-3.2,56.1,4.7,94.2-7.4c13.1-4.1,92-29.1,104.3-86.7C715.2,330.3,679.4,290.4,642.2,248.9z"/>
	<path class="st5" d="M269.6-0.6c-13.6,50.1,28.1,65,72.8,64.9c80.3-0.3,155.9,1.1,234.2,22.5c36.8,10.1,73.5,23.3,111.6,22.9
		C751.9,109,812.9,65.8,834.8,6c0.8-2.1,1.5-4.3,2.1-6.5H269.6V-0.6z"/>
</g>
<g id="Layer_1_00000039113675982598507970000007588099957900126879_">
	<g id="Layer_4">
	</g>
	<g class="st6">
		<path class="st7" d="M658,454.2h-13.6v7.1h10.7v3.4h-10.7v10.5h-3.9v-24.3H658V454.2z"/>
		<path class="st7" d="M664.4,453.6c-0.9,0-1.5-0.2-2-0.6c-0.5-0.4-0.7-1-0.7-1.8s0.2-1.4,0.7-1.8c0.5-0.4,1.1-0.6,2-0.6
			c0.8,0,1.5,0.2,1.9,0.6s0.7,1,0.7,1.8s-0.2,1.4-0.7,1.8C665.9,453.4,665.2,453.6,664.4,453.6z M666.3,456.7v18.4h-3.9v-18.4H666.3
			z"/>
		<path class="st7" d="M672.5,475.1v-18.4h3.5l0.3,4.8l-0.5-0.5c0.3-1.1,0.8-1.9,1.5-2.6c0.7-0.7,1.4-1.2,2.3-1.5
			c0.9-0.3,1.9-0.5,2.9-0.5c1.3,0,2.5,0.3,3.5,0.8c1,0.5,1.9,1.3,2.5,2.3c0.6,1,0.9,2.3,0.9,3.8v12h-3.9v-10.7
			c0-1.8-0.4-3.1-1.1-3.8c-0.8-0.7-1.7-1.1-2.8-1.1c-0.8,0-1.6,0.2-2.4,0.6c-0.8,0.4-1.4,1-1.9,1.8c-0.5,0.8-0.8,2-0.8,3.4v9.8
			H672.5z"/>
		<path class="st7" d="M702.4,475.5c-1.5,0-2.9-0.4-4.1-1.1c-1.2-0.8-2.2-1.9-2.9-3.3c-0.7-1.4-1.1-3.1-1.1-5.1
			c0-2.1,0.4-3.8,1.1-5.2c0.8-1.4,1.8-2.5,3.1-3.3c1.3-0.8,2.7-1.1,4.2-1.1c1.6,0,2.9,0.4,4,1.3c1.1,0.9,1.8,2,2.2,3.4l-0.4,0.4v-13
			h3.9v26.7h-3.5l-0.3-5l0.5,0c-0.2,1.1-0.6,2.1-1.2,2.9c-0.6,0.8-1.4,1.4-2.4,1.8C704.5,475.3,703.5,475.5,702.4,475.5z
			 M703.3,472.3c1.1,0,2-0.3,2.7-0.8c0.8-0.5,1.4-1.3,1.8-2.3c0.4-1,0.6-2.2,0.6-3.5c0-1.3-0.2-2.4-0.6-3.3c-0.4-0.9-1-1.6-1.8-2.1
			c-0.8-0.5-1.6-0.7-2.6-0.7c-1.6,0-2.9,0.6-3.8,1.7c-0.9,1.1-1.4,2.7-1.4,4.7s0.4,3.6,1.3,4.7S701.7,472.3,703.3,472.3z"/>
		<path class="st7" d="M730.4,475.1v-18.4h3.5l0.2,3.1c0.6-1.2,1.5-2.1,2.6-2.6c1.1-0.6,2.2-0.8,3.4-0.8c1.3,0,2.6,0.3,3.7,0.9
			c1.1,0.6,2,1.5,2.5,2.7c0.4-0.8,0.9-1.5,1.6-2c0.7-0.5,1.5-0.9,2.3-1.2c0.8-0.3,1.7-0.4,2.5-0.4c1.2,0,2.3,0.2,3.3,0.7
			c1,0.5,1.9,1.2,2.5,2.2c0.6,1,1,2.3,1,3.9v12h-3.9v-11.3c0-1.5-0.4-2.6-1.1-3.2c-0.7-0.7-1.6-1-2.7-1c-0.9,0-1.7,0.2-2.4,0.6
			c-0.7,0.4-1.3,1-1.8,1.9c-0.4,0.8-0.7,1.8-0.7,3v10H743v-11.3c0-1.5-0.4-2.6-1.1-3.2c-0.7-0.7-1.6-1-2.7-1c-0.7,0-1.5,0.2-2.2,0.6
			s-1.4,1-1.8,1.8c-0.5,0.8-0.7,1.9-0.7,3.3v9.8H730.4z"/>
		<path class="st7" d="M773.6,475.5c-1.8,0-3.5-0.4-4.9-1.1c-1.4-0.8-2.5-1.9-3.3-3.3c-0.8-1.4-1.2-3.2-1.2-5.1s0.4-3.7,1.2-5.1
			c0.8-1.4,1.9-2.5,3.2-3.3c1.4-0.8,2.9-1.1,4.7-1.1c1.8,0,3.3,0.4,4.6,1.1c1.3,0.7,2.2,1.7,2.9,3c0.7,1.3,1,2.7,1,4.4
			c0,0.4,0,0.9,0,1.3c0,0.4-0.1,0.7-0.1,1h-14.8v-3h13.1l-2,0.6c0-1.7-0.4-3-1.3-3.9c-0.8-0.9-2-1.3-3.4-1.3c-1.1,0-2,0.2-2.8,0.7
			s-1.4,1.2-1.8,2.2c-0.4,1-0.6,2.2-0.6,3.6c0,1.4,0.2,2.5,0.7,3.5c0.4,1,1.1,1.7,1.9,2.2s1.8,0.7,2.9,0.7c1.2,0,2.2-0.2,3-0.7
			c0.8-0.5,1.4-1.1,1.8-2l3.1,1.5c-0.4,0.9-1,1.7-1.8,2.3c-0.8,0.7-1.6,1.2-2.7,1.5C775.9,475.3,774.8,475.5,773.6,475.5z"/>
		<path class="st7" d="M786.8,475.1v-18.4h3.4l0.4,3.3c0.5-1.2,1.2-2.1,2.2-2.7c1-0.6,2.2-0.9,3.6-0.9c0.4,0,0.7,0,1.1,0.1
			c0.4,0.1,0.7,0.2,0.9,0.3l-0.6,3.5c-0.3-0.1-0.6-0.2-0.9-0.2c-0.3-0.1-0.8-0.1-1.3-0.1c-0.8,0-1.5,0.2-2.2,0.6
			c-0.7,0.4-1.3,1-1.8,1.8s-0.7,1.8-0.7,3.1v9.8H786.8z"/>
		<path class="st7" d="M809.7,475.5c-1.8,0-3.5-0.4-4.9-1.1c-1.4-0.8-2.5-1.9-3.3-3.3c-0.8-1.4-1.2-3.2-1.2-5.1s0.4-3.7,1.2-5.1
			c0.8-1.4,1.9-2.5,3.2-3.3c1.4-0.8,2.9-1.1,4.7-1.1c1.8,0,3.3,0.4,4.6,1.1c1.3,0.7,2.2,1.7,2.9,3c0.7,1.3,1,2.7,1,4.4
			c0,0.4,0,0.9,0,1.3c0,0.4-0.1,0.7-0.1,1h-14.8v-3H816l-2,0.6c0-1.7-0.4-3-1.3-3.9c-0.8-0.9-2-1.3-3.4-1.3c-1.1,0-2,0.2-2.8,0.7
			s-1.4,1.2-1.8,2.2c-0.4,1-0.6,2.2-0.6,3.6c0,1.4,0.2,2.5,0.7,3.5c0.4,1,1.1,1.7,1.9,2.2s1.8,0.7,2.9,0.7c1.2,0,2.2-0.2,3-0.7
			c0.8-0.5,1.4-1.1,1.8-2l3.1,1.5c-0.4,0.9-1,1.7-1.8,2.3c-0.8,0.7-1.6,1.2-2.7,1.5C812,475.3,810.9,475.5,809.7,475.5z"/>
		<path class="st7" d="M834.9,475.1v-18.4h3.5l0.2,3.1c0.6-1.2,1.5-2.1,2.6-2.6c1.1-0.6,2.2-0.8,3.4-0.8c1.3,0,2.6,0.3,3.7,0.9
			c1.1,0.6,2,1.5,2.5,2.7c0.4-0.8,0.9-1.5,1.6-2c0.7-0.5,1.5-0.9,2.3-1.2c0.8-0.3,1.7-0.4,2.5-0.4c1.2,0,2.3,0.2,3.3,0.7
			c1,0.5,1.9,1.2,2.5,2.2c0.6,1,1,2.3,1,3.9v12H860v-11.3c0-1.5-0.4-2.6-1.1-3.2c-0.7-0.7-1.6-1-2.7-1c-0.9,0-1.7,0.2-2.4,0.6
			c-0.7,0.4-1.3,1-1.8,1.9c-0.4,0.8-0.7,1.8-0.7,3v10h-3.9v-11.3c0-1.5-0.4-2.6-1.1-3.2c-0.7-0.7-1.6-1-2.7-1
			c-0.7,0-1.5,0.2-2.2,0.6s-1.4,1-1.8,1.8c-0.5,0.8-0.7,1.9-0.7,3.3v9.8H834.9z"/>
		<path class="st7" d="M880.5,463.3c0-1.2-0.3-2.2-1-2.9c-0.7-0.7-1.6-1-2.8-1c-1.1,0-2.1,0.3-2.8,0.8c-0.8,0.5-1.4,1.4-1.7,2.5
			l-3.3-1.4c0.5-1.5,1.4-2.7,2.7-3.6c1.4-0.9,3.1-1.4,5.3-1.4c1.5,0,2.8,0.2,3.9,0.7c1.1,0.5,2,1.2,2.7,2.2c0.7,1,1,2.2,1,3.7v8.2
			c0,0.9,0.5,1.4,1.4,1.4c0.4,0,0.9-0.1,1.3-0.2l-0.2,2.7c-0.6,0.3-1.3,0.4-2.1,0.4c-0.8,0-1.5-0.1-2.1-0.4s-1.1-0.7-1.5-1.3
			c-0.4-0.6-0.5-1.3-0.5-2.2v-0.3l0.8,0c-0.2,1-0.7,1.8-1.4,2.4c-0.7,0.6-1.5,1.1-2.4,1.4c-0.9,0.3-1.8,0.5-2.8,0.5
			c-1.2,0-2.2-0.2-3.1-0.6c-0.9-0.4-1.6-0.9-2.2-1.7c-0.5-0.8-0.8-1.7-0.8-2.8c0-1.4,0.4-2.5,1.3-3.4c0.9-0.9,2.2-1.5,3.8-1.8
			l7.2-1.4l0,2.8l-5.2,1.1c-1,0.2-1.8,0.5-2.3,0.8c-0.5,0.4-0.8,0.9-0.8,1.6c0,0.7,0.3,1.2,0.8,1.6c0.5,0.4,1.2,0.6,2.1,0.6
			c0.6,0,1.2-0.1,1.8-0.2c0.6-0.1,1.1-0.4,1.6-0.7c0.5-0.3,0.8-0.8,1.1-1.3c0.3-0.5,0.4-1.2,0.4-1.9V463.3z"/>
		<path class="st7" d="M901.9,456.7v3.1h-13.8v-3.1H901.9z M895.5,451.3v18.3c0,0.9,0.2,1.6,0.7,2c0.5,0.4,1.1,0.6,1.9,0.6
			c0.7,0,1.2-0.1,1.7-0.3c0.5-0.2,0.9-0.5,1.4-0.9l0.9,2.9c-0.6,0.5-1.3,0.9-2.1,1.2c-0.8,0.3-1.7,0.4-2.7,0.4c-1.1,0-2-0.2-2.9-0.5
			s-1.6-0.9-2.1-1.7c-0.5-0.8-0.8-1.8-0.8-3v-17.9L895.5,451.3z"/>
		<path class="st7" d="M913.9,475.5c-1.8,0-3.5-0.4-4.9-1.1c-1.4-0.8-2.5-1.9-3.3-3.3c-0.8-1.4-1.2-3.2-1.2-5.1s0.4-3.7,1.2-5.1
			c0.8-1.4,1.9-2.5,3.2-3.3c1.4-0.8,2.9-1.1,4.7-1.1c1.8,0,3.3,0.4,4.6,1.1c1.3,0.7,2.2,1.7,2.9,3c0.7,1.3,1,2.7,1,4.4
			c0,0.4,0,0.9,0,1.3c0,0.4-0.1,0.7-0.1,1h-14.8v-3h13.1l-2,0.6c0-1.7-0.4-3-1.3-3.9c-0.8-0.9-2-1.3-3.4-1.3c-1.1,0-2,0.2-2.8,0.7
			s-1.4,1.2-1.8,2.2c-0.4,1-0.6,2.2-0.6,3.6c0,1.4,0.2,2.5,0.7,3.5c0.4,1,1.1,1.7,1.9,2.2s1.8,0.7,2.9,0.7c1.2,0,2.2-0.2,3-0.7
			c0.8-0.5,1.4-1.1,1.8-2l3.1,1.5c-0.4,0.9-1,1.7-1.8,2.3c-0.8,0.7-1.6,1.2-2.7,1.5C916.3,475.3,915.1,475.5,913.9,475.5z"/>
		<path class="st7" d="M927.1,475.1v-18.4h3.4l0.4,3.3c0.5-1.2,1.2-2.1,2.2-2.7c1-0.6,2.2-0.9,3.6-0.9c0.4,0,0.7,0,1.1,0.1
			c0.4,0.1,0.7,0.2,0.9,0.3l-0.6,3.5c-0.3-0.1-0.6-0.2-0.9-0.2c-0.3-0.1-0.8-0.1-1.3-0.1c-0.8,0-1.5,0.2-2.2,0.6
			c-0.7,0.4-1.3,1-1.8,1.8s-0.7,1.8-0.7,3.1v9.8H927.1z"/>
		<path class="st7" d="M944.4,453.6c-0.9,0-1.5-0.2-2-0.6c-0.5-0.4-0.7-1-0.7-1.8s0.2-1.4,0.7-1.8c0.5-0.4,1.1-0.6,2-0.6
			c0.8,0,1.5,0.2,1.9,0.6s0.7,1,0.7,1.8s-0.2,1.4-0.7,1.8C945.9,453.4,945.2,453.6,944.4,453.6z M946.3,456.7v18.4h-3.9v-18.4H946.3
			z"/>
		<path class="st7" d="M963.2,463.3c0-1.2-0.3-2.2-1-2.9c-0.7-0.7-1.6-1-2.8-1c-1.1,0-2.1,0.3-2.8,0.8c-0.8,0.5-1.4,1.4-1.7,2.5
			l-3.3-1.4c0.5-1.5,1.4-2.7,2.7-3.6c1.4-0.9,3.1-1.4,5.3-1.4c1.5,0,2.8,0.2,3.9,0.7c1.1,0.5,2,1.2,2.7,2.2s1,2.2,1,3.7v8.2
			c0,0.9,0.5,1.4,1.4,1.4c0.4,0,0.9-0.1,1.3-0.2l-0.2,2.7c-0.6,0.3-1.3,0.4-2.1,0.4c-0.8,0-1.5-0.1-2.1-0.4s-1.1-0.7-1.5-1.3
			c-0.4-0.6-0.5-1.3-0.5-2.2v-0.3l0.8,0c-0.2,1-0.7,1.8-1.4,2.4s-1.5,1.1-2.4,1.4c-0.9,0.3-1.8,0.5-2.8,0.5c-1.2,0-2.2-0.2-3.1-0.6
			c-0.9-0.4-1.6-0.9-2.2-1.7c-0.5-0.8-0.8-1.7-0.8-2.8c0-1.4,0.4-2.5,1.3-3.4c0.9-0.9,2.2-1.5,3.8-1.8l7.2-1.4l0,2.8l-5.2,1.1
			c-1,0.2-1.8,0.5-2.3,0.8c-0.5,0.4-0.8,0.9-0.8,1.6c0,0.7,0.3,1.2,0.8,1.6c0.5,0.4,1.2,0.6,2.1,0.6c0.6,0,1.2-0.1,1.8-0.2
			c0.6-0.1,1.1-0.4,1.6-0.7c0.5-0.3,0.8-0.8,1.1-1.3c0.3-0.5,0.4-1.2,0.4-1.9V463.3z"/>
		<path class="st7" d="M977.4,448.4V470c0,0.9,0.2,1.5,0.5,1.9c0.3,0.3,0.8,0.5,1.6,0.5c0.4,0,0.8,0,1.1-0.1s0.7-0.2,1.2-0.4l-0.4,3
			c-0.4,0.2-0.9,0.3-1.4,0.5c-0.5,0.1-1.1,0.2-1.6,0.2c-1.6,0-2.9-0.4-3.6-1.3c-0.8-0.8-1.2-2.2-1.2-3.9v-21.9H977.4z"/>
		<path class="st7" d="M993.1,475.5c-1.8,0-3.5-0.4-4.9-1.1c-1.4-0.8-2.5-1.9-3.3-3.3c-0.8-1.4-1.2-3.2-1.2-5.1s0.4-3.7,1.2-5.1
			c0.8-1.4,1.9-2.5,3.2-3.3c1.4-0.8,2.9-1.1,4.7-1.1c1.8,0,3.3,0.4,4.6,1.1c1.3,0.7,2.2,1.7,2.9,3c0.7,1.3,1,2.7,1,4.4
			c0,0.4,0,0.9,0,1.3c0,0.4-0.1,0.7-0.1,1h-14.8v-3h13.1l-2,0.6c0-1.7-0.4-3-1.3-3.9c-0.8-0.9-2-1.3-3.4-1.3c-1.1,0-2,0.2-2.8,0.7
			s-1.4,1.2-1.8,2.2s-0.6,2.2-0.6,3.6c0,1.4,0.2,2.5,0.7,3.5s1.1,1.7,1.9,2.2s1.8,0.7,2.9,0.7c1.2,0,2.2-0.2,3-0.7
			c0.8-0.5,1.4-1.1,1.8-2l3.1,1.5c-0.4,0.9-1,1.7-1.8,2.3c-0.8,0.7-1.6,1.2-2.7,1.5S994.4,475.5,993.1,475.5z"/>
		<path class="st7" d="M1029,456.7v3.1h-13.3v-3.1H1029z M1025.6,448.1c0.8,0,1.5,0.1,2.1,0.2c0.6,0.2,1.1,0.4,1.4,0.6l-0.7,2.8
			c-0.3-0.2-0.6-0.3-0.9-0.4c-0.3-0.1-0.7-0.1-1.2-0.1c-1,0-1.8,0.2-2.4,0.7c-0.6,0.5-0.9,1.2-0.9,2.3v2.7l0.1,1v17.1h-3.9V454
			c0-0.9,0.1-1.8,0.4-2.5c0.3-0.7,0.7-1.4,1.3-1.9c0.6-0.5,1.2-0.9,2-1.1C1023.7,448.3,1024.6,448.1,1025.6,448.1z"/>
		<path class="st7" d="M1032.5,475.1v-18.4h3.4l0.4,3.3c0.5-1.2,1.2-2.1,2.2-2.7s2.2-0.9,3.6-0.9c0.4,0,0.7,0,1.1,0.1
			s0.7,0.2,0.9,0.3l-0.6,3.5c-0.3-0.1-0.6-0.2-0.9-0.2c-0.3-0.1-0.8-0.1-1.3-0.1c-0.8,0-1.5,0.2-2.2,0.6c-0.7,0.4-1.3,1-1.8,1.8
			s-0.7,1.8-0.7,3.1v9.8H1032.5z"/>
		<path class="st7" d="M1058,463.3c0-1.2-0.3-2.2-1-2.9c-0.7-0.7-1.6-1-2.8-1c-1.1,0-2.1,0.3-2.8,0.8c-0.8,0.5-1.4,1.4-1.7,2.5
			l-3.3-1.4c0.5-1.5,1.4-2.7,2.7-3.6c1.4-0.9,3.1-1.4,5.3-1.4c1.5,0,2.8,0.2,3.9,0.7s2,1.2,2.7,2.2c0.7,1,1,2.2,1,3.7v8.2
			c0,0.9,0.5,1.4,1.4,1.4c0.4,0,0.9-0.1,1.3-0.2l-0.2,2.7c-0.6,0.3-1.3,0.4-2.1,0.4c-0.8,0-1.5-0.1-2.1-0.4s-1.1-0.7-1.5-1.3
			s-0.5-1.3-0.5-2.2v-0.3l0.8,0c-0.2,1-0.7,1.8-1.4,2.4c-0.7,0.6-1.5,1.1-2.4,1.4c-0.9,0.3-1.8,0.5-2.8,0.5c-1.2,0-2.2-0.2-3.1-0.6
			s-1.6-0.9-2.2-1.7c-0.5-0.8-0.8-1.7-0.8-2.8c0-1.4,0.4-2.5,1.3-3.4c0.9-0.9,2.2-1.5,3.8-1.8l7.2-1.4l0,2.8l-5.2,1.1
			c-1,0.2-1.8,0.5-2.3,0.8c-0.5,0.4-0.8,0.9-0.8,1.6c0,0.7,0.3,1.2,0.8,1.6c0.5,0.4,1.2,0.6,2.1,0.6c0.6,0,1.2-0.1,1.8-0.2
			c0.6-0.1,1.1-0.4,1.6-0.7c0.5-0.3,0.8-0.8,1.1-1.3c0.3-0.5,0.4-1.2,0.4-1.9V463.3z"/>
		<path class="st7" d="M1090.3,456.7v3.1H1077v-3.1H1090.3z M1086.9,448.1c0.8,0,1.5,0.1,2.1,0.2s1.1,0.4,1.4,0.6l-0.7,2.8
			c-0.3-0.2-0.6-0.3-0.9-0.4c-0.3-0.1-0.7-0.1-1.2-0.1c-1,0-1.8,0.2-2.4,0.7c-0.6,0.5-0.9,1.2-0.9,2.3v2.7l0.1,1v17.1h-3.9V454
			c0-0.9,0.1-1.8,0.4-2.5c0.3-0.7,0.7-1.4,1.3-1.9s1.2-0.9,2-1.1C1085,448.3,1085.9,448.1,1086.9,448.1z"/>
		<path class="st7" d="M1101.4,456.3c1.8,0,3.4,0.4,4.8,1.1c1.4,0.8,2.5,1.9,3.2,3.3s1.2,3.2,1.2,5.1s-0.4,3.7-1.2,5.1
			s-1.9,2.5-3.2,3.3c-1.4,0.8-3,1.1-4.8,1.1s-3.4-0.4-4.8-1.1c-1.4-0.8-2.5-1.9-3.2-3.3c-0.8-1.4-1.2-3.2-1.2-5.1s0.4-3.7,1.2-5.1
			c0.8-1.4,1.9-2.5,3.2-3.3C1098.1,456.7,1099.7,456.3,1101.4,456.3z M1101.4,459.4c-1.1,0-2,0.3-2.8,0.8c-0.8,0.5-1.4,1.2-1.8,2.2
			c-0.4,1-0.6,2.1-0.6,3.5c0,1.4,0.2,2.6,0.6,3.5c0.4,1,1,1.7,1.8,2.2c0.8,0.5,1.7,0.8,2.8,0.8s2-0.3,2.8-0.8
			c0.8-0.5,1.4-1.2,1.8-2.2c0.4-1,0.6-2.1,0.6-3.5c0-1.4-0.2-2.6-0.6-3.5c-0.4-1-1-1.7-1.8-2.2
			C1103.5,459.7,1102.6,459.4,1101.4,459.4z"/>
		<path class="st7" d="M1115.6,475.1v-18.4h3.4l0.4,3.3c0.5-1.2,1.2-2.1,2.2-2.7c1-0.6,2.2-0.9,3.6-0.9c0.4,0,0.7,0,1.1,0.1
			c0.4,0.1,0.7,0.2,0.9,0.3l-0.6,3.5c-0.3-0.1-0.6-0.2-0.9-0.2c-0.3-0.1-0.8-0.1-1.3-0.1c-0.8,0-1.5,0.2-2.2,0.6
			c-0.7,0.4-1.3,1-1.8,1.8s-0.7,1.8-0.7,3.1v9.8H1115.6z"/>
		<path class="st7" d="M1134.7,448.4V470c0,0.9,0.2,1.5,0.5,1.9c0.3,0.3,0.8,0.5,1.6,0.5c0.4,0,0.8,0,1.1-0.1
			c0.3-0.1,0.7-0.2,1.2-0.4l-0.4,3c-0.4,0.2-0.9,0.3-1.4,0.5c-0.5,0.1-1.1,0.2-1.6,0.2c-1.6,0-2.9-0.4-3.6-1.3
			c-0.8-0.8-1.2-2.2-1.2-3.9v-21.9H1134.7z"/>
		<path class="st7" d="M1150.4,456.3c1.8,0,3.4,0.4,4.8,1.1c1.4,0.8,2.5,1.9,3.2,3.3s1.2,3.2,1.2,5.1s-0.4,3.7-1.2,5.1
			s-1.9,2.5-3.2,3.3c-1.4,0.8-3,1.1-4.8,1.1c-1.8,0-3.4-0.4-4.8-1.1c-1.4-0.8-2.5-1.9-3.2-3.3s-1.2-3.2-1.2-5.1s0.4-3.7,1.2-5.1
			s1.9-2.5,3.2-3.3C1147,456.7,1148.6,456.3,1150.4,456.3z M1141.2,476.2l15.8-20.5h2.5l-15.8,20.5H1141.2z M1150.4,459.4
			c-1.1,0-2,0.3-2.8,0.8s-1.4,1.2-1.8,2.2s-0.6,2.1-0.6,3.5c0,1.4,0.2,2.6,0.6,3.5c0.4,1,1,1.7,1.8,2.2s1.7,0.8,2.8,0.8
			s2-0.3,2.8-0.8c0.8-0.5,1.4-1.2,1.8-2.2c0.4-1,0.6-2.1,0.6-3.5c0-1.4-0.2-2.6-0.6-3.5s-1-1.7-1.8-2.2
			C1152.4,459.7,1151.5,459.4,1150.4,459.4z"/>
		<path class="st7" d="M1174.4,475.5c-1.1,0-2.1-0.2-3-0.6c-0.9-0.4-1.7-1-2.3-1.8c-0.6-0.7-1.1-1.6-1.4-2.5l0.5-0.6l-0.3,5.2h-3.5
			v-26.7h3.9v12.9l-0.4-0.6c0.5-1.3,1.3-2.3,2.4-3.2s2.5-1.2,4.1-1.2c1.5,0,2.8,0.4,4.1,1.1c1.2,0.8,2.2,1.9,2.9,3.3
			c0.7,1.4,1.1,3.2,1.1,5.2c0,2-0.4,3.7-1.1,5.1c-0.7,1.4-1.7,2.5-3,3.3C1177.3,475.1,1175.9,475.5,1174.4,475.5z M1173.5,472.3
			c1.6,0,2.8-0.6,3.7-1.7c0.9-1.1,1.3-2.7,1.3-4.7s-0.4-3.6-1.3-4.7c-0.9-1.1-2.1-1.7-3.7-1.7c-1,0-1.9,0.3-2.7,0.8
			c-0.8,0.5-1.4,1.3-1.8,2.2s-0.6,2.1-0.6,3.4c0,1.3,0.2,2.4,0.6,3.4s1,1.7,1.8,2.2C1171.6,472.1,1172.5,472.3,1173.5,472.3z"/>
		<path class="st7" d="M1195.7,475.5c-1.8,0-3.5-0.4-4.9-1.1c-1.4-0.8-2.5-1.9-3.3-3.3c-0.8-1.4-1.2-3.2-1.2-5.1s0.4-3.7,1.2-5.1
			c0.8-1.4,1.9-2.5,3.2-3.3c1.4-0.8,2.9-1.1,4.7-1.1c1.8,0,3.3,0.4,4.6,1.1c1.3,0.7,2.2,1.7,2.9,3c0.7,1.3,1,2.7,1,4.4
			c0,0.4,0,0.9,0,1.3c0,0.4-0.1,0.7-0.1,1H1189v-3h13.1l-2,0.6c0-1.7-0.4-3-1.3-3.9c-0.8-0.9-2-1.3-3.4-1.3c-1.1,0-2,0.2-2.8,0.7
			s-1.4,1.2-1.8,2.2s-0.6,2.2-0.6,3.6c0,1.4,0.2,2.5,0.7,3.5s1.1,1.7,1.9,2.2s1.8,0.7,2.9,0.7c1.2,0,2.2-0.2,3-0.7
			c0.8-0.5,1.4-1.1,1.8-2l3.1,1.5c-0.4,0.9-1,1.7-1.8,2.3c-0.8,0.7-1.6,1.2-2.7,1.5S1197,475.5,1195.7,475.5z"/>
		<path class="st7" d="M1208.9,475.1v-18.4h3.5l0.3,4.8l-0.5-0.5c0.3-1.1,0.8-1.9,1.5-2.6s1.4-1.2,2.3-1.5s1.9-0.5,2.9-0.5
			c1.3,0,2.5,0.3,3.5,0.8c1,0.5,1.9,1.3,2.5,2.3c0.6,1,0.9,2.3,0.9,3.8v12h-3.9v-10.7c0-1.8-0.4-3.1-1.1-3.8
			c-0.8-0.7-1.7-1.1-2.8-1.1c-0.8,0-1.6,0.2-2.4,0.6c-0.8,0.4-1.4,1-1.9,1.8c-0.5,0.8-0.8,2-0.8,3.4v9.8H1208.9z"/>
		<path class="st7" d="M1239.9,475.5c-1.8,0-3.5-0.4-4.9-1.1c-1.4-0.8-2.5-1.9-3.3-3.3c-0.8-1.4-1.2-3.2-1.2-5.1s0.4-3.7,1.2-5.1
			c0.8-1.4,1.9-2.5,3.2-3.3c1.4-0.8,2.9-1.1,4.7-1.1c1.8,0,3.3,0.4,4.6,1.1c1.3,0.7,2.2,1.7,2.9,3c0.7,1.3,1,2.7,1,4.4
			c0,0.4,0,0.9,0,1.3c0,0.4-0.1,0.7-0.1,1h-14.8v-3h13.1l-2,0.6c0-1.7-0.4-3-1.3-3.9c-0.8-0.9-2-1.3-3.4-1.3c-1.1,0-2,0.2-2.8,0.7
			s-1.4,1.2-1.8,2.2s-0.6,2.2-0.6,3.6c0,1.4,0.2,2.5,0.7,3.5s1.1,1.7,1.9,2.2s1.8,0.7,2.9,0.7c1.2,0,2.2-0.2,3-0.7
			c0.8-0.5,1.4-1.1,1.8-2l3.1,1.5c-0.4,0.9-1,1.7-1.8,2.3c-0.8,0.7-1.6,1.2-2.7,1.5S1241.1,475.5,1239.9,475.5z"/>
		<path class="st7" d="M1265.1,475.1v-26.7h3.9v11.2c0.6-1.2,1.4-2,2.5-2.5c1-0.5,2.2-0.8,3.5-0.8c1.3,0,2.5,0.3,3.5,0.8
			c1,0.5,1.9,1.3,2.5,2.3c0.6,1,0.9,2.3,0.9,3.8v12h-3.9v-10.7c0-1.8-0.4-3.1-1.1-3.8s-1.7-1.1-2.8-1.1c-0.8,0-1.6,0.2-2.3,0.6
			c-0.8,0.4-1.4,1-1.9,1.8c-0.5,0.8-0.8,2-0.8,3.4v9.7H1265.1z"/>
		<path class="st7" d="M1296,475.5c-1.8,0-3.5-0.4-4.9-1.1c-1.4-0.8-2.5-1.9-3.3-3.3c-0.8-1.4-1.2-3.2-1.2-5.1s0.4-3.7,1.2-5.1
			c0.8-1.4,1.9-2.5,3.2-3.3c1.4-0.8,2.9-1.1,4.7-1.1c1.8,0,3.3,0.4,4.6,1.1c1.3,0.7,2.2,1.7,2.9,3c0.7,1.3,1,2.7,1,4.4
			c0,0.4,0,0.9,0,1.3c0,0.4-0.1,0.7-0.1,1h-14.8v-3h13.1l-2,0.6c0-1.7-0.4-3-1.3-3.9c-0.8-0.9-2-1.3-3.4-1.3c-1.1,0-2,0.2-2.8,0.7
			s-1.4,1.2-1.8,2.2s-0.6,2.2-0.6,3.6c0,1.4,0.2,2.5,0.7,3.5s1.1,1.7,1.9,2.2s1.8,0.7,2.9,0.7c1.2,0,2.2-0.2,3-0.7
			c0.8-0.5,1.4-1.1,1.8-2l3.1,1.5c-0.4,0.9-1,1.7-1.8,2.3c-0.8,0.7-1.6,1.2-2.7,1.5S1297.2,475.5,1296,475.5z"/>
		<path class="st7" d="M1309.2,475.1v-18.4h3.4l0.4,3.3c0.5-1.2,1.2-2.1,2.2-2.7s2.2-0.9,3.6-0.9c0.4,0,0.7,0,1.1,0.1
			s0.7,0.2,0.9,0.3l-0.6,3.5c-0.3-0.1-0.6-0.2-0.9-0.2c-0.3-0.1-0.8-0.1-1.3-0.1c-0.8,0-1.5,0.2-2.2,0.6c-0.7,0.4-1.3,1-1.8,1.8
			s-0.7,1.8-0.7,3.1v9.8H1309.2z"/>
	</g>
	<g class="st6">
		<path class="st7" d="M394.2,404.5v-1.7l3.6-1.4c3.6-1.5,5.4-4.4,5.4-8.7V304c0-4.5-1.8-7.4-5.4-8.7l-3.6-1.4v-1.7h44.9
			c12,0,22.4,2.2,31,6.7c8.7,4.5,15.4,10.9,20.1,19.2c4.7,8.3,7.1,18.3,7.1,30c0,11.9-2.5,22-7.6,30.4c-5.1,8.4-12.2,14.8-21.3,19.2
			c-9.1,4.4-19.9,6.6-32.2,6.6H394.2z M428.8,401.1h7.3c8.2,0,14.7-1.6,19.7-4.8c5-3.2,8.6-8.7,11-16.3c2.3-7.6,3.5-18.2,3.5-31.5
			c0-13.4-1.2-23.9-3.5-31.5c-2.3-7.7-5.9-13.1-10.8-16.3c-4.9-3.2-11.3-4.8-19.2-4.8h-8V401.1z"/>
		<path class="st7" d="M547.1,407.1c-8.6,0-16.1-1.8-22.4-5.4c-6.3-3.6-11.2-8.6-14.7-15.2c-3.5-6.6-5.2-14.3-5.2-23.1
			c0-8.8,1.8-16.5,5.5-23c3.7-6.5,8.7-11.4,15.1-15c6.4-3.5,13.6-5.3,21.7-5.3c8,0,15.2,1.7,21.6,5.2c6.3,3.5,11.4,8.4,15,14.9
			c3.7,6.5,5.5,14.2,5.5,23.1c0,9-1.7,16.7-5.2,23.2c-3.5,6.5-8.3,11.6-14.6,15.1C563.1,405.3,555.7,407.1,547.1,407.1z
			 M547.1,403.7c4,0,7.1-1.1,9.5-3.4c2.4-2.3,4.1-6.3,5.2-12.1c1.1-5.8,1.6-13.9,1.6-24.5c0-10.7-0.5-18.9-1.6-24.7
			c-1.1-5.8-2.8-9.8-5.2-12.1c-2.4-2.3-5.6-3.4-9.5-3.4c-4,0-7.2,1.1-9.6,3.4c-2.4,2.3-4.2,6.3-5.3,12.1c-1.1,5.8-1.6,14-1.6,24.7
			c0,10.5,0.5,18.7,1.6,24.5c1.1,5.8,2.8,9.8,5.3,12.1C539.9,402.5,543.1,403.7,547.1,403.7z"/>
		<path class="st7" d="M596.4,404.5v-1.7l2.5-0.8c3.9-1.2,5.8-4,5.8-8.3v-90.9c0-2.3-0.5-4-1.4-5.1c-0.9-1.1-2.5-2-4.8-2.7l-2.2-0.5
			v-1.7l31.1-7.3l2,1.5l-0.5,23.8v83c0,4.5,1.9,7.4,5.6,8.5l2.4,0.7v1.7H596.4z M659.4,404.5L629.2,362l31.5-29.1
			c1.5-1.4,2.4-2.8,2.6-4.3c0.3-1.5-0.7-2.6-3-3.3l-2.9-0.9v-1.7h25.3v1.7l-5.1,1.4c-2.5,0.8-4.5,1.7-6,2.8
			c-1.5,1.1-3.4,2.6-5.5,4.5L647,351l30.4,42.3c1.8,2.5,3.5,4.4,5.1,5.8c1.6,1.4,3.6,2.5,6.1,3.4l0.7,0.3v1.7H659.4z"/>
		<path class="st7" d="M723.9,407.1c-4.4,0-8.5-0.8-12.2-2.5c-3.7-1.7-6.6-4.4-8.7-8.2c-2.1-3.8-3.1-8.8-3-15l0.5-43.7
			c0-2.6-0.5-4.5-1.4-5.6c-0.9-1.1-2.3-1.9-4.2-2.4l-2-0.7v-1.7l30.4-6l1.7,1.7l-0.9,24.1v41c0,3.6,1,6.3,3.1,8
			c2.1,1.7,4.7,2.5,7.9,2.5c3.2,0,6-0.5,8.5-1.4c2.5-0.9,5-2.3,7.5-4.1l0.7-55.4c0-2.6-0.4-4.4-1.2-5.5c-0.8-1.1-2.3-1.8-4.4-2.3
			l-1.7-0.5v-1.7l29.8-6.5l1.7,1.7l-0.5,24.1v46.1c0,2.5,0.3,4.4,1,5.8c0.7,1.4,2.2,2.5,4.4,3.4l1.7,0.5v1.7l-29.8,1.7l-1.5-10
			c-3.7,3.1-7.8,5.6-12.2,7.7C734.9,406,729.8,407.1,723.9,407.1z"/>
		<path class="st7" d="M789.5,404.5v-1.7l2.4-0.7c2.2-0.6,3.7-1.5,4.5-2.9c0.8-1.4,1.3-3.2,1.4-5.4v-53.2c0-2.5-0.4-4.3-1.2-5.5
			c-0.8-1.2-2.3-2-4.6-2.5l-2.5-0.7v-1.7l29.1-9.9l1.7,1.7l1.4,11.6c3.7-3.7,8-6.9,12.8-9.5c4.8-2.6,9.8-3.9,15-3.9
			c5.4,0,9.8,1.1,13.1,3.3c3.3,2.2,5.8,5.6,7.5,10.3c4.4-4.2,9.2-7.5,14.4-9.9c5.2-2.4,10.2-3.7,15-3.7c8,0,14,1.9,17.8,5.8
			c3.8,3.9,5.7,9.9,5.7,18.2V394c0,4.4,2,7.2,6.1,8.3l1.9,0.5v1.7h-39.3v-1.7l1.7-0.5c2.2-0.7,3.7-1.7,4.5-3.1
			c0.8-1.4,1.3-3.2,1.3-5.4v-52c0-4.8-0.8-8-2.5-9.8c-1.7-1.8-4.4-2.6-8.2-2.6c-2.9,0-5.8,0.7-8.6,2c-2.8,1.3-5.7,3.3-8.8,5.9
			c0.6,1.8,0.9,3.8,1.1,6c0.2,2.2,0.3,4.4,0.3,6.8v44c0.1,4.4,2.2,7.2,6.1,8.3l1.5,0.5v1.7h-39.4v-1.7l2.4-0.7
			c2.2-0.7,3.7-1.7,4.5-3c0.9-1.3,1.3-3.1,1.3-5.4V342c0-4.5-0.8-7.8-2.5-9.7c-1.6-1.9-4.4-2.9-8.4-2.9c-2.6,0-5.2,0.7-7.8,2
			c-2.6,1.3-5.3,3.2-8.2,5.7V394c0,4.4,2,7.2,6,8.3l1.5,0.5v1.7H789.5z"/>
		<path class="st7" d="M980.2,320.2c7.4,0,13.7,1.5,18.9,4.5c5.2,3,9.2,7.1,12,12.2c2.8,5.2,4.2,11,4.2,17.6c0,1.2-0.1,2.5-0.2,3.8
			c-0.1,1.3-0.3,2.5-0.7,3.5h-50.7c0.1,12.2,2.3,21.1,6.5,26.4c4.2,5.4,10.6,8.1,19,8.1c5.7,0,10.3-0.9,13.8-2.7
			c3.5-1.8,6.8-4.5,9.9-8l1.7,1.5c-3.5,6.2-8.2,11.1-14,14.6c-5.8,3.5-12.8,5.3-21,5.3c-8,0-15.2-1.7-21.4-5.2
			c-6.2-3.5-11.1-8.4-14.6-14.9c-3.5-6.5-5.3-14.2-5.3-23.1c0-9.3,2-17.2,6.1-23.7c4.1-6.5,9.3-11.5,15.7-14.9
			C966.5,321.9,973.2,320.2,980.2,320.2z M979.7,323.6c-3.3,0-6.1,1-8.4,3c-2.3,2-4.1,5.5-5.4,10.5c-1.3,5-2,12.2-2.1,21.3h29.1
			c1.1-12.4,0.7-21.2-1.4-26.7C989.4,326.3,985.5,323.6,979.7,323.6z"/>
		<path class="st7" d="M1023.7,404.5v-1.7l2.4-0.7c4-1.1,6-3.9,6-8.3v-53.2c0-2.5-0.4-4.3-1.2-5.5c-0.8-1.2-2.3-2-4.6-2.5l-2.5-0.7
			v-1.7l29.1-9.9l1.7,1.7l1.4,10.2c4-3.5,8.4-6.4,13.4-8.7c5-2.3,9.9-3.4,14.8-3.4c7.5,0,13.2,2,17.3,6.1c4,4.1,6,10.3,6,18.7v49
			c0,4.4,2.2,7.2,6.5,8.3l1.5,0.5v1.7h-40.1v-1.7l2.2-0.7c4-1.2,6-4,6-8.3v-54.2c0-7.3-3.6-10.9-10.9-10.9c-5,0-10.4,2.5-16.3,7.5
			V394c0,4.4,2,7.2,6,8.3l1.5,0.5v1.7H1023.7z"/>
		<path class="st7" d="M1153.5,407.1c-7.3,0-12.9-1.8-16.9-5.4c-4-3.6-6-9.4-6-17.3v-58.1h-11.7v-1.7l4.1-0.7
			c3.5-0.8,6.5-1.9,9.1-3.4c2.5-1.5,5.1-3.5,7.6-5.9l13.9-15.5h1.7l-0.5,23.8h19v3.4h-19.2v61.2c0,4,0.9,7,2.6,9
			c1.8,2,4,3.1,6.7,3.1c2.4,0,4.5-0.6,6.3-1.8c1.8-1.2,3.6-2.8,5.4-4.8l1.7,1.7c-2.3,3.9-5.4,6.9-9.3,9.2
			C1163.9,405.9,1159.1,407.1,1153.5,407.1z"/>
		<path class="st7" d="M1207.3,407.1c-6.6,0-12.1-1.9-16.6-5.6c-4.5-3.7-6.7-9.1-6.7-16.2c0-5.3,2.7-10.2,8.2-14.7
			c5.4-4.5,14-7.8,25.7-10.1c1.8-0.3,3.9-0.7,6.1-1.1c2.3-0.4,4.6-0.8,7.1-1.3v-13.4c0-7.7-0.9-13.1-2.8-16.2
			c-1.9-3.1-4.8-4.7-8.8-4.7c-2.7,0-4.9,0.9-6.5,2.6c-1.6,1.8-2.6,4.8-3.1,9.1l-0.3,1.9c-0.2,4.9-1.4,8.4-3.6,10.7
			c-2.2,2.3-4.8,3.4-8,3.4c-2.9,0-5.4-0.9-7.3-2.7c-1.9-1.8-2.9-4.2-2.9-7.3c0-4.6,1.6-8.6,4.8-11.7c3.2-3.2,7.5-5.6,12.8-7.1
			c5.3-1.6,11.1-2.4,17.3-2.4c10.1,0,17.9,2.5,23.4,7.4c5.5,4.9,8.2,12.9,8.2,24.1v37.6c0,5.1,2.4,7.6,7.1,7.6h3.7l1.5,1.4
			c-2.2,2.7-4.5,4.8-7.1,6.3s-6.1,2.2-10.8,2.2c-5,0-8.9-1.2-11.8-3.5c-2.9-2.3-4.8-5.4-5.7-9.3c-3.4,3.6-6.9,6.7-10.5,9.3
			C1217.6,405.8,1213,407.1,1207.3,407.1z M1217.7,396.7c2.3,0,4.4-0.5,6.4-1.6c2-1.1,4.3-2.7,7.1-5v-28.6c-1.1,0.2-2.3,0.5-3.4,0.7
			c-1.1,0.2-2.4,0.5-3.9,0.7c-5.2,1.4-9.4,3.7-12.5,6.9c-3.1,3.2-4.7,7.6-4.7,13c0,4.6,1.1,8.1,3.2,10.5
			C1212,395.5,1214.7,396.7,1217.7,396.7z"/>
		<path class="st7" d="M1302.9,407.1c-7.3,0-12.9-1.8-16.9-5.4c-4-3.6-6-9.4-6-17.3v-58.1h-11.7v-1.7l4.1-0.7
			c3.5-0.8,6.5-1.9,9.1-3.4c2.6-1.5,5.1-3.5,7.6-5.9l13.9-15.5h1.7l-0.5,23.8h19v3.4h-19.2v61.2c0,4,0.9,7,2.6,9
			c1.8,2,4,3.1,6.7,3.1c2.4,0,4.5-0.6,6.3-1.8c1.8-1.2,3.6-2.8,5.4-4.8l1.7,1.7c-2.3,3.9-5.4,6.9-9.4,9.2
			C1313.4,405.9,1308.5,407.1,1302.9,407.1z"/>
		<path class="st7" d="M1332.3,404.5v-1.7l2.4-0.7c2.3-0.7,3.8-1.7,4.7-3.1c0.9-1.4,1.3-3.2,1.3-5.4v-53.2c0-2.4-0.4-4.2-1.3-5.4
			c-0.8-1.2-2.4-2-4.7-2.5l-2.4-0.5v-1.7l31.1-10l1.7,1.7l-0.5,24.1v47.6c0,2.3,0.4,4.1,1.3,5.4c0.8,1.4,2.4,2.4,4.5,3.1l1.7,0.5
			v1.7H1332.3z M1352.4,311.4c-3.9,0-7.1-1.2-9.8-3.7c-2.7-2.4-4-5.5-4-9.3c0-3.9,1.3-7,4-9.3c2.7-2.4,5.9-3.6,9.8-3.6
			c3.9,0,7.1,1.2,9.7,3.6c2.6,2.4,3.9,5.5,3.9,9.3c0,3.7-1.3,6.8-3.9,9.3C1359.4,310.1,1356.2,311.4,1352.4,311.4z"/>
		<path class="st7" d="M1422.6,407.1c-8.6,0-16.1-1.8-22.4-5.4c-6.3-3.6-11.2-8.6-14.7-15.2c-3.5-6.6-5.2-14.3-5.2-23.1
			c0-8.8,1.8-16.5,5.5-23c3.7-6.5,8.7-11.4,15.1-15c6.4-3.5,13.6-5.3,21.7-5.3c8,0,15.2,1.7,21.6,5.2c6.3,3.5,11.4,8.4,15,14.9
			c3.7,6.5,5.5,14.2,5.5,23.1c0,9-1.7,16.7-5.2,23.2c-3.5,6.5-8.3,11.6-14.6,15.1C1438.6,405.3,1431.2,407.1,1422.6,407.1z
			 M1422.6,403.7c4,0,7.1-1.1,9.5-3.4c2.4-2.3,4.1-6.3,5.2-12.1c1.1-5.8,1.6-13.9,1.6-24.5c0-10.7-0.5-18.9-1.6-24.7
			c-1.1-5.8-2.8-9.8-5.2-12.1c-2.4-2.3-5.6-3.4-9.5-3.4c-4,0-7.2,1.1-9.6,3.4c-2.4,2.3-4.2,6.3-5.3,12.1c-1.1,5.8-1.6,14-1.6,24.7
			c0,10.5,0.5,18.7,1.6,24.5c1.1,5.8,2.8,9.8,5.3,12.1C1415.4,402.5,1418.6,403.7,1422.6,403.7z"/>
		<path class="st7" d="M1472.2,404.5v-1.7l2.4-0.7c4-1.1,6-3.9,6-8.3v-53.2c0-2.5-0.4-4.3-1.2-5.5c-0.8-1.2-2.3-2-4.6-2.5l-2.5-0.7
			v-1.7l29.1-9.9l1.7,1.7l1.4,10.2c4-3.5,8.4-6.4,13.4-8.7c5-2.3,9.9-3.4,14.8-3.4c7.5,0,13.2,2,17.3,6.1c4,4.1,6,10.3,6,18.7v49
			c0,4.4,2.2,7.2,6.5,8.3l1.5,0.5v1.7h-40.1v-1.7l2.2-0.7c4-1.2,6-4,6-8.3v-54.2c0-7.3-3.6-10.9-10.9-10.9c-5,0-10.4,2.5-16.3,7.5
			V394c0,4.4,2,7.2,6,8.3l1.5,0.5v1.7H1472.2z"/>
	</g>
</g>
</svg>
