<?xml version="1.0" encoding="utf-8"?>
<!-- Generator: Adobe Illustrator 26.3.1, SVG Export Plug-In . SVG Version: 6.00 Build 0)  -->
<svg version="1.1" id="Layer_1" xmlns="http://www.w3.org/2000/svg" xmlns:xlink="http://www.w3.org/1999/xlink" x="0px" y="0px"
	 viewBox="0 0 2481.2 250.1" style="enable-background:new 0 0 2481.2 250.1;" xml:space="preserve">
<style type="text/css">
	.st0{fill:#BAB5A8;}
	.st1{fill:none;}
	.st2{fill:#B51E00;}
	.st3{fill:#7C1605;}
	.st4{fill:#911805;}
	.st5{opacity:7.000000e-02;}
	.st6{fill:#F2583E;}
	.st7{fill:#BC6F27;}
	.st8{fill:#606060;}
	.st9{fill:#F2F2F4;}
	.st10{fill:#DEDEE0;}
	.st11{fill:#383838;}
	.st12{fill:#9DD2D8;}
	.st13{fill:#D2E3F4;}
	.st14{fill:#BBD0D9;}
	.st15{fill:#FF7B00;}
	.st16{opacity:0.65;}
	.st17{fill:#DD5B03;}
	.st18{opacity:0.64;}
	.st19{fill:#3F3F3F;}
	.st20{fill:#333333;}
	.st21{fill:#504B3F;}
	.st22{fill:#3A3730;}
	.st23{fill:#FFC600;}
	.st24{fill:#D3B363;}
	.st25{fill:#1C262F;}
	.st26{fill:#F0F0F0;}
	.st27{fill:#DFE3E4;}
	.st28{opacity:0.68;fill:#4C4C4C;}
	.st29{fill:#FFCB00;}
	.st30{fill:#262122;}
	.st31{opacity:0.96;fill:#BA4F41;}
	.st32{opacity:0.24;fill:#FFFFFF;}
	.st33{fill:#3A3A3A;}
	.st34{fill:#A74223;}
	.st35{fill:#FEEAD1;}
	.st36{fill:#AA410A;}
	.st37{fill:#315154;}
	.st38{fill:#F46756;}
	.st39{opacity:4.000000e-02;fill:#603813;}
	.st40{fill:#4E402B;}
	.st41{fill:#5C7584;}
	.st42{fill:#C19E61;}
	.st43{fill:#33302E;}
	.st44{fill:#3A3733;}
	.st45{opacity:0.72;}
	.st46{fill:#23211F;}
	.st47{fill:#EDD098;}
	.st48{fill:#FFE8B4;}
	.st49{fill:#DDB566;}
	.st50{fill:#9E815F;}
</style>
<g>
	<g>
		<g id="Rectangle_333" transform="translate(39 1156)">
			<rect x="501.6" y="-1155.9" class="st0" width="272.5" height="250"/>
			<rect x="501.9" y="-1155.7" class="st1" width="272" height="249.5"/>
		</g>
		<g>
			<g>
				<path class="st2" d="M618.6,58l-35,51l31.1,26.2l14.5-20l-2.1,98.5h98.5l-2.1-97.7l15.8,19.9l31.1-26.5L732.9,58l-32.1-13.2
					c0,0-24.7,7.4-47.9,0L618.6,58z"/>
				<polygon class="st3" points="627.2,207.3 725.3,207.3 725.4,213.7 627.2,213.7 				"/>
				<path class="st3" d="M767.2,105.1l-31,27.1l2.7,3.7l31.5-26.6C770.4,109.4,767.7,105.8,767.2,105.1z"/>
				<path class="st3" d="M586.5,104.5l30.7,27.2l-2.7,3.7l-31.2-26.6C583.4,108.8,586,105.2,586.5,104.5z"/>
				<path class="st4" d="M652.8,44.8c0,0,23,6.2,48.2,0c0,0,0.1,20.4-22.2,21.5S652.8,44.8,652.8,44.8z"/>
				<path class="st3" d="M700.4,49.1c0.6-2.5,0.6-4.3,0.6-4.3c-25.3,6.2-48.2,0-48.2,0s0.3,1.9,1.3,4.5
					C659.1,50.5,678.9,54.3,700.4,49.1z"/>
				<path class="st3" d="M700.7,44.7c-0.9,6.3-4.9,20.1-22.3,21.2c-17.6,1-23.8-14.2-25.7-21c-1,0.4-1.9,0.7-2.9,0.9
					c2,7.6,8.7,25.7,28.7,24.5c19.7-1.2,23.9-17.5,24.9-24.6C702.4,45.4,701.6,44.9,700.7,44.7z"/>
				<g class="st5">
					<path d="M770,109.4L732.7,58l-32.1-13.2c0,0-9.3,2.8-21.8,3.2v165.7h46.4l-2.1-97.7l15.8,19.9L770,109.4z"/>
					<polygon points="678.8,213.7 725.1,213.7 725.1,207.3 678.8,207.3 					"/>
					<path d="M767,105.1l-31,27.1l2.7,3.7l31.5-26.6C770.2,109.4,767.5,105.8,767,105.1z"/>
					<path d="M678.8,47.6v18.8c22-1.3,22-21.5,22-21.5C693,46.7,685.5,47.5,678.8,47.6z"/>
					<path d="M678.8,47.6v4.2c6.5-0.1,13.9-0.8,21.4-2.6c0.6-2.5,0.6-4.3,0.6-4.3C693,46.7,685.5,47.5,678.8,47.6z"/>
					<path d="M700.4,44.7c-0.9,6.2-4.8,19.8-21.6,21.1v4.4c19.2-1.5,23.3-17.5,24.2-24.5C702.2,45.4,701.3,44.9,700.4,44.7z"/>
				</g>
			</g>
		</g>
	</g>
	<g>
		<g id="Rectangle_332" transform="translate(39 910)">
			<rect x="-39" y="-909.9" class="st7" width="540.4" height="249.9"/>
			<rect x="-38.5" y="-909.4" class="st1" width="539.4" height="248.9"/>
		</g>
		<g>
			<g>
				<rect x="186.3" y="55.8" class="st8" width="34.4" height="8.2"/>
				<rect x="190.7" y="51.2" class="st9" width="25.9" height="4.7"/>
			</g>
			<path class="st9" d="M337.9,56.3c0,0-0.5-3.8,2.9-3.8s28.3,0,28.3,0s2.5,0.5,2.4,1.9c-0.1,1.5,0,10.3,0,10.3L337.9,64V56.3z"/>
			<path class="st9" d="M151.6,58.8c0,0-0.4-5.9,2.5-5.9s24.5,0,24.5,0s2.2,0.7,2.1,2.9s0,15.8,0,15.8l-29.2-1V58.8z"/>
			<path class="st10" d="M381.9,203.5h-235c-3.5,0-6.3-2.8-6.3-6.3V69.6c0-3.5,2.8-6.3,6.3-6.3h235c3.5,0,6.3,2.8,6.3,6.3v127.6
				C388.2,200.6,385.4,203.5,381.9,203.5z"/>
			<rect x="140.6" y="93.4" class="st11" width="247.6" height="99.2"/>
			<path class="st10" d="M224.4,63.3l4.8-16.4c0,0-0.2-7.9,8.2-7.9c8.4,0,53.7,0,53.7,0s6.5-1.4,8.4,5.5s5,18.8,5,18.8H224.4z"/>
			<path class="st9" d="M284.4,62.3h-39.8c-3.4,0-6.2-2.8-6.2-6.2v-3.9c0-3.4,2.8-6.2,6.2-6.2h39.8c3.4,0,6.2,2.8,6.2,6.2v3.9
				C290.6,59.5,287.9,62.3,284.4,62.3z"/>
			<rect x="141" y="72.7" class="st9" width="246.7" height="20.7"/>
			<circle class="st6" cx="348.9" cy="83" r="5.8"/>
			<ellipse class="st8" cx="264.6" cy="148.6" rx="63.4" ry="59.9"/>
			<ellipse class="st11" cx="264.6" cy="148.6" rx="56.6" ry="54.2"/>
			<ellipse class="st8" cx="264.6" cy="148.7" rx="39.7" ry="38.4"/>
			<ellipse class="st12" cx="264.5" cy="148.7" rx="34.1" ry="33.4"/>
			<ellipse class="st13" cx="252.3" cy="136.7" rx="9.6" ry="8.7"/>
		</g>
	</g>
	<g>
		<g id="Rectangle_334" transform="translate(571 910)">
			<rect x="241.8" y="-910" class="st14" width="317" height="250.1"/>
			<rect x="242" y="-909.7" class="st1" width="316.5" height="249.6"/>
		</g>
		<g>
			<path class="st15" d="M952.4,65.1h37c0,0,3.1,0.5,11.2-5.7c8.1-6.2,7.6-5.7,13-5.7s8.7,0.3,18.7,3.5c10,3.3,17.9,16.3,17.9,16.3
				s13.3,34.9,24.9,87.8c0,0,3.8,11.9-7.9,20c0,0-10.6,5.7-18.1-5.4c-7.6-11.1-17.1-18.7-31.2-23.3c-14.1-4.6-89.2-4.1-101.6,3.8
				c-3.8,2.4-10.3,6-25.5,22.5c0,0-7.9,7-17.3,1.1c-9.5-6-6.2-17.1-6.2-17.1s6.5-31.7,13-51.7c6.5-20,13-38.5,13-38.5
				s2.7-7.9,14.9-14.4s24.3-4.6,24.3-4.6s3.1,0.3,6.8,3.3C943.2,60,949.2,65.1,952.4,65.1z"/>
			<g class="st16">
				<path class="st17" d="M1075.1,161.6c-11.6-52.8-24.9-87.8-24.9-87.8s-0.6-1.1-1.8-2.6c2.3,9.5,9.8,42.1,14.7,87.1
					c0,0,2.5,12.3-9.9,19.1c0,0-1.1,0.4-2.7,0.7c7.4,8.6,16.7,3.6,16.7,3.6C1078.9,173.5,1075.1,161.6,1075.1,161.6z"/>
			</g>
			<g class="st18">
				<path class="st17" d="M885.4,173.4c-10-5.1-7.7-16.5-7.7-16.5s3.8-32.1,8.6-52.7c3.1-13.3,6.2-25.9,8.1-33.1
					c-0.8,1.3-1,2.1-1,2.1s-6.5,18.4-13,38.5c-6.5,20-13,51.7-13,51.7s-3.3,11.1,6.2,17.1s17.3-1.1,17.3-1.1
					c1.5-1.7,2.9-3.2,4.3-4.6C892.5,175.5,889.1,175.4,885.4,173.4z"/>
			</g>
			<path class="st19" d="M1050.7,177.1c-7.7-15.2-17.4-25.6-31.8-32c-14.4-6.3-91.1-5.7-103.7,5.2c-3.8,3.3-10.2,8-25,29.4
				c0.4-0.3,0.7-0.5,0.7-0.5c15.2-16.5,21.7-20,25.5-22.5c12.4-7.9,87.5-8.4,101.6-3.8c14.1,4.6,23.6,12.2,31.2,23.3
				c1,1.5,2.1,2.7,3.2,3.7C1051.8,179,1051.3,178.1,1050.7,177.1z"/>
			<path class="st19" d="M903.4,68.7c13.1-6.5,26.2-4.6,26.2-4.6s3.3,0.3,7.4,3.3c4.1,3,10.5,8.1,14,8.1h39.8c0,0,3.4,0.5,12.1-5.7
				c8.7-6.2,8.2-5.7,14-5.7s9.3,0.3,20.1,3.5c6.1,1.8,11.5,6.8,15,10.8c-1.1-3.1-1.7-4.8-1.7-4.8s-7.9-13-17.9-16.3
				c-10-3.3-13.3-3.5-18.7-3.5c-5.4,0-4.9-0.5-13,5.7c-8.1,6.2-11.2,5.7-11.2,5.7h-37c-3.3,0-9.2-5.1-13-8.1c-3.8-3-6.8-3.3-6.8-3.3
				s-12.1-1.9-24.3,4.6s-14.9,14.4-14.9,14.4s-0.5,1.4-1.4,4C894.3,74.2,898,71.3,903.4,68.7z"/>
			<path class="st20" d="M987.4,65.1c-0.1,0-0.1,0-0.2,0c-0.1,0-0.3,0-0.4,0c-0.1,0-0.2,0-0.4,0c-0.2,0-0.4,0-0.5,0
				c-0.1,0-0.1,0-0.2,0c-0.1,0-0.2,0-0.3,0c-0.1,0-0.3,0-0.4,0c-0.2,0-0.3,0-0.5,0h-7.8v0l-20.9,0.1l-1.5,10.3h35.2L987.4,65.1z"/>
			<ellipse class="st21" cx="920.9" cy="96.3" rx="15" ry="14.1"/>
			<ellipse class="st21" cx="945.8" cy="122.3" rx="15" ry="14.1"/>
			<ellipse class="st21" cx="1000.2" cy="122.3" rx="15" ry="14.1"/>
			<ellipse class="st22" cx="1000.3" cy="121.6" rx="10.6" ry="9.9"/>
			<ellipse class="st23" cx="921.1" cy="96.4" rx="10.8" ry="10.2"/>
			<path class="st23" d="M941.6,117.2v-4.9c0,0-0.3-2.4,1.6-2.4c1.9,0,5.5,0,5.5,0s1.6,0,1.6,1.9s0,5.4,0,5.4h6c0,0,1.3,0.3,1.3,1.6
				c0,1.4,0,6.1,0,6.1s-0.3,1.2-1.4,1.2c-1.1,0-5.7,0-5.7,0l0,5.7c0,0,0,1.4-1.4,1.4c-1.4,0-6.2,0-6.2,0s-1.4,0.2-1.4-1.2
				c0-1.5,0-5.6,0-5.6l-5.4-0.2c0,0-1.9,0.3-1.9-1.6s0-5.6,0-5.6s-0.3-1.8,1.6-1.8S941.6,117.2,941.6,117.2z"/>
			<circle class="st21" cx="1009" cy="90.3" r="6"/>
			<circle class="st21" cx="1023.9" cy="102.3" r="6"/>
			<circle class="st21" cx="1038.3" cy="90.3" r="6"/>
			<circle class="st21" cx="1023.9" cy="77.1" r="6"/>
			<circle class="st21" cx="957.8" cy="93.9" r="6"/>
			<circle class="st21" cx="986.3" cy="93.9" r="6"/>
			<circle class="st23" cx="1024.7" cy="76.3" r="4.1"/>
			<circle class="st23" cx="1023.9" cy="102.3" r="4.1"/>
			<circle class="st23" cx="1009.8" cy="90.3" r="4.1"/>
			<circle class="st23" cx="1037.5" cy="90.3" r="4.1"/>
		</g>
	</g>
	<g>
		<g id="Rectangle_330" transform="translate(571 1400)">
			<rect x="558.3" y="-1400" class="st24" width="634" height="250.1"/>
			<rect x="558.8" y="-1399.5" class="st1" width="632.9" height="249.1"/>
		</g>
		<g>
			<g>
				<g>
					<path class="st25" d="M1372.3,54.8H1189c-1.5,0-2.8,1.2-2.8,2.8V176h2.5v3.3h5.6v3h170.6V176h9.9V57.5
						C1375,56,1373.8,54.8,1372.3,54.8z"/>
					<path class="st26" d="M1186.2,169.2v8.3c0,2.6,2.1,4.8,4.7,4.8h179.3c2.6,0,4.7-2.1,4.7-4.8v-8.3H1186.2z"/>
					<ellipse class="st25" cx="1280.9" cy="175.7" rx="4.7" ry="4.7"/>
					<polygon class="st26" points="1263.9,182.3 1259.8,202.2 1253.3,206.9 1253.3,208.8 1308.3,208.8 1308.3,206.9 1300.8,201.9 
						1296.7,182.3 					"/>
					<polygon class="st27" points="1253.3,206.9 1253.3,208.8 1308.3,208.8 1308.3,206.9 1308.2,206.9 					"/>
					<polygon class="st27" points="1298,188.5 1296.7,182.3 1263.9,182.3 1262.6,188.5 					"/>
					<polygon class="st28" points="1231.7,60.7 1193.1,60.7 1193.1,162 1337,162 					"/>
					<g>
						<ellipse class="st29" cx="1280.8" cy="114.3" rx="32.1" ry="33"/>
						<ellipse class="st30" cx="1270" cy="108.4" rx="4" ry="7.8"/>
						<ellipse class="st30" cx="1292" cy="108.4" rx="4" ry="7.8"/>
						<path class="st30" d="M1262.6,97.6c0,0,7.3-3.1,12-6.7C1274.6,90.9,1272.4,98.3,1262.6,97.6z"/>
						<path class="st30" d="M1298.6,97.6c0,0-7.3-3.1-12-6.7C1286.7,90.9,1288.9,98.3,1298.6,97.6z"/>
						<path class="st30" d="M1268.2,132.7h25.3c0,0-1.4-9.7-11.6-10.3C1271.6,121.8,1267.9,131.1,1268.2,132.7z"/>
						<path class="st31" d="M1268.2,132.7C1268.2,132.7,1268.2,132.7,1268.2,132.7l25.3,0c0,0,0,0,0-0.1c-1.7-2.7-5-6-11.5-6.3
							C1274.7,125.9,1270.3,129.6,1268.2,132.7z"/>
					</g>
					<polygon class="st32" points="1337,162 1370.4,162 1370.4,60.7 1231.7,60.7 					"/>
				</g>
				<g>
					<path class="st25" d="M1698.5,182.5v-5.4h7.6v-120c0-1.6-1.3-2.8-2.8-2.8h-183.4c-1.5,0-2.8,1.3-2.8,2.8v116.4h8.8v9H1698.5z"
						/>
					<path class="st26" d="M1517.1,169.4v8.4c0,2.6,2.1,4.8,4.7,4.8h179.5c2.6,0,4.7-2.1,4.7-4.8v-8.4H1517.1z"/>
					<ellipse class="st25" cx="1611.9" cy="176" rx="4.7" ry="4.7"/>
					<polygon class="st26" points="1594.8,182.5 1590.8,202.6 1584.3,207.3 1584.3,209.2 1639.3,209.2 1639.3,207.3 1631.8,202.3 
						1627.7,182.5 					"/>
					<polygon class="st27" points="1584.3,207.3 1584.3,209.2 1639.3,209.2 1639.3,207.3 1639.2,207.3 					"/>
					<polygon class="st27" points="1629,188.8 1627.7,182.5 1594.8,182.5 1593.6,188.8 					"/>
					<polygon class="st28" points="1562.6,60.3 1524,60.3 1524,162.2 1668.1,162.2 					"/>
					<g>
						<ellipse class="st29" cx="1616.5" cy="111.2" rx="32.2" ry="33.2"/>
						<ellipse class="st30" cx="1605.7" cy="105.3" rx="4" ry="7.8"/>
						<ellipse class="st30" cx="1627.8" cy="105.3" rx="4" ry="7.8"/>
						<path class="st30" d="M1630.7,120.6h-28.4c0,0,1.5,10.9,13,11.6C1626.9,132.9,1631.1,122.4,1630.7,120.6z"/>
						<path class="st31" d="M1627.2,127.7c-3.2-0.4-6.8-0.7-10.6-0.8c-4.1-0.1-7.8,0-11.2,0.3c1.9,2.5,5.1,4.7,10.1,5
							C1620.9,132.6,1624.7,130.3,1627.2,127.7z"/>
					</g>
					<polygon class="st32" points="1668.1,162.2 1701.5,162.2 1701.5,60.3 1562.6,60.3 					"/>
				</g>
			</g>
			<g>
				<polygon class="st33" points="1422.1,126.1 1458.4,126.1 1458.4,121.7 1470.3,128.2 1422.1,128.2 				"/>
				<polygon class="st33" points="1422.1,130.2 1458.4,130.2 1458.4,134.6 1470.3,128.1 1422.1,128.1 				"/>
			</g>
		</g>
	</g>
	<g>
		<g id="Rectangle_331" transform="translate(1192 910)">
			<rect x="570.8" y="-909.9" class="st34" width="362.4" height="250"/>
			<rect x="571.2" y="-909.6" class="st1" width="361.7" height="249.3"/>
		</g>
		<g>
			<path class="st35" d="M2025.6,172.7c3.9-2.7,12.4-9.4,17.1-21.3c1.4-3.7,6.7-18.6-0.2-33.8c-3.1-6.8-7.4-10.8-11.5-14.6
				c-5.5-5.1-17.2-14.2-36.6-18.7c0,0-30.1-7.8-58.7,13.8c-28.6,21.6-18.4,48.1-18.4,48.1s3.9,21.8,34.8,35.9c0,0,17.9,8.6,44.9,3.6
				l27.5,20.5L2025.6,172.7z"/>
			<ellipse class="st35" cx="1981.9" cy="135" rx="65.1" ry="53.5"/>
			<path class="st36" d="M1864.6,148.1c-4.5-3.1-14.2-10.8-19.6-24.5c-1.6-4.2-7.7-21.3,0.2-38.7c3.6-7.8,8.5-12.4,13.2-16.7
				c6.4-5.9,19.7-16.3,42-21.4c0,0,34.6-8.9,67.4,15.8c32.8,24.8,21.2,55.2,21.2,55.2s-4.5,25.1-40,41.2c0,0-20.6,9.8-51.6,4.2
				l-31.6,23.6L1864.6,148.1z"/>
			<polygon class="st35" points="1867.2,137.1 1869.3,179.8 1910,149.7 			"/>
			<path class="st37" d="M1967.8,62.5c-32.8-24.8-67.4-15.8-67.4-15.8c-22.3,5.1-35.6,15.6-42,21.4c-4.7,4.3-9.6,8.9-13.2,16.7
				c-8,17.4-1.9,34.5-0.2,38.7c5.4,13.7,15.2,21.4,19.6,24.5l1.2,38.5l31.6-23.6c31,5.7,51.6-4.2,51.6-4.2
				c35.5-16.1,40-41.2,40-41.2S2000.6,87.3,1967.8,62.5z M1978.9,115.8c0,0-3.9,21.8-34.8,35.9c0,0-17.9,8.6-44.9,3.6l-27.5,20.5
				l-1-33.5c-3.9-2.7-12.4-9.4-17.1-21.3c-1.4-3.7-6.7-18.6,0.2-33.8c3.1-6.8,7.4-10.8,11.5-14.6c5.5-5.1,17.2-14.2,36.6-18.7
				c0,0,30.1-7.8,58.7,13.8C1989,89.3,1978.9,115.8,1978.9,115.8z"/>
			<ellipse class="st35" cx="1915.3" cy="104.8" rx="65.1" ry="52.1"/>
			<ellipse class="st38" cx="1888.3" cy="104.7" rx="8.4" ry="7.9"/>
			<ellipse class="st38" cx="1918.4" cy="104.7" rx="8.4" ry="7.9"/>
			<ellipse class="st38" cx="1946.3" cy="104.7" rx="8.4" ry="7.9"/>
			<path class="st39" d="M1962.5,67.7c-16-12.1-32.5-14.9-43.9-15.1v104.2c17.1-0.1,27.6-5.2,27.6-5.2c30.9-14,34.8-35.9,34.8-35.9
				S1991.1,89.3,1962.5,67.7z"/>
		</g>
	</g>
	<g>
		<g id="Rectangle_335" transform="translate(1192 1277)">
			<rect x="927.3" y="-1277" class="st40" width="362" height="250.1"/>
			<rect x="927.6" y="-1276.6" class="st1" width="361.3" height="249.4"/>
		</g>
		<g>
			<ellipse class="st41" cx="2299.8" cy="129.1" rx="103.2" ry="99"/>
			<g>
				<ellipse class="st42" cx="2301.3" cy="171.6" rx="48.8" ry="42.4"/>
				<path class="st43" d="M2366,205.9c1.6-1.6,3.4-3.1,5-4.7c-2.3-3.9-12.1-17.2-43.7-25.7l-0.6-12.7c0.1-1.2-0.1-2.1-0.3-2.8
					c-0.8-2.1-4.1-4.4-8.6-5.8c-5.5-1.6-12.5-2-16.2-2.1c-3.6,0-11.8-0.2-20.3,3.2c-5.7,2.3-6.8,4.3-6.9,5.3c-0.3,4.4,0,14.2,0,14.2
					s-40.7,11.7-44.3,27.3c0,0,57.7,54.9,133.2,5.7C2364.2,207.2,2365.1,206.5,2366,205.9z"/>
				<ellipse class="st44" cx="2300.4" cy="160.8" rx="24.1" ry="7"/>
				<g class="st45">
					<g>
						<path class="st46" d="M2320.3,181.3c-1.6,1-3.1,1.6-5.2,2.3c-3,0.9-7.9,2.4-14.8,2.3v2.6c10.6,0.1,21.8-2.7,25.1-10.3
							c0.6-1.4,0.8-2.6,0.9-3.4C2325.3,176.5,2323.5,179.2,2320.3,181.3z"/>
						<path class="st46" d="M2280.7,181.3c1.6,1,3.1,1.6,5.2,2.3c3,0.9,7.9,2.4,14.8,2.3v2.6c-10.6,0.1-21.8-2.7-25.1-10.3
							c-0.6-1.4-0.8-2.6-0.9-3.4C2275.6,176.5,2277.5,179.2,2280.7,181.3z"/>
					</g>
					<g>
						<path class="st46" d="M2320,173c-1.6,1-3.1,1.6-5.2,2.3c-3,0.9-7.9,2.4-14.8,2.3v2.6c10.6,0.1,21.8-2.7,25.1-10.3
							c0.6-1.4,0.8-2.6,0.9-3.4C2325.1,168.2,2323.2,170.9,2320,173z"/>
						<path class="st46" d="M2280.4,173c1.6,1,3.1,1.6,5.2,2.3c3,0.9,7.9,2.4,14.8,2.3v2.6c-10.6,0.1-21.8-2.7-25.1-10.3
							c-0.6-1.4-0.8-2.6-0.9-3.4C2275.3,168.2,2277.2,170.9,2280.4,173z"/>
					</g>
				</g>
				<path class="st47" d="M2284.3,156.9v9.1c0,0,15.5,3.8,31.9,0l-0.4-9.1H2284.3z"/>
				<g>
					<path class="st48" d="M2337.5,85.3l-37.6-0.9v78.4c1.7,0.1,9.8,0.4,18.2-5.6c9.4-6.8,16.4-16.2,18.4-28.9
						C2338.4,115.6,2337.5,85.3,2337.5,85.3z"/>
					<path class="st48" d="M2262.2,85.3l37.6-0.9v78.4c-1.7,0.1-9.8,0.4-18.2-5.6c-9.4-6.8-16.4-16.2-18.4-28.9
						C2261.3,115.6,2262.2,85.3,2262.2,85.3z"/>
				</g>
				<ellipse class="st48" cx="2298.5" cy="111.5" rx="43.1" ry="45.4"/>
				<g>
					<path class="st47" d="M2299.8,88l-37.6,0.9c0,0-0.9,30.4,1,43c1.9,12.7,9,22.1,18.4,28.9c8.4,6,16.6,5.8,18.2,5.6V88z"/>
				</g>
				<path class="st47" d="M2299.8,69.7c-0.4,0-0.9,0-1.3,0c-23.8,0-43.1,20.3-43.1,45.4c0,25.1,19.3,45.4,43.1,45.4
					c0.4,0,0.9,0,1.3,0V69.7z"/>
				<g>
					<path class="st49" d="M2298.6,63.2c-5.9-2.5-25.4,1.8-29.5,10.6c-4.1,8.9-9.6,15.3-15.6,21.1c-6,5.8-6.4,17.9-7,25
						c-0.4,5-1.6,9.4-3.9,14.4c-2.3,5-0.9,13.8,1,18c1.9,4.2-8.2,15.6-8.8,18.4c-1.5,3.9,4.3,11.3,6.3,14.4c2.1,3.2,6.8,11.2,0,13
						c2.5,0.5,4.9-2.4,6.4-3.9c0.3,1.3,0.3,2.8-0.3,4c-0.6,1.2,2.4-2.4,2.9-4.3c0.4,1.6,0.8,3.2,1.2,4.8c2.6,0,5.3-0.1,7.9-0.1
						c-0.5-2.2-1-4.3-1.5-6.5c5.3,2.9,12.2,5.7,17.7,2.3c-6.6-2.3-8-9.6-8.1-15.8c-0.2-6.2,0.8-12.9,4.6-18.7
						c3.8-5.7,1.4-13.3-1.3-20.5c-2.7-7.2-4.9-19.3-2.9-27.8c4.9-3.9,8.9-10.1,8.4-16.3c-0.5-6.2-0.1-12,4.1-16.9
						c4.1-4.9,14.4-3.8,19.7-2.6c3.2,1.6,3.8-0.4,8,0.3c4.2,0.7,9,5.9,10.8,11.8c5,15.5,9.6,11.5,12.3,18.2
						c1.6,3.9,3.7,11.2,2.6,21.3c-3.1,13.2-5.6,22.9-7.7,30.5c-0.4,1.5-1.3,4.2-0.8,7.6c0.8,6.3,5.6,10.8,9.7,15.7
						c-0.3-2.1-0.7-3.8-0.5-5.7c4.9,1.7,11.3,7.2,11.1,11.9c-0.2,4.7-1.8,6.1-4.1,9c5.5,4.5,8.8,2.7,12.3-2.9
						c0.9,1.4,1.6,2.7,2.6,4.2c6.3-5,11.8-11.9,10.2-20.8c-1.6-8.9-9.3-22.9-9.9-30.2c-0.6-7.3,2.7-9.4,4.4-11.8
						c1.8-2.4,1.1-0.8,1.4-1.6c1.7-4.8-5.5-9.8-7.8-12.2c-6.1-6.4-9.3-19.4-12.5-26.7c-4-8.9-17.7-29.3-26.6-30.1
						c-5.4-0.5-3.3,0.2-5.5,0c-5.1-0.3-3.8,0.8-8.9-0.4C2300.1,63.6,2304.6,65.6,2298.6,63.2z"/>
				</g>
				<g>
					<path class="st50" d="M2294.2,113c0,0,5.8-2.2,11.4,0l-0.6,0.9c0,0-3.9-2.1-10.4-0.2L2294.2,113z"/>
					<path class="st50" d="M2327.5,113.6c0.6,0.1,1.8,0.3,3.2,0c0.9-0.2,2.1-0.7,2.4-1.1c0,0,0.1-0.1,0.1-0.1c0.4-0.1,1,0.4,1.1,1
						c0,0.1,0.1,0.3,0,0.6c-0.1,0.4-0.4,0.5-0.7,0.7c-0.6,0.4-1.3,0.5-1.8,0.5c-0.3,0-0.5,0-0.6,0c-1,0-2.1,0-3.1,0L2327.5,113.6z"
						/>
					<path class="st50" d="M2271.9,113.6c-0.6,0.1-1.8,0.3-3.2,0c-0.9-0.2-2.1-0.7-2.4-1.1c0,0-0.1-0.1-0.1-0.1
						c-0.4-0.1-1,0.4-1.1,1c0,0.1-0.1,0.3,0,0.6c0.1,0.4,0.4,0.5,0.7,0.7c0.6,0.4,1.3,0.5,1.8,0.5c0.3,0,0.5,0,0.6,0
						c1,0,2.1,0,3.1,0L2271.9,113.6z"/>
					<path class="st50" d="M2284.2,106.6c-7.5-0.5-13.5,2.3-13.3,10c0.3,7.7,5.2,12.6,11.5,12.8s11-5.3,12.3-11.7
						C2296.1,111.1,2291.7,107.1,2284.2,106.6z M2293.6,117.6c-1.1,5.8-5.3,10.7-11,10.5c-5.7-0.1-10.1-4.6-10.3-11.4
						c-0.3-6.9,5.2-9.4,11.9-8.9C2290.8,108.2,2294.7,111.8,2293.6,117.6z"/>
					<path class="st50" d="M2305.2,117.6c1.3,6.4,5.9,11.9,12.3,11.7s11.2-5.1,11.5-12.8c0.3-7.7-5.8-10.4-13.3-10
						C2308.3,107.1,2303.9,111.1,2305.2,117.6z M2315.9,107.8c6.7-0.4,12.2,2.1,11.9,8.9c-0.3,6.9-4.7,11.3-10.3,11.4
						c-5.7,0.1-9.9-4.8-11-10.5C2305.3,111.8,2309.2,108.2,2315.9,107.8z"/>
				</g>
			</g>
		</g>
	</g>
</g>
</svg>
