<?xml version="1.0" encoding="utf-8"?>
<!-- Generator: Adobe Illustrator 26.3.1, SVG Export Plug-In . SVG Version: 6.00 Build 0)  -->
<svg version="1.1" xmlns="http://www.w3.org/2000/svg" xmlns:xlink="http://www.w3.org/1999/xlink" x="0px" y="0px"
	 viewBox="0 0 1920 737" style="enable-background:new 0 0 1920 737;" xml:space="preserve">
<style type="text/css">
	.st0{fill:#E2D8C7;}
	.st1{fill:#D9B154;}
	.st2{fill:#B6D1DA;}
	.st3{fill:#BC6F27;}
	.st4{fill:#BAB5A8;}
	.st5{fill:#AA410B;}
	.st6{fill:#FFFFFF;}
	.st7{font-family:'WorkSans-Medium';}
	.st8{font-size:36.8863px;}
	.st9{font-family:'DMSerifDisplay-Regular';}
	.st10{font-size:170px;}
</style>
<g id="Layer_3">
	<rect class="st0" width="1920" height="736.1"/>
</g>
<g id="Layer_2">
	<path class="st2" d="M1427.2,596.6c25.8,4.5,52.9,2.2,77.8,10.4c56.3,18.5,80.6,81.1,117.1,129.2h297.9V143.5
		c-41.5-0.8-90.5,9-117.8,26.3c-34,21.5-55,59-87.5,82.6c-68.6,49.9-163.4,25.1-248,30.7c-10.6,0.7-21.9,2.3-29.6,9.5
		c-6,5.6-8.9,13.8-11.4,21.7c-22.1,67.7-40.2,136.6-54.4,206.4c-2,10-4,20.3-2.2,30.4C1373.9,576.7,1401.4,592,1427.2,596.6z"/>
	<path class="st3" d="M1089.9,736.1c6.6-49.1-25.7-127.7-54-144.3c-14.4-8.4-31.7-9.3-48.3-10.8c-63-5.7-124.8-23.5-181.2-52.1
		c-34.8-17.6-71.5-40.1-109.8-32.7c-61.8,11.8-84.9,90.5-138.6,123.2c-49.3,30-121,19.1-158.7,62.9c-13,15.1-19.2,34-22.2,53.9
		H1089.9z"/>
	<path class="st4" d="M1026.8-0.6c-9.9,40.8-22.3,81.1-31.7,122.5c-4,17.7-7.3,37.8,3.1,52.7c8.8,12.7,24.8,17.6,39.7,21.8
		c55.7,15.6,111.4,31.2,167.2,46.8c6.1,1.7,12.5,3.4,18.7,2.3c10.5-2,17.7-11.5,23.7-20.4c25.2-37.2,53.3-78.7,97.2-88.6
		c65.5-14.7,138.7,48,195.9,13c24.2-14.8,36.3-43.1,45.6-70c8.8-25.2,15.5-54.9,10.9-80.2H1026.8z"/>
	<path class="st5" d="M95.5,435.6c-16.2,28.7-35.9,56.1-44,88.1s-0.9,70.8,27.1,88.3c17.1,10.7,38.4,11.4,58.6,11.7
		c47,0.8,95.3,1.3,139.3-15.5c84.7-32.2,141.4-123.7,230.7-139.1c31.1-5.4,63.4-0.7,94.2-7.4c45.6-10,83.2-45,104.3-86.7
		c21.1-41.7,27.4-89.4,26.9-136.1c-168.2-55.9-348.4-75.5-524.6-57c-28,2.9-58.3,8-77.3,28.7c-33.1,36,8.6,54.4,13.8,84
		C151.6,334.7,114.5,402,95.5,435.6z"/>
	<path class="st1" d="M181.4-0.6c-13.6,50.1,28.1,65,72.8,64.9c80.3-0.3,155.9,1.1,234.2,22.5c36.8,10.1,73.5,23.3,111.6,22.9
		c63.7-0.7,124.7-43.9,146.6-103.7c0.8-2.1,1.5-4.3,2.1-6.5H181.4z"/>
</g>
<g id="Layer_1">
	<g id="Layer_4">
	</g>
	<text transform="matrix(1 0 0 1 900.0941 512.856)" class="st6 st7 st8">Tema 6</text>
	<text transform="matrix(1 0 0 1 227.9933 402.7188)" class="st6 st9 st10">Eksamens portfolio</text>
</g>
</svg>
