<?xml version="1.0" encoding="utf-8"?>
<!-- Generator: Adobe Illustrator 26.3.1, SVG Export Plug-In . SVG Version: 6.00 Build 0)  -->
<svg version="1.1" xmlns="http://www.w3.org/2000/svg" xmlns:xlink="http://www.w3.org/1999/xlink" x="0px" y="0px"
	 viewBox="0 0 1920 580" style="enable-background:new 0 0 1920 580;" xml:space="preserve">
<style type="text/css">
	.st0{fill:#E2D8C7;}
	.st1{fill:#D9B154;}
	.st2{fill:#B6D1DA;}
	.st3{fill:#BC6F27;}
	.st4{fill:#BAB5A8;}
	.st5{fill:#AA410B;}
	.st6{fill:#FFFFFF;}
</style>
<g id="Layer_3">
	<polygon class="st0" points="0,0.7 0,379.6 0.3,379.6 0.3,579.8 1920,579.8 1920,0.7 	"/>
</g>
<g id="Layer_2">
	<path class="st2" d="M1427.2,518.1c25.8,4.5,52.9,2.2,77.8,10.4c27.3,9,47.1,28.3,64.4,51.3h350.7V65c-41.5-0.8-90.5,9-117.8,26.3
		c-34,21.5-55,59-87.5,82.6c-68.6,49.9-163.4,25.1-248,30.7c-10.6,0.7-21.9,2.3-29.6,9.5c-6,5.6-8.9,13.8-11.4,21.7
		c-22.1,67.7-40.2,136.6-54.4,206.4c-2,10-4,20.3-2.2,30.4C1373.9,498.2,1401.4,513.5,1427.2,518.1z"/>
	<path class="st3" d="M1078.4,579.8c-10.9-30.6-27.3-57.5-42.5-66.5c-14.4-8.4-31.7-9.3-48.3-10.8c-63-5.7-124.8-23.5-181.2-52.1
		c-34.8-17.6-71.5-40.1-109.8-32.7c-61.8,11.8-84.9,90.5-138.6,123.2c-37.1,22.6-86.9,22-125.3,39H1078.4z"/>
	<path class="st4" d="M1005.7,0.7c-3.7,14.1-7.4,28.3-10.6,42.7c-4,17.7-7.3,37.8,3.1,52.7c8.8,12.7,24.8,17.6,39.7,21.8
		c55.7,15.6,111.4,31.2,167.2,46.8c6.1,1.7,12.5,3.4,18.7,2.3c10.5-2,17.7-11.5,23.7-20.4c25.2-37.2,53.3-78.7,97.2-88.6
		c65.5-14.7,138.7,48,195.9,13c24.2-14.8,36.3-43.1,45.6-70c0-0.1,0.1-0.2,0.1-0.3H1005.7z"/>
	<path class="st5" d="M638.6,231.4c-168.2-55.9-348.4-75.5-524.6-57c-28,2.9-58.3,8-77.3,28.7c-33.1,36,8.6,54.4,13.8,84
		c7.1,40.2-30,107.4-49,141.1c-0.4,0.7-0.8,1.5-1.3,2.2v149.4h223.3c63.8-40.2,115.5-105.4,189.6-118.1c31.1-5.4,63.4-0.7,94.2-7.4
		c45.6-10,83.2-45,104.3-86.7C632.8,325.8,639.1,278.1,638.6,231.4z"/>
	<path class="st1" d="M232.4,0.7c4.7,30.1,38.8,39.8,74.8,39.6c80.3-0.3,155.9,1.1,234.2,22.5c36.8,10.1,73.5,23.3,111.6,22.9
		c56.8-0.7,111.5-35.1,138.2-85H232.4z"/>
</g>
<g id="Layer_1">
	<g id="Layer_4">
	</g>
	<g>
		<path class="st6" d="M921.8,410v3.4h-8.3v21h-3.9v-21h-8.3V410H921.8z"/>
		<path class="st6" d="M930.2,434.7c-1.8,0-3.5-0.4-4.9-1.1s-2.5-1.9-3.3-3.3c-0.8-1.4-1.2-3.2-1.2-5.1s0.4-3.7,1.2-5.1
			c0.8-1.4,1.9-2.5,3.2-3.3c1.4-0.8,2.9-1.1,4.7-1.1c1.8,0,3.3,0.4,4.6,1.1c1.3,0.7,2.2,1.7,2.9,3s1,2.7,1,4.4c0,0.4,0,0.9,0,1.3
			c0,0.4-0.1,0.7-0.1,1h-14.8v-3h13.1l-2,0.6c0-1.7-0.4-3-1.3-3.9c-0.8-0.9-2-1.3-3.4-1.3c-1.1,0-2,0.2-2.8,0.7
			c-0.8,0.5-1.4,1.2-1.8,2.2c-0.4,1-0.6,2.2-0.6,3.6c0,1.4,0.2,2.5,0.7,3.5c0.4,1,1.1,1.7,1.9,2.2s1.8,0.7,2.9,0.7
			c1.2,0,2.2-0.2,3-0.7c0.8-0.5,1.4-1.1,1.8-2l3.1,1.5c-0.4,0.9-1,1.7-1.8,2.3s-1.6,1.2-2.7,1.5
			C932.6,434.6,931.5,434.7,930.2,434.7z"/>
		<path class="st6" d="M943.4,434.4v-18.4h3.5l0.2,3.1c0.6-1.2,1.5-2.1,2.6-2.6c1.1-0.6,2.2-0.8,3.4-0.8c1.3,0,2.6,0.3,3.7,0.9
			c1.1,0.6,2,1.5,2.5,2.7c0.4-0.8,0.9-1.5,1.6-2c0.7-0.5,1.5-0.9,2.3-1.2c0.8-0.3,1.7-0.4,2.5-0.4c1.2,0,2.3,0.2,3.3,0.7
			c1,0.5,1.9,1.2,2.5,2.2c0.6,1,1,2.3,1,3.9v12h-3.9V423c0-1.5-0.4-2.6-1.1-3.2c-0.7-0.7-1.6-1-2.7-1c-0.9,0-1.7,0.2-2.4,0.6
			c-0.7,0.4-1.3,1-1.8,1.9c-0.4,0.8-0.7,1.8-0.7,3v10H956V423c0-1.5-0.4-2.6-1.1-3.2c-0.7-0.7-1.6-1-2.7-1c-0.7,0-1.5,0.2-2.2,0.6
			c-0.7,0.4-1.4,1-1.8,1.8c-0.5,0.8-0.7,1.9-0.7,3.3v9.8H943.4z"/>
		<path class="st6" d="M989.1,422.5c0-1.2-0.3-2.2-1-2.9c-0.7-0.7-1.6-1-2.8-1c-1.1,0-2.1,0.3-2.8,0.8c-0.8,0.5-1.4,1.4-1.7,2.5
			l-3.3-1.4c0.5-1.5,1.4-2.7,2.7-3.6c1.4-0.9,3.1-1.4,5.3-1.4c1.5,0,2.8,0.2,3.9,0.7c1.1,0.5,2,1.2,2.7,2.2c0.7,1,1,2.2,1,3.7v8.2
			c0,0.9,0.5,1.4,1.4,1.4c0.4,0,0.9-0.1,1.3-0.2l-0.2,2.7c-0.6,0.3-1.3,0.4-2.1,0.4c-0.8,0-1.5-0.1-2.1-0.4
			c-0.6-0.3-1.1-0.7-1.5-1.3s-0.5-1.3-0.5-2.2v-0.3l0.8,0c-0.2,1-0.7,1.8-1.4,2.4c-0.7,0.6-1.5,1.1-2.4,1.4
			c-0.9,0.3-1.8,0.5-2.8,0.5c-1.2,0-2.2-0.2-3.1-0.6s-1.6-0.9-2.2-1.7c-0.5-0.8-0.8-1.7-0.8-2.8c0-1.4,0.4-2.5,1.3-3.4
			s2.2-1.5,3.8-1.8l7.2-1.4l0,2.8l-5.2,1.1c-1,0.2-1.8,0.5-2.3,0.8c-0.5,0.4-0.8,0.9-0.8,1.6c0,0.7,0.3,1.2,0.8,1.6
			c0.5,0.4,1.2,0.6,2.1,0.6c0.6,0,1.2-0.1,1.8-0.2c0.6-0.1,1.1-0.4,1.6-0.7c0.5-0.3,0.8-0.8,1.1-1.3c0.3-0.5,0.4-1.2,0.4-1.9V422.5z
			"/>
		<path class="st6" d="M1019.8,409.6c1.3,0,2.5,0.2,3.5,0.5c1,0.4,1.9,0.9,2.6,1.7c0.8,0.8,1.4,1.8,1.9,3l-3.5,1.7
			c-0.3-1.1-0.9-1.9-1.6-2.5c-0.8-0.6-1.8-0.9-3.1-0.9c-1,0-1.8,0.2-2.5,0.7s-1.4,1.1-1.9,2c-0.5,0.8-0.9,1.8-1.2,3
			c-0.3,1.1-0.4,2.4-0.4,3.7c0,0.1,0,0.2,0,0.2s0,0.2,0,0.4l0.1,0.1c0.3-1,0.8-1.8,1.5-2.4c0.7-0.6,1.5-1.1,2.4-1.3
			c0.9-0.3,1.8-0.4,2.6-0.4c1.6,0,3,0.3,4.2,0.9s2.1,1.5,2.8,2.7c0.7,1.2,1,2.5,1,4.1c0,1.6-0.4,3-1.1,4.2c-0.7,1.2-1.7,2.1-3,2.8
			c-1.3,0.7-2.8,1-4.6,1c-2.1,0-3.8-0.5-5.3-1.5s-2.6-2.5-3.3-4.4c-0.8-1.9-1.1-4.1-1.1-6.6c0-2.8,0.4-5.1,1.3-7
			c0.9-1.9,2.1-3.3,3.6-4.2S1018,409.6,1019.8,409.6z M1019.6,422.3c-0.9,0-1.8,0.2-2.5,0.6c-0.7,0.4-1.3,0.9-1.7,1.6
			c-0.4,0.7-0.6,1.4-0.6,2.3c0,0.9,0.2,1.6,0.6,2.3c0.4,0.7,1,1.2,1.7,1.6c0.7,0.4,1.5,0.6,2.4,0.6c1.5,0,2.7-0.4,3.5-1.2
			c0.8-0.8,1.3-1.9,1.3-3.4c0-0.9-0.2-1.7-0.6-2.4c-0.4-0.7-0.9-1.2-1.6-1.6C1021.5,422.5,1020.6,422.3,1019.6,422.3z"/>
	</g>
	<g>
		<path class="st6" d="M231.7,324.2v-1.7l3.9-1.5c1.9-0.8,3.3-1.8,4-3.1c0.7-1.3,1.1-3.1,1.1-5.4v-88.7c0-2.3-0.3-4.1-0.9-5.4
			c-0.6-1.3-2-2.4-4.2-3.1l-3.9-1.5V212h81.4l1,26.2h-1.7l-7.3-16c-1-2-2.1-3.7-3.2-4.9c-1.1-1.2-2.8-1.9-5.1-1.9h-30.6v49.1h18.2
			c2.3,0,4-0.6,5.2-1.8s2.2-2.8,3.1-4.8l3.4-6.8h1.7v30.6h-1.7l-3.4-7.1c-1-2-2.1-3.7-3.2-4.8c-1.1-1.2-2.8-1.8-5.1-1.8h-18.2v52.9
			h34.3c2.3,0,4-0.6,5.3-1.8c1.2-1.2,2.3-2.9,3.1-5l7-16h1.7l-1,26.2H231.7z"/>
		<path class="st6" d="M326.1,324.2v-1.7l2.5-0.8c3.9-1.2,5.8-4,5.8-8.3v-91c0-2.3-0.5-4-1.4-5.1c-0.9-1.1-2.5-2-4.8-2.7l-2.2-0.5
			v-1.7l31.1-7.3l2,1.5l-0.5,23.8v83c0,4.5,1.9,7.4,5.6,8.5l2.4,0.7v1.7H326.1z M389.2,324.2l-30.3-42.5l31.5-29.1
			c1.5-1.4,2.4-2.8,2.6-4.3c0.3-1.5-0.7-2.6-3-3.3l-2.9-0.8v-1.7h25.3v1.7l-5.1,1.4c-2.5,0.8-4.5,1.7-6,2.8
			c-1.5,1.1-3.4,2.6-5.5,4.5l-19,17.9l30.4,42.3c1.8,2.5,3.5,4.4,5.1,5.8c1.6,1.4,3.6,2.5,6.1,3.4l0.7,0.3v1.7H389.2z"/>
		<path class="st6" d="M453.4,326.8c-5.6,0-10.5-0.7-15-2c-4.4-1.3-8.5-2.9-12.2-4.8l0.2-20.2h1.7l5.8,10.2
			c2.5,4.5,5.2,7.9,8.2,10.1c3,2.2,6.8,3.3,11.5,3.3c5.4,0,9.8-1.2,13.2-3.7c3.3-2.4,5-5.7,5-9.8c0-3.7-1.2-6.8-3.6-9.2
			s-6.8-4.5-13.3-6.5l-7.1-2.2c-6.9-2-12.4-5.2-16.3-9.5c-4-4.3-5.9-9.6-5.9-15.8c0-7.5,2.9-13.8,8.8-19c5.9-5.2,14.3-7.8,25.3-7.8
			c4.4,0,8.6,0.5,12.5,1.4c3.9,1,7.7,2.4,11.3,4.3l-1,18.4h-1.7l-6-10.5c-2.2-3.7-4.3-6.4-6.4-7.9c-2.1-1.5-5.2-2.3-9.4-2.3
			c-3.9,0-7.5,1.1-10.9,3.2c-3.4,2.2-5.1,5.2-5.1,9.2c0,3.9,1.4,6.9,4.3,9.2c2.9,2.3,7.2,4.4,12.8,6.3l7.6,2.2
			c8.2,2.5,14,5.9,17.5,10.3c3.5,4.4,5.3,9.6,5.3,15.7c0,8.3-3.3,14.9-9.8,19.9C474.3,324.3,465.2,326.8,453.4,326.8z"/>
		<path class="st6" d="M521.9,326.8c-6.6,0-12.1-1.9-16.6-5.6c-4.5-3.7-6.7-9.1-6.7-16.1c0-5.3,2.7-10.2,8.2-14.7
			c5.4-4.5,14-7.8,25.7-10.1c1.8-0.3,3.9-0.7,6.1-1.1c2.3-0.4,4.6-0.8,7.1-1.3v-13.4c0-7.7-0.9-13.1-2.8-16.2
			c-1.9-3.1-4.8-4.7-8.8-4.7c-2.7,0-4.9,0.9-6.5,2.6c-1.6,1.8-2.6,4.8-3.1,9.1l-0.3,1.9c-0.2,4.9-1.4,8.4-3.6,10.7
			c-2.2,2.3-4.8,3.4-8,3.4c-2.9,0-5.4-0.9-7.3-2.7c-1.9-1.8-2.9-4.2-2.9-7.3c0-4.6,1.6-8.6,4.8-11.7c3.2-3.2,7.5-5.6,12.8-7.1
			c5.3-1.6,11.1-2.4,17.3-2.4c10.1,0,17.9,2.5,23.4,7.4c5.5,4.9,8.2,12.9,8.2,24.1v37.6c0,5.1,2.4,7.6,7.1,7.6h3.7l1.5,1.4
			c-2.2,2.7-4.5,4.8-7.1,6.3s-6.1,2.2-10.8,2.2c-5,0-8.9-1.2-11.8-3.5c-2.9-2.3-4.8-5.4-5.7-9.3c-3.4,3.6-6.9,6.7-10.5,9.3
			C532.2,325.5,527.6,326.8,521.9,326.8z M532.3,316.4c2.3,0,4.4-0.5,6.4-1.6c2-1.1,4.3-2.7,7.1-5v-28.6c-1.1,0.2-2.3,0.5-3.4,0.7
			c-1.1,0.2-2.4,0.5-3.9,0.7c-5.2,1.4-9.4,3.7-12.5,6.9c-3.1,3.2-4.7,7.6-4.7,13c0,4.6,1.1,8.1,3.2,10.5
			C526.6,315.2,529.2,316.4,532.3,316.4z"/>
		<path class="st6" d="M584.8,324.2v-1.7l2.4-0.7c2.2-0.6,3.7-1.5,4.5-2.9c0.8-1.4,1.3-3.2,1.4-5.4v-53.2c0-2.5-0.4-4.3-1.2-5.5
			c-0.8-1.2-2.3-2-4.6-2.5l-2.6-0.7v-1.7l29.1-9.9l1.7,1.7l1.4,11.6c3.7-3.7,8-6.9,12.8-9.5c4.8-2.6,9.8-3.9,15-3.9
			c5.4,0,9.8,1.1,13.1,3.3c3.3,2.2,5.8,5.6,7.5,10.3c4.4-4.2,9.2-7.5,14.4-9.9c5.2-2.4,10.2-3.7,15-3.7c8,0,14,1.9,17.8,5.8
			c3.8,3.9,5.7,9.9,5.7,18.2v49.8c0,4.4,2,7.2,6.1,8.3l1.9,0.5v1.7H687v-1.7l1.7-0.5c2.2-0.7,3.7-1.7,4.5-3.1
			c0.8-1.4,1.3-3.2,1.3-5.4v-52c0-4.8-0.8-8-2.5-9.8c-1.7-1.8-4.4-2.6-8.2-2.6c-2.9,0-5.8,0.7-8.6,2c-2.8,1.3-5.7,3.3-8.8,5.9
			c0.6,1.8,0.9,3.8,1.1,6c0.2,2.2,0.3,4.4,0.3,6.8v44c0.1,4.4,2.2,7.2,6.1,8.3l1.5,0.5v1.7H636v-1.7l2.4-0.7c2.2-0.7,3.7-1.7,4.5-3
			c0.9-1.3,1.3-3.1,1.3-5.4v-51.9c0-4.5-0.8-7.8-2.5-9.7c-1.6-1.9-4.4-2.9-8.4-2.9c-2.6,0-5.2,0.7-7.8,2c-2.6,1.3-5.3,3.2-8.2,5.7
			v57c0,4.4,2,7.2,5.9,8.3l1.5,0.5v1.7H584.8z"/>
		<path class="st6" d="M775.6,239.9c7.4,0,13.7,1.5,18.9,4.5c5.2,3,9.2,7.1,12,12.2c2.8,5.2,4.2,11,4.2,17.6c0,1.2-0.1,2.5-0.2,3.8
			c-0.1,1.3-0.3,2.5-0.7,3.5h-50.7c0.1,12.2,2.3,21.1,6.5,26.4c4.2,5.4,10.6,8.1,19,8.1c5.7,0,10.3-0.9,13.8-2.7
			c3.5-1.8,6.8-4.5,9.9-8l1.7,1.5c-3.5,6.2-8.2,11.1-14,14.6c-5.8,3.5-12.8,5.3-21,5.3c-8,0-15.2-1.7-21.4-5.2
			c-6.2-3.5-11.1-8.4-14.6-14.9c-3.5-6.5-5.3-14.2-5.3-23.1c0-9.3,2-17.2,6.1-23.7c4.1-6.5,9.3-11.5,15.7-14.9
			C761.8,241.6,768.5,239.9,775.6,239.9z M775,243.3c-3.3,0-6.1,1-8.4,3c-2.3,2-4.1,5.5-5.4,10.5c-1.3,5-2,12.2-2.1,21.3h29.1
			c1.1-12.4,0.7-21.2-1.4-26.7C784.7,246,780.8,243.3,775,243.3z"/>
		<path class="st6" d="M819.1,324.2v-1.7l2.4-0.7c4-1.1,6-3.9,6-8.3v-53.2c0-2.5-0.4-4.3-1.2-5.5c-0.8-1.2-2.3-2-4.6-2.5l-2.5-0.7
			v-1.7l29.1-9.9l1.7,1.7l1.4,10.2c4-3.5,8.4-6.4,13.4-8.7c5-2.3,9.9-3.4,14.8-3.4c7.5,0,13.2,2,17.3,6.1c4,4.1,6,10.3,6,18.7v49
			c0,4.4,2.2,7.2,6.5,8.3l1.5,0.5v1.7h-40.1v-1.7l2.2-0.7c4-1.2,6-4,6-8.3v-54.2c0-7.3-3.6-10.9-10.9-10.9c-5,0-10.4,2.5-16.3,7.5
			v57.8c0,4.4,2,7.2,6,8.3l1.5,0.5v1.7H819.1z"/>
		<path class="st6" d="M946.7,326.8c-5.6,0-10.5-0.7-15-2c-4.4-1.3-8.5-2.9-12.2-4.8l0.2-20.2h1.7l5.8,10.2
			c2.5,4.5,5.2,7.9,8.2,10.1c3,2.2,6.8,3.3,11.5,3.3c5.4,0,9.8-1.2,13.2-3.7c3.3-2.4,5-5.7,5-9.8c0-3.7-1.2-6.8-3.6-9.2
			c-2.4-2.4-6.8-4.5-13.3-6.5l-7.1-2.2c-6.9-2-12.4-5.2-16.3-9.5c-4-4.3-6-9.6-6-15.8c0-7.5,2.9-13.8,8.8-19
			c5.9-5.2,14.3-7.8,25.3-7.8c4.4,0,8.6,0.5,12.5,1.4c3.9,1,7.7,2.4,11.3,4.3l-1,18.4h-1.7l-5.9-10.5c-2.2-3.7-4.3-6.4-6.4-7.9
			c-2.1-1.5-5.2-2.3-9.4-2.3c-3.9,0-7.5,1.1-10.9,3.2c-3.4,2.2-5.1,5.2-5.1,9.2c0,3.9,1.4,6.9,4.3,9.2c2.9,2.3,7.2,4.4,12.8,6.3
			l7.6,2.2c8.2,2.5,14,5.9,17.5,10.3c3.5,4.4,5.3,9.6,5.3,15.7c0,8.3-3.3,14.9-9.8,19.9C967.7,324.3,958.5,326.8,946.7,326.8z"/>
		<path class="st6" d="M1028.5,363.3v-1.7l2-0.7c4.2-1.1,6.3-3.9,6.3-8.2v-92.5c0-2.5-0.4-4.4-1.3-5.6c-0.8-1.2-2.4-2.1-4.7-2.6
			l-2.4-0.5v-1.7l28.9-9.9l1.7,1.7l1.5,5.3c3.7-2.3,7.9-4,12.5-5.3c4.6-1.2,9.3-1.9,14.2-1.9c9.7,0,17.5,3.7,23.2,11.1
			c5.7,7.4,8.6,18,8.6,31.9c0,13.6-3.1,24.3-9.4,32.1s-15.2,11.7-26.6,11.7c-9,0-16.5-1.3-22.6-3.9v29.4c0,4.5,2,7.4,6.1,8.5
			l3.2,0.9v1.7H1028.5z M1074.9,321.8c5.7,0,10.2-2.9,13.5-8.8c3.3-5.9,5-15.7,5-29.4c0-13.7-1.6-23.3-4.8-28.8
			c-3.2-5.5-7.8-8.2-13.8-8.2c-4.2,0-8.8,1.4-13.9,4.1v68.5C1065.3,320.9,1069.9,321.8,1074.9,321.8z"/>
		<path class="st6" d="M1170.8,326.8c-8.6,0-16.1-1.8-22.4-5.4c-6.3-3.6-11.2-8.6-14.7-15.2c-3.5-6.6-5.2-14.3-5.2-23.1
			c0-8.8,1.8-16.5,5.5-22.9c3.7-6.5,8.7-11.4,15.1-15c6.4-3.5,13.6-5.3,21.7-5.3c8,0,15.2,1.7,21.6,5.2c6.3,3.5,11.4,8.4,15,14.9
			c3.7,6.5,5.5,14.2,5.5,23.1c0,9-1.7,16.7-5.2,23.2c-3.5,6.5-8.3,11.6-14.6,15.1S1179.4,326.8,1170.8,326.8z M1170.8,323.4
			c4,0,7.1-1.1,9.5-3.4c2.4-2.3,4.1-6.3,5.2-12.1c1.1-5.8,1.6-13.9,1.6-24.5c0-10.7-0.5-18.9-1.6-24.7c-1.1-5.8-2.8-9.8-5.2-12.1
			c-2.4-2.3-5.6-3.4-9.5-3.4c-4,0-7.2,1.1-9.6,3.4c-2.4,2.3-4.2,6.3-5.3,12.1c-1.1,5.8-1.6,14-1.6,24.7c0,10.5,0.5,18.7,1.6,24.5
			c1.1,5.8,2.8,9.8,5.3,12.1C1163.6,322.2,1166.8,323.4,1170.8,323.4z"/>
		<path class="st6" d="M1220.4,324.2v-1.7l2.5-0.7c2.3-0.7,3.8-1.7,4.7-3.1c0.8-1.4,1.3-3.1,1.3-5.3v-53.2c0-2.5-0.4-4.3-1.3-5.5
			c-0.8-1.2-2.4-2-4.7-2.5l-2.5-0.7v-1.7l29.2-9.9l1.7,1.7l1.5,14.6v1.4c1.6-3.2,3.7-6.1,6.2-8.8c2.5-2.7,5.4-4.8,8.5-6.5
			c3.1-1.7,6.2-2.6,9.3-2.6c4.3,0,7.6,1.2,9.9,3.6c2.3,2.4,3.4,5.4,3.4,9c0,3.9-1.1,6.8-3.3,8.9c-2.2,2.1-4.8,3.1-7.9,3.1
			c-4.8,0-9-2.4-12.6-7.1l-0.3-0.3c-1.1-1.6-2.4-2.5-3.9-2.6c-1.5-0.2-2.8,0.5-4.1,2.1c-1.1,1-2.1,2.2-2.8,3.7
			c-0.7,1.4-1.4,3-2.1,4.8v47.4c0,4.5,2,7.4,6,8.5l5.4,1.5v1.7H1220.4z"/>
		<path class="st6" d="M1329.2,326.8c-7.3,0-12.9-1.8-16.9-5.4c-4-3.6-6-9.4-6-17.3v-58.1h-11.7v-1.7l4.1-0.7
			c3.5-0.8,6.5-1.9,9.1-3.4c2.5-1.5,5.1-3.5,7.6-5.9l13.9-15.5h1.7l-0.5,23.8h19v3.4h-19.2V307c0,4,0.9,7,2.6,9c1.8,2,4,3.1,6.7,3.1
			c2.4,0,4.5-0.6,6.3-1.8c1.8-1.2,3.6-2.8,5.4-4.8l1.7,1.7c-2.3,3.9-5.4,6.9-9.3,9.2C1339.7,325.6,1334.9,326.8,1329.2,326.8z"/>
		<path class="st6" d="M1358.6,324.2v-1.7l2.2-0.5c2.2-0.6,3.9-1.6,5.1-3c1.2-1.4,1.9-3.3,1.9-5.5c0-4.2,0-8.4,0.1-12.5
			c0.1-4.1,0.1-8.3,0.1-12.5v-42.7h-9.5V244l3.7-0.7c2.3-0.2,3.9-1,4.9-2.4c1-1.4,1.8-3.2,2.2-5.6c1.1-4.4,2.8-8.3,5-11.6
			c2.2-3.3,4.7-6.4,7.6-9.3c4.3-4.1,8.9-6.9,13.7-8.6c4.8-1.6,9.5-2.5,14.2-2.5c4.5,0,8.7,0.9,12.4,2.8c3.7,1.9,5.6,5,5.6,9.3
			c0,3.1-0.9,5.5-2.7,7.2c-1.8,1.8-4.4,2.6-7.7,2.6c-2.7,0-5.2-0.7-7.5-2.2c-2.3-1.5-4.5-4.1-6.6-7.8l-2.4-2.9
			c-1.2-1.6-2.5-2.4-3.7-2.3c-1.2,0.1-2.2,1-2.7,2.8c-0.8,4-1.4,8.6-1.8,13.9c-0.4,5.3-0.6,10.5-0.6,15.6h19v3.4h-19v67.3
			c0,4.3,2.3,7.1,6.8,8.3l4.2,1v1.7H1358.6z"/>
		<path class="st6" d="M1457.6,326.8c-8.6,0-16.1-1.8-22.4-5.4c-6.3-3.6-11.2-8.6-14.7-15.2c-3.5-6.6-5.2-14.3-5.2-23.1
			c0-8.8,1.8-16.5,5.5-22.9c3.7-6.5,8.7-11.4,15.1-15c6.4-3.5,13.6-5.3,21.7-5.3c8,0,15.2,1.7,21.6,5.2c6.3,3.5,11.4,8.4,15,14.9
			c3.7,6.5,5.5,14.2,5.5,23.1c0,9-1.7,16.7-5.2,23.2c-3.5,6.5-8.3,11.6-14.6,15.1S1466.2,326.8,1457.6,326.8z M1457.6,323.4
			c4,0,7.1-1.1,9.5-3.4c2.4-2.3,4.1-6.3,5.2-12.1c1.1-5.8,1.6-13.9,1.6-24.5c0-10.7-0.5-18.9-1.6-24.7c-1.1-5.8-2.8-9.8-5.2-12.1
			c-2.4-2.3-5.6-3.4-9.5-3.4c-4,0-7.2,1.1-9.6,3.4c-2.4,2.3-4.2,6.3-5.3,12.1c-1.1,5.8-1.6,14-1.6,24.7c0,10.5,0.5,18.7,1.6,24.5
			c1.1,5.8,2.8,9.8,5.3,12.1C1450.4,322.2,1453.6,323.4,1457.6,323.4z"/>
		<path class="st6" d="M1507,324.2v-1.7l2-0.7c4.1-1.4,6.1-4.2,6.1-8.5v-91c0-2.3-0.5-4-1.4-5.2c-0.9-1.2-2.5-2.1-4.8-2.6l-2.2-0.5
			v-1.7l31.1-7.3l2,1.5l-0.7,23.8v58.1c0,4.2,0,8.4,0.1,12.5c0.1,4.1,0.1,8.2,0.1,12.3c0,2.3,0.5,4.1,1.4,5.5
			c0.9,1.4,2.4,2.5,4.6,3.1l2.2,0.5v1.7H1507z"/>
		<path class="st6" d="M1555.5,324.2v-1.7l2.4-0.7c2.3-0.7,3.8-1.7,4.7-3.1c0.8-1.4,1.3-3.2,1.3-5.4v-53.2c0-2.4-0.4-4.2-1.3-5.4
			c-0.8-1.2-2.4-2-4.7-2.5l-2.4-0.5v-1.7l31.1-10l1.7,1.7l-0.5,24.1v47.6c0,2.3,0.4,4.1,1.3,5.4c0.8,1.4,2.4,2.4,4.5,3.1l1.7,0.5
			v1.7H1555.5z M1575.6,231.1c-3.9,0-7.1-1.2-9.8-3.7c-2.7-2.4-4-5.5-4-9.3c0-3.9,1.3-7,4-9.3c2.7-2.4,5.9-3.6,9.8-3.6
			c3.9,0,7.1,1.2,9.7,3.6c2.6,2.4,3.9,5.5,3.9,9.3c0,3.7-1.3,6.8-3.9,9.3C1582.6,229.8,1579.4,231.1,1575.6,231.1z"/>
		<path class="st6" d="M1645.8,326.8c-8.6,0-16.1-1.8-22.4-5.4c-6.3-3.6-11.2-8.6-14.7-15.2c-3.5-6.6-5.2-14.3-5.2-23.1
			c0-8.8,1.8-16.5,5.5-22.9c3.7-6.5,8.7-11.4,15.1-15c6.4-3.5,13.6-5.3,21.7-5.3c8,0,15.2,1.7,21.6,5.2c6.3,3.5,11.4,8.4,15,14.9
			c3.7,6.5,5.5,14.2,5.5,23.1c0,9-1.7,16.7-5.2,23.2c-3.5,6.5-8.3,11.6-14.6,15.1S1654.4,326.8,1645.8,326.8z M1645.8,323.4
			c4,0,7.1-1.1,9.5-3.4c2.4-2.3,4.1-6.3,5.2-12.1c1.1-5.8,1.6-13.9,1.6-24.5c0-10.7-0.5-18.9-1.6-24.7c-1.1-5.8-2.8-9.8-5.2-12.1
			c-2.4-2.3-5.6-3.4-9.5-3.4c-4,0-7.2,1.1-9.6,3.4c-2.4,2.3-4.2,6.3-5.3,12.1c-1.1,5.8-1.6,14-1.6,24.7c0,10.5,0.5,18.7,1.6,24.5
			c1.1,5.8,2.8,9.8,5.3,12.1C1638.6,322.2,1641.8,323.4,1645.8,323.4z"/>
	</g>
</g>
</svg>
