<?xml version="1.0" encoding="utf-8"?>
<!-- Generator: Adobe Illustrator 26.3.1, SVG Export Plug-In . SVG Version: 6.00 Build 0)  -->
<svg version="1.1" xmlns="http://www.w3.org/2000/svg" xmlns:xlink="http://www.w3.org/1999/xlink" x="0px" y="0px"
	 viewBox="0 0 596 497.7" style="enable-background:new 0 0 596 497.7;" xml:space="preserve">
<style type="text/css">
	.st0{fill:#E2D8C7;}
	.st1{fill:#D9B154;}
	.st2{fill:#B6D1DA;}
	.st3{fill:#BC6F27;}
	.st4{fill:#BAB5A8;}
	.st5{fill:#AA410B;}
	.st6{fill:#FFFFFF;}
	.st7{fill:none;stroke:#000000;stroke-width:25;stroke-miterlimit:10;}
	.st8{fill:none;stroke:#000000;stroke-width:21;stroke-linecap:round;stroke-linejoin:round;stroke-miterlimit:10;}
	.st9{fill:none;stroke:#000000;stroke-width:21;stroke-miterlimit:10;}
</style>
<g id="Layer_3">
</g>
<g id="Layer_2">
</g>
<g id="Layer_1">
	<g id="Layer_4">
	</g>
	<g>
		<g>
			<path d="M5.6,292.7v-2.8l3.3-1.1c6.9-1.8,10.3-6.3,10.3-13.3V125.4c0-4-0.7-7.1-2.1-9.1c-1.4-2-3.9-3.4-7.7-4.1l-3.9-0.8v-2.8
				l47.3-16l2.8,2.8l2.5,8.6c6.1-3.7,12.9-6.5,20.5-8.6c7.5-2,15.3-3,23.2-3c16,0,28.6,6,38,18.1c9.4,12.1,14.1,29.3,14.1,51.8
				c0,22.1-5.1,39.5-15.4,52.2c-10.3,12.7-24.8,19.1-43.5,19.1c-14.7,0-27-2.1-37-6.4v47.8c0,7.4,3.3,12,10,13.8l5.3,1.4v2.8H5.6z
				 M81.5,225.3c9.3,0,16.6-4.8,22.1-14.4c5.5-9.6,8.2-25.5,8.2-47.8c0-22.3-2.6-37.9-7.8-46.8c-5.2-8.9-12.7-13.4-22.5-13.4
				c-6.9,0-14.5,2.2-22.8,6.6v111.3C65.8,223.9,73.4,225.3,81.5,225.3z"/>
			<path d="M238.4,233.3c-14.1,0-26.3-2.9-36.7-8.7c-10.4-5.8-18.4-14-24.1-24.7c-5.7-10.7-8.5-23.2-8.5-37.6c0-14.4,3-26.8,9-37.3
				c6-10.5,14.3-18.6,24.8-24.3c10.5-5.7,22.3-8.6,35.5-8.6c13.2,0,24.9,2.8,35.3,8.4c10.4,5.6,18.6,13.7,24.6,24.2
				c6,10.5,9,23,9,37.6c0,14.5-2.8,27.1-8.5,37.7c-5.7,10.6-13.6,18.8-23.9,24.6C264.7,230.4,252.5,233.3,238.4,233.3z M238.4,227.8
				c6.5,0,11.7-1.8,15.6-5.5c3.9-3.7,6.7-10.2,8.5-19.6c1.8-9.4,2.6-22.6,2.6-39.8c0-17.3-0.9-30.7-2.6-40
				c-1.8-9.4-4.6-15.9-8.5-19.6c-3.9-3.7-9.1-5.5-15.6-5.5c-6.5,0-11.7,1.8-15.7,5.5c-4,3.7-6.9,10.2-8.6,19.6
				c-1.8,9.4-2.6,22.7-2.6,40c0,17.1,0.9,30.4,2.6,39.8c1.8,9.4,4.6,15.9,8.6,19.6C226.7,226,231.9,227.8,238.4,227.8z"/>
			<path d="M319.7,229.2v-2.8l4.2-1.1c3.7-1.1,6.3-2.8,7.7-5s2.1-5.1,2.1-8.6v-86.4c0-4-0.7-7-2.1-9s-3.9-3.3-7.7-4l-4.2-1.1v-2.8
				l47.9-16l2.8,2.8l2.5,23.7v2.2c2.6-5.2,6-9.9,10.2-14.2c4.2-4.3,8.8-7.9,13.9-10.6c5.1-2.8,10.2-4.1,15.2-4.1
				c7,0,12.4,1.9,16.1,5.8c3.7,3.9,5.6,8.7,5.6,14.6c0,6.3-1.8,11.1-5.4,14.5c-3.6,3.4-7.9,5.1-12.9,5.1c-7.8,0-14.7-3.9-20.6-11.6
				l-0.6-0.6c-1.9-2.6-4-4-6.4-4.3c-2.4-0.3-4.6,0.9-6.7,3.5c-1.9,1.7-3.4,3.6-4.6,5.9c-1.2,2.3-2.4,4.9-3.5,7.9v77
				c0,7.4,3.2,12,9.7,13.8l8.9,2.5v2.8H319.7z"/>
			<path d="M497.7,233.3c-11.9,0-21.1-2.9-27.7-8.8c-6.6-5.9-9.9-15.3-9.9-28.2v-94.4H441v-2.8l6.7-1.1c5.7-1.3,10.7-3.1,14.9-5.5
				c4.2-2.4,8.3-5.6,12.4-9.7l22.8-25.1h2.8l-0.8,38.7h31.2v5.5h-31.4v99.4c0,6.4,1.4,11.3,4.3,14.6c2.9,3.3,6.5,5,11,5
				c3.9,0,7.3-1,10.3-2.9c3-1.9,5.9-4.6,8.9-7.9l2.8,2.8c-3.7,6.3-8.8,11.2-15.3,14.9C514.9,231.5,507,233.3,497.7,233.3z"/>
		</g>
		<g>
			<path d="M96.2,428.2v-2.6l3.3-0.8c3.2-0.9,5.8-2.4,7.6-4.6c1.9-2.2,2.8-5,2.8-8.5c0-6.5,0-12.9,0.1-19.3
				c0.1-6.4,0.1-12.8,0.1-19.3v-65.9H95.9v-2.9l5.6-1.1c3.4-0.3,5.9-1.6,7.4-3.7c1.5-2.1,2.6-5,3.3-8.7c1.7-6.8,4.2-12.8,7.5-18
				c3.3-5.2,7.1-9.9,11.3-14.3c6.5-6.3,13.3-10.7,20.5-13.3c7.2-2.5,14.3-3.8,21.3-3.8c6.8,0,13,1.4,18.6,4.3
				c5.6,2.9,8.4,7.7,8.4,14.3c0,4.7-1.4,8.4-4.1,11.2c-2.7,2.7-6.5,4.1-11.5,4.1c-4.1,0-7.8-1.1-11.2-3.4c-3.4-2.3-6.7-6.3-9.9-12.1
				l-3.6-4.5c-1.9-2.4-3.7-3.6-5.6-3.5c-1.9,0.1-3.2,1.5-4.1,4.3c-1.2,6.1-2.1,13.3-2.7,21.5c-0.6,8.2-0.9,16.3-0.9,24.2h28.5v5.3
				h-28.5v104c0,6.7,3.4,10.9,10.2,12.9l6.4,1.6v2.6H96.2z"/>
			<path d="M244.5,432.1c-12.9,0-24.1-2.8-33.6-8.3c-9.5-5.5-16.9-13.3-22-23.5c-5.2-10.1-7.8-22.1-7.8-35.7s2.8-25.5,8.3-35.4
				c5.5-10,13.1-17.7,22.7-23.1c9.6-5.4,20.4-8.1,32.5-8.1c12.1,0,22.9,2.7,32.4,8c9.5,5.3,17,13,22.6,23c5.5,10,8.3,21.9,8.3,35.7
				c0,13.8-2.6,25.8-7.8,35.8c-5.2,10.1-12.5,17.9-21.9,23.4C268.6,429.3,257.4,432.1,244.5,432.1z M244.5,426.8
				c5.9,0,10.7-1.7,14.3-5.3c3.6-3.5,6.2-9.7,7.8-18.6c1.6-8.9,2.4-21.5,2.4-37.8c0-16.5-0.8-29.1-2.4-38.1
				c-1.6-8.9-4.2-15.1-7.8-18.6c-3.6-3.5-8.3-5.3-14.3-5.3c-6,0-10.7,1.8-14.4,5.3c-3.7,3.5-6.3,9.7-7.9,18.6
				c-1.6,8.9-2.4,21.6-2.4,38.1c0,16.3,0.8,28.9,2.4,37.8c1.6,8.9,4.2,15.1,7.9,18.6C233.8,425.1,238.6,426.8,244.5,426.8z"/>
			<path d="M318.7,428.2v-2.6l3.1-1c6.1-2.1,9.2-6.5,9.2-13.1V270.9c0-3.5-0.7-6.2-2-8c-1.4-1.8-3.7-3.2-7.1-4.1l-3.3-0.8v-2.6
				l46.6-11.3l3.1,2.4l-1,36.8V373c0,6.5,0,12.9,0.1,19.3c0.1,6.4,0.1,12.7,0.1,19c0,3.5,0.7,6.3,2,8.5c1.4,2.2,3.7,3.8,6.9,4.9
				l3.3,0.8v2.6H318.7z"/>
			<path d="M391.3,428.2v-2.6l3.6-1c3.4-1,5.7-2.6,7-4.7s1.9-4.9,1.9-8.4v-82.2c0-3.7-0.6-6.4-1.9-8.3s-3.6-3.1-7-3.8l-3.6-0.8v-2.6
				l46.6-15.5l2.5,2.6l-0.8,37.3v73.5c0,3.5,0.6,6.3,1.9,8.4c1.3,2.1,3.5,3.7,6.8,4.7l2.5,0.8v2.6H391.3z M421.4,284.3
				c-5.8,0-10.7-1.9-14.7-5.6c-4-3.8-6-8.5-6-14.3c0-5.9,2-10.8,6-14.4c4-3.7,8.9-5.5,14.7-5.5c5.8,0,10.6,1.8,14.5,5.5
				c3.9,3.7,5.9,8.5,5.9,14.4c0,5.8-2,10.5-5.9,14.3C432,282.4,427.2,284.3,421.4,284.3z"/>
			<path d="M526.7,432.1c-12.9,0-24.1-2.8-33.6-8.3c-9.5-5.5-16.9-13.3-22-23.5c-5.2-10.1-7.8-22.1-7.8-35.7s2.8-25.5,8.3-35.4
				c5.5-10,13.1-17.7,22.7-23.1c9.6-5.4,20.4-8.1,32.5-8.1c12.1,0,22.9,2.7,32.4,8c9.5,5.3,17,13,22.6,23c5.5,10,8.3,21.9,8.3,35.7
				c0,13.8-2.6,25.8-7.8,35.8c-5.2,10.1-12.5,17.9-21.9,23.4C550.8,429.3,539.6,432.1,526.7,432.1z M526.7,426.8
				c5.9,0,10.7-1.7,14.3-5.3c3.6-3.5,6.2-9.7,7.8-18.6c1.6-8.9,2.4-21.5,2.4-37.8c0-16.5-0.8-29.1-2.4-38.1
				c-1.6-8.9-4.2-15.1-7.8-18.6c-3.6-3.5-8.3-5.3-14.3-5.3c-6,0-10.7,1.8-14.4,5.3c-3.7,3.5-6.3,9.7-7.9,18.6
				c-1.6,8.9-2.4,21.6-2.4,38.1c0,16.3,0.8,28.9,2.4,37.8c1.6,8.9,4.2,15.1,7.9,18.6C515.9,425.1,520.7,426.8,526.7,426.8z"/>
		</g>
	</g>
</g>
</svg>
