<?xml version="1.0" encoding="utf-8"?>
<!-- Generator: Adobe Illustrator 26.3.1, SVG Export Plug-In . SVG Version: 6.00 Build 0)  -->
<svg version="1.1" id="Layer_1" xmlns="http://www.w3.org/2000/svg" xmlns:xlink="http://www.w3.org/1999/xlink" x="0px" y="0px"
	 viewBox="0 0 1920 580" style="enable-background:new 0 0 1920 580;" xml:space="preserve">
<style type="text/css">
	.st0{fill:#E2D8C7;}
	.st1{fill:#D9B154;}
	.st2{fill:#B6D1DA;}
	.st3{fill:#BC6F27;}
	.st4{fill:#BAB5A8;}
	.st5{fill:#AA410B;}
	.st6{fill:#FFFFFF;}
</style>
<rect y="4.3" class="st0" width="1920" height="575.5"/>
<g id="Layer_2_00000129196030119455961730000012275056362945351868_">
	<path class="st1" d="M0,367c20.9-7.1,45.3-5.5,67.4-1c30.6,6.3,61,17.3,92,14.4c9.2-0.9,18.4-3,26.6-7.3
		c14.7-7.9,24.7-22.3,32.5-37.1c27.5-52.7,32-115.6,62.6-166.6c24-39.9,62.4-69.9,84.2-111c6.7-12.6,15.3-34.2,19.3-55.7L0,2.7
		L0,367L0,367z"/>
	<path class="st2" d="M348.9,580l490.1,0c0.4-0.4,0.7-0.8,1.1-1.2c37.3-39.9,74.5-80.1,111.8-120.1c3.3-3.5,6.7-7.2,7.7-12.2
		c1-4.3-0.1-9-1.4-13.3c-15.1-48-63.4-69.3-102.5-95.4c-98-65.5-157.4-187.5-255.4-252.8c-6.8-4.6-14.2-8.9-22.1-9.1
		c-8.3-0.2-16.2,4.1-23.6,8.4c-28.1,16.1-56.1,32.1-84.2,48.3c-29.1,16.6-59.2,34.4-78.5,63.8c-13,20-20.1,43.8-26.9,67.4
		c-20.4,70-40.8,140.1-61.2,210.1c-6.8,23.3-13.3,49.9-2.3,71C311.2,563.5,330.7,570.9,348.9,580z"/>
	<path class="st3" d="M1801.6,579.8c-1.8-1.4-3.4-2.9-5-4.7c-18.6-21.6-4.2-62.7-28-78.3c-6.3-4.1-14-5.3-21.5-6.3
		c-37.8-4.9-76-6.5-114-4.8c-20.3,0.9-41.2,2.6-60.5-3.7c-13.6-4.4-25.6-12.6-38.8-18.2c-35.5-14.9-79-8.3-108.5,16.3
		c-31.6,26.4-48.6,71.4-87.5,85c-39.1,13.6-88-10.2-121.1,14.6c0,0,0,0-0.1,0.1L1801.6,579.8L1801.6,579.8z"/>
	<path class="st4" d="M1471.1,178.9c-20.6-39.3-38.2-79.2-52.4-118.8c-6.8-19-14.2-40.1-28.7-55.8h-188.3
		c-19.8,7.5-41.2,12.5-59.1,22.8c-24.4,14-42.4,41.5-32.6,80.7c6.8,27.3,26.2,53.2,36,80.2c7.6,20.8,4,32,5.9,51.3
		c4.1,43.6,27.5,95.2,63,136c6.7,7.7,14,15.2,21.9,20c7.6,4.6,15.1,6.3,22.4,7.9c27.1,6.1,54.6,12.3,78.9,10.5
		c23.2-1.7,42.7-10.5,62-19.3c26.9-12.2,53.9-24.5,80.8-36.7c14.5-6.6,29.5-13.7,36.2-29.2c7.8-18.1,2.8-45.4-7.3-71.6
		C1499.8,230.8,1484.8,204.9,1471.1,178.9z"/>
	<path class="st5" d="M1701.6,4.3c1.3,2.7,2.6,5.1,3.8,7.2c8.7,15,22,26.8,32.7,40.6c28.6,37.1,36.2,89.4,19.2,133
		c-10.4,26.7-28.9,49.5-41.2,75.4c-12.2,25.9-17.3,58.6-0.8,82.1c15.1,21.4,43.4,28.8,69.5,30.6c26.1,1.8,53.2-0.2,77.8,8.8
		c10.1,3.7,19.8,9.2,30.5,9.8c9.9,0.5,19.2-3.4,27-9.5V4.3H1701.6z"/>
</g>
<g>
	<path class="st6" d="M477.8,369.1v-2l4-1.4c4.5-1.5,6.8-5.2,6.8-11.3V252.4c0-2.7-0.3-4.8-0.9-6.4c-0.6-1.6-2.2-2.9-4.7-4l-5.2-2.4
		v-2h38.4l36.8,96.4l34.6-96.4H627v2l-3.2,1.2c-2.5,0.9-4.2,2.2-5.2,3.9c-0.9,1.7-1.4,3.8-1.4,6.5v104.1c0,2.7,0.3,4.7,1,6.2
		c0.7,1.5,2.3,2.7,4.8,3.8l4,1.8v2h-49.6v-2l4.2-1.8c2.5-1.1,4.1-2.3,4.8-3.8c0.7-1.5,1-3.5,1-6.2v-44.8l0.4-56.9l-41.6,115.5h-10
		L492.8,255l0.6,49.6v50.2c0,2.9,0.4,5.3,1.3,7.1c0.9,1.8,2.6,3.1,5.1,3.9l4.4,1.4v2H477.8z"/>
	<path class="st6" d="M635.7,369.1v-2l2.8-0.8c2.7-0.8,4.5-2,5.5-3.6s1.5-3.7,1.5-6.4V294c0-2.8-0.5-4.9-1.5-6.3s-2.8-2.4-5.5-2.9
		l-2.8-0.6v-2l36.4-11.7l2,2l-0.6,28.3v55.8c0,2.7,0.5,4.8,1.5,6.4s2.8,2.8,5.3,3.6l2,0.6v2H635.7z M659.2,260
		c-4.5,0-8.3-1.4-11.4-4.3c-3.1-2.9-4.7-6.5-4.7-10.9c0-4.5,1.6-8.2,4.7-11c3.1-2.8,6.9-4.2,11.4-4.2c4.5,0,8.3,1.4,11.4,4.2
		c3.1,2.8,4.6,6.4,4.6,11c0,4.4-1.5,8-4.6,10.9C667.5,258.6,663.7,260,659.2,260z"/>
	<path class="st6" d="M691.7,369.1v-2l2.4-0.8c4.8-1.6,7.2-4.9,7.2-10V249.8c0-2.7-0.5-4.7-1.6-6.1c-1.1-1.4-2.9-2.4-5.6-3.1
		l-2.6-0.6v-2l36.4-8.6l2.4,1.8l-0.8,27.9v68.1c0,4.9,0,9.8,0.1,14.6c0.1,4.8,0.1,9.7,0.1,14.4c0,2.7,0.5,4.8,1.6,6.5
		c1.1,1.7,2.9,2.9,5.4,3.7l2.6,0.6v2H691.7z"/>
	<path class="st6" d="M748.6,369.1v-2l2.4-0.8c4.8-1.6,7.2-4.9,7.2-10V249.8c0-2.7-0.5-4.7-1.6-6.1c-1.1-1.4-2.9-2.4-5.6-3.1
		l-2.6-0.6v-2l36.4-8.6l2.4,1.8l-0.8,27.9v68.1c0,4.9,0,9.8,0.1,14.6c0.1,4.8,0.1,9.7,0.1,14.4c0,2.7,0.5,4.8,1.6,6.5
		c1.1,1.7,2.9,2.9,5.4,3.7l2.6,0.6v2H748.6z"/>
	<path class="st6" d="M855,270.3c8.6,0,16,1.8,22.1,5.3c6.1,3.5,10.8,8.3,14,14.3c3.3,6,4.9,12.9,4.9,20.6c0,1.5-0.1,3-0.2,4.5
		c-0.1,1.5-0.4,2.9-0.8,4.1h-59.3c0.1,14.3,2.7,24.7,7.7,31c5,6.3,12.4,9.5,22.2,9.5c6.6,0,12-1.1,16.1-3.2c4.1-2.1,8-5.2,11.5-9.4
		l2,1.8c-4.1,7.3-9.6,13-16.4,17.1c-6.8,4.1-15,6.2-24.6,6.2c-9.4,0-17.8-2-25.1-6.1c-7.3-4-13-9.9-17.1-17.4
		c-4.1-7.6-6.2-16.6-6.2-27.1c0-10.9,2.4-20.1,7.2-27.8c4.8-7.6,10.9-13.4,18.4-17.4C838.9,272.3,846.7,270.3,855,270.3z
		 M854.4,274.3c-3.9,0-7.1,1.2-9.9,3.5c-2.7,2.3-4.8,6.4-6.4,12.3c-1.5,5.9-2.4,14.2-2.5,25h34c1.3-14.5,0.8-24.9-1.6-31.3
		C865.7,277.5,861.1,274.3,854.4,274.3z"/>
	<path class="st6" d="M949.3,369.1v-2l4-1.4c4.5-1.5,6.8-5.2,6.8-11.3V252.4c0-2.7-0.3-4.8-0.9-6.4c-0.6-1.6-2.2-2.9-4.7-4l-5.2-2.4
		v-2h38.4l36.8,96.4l34.6-96.4h39.2v2l-3.2,1.2c-2.5,0.9-4.2,2.2-5.2,3.9c-0.9,1.7-1.4,3.8-1.4,6.5v104.1c0,2.7,0.3,4.7,1,6.2
		c0.7,1.5,2.3,2.7,4.8,3.8l4,1.8v2h-49.6v-2l4.2-1.8c2.5-1.1,4.1-2.3,4.8-3.8c0.7-1.5,1-3.5,1-6.2v-44.8l0.4-56.9l-41.6,115.5h-10
		L964.3,255l0.6,49.6v50.2c0,2.9,0.4,5.3,1.3,7.1c0.9,1.8,2.6,3.1,5.1,3.9l4.4,1.4v2H949.3z"/>
	<path class="st6" d="M1131.9,372.1c-7.7,0-14.2-2.2-19.4-6.6c-5.2-4.4-7.9-10.7-7.9-18.9c0-6.2,3.2-12,9.6-17.2
		c6.4-5.2,16.4-9.2,30.1-11.8c2.1-0.4,4.5-0.8,7.2-1.3c2.7-0.5,5.4-1,8.4-1.5V299c0-9-1.1-15.4-3.3-19c-2.2-3.6-5.6-5.5-10.3-5.5
		c-3.2,0-5.7,1-7.6,3.1c-1.9,2.1-3.1,5.6-3.6,10.7l-0.4,2.2c-0.3,5.7-1.7,9.9-4.2,12.5c-2.5,2.7-5.6,4-9.4,4c-3.5,0-6.3-1.1-8.6-3.2
		c-2.3-2.1-3.4-5-3.4-8.6c0-5.4,1.9-10,5.7-13.7c3.8-3.7,8.8-6.5,15-8.4c6.2-1.9,13-2.8,20.3-2.8c11.8,0,20.9,2.9,27.4,8.7
		c6.4,5.8,9.7,15.2,9.7,28.2v44c0,6,2.8,9,8.4,9h4.4l1.8,1.6c-2.5,3.2-5.3,5.6-8.3,7.4c-3,1.7-7.2,2.6-12.6,2.6
		c-5.8,0-10.5-1.4-13.8-4.1c-3.4-2.7-5.6-6.3-6.7-10.9c-4,4.2-8.1,7.9-12.2,10.9C1144,370.6,1138.6,372.1,1131.9,372.1z
		 M1144.1,359.9c2.7,0,5.1-0.6,7.5-1.9c2.3-1.3,5.1-3.2,8.3-5.9v-33.5c-1.3,0.3-2.7,0.5-4,0.8c-1.3,0.3-2.9,0.5-4.6,0.8
		c-6.1,1.6-11,4.3-14.6,8.1c-3.7,3.8-5.5,8.9-5.5,15.2c0,5.4,1.3,9.5,3.8,12.2C1137.4,358.6,1140.5,359.9,1144.1,359.9z"/>
	<path class="st6" d="M1205.6,369.1v-2l3-0.8c2.7-0.8,4.5-2,5.5-3.6c1-1.6,1.5-3.6,1.5-6.2v-62.3c0-2.9-0.5-5.1-1.5-6.5
		c-1-1.4-2.8-2.4-5.5-2.9l-3-0.8v-2l34.2-11.5l2,2l1.8,17.1v1.6c1.9-3.7,4.3-7.1,7.3-10.3c3-3.1,6.3-5.7,10-7.7c3.6-2,7.3-3,10.9-3
		c5,0,8.9,1.4,11.5,4.2c2.7,2.8,4,6.3,4,10.6c0,4.5-1.3,8-3.9,10.5c-2.6,2.5-5.7,3.7-9.3,3.7c-5.6,0-10.5-2.8-14.7-8.4l-0.4-0.4
		c-1.3-1.9-2.9-2.9-4.6-3.1c-1.7-0.2-3.3,0.6-4.8,2.5c-1.3,1.2-2.4,2.6-3.3,4.3c-0.9,1.7-1.7,3.6-2.5,5.7v55.6c0,5.3,2.3,8.6,7,10
		l6.4,1.8v2H1205.6z"/>
	<path class="st6" d="M1293.8,369.1v-2l2.8-0.8c2.7-0.8,4.5-2,5.5-3.6c1-1.6,1.5-3.7,1.5-6.4V294c0-2.8-0.5-4.9-1.5-6.3
		c-1-1.4-2.8-2.4-5.5-2.9l-2.8-0.6v-2l36.4-11.7l2,2l-0.6,28.3v55.8c0,2.7,0.5,4.8,1.5,6.4c1,1.6,2.8,2.8,5.3,3.6l2,0.6v2H1293.8z
		 M1317.3,260c-4.5,0-8.3-1.4-11.4-4.3c-3.1-2.9-4.7-6.5-4.7-10.9c0-4.5,1.6-8.2,4.7-11c3.1-2.8,6.9-4.2,11.4-4.2
		c4.5,0,8.3,1.4,11.3,4.2c3.1,2.8,4.6,6.4,4.6,11c0,4.4-1.5,8-4.6,10.9C1325.6,258.6,1321.8,260,1317.3,260z"/>
	<path class="st6" d="M1399.2,270.3c8.6,0,16,1.8,22.1,5.3c6.1,3.5,10.8,8.3,14,14.3c3.3,6,4.9,12.9,4.9,20.6c0,1.5-0.1,3-0.2,4.5
		c-0.1,1.5-0.4,2.9-0.8,4.1h-59.3c0.1,14.3,2.7,24.7,7.7,31c5,6.3,12.4,9.5,22.2,9.5c6.6,0,12-1.1,16.1-3.2c4.1-2.1,8-5.2,11.5-9.4
		l2,1.8c-4.1,7.3-9.6,13-16.4,17.1c-6.8,4.1-15,6.2-24.6,6.2c-9.4,0-17.8-2-25.1-6.1c-7.3-4-13-9.9-17.1-17.4
		c-4.1-7.6-6.2-16.6-6.2-27.1c0-10.9,2.4-20.1,7.2-27.8c4.8-7.6,10.9-13.4,18.4-17.4C1383.1,272.3,1390.9,270.3,1399.2,270.3z
		 M1398.6,274.3c-3.9,0-7.1,1.2-9.9,3.5c-2.7,2.3-4.8,6.4-6.4,12.3c-1.5,5.9-2.4,14.2-2.5,25h34c1.3-14.5,0.8-24.9-1.6-31.3
		C1409.9,277.5,1405.3,274.3,1398.6,274.3z"/>
</g>
<g>
	<path class="st6" d="M490.1,162.6c2.2,0,4,0.5,5.6,1.4c1.6,0.9,2.8,2.2,3.6,3.9c0.8,1.7,1.3,3.7,1.3,6s-0.4,4.3-1.3,6
		s-2.1,3-3.6,3.9c-1.6,0.9-3.4,1.4-5.6,1.4c-2.2,0-4-0.5-5.6-1.4c-1.6-0.9-2.8-2.2-3.6-3.9c-0.8-1.7-1.3-3.7-1.3-6s0.4-4.3,1.3-6
		c0.8-1.7,2.1-3,3.6-3.9C486.1,163.1,487.9,162.6,490.1,162.6z M490.1,166.3c-1.2,0-2.2,0.3-3.1,0.9c-0.9,0.6-1.5,1.4-2,2.5
		c-0.5,1.1-0.7,2.5-0.7,4.1c0,1.6,0.2,3,0.7,4.1c0.5,1.1,1.1,2,2,2.5c0.9,0.6,1.9,0.9,3.1,0.9c1.2,0,2.2-0.3,3.1-0.9
		c0.9-0.6,1.5-1.4,2-2.5s0.7-2.5,0.7-4.1c0-1.6-0.2-3-0.7-4.1c-0.5-1.1-1.1-2-2-2.5C492.3,166.6,491.3,166.3,490.1,166.3z"/>
	<path class="st6" d="M504.6,184.7v-16.5h4.1l0.2,3c0.5-1.1,1.3-1.9,2.3-2.5c1-0.5,2-0.8,3.2-0.8c1.2,0,2.3,0.3,3.2,0.8
		c1,0.6,1.7,1.4,2.2,2.4c0.4-0.7,0.8-1.3,1.4-1.8c0.6-0.5,1.3-0.8,2-1.1c0.7-0.2,1.5-0.4,2.2-0.4c1.1,0,2.1,0.2,3,0.7
		c0.9,0.4,1.6,1.1,2.1,2c0.5,0.9,0.8,2,0.8,3.4v10.8h-4.5v-9.9c0-1.2-0.3-2.1-0.8-2.6c-0.5-0.5-1.2-0.8-2-0.8
		c-0.7,0-1.3,0.2-1.8,0.5c-0.6,0.3-1,0.8-1.3,1.5c-0.3,0.6-0.5,1.5-0.5,2.4v8.9h-4.5v-9.9c0-1.2-0.3-2.1-0.8-2.6
		c-0.5-0.5-1.2-0.8-2.1-0.8c-0.6,0-1.1,0.2-1.7,0.5c-0.6,0.3-1,0.8-1.4,1.5c-0.4,0.7-0.5,1.5-0.5,2.6v8.7H504.6z"/>
	<path class="st6" d="M540.3,161v23.7h-4.5V161H540.3z M552.6,168.2l-7.6,8l-0.9,0.4l-5,5.3l-0.1-4.8l8.4-8.9H552.6z M545.6,173.5
		l7.4,11.3h-5.1l-5.4-8.6L545.6,173.5z"/>
	<path class="st6" d="M555.6,184.7v-16.5h3.9l0.3,3.2c0.4-1.1,1.1-2,1.9-2.6s1.9-0.9,3.2-0.9c0.4,0,0.7,0,1,0.1
		c0.3,0.1,0.6,0.2,0.8,0.3l-0.5,3.8c-0.2-0.1-0.5-0.2-0.8-0.2c-0.3,0-0.7-0.1-1.2-0.1c-0.7,0-1.3,0.2-1.9,0.5
		c-0.6,0.3-1.1,0.8-1.5,1.5c-0.4,0.6-0.6,1.5-0.6,2.5v8.5H555.6z"/>
	<path class="st6" d="M571.8,165.8c-0.9,0-1.7-0.2-2.1-0.6s-0.7-1-0.7-1.8c0-0.8,0.2-1.4,0.7-1.8c0.5-0.4,1.2-0.6,2.1-0.6
		c0.9,0,1.6,0.2,2.1,0.6c0.5,0.4,0.7,1,0.7,1.8c0,0.8-0.2,1.4-0.7,1.8S572.8,165.8,571.8,165.8z M574.1,168.2v16.5h-4.5v-16.5H574.1
		z"/>
	<path class="st6" d="M578.9,184.7v-16.5h4.1l0.3,5l-0.6-0.5c0.3-1.1,0.7-2,1.3-2.7s1.3-1.2,2.1-1.6s1.7-0.5,2.7-0.5
		c1.1,0,2.2,0.2,3.1,0.7c0.9,0.4,1.6,1.1,2.1,2c0.5,0.9,0.8,2,0.8,3.3v10.8h-4.5v-9.5c0-1.4-0.3-2.4-0.8-2.9s-1.3-0.8-2.1-0.8
		c-0.6,0-1.2,0.1-1.8,0.4s-1.1,0.8-1.4,1.4s-0.5,1.5-0.5,2.6v8.7H578.9z"/>
	<path class="st6" d="M609.1,181.6c1.8,0,3.2,0.4,4.1,1.2c1,0.8,1.5,1.8,1.5,3.2c0,1.3-0.4,2.3-1.1,3.2c-0.7,0.9-1.7,1.5-3.1,2
		c-1.3,0.4-2.8,0.7-4.5,0.7c-2.8,0-4.9-0.4-6.2-1.2c-1.3-0.8-2-1.8-2-3.1c0-0.9,0.3-1.7,1-2.3c0.7-0.6,1.8-1,3.4-1l-0.2,0.5
		c-1.1-0.2-2-0.6-2.6-1.1c-0.6-0.6-0.9-1.3-0.9-2.3c0-1,0.4-1.8,1.2-2.5c0.8-0.6,1.8-1,3.2-1.1l2,0.9h-0.5c-0.9,0.1-1.6,0.3-2,0.6
		c-0.4,0.3-0.6,0.7-0.6,1.1c0,0.5,0.2,0.8,0.5,1c0.4,0.2,0.9,0.3,1.6,0.3H609.1z M606,167.9c1.5,0,2.9,0.2,4,0.7
		c1.1,0.5,2,1.1,2.6,1.9c0.6,0.8,0.9,1.8,0.9,3c0,1.1-0.3,2.1-0.9,3c-0.6,0.8-1.5,1.5-2.6,1.9s-2.5,0.7-4,0.7
		c-2.4,0-4.3-0.5-5.6-1.5c-1.3-1-1.9-2.4-1.9-4.1c0-1.2,0.3-2.2,0.9-3s1.5-1.5,2.6-1.9C603.1,168.1,604.5,167.9,606,167.9z
		 M606,188.7c1.1,0,2.1-0.1,2.8-0.3c0.7-0.2,1.3-0.5,1.6-0.8c0.4-0.3,0.5-0.6,0.5-1c0-0.4-0.2-0.8-0.5-1s-0.9-0.4-1.8-0.4h-5.6
		c-0.5,0-1,0.1-1.3,0.4c-0.3,0.3-0.5,0.6-0.5,1.1c0,0.6,0.4,1.1,1.2,1.5S604.6,188.7,606,188.7z M606,170.7c-0.9,0-1.6,0.2-2.2,0.7
		c-0.6,0.5-0.9,1.2-0.9,2s0.3,1.5,0.9,2s1.3,0.7,2.2,0.7s1.6-0.2,2.2-0.7c0.6-0.5,0.8-1.2,0.8-2s-0.3-1.5-0.8-2
		C607.6,171,606.9,170.7,606,170.7z M614.5,164.3l0.5,3.2c-0.1,0-0.2,0-0.3,0c-0.1,0-0.2,0-0.3,0c-1,0-1.7,0.2-2.3,0.7
		c-0.5,0.5-0.8,1.1-0.8,1.9l-1.8-0.8c0-0.9,0.2-1.7,0.5-2.5c0.4-0.8,0.9-1.4,1.6-1.8s1.5-0.7,2.5-0.7c0,0,0.1,0,0.2,0
		C614.4,164.3,614.4,164.3,614.5,164.3z"/>
</g>
</svg>
