<?xml version="1.0" encoding="utf-8"?>
<!-- Generator: Adobe Illustrator 26.3.1, SVG Export Plug-In . SVG Version: 6.00 Build 0)  -->
<svg version="1.1" id="Layer_1" xmlns="http://www.w3.org/2000/svg" xmlns:xlink="http://www.w3.org/1999/xlink" x="0px" y="0px"
	 viewBox="0 0 1920 737" style="enable-background:new 0 0 1920 737;" xml:space="preserve">
<style type="text/css">
	.st0{fill:#E2D8C7;}
	.st1{fill:#AA410B;}
	.st2{fill:#BAB5A8;}
	.st3{fill:#B6D1DA;}
	.st4{fill:#D9B154;}
	.st5{fill:#BC6F27;}
	.st6{fill:#FFFFFF;}
</style>
<g id="Layer_3">
	<rect y="0.3" class="st0" width="1920" height="734"/>
</g>
<g id="Layer_2_00000108282699207360145090000016325820728307560852_">
	<path class="st1" d="M868.8,0.3c1.3,6,3.3,12.6,6.2,19.8c18.3,47,33.3,89.1,29.8,140.7c-1.9,28.9-6.2,64,17.1,81.2
		c19.7,14.6,49.7,7.6,68.9,22.8c15.1,11.9,18.3,33.3,28.2,49.9c22.8,38.4,75.6,44.2,120.1,41.3c44.5-3,93.8-9.2,129.8,17.2
		c22.9,16.8,36.6,44.6,61.1,59c26.1,15.3,58.6,12.3,88.7,8.8c47.8-5.6,104.7-18,121.5-63.1c8.3-22.5,3.1-49.4-13-67.1
		c-23.6-25.9-70.4-39.7-67.2-74.5c1.1-11.9,8.5-22.1,15.5-31.8c38.8-54.4,69.7-114.5,91.4-177.7c3-8.7,5.5-18.9,0.6-26.5L868.8,0.3
		L868.8,0.3z"/>
</g>
<g id="Layer_4">
</g>
<path class="st2" d="M-1.3,0.3v394.8c18.5-22.2,39.3-41.9,55.8-66c34.2-35.2,67.6-78.9,63.5-127.8c-1.5-17.6-7.9-34.7-8-52.4
	c-0.3-38.8,34.3-74.6,73.1-75.4c31.3-0.7,59.5,17.8,89.8,25.4c19.1,4.7,39.1,5,58.8,4c30.4-1.6,64.3-8.5,81.4-33.8
	c13.8-20.5,11.2-46.8-0.9-68.8L-1.3,0.3L-1.3,0.3z"/>
<path class="st3" d="M148.1,529.6c44.8,3.6,94.2-7.6,131.7,17.1C328,578.4,327.9,649,359.7,697c9.9,14.9,22.9,27.4,37.6,37.4h284.3
	c18.3-24.7,16.6-60.7,21.3-92.3c10.1-66.4,54.4-136.8,20.8-195c-18.2-31.6-55.1-48.3-75.9-78.4c-16.4-23.8-21.2-53.6-33.9-79.6
	c-18-36.9-52.7-65.3-92.5-75.7C437.3,191.6,353,248.2,266.1,251c-14.6,0.5-29.9-0.5-43.1,6c-16.8,8.2-26,26.5-33.9,43.4
	C170.2,341.4,45.2,521.3,148.1,529.6z"/>
<path class="st4" d="M1598.9,734.3c-1.3-23.3-19-47.5-35.9-66.1c-44.5-49.1-99.4-102.5-165.3-95.9c-22.9,2.3-44.2,11.9-65.8,19.6
	c-74.3,26.8-154.1,33-232.9,38.6c-37.2,2.6-78.3,7-103.2,34.7c-9.2,10.3-20.5,40.9-23.8,69.1L1598.9,734.3L1598.9,734.3z"/>
<path class="st5" d="M1920.1,176.4c-21.2-11.6-43.3-20.9-58.7-26.2c-40.2-13.8-91.6-8.4-115.6,26.7c-33.8,49.5,6.2,119-11.4,176.3
	c-13,42.1-55.1,70.7-66.6,113.2c-5.6,20.6-3.1,43.2,6.7,62.1c5.7,11,14.1,21,25.2,26.8c23.4,12.2,53.3,2.6,73.1-14.9
	c19.9-17.5,32.5-41.4,47.2-63.4s33.2-43.5,58.4-51.3c13.1-4.1,27.9-4.5,41.7-6.4L1920.1,176.4L1920.1,176.4z"/>
<g>
	<path class="st6" d="M531.7,433.6v-1.8l3.5-1.2c4-1.3,6-4.7,6-10.1V330c0-2.4-0.3-4.2-0.8-5.7c-0.5-1.4-1.9-2.6-4.2-3.5l-4.6-2.1
		v-1.8h34.1l32.7,85.6l30.8-85.6h34.8v1.8l-2.8,1.1c-2.2,0.8-3.8,2-4.6,3.4c-0.8,1.5-1.2,3.4-1.2,5.7v92.5c0,2.4,0.3,4.2,0.9,5.5
		c0.6,1.3,2,2.4,4.2,3.4l3.5,1.6v1.8h-44v-1.8l3.7-1.6c2.2-0.9,3.7-2.1,4.2-3.4c0.6-1.3,0.9-3.1,0.9-5.5v-39.8l0.4-50.6l-37,102.6
		h-8.8L545,332.3l0.5,44v44.6c0,2.6,0.4,4.7,1.1,6.3c0.8,1.6,2.3,2.7,4.5,3.4l3.9,1.2v1.8H531.7z"/>
	<path class="st6" d="M672,433.6v-1.8l2.5-0.7c2.4-0.7,4-1.8,4.9-3.2s1.3-3.3,1.3-5.7v-55.4c0-2.5-0.4-4.3-1.3-5.6
		c-0.9-1.2-2.5-2.1-4.9-2.6l-2.5-0.5v-1.8l32.4-10.4l1.8,1.8l-0.5,25.1v49.5c0,2.4,0.4,4.2,1.3,5.7c0.9,1.4,2.4,2.5,4.7,3.2l1.8,0.5
		v1.8H672z M692.8,336.7c-4,0-7.4-1.3-10.2-3.8c-2.8-2.5-4.2-5.7-4.2-9.6c0-4,1.4-7.3,4.2-9.7c2.8-2.5,6.2-3.7,10.2-3.7
		c4,0,7.4,1.2,10.1,3.7c2.7,2.5,4.1,5.7,4.1,9.7c0,3.9-1.4,7.1-4.1,9.6C700.2,335.4,696.8,336.7,692.8,336.7z"/>
	<path class="st6" d="M721.7,433.6v-1.8l2.1-0.7c4.2-1.4,6.4-4.4,6.4-8.8v-94.6c0-2.4-0.5-4.2-1.4-5.4c-0.9-1.2-2.6-2.2-5-2.7
		l-2.3-0.5v-1.8l32.4-7.6l2.1,1.6l-0.7,24.8v60.5c0,4.4,0,8.7,0.1,13c0.1,4.3,0.1,8.6,0.1,12.8c0,2.4,0.5,4.3,1.4,5.7
		c0.9,1.5,2.5,2.6,4.8,3.3l2.3,0.5v1.8H721.7z"/>
	<path class="st6" d="M772.3,433.6v-1.8l2.1-0.7c4.2-1.4,6.4-4.4,6.4-8.8v-94.6c0-2.4-0.5-4.2-1.4-5.4c-0.9-1.2-2.6-2.2-5-2.7
		l-2.3-0.5v-1.8l32.4-7.6l2.1,1.6l-0.7,24.8v60.5c0,4.4,0,8.7,0.1,13c0.1,4.3,0.1,8.6,0.1,12.8c0,2.4,0.5,4.3,1.4,5.7
		c0.9,1.5,2.5,2.6,4.8,3.3l2.3,0.5v1.8H772.3z"/>
	<path class="st6" d="M866.7,345.9c7.7,0,14.2,1.6,19.6,4.7c5.4,3.1,9.6,7.4,12.5,12.7c2.9,5.4,4.3,11.5,4.3,18.3
		c0,1.3-0.1,2.6-0.2,4c-0.1,1.4-0.4,2.6-0.7,3.6h-52.7c0.1,12.7,2.4,21.9,6.8,27.5c4.4,5.6,11,8.4,19.7,8.4c5.9,0,10.7-0.9,14.3-2.8
		c3.7-1.9,7.1-4.7,10.3-8.3l1.8,1.6c-3.7,6.5-8.5,11.6-14.6,15.2c-6.1,3.7-13.4,5.5-21.8,5.5c-8.4,0-15.8-1.8-22.3-5.4
		c-6.5-3.6-11.6-8.8-15.2-15.5c-3.7-6.7-5.5-14.7-5.5-24.1c0-9.7,2.1-17.9,6.4-24.7c4.2-6.8,9.7-11.9,16.4-15.5
		C852.4,347.6,859.4,345.9,866.7,345.9z M866.2,349.4c-3.4,0-6.3,1-8.8,3.1c-2.4,2.1-4.3,5.7-5.7,11c-1.4,5.2-2.1,12.6-2.2,22.2
		h30.2c1.2-12.9,0.7-22.1-1.4-27.8C876.3,352.2,872.2,349.4,866.2,349.4z"/>
	<path class="st6" d="M950.5,433.6v-1.8l3.5-1.2c4-1.3,6-4.7,6-10.1V330c0-2.4-0.3-4.2-0.8-5.7c-0.5-1.4-1.9-2.6-4.2-3.5l-4.6-2.1
		v-1.8h34.1l32.7,85.6l30.8-85.6h34.8v1.8l-2.8,1.1c-2.2,0.8-3.8,2-4.6,3.4c-0.8,1.5-1.2,3.4-1.2,5.7v92.5c0,2.4,0.3,4.2,0.9,5.5
		c0.6,1.3,2,2.4,4.2,3.4l3.5,1.6v1.8h-44v-1.8l3.7-1.6c2.2-0.9,3.7-2.1,4.2-3.4c0.6-1.3,0.9-3.1,0.9-5.5v-39.8l0.4-50.6l-37,102.6
		h-8.8l-38.6-101.3l0.5,44v44.6c0,2.6,0.4,4.7,1.2,6.3c0.8,1.6,2.3,2.7,4.5,3.4l3.9,1.2v1.8H950.5z"/>
	<path class="st6" d="M1112.7,436.3c-6.8,0-12.6-1.9-17.2-5.8c-4.7-3.9-7-9.5-7-16.8c0-5.5,2.8-10.6,8.5-15.3
		c5.7-4.7,14.6-8.2,26.7-10.5c1.9-0.4,4-0.7,6.4-1.1c2.4-0.4,4.8-0.9,7.4-1.3v-14c0-8-1-13.6-2.9-16.9c-1.9-3.2-5-4.9-9.1-4.9
		c-2.8,0-5.1,0.9-6.7,2.7c-1.7,1.8-2.7,5-3.2,9.5l-0.4,1.9c-0.2,5.1-1.5,8.8-3.7,11.1c-2.2,2.4-5,3.5-8.3,3.5
		c-3.1,0-5.6-0.9-7.6-2.8c-2-1.9-3-4.4-3-7.6c0-4.8,1.7-8.9,5-12.2c3.4-3.3,7.8-5.8,13.4-7.4c5.5-1.6,11.6-2.5,18-2.5
		c10.5,0,18.6,2.6,24.3,7.7c5.7,5.1,8.6,13.5,8.6,25v39.1c0,5.3,2.5,8,7.4,8h3.9l1.6,1.4c-2.2,2.8-4.7,5-7.3,6.5s-6.4,2.3-11.2,2.3
		c-5.2,0-9.3-1.2-12.3-3.6c-3-2.4-5-5.6-5.9-9.6c-3.5,3.8-7.2,7-10.9,9.6C1123.4,434.9,1118.6,436.3,1112.7,436.3z M1123.5,425.5
		c2.4,0,4.6-0.6,6.6-1.7c2.1-1.1,4.5-2.9,7.3-5.2v-29.7c-1.2,0.2-2.4,0.5-3.5,0.7c-1.2,0.2-2.5,0.5-4.1,0.7c-5.4,1.4-9.8,3.8-13,7.2
		c-3.2,3.4-4.9,7.9-4.9,13.5c0,4.8,1.1,8.5,3.4,10.9C1117.6,424.3,1120.3,425.5,1123.5,425.5z"/>
	<path class="st6" d="M1178.2,433.6v-1.8l2.7-0.7c2.4-0.7,4-1.8,4.9-3.2s1.3-3.2,1.3-5.5v-55.4c0-2.6-0.4-4.5-1.3-5.7
		c-0.9-1.2-2.5-2.1-4.9-2.6l-2.7-0.7v-1.8l30.4-10.3l1.8,1.8l1.6,15.2v1.4c1.7-3.3,3.8-6.3,6.5-9.1c2.7-2.8,5.6-5,8.8-6.8
		c3.2-1.8,6.5-2.7,9.6-2.7c4.5,0,7.9,1.2,10.3,3.7c2.4,2.5,3.5,5.6,3.5,9.4c0,4-1.1,7.1-3.4,9.3c-2.3,2.2-5,3.3-8.2,3.3
		c-5,0-9.3-2.5-13.1-7.4l-0.4-0.4c-1.2-1.6-2.5-2.6-4.1-2.7c-1.5-0.2-2.9,0.6-4.2,2.2c-1.2,1.1-2.2,2.3-2.9,3.8
		c-0.8,1.5-1.5,3.2-2.2,5v49.3c0,4.7,2.1,7.7,6.2,8.8l5.7,1.6v1.8H1178.2z"/>
	<path class="st6" d="M1256.5,433.6v-1.8l2.5-0.7c2.4-0.7,4-1.8,4.9-3.2s1.3-3.3,1.3-5.7v-55.4c0-2.5-0.4-4.3-1.3-5.6
		c-0.9-1.2-2.5-2.1-4.9-2.6l-2.5-0.5v-1.8l32.4-10.4l1.8,1.8l-0.5,25.1v49.5c0,2.4,0.4,4.2,1.3,5.7c0.9,1.4,2.4,2.5,4.7,3.2l1.8,0.5
		v1.8H1256.5z M1277.4,336.7c-4,0-7.4-1.3-10.2-3.8c-2.8-2.5-4.2-5.7-4.2-9.6c0-4,1.4-7.3,4.2-9.7c2.8-2.5,6.2-3.7,10.2-3.7
		c4,0,7.4,1.2,10.1,3.7c2.7,2.5,4.1,5.7,4.1,9.7c0,3.9-1.4,7.1-4.1,9.6C1284.8,335.4,1281.4,336.7,1277.4,336.7z"/>
	<path class="st6" d="M1350.1,345.9c7.7,0,14.2,1.6,19.6,4.7c5.4,3.1,9.6,7.4,12.5,12.7c2.9,5.4,4.3,11.5,4.3,18.3
		c0,1.3-0.1,2.6-0.2,4c-0.1,1.4-0.4,2.6-0.7,3.6h-52.7c0.1,12.7,2.4,21.9,6.8,27.5c4.4,5.6,11,8.4,19.7,8.4c5.9,0,10.7-0.9,14.3-2.8
		c3.7-1.9,7.1-4.7,10.3-8.3l1.8,1.6c-3.7,6.5-8.5,11.6-14.6,15.2c-6.1,3.7-13.4,5.5-21.8,5.5c-8.4,0-15.8-1.8-22.3-5.4
		c-6.5-3.6-11.6-8.8-15.2-15.5c-3.7-6.7-5.5-14.7-5.5-24.1c0-9.7,2.1-17.9,6.4-24.7c4.2-6.8,9.7-11.9,16.4-15.5
		C1335.8,347.6,1342.8,345.9,1350.1,345.9z M1349.6,349.4c-3.4,0-6.3,1-8.8,3.1c-2.4,2.1-4.3,5.7-5.7,11c-1.4,5.2-2.1,12.6-2.2,22.2
		h30.2c1.2-12.9,0.7-22.1-1.4-27.8C1359.6,352.2,1355.6,349.4,1349.6,349.4z"/>
</g>
<g>
	<path class="st6" d="M542.9,246.3c2,0,3.7,0.5,5.1,1.5c1.4,1,2.5,2.4,3.3,4.3c0.8,1.9,1.2,4.1,1.2,6.7s-0.4,4.8-1.2,6.7
		c-0.8,1.9-1.9,3.3-3.3,4.3c-1.4,1-3.1,1.5-5.1,1.5s-3.7-0.5-5.1-1.5c-1.4-1-2.6-2.4-3.3-4.3c-0.8-1.9-1.2-4.1-1.2-6.7
		s0.4-4.8,1.2-6.7c0.8-1.9,1.9-3.3,3.3-4.3C539.2,246.8,541,246.3,542.9,246.3z M542.9,250.4c-1.1,0-2.1,0.3-2.9,1
		c-0.8,0.6-1.4,1.6-1.8,2.8c-0.4,1.3-0.6,2.8-0.6,4.6s0.2,3.3,0.6,4.6c0.4,1.3,1,2.2,1.8,2.8c0.8,0.6,1.8,1,2.9,1s2.1-0.3,2.8-1
		c0.8-0.6,1.4-1.6,1.8-2.8c0.4-1.3,0.6-2.8,0.6-4.6s-0.2-3.3-0.6-4.6c-0.4-1.3-1-2.2-1.8-2.8C545,250.7,544,250.4,542.9,250.4z"/>
	<path class="st6" d="M556.2,271v-18.4h3.7l0.2,3.3c0.5-1.2,1.2-2.1,2.1-2.8s1.9-0.9,2.9-0.9c1.1,0,2.1,0.3,3,0.9
		c0.9,0.6,1.5,1.5,2,2.7c0.3-0.8,0.8-1.5,1.3-2c0.5-0.5,1.2-0.9,1.8-1.2s1.3-0.4,2-0.4c1,0,1.9,0.2,2.7,0.7c0.8,0.5,1.5,1.2,2,2.2
		c0.5,1,0.7,2.2,0.7,3.8V271h-4.1v-11.1c0-1.4-0.2-2.3-0.7-2.9c-0.5-0.6-1.1-0.8-1.9-0.8c-0.6,0-1.2,0.2-1.7,0.6
		c-0.5,0.4-0.9,0.9-1.2,1.6c-0.3,0.7-0.4,1.6-0.4,2.7v9.9h-4.1v-11.1c0-1.4-0.2-2.3-0.7-2.9c-0.5-0.6-1.1-0.8-1.9-0.8
		c-0.5,0-1,0.2-1.6,0.5c-0.5,0.3-0.9,0.9-1.3,1.6c-0.3,0.7-0.5,1.7-0.5,2.9v9.8H556.2z"/>
	<path class="st6" d="M589,244.5V271h-4.1v-26.5H589z M600.3,252.5l-7,8.9l-0.8,0.5l-4.5,5.9l-0.1-5.4l7.7-9.9H600.3z M593.8,258.4
		l6.8,12.6h-4.7l-4.9-9.6L593.8,258.4z"/>
	<path class="st6" d="M603.1,271v-18.4h3.6l0.3,3.6c0.4-1.3,1-2.3,1.8-2.9c0.8-0.7,1.8-1,2.9-1c0.3,0,0.7,0,0.9,0.1
		c0.3,0.1,0.5,0.2,0.7,0.3l-0.5,4.2c-0.2-0.1-0.4-0.2-0.7-0.2c-0.3,0-0.7-0.1-1.1-0.1c-0.6,0-1.2,0.2-1.8,0.5
		c-0.6,0.4-1,0.9-1.4,1.6s-0.5,1.6-0.5,2.7v9.5H603.1z"/>
	<path class="st6" d="M617.9,249.9c-0.9,0-1.5-0.2-1.9-0.7c-0.4-0.5-0.6-1.1-0.6-2c0-0.9,0.2-1.6,0.6-2c0.4-0.5,1.1-0.7,1.9-0.7
		c0.9,0,1.5,0.2,1.9,0.7c0.4,0.5,0.6,1.1,0.6,2c0,0.9-0.2,1.6-0.6,2C619.5,249.6,618.8,249.9,617.9,249.9z M620,252.5V271h-4.1
		v-18.4H620z"/>
	<path class="st6" d="M624.4,271v-18.4h3.7l0.2,5.5l-0.5-0.6c0.2-1.2,0.6-2.2,1.2-3c0.5-0.8,1.2-1.4,1.9-1.8
		c0.8-0.4,1.6-0.6,2.5-0.6c1,0,2,0.2,2.8,0.7c0.8,0.5,1.5,1.2,1.9,2.2c0.5,1,0.7,2.2,0.7,3.7V271h-4.1v-10.6c0-1.6-0.3-2.7-0.8-3.3
		c-0.5-0.6-1.2-0.9-2-0.9c-0.6,0-1.1,0.2-1.7,0.5c-0.5,0.3-1,0.9-1.3,1.6c-0.3,0.7-0.5,1.7-0.5,2.9v9.8H624.4z"/>
	<path class="st6" d="M652.1,267.5c1.6,0,2.9,0.4,3.8,1.3c0.9,0.9,1.3,2.1,1.3,3.6c0,1.4-0.3,2.6-1,3.6c-0.7,1-1.6,1.7-2.8,2.2
		s-2.6,0.7-4.2,0.7c-2.6,0-4.5-0.4-5.7-1.3c-1.2-0.9-1.8-2-1.8-3.5c0-1,0.3-1.9,1-2.5s1.7-1.1,3.2-1.1l-0.2,0.6
		c-1-0.2-1.9-0.6-2.4-1.3c-0.6-0.6-0.8-1.5-0.8-2.6c0-1.1,0.4-2.1,1.1-2.8s1.7-1.1,2.9-1.3l1.8,1h-0.4c-0.9,0.1-1.5,0.3-1.8,0.6
		c-0.4,0.4-0.5,0.8-0.5,1.2c0,0.5,0.2,0.9,0.5,1.2c0.3,0.3,0.8,0.4,1.4,0.4H652.1z M649.3,252.2c1.4,0,2.6,0.3,3.7,0.8
		c1,0.5,1.8,1.2,2.4,2.2c0.6,0.9,0.8,2.1,0.8,3.4c0,1.3-0.3,2.4-0.8,3.3c-0.6,0.9-1.4,1.7-2.4,2.2c-1,0.5-2.3,0.8-3.7,0.8
		c-2.2,0-4-0.6-5.1-1.7c-1.2-1.1-1.8-2.6-1.8-4.6c0-1.3,0.3-2.4,0.8-3.4c0.6-0.9,1.4-1.7,2.4-2.2
		C646.7,252.4,647.9,252.2,649.3,252.2z M649.3,275.4c1,0,1.9-0.1,2.6-0.3c0.7-0.2,1.2-0.5,1.5-0.8s0.5-0.7,0.5-1.1
		c0-0.5-0.2-0.8-0.5-1.1c-0.3-0.3-0.8-0.4-1.6-0.4h-5.1c-0.5,0-0.9,0.1-1.2,0.4c-0.3,0.3-0.5,0.7-0.5,1.2c0,0.7,0.4,1.2,1.1,1.6
		C646.9,275.2,648,275.4,649.3,275.4z M649.3,255.3c-0.8,0-1.5,0.3-2,0.8c-0.5,0.5-0.8,1.3-0.8,2.2s0.3,1.7,0.8,2.3
		c0.5,0.6,1.2,0.8,2,0.8c0.8,0,1.5-0.3,2-0.8s0.8-1.3,0.8-2.3s-0.3-1.7-0.8-2.2S650.1,255.3,649.3,255.3z M657.1,248.1l0.5,3.6
		c-0.1,0-0.2,0-0.3,0s-0.2,0-0.3,0c-0.9,0-1.6,0.3-2.1,0.8c-0.5,0.5-0.7,1.2-0.7,2.1l-1.7-0.8c0-1,0.2-1.9,0.5-2.7
		c0.3-0.8,0.8-1.5,1.4-2s1.4-0.8,2.3-0.8c0,0,0.1,0,0.2,0S657,248.1,657.1,248.1z"/>
</g>
</svg>
