<?xml version="1.0" encoding="utf-8"?>
<!-- Generator: Adobe Illustrator 26.3.1, SVG Export Plug-In . SVG Version: 6.00 Build 0)  -->
<svg version="1.1" xmlns="http://www.w3.org/2000/svg" xmlns:xlink="http://www.w3.org/1999/xlink" x="0px" y="0px"
	 viewBox="0 0 1153 1058.5" style="enable-background:new 0 0 1153 1058.5;" xml:space="preserve">
<style type="text/css">
	.st0{display:none;}
	.st1{fill:#4E402B;}
	.st2{fill:#AA410A;}
	.st3{fill:#BC6F27;}
	.st4{fill:#B6D1DA;}
	.st5{fill:#BAB5A8;}
	.st6{fill:#D3B363;}
	.st7{fill:#B51E00;}
	.st8{fill:#7C1605;}
	.st9{fill:#911805;}
	.st10{opacity:7.000000e-02;}
	.st11{fill:#F2583E;}
	.st12{fill:#606060;}
	.st13{fill:#F2F2F4;}
	.st14{fill:#DEDEE0;}
	.st15{fill:#383838;}
	.st16{fill:#9DD2D8;}
	.st17{fill:#D2E3F4;}
	.st18{fill:#FF7B00;}
	.st19{opacity:0.65;}
	.st20{fill:#DD5B03;}
	.st21{opacity:0.64;}
	.st22{fill:#3F3F3F;}
	.st23{fill:#333333;}
	.st24{fill:#504B3F;}
	.st25{fill:#3A3730;}
	.st26{fill:#FFC600;}
	.st27{fill:#1C262F;}
	.st28{fill:#F0F0F0;}
	.st29{fill:#DFE3E4;}
	.st30{opacity:0.68;fill:#4C4C4C;}
	.st31{fill:#FFCB00;}
	.st32{fill:#262122;}
	.st33{opacity:0.96;fill:#BA4F41;}
	.st34{opacity:0.24;fill:#FFFFFF;}
	.st35{fill:#3A3A3A;}
	.st36{fill:#FEEAD1;}
	.st37{fill:#315154;}
	.st38{fill:#F46756;}
	.st39{opacity:4.000000e-02;fill:#603813;}
	.st40{fill:#5C7584;}
	.st41{fill:#C19E61;}
	.st42{fill:#33302E;}
	.st43{fill:#3A3733;}
	.st44{opacity:0.72;}
	.st45{fill:#23211F;}
	.st46{fill:#EDD098;}
	.st47{fill:#FFE8B4;}
	.st48{fill:#DDB566;}
	.st49{fill:#9E815F;}
	.st50{fill:none;}
	.st51{fill:none;stroke:#15ED0A;stroke-miterlimit:10;}
	.st52{fill:none;stroke:#15ED0A;}
	.st53{fill:#A74223;}
	.st54{fill:#BBD0D9;}
</style>
<g id="Layer_1" class="st0">
</g>
<g id="Layer_2">
	<g>
		
			<rect id="Rectangle_333_00000122704854674427419800000007714598162446772661_" x="0" y="0.3" class="st5" width="1153.4" height="1058"/>
		<g>
			<g>
				<path class="st7" d="M386.3,320.1L256.9,508.8l115,96.9l53.5-73.9l-8,364.5h364.4l-7.9-361.7l58.3,73.6l115.2-98l-138-190.2
					l-118.7-48.8c0,0-91.3,27.3-177.3,0L386.3,320.1z"/>
				<polygon class="st8" points="418.1,872.4 781.3,872.4 781.6,896.1 418.1,896.1 				"/>
				<path class="st8" d="M936.4,494.4L821.6,594.9l10,13.7l116.6-98.4C948.2,510.1,938.3,497,936.4,494.4z"/>
				<path class="st8" d="M267.9,492.1l113.5,100.5l-9.9,13.7l-115.3-98.4C256.2,507.9,266.1,494.7,267.9,492.1z"/>
				<path class="st9" d="M512.9,271.3c0,0,84.9,23,178.4,0c0,0,0.2,75.3-82.2,79.7C526.6,355.3,512.9,271.3,512.9,271.3z"/>
				<path class="st8" d="M689.2,287.2c2.1-9.4,2.1-15.9,2.1-15.9c-93.5,23-178.4,0-178.4,0s1.1,6.9,4.7,16.6
					C536.3,292.2,609.4,306.3,689.2,287.2z"/>
				<path class="st8" d="M690.1,270.9c-3.3,23.3-18,74.6-82.6,78.3c-65.1,3.8-88-52.5-95-77.7c-3.6,1.4-7.1,2.7-10.9,3.4
					c7.2,28.1,32.3,95,106.1,90.6c72.9-4.3,88.6-64.8,92-90.9C696.6,273.3,693.5,271.7,690.1,270.9z"/>
				<g class="st10">
					<path d="M946.6,510.3l-138-190.2l-118.7-48.8c0,0-34.3,10.3-80.7,11.9v613.1h171.8L773,534.7l58.3,73.6L946.6,510.3z"/>
					<polygon points="609.1,896.1 780.7,896.1 780.4,872.4 609.1,872.4 					"/>
					<path d="M935.5,494.4L820.7,594.9l10,13.7l116.6-98.4C947.3,510.1,937.3,497,935.5,494.4z"/>
					<path d="M609.1,281.5v69.4c81.4-4.9,81.2-79.6,81.2-79.6C661.8,278.3,634,281.1,609.1,281.5z"/>
					<path d="M609.1,281.5v15.4c24.2-0.4,51.3-3,79.2-9.6c2.1-9.4,2.1-15.9,2.1-15.9C661.8,278.3,634,281.1,609.1,281.5z"/>
					<path d="M689.2,270.9c-3.3,23-17.6,73.2-80,78.1v16.3c70.9-5.5,86.3-64.9,89.7-90.7C695.7,273.3,692.5,271.7,689.2,270.9z"/>
				</g>
			</g>
		</g>
	</g>
</g>
</svg>
