<?xml version="1.0" encoding="utf-8"?>
<!-- Generator: Adobe Illustrator 26.3.1, SVG Export Plug-In . SVG Version: 6.00 Build 0)  -->
<svg version="1.1" xmlns="http://www.w3.org/2000/svg" xmlns:xlink="http://www.w3.org/1999/xlink" x="0px" y="0px"
	 viewBox="0 0 1437 1134" style="enable-background:new 0 0 1437 1134;" xml:space="preserve">
<style type="text/css">
	.st0{display:none;}
	.st1{fill:#4E402B;}
	.st2{fill:#AA410A;}
	.st3{fill:#BC6F27;}
	.st4{fill:#B6D1DA;}
	.st5{fill:#BAB5A8;}
	.st6{fill:#D3B363;}
	.st7{fill:#B51E00;}
	.st8{fill:#7C1605;}
	.st9{fill:#911805;}
	.st10{opacity:7.000000e-02;}
	.st11{fill:#F2583E;}
	.st12{fill:#606060;}
	.st13{fill:#F2F2F4;}
	.st14{fill:#DEDEE0;}
	.st15{fill:#383838;}
	.st16{fill:#9DD2D8;}
	.st17{fill:#D2E3F4;}
	.st18{fill:#FF7B00;}
	.st19{opacity:0.65;}
	.st20{fill:#DD5B03;}
	.st21{opacity:0.64;}
	.st22{fill:#3F3F3F;}
	.st23{fill:#333333;}
	.st24{fill:#504B3F;}
	.st25{fill:#3A3730;}
	.st26{fill:#FFC600;}
	.st27{fill:#1C262F;}
	.st28{fill:#F0F0F0;}
	.st29{fill:#DFE3E4;}
	.st30{opacity:0.68;fill:#4C4C4C;}
	.st31{fill:#FFCB00;}
	.st32{fill:#262122;}
	.st33{opacity:0.96;fill:#BA4F41;}
	.st34{opacity:0.24;fill:#FFFFFF;}
	.st35{fill:#3A3A3A;}
	.st36{fill:#FEEAD1;}
	.st37{fill:#315154;}
	.st38{fill:#F46756;}
	.st39{opacity:4.000000e-02;fill:#603813;}
	.st40{fill:#5C7584;}
	.st41{fill:#C19E61;}
	.st42{fill:#33302E;}
	.st43{fill:#3A3733;}
	.st44{opacity:0.72;}
	.st45{fill:#23211F;}
	.st46{fill:#EDD098;}
	.st47{fill:#FFE8B4;}
	.st48{fill:#DDB566;}
	.st49{fill:#9E815F;}
	.st50{fill:none;}
	.st51{fill:none;stroke:#15ED0A;stroke-miterlimit:10;}
	.st52{fill:none;stroke:#15ED0A;}
	.st53{fill:#A74223;}
	.st54{fill:#BBD0D9;}
</style>
<g id="Layer_1" class="st0">
</g>
<g id="Layer_2">
	<g>
		
			<rect id="Rectangle_334_00000127031921916763441940000011394208857744825765_" x="0.4" y="0" class="st54" width="1436.6" height="1133.6"/>
		<g>
			<path class="st18" d="M670.2,368.6h147.1c0,0,12.4,2.2,44.8-22.6c32.3-24.8,30.2-22.6,51.7-22.6s34.5,1.1,74.4,14
				c39.9,12.9,71.1,64.7,71.1,64.7s52.8,139,99.2,349.2c0,0,15.1,47.4-31.3,79.8c0,0-42,22.6-72.2-21.6S987.1,735,931,716.7
				c-56-18.3-355-16.5-404.1,15.1c-15.1,9.7-41,23.7-101.3,89.5c0,0-31.3,28-69,4.3c-37.7-23.7-24.8-67.9-24.8-67.9
				s25.9-126.1,51.7-205.8s51.7-153,51.7-153s10.8-31.3,59.3-57.1c48.5-25.9,96.7-18.4,96.7-18.4s12.1,1.1,27.2,13
				C633.6,348.1,657.3,368.6,670.2,368.6z"/>
			<g class="st19">
				<path class="st20" d="M1158.4,752.3c-46.3-210.2-99.2-349.2-99.2-349.2s-2.5-4.2-7.1-10.5c9.1,37.6,38.8,167.6,58.7,346.6
					c0,0,10,48.8-39.6,76c0,0-4.2,1.7-10.7,2.7c29.5,34.1,66.5,14.2,66.5,14.2C1173.5,799.7,1158.4,752.3,1158.4,752.3z"/>
			</g>
			<g class="st21">
				<path class="st20" d="M403.6,799.4c-39.6-20.4-30.5-65.6-30.5-65.6s15.1-127.8,34.1-209.5c12.3-52.8,24.8-103,32.1-131.8
					c-3.1,5.2-4.2,8.3-4.2,8.3s-25.9,73.3-51.7,153s-51.7,205.8-51.7,205.8s-12.9,44.2,24.8,67.9c37.7,23.7,69-4.3,69-4.3
					c6-6.6,11.7-12.6,17.1-18.2C431.8,807.5,418.5,807.1,403.6,799.4z"/>
			</g>
			<path class="st22" d="M1061.4,813.9c-30.8-60.6-69.3-102-126.5-127.2c-57.2-25.1-362.4-22.6-412.5,20.7
				c-15.1,13-40.7,31.7-99.5,117c1.8-1.3,2.7-2.1,2.7-2.1c60.4-65.7,86.2-79.8,101.3-89.5C576,701.3,875,699.5,931,717.8
				c56,18.3,93.8,48.5,123.9,92.7c4.1,6,8.5,10.8,12.9,14.6C1065.6,821.7,1063.5,818,1061.4,813.9z"/>
			<path class="st22" d="M475.1,382.6c52.2-25.9,104.1-18.4,104.1-18.4s13.1,1.1,29.3,13c16.2,11.9,41.8,32.3,55.7,32.3h158.3
				c0,0,13.4,2.2,48.2-22.6c34.8-24.8,32.5-22.6,55.7-22.6c23.2,0,37.1,1.1,80,14c24.3,7.3,45.6,27,59.5,42.8
				c-4.4-12.5-6.9-19.1-6.9-19.1s-31.3-51.7-71.1-64.7c-39.9-12.9-52.8-14-74.4-14s-19.4-2.2-51.7,22.6
				c-32.3,24.8-44.8,22.6-44.8,22.6H669.9c-12.9,0-36.6-20.5-51.7-32.3c-15.1-11.9-27.2-13-27.2-13s-48.2-7.5-96.7,18.4
				c-48.5,25.9-59.3,57.1-59.3,57.1s-2,5.8-5.5,15.8C439.2,404.7,453.7,393.2,475.1,382.6z"/>
			<path class="st23" d="M809.3,368.4c-0.3,0-0.5,0-0.8,0c-0.5,0-1,0-1.5-0.1c-0.5,0.1-1,0.1-1.5,0.1c-0.7,0-1.4-0.1-2.1-0.2
				c-0.3,0-0.5,0-0.8,0c-0.5,0-0.9,0-1.4-0.1c-0.5,0.1-1,0.1-1.5,0.1c-0.7,0-1.4-0.1-2-0.2h-31v-0.1l-83,0.5l-6,41h140.1
				L809.3,368.4z"/>
			<ellipse class="st24" cx="544.7" cy="492.5" rx="59.8" ry="56"/>
			<ellipse class="st24" cx="643.8" cy="596" rx="59.8" ry="56"/>
			<ellipse class="st24" cx="860.4" cy="596" rx="59.8" ry="56"/>
			<ellipse class="st25" cx="860.8" cy="593.1" rx="42.2" ry="39.6"/>
			<ellipse class="st26" cx="545.7" cy="493.1" rx="43.1" ry="40.4"/>
			<path class="st26" d="M627.1,575.5v-19.4c0,0-1.1-9.7,6.5-9.7c7.5,0,21.8,0,21.8,0s6.2,0,6.2,7.5s0,21.5,0,21.5h23.8
				c0,0,5.2,1.1,5.2,6.5c0,5.4,0,24.2,0,24.2s-1.1,4.9-5.4,4.9s-22.5,0-22.5,0l-0.1,22.6c0,0,0,5.4-5.4,5.4s-24.8,0-24.8,0
				s-5.5,1-5.5-4.9c0.1-5.9,0-22.4,0-22.4l-21.5-0.7c0,0-7.5,1.1-7.5-6.5c0-7.5,0-22.1,0-22.1s-1.1-7,6.5-7
				C612,575.5,627.1,575.5,627.1,575.5z"/>
			<circle class="st24" cx="895.5" cy="468.8" r="23.7"/>
			<circle class="st24" cx="954.7" cy="516.2" r="23.7"/>
			<circle class="st24" cx="1011.9" cy="468.8" r="23.7"/>
			<circle class="st24" cx="954.7" cy="416" r="23.7"/>
			<circle class="st24" cx="691.8" cy="482.8" r="23.7"/>
			<circle class="st24" cx="804.9" cy="482.8" r="23.7"/>
			<circle class="st26" cx="958" cy="412.8" r="16.2"/>
			<circle class="st26" cx="954.7" cy="516.2" r="16.2"/>
			<circle class="st26" cx="898.7" cy="468.8" r="16.2"/>
			<circle class="st26" cx="1008.6" cy="468.8" r="16.2"/>
		</g>
	</g>
</g>
</svg>
