<?xml version="1.0" encoding="utf-8"?>
<!-- Generator: Adobe Illustrator 26.3.1, SVG Export Plug-In . SVG Version: 6.00 Build 0)  -->
<svg version="1.1" xmlns="http://www.w3.org/2000/svg" xmlns:xlink="http://www.w3.org/1999/xlink" x="0px" y="0px"
	 viewBox="0 0 1153 796.5" style="enable-background:new 0 0 1153 796.5;" xml:space="preserve">
<style type="text/css">
	.st0{display:none;}
	.st1{fill:#4E402B;}
	.st2{fill:#AA410A;}
	.st3{fill:#BC6F27;}
	.st4{fill:#B6D1DA;}
	.st5{fill:#BAB5A8;}
	.st6{fill:#D3B363;}
	.st7{fill:#B51E00;}
	.st8{fill:#7C1605;}
	.st9{fill:#911805;}
	.st10{opacity:7.000000e-02;}
	.st11{fill:#F2583E;}
	.st12{fill:#606060;}
	.st13{fill:#F2F2F4;}
	.st14{fill:#DEDEE0;}
	.st15{fill:#383838;}
	.st16{fill:#9DD2D8;}
	.st17{fill:#D2E3F4;}
	.st18{fill:#FF7B00;}
	.st19{opacity:0.65;}
	.st20{fill:#DD5B03;}
	.st21{opacity:0.64;}
	.st22{fill:#3F3F3F;}
	.st23{fill:#333333;}
	.st24{fill:#504B3F;}
	.st25{fill:#3A3730;}
	.st26{fill:#FFC600;}
	.st27{fill:#1C262F;}
	.st28{fill:#F0F0F0;}
	.st29{fill:#DFE3E4;}
	.st30{opacity:0.68;fill:#4C4C4C;}
	.st31{fill:#FFCB00;}
	.st32{fill:#262122;}
	.st33{opacity:0.96;fill:#BA4F41;}
	.st34{opacity:0.24;fill:#FFFFFF;}
	.st35{fill:#3A3A3A;}
	.st36{fill:#FEEAD1;}
	.st37{fill:#315154;}
	.st38{fill:#F46756;}
	.st39{opacity:4.000000e-02;fill:#603813;}
	.st40{fill:#5C7584;}
	.st41{fill:#C19E61;}
	.st42{fill:#33302E;}
	.st43{fill:#3A3733;}
	.st44{opacity:0.72;}
	.st45{fill:#23211F;}
	.st46{fill:#EDD098;}
	.st47{fill:#FFE8B4;}
	.st48{fill:#DDB566;}
	.st49{fill:#9E815F;}
	.st50{fill:none;}
	.st51{fill:none;stroke:#15ED0A;stroke-miterlimit:10;}
	.st52{fill:none;stroke:#15ED0A;}
	.st53{fill:#BBD0D9;}
	.st54{fill:#A74223;}
</style>
<g id="Layer_1" class="st0">
</g>
<g id="Layer_2">
	<g>
		
			<rect id="Rectangle_335_00000106852598021312170240000015446112345444412297_" x="-0.4" y="0.6" class="st1" width="1153.4" height="795.6"/>
		<g>
			<g id="Rectangle_335_00000085227209805976150290000001821627490216166837_" transform="translate(1192 1277)">
				<rect x="-897.5" y="-1196.4" class="st1" width="562.8" height="636.6"/>
				<rect x="-897.5" y="-1195.6" class="st50" width="562.8" height="634.8"/>
			</g>
			<g>
				<ellipse class="st40" cx="584.1" cy="409.2" rx="263.1" ry="251.9"/>
				<g>
					<ellipse class="st41" cx="587.9" cy="517.3" rx="124.5" ry="108"/>
					<path class="st42" d="M752.8,604.5c4.2-4,8.6-7.9,12.8-12c-5.8-9.9-30.7-43.9-111.4-65.4l-1.5-32.3c0.3-3-0.3-5.4-0.9-7
						c-1.9-5.4-10.5-11.3-22-14.7c-14-4.1-32-5.1-41.2-5.3c-9.1-0.1-30.1-0.6-51.9,8.3c-14.5,5.9-17.4,11.1-17.5,13.5
						c-0.8,11.3,0,36.2,0,36.2s-103.7,29.8-112.9,69.6c0,0,147,139.7,339.7,14.6C748.1,608,750.4,606.2,752.8,604.5z"/>
					<ellipse class="st43" cx="585.6" cy="489.7" rx="61.5" ry="17.9"/>
					<g class="st44">
						<g>
							<path class="st45" d="M636.1,541.9c-4,2.6-7.9,4.2-13.2,5.8c-7.7,2.4-20.3,6.2-37.6,5.8v6.5c27.1,0.3,55.5-6.9,63.9-26.1
								c1.5-3.5,2.1-6.6,2.3-8.7C649.1,529.7,644.4,536.6,636.1,541.9z"/>
							<path class="st45" d="M535.3,541.9c4,2.6,7.9,4.2,13.2,5.8c7.7,2.4,20.3,6.2,37.6,5.8v6.5c-27.1,0.3-55.5-6.9-63.9-26.1
								c-1.5-3.5-2.1-6.6-2.3-8.7C522.4,529.7,527.1,536.6,535.3,541.9z"/>
						</g>
						<g>
							<path class="st45" d="M635.4,520.9c-4,2.6-7.9,4.2-13.2,5.8c-7.7,2.4-20.3,6.2-37.6,5.8v6.5c27.1,0.3,55.5-6.9,63.9-26.1
								c1.5-3.5,2.1-6.6,2.3-8.7C648.4,508.7,643.6,515.6,635.4,520.9z"/>
							<path class="st45" d="M534.6,520.9c4,2.6,7.9,4.2,13.2,5.8c7.7,2.4,20.3,6.2,37.6,5.8v6.5c-27.1,0.3-55.5-6.9-63.9-26.1
								c-1.5-3.5-2.1-6.6-2.3-8.7C521.6,508.7,526.3,515.6,534.6,520.9z"/>
						</g>
					</g>
					<path class="st46" d="M544.4,479.8V503c0,0,39.6,9.6,81.3,0l-1-23.1H544.4z"/>
					<g>
						<path class="st47" d="M680.1,297.6l-96-2.2v199.6c4.2,0.3,25,1.1,46.5-14.3c24-17.3,41.9-41.3,46.8-73.5
							C682.4,374.8,680.1,297.6,680.1,297.6z"/>
						<path class="st47" d="M488.1,297.6l96-2.2v199.6c-4.2,0.3-25,1.1-46.5-14.3c-24-17.3-41.9-41.3-46.8-73.5
							C485.9,374.8,488.1,297.6,488.1,297.6z"/>
					</g>
					<ellipse class="st47" cx="580.7" cy="364.3" rx="109.9" ry="115.5"/>
					<g>
						<path class="st46" d="M584.1,304.5l-96,2.2c0,0-2.3,77.3,2.7,109.5c4.9,32.3,22.8,56.3,46.8,73.5
							c21.4,15.4,42.2,14.7,46.5,14.3V304.5z"/>
					</g>
					<path class="st46" d="M584.1,258c-1.1,0-2.2-0.1-3.4-0.1c-60.7,0-109.9,51.7-109.9,115.5S520,488.9,580.7,488.9
						c1.1,0,2.3,0,3.4-0.1V258z"/>
					<g>
						<path class="st48" d="M581,241.3c-15.1-6.2-64.8,4.5-75.2,27c-10.4,22.6-24.5,38.9-39.7,53.6c-15.3,14.7-16.3,45.6-17.8,63.5
							c-1,12.7-4,23.9-9.9,36.7c-5.9,12.8-2.4,35.2,2.5,45.9c4.9,10.7-20.9,39.6-22.4,46.9c-3.8,10,10.9,28.7,16.1,36.8
							c5.3,8.1,17.4,28.4-0.1,33.2c6.4,1.3,12.5-6,16.3-9.8c0.7,3.3,0.7,7.2-0.7,10.1c-1.4,2.9,6.2-6.2,7.4-11
							c1.1,4,2.1,8.1,3.2,12.1c6.7-0.1,13.5-0.2,20.2-0.3c-1.2-5.5-2.5-11.1-3.7-16.6c13.4,7.4,31.1,14.4,45.2,5.8
							c-16.7-5.8-20.3-24.3-20.8-40.2c-0.5-15.9,2.1-32.9,11.8-47.5c9.7-14.6,3.5-33.9-3.4-52.2c-6.9-18.3-12.4-49-7.3-70.7
							c12.6-10,22.7-25.7,21.5-41.5c-1.2-15.8-0.2-30.6,10.4-43c10.6-12.4,36.7-9.6,50.1-6.5c8.3,4.1,9.8-1,20.5,0.7
							c10.7,1.7,22.8,15.1,27.6,29.9c12.8,39.4,24.5,29.2,31.3,46.3c4,10,9.5,28.4,6.7,54.3c-7.9,33.5-14.2,58.2-19.7,77.5
							c-1.1,3.8-3.3,10.6-2.2,19.4c2.1,16,14.3,27.5,24.8,39.8c-0.8-5.3-1.7-9.8-1.3-14.4c12.4,4.3,28.8,18.4,28.4,30.3
							c-0.4,11.9-4.5,15.4-10.4,22.9c14,11.3,22.4,7,31.3-7.5c2.2,3.6,4.1,7,6.5,10.6c16-12.7,30-30.3,26-53
							c-4-22.6-23.7-58.3-25.3-76.9c-1.6-18.6,6.8-23.9,11.3-30.1c4.6-6.2,2.9-2,3.7-4.1c4.4-12.2-14-24.9-19.8-31
							c-15.6-16.3-23.7-49.3-31.9-67.9c-10.1-22.8-45.2-74.7-67.8-76.6c-13.7-1.2-8.4,0.4-14.1,0c-12.9-0.8-9.8,2.1-22.8-0.9
							C584.7,242.4,596.2,247.6,581,241.3z"/>
					</g>
					<g>
						<path class="st49" d="M569.8,368.1c0,0,14.8-5.7,29.2,0l-1.5,2.4c0,0-9.8-5.3-26.6-0.4L569.8,368.1z"/>
						<path class="st49" d="M654.7,369.7c1.6,0.3,4.6,0.8,8.2,0c2.2-0.5,5.3-1.7,6.2-2.7c0,0,0.1-0.2,0.3-0.2c0.9-0.3,2.5,1,2.9,2.6
							c0.1,0.3,0.2,0.8,0,1.4c-0.3,0.9-1,1.4-1.8,1.8c-1.6,1-3.3,1.2-4.5,1.3c-0.7,0.1-1.2,0.1-1.6,0.1c-2.6,0-5.2,0-7.9,0
							L654.7,369.7z"/>
						<path class="st49" d="M512.8,369.7c-1.6,0.3-4.6,0.8-8.2,0c-2.2-0.5-5.3-1.7-6.2-2.7c0,0-0.1-0.2-0.3-0.2
							c-0.9-0.3-2.5,1-2.9,2.6c-0.1,0.3-0.2,0.8,0,1.4c0.3,0.9,1,1.4,1.8,1.8c1.6,1,3.3,1.2,4.5,1.3c0.7,0.1,1.2,0.1,1.6,0.1
							c2.6,0,5.2,0,7.9,0L512.8,369.7z"/>
						<path class="st49" d="M544.3,351.8c-19.1-1.2-34.5,5.8-33.8,25.4c0.7,19.5,13.2,32.1,29.4,32.5c16.1,0.4,28-13.6,31.3-29.9
							C574.4,363.4,563.4,353,544.3,351.8z M568.1,379.8c-2.9,14.6-13.6,27.2-28.1,26.8c-14.5-0.4-25.7-11.6-26.4-29.1
							c-0.7-17.5,13.2-23.8,30.3-22.8C561.1,355.8,571,365.2,568.1,379.8z"/>
						<path class="st49" d="M597.8,379.7c3.3,16.3,15.1,30.3,31.3,29.9c16.1-0.4,28.6-12.9,29.4-32.5c0.7-19.5-14.7-26.6-33.8-25.4
							C605.6,353,594.5,363.4,597.8,379.7z M625,354.8c17.1-1.1,31,5.2,30.3,22.8c-0.7,17.5-11.9,28.8-26.4,29.1
							c-14.5,0.4-25.1-12.2-28.1-26.8C598,365.2,607.9,355.8,625,354.8z"/>
					</g>
				</g>
			</g>
		</g>
	</g>
</g>
</svg>
