<?xml version="1.0" encoding="utf-8"?>
<!-- Generator: Adobe Illustrator 26.3.1, SVG Export Plug-In . SVG Version: 6.00 Build 0)  -->
<svg version="1.1" xmlns="http://www.w3.org/2000/svg" xmlns:xlink="http://www.w3.org/1999/xlink" x="0px" y="0px"
	 viewBox="0 0 1437 564.5" style="enable-background:new 0 0 1437 564.5;" xml:space="preserve">
<style type="text/css">
	.st0{display:none;}
	.st1{fill:#4E402B;}
	.st2{fill:#AA410A;}
	.st3{fill:#BC6F27;}
	.st4{fill:#B6D1DA;}
	.st5{fill:#BAB5A8;}
	.st6{fill:#D3B363;}
	.st7{fill:#B51E00;}
	.st8{fill:#7C1605;}
	.st9{fill:#911805;}
	.st10{opacity:7.000000e-02;}
	.st11{fill:#F2583E;}
	.st12{fill:#606060;}
	.st13{fill:#F2F2F4;}
	.st14{fill:#DEDEE0;}
	.st15{fill:#383838;}
	.st16{fill:#9DD2D8;}
	.st17{fill:#D2E3F4;}
	.st18{fill:#FF7B00;}
	.st19{opacity:0.65;}
	.st20{fill:#DD5B03;}
	.st21{opacity:0.64;}
	.st22{fill:#3F3F3F;}
	.st23{fill:#333333;}
	.st24{fill:#504B3F;}
	.st25{fill:#3A3730;}
	.st26{fill:#FFC600;}
	.st27{fill:#1C262F;}
	.st28{fill:#F0F0F0;}
	.st29{fill:#DFE3E4;}
	.st30{opacity:0.68;fill:#4C4C4C;}
	.st31{fill:#FFCB00;}
	.st32{fill:#262122;}
	.st33{opacity:0.96;fill:#BA4F41;}
	.st34{opacity:0.24;fill:#FFFFFF;}
	.st35{fill:#3A3A3A;}
	.st36{fill:#FEEAD1;}
	.st37{fill:#315154;}
	.st38{fill:#F46756;}
	.st39{opacity:4.000000e-02;fill:#603813;}
	.st40{fill:#5C7584;}
	.st41{fill:#C19E61;}
	.st42{fill:#33302E;}
	.st43{fill:#3A3733;}
	.st44{opacity:0.72;}
	.st45{fill:#23211F;}
	.st46{fill:#EDD098;}
	.st47{fill:#FFE8B4;}
	.st48{fill:#DDB566;}
	.st49{fill:#9E815F;}
	.st50{fill:none;}
	.st51{fill:none;stroke:#15ED0A;stroke-miterlimit:10;}
	.st52{fill:none;stroke:#15ED0A;}
	.st53{fill:#A74223;}
	.st54{fill:#BBD0D9;}
</style>
<g id="Layer_1" class="st0">
</g>
<g id="Layer_2">
	
		<rect id="Rectangle_330_00000060007736938828093330000012315210916131376830_" x="0.4" y="0.3" class="st6" width="1436.6" height="564.5"/>
	<g>
		<g>
			<g>
				<path class="st27" d="M541,127.5H125.1c-3.5,0-6.3,2.8-6.3,6.3v267.8h5.8v7.5h12.8v6.7h387.3v-14.1h22.6V133.7
					C547.2,130.3,544.4,127.5,541,127.5z"/>
				<path class="st28" d="M118.8,386.1v18.8c0,5.9,4.8,10.8,10.8,10.8h406.9c5.9,0,10.8-4.8,10.8-10.8v-18.8H118.8z"/>
				<circle class="st27" cx="333.7" cy="400.8" r="10.6"/>
				<polygon class="st28" points="295,415.6 285.8,460.7 271,471.3 271,475.6 395.7,475.5 395.7,471.4 378.8,460 369.4,415.6 				
					"/>
				<polygon class="st29" points="271,471.4 271,475.6 395.7,475.5 395.7,471.4 395.6,471.3 				"/>
				<polygon class="st29" points="372.4,429.7 369.4,415.6 295,415.6 292.1,429.7 				"/>
				<polygon class="st30" points="222,140.9 134.3,140.9 134.3,369.8 461,369.8 				"/>
				<g>
					<ellipse class="st31" cx="333.4" cy="262" rx="72.9" ry="74.7"/>
					<ellipse class="st32" cx="308.9" cy="248.7" rx="9" ry="17.6"/>
					<ellipse class="st32" cx="358.9" cy="248.7" rx="9" ry="17.6"/>
					<path class="st32" d="M292.2,224.3c0,0,16.6-7,27.1-15.1C319.3,209.2,314.4,225.8,292.2,224.3z"/>
					<path class="st32" d="M373.9,224.3c0,0-16.6-7-27.1-15.1C346.8,209.2,351.7,225.8,373.9,224.3z"/>
					<path class="st32" d="M304.8,303.6h57.4c0,0-3.1-21.8-26.4-23.3C312.6,279,304.1,300.1,304.8,303.6z"/>
					<path class="st33" d="M304.8,303.5C304.8,303.6,304.8,303.6,304.8,303.5l57.4,0.1c0,0,0-0.1,0-0.2c-3.8-6.2-11.3-13.5-26-14.3
						C319.5,288.3,309.6,296.5,304.8,303.5z"/>
				</g>
				<polygon class="st34" points="461,369.8 536.7,369.8 536.7,140.9 222,140.9 				"/>
			</g>
			<g>
				<path class="st27" d="M1281.3,416.3v-12.2h17.3V132.9c0-3.5-2.8-6.4-6.3-6.4H876.1c-3.5,0-6.3,2.9-6.3,6.4V396h20v20.3H1281.3z"
					/>
				<path class="st28" d="M869.7,386.5v18.9c0,6,4.8,10.8,10.8,10.8h407.4c6,0,10.8-4.8,10.8-10.8v-18.9H869.7z"/>
				<ellipse class="st27" cx="1084.9" cy="401.4" rx="10.6" ry="10.6"/>
				<polygon class="st28" points="1046.1,416.3 1036.9,461.6 1022.1,472.3 1022.1,476.6 1147,476.5 1147,472.4 1130,460.9 
					1120.6,416.3 				"/>
				<polygon class="st29" points="1022.1,472.3 1022.1,476.6 1147,476.5 1147,472.4 1146.8,472.3 				"/>
				<polygon class="st29" points="1123.6,430.5 1120.6,416.3 1046.1,416.3 1043.2,430.5 				"/>
				<polygon class="st30" points="973,139.9 885.3,139.9 885.3,370.2 1212.3,370.2 				"/>
				<g>
					<ellipse class="st31" cx="1095.3" cy="255.1" rx="73" ry="75.1"/>
					<ellipse class="st32" cx="1070.8" cy="241.6" rx="9" ry="17.7"/>
					<ellipse class="st32" cx="1120.9" cy="241.6" rx="9" ry="17.7"/>
					<path class="st32" d="M1127.6,276.3h-64.4c0,0,3.5,24.6,29.6,26.2C1118.9,304.1,1128.4,280.3,1127.6,276.3z"/>
					<path class="st33" d="M1119.5,292.4c-7.3-0.9-15.4-1.6-24.2-1.9c-9.2-0.2-17.7,0-25.5,0.7c4.4,5.5,11.5,10.7,22.9,11.4
						C1105.2,303.3,1113.9,298.3,1119.5,292.4z"/>
				</g>
				<polygon class="st34" points="1212.3,370.2 1288.1,370.2 1288.1,139.9 973,139.9 				"/>
			</g>
		</g>
		<g>
			<polygon class="st35" points="654,288.8 736.6,288.8 736.6,278.8 763.5,293.3 654,293.3 			"/>
			<polygon class="st35" points="654,297.9 736.6,297.9 736.6,307.9 763.5,293.3 654,293.3 			"/>
		</g>
	</g>
</g>
</svg>
