<?xml version="1.0" encoding="utf-8"?>
<!-- Generator: Adobe Illustrator 26.3.1, SVG Export Plug-In . SVG Version: 6.00 Build 0)  -->
<svg version="1.1" xmlns="http://www.w3.org/2000/svg" xmlns:xlink="http://www.w3.org/1999/xlink" x="0px" y="0px"
	 viewBox="0 0 1437 665" style="enable-background:new 0 0 1437 665;" xml:space="preserve">
<style type="text/css">
	.st0{display:none;}
	.st1{fill:#4E402B;}
	.st2{fill:#AA410A;}
	.st3{fill:#BC6F27;}
	.st4{fill:#B6D1DA;}
	.st5{fill:#BAB5A8;}
	.st6{fill:#D3B363;}
	.st7{fill:#B51E00;}
	.st8{fill:#7C1605;}
	.st9{fill:#911805;}
	.st10{opacity:7.000000e-02;}
	.st11{fill:#F2583E;}
	.st12{fill:#606060;}
	.st13{fill:#F2F2F4;}
	.st14{fill:#DEDEE0;}
	.st15{fill:#383838;}
	.st16{fill:#9DD2D8;}
	.st17{fill:#D2E3F4;}
	.st18{fill:#FF7B00;}
	.st19{opacity:0.65;}
	.st20{fill:#DD5B03;}
	.st21{opacity:0.64;}
	.st22{fill:#3F3F3F;}
	.st23{fill:#333333;}
	.st24{fill:#504B3F;}
	.st25{fill:#3A3730;}
	.st26{fill:#FFC600;}
	.st27{fill:#1C262F;}
	.st28{fill:#F0F0F0;}
	.st29{fill:#DFE3E4;}
	.st30{opacity:0.68;fill:#4C4C4C;}
	.st31{fill:#FFCB00;}
	.st32{fill:#262122;}
	.st33{opacity:0.96;fill:#BA4F41;}
	.st34{opacity:0.24;fill:#FFFFFF;}
	.st35{fill:#3A3A3A;}
	.st36{fill:#FEEAD1;}
	.st37{fill:#315154;}
	.st38{fill:#F46756;}
	.st39{opacity:4.000000e-02;fill:#603813;}
	.st40{fill:#5C7584;}
	.st41{fill:#C19E61;}
	.st42{fill:#33302E;}
	.st43{fill:#3A3733;}
	.st44{opacity:0.72;}
	.st45{fill:#23211F;}
	.st46{fill:#EDD098;}
	.st47{fill:#FFE8B4;}
	.st48{fill:#DDB566;}
	.st49{fill:#9E815F;}
	.st50{fill:none;}
	.st51{fill:none;stroke:#15ED0A;stroke-miterlimit:10;}
	.st52{fill:none;stroke:#15ED0A;}
	.st53{fill:#A74223;}
	.st54{fill:#BBD0D9;}
</style>
<g id="Layer_1" class="st0">
</g>
<g id="Layer_2">
	<g>
		<rect id="Rectangle_332_00000086670983720687719230000003096745971393841595_" x="0" class="st3" width="1437" height="664.5"/>
		<g>
			<g>
				<g>
					<rect x="538.4" y="160.3" class="st12" width="87.7" height="20.8"/>
					<rect x="549.4" y="148.7" class="st13" width="65.8" height="11.9"/>
				</g>
				<path class="st13" d="M924,161.5c0,0-1.2-9.8,7.4-9.8c8.6,0,71.9,0,71.9,0s6.4,1.2,6.2,4.9c-0.2,3.7,0,26.3,0,26.3l-85.5-1.7
					V161.5z"/>
				<path class="st13" d="M450.1,167.9c0,0-1.1-15,6.4-15s62.4,0,62.4,0s5.6,1.8,5.4,7.5c-0.2,5.7,0,40.2,0,40.2l-74.2-2.6V167.9z"
					/>
				<path class="st14" d="M1040,536.2H434.1c-6.7,0-12.2-5.5-12.2-12.2V191.5c0-6.7,5.5-12.2,12.2-12.2H1040
					c6.7,0,12.2,5.5,12.2,12.2V524C1052.2,530.7,1046.7,536.2,1040,536.2z"/>
				<rect x="421.9" y="256" class="st15" width="630.2" height="252.6"/>
				<path class="st14" d="M635.3,179.4l12.3-41.7c0,0-0.6-20.2,20.8-20.2c21.5,0,136.7,0,136.7,0s16.6-3.7,21.5,14.1
					c4.9,17.8,12.8,47.8,12.8,47.8H635.3z"/>
				<path class="st13" d="M800.1,176.9H674.6c-2.1,0-3.8-1.7-3.8-3.8V139c0-2.1,1.7-3.8,3.8-3.8h125.5c2.1,0,3.8,1.7,3.8,3.8v34.2
					C803.9,175.2,802.2,176.9,800.1,176.9z"/>
				<rect x="423.1" y="203.3" class="st13" width="627.8" height="52.7"/>
				<circle class="st11" cx="952.2" cy="229.6" r="14.7"/>
				<ellipse class="st12" cx="737.7" cy="396.5" rx="161.2" ry="152.3"/>
				<ellipse class="st15" cx="737.7" cy="396.5" rx="144.1" ry="137.9"/>
				<ellipse class="st12" cx="737.7" cy="396.7" rx="101.2" ry="97.8"/>
				<ellipse class="st16" cx="737.3" cy="396.7" rx="86.8" ry="84.9"/>
				<ellipse class="st17" cx="706.4" cy="366.3" rx="24.5" ry="22.1"/>
			</g>
		</g>
	</g>
</g>
</svg>
