<?xml version="1.0" encoding="utf-8"?>
<!-- Generator: Adobe Illustrator 26.3.1, SVG Export Plug-In . SVG Version: 6.00 Build 0)  -->
<svg version="1.1" xmlns="http://www.w3.org/2000/svg" xmlns:xlink="http://www.w3.org/1999/xlink" x="0px" y="0px"
	 viewBox="0 0 1153 796.5" style="enable-background:new 0 0 1153 796.5;" xml:space="preserve">
<style type="text/css">
	.st0{display:none;}
	.st1{fill:#4E402B;}
	.st2{fill:#AA410A;}
	.st3{fill:#BC6F27;}
	.st4{fill:#B6D1DA;}
	.st5{fill:#BAB5A8;}
	.st6{fill:#D3B363;}
	.st7{fill:#B51E00;}
	.st8{fill:#7C1605;}
	.st9{fill:#911805;}
	.st10{opacity:7.000000e-02;}
	.st11{fill:#F2583E;}
	.st12{fill:#606060;}
	.st13{fill:#F2F2F4;}
	.st14{fill:#DEDEE0;}
	.st15{fill:#383838;}
	.st16{fill:#9DD2D8;}
	.st17{fill:#D2E3F4;}
	.st18{fill:#FF7B00;}
	.st19{opacity:0.65;}
	.st20{fill:#DD5B03;}
	.st21{opacity:0.64;}
	.st22{fill:#3F3F3F;}
	.st23{fill:#333333;}
	.st24{fill:#504B3F;}
	.st25{fill:#3A3730;}
	.st26{fill:#FFC600;}
	.st27{fill:#1C262F;}
	.st28{fill:#F0F0F0;}
	.st29{fill:#DFE3E4;}
	.st30{opacity:0.68;fill:#4C4C4C;}
	.st31{fill:#FFCB00;}
	.st32{fill:#262122;}
	.st33{opacity:0.96;fill:#BA4F41;}
	.st34{opacity:0.24;fill:#FFFFFF;}
	.st35{fill:#3A3A3A;}
	.st36{fill:#FEEAD1;}
	.st37{fill:#315154;}
	.st38{fill:#F46756;}
	.st39{opacity:4.000000e-02;fill:#603813;}
	.st40{fill:#5C7584;}
	.st41{fill:#C19E61;}
	.st42{fill:#33302E;}
	.st43{fill:#3A3733;}
	.st44{opacity:0.72;}
	.st45{fill:#23211F;}
	.st46{fill:#EDD098;}
	.st47{fill:#FFE8B4;}
	.st48{fill:#DDB566;}
	.st49{fill:#9E815F;}
	.st50{fill:none;}
	.st51{fill:none;stroke:#15ED0A;stroke-miterlimit:10;}
	.st52{fill:none;stroke:#15ED0A;}
	.st53{fill:#BBD0D9;}
	.st54{fill:#A74223;}
</style>
<g id="Layer_1" class="st0">
</g>
<g id="Layer_2">
	<g>
		
			<rect id="Rectangle_331_00000152954581493480258490000017975644767548727950_" x="-0.4" y="0" class="st54" width="1153.4" height="795.6"/>
		<g>
			<path class="st36" d="M886,587.1c14.3-9.9,45.7-34.6,63-78.6c5.3-13.5,24.9-68.6-0.7-124.5c-11.5-25.1-27.2-39.9-42.3-53.8
				c-20.5-18.9-63.5-52.5-135-68.9c0,0-111.2-28.7-216.6,50.8s-68,177.3-68,177.3s14.4,80.5,128.4,132.2c0,0,66.1,31.6,165.8,13.4
				l101.6,75.7L886,587.1z"/>
			<ellipse class="st36" cx="724.7" cy="448" rx="240" ry="197.2"/>
			<path class="st2" d="M292.3,496.4c-16.4-11.3-52.5-39.7-72.3-90.3c-6.1-15.5-28.6-78.7,0.8-142.9c13.2-28.8,31.3-45.8,48.5-61.7
				c23.5-21.7,72.8-60.3,155-79.1c0,0,127.6-33,248.6,58.3S751,384.2,751,384.2S734.5,476.6,603.6,536c0,0-75.9,36.3-190.3,15.4
				l-116.6,86.9L292.3,496.4z"/>
			<polygon class="st36" points="301.6,455.8 309.5,613.4 459.6,502.2 			"/>
			<path class="st37" d="M672.9,180.7c-121-91.3-248.6-58.3-248.6-58.3c-82.1,18.8-131.5,57.4-155,79.1
				c-17.3,15.9-35.4,33-48.5,61.7c-29.4,64.2-6.9,127.4-0.8,142.9c19.9,50.6,55.9,78.9,72.3,90.3l4.4,141.9l116.6-86.9
				C527.7,572.3,603.6,536,603.6,536C734.5,476.6,751,384.2,751,384.2S793.9,272,672.9,180.7z M713.8,377.2
				c0,0-14.4,80.5-128.4,132.2c0,0-66.1,31.6-165.8,13.4L318,598.5l-3.8-123.6c-14.3-9.9-45.7-34.6-63-78.6
				c-5.3-13.5-24.9-68.6,0.7-124.5c11.5-25.1,27.2-39.9,42.3-53.8c20.5-18.9,63.5-52.5,135-68.9c0,0,111.2-28.7,216.6,50.8
				C751.1,279.4,713.8,377.2,713.8,377.2z"/>
			<ellipse class="st36" cx="479" cy="336.4" rx="240" ry="192.3"/>
			<ellipse class="st38" cx="379.5" cy="336.3" rx="31.1" ry="29.2"/>
			<ellipse class="st38" cx="490.7" cy="336.3" rx="31.1" ry="29.2"/>
			<ellipse class="st38" cx="593.4" cy="336.3" rx="31.1" ry="29.2"/>
			<path class="st39" d="M653.5,199.9c-59.1-44.6-120-55.1-162.1-55.8v384.4c62.9-0.5,101.7-19.1,101.7-19.1
				c114-51.7,128.4-132.2,128.4-132.2S758.9,279.4,653.5,199.9z"/>
		</g>
	</g>
</g>
</svg>
