<?xml version="1.0" encoding="utf-8"?>
<!-- Generator: Adobe Illustrator 26.3.1, SVG Export Plug-In . SVG Version: 6.00 Build 0)  -->
<svg version="1.1" xmlns="http://www.w3.org/2000/svg" xmlns:xlink="http://www.w3.org/1999/xlink" x="0px" y="0px"
	 viewBox="0 0 720 682" style="enable-background:new 0 0 720 682;" xml:space="preserve">
<style type="text/css">
	.st0{display:none;}
	.st1{fill:#4E402B;}
	.st2{fill:#AA410A;}
	.st3{fill:#BC6F27;}
	.st4{fill:#B6D1DA;}
	.st5{fill:#BAB5A8;}
	.st6{fill:#D3B363;}
	.st7{fill:#B51E00;}
	.st8{fill:#7C1605;}
	.st9{fill:#911805;}
	.st10{opacity:7.000000e-02;}
	.st11{fill:#F2583E;}
	.st12{fill:#606060;}
	.st13{fill:#F2F2F4;}
	.st14{fill:#DEDEE0;}
	.st15{fill:#383838;}
	.st16{fill:#9DD2D8;}
	.st17{fill:#D2E3F4;}
	.st18{fill:#FF7B00;}
	.st19{opacity:0.65;}
	.st20{fill:#DD5B03;}
	.st21{opacity:0.64;}
	.st22{fill:#3F3F3F;}
	.st23{fill:#333333;}
	.st24{fill:#504B3F;}
	.st25{fill:#3A3730;}
	.st26{fill:#FFC600;}
	.st27{fill:#1C262F;}
	.st28{fill:#F0F0F0;}
	.st29{fill:#DFE3E4;}
	.st30{opacity:0.68;fill:#4C4C4C;}
	.st31{fill:#FFCB00;}
	.st32{fill:#262122;}
	.st33{opacity:0.96;fill:#BA4F41;}
	.st34{opacity:0.24;fill:#FFFFFF;}
	.st35{fill:#3A3A3A;}
	.st36{fill:#FEEAD1;}
	.st37{fill:#315154;}
	.st38{fill:#F46756;}
	.st39{opacity:4.000000e-02;fill:#603813;}
	.st40{fill:#5C7584;}
	.st41{fill:#C19E61;}
	.st42{fill:#33302E;}
	.st43{fill:#3A3733;}
	.st44{opacity:0.72;}
	.st45{fill:#23211F;}
	.st46{fill:#EDD098;}
	.st47{fill:#FFE8B4;}
	.st48{fill:#DDB566;}
	.st49{fill:#9E815F;}
	.st50{fill:none;}
	.st51{fill:none;stroke:#15ED0A;stroke-miterlimit:10;}
	.st52{fill:none;stroke:#15ED0A;}
</style>
<g id="Layer_1" class="st0">
</g>
<g id="Layer_2">
	<g>
		<g id="Rectangle_331_00000038372012792556612940000000066404519017726103_" transform="translate(0 1410)">
			<rect x="0" y="-1410" class="st2" width="720" height="682.4"/>
			<rect x="0.6" y="-1409.4" class="st2" width="718.9" height="681.3"/>
		</g>
		<g>
			<path class="st36" d="M547.9,449.3c8.9-6.2,28.5-21.6,39.3-49c3.3-8.4,15.5-42.7-0.5-77.6c-7.1-15.6-17-24.9-26.3-33.5
				c-12.8-11.8-39.5-32.7-84.1-42.9c0,0-69.3-17.9-134.9,31.6s-42.4,110.5-42.4,110.5s9,50.2,80,82.4c0,0,41.2,19.7,103.3,8.4
				l63.3,47.2L547.9,449.3z"/>
			<ellipse class="st36" cx="447.4" cy="362.6" rx="149.6" ry="122.9"/>
			<path class="st2" d="M178,392.7c-10.2-7.1-32.7-24.7-45.1-56.3c-3.8-9.7-17.8-49,0.5-89.1c8.2-17.9,19.5-28.6,30.2-38.5
				c14.6-13.5,45.4-37.6,96.6-49.3c0,0,79.5-20.6,154.9,36.3s48.7,126.8,48.7,126.8s-10.3,57.6-91.9,94.6c0,0-47.3,22.6-118.6,9.6
				l-72.7,54.2L178,392.7z"/>
			<polygon class="st36" points="183.8,367.5 188.7,465.7 282.2,396.4 			"/>
			<path class="st37" d="M415.1,196c-75.4-56.9-154.9-36.3-154.9-36.3c-51.2,11.7-81.9,35.8-96.6,49.3c-10.8,9.9-22,20.5-30.2,38.5
				c-18.3,40-4.3,79.4-0.5,89.1c12.4,31.5,34.8,49.2,45.1,56.3l2.7,88.4l72.7-54.2c71.3,13,118.6-9.6,118.6-9.6
				c81.6-37,91.9-94.6,91.9-94.6S490.5,252.9,415.1,196z M440.6,318.5c0,0-9,50.2-80,82.4c0,0-41.2,19.7-103.3,8.4L194,456.4
				l-2.4-77c-8.9-6.2-28.5-21.6-39.3-49c-3.3-8.4-15.5-42.7,0.5-77.6c7.1-15.6,17-24.9,26.3-33.5c12.8-11.8,39.5-32.7,84.1-42.9
				c0,0,69.3-17.9,134.9,31.6C463.9,257.6,440.6,318.5,440.6,318.5z"/>
			<ellipse class="st36" cx="294.3" cy="293.1" rx="149.6" ry="119.8"/>
			<ellipse class="st38" cx="232.3" cy="293" rx="19.4" ry="18.2"/>
			<ellipse class="st38" cx="301.6" cy="293" rx="19.4" ry="18.2"/>
			<ellipse class="st38" cx="365.6" cy="293" rx="19.4" ry="18.2"/>
			<path class="st39" d="M403,208c-36.8-27.8-74.7-34.4-101-34.8v239.5c39.2-0.3,63.4-11.9,63.4-11.9c71.1-32.2,80-82.4,80-82.4
				S468.7,257.6,403,208z"/>
		</g>
	</g>
</g>
</svg>
