<?xml version="1.0" encoding="utf-8"?>
<!-- Generator: Adobe Illustrator 26.3.1, SVG Export Plug-In . SVG Version: 6.00 Build 0)  -->
<svg version="1.1" xmlns="http://www.w3.org/2000/svg" xmlns:xlink="http://www.w3.org/1999/xlink" x="0px" y="0px"
	 viewBox="0 0 720 898" style="enable-background:new 0 0 720 898;" xml:space="preserve">
<style type="text/css">
	.st0{display:none;}
	.st1{fill:#4E402B;}
	.st2{fill:#AA410A;}
	.st3{fill:#BC6F27;}
	.st4{fill:#B6D1DA;}
	.st5{fill:#BAB5A8;}
	.st6{fill:#D3B363;}
	.st7{fill:#B51E00;}
	.st8{fill:#7C1605;}
	.st9{fill:#911805;}
	.st10{opacity:7.000000e-02;}
	.st11{fill:#F2583E;}
	.st12{fill:#606060;}
	.st13{fill:#F2F2F4;}
	.st14{fill:#DEDEE0;}
	.st15{fill:#383838;}
	.st16{fill:#9DD2D8;}
	.st17{fill:#D2E3F4;}
	.st18{fill:#FF7B00;}
	.st19{opacity:0.65;}
	.st20{fill:#DD5B03;}
	.st21{opacity:0.64;}
	.st22{fill:#3F3F3F;}
	.st23{fill:#333333;}
	.st24{fill:#504B3F;}
	.st25{fill:#3A3730;}
	.st26{fill:#FFC600;}
	.st27{fill:#1C262F;}
	.st28{fill:#F0F0F0;}
	.st29{fill:#DFE3E4;}
	.st30{opacity:0.68;fill:#4C4C4C;}
	.st31{fill:#FFCB00;}
	.st32{fill:#262122;}
	.st33{opacity:0.96;fill:#BA4F41;}
	.st34{opacity:0.24;fill:#FFFFFF;}
	.st35{fill:#3A3A3A;}
	.st36{fill:#FEEAD1;}
	.st37{fill:#315154;}
	.st38{fill:#F46756;}
	.st39{opacity:4.000000e-02;fill:#603813;}
	.st40{fill:#5C7584;}
	.st41{fill:#C19E61;}
	.st42{fill:#33302E;}
	.st43{fill:#3A3733;}
	.st44{opacity:0.72;}
	.st45{fill:#23211F;}
	.st46{fill:#EDD098;}
	.st47{fill:#FFE8B4;}
	.st48{fill:#DDB566;}
	.st49{fill:#9E815F;}
	.st50{fill:none;}
	.st51{fill:none;stroke:#15ED0A;stroke-miterlimit:10;}
	.st52{fill:none;stroke:#15ED0A;}
</style>
<g id="Layer_1" class="st0">
</g>
<g id="Layer_2">
	<g id="Rectangle_335_00000150092381976754234990000015476251213912279719_" transform="translate(632 1210)">
		<rect x="-632.3" y="-1209" class="st1" width="720.7" height="898"/>
		<rect x="-631.8" y="-1208.4" class="st1" width="719.5" height="896.9"/>
	</g>
	<g>
		<g id="Rectangle_335_00000175283749340568027890000003409616247953457554_" transform="translate(1192 1277)">
			<rect x="-1126.7" y="-1141.3" class="st1" width="562.8" height="636.6"/>
			<rect x="-1126.7" y="-1140.4" class="st50" width="562.8" height="634.8"/>
		</g>
		<g>
			<ellipse class="st40" cx="354.9" cy="464.3" rx="263.1" ry="251.9"/>
			<g>
				<ellipse class="st41" cx="358.7" cy="572.5" rx="124.5" ry="108"/>
				<path class="st42" d="M523.6,659.6c4.2-4,8.6-7.9,12.8-12c-5.8-9.9-30.7-43.9-111.4-65.4l-1.5-32.3c0.3-3-0.3-5.4-0.9-7
					c-1.9-5.4-10.5-11.3-22-14.7c-14-4.1-32-5.1-41.2-5.3c-9.1-0.1-30.1-0.6-51.9,8.3c-14.5,5.9-17.4,11.1-17.5,13.5
					c-0.8,11.3,0,36.2,0,36.2s-103.7,29.8-112.9,69.6c0,0,147,139.7,339.7,14.6C518.9,663.1,521.2,661.3,523.6,659.6z"/>
				<ellipse class="st43" cx="356.4" cy="544.8" rx="61.5" ry="17.9"/>
				<g class="st44">
					<g>
						<path class="st45" d="M406.9,597.1c-4,2.6-7.9,4.2-13.2,5.8c-7.7,2.4-20.3,6.2-37.6,5.8v6.5c27.1,0.3,55.5-6.9,63.9-26.1
							c1.5-3.5,2.1-6.6,2.3-8.7C419.9,584.8,415.2,591.7,406.9,597.1z"/>
						<path class="st45" d="M306.1,597.1c4,2.6,7.9,4.2,13.2,5.8c7.7,2.4,20.3,6.2,37.6,5.8v6.5c-27.1,0.3-55.5-6.9-63.9-26.1
							c-1.5-3.5-2.1-6.6-2.3-8.7C293.2,584.8,297.9,591.7,306.1,597.1z"/>
					</g>
					<g>
						<path class="st45" d="M406.2,576.1c-4,2.6-7.9,4.2-13.2,5.8c-7.7,2.4-20.3,6.2-37.6,5.8v6.5c27.1,0.3,55.5-6.9,63.9-26.1
							c1.5-3.5,2.1-6.6,2.3-8.7C419.2,563.8,414.4,570.7,406.2,576.1z"/>
						<path class="st45" d="M305.4,576.1c4,2.6,7.9,4.2,13.2,5.8c7.7,2.4,20.3,6.2,37.6,5.8v6.5c-27.1,0.3-55.5-6.9-63.9-26.1
							c-1.5-3.5-2.1-6.6-2.3-8.7C292.4,563.8,297.1,570.7,305.4,576.1z"/>
					</g>
				</g>
				<path class="st46" d="M315.2,535v23.1c0,0,39.6,9.6,81.3,0l-1-23.1H315.2z"/>
				<g>
					<path class="st47" d="M450.9,352.7l-96-2.2v199.6c4.2,0.3,25,1.1,46.5-14.3c24-17.3,41.9-41.3,46.8-73.5
						C453.2,430,450.9,352.7,450.9,352.7z"/>
					<path class="st47" d="M259,352.7l96-2.2v199.6c-4.2,0.3-25,1.1-46.5-14.3c-24-17.3-41.9-41.3-46.8-73.5
						C256.7,430,259,352.7,259,352.7z"/>
				</g>
				<ellipse class="st47" cx="351.5" cy="419.5" rx="109.9" ry="115.5"/>
				<g>
					<path class="st46" d="M354.9,359.6l-96,2.2c0,0-2.3,77.3,2.7,109.5c4.9,32.3,22.8,56.3,46.8,73.5
						c21.4,15.4,42.2,14.7,46.5,14.3V359.6z"/>
				</g>
				<path class="st46" d="M354.9,313.1c-1.1,0-2.2-0.1-3.4-0.1c-60.7,0-109.9,51.7-109.9,115.5s49.2,115.5,109.9,115.5
					c1.1,0,2.3,0,3.4-0.1V313.1z"/>
				<g>
					<path class="st48" d="M351.8,296.5c-15.1-6.2-64.8,4.5-75.2,27c-10.4,22.6-24.5,38.9-39.7,53.6c-15.3,14.7-16.3,45.6-17.8,63.5
						c-1,12.7-4,23.9-9.9,36.7c-5.9,12.8-2.4,35.2,2.5,45.9c4.9,10.7-20.9,39.6-22.4,46.9c-3.8,10,10.9,28.7,16.1,36.8
						c5.3,8.1,17.4,28.4-0.1,33.2c6.4,1.3,12.5-6,16.3-9.8c0.7,3.3,0.7,7.2-0.7,10.1c-1.4,2.9,6.2-6.2,7.4-11
						c1.1,4,2.1,8.1,3.2,12.1c6.7-0.1,13.5-0.2,20.2-0.3c-1.2-5.5-2.5-11.1-3.7-16.6c13.4,7.4,31.1,14.4,45.2,5.8
						c-16.7-5.8-20.3-24.3-20.8-40.2c-0.5-15.9,2.1-32.9,11.8-47.5c9.7-14.6,3.5-33.9-3.4-52.2c-6.9-18.3-12.4-49-7.3-70.7
						c12.6-10,22.7-25.7,21.5-41.5c-1.2-15.8-0.2-30.6,10.4-43c10.6-12.4,36.7-9.6,50.1-6.5c8.3,4.1,9.8-1,20.5,0.7
						c10.7,1.7,22.8,15.1,27.6,29.9c12.8,39.4,24.5,29.2,31.3,46.3c4,10,9.5,28.4,6.7,54.3c-7.9,33.5-14.2,58.2-19.7,77.5
						c-1.1,3.8-3.3,10.6-2.2,19.4c2.1,16,14.3,27.5,24.8,39.8c-0.8-5.3-1.7-9.8-1.3-14.4c12.4,4.3,28.8,18.4,28.4,30.3
						s-4.5,15.4-10.4,22.9c14,11.3,22.4,7,31.3-7.5c2.2,3.6,4.1,7,6.5,10.6c16-12.7,30-30.3,26-53c-4-22.6-23.7-58.3-25.3-76.9
						c-1.6-18.6,6.8-23.9,11.3-30.1c4.6-6.2,2.9-2,3.7-4.1c4.4-12.2-14-24.9-19.8-31c-15.6-16.3-23.7-49.3-31.9-67.9
						c-10.1-22.8-45.2-74.7-67.8-76.6c-13.7-1.2-8.4,0.4-14.1,0c-12.9-0.8-9.8,2.1-22.8-0.9C355.5,297.5,367,302.7,351.8,296.5z"/>
				</g>
				<g>
					<path class="st49" d="M340.6,423.2c0,0,14.8-5.7,29.2,0l-1.5,2.4c0,0-9.8-5.3-26.6-0.4L340.6,423.2z"/>
					<path class="st49" d="M425.5,424.8c1.6,0.3,4.6,0.8,8.2,0c2.2-0.5,5.3-1.7,6.2-2.7c0,0,0.1-0.2,0.3-0.2c0.9-0.3,2.5,1,2.9,2.6
						c0.1,0.3,0.2,0.8,0,1.4c-0.3,0.9-1,1.4-1.8,1.8c-1.6,1-3.3,1.2-4.5,1.3c-0.7,0.1-1.2,0.1-1.6,0.1c-2.6,0-5.2,0-7.9,0
						L425.5,424.8z"/>
					<path class="st49" d="M283.6,424.8c-1.6,0.3-4.6,0.8-8.2,0c-2.2-0.5-5.3-1.7-6.2-2.7c0,0-0.1-0.2-0.3-0.2
						c-0.9-0.3-2.5,1-2.9,2.6c-0.1,0.3-0.2,0.8,0,1.4c0.3,0.9,1,1.4,1.8,1.8c1.6,1,3.3,1.2,4.5,1.3c0.7,0.1,1.2,0.1,1.6,0.1
						c2.6,0,5.2,0,7.9,0L283.6,424.8z"/>
					<path class="st49" d="M315.1,406.9c-19.1-1.2-34.5,5.8-33.8,25.4c0.7,19.5,13.2,32.1,29.4,32.5c16.1,0.4,28-13.6,31.3-29.9
						C345.2,418.5,334.2,408.1,315.1,406.9z M338.9,435c-2.9,14.6-13.6,27.2-28.1,26.8c-14.5-0.4-25.7-11.6-26.4-29.1
						c-0.7-17.5,13.2-23.8,30.3-22.8C331.9,411,341.8,420.3,338.9,435z"/>
					<path class="st49" d="M368.6,434.9c3.3,16.3,15.1,30.3,31.3,29.9c16.1-0.4,28.6-12.9,29.4-32.5c0.7-19.5-14.7-26.6-33.8-25.4
						C376.4,408.1,365.3,418.5,368.6,434.9z M395.8,409.9c17.1-1.1,31,5.2,30.3,22.8c-0.7,17.5-11.9,28.8-26.4,29.1
						c-14.5,0.4-25.1-12.2-28.1-26.8C368.8,420.3,378.7,411,395.8,409.9z"/>
				</g>
			</g>
		</g>
	</g>
</g>
</svg>
