<?xml version="1.0" encoding="utf-8"?>
<!-- Generator: Adobe Illustrator 26.3.1, SVG Export Plug-In . SVG Version: 6.00 Build 0)  -->
<svg version="1.1" xmlns="http://www.w3.org/2000/svg" xmlns:xlink="http://www.w3.org/1999/xlink" x="0px" y="0px"
	 viewBox="0 0 631 603.2" style="enable-background:new 0 0 631 603.2;" xml:space="preserve">
<style type="text/css">
	.st0{display:none;}
	.st1{fill:#4E402B;}
	.st2{fill:#AA410A;}
	.st3{fill:#BC6F27;}
	.st4{fill:#B6D1DA;}
	.st5{fill:#BAB5A8;}
	.st6{fill:#D3B363;}
	.st7{fill:#B51E00;}
	.st8{fill:#7C1605;}
	.st9{fill:#911805;}
	.st10{opacity:7.000000e-02;}
	.st11{fill:#F2583E;}
	.st12{fill:#606060;}
	.st13{fill:#F2F2F4;}
	.st14{fill:#DEDEE0;}
	.st15{fill:#383838;}
	.st16{fill:#9DD2D8;}
	.st17{fill:#D2E3F4;}
	.st18{fill:#FF7B00;}
	.st19{opacity:0.65;}
	.st20{fill:#DD5B03;}
	.st21{opacity:0.64;}
	.st22{fill:#3F3F3F;}
	.st23{fill:#333333;}
	.st24{fill:#504B3F;}
	.st25{fill:#3A3730;}
	.st26{fill:#FFC600;}
	.st27{fill:#1C262F;}
	.st28{fill:#F0F0F0;}
	.st29{fill:#DFE3E4;}
	.st30{opacity:0.68;fill:#4C4C4C;}
	.st31{fill:#FFCB00;}
	.st32{fill:#262122;}
	.st33{opacity:0.96;fill:#BA4F41;}
	.st34{opacity:0.24;fill:#FFFFFF;}
	.st35{fill:#3A3A3A;}
	.st36{fill:#FEEAD1;}
	.st37{fill:#315154;}
	.st38{fill:#F46756;}
	.st39{opacity:4.000000e-02;fill:#603813;}
	.st40{fill:#5C7584;}
	.st41{fill:#C19E61;}
	.st42{fill:#33302E;}
	.st43{fill:#3A3733;}
	.st44{opacity:0.72;}
	.st45{fill:#23211F;}
	.st46{fill:#EDD098;}
	.st47{fill:#FFE8B4;}
	.st48{fill:#DDB566;}
	.st49{fill:#9E815F;}
	.st50{fill:none;}
	.st51{fill:none;stroke:#15ED0A;stroke-miterlimit:10;}
	.st52{fill:none;stroke:#15ED0A;}
</style>
<g id="Layer_1" class="st0">
</g>
<g id="Layer_2">
	<g>
		<g id="Rectangle_332_00000127756393873963747370000005813373924494726562_">
			<rect class="st3" width="631" height="604"/>
			<rect x="0.5" y="0.5" class="st3" width="630" height="603"/>
		</g>
		<g>
			<g>
				<g>
					<rect x="177.3" y="172.1" class="st12" width="60.9" height="14.5"/>
					<rect x="184.9" y="164" class="st13" width="45.7" height="8.3"/>
				</g>
				<path class="st13" d="M445.1,172.9c0,0-0.9-6.8,5.1-6.8s50,0,50,0s4.5,0.8,4.3,3.4c-0.2,2.6,0,18.3,0,18.3l-59.4-1.2V172.9z"/>
				<path class="st13" d="M115.9,177.4c0,0-0.7-10.4,4.4-10.4c5.2,0,43.4,0,43.4,0s3.9,1.3,3.7,5.2c-0.1,3.9,0,28,0,28l-51.5-1.8
					V177.4z"/>
				<path class="st14" d="M525.7,433.6H104.8c-4.7,0-8.5-3.8-8.5-8.5V193.8c0-4.7,3.8-8.5,8.5-8.5h420.9c4.7,0,8.5,3.8,8.5,8.5
					v231.3C534.2,429.8,530.4,433.6,525.7,433.6z"/>
				<rect x="96.3" y="238.7" class="st15" width="437.8" height="175.7"/>
				<path class="st14" d="M244.6,185.3l8.5-29c0,0-0.4-14.1,14.5-14.1s95,0,95,0s11.5-2.6,14.9,9.8c3.4,12.4,8.9,33.3,8.9,33.3
					H244.6z"/>
				<path class="st13" d="M359.1,183.6h-87.2c-1.4,0-2.6-1.2-2.6-2.6v-23.8c0-1.4,1.2-2.6,2.6-2.6h87.2c1.4,0,2.6,1.2,2.6,2.6V181
					C361.7,182.5,360.5,183.6,359.1,183.6z"/>
				<rect x="97.2" y="202" class="st13" width="436.1" height="36.7"/>
				<ellipse class="st11" cx="464.7" cy="220.3" rx="10.2" ry="10.2"/>
				<ellipse class="st12" cx="315.7" cy="336.5" rx="112" ry="106"/>
				<ellipse class="st15" cx="315.7" cy="336.5" rx="100.1" ry="96"/>
				<ellipse class="st12" cx="315.7" cy="336.6" rx="70.3" ry="68"/>
				<ellipse class="st16" cx="315.5" cy="336.6" rx="60.3" ry="59.1"/>
				<ellipse class="st17" cx="294" cy="315.4" rx="17" ry="15.4"/>
			</g>
		</g>
	</g>
</g>
</svg>
