<?xml version="1.0" encoding="utf-8"?>
<!-- Generator: Adobe Illustrator 26.3.1, SVG Export Plug-In . SVG Version: 6.00 Build 0)  -->
<svg version="1.1" xmlns="http://www.w3.org/2000/svg" xmlns:xlink="http://www.w3.org/1999/xlink" x="0px" y="0px"
	 viewBox="0 0 631 405" style="enable-background:new 0 0 631 405;" xml:space="preserve">
<style type="text/css">
	.st0{display:none;}
	.st1{fill:#4E402B;}
	.st2{fill:#AA410A;}
	.st3{fill:#BC6F27;}
	.st4{fill:#B6D1DA;}
	.st5{fill:#BAB5A8;}
	.st6{fill:#D3B363;}
	.st7{fill:#B51E00;}
	.st8{fill:#7C1605;}
	.st9{fill:#911805;}
	.st10{opacity:7.000000e-02;}
	.st11{fill:#F2583E;}
	.st12{fill:#606060;}
	.st13{fill:#F2F2F4;}
	.st14{fill:#DEDEE0;}
	.st15{fill:#383838;}
	.st16{fill:#9DD2D8;}
	.st17{fill:#D2E3F4;}
	.st18{fill:#FF7B00;}
	.st19{opacity:0.65;}
	.st20{fill:#DD5B03;}
	.st21{opacity:0.64;}
	.st22{fill:#3F3F3F;}
	.st23{fill:#333333;}
	.st24{fill:#504B3F;}
	.st25{fill:#3A3730;}
	.st26{fill:#FFC600;}
	.st27{fill:#1C262F;}
	.st28{fill:#F0F0F0;}
	.st29{fill:#DFE3E4;}
	.st30{opacity:0.68;fill:#4C4C4C;}
	.st31{fill:#FFCB00;}
	.st32{fill:#262122;}
	.st33{opacity:0.96;fill:#BA4F41;}
	.st34{opacity:0.24;fill:#FFFFFF;}
	.st35{fill:#3A3A3A;}
	.st36{fill:#FEEAD1;}
	.st37{fill:#315154;}
	.st38{fill:#F46756;}
	.st39{opacity:4.000000e-02;fill:#603813;}
	.st40{fill:#5C7584;}
	.st41{fill:#C19E61;}
	.st42{fill:#33302E;}
	.st43{fill:#3A3733;}
	.st44{opacity:0.72;}
	.st45{fill:#23211F;}
	.st46{fill:#EDD098;}
	.st47{fill:#FFE8B4;}
	.st48{fill:#DDB566;}
	.st49{fill:#9E815F;}
	.st50{fill:none;}
	.st51{fill:none;stroke:#15ED0A;stroke-miterlimit:10;}
	.st52{fill:none;stroke:#15ED0A;}
</style>
<g id="Layer_1" class="st0">
</g>
<g id="Layer_2">
	<g>
		<g id="Rectangle_330_00000048501463130290616730000011422360263535284105_" transform="translate(632 808)">
			<rect x="-632" y="-808" class="st6" width="631" height="405"/>
			<rect x="-631.5" y="-807.7" class="st6" width="630" height="404.4"/>
		</g>
		<g>
			<g>
				<g>
					<path class="st27" d="M233.9,141.5h-191c-1.6,0-2.9,1.3-2.9,2.9v123.7h2.6v3.5h5.9v3.1h177.9v-6.5h10.4V144.4
						C236.8,142.8,235.5,141.5,233.9,141.5z"/>
					<path class="st28" d="M40,261v8.7c0,2.7,2.2,5,4.9,5h186.9c2.7,0,4.9-2.2,4.9-5V261H40z"/>
					<ellipse class="st27" cx="138.7" cy="267.8" rx="4.9" ry="4.9"/>
					<polygon class="st28" points="120.9,274.6 116.7,295.5 109.9,300.3 109.9,302.3 167.2,302.3 167.2,300.4 159.4,295.1 
						155.1,274.6 					"/>
					<polygon class="st29" points="109.9,300.4 109.9,302.3 167.2,302.3 167.2,300.4 167.1,300.3 					"/>
					<polygon class="st29" points="156.5,281.1 155.1,274.6 120.9,274.6 119.6,281.1 					"/>
					<polygon class="st30" points="87.4,147.7 47.1,147.7 47.1,253.5 197.2,253.5 					"/>
					<g>
						<ellipse class="st31" cx="138.6" cy="203.7" rx="33.5" ry="34.5"/>
						<ellipse class="st32" cx="127.3" cy="197.5" rx="4.1" ry="8.1"/>
						<ellipse class="st32" cx="150.3" cy="197.5" rx="4.1" ry="8.1"/>
						<path class="st32" d="M119.6,186.3c0,0,7.6-3.3,12.5-7C132.1,179.3,129.8,186.9,119.6,186.3z"/>
						<path class="st32" d="M157.2,186.3c0,0-7.6-3.3-12.5-7C144.7,179.3,147,186.9,157.2,186.3z"/>
						<path class="st32" d="M125.5,222.9h26.4c0,0-1.4-10.1-12.1-10.7S125.1,221.2,125.5,222.9z"/>
						<path class="st33" d="M125.5,222.8C125.5,222.9,125.5,222.9,125.5,222.8l26.4,0c0,0,0,0,0-0.1c-1.7-2.9-5.2-6.2-12-6.6
							C132.2,215.8,127.7,219.6,125.5,222.8z"/>
					</g>
					<polygon class="st34" points="197.2,253.5 231.9,253.5 231.9,147.7 87.4,147.7 					"/>
				</g>
				<g>
					<path class="st27" d="M574,274.9v-5.6h8V144c0-1.6-1.3-2.9-2.9-2.9H387.8c-1.6,0-2.9,1.3-2.9,2.9v121.6h9.2v9.4H574z"/>
					<path class="st28" d="M384.9,261.2v8.7c0,2.8,2.2,5,4.9,5H577c2.7,0,4.9-2.2,4.9-5v-8.7H384.9z"/>
					<ellipse class="st27" cx="483.7" cy="268.1" rx="4.9" ry="4.9"/>
					<polygon class="st28" points="465.9,274.9 461.7,295.9 454.9,300.8 454.9,302.8 512.3,302.8 512.3,300.8 504.5,295.6 
						500.1,274.9 					"/>
					<polygon class="st29" points="454.9,300.8 454.9,302.8 512.3,302.8 512.3,300.8 512.2,300.8 					"/>
					<polygon class="st29" points="501.5,281.5 500.1,274.9 465.9,274.9 464.6,281.5 					"/>
					<polygon class="st30" points="432.4,147.3 392,147.3 392,253.6 542.3,253.6 					"/>
					<g>
						<ellipse class="st31" cx="488.5" cy="200.4" rx="33.5" ry="34.7"/>
						<ellipse class="st32" cx="477.3" cy="194.2" rx="4.1" ry="8.2"/>
						<ellipse class="st32" cx="500.3" cy="194.2" rx="4.1" ry="8.2"/>
						<path class="st32" d="M503.3,210.3h-29.6c0,0,1.6,11.4,13.6,12.1S503.7,212.1,503.3,210.3z"/>
						<path class="st33" d="M499.6,217.7c-3.4-0.4-7.1-0.8-11.1-0.9c-4.2-0.1-8.2,0-11.7,0.3c2,2.6,5.3,4.9,10.5,5.3
							C493.1,222.7,497.1,220.4,499.6,217.7z"/>
					</g>
					<polygon class="st34" points="542.3,253.6 577.1,253.6 577.1,147.3 432.4,147.3 					"/>
				</g>
			</g>
			<g>
				<polygon class="st35" points="285.8,216 323.8,216 323.8,211.4 336.1,218.1 285.8,218.1 				"/>
				<polygon class="st35" points="285.8,220.2 323.8,220.2 323.8,224.8 336.1,218.1 285.8,218.1 				"/>
			</g>
		</g>
	</g>
</g>
</svg>
