<?xml version="1.0" encoding="utf-8"?>
<!-- Generator: Adobe Illustrator 26.3.1, SVG Export Plug-In . SVG Version: 6.00 Build 0)  -->
<svg version="1.1" xmlns="http://www.w3.org/2000/svg" xmlns:xlink="http://www.w3.org/1999/xlink" x="0px" y="0px"
	 viewBox="0 0 631 820.2" style="enable-background:new 0 0 631 820.2;" xml:space="preserve">
<style type="text/css">
	.st0{display:none;}
	.st1{fill:#4E402B;}
	.st2{fill:#AA410A;}
	.st3{fill:#BC6F27;}
	.st4{fill:#B6D1DA;}
	.st5{fill:#BAB5A8;}
	.st6{fill:#D3B363;}
	.st7{fill:#B51E00;}
	.st8{fill:#7C1605;}
	.st9{fill:#911805;}
	.st10{opacity:7.000000e-02;}
	.st11{fill:#F2583E;}
	.st12{fill:#606060;}
	.st13{fill:#F2F2F4;}
	.st14{fill:#DEDEE0;}
	.st15{fill:#383838;}
	.st16{fill:#9DD2D8;}
	.st17{fill:#D2E3F4;}
	.st18{fill:#FF7B00;}
	.st19{opacity:0.65;}
	.st20{fill:#DD5B03;}
	.st21{opacity:0.64;}
	.st22{fill:#3F3F3F;}
	.st23{fill:#333333;}
	.st24{fill:#504B3F;}
	.st25{fill:#3A3730;}
	.st26{fill:#FFC600;}
	.st27{fill:#1C262F;}
	.st28{fill:#F0F0F0;}
	.st29{fill:#DFE3E4;}
	.st30{opacity:0.68;fill:#4C4C4C;}
	.st31{fill:#FFCB00;}
	.st32{fill:#262122;}
	.st33{opacity:0.96;fill:#BA4F41;}
	.st34{opacity:0.24;fill:#FFFFFF;}
	.st35{fill:#3A3A3A;}
	.st36{fill:#FEEAD1;}
	.st37{fill:#315154;}
	.st38{fill:#F46756;}
	.st39{opacity:4.000000e-02;fill:#603813;}
	.st40{fill:#5C7584;}
	.st41{fill:#C19E61;}
	.st42{fill:#33302E;}
	.st43{fill:#3A3733;}
	.st44{opacity:0.72;}
	.st45{fill:#23211F;}
	.st46{fill:#EDD098;}
	.st47{fill:#FFE8B4;}
	.st48{fill:#DDB566;}
	.st49{fill:#9E815F;}
	.st50{fill:none;}
	.st51{fill:none;stroke:#15ED0A;stroke-miterlimit:10;}
	.st52{fill:none;stroke:#15ED0A;}
</style>
<g id="Layer_1" class="st0">
</g>
<g id="Layer_2">
	<g>
		<g id="Rectangle_334_00000177448189440433562830000013248843221917181843_" transform="translate(632)">
			<rect x="-632" y="0" class="st4" width="631" height="820"/>
			<rect x="-631.5" y="0.5" class="st4" width="630" height="819"/>
		</g>
		<g>
			<path class="st18" d="M273.9,294.9h88.8c0,0,7.5,1.3,27-13.6s18.2-13.6,31.2-13.6s20.8,0.6,44.9,8.4s42.9,38.8,42.9,38.8
				s31.9,83.5,59.8,209.6c0,0,9.1,28.5-18.9,47.9c0,0-25.4,13.6-43.6-12.9c-18.2-26.5-41-44.6-74.8-55.6
				c-33.8-11-214.2-9.9-243.9,9.1c-9.1,5.8-24.7,14.2-61.1,53.7c0,0-18.9,16.8-41.6,2.6s-15-40.8-15-40.8s15.6-75.7,31.2-123.6
				s31.2-91.9,31.2-91.9s6.5-18.8,35.8-34.3c29.3-15.5,58.4-11,58.4-11s7.3,0.7,16.4,7.8C251.8,282.7,266.1,294.9,273.9,294.9z"/>
			<g class="st19">
				<path class="st20" d="M568.5,525.3c-28-126.1-59.8-209.6-59.8-209.6s-1.5-2.5-4.3-6.3c5.5,22.6,23.4,100.6,35.4,208
					c0,0,6,29.3-23.9,45.6c0,0-2.5,1-6.5,1.6c17.8,20.5,40.2,8.5,40.2,8.5C577.6,553.7,568.5,525.3,568.5,525.3z"/>
			</g>
			<g class="st21">
				<path class="st20" d="M113,553.5c-23.9-12.3-18.4-39.3-18.4-39.3s9.1-76.7,20.6-125.7c7.4-31.7,15-61.8,19.4-79.1
					c-1.8,3.1-2.5,5-2.5,5s-15.6,44-31.2,91.9S69.7,529.8,69.7,529.8s-7.8,26.5,15,40.8c22.8,14.2,41.6-2.6,41.6-2.6
					c3.6-4,7.1-7.6,10.3-10.9C130,558.4,122,558.1,113,553.5z"/>
			</g>
			<path class="st22" d="M509.9,562.2c-18.6-36.4-41.8-61.2-76.3-76.3c-34.5-15.1-218.7-13.6-248.9,12.4c-9.1,7.8-24.5,19-60,70.3
				c1.1-0.8,1.7-1.3,1.7-1.3c36.4-39.5,52-47.9,61.1-53.7c29.7-19,210.1-20.1,243.9-9.1s56.6,29.1,74.8,55.6
				c2.5,3.6,5.1,6.5,7.8,8.7C512.5,566.9,511.2,564.7,509.9,562.2z"/>
			<path class="st22" d="M156.2,303.4c31.5-15.5,62.8-11,62.8-11s7.9,0.7,17.7,7.8c9.8,7.1,25.2,19.4,33.6,19.4h95.5
				c0,0,8.1,1.3,29.1-13.6c21-14.9,19.6-13.6,33.6-13.6c14,0,22.4,0.6,48.3,8.4c14.6,4.4,27.5,16.2,35.9,25.7
				c-2.7-7.5-4.2-11.5-4.2-11.5s-18.9-31.1-42.9-38.8c-24.1-7.8-31.9-8.4-44.9-8.4s-11.7-1.3-31.2,13.6c-19.5,14.9-27,13.6-27,13.6
				h-88.8c-7.8,0-22.1-12.3-31.2-19.4c-9.1-7.1-16.4-7.8-16.4-7.8s-29.1-4.5-58.4,11c-29.3,15.5-35.8,34.3-35.8,34.3
				s-1.2,3.5-3.3,9.5C134.5,316.6,143.3,309.7,156.2,303.4z"/>
			<path class="st23" d="M357.8,294.9c-0.2,0-0.3,0-0.5,0c-0.3,0-0.6,0-0.9,0c-0.3,0-0.6,0-0.9,0c-0.4,0-0.9,0-1.3-0.1
				c-0.2,0-0.3,0-0.5,0c-0.3,0-0.6,0-0.8,0c-0.3,0-0.6,0-0.9,0c-0.4,0-0.8,0-1.2-0.1h-18.7v-0.1l-50.1,0.3l-3.6,24.6H363
				L357.8,294.9z"/>
			<ellipse class="st24" cx="198.1" cy="369.3" rx="36.1" ry="33.6"/>
			<ellipse class="st24" cx="258" cy="431.4" rx="36.1" ry="33.6"/>
			<ellipse class="st24" cx="388.7" cy="431.4" rx="36.1" ry="33.6"/>
			<ellipse class="st25" cx="388.9" cy="429.7" rx="25.5" ry="23.8"/>
			<ellipse class="st26" cx="198.8" cy="369.7" rx="26" ry="24.3"/>
			<path class="st26" d="M247.9,419.2v-11.6c0,0-0.7-5.8,3.9-5.8s13.2,0,13.2,0s3.7,0,3.7,4.5s0,12.9,0,12.9h14.4
				c0,0,3.2,0.7,3.2,3.9s0,14.5,0,14.5s-0.7,2.9-3.3,2.9c-2.6,0-13.6,0-13.6,0l-0.1,13.6c0,0,0,3.2-3.3,3.2s-14.9,0-14.9,0
				s-3.3,0.6-3.3-2.9s0-13.5,0-13.5l-13-0.4c0,0-4.6,0.6-4.6-3.9c0-4.5,0-13.3,0-13.3s-0.7-4.2,3.9-4.2S247.9,419.2,247.9,419.2z"/>
			<ellipse class="st24" cx="409.8" cy="355.1" rx="14.3" ry="14.2"/>
			<ellipse class="st24" cx="445.6" cy="383.6" rx="14.3" ry="14.2"/>
			<ellipse class="st24" cx="480" cy="355.1" rx="14.3" ry="14.2"/>
			<ellipse class="st24" cx="445.6" cy="323.4" rx="14.3" ry="14.2"/>
			<ellipse class="st24" cx="286.9" cy="363.5" rx="14.3" ry="14.2"/>
			<ellipse class="st24" cx="355.2" cy="363.5" rx="14.3" ry="14.2"/>
			<ellipse class="st26" cx="447.5" cy="321.5" rx="9.8" ry="9.7"/>
			<ellipse class="st26" cx="445.6" cy="383.6" rx="9.8" ry="9.7"/>
			<ellipse class="st26" cx="411.8" cy="355.1" rx="9.8" ry="9.7"/>
			<ellipse class="st26" cx="478.1" cy="355.1" rx="9.8" ry="9.7"/>
		</g>
	</g>
</g>
</svg>
