<?xml version="1.0" encoding="utf-8"?>
<!-- Generator: Adobe Illustrator 26.3.1, SVG Export Plug-In . SVG Version: 6.00 Build 0)  -->
<svg version="1.1" xmlns="http://www.w3.org/2000/svg" xmlns:xlink="http://www.w3.org/1999/xlink" x="0px" y="0px"
	 viewBox="0 0 631 810" style="enable-background:new 0 0 631 810;" xml:space="preserve">
<style type="text/css">
	.st0{display:none;}
	.st1{fill:#4E402B;}
	.st2{fill:#AA410A;}
	.st3{fill:#BC6F27;}
	.st4{fill:#B6D1DA;}
	.st5{fill:#BAB5A8;}
	.st6{fill:#D3B363;}
	.st7{fill:#B51E00;}
	.st8{fill:#7C1605;}
	.st9{fill:#911805;}
	.st10{opacity:7.000000e-02;}
	.st11{fill:#F2583E;}
	.st12{fill:#606060;}
	.st13{fill:#F2F2F4;}
	.st14{fill:#DEDEE0;}
	.st15{fill:#383838;}
	.st16{fill:#9DD2D8;}
	.st17{fill:#D2E3F4;}
	.st18{fill:#FF7B00;}
	.st19{opacity:0.65;}
	.st20{fill:#DD5B03;}
	.st21{opacity:0.64;}
	.st22{fill:#3F3F3F;}
	.st23{fill:#333333;}
	.st24{fill:#504B3F;}
	.st25{fill:#3A3730;}
	.st26{fill:#FFC600;}
	.st27{fill:#1C262F;}
	.st28{fill:#F0F0F0;}
	.st29{fill:#DFE3E4;}
	.st30{opacity:0.68;fill:#4C4C4C;}
	.st31{fill:#FFCB00;}
	.st32{fill:#262122;}
	.st33{opacity:0.96;fill:#BA4F41;}
	.st34{opacity:0.24;fill:#FFFFFF;}
	.st35{fill:#3A3A3A;}
	.st36{fill:#FEEAD1;}
	.st37{fill:#315154;}
	.st38{fill:#F46756;}
	.st39{opacity:4.000000e-02;fill:#603813;}
	.st40{fill:#5C7584;}
	.st41{fill:#C19E61;}
	.st42{fill:#33302E;}
	.st43{fill:#3A3733;}
	.st44{opacity:0.72;}
	.st45{fill:#23211F;}
	.st46{fill:#EDD098;}
	.st47{fill:#FFE8B4;}
	.st48{fill:#DDB566;}
	.st49{fill:#9E815F;}
	.st50{fill:none;}
	.st51{fill:none;stroke:#15ED0A;stroke-miterlimit:10;}
	.st52{fill:none;stroke:#15ED0A;}
</style>
<g id="Layer_1" class="st0">
</g>
<g id="Layer_2">
	<g>
		<g id="Rectangle_333_00000148644551945304382200000016553016369158909601_" transform="translate(0 604)">
			<rect x="0" y="-604" class="st5" width="632" height="810"/>
			<rect x="0.5" y="-603.5" class="st5" width="631" height="809"/>
		</g>
		<g>
			<g>
				<path class="st7" d="M151,247.5L54.9,388.3l85.3,72.2l39.7-55.1l-5.9,271.8h270.4l-5.9-269.7l43.3,54.9l85.5-73L465,247.5
					l-88.1-36.4c0,0-67.8,20.3-131.5,0L151,247.5z"/>
				<polygon class="st8" points="174.6,659.4 444.1,659.4 444.3,677.1 174.6,677.1 				"/>
				<path class="st8" d="M559.2,377.5L474,452.4l7.4,10.2l86.5-73.4C567.9,389.2,560.5,379.4,559.2,377.5z"/>
				<path class="st8" d="M63.1,375.8l84.2,74.9l-7.3,10.2l-85.5-73.4C54.4,387.6,61.7,377.7,63.1,375.8z"/>
				<path class="st9" d="M244.9,211.1c0,0,63,17.1,132.4,0c0,0,0.1,56.2-61,59.4C255.1,273.8,244.9,211.1,244.9,211.1z"/>
				<path class="st8" d="M375.7,223c1.6-7,1.5-11.9,1.5-11.9c-69.4,17.1-132.4,0-132.4,0s0.8,5.1,3.5,12.4
					C262.3,226.7,316.5,237.2,375.7,223z"/>
				<path class="st8" d="M376.4,210.9c-2.5,17.4-13.4,55.6-61.3,58.4c-48.3,2.8-65.3-39.1-70.5-58c-2.6,1-5.3,2-8.1,2.5
					c5.4,20.9,24,70.9,78.7,67.6c54.1-3.2,65.7-48.3,68.3-67.8C381.2,212.6,378.9,211.5,376.4,210.9z"/>
				<g class="st10">
					<path d="M566.7,389.3L464.3,247.5l-88.1-36.4c0,0-25.5,7.6-59.9,8.9v457.2h127.5l-5.9-269.7l43.3,54.9L566.7,389.3z"/>
					<polygon points="316.3,677.1 443.6,677.1 443.4,659.4 316.3,659.4 					"/>
					<path d="M558.5,377.5l-85.2,74.9l7.4,10.2l86.5-73.4C567.2,389.2,559.9,379.4,558.5,377.5z"/>
					<path d="M316.3,218.7v51.8c60.4-3.6,60.3-59.4,60.3-59.4C355.4,216.4,334.7,218.4,316.3,218.7z"/>
					<path d="M316.3,218.7v11.5c18-0.3,38.1-2.2,58.7-7.2c1.6-7,1.5-11.9,1.5-11.9C355.4,216.4,334.7,218.4,316.3,218.7z"/>
					<path d="M375.7,210.9c-2.4,17.1-13.1,54.6-59.4,58.3v12.1c52.6-4.1,64.1-48.4,66.6-67.6C380.5,212.6,378.2,211.5,375.7,210.9z"
						/>
				</g>
			</g>
		</g>
	</g>
</g>
</svg>
