<?xml version="1.0" encoding="utf-8"?>
<!-- Generator: Adobe Illustrator 26.3.1, SVG Export Plug-In . SVG Version: 6.00 Build 0)  -->
<svg version="1.1" xmlns="http://www.w3.org/2000/svg" xmlns:xlink="http://www.w3.org/1999/xlink" x="0px" y="0px"
	 viewBox="0 0 1920 737" style="enable-background:new 0 0 1920 737;" xml:space="preserve">
<style type="text/css">
	.st0{fill:#E2D8C7;}
	.st1{fill:#D9B154;}
	.st2{fill:#B6D1DA;}
	.st3{fill:#BC6F27;}
	.st4{fill:#BAB5A8;}
	.st5{fill:#AA410B;}
	.st6{fill:#FFFFFF;}
</style>
<g id="Layer_3">
	<rect class="st0" width="1920" height="736.3"/>
</g>
<g id="Layer_2">
	<path class="st1" d="M444.1,736.3c-14.7-22.9-49.9-33.4-68.8-56c-20.1-23.9-19.5-58.8-13.2-89.4s17.3-61,14.4-92
		c-0.9-9.2-3-18.4-7.3-26.6c-7.9-14.7-22.3-24.7-37.1-32.5c-52.7-27.5-115.6-32-166.6-62.6c-39.9-24-69.9-62.4-111-84.2
		c-12.6-6.7-34.2-15.3-55.7-19.3v462.6H444.1z"/>
	<path class="st2" d="M815.4,60.8c-13-17.8-10-40.1-1.7-61.5H427.9c-18.4,31.7-45.9,58.9-72.7,84.6
		c-37.2,35.9-74.5,71.8-111.7,107.7c-3.3,3.1-6.7,6.5-7.7,10.9c-1,3.9,0.1,8.1,1.4,11.9c15.1,43,63.4,62.1,102.5,85.5
		c98,58.7,157.4,168.1,255.4,226.7c6.8,4.1,14.2,8,22.1,8.2c8.3,0.2,16.2-3.7,23.6-7.5c28.1-14.4,56.1-28.8,84.2-43.3
		c29.1-14.9,59.2-30.8,78.5-57.2c13-17.9,20.1-39.3,26.9-60.4c20.4-62.8,40.8-125.6,61.2-188.4c6.8-20.9,13.3-44.7,2.3-63.7
		C877.7,86.5,834.4,86.7,815.4,60.8z"/>
	<path class="st3" d="M961.7,736.3h704.1c-5.8-26.6-17.3-50.6-41.4-60.6c-21.7-9-50.3-4.3-65.6-22.1c-18.6-21.6-4.2-62.7-28-78.3
		c-6.3-4.1-14-5.3-21.5-6.3c-37.8-4.9-76-6.5-114-4.8c-20.3,0.9-41.2,2.6-60.5-3.7c-13.6-4.4-25.6-12.6-38.8-18.2
		c-35.5-14.9-79-8.3-108.5,16.3c-31.6,26.4-48.6,71.4-87.5,85c-39.1,13.6-88-10.2-121.1,14.6c-20.7,15.5-26,45.5-19.4,70.6
		C960.1,731.3,960.9,733.8,961.7,736.3z"/>
	<path class="st4" d="M1215.1,453.8c6.7,7.7,14,15.2,21.9,20c7.6,4.6,15.1,6.3,22.4,7.9c27.1,6.1,54.6,12.3,78.9,10.5
		c23.2-1.7,42.7-10.5,62-19.3c26.9-12.2,53.9-24.5,80.8-36.7c14.5-6.6,29.5-13.7,36.2-29.2c7.8-18.1,2.8-45.4-7.3-71.6
		c-10.2-26.2-25.2-52.1-38.8-78.1c-20.6-39.3-38.2-79.2-52.4-118.8c-7.5-20.9-15.6-44.2-33.1-60.2c-14.7-13.5-31.4-17.4-46.6-20.5
		c-30-6.1-60.9-11.8-84.3-3.2c-12,4.4-21.6,12.5-32.4,18.7c-24.4,13.9-55.3,18.2-79.7,32.2s-42.4,41.5-32.6,80.7
		c6.8,27.3,26.2,53.2,36,80.2c7.6,20.8,4,32,5.9,51.3C1156.2,361.4,1179.6,413,1215.1,453.8z"/>
	<path class="st5" d="M1679.5-0.8c2.5,33.1,15.4,72.8,25.9,90.8c8.7,15,22,26.8,32.7,40.6c28.6,37.1,36.2,89.4,19.2,133
		c-10.4,26.7-28.9,49.5-41.2,75.4c-12.2,25.9-17.3,58.6-0.8,82.1c15.1,21.4,43.4,28.8,69.5,30.6c26.1,1.8,53.2-0.2,77.8,8.8
		c10.1,3.7,19.8,9.2,30.5,9.8c9.9,0.5,19.2-3.4,27-9.5V-0.8H1679.5z"/>
</g>
<g id="Layer_1">
	<g id="Layer_4">
	</g>
	<g>
		<path class="st6" d="M578.6,403.2l-31.2-104.7c-0.8-2.7-1.7-4.7-2.6-5.9c-0.9-1.2-2.6-2.4-4.9-3.4l-2.1-0.9v-1.8h46.6v1.8
			l-3.7,1.4c-2.7,1.1-4.5,2.3-5.5,3.9c-0.9,1.5-1,3.6-0.2,6.3l19.2,73.2l20.8-61.4l-4-12.5c-0.8-2.5-1.6-4.3-2.3-5.6
			c-0.7-1.3-1.9-2.3-3.5-3.2l-3.9-2.1v-1.8h44.2v1.8l-5.5,2.1c-2.3,0.8-3.7,2-4,3.6c-0.3,1.6,0,3.6,0.8,6.1l22.4,74.8l21.1-73.4
			c0.8-2.8,1.1-5.3,0.9-7.4c-0.2-2.1-1.7-3.6-4.4-4.6l-3.7-1.2v-1.8h24.5v1.8l-4.6,1.8c-2.3,0.8-4,2.1-4.9,3.9
			c-0.9,1.8-1.8,3.9-2.5,6.5l-29.2,102.8h-12.1l-26.4-82.7l-27.1,82.7H578.6z"/>
		<path class="st6" d="M730,315.4c7.6,0,14.1,1.6,19.5,4.7c5.4,3.1,9.5,7.3,12.4,12.7c2.9,5.3,4.3,11.4,4.3,18.2
			c0,1.3-0.1,2.6-0.2,4c-0.1,1.4-0.4,2.6-0.7,3.6h-52.4c0.1,12.7,2.4,21.8,6.8,27.4c4.4,5.6,10.9,8.4,19.6,8.4
			c5.9,0,10.6-0.9,14.3-2.8c3.6-1.9,7-4.6,10.2-8.3l1.8,1.6c-3.6,6.5-8.5,11.5-14.5,15.1c-6,3.6-13.3,5.5-21.7,5.5
			c-8.3,0-15.7-1.8-22.2-5.4c-6.5-3.6-11.5-8.7-15.1-15.4c-3.6-6.7-5.5-14.7-5.5-23.9c0-9.6,2.1-17.8,6.3-24.6
			c4.2-6.7,9.6-11.9,16.3-15.4C715.7,317.2,722.7,315.4,730,315.4z M729.4,318.9c-3.4,0-6.3,1-8.7,3.1c-2.4,2.1-4.3,5.7-5.6,10.9
			c-1.4,5.2-2.1,12.6-2.2,22.1H743c1.2-12.8,0.7-22-1.4-27.6C739.5,321.8,735.4,318.9,729.4,318.9z"/>
		<path class="st6" d="M802.3,405l-29.7-2.3V401l1.8-0.4c4.6-1.1,6.9-4,6.9-8.8v-94.2c0-2.5-0.4-4.3-1.1-5.6
			c-0.8-1.3-2.3-2.2-4.7-2.6l-2.5-0.7v-1.8l31.3-7.6l2.1,1.6l-0.7,24.8v17.8c3.9-2.7,8.1-4.7,12.7-6.1c4.6-1.3,9.2-2,13.9-2
			c6.7,0,12.6,1.6,17.8,4.7c5.2,3.1,9.2,7.9,12.2,14.4c3,6.5,4.5,14.9,4.5,25.1s-1.7,18.7-5,25.4c-3.3,6.7-7.8,11.8-13.4,15.2
			c-5.6,3.4-11.7,5.1-18.4,5.1c-4.3,0-8.7-0.6-13.1-1.8c-4.4-1.2-8.3-2.8-11.7-4.9L802.3,405z M821.1,399.4c3.8,0,7-1.2,9.9-3.5
			c2.8-2.3,5-6.4,6.7-12.1c1.6-5.7,2.5-13.5,2.5-23.5c0-10-0.8-17.7-2.3-23.1c-1.5-5.4-3.7-9.2-6.4-11.3c-2.8-2.1-6.1-3.2-9.9-3.2
			c-5.5,0-10.6,1.5-15.3,4.6V395c2.2,1.4,4.5,2.5,6.9,3.3C815.4,399,818.1,399.4,821.1,399.4z"/>
		<path class="st6" d="M912.8,405.4c-6.9,0-13.1-1.6-18.7-4.7c-5.5-3.1-9.9-7.9-13.1-14.4c-3.2-6.5-4.8-14.9-4.8-25.1
			c0-10.3,1.8-18.9,5.5-25.6c3.6-6.7,8.4-11.8,14.4-15.1c6-3.3,12.5-5,19.5-5c4.1,0,8,0.4,11.8,1.2c3.8,0.8,7.1,2.1,10,3.7v-22.9
			c0-2.5-0.4-4.3-1.1-5.5c-0.8-1.2-2.4-2-4.8-2.5l-3.3-0.7v-1.8l32-7.7l1.9,1.6l-0.7,24.6v86.1c0,2.3,0.4,4.3,1.2,5.7
			c0.8,1.5,2.3,2.5,4.6,3.1l1.6,0.5v1.8l-30.1,1.9l-1.6-6.3c-3.2,2.1-6.8,3.8-10.8,5.1C922.3,404.7,917.8,405.4,912.8,405.4z
			 M923,398.8c4.9,0,9.4-1.5,13.6-4.4v-69.9c-4.3-2.8-8.8-4.2-13.4-4.2c-5.6,0-10.4,3.3-14.4,9.8c-4,6.5-6,16.8-6,30.7
			c0,14,1.9,23.8,5.6,29.5C912.2,396,917.1,398.8,923,398.8z"/>
		<path class="st6" d="M1020.7,315.4c7.6,0,14.1,1.6,19.5,4.7c5.4,3.1,9.5,7.3,12.4,12.7c2.9,5.3,4.3,11.4,4.3,18.2
			c0,1.3-0.1,2.6-0.2,4c-0.1,1.4-0.4,2.6-0.7,3.6h-52.4c0.1,12.7,2.4,21.8,6.8,27.4c4.4,5.6,10.9,8.4,19.6,8.4
			c5.9,0,10.6-0.9,14.3-2.8c3.6-1.9,7-4.6,10.2-8.3l1.8,1.6c-3.6,6.5-8.5,11.5-14.5,15.1c-6,3.6-13.3,5.5-21.7,5.5
			c-8.3,0-15.7-1.8-22.2-5.4c-6.5-3.6-11.5-8.7-15.1-15.4c-3.6-6.7-5.5-14.7-5.5-23.9c0-9.6,2.1-17.8,6.3-24.6
			c4.2-6.7,9.7-11.9,16.3-15.4C1006.5,317.2,1013.4,315.4,1020.7,315.4z M1020.2,318.9c-3.4,0-6.3,1-8.7,3.1
			c-2.4,2.1-4.3,5.7-5.6,10.9c-1.4,5.2-2.1,12.6-2.2,22.1h30.1c1.2-12.8,0.7-22-1.4-27.6C1030.2,321.8,1026.2,318.9,1020.2,318.9z"
			/>
		<path class="st6" d="M1096.2,405.4c-5.8,0-10.9-0.7-15.5-2c-4.6-1.3-8.8-3-12.7-5l0.2-20.9h1.8l6,10.6c2.6,4.7,5.4,8.2,8.5,10.5
			c3.1,2.3,7.1,3.4,11.9,3.4c5.6,0,10.2-1.3,13.6-3.8c3.5-2.5,5.2-5.9,5.2-10.1c0-3.9-1.2-7-3.7-9.5s-7-4.7-13.7-6.7l-7.4-2.3
			c-7.2-2.1-12.8-5.4-16.9-9.9c-4.1-4.5-6.2-9.9-6.2-16.4c0-7.7,3-14.3,9.2-19.7c6.1-5.4,14.8-8.1,26.2-8.1c4.6,0,8.9,0.5,12.9,1.5
			c4,1,7.9,2.5,11.7,4.5l-1.1,19h-1.8l-6.2-10.9c-2.2-3.9-4.4-6.6-6.6-8.2c-2.2-1.6-5.4-2.4-9.8-2.4c-4,0-7.7,1.1-11.3,3.3
			c-3.5,2.2-5.3,5.4-5.3,9.5c0,4,1.5,7.2,4.5,9.5c3,2.3,7.4,4.5,13.3,6.5l7.9,2.3c8.4,2.6,14.5,6.1,18.1,10.6
			c3.6,4.5,5.5,9.9,5.5,16.3c0,8.6-3.4,15.4-10.1,20.6C1117.9,402.8,1108.4,405.4,1096.2,405.4z"/>
		<path class="st6" d="M1142.3,402.7V401l2.5-0.7c2.3-0.7,4-1.8,4.8-3.2c0.9-1.4,1.3-3.3,1.3-5.6v-55.1c0-2.5-0.4-4.3-1.3-5.5
			s-2.5-2.1-4.8-2.6l-2.5-0.5V326l32.2-10.4l1.8,1.8l-0.5,25v49.3c0,2.3,0.4,4.2,1.3,5.6c0.9,1.4,2.4,2.5,4.7,3.2l1.8,0.5v1.8
			H1142.3z M1163.1,306.3c-4,0-7.4-1.3-10.1-3.8c-2.8-2.5-4.1-5.7-4.1-9.6c0-4,1.4-7.2,4.1-9.7c2.8-2.5,6.1-3.7,10.1-3.7
			c4,0,7.3,1.2,10,3.7c2.7,2.5,4,5.7,4,9.7c0,3.9-1.3,7.1-4,9.6C1170.4,305,1167.1,306.3,1163.1,306.3z"/>
		<path class="st6" d="M1229.6,372.3c-8.1,0-15-1.3-20.6-4v6c0,3.6,1.8,5.8,5.5,6.5l33.1,6.2c5.5,1.1,10.5,2.4,15,4.1
			c4.5,1.7,8,4.1,10.7,7.2c2.7,3.1,4,7.4,4,12.8c0,5.7-1.9,11.1-5.6,15.9c-3.8,4.9-9.3,8.8-16.6,11.8c-7.3,3-16.5,4.5-27.4,4.5
			c-9.4,0-16.8-1-22.4-2.9c-5.5-1.9-9.4-4.4-11.7-7.5c-2.3-3.1-3.4-6.3-3.4-9.7c0-4.2,1.4-8.5,4.3-12.8c2.9-4.3,6.4-7.7,10.6-10.3
			c-3.6-1.4-6.3-3.2-7.9-5.5c-1.6-2.2-2.5-4.6-2.5-7.2c0-2.3,0.6-4.5,1.8-6.6c1.2-2.1,2.7-4.1,4.5-6.2l5.8-7.4
			c-8.6-4.9-12.8-12.7-12.8-23.2c0-8.4,3-15.3,9.1-20.6c6-5.3,14.9-7.9,26.7-7.9c6,0,11.2,0.7,15.8,2.1c4.5,1.4,8.2,3.4,11.2,6
			c3.8-0.6,7.3-1.6,10.6-2.9c3.3-1.3,6.4-3.2,9.1-5.5l2.5,1.8v9H1259c4.2,4.7,6.3,10.7,6.3,18.1c0,8.2-3,15-9.1,20.3
			C1250.2,369.6,1241.4,372.3,1229.6,372.3z M1203.2,417.5c0,6.9,2.1,12.1,6.4,15.7c4.3,3.5,11.1,5.3,20.3,5.3
			c9.7,0,17.1-1.6,22-4.8c4.9-3.2,7.4-7.6,7.4-13.4c0-3.3-1.2-5.9-3.6-7.9c-2.4-2-6.5-3.5-12.2-4.6l-31.9-6
			c-0.9-0.2-1.9-0.5-2.8-0.7c-1.6,2.3-3,5-4,8C1203.8,412.1,1203.2,414.9,1203.2,417.5z M1229.5,368.8c4.7,0,8.1-1.9,10.3-5.8
			c2.2-3.9,3.3-10.3,3.3-19.4c0-9-1.1-15.4-3.3-19.1c-2.2-3.7-5.5-5.5-9.9-5.5c-4.3,0-7.6,1.9-9.9,5.7c-2.2,3.8-3.3,10.2-3.3,19.3
			c0,9,1,15.4,3.1,19.2C1221.7,366.9,1225,368.8,1229.5,368.8z"/>
		<path class="st6" d="M1284.7,402.7V401l2.5-0.7c4.1-1.2,6.2-4,6.2-8.6v-55.1c0-2.6-0.4-4.5-1.2-5.7c-0.8-1.2-2.4-2.1-4.8-2.6
			l-2.6-0.7v-1.8l30.1-10.2l1.8,1.8l1.4,10.6c4.1-3.6,8.7-6.6,13.9-9c5.2-2.3,10.3-3.5,15.3-3.5c7.7,0,13.7,2.1,17.9,6.3
			c4.2,4.2,6.2,10.7,6.2,19.4v50.7c0,4.6,2.2,7.5,6.7,8.6l1.6,0.5v1.8H1338V401l2.3-0.7c4.1-1.3,6.2-4.2,6.2-8.6v-56.1
			c0-7.5-3.8-11.3-11.3-11.3c-5.2,0-10.8,2.6-16.9,7.7v59.8c0,4.6,2.1,7.5,6.2,8.6l1.6,0.5v1.8H1284.7z"/>
	</g>
	<g>
		<path class="st6" d="M920.8,443.5v3.4h-8.3v21h-3.9v-21h-8.3v-3.4H920.8z"/>
		<path class="st6" d="M929.2,468.2c-1.8,0-3.5-0.4-4.9-1.1c-1.4-0.8-2.5-1.9-3.3-3.3c-0.8-1.4-1.2-3.2-1.2-5.1s0.4-3.7,1.2-5.1
			c0.8-1.4,1.9-2.5,3.2-3.3c1.4-0.8,2.9-1.1,4.7-1.1c1.8,0,3.3,0.4,4.6,1.1c1.3,0.7,2.2,1.7,2.9,3c0.7,1.3,1,2.7,1,4.4
			c0,0.4,0,0.9,0,1.3c0,0.4-0.1,0.7-0.1,1h-14.8v-3h13.1l-2,0.6c0-1.7-0.4-3-1.3-3.9c-0.8-0.9-2-1.3-3.4-1.3c-1.1,0-2,0.2-2.8,0.7
			c-0.8,0.5-1.4,1.2-1.8,2.2c-0.4,1-0.6,2.2-0.6,3.6c0,1.4,0.2,2.5,0.7,3.5c0.4,1,1.1,1.7,1.9,2.2s1.8,0.7,2.9,0.7
			c1.2,0,2.2-0.2,3-0.7c0.8-0.5,1.4-1.1,1.8-2l3.1,1.5c-0.4,0.9-1,1.7-1.8,2.3c-0.8,0.7-1.6,1.2-2.7,1.5
			C931.6,468.1,930.5,468.2,929.2,468.2z"/>
		<path class="st6" d="M942.4,467.9v-18.4h3.5l0.2,3.1c0.6-1.2,1.5-2.1,2.6-2.6c1.1-0.6,2.2-0.8,3.4-0.8c1.3,0,2.6,0.3,3.7,0.9
			c1.1,0.6,2,1.5,2.5,2.7c0.4-0.8,0.9-1.5,1.6-2c0.7-0.5,1.5-0.9,2.3-1.2s1.7-0.4,2.5-0.4c1.2,0,2.3,0.2,3.3,0.7
			c1,0.5,1.9,1.2,2.5,2.2c0.6,1,1,2.3,1,3.9v12h-3.9v-11.3c0-1.5-0.4-2.6-1.1-3.2c-0.7-0.7-1.6-1-2.7-1c-0.9,0-1.7,0.2-2.4,0.6
			c-0.7,0.4-1.3,1-1.8,1.9c-0.4,0.8-0.7,1.8-0.7,3v10H955v-11.3c0-1.5-0.4-2.6-1.1-3.2c-0.7-0.7-1.6-1-2.7-1c-0.7,0-1.5,0.2-2.2,0.6
			s-1.4,1-1.8,1.8c-0.5,0.8-0.7,1.9-0.7,3.3v9.8H942.4z"/>
		<path class="st6" d="M988.1,456c0-1.2-0.3-2.2-1-2.9c-0.7-0.7-1.6-1-2.8-1c-1.1,0-2.1,0.3-2.8,0.8c-0.8,0.5-1.4,1.4-1.7,2.5
			l-3.3-1.4c0.5-1.5,1.4-2.7,2.7-3.6c1.4-0.9,3.1-1.4,5.3-1.4c1.5,0,2.8,0.2,3.9,0.7s2,1.2,2.7,2.2c0.7,1,1,2.2,1,3.7v8.2
			c0,0.9,0.5,1.4,1.4,1.4c0.4,0,0.9-0.1,1.3-0.2l-0.2,2.7c-0.6,0.3-1.3,0.4-2.1,0.4c-0.8,0-1.5-0.1-2.1-0.4s-1.1-0.7-1.5-1.3
			s-0.5-1.3-0.5-2.2V464l0.8,0c-0.2,1-0.7,1.8-1.4,2.4c-0.7,0.6-1.5,1.1-2.4,1.4c-0.9,0.3-1.8,0.5-2.8,0.5c-1.2,0-2.2-0.2-3.1-0.6
			s-1.6-0.9-2.2-1.7c-0.5-0.8-0.8-1.7-0.8-2.8c0-1.4,0.4-2.5,1.3-3.4c0.9-0.9,2.2-1.5,3.8-1.8l7.2-1.4l0,2.8l-5.2,1.1
			c-1,0.2-1.8,0.5-2.3,0.8c-0.5,0.4-0.8,0.9-0.8,1.6c0,0.7,0.3,1.2,0.8,1.6c0.5,0.4,1.2,0.6,2.1,0.6c0.6,0,1.2-0.1,1.8-0.2
			c0.6-0.1,1.1-0.4,1.6-0.7c0.5-0.3,0.8-0.8,1.1-1.3c0.3-0.5,0.4-1.2,0.4-1.9V456z"/>
		<path class="st6" d="M1009.3,467.9V465c2.3-1.7,4.3-3.1,5.9-4.4c1.6-1.3,2.9-2.5,3.8-3.5c1-1.1,1.7-2.1,2.1-3.1c0.4-1,0.6-2,0.6-3
			c0-1.3-0.4-2.4-1.2-3.2c-0.8-0.8-1.9-1.2-3.4-1.2c-1.5,0-2.7,0.5-3.6,1.5c-0.9,1-1.4,2.4-1.5,4.2l-3.4-1.6c0.2-1.5,0.6-2.9,1.4-4
			c0.7-1.1,1.7-2,3-2.6s2.7-0.9,4.4-0.9c1.4,0,2.6,0.2,3.6,0.6c1,0.4,1.9,0.9,2.6,1.6c0.7,0.7,1.3,1.5,1.6,2.5
			c0.4,0.9,0.6,1.9,0.6,3c0,1.5-0.4,3-1.1,4.5c-0.8,1.4-2,2.9-3.6,4.4c-1.6,1.5-3.8,3.1-6.5,4.8v0.1c0.3,0,0.7-0.1,1.2-0.1
			s1,0,1.5,0c0.5,0,0.9,0,1.3,0h7.7v3.4H1009.3z"/>
	</g>
</g>
</svg>
