<?xml version="1.0" encoding="utf-8"?>
<!-- Generator: Adobe Illustrator 26.3.1, SVG Export Plug-In . SVG Version: 6.00 Build 0)  -->
<svg version="1.1" xmlns="http://www.w3.org/2000/svg" xmlns:xlink="http://www.w3.org/1999/xlink" x="0px" y="0px"
	 viewBox="0 0 1920 737" style="enable-background:new 0 0 1920 737;" xml:space="preserve">
<style type="text/css">
	.st0{fill:#E2D8C7;}
	.st1{fill:#D9B154;}
	.st2{fill:#B6D1DA;}
	.st3{fill:#BC6F27;}
	.st4{fill:#BAB5A8;}
	.st5{fill:#AA410B;}
	.st6{fill:#FFFFFF;}
	.st7{font-family:'DMSerifDisplay-Regular';}
	.st8{font-size:176px;}
	.st9{font-family:'WorkSans-Medium';}
	.st10{font-size:36.8863px;}
</style>
<g id="Layer_3">
	<rect class="st0" width="1920" height="736.3"/>
</g>
<g id="Layer_2">
	<path class="st1" d="M444.1,736.3c-14.7-22.9-49.9-33.4-68.8-56c-20.1-23.9-19.5-58.8-13.2-89.4s17.3-61,14.4-92
		c-0.9-9.2-3-18.4-7.3-26.6c-7.9-14.7-22.3-24.7-37.1-32.5c-52.7-27.5-115.6-32-166.6-62.6c-39.9-24-69.9-62.4-111-84.2
		c-12.6-6.7-34.2-15.3-55.7-19.3v462.6H444.1z"/>
	<path class="st2" d="M815.4,60.8c-13-17.8-10-40.1-1.7-61.5H427.9c-18.4,31.7-45.9,58.9-72.7,84.6
		c-37.2,35.9-74.5,71.8-111.7,107.7c-3.3,3.1-6.7,6.5-7.7,10.9c-1,3.9,0.1,8.1,1.4,11.9c15.1,43,63.4,62.1,102.5,85.5
		c98,58.7,157.4,168.1,255.4,226.7c6.8,4.1,14.2,8,22.1,8.2c8.3,0.2,16.2-3.7,23.6-7.5c28.1-14.4,56.1-28.8,84.2-43.3
		c29.1-14.9,59.2-30.8,78.5-57.2c13-17.9,20.1-39.3,26.9-60.4c20.4-62.8,40.8-125.6,61.2-188.4c6.8-20.9,13.3-44.7,2.3-63.7
		C877.7,86.5,834.4,86.7,815.4,60.8z"/>
	<path class="st3" d="M961.7,736.3h704.1c-5.8-26.6-17.3-50.6-41.4-60.6c-21.7-9-50.3-4.3-65.6-22.1c-18.6-21.6-4.2-62.7-28-78.3
		c-6.3-4.1-14-5.3-21.5-6.3c-37.8-4.9-76-6.5-114-4.8c-20.3,0.9-41.2,2.6-60.5-3.7c-13.6-4.4-25.6-12.6-38.8-18.2
		c-35.5-14.9-79-8.3-108.5,16.3c-31.6,26.4-48.6,71.4-87.5,85c-39.1,13.6-88-10.2-121.1,14.6c-20.7,15.5-26,45.5-19.4,70.6
		C960.1,731.3,960.9,733.8,961.7,736.3z"/>
	<path class="st4" d="M1215.1,453.8c6.7,7.7,14,15.2,21.9,20c7.6,4.6,15.1,6.3,22.4,7.9c27.1,6.1,54.6,12.3,78.9,10.5
		c23.2-1.7,42.7-10.5,62-19.3c26.9-12.2,53.9-24.5,80.8-36.7c14.5-6.6,29.5-13.7,36.2-29.2c7.8-18.1,2.8-45.4-7.3-71.6
		c-10.2-26.2-25.2-52.1-38.8-78.1c-20.6-39.3-38.2-79.2-52.4-118.8c-7.5-20.9-15.6-44.2-33.1-60.2c-14.7-13.5-31.4-17.4-46.6-20.5
		c-30-6.1-60.9-11.8-84.3-3.2c-12,4.4-21.6,12.5-32.4,18.7c-24.4,13.9-55.3,18.2-79.7,32.2s-42.4,41.5-32.6,80.7
		c6.8,27.3,26.2,53.2,36,80.2c7.6,20.8,4,32,5.9,51.3C1156.2,361.4,1179.6,413,1215.1,453.8z"/>
	<path class="st5" d="M1679.5-0.8c2.5,33.1,15.4,72.8,25.9,90.8c8.7,15,22,26.8,32.7,40.6c28.6,37.1,36.2,89.4,19.2,133
		c-10.4,26.7-28.9,49.5-41.2,75.4c-12.2,25.9-17.3,58.6-0.8,82.1c15.1,21.4,43.4,28.8,69.5,30.6c26.1,1.8,53.2-0.2,77.8,8.8
		c10.1,3.7,19.8,9.2,30.5,9.8c9.9,0.5,19.2-3.4,27-9.5V-0.8H1679.5z"/>
</g>
<g id="Layer_1">
	<g id="Layer_4">
	</g>
	<text transform="matrix(1 0 0 1 537.077 402.7188)" class="st6 st7 st8">Webdesign</text>
	<text transform="matrix(1 0 0 1 899.0941 467.856)" class="st6 st9 st10">Tema 2</text>
</g>
</svg>
