<?xml version="1.0" encoding="utf-8"?>
<!-- Generator: Adobe Illustrator 26.3.1, SVG Export Plug-In . SVG Version: 6.00 Build 0)  -->
<svg version="1.1" id="Layer_1" xmlns="http://www.w3.org/2000/svg" xmlns:xlink="http://www.w3.org/1999/xlink" x="0px" y="0px"
	 viewBox="0 0 382 264" style="enable-background:new 0 0 382 264;" xml:space="preserve">
<style type="text/css">
	.st0{clip-path:url(#SVGID_00000047752878332967107500000004023389691543345552_);}
	.st1{fill:#B6D1DA;}
	.st2{fill:#B76420;}
	.st3{fill:#A5571E;}
	.st4{fill:#F7F2EB;}
	.st5{fill:#FCFCFC;}
	.st6{enable-background:new    ;}
</style>
<g>
	<g>
		<g>
			<defs>
				<path id="SVGID_1_" d="M327.7,63.9c2.3,9.6,4.7,15.1,7.1,21.9c5.4,15,8.1,22.5,8.3,30.4c0.7,22.6-17.5,31.1-12.1,45.7
					c2.9,8,8.5,5.8,13.7,15.9c6.2,12.1,5,28.7-3.3,40.5c-4.3,6.1-9.3,9.5-11.9,10.9c-8.2,4.3-17.5,5.8-26.6,7.2
					c-28.4,4.4-43.4,6.7-46.3,7.3c-8.4,1.6-6.6,1.5-20,4.4c-29.4,6.2-44,9.2-51.9,8.3c-22.7-2.7-21.4-16.4-42.8-17.6
					c-19.5-1.1-28.6,9.7-39.8,3c-6.2-3.8-8.8-10.5-13-21.3c-5.8-15.1-3-20.3-8.2-29.5c-5.5-9.7-12.3-10.6-21.8-18
					c-20.9-16.3-35-48.8-27-70.9c4.6-12.6,12-9.7,17.1-24.5c4.8-14.1,0.2-21.8,6.3-42.4c1.7-5.7,4.4-11.4,9.1-15.2
					c4.9-3.9,10.1-5.4,13.7-6c22.7-3.9,62.9,4,62.9,4c48.8,9.6,70.1-13.9,112.3-8.3c10.8,1.4,22.5,4.7,39,1.7
					c5.4-1,9.1-1.7,15.3-1.4c10.3,0.4,25.4,5.7,24.5,17.4c-0.4,5.1-5.8,11.2-6.6,17C324.9,50.5,325.7,55.2,327.7,63.9z"/>
			</defs>
			<clipPath id="SVGID_00000136403844746480038350000014207782889798853519_">
				<use xlink:href="#SVGID_1_"  style="overflow:visible;"/>
			</clipPath>
			<g style="clip-path:url(#SVGID_00000136403844746480038350000014207782889798853519_);">
				<rect y="-0.3" class="st1" width="382" height="264.4"/>
				<g>
					<path class="st2" d="M127,149v61.6c0,0,4,15.4,13,15.4s151.1,0,151.1,0s9.9-1,12.9-17h-29V55c0,0,2-17-15-17s-146.5,0-146.5,0
						S98,37,98,58s0,91.2,0,91.2L127,149z"/>
					<path class="st3" d="M127,149H97.9V58.1c0,0-1-19.4,14.6-19.8s14.6,19,14.6,19L127,149L127,149z"/>
					<path class="st3" d="M304,209c0,0-3,17-13,17s-148,0-148,0s17.6,0,17.8-17H304z"/>
					
						<ellipse transform="matrix(0.9965 -8.377951e-02 8.377951e-02 0.9965 -9.2668 23.1754)" class="st3" cx="271.5" cy="122" rx="42.5" ry="40"/>
					<circle class="st4" cx="274" cy="122" r="40"/>
					<rect x="139" y="59" class="st5" width="73" height="4"/>
					<rect x="147" y="70" class="st5" width="73" height="4"/>
					<rect x="139" y="90" class="st5" width="73" height="4"/>
					<rect x="147" y="100" class="st5" width="73" height="4"/>
					<rect x="154" y="110" class="st5" width="59" height="4"/>
					<rect x="157" y="80" class="st5" width="73" height="4"/>
					<rect x="225" y="70" class="st5" width="22" height="4"/>
					<rect x="155" y="152" class="st5" width="13" height="4"/>
					<rect x="220" y="184" class="st5" width="13" height="4"/>
					<rect x="139" y="122" class="st5" width="87" height="4"/>
					<rect x="139" y="132" class="st5" width="73" height="4"/>
					<rect x="147" y="142" class="st5" width="73" height="4"/>
					<rect x="168" y="163" class="st5" width="73" height="4"/>
					<rect x="141" y="176" class="st5" width="73" height="4"/>
					<rect x="141" y="184" class="st5" width="73" height="4"/>
					<rect x="154" y="193" class="st5" width="73" height="4"/>
					<rect x="174" y="152" class="st5" width="55" height="4"/>
					<g class="st6">
						<path class="st3" d="M266,133.8l-16.8-7.5v-5l16.8-7.5v5.5l-12.3,4.5l12.3,4.5V133.8z"/>
						<path class="st3" d="M283.3,109.6l-9.6,26.8h-5.4l9.6-26.8H283.3z"/>
						<path class="st3" d="M285.5,113.8l16.8,7.5v5l-16.8,7.5v-5.5l12.3-4.5l-12.3-4.5V113.8z"/>
					</g>
				</g>
			</g>
		</g>
	</g>
</g>
</svg>
