<?xml version="1.0" encoding="utf-8"?>
<!-- Generator: Adobe Illustrator 26.3.1, SVG Export Plug-In . SVG Version: 6.00 Build 0)  -->
<svg version="1.1" id="Layer_1" xmlns="http://www.w3.org/2000/svg" xmlns:xlink="http://www.w3.org/1999/xlink" x="0px" y="0px"
	 viewBox="0 0 382 264" style="enable-background:new 0 0 382 264;" xml:space="preserve">
<style type="text/css">
	.st0{clip-path:url(#SVGID_00000000935452217473873930000000093365722704527269_);}
	.st1{fill:#B6D1DA;}
	.st2{fill:#C66505;}
	.st3{fill:#AD5317;}
	.st4{fill:#FFFFFF;}
	.st5{fill:#FCFCFC;}
	.st6{clip-path:url(#SVGID_00000136379224276821106280000017069643308574924174_);}
	.st7{fill:#D9B154;}
	.st8{fill:#994608;}
	.st9{fill:#843408;}
	.st10{fill:#F7F2EB;}
</style>
<g>
	<defs>
		<path id="SVGID_00000078748912401152545940000006808075974262664087_" d="M327.7,63.9c4.4,13.5,13.5,24.8,22,36.2
			c8.5,11.4,16.7,23.7,18.8,37.7c0.6,4,0.6,8.3-0.9,12.1c-3.6,8.6-14,12.1-19.3,19.7c-9.5,13.7,1.2,34.1-6.9,48.7
			c-2.6,4.8-7.1,8.3-11.9,10.9c-8.2,4.3-17.5,5.8-26.6,7.2c-15.4,2.4-30.9,4.9-46.3,7.3c-10.9,1.7-22,3.5-33.1,2.6
			c-11.1-0.9-21.8-4.5-32.8-6.4c-16.1-2.8-32.5-1.8-48.8-1.1c-11.6,0.5-24.7,0.4-32.9-7.9c-4.8-4.9-7.1-11.9-12.3-16.4
			c-12.2-10.7-31.4-1.8-47.4-5c-16.4-3.3-27.6-20-29.3-36.7c-1.7-16.7,4-33.2,10.9-48.5s14.9-30.3,18.3-46.7
			c2.9-14,2.2-28.7,6.3-42.4c1.7-5.7,4.4-11.4,9.1-15.2c3.9-3.2,8.8-4.8,13.7-6c61-15.4,126.1,18.3,187.4,4.3
			c14-3.2,27.8-8.8,42.1-8.3c10.3,0.4,25.4,5.7,24.5,17.4c-0.4,5.1-5.8,11.2-6.6,17C324.8,50.8,325.7,57.6,327.7,63.9z"/>
	</defs>
	<clipPath id="SVGID_00000147903633671509061500000007078745251126702511_">
		<use xlink:href="#SVGID_00000078748912401152545940000006808075974262664087_"  style="overflow:visible;"/>
	</clipPath>
	<g style="clip-path:url(#SVGID_00000147903633671509061500000007078745251126702511_);">
		<rect y="-0.3" class="st7" width="382" height="264.4"/>
		<g>
			<path class="st8" d="M127,149v61.6c0,0,4,15.4,13,15.4s151.1,0,151.1,0s9.9-1,12.9-17h-29V55c0,0,2-17-15-17s-146.5,0-146.5,0
				S98,37,98,58s0,91.2,0,91.2L127,149z"/>
			<path class="st9" d="M127,149H97.9V58.1c0,0-1-19.4,14.6-19.8s14.6,19,14.6,19V149z"/>
			<path class="st9" d="M304,209c0,0-3,17-13,17s-148,0-148,0s17.6,0,17.8-17H304z"/>
			
				<ellipse transform="matrix(0.9965 -8.378215e-02 8.378215e-02 0.9965 -9.2698 23.1786)" class="st9" cx="271.5" cy="122" rx="42.5" ry="40"/>
			<circle class="st10" cx="274" cy="122" r="40"/>
			<g>
				<path class="st9" d="M266.7,139.1c-1.9,0-3.4-0.2-4.6-0.6c-1.1-0.4-2-1-2.5-1.9c-0.5-0.8-0.8-1.9-0.8-3.2v-6
					c0-1.4-0.3-2.4-0.9-3c-0.6-0.6-1.7-0.9-3.2-0.9v-3.5c1.5,0,2.6-0.3,3.2-0.9c0.6-0.6,0.9-1.6,0.9-3v-6c0-1.3,0.3-2.4,0.8-3.2
					c0.5-0.8,1.4-1.4,2.5-1.8c1.1-0.4,2.7-0.6,4.6-0.6v3.4c-1.3,0-2.2,0.2-2.8,0.6c-0.6,0.4-0.9,1.1-0.9,2v6.5c0,1.3-0.3,2.3-1,3.1
					c-0.7,0.8-1.6,1.3-2.9,1.6c1.3,0.3,2.2,0.9,2.9,1.6c0.7,0.8,1,1.8,1,3.1v6.5c0,0.9,0.3,1.6,0.9,2c0.6,0.4,1.5,0.6,2.8,0.6V139.1
					z"/>
				<path class="st9" d="M280.6,104.6c1.9,0,3.4,0.2,4.6,0.6c1.1,0.4,2,1,2.5,1.8c0.5,0.8,0.8,1.9,0.8,3.2v6c0,1.4,0.3,2.4,0.9,3
					c0.6,0.6,1.7,0.9,3.2,0.9v3.5c-1.5,0-2.6,0.3-3.2,0.9c-0.6,0.6-0.9,1.6-0.9,3v6c0,1.3-0.3,2.4-0.8,3.2c-0.5,0.8-1.4,1.4-2.5,1.8
					c-1.1,0.4-2.7,0.6-4.6,0.6v-3.4c1.3,0,2.2-0.2,2.8-0.6c0.6-0.4,0.9-1.1,0.9-2v-6.5c0-1.3,0.3-2.3,1-3.1c0.7-0.8,1.6-1.3,2.8-1.6
					c-1.2-0.3-2.2-0.9-2.8-1.6c-0.7-0.8-1-1.8-1-3.1v-6.5c0-0.9-0.3-1.6-0.9-2c-0.6-0.4-1.5-0.6-2.8-0.6V104.6z"/>
			</g>
			<rect x="139" y="59" class="st5" width="73" height="4"/>
			<rect x="147" y="70" class="st5" width="73" height="4"/>
			<rect x="139" y="90" class="st5" width="73" height="4"/>
			<rect x="147" y="100" class="st5" width="73" height="4"/>
			<rect x="154" y="110" class="st5" width="59" height="4"/>
			<rect x="157" y="80" class="st5" width="73" height="4"/>
			<rect x="225" y="70" class="st5" width="22" height="4"/>
			<rect x="155" y="152" class="st5" width="13" height="4"/>
			<rect x="220" y="184" class="st5" width="13" height="4"/>
			<rect x="139" y="122" class="st5" width="87" height="4"/>
			<rect x="139" y="132" class="st5" width="73" height="4"/>
			<rect x="147" y="142" class="st5" width="73" height="4"/>
			<rect x="168" y="163" class="st5" width="73" height="4"/>
			<rect x="141" y="176" class="st5" width="73" height="4"/>
			<rect x="141" y="184" class="st5" width="73" height="4"/>
			<rect x="154" y="193" class="st5" width="73" height="4"/>
			<rect x="174" y="152" class="st5" width="55" height="4"/>
		</g>
	</g>
</g>
</svg>
