<?xml version="1.0" encoding="utf-8"?>
<!-- Generator: Adobe Illustrator 26.3.1, SVG Export Plug-In . SVG Version: 6.00 Build 0)  -->
<svg version="1.1" xmlns="http://www.w3.org/2000/svg" xmlns:xlink="http://www.w3.org/1999/xlink" x="0px" y="0px"
	 viewBox="0 0 379 425.9" style="enable-background:new 0 0 379 425.9;" xml:space="preserve">
<style type="text/css">
	.st0{fill:#E2D8C7;}
	.st1{fill:#D9B154;}
	.st2{fill:#B6D1DA;}
	.st3{fill:#BC6F27;}
	.st4{fill:#BAB5A8;}
	.st5{fill:#AA410B;}
	.st6{fill:#FFFFFF;}
	.st7{fill:none;stroke:#000000;stroke-width:25;stroke-miterlimit:10;}
	.st8{fill:none;stroke:#000000;stroke-width:21;stroke-linecap:round;stroke-linejoin:round;stroke-miterlimit:10;}
	.st9{fill:none;stroke:#000000;stroke-width:21;stroke-miterlimit:10;}
</style>
<g id="Layer_3">
</g>
<g id="Layer_2">
</g>
<g id="Layer_1">
	<g id="Layer_4">
	</g>
	<g>
		<circle class="st7" cx="189.5" cy="189.5" r="177"/>
		<g>
			<path d="M191.5,79.8c15.1,0,28.3,2.4,39.5,7.2c11.2,4.8,20,11.7,26.3,20.6c6.3,8.9,9.5,19.6,9.5,32c0,13.3-2.9,24.4-8.8,33.2
				c-5.8,8.8-13.6,15.5-23.4,20.1c-9.7,4.6-20.6,7.6-32.5,8.9v36.8h-28.5V187c16.7-2.5,29.7-5.6,39-9.3c9.3-3.7,15.8-8.3,19.6-13.8
				c3.8-5.5,5.7-12.3,5.7-20.3c0-8-1.8-14.9-5.3-20.6c-3.6-5.7-8.9-10.1-16-13.1c-7.1-3-16.2-4.5-27.2-4.5c-15.1,0-27.4,4.2-37,12.5
				c-9.5,8.4-15.2,19.8-17,34.2l-24.4-14.1c2.5-11.7,7.4-21.9,14.6-30.8c7.2-8.8,16.4-15.6,27.5-20.5
				C164.3,82.2,177.1,79.8,191.5,79.8z M187.4,268.8c6.6,0,12,2.1,16.2,6.2c4.1,4.1,6.2,9.5,6.2,16.2c0,6.7-2.1,12-6.2,16.2
				c-4.1,4.1-9.5,6.2-16.2,6.2c-6.7,0-12-2.1-16.2-6.2c-4.1-4.1-6.2-9.5-6.2-16.2c0-6.6,2.1-12,6.2-16.2
				C175.4,270.9,180.8,268.8,187.4,268.8z"/>
		</g>
	</g>
</g>
</svg>
