<?xml version="1.0" encoding="utf-8"?>
<!-- Generator: Adobe Illustrator 26.3.1, SVG Export Plug-In . SVG Version: 6.00 Build 0)  -->
<svg version="1.1" xmlns="http://www.w3.org/2000/svg" xmlns:xlink="http://www.w3.org/1999/xlink" x="0px" y="0px"
	 viewBox="0 0 1920 737" style="enable-background:new 0 0 1920 737;" xml:space="preserve">
<style type="text/css">
	.st0{fill:#E2D8C7;}
	.st1{fill:#D9B154;}
	.st2{fill:#B6D1DA;}
	.st3{fill:#BC6F27;}
	.st4{fill:#BAB5A8;}
	.st5{fill:#AA410B;}
	.st6{fill:#FFFFFF;}
</style>
<g id="Layer_3">
	<rect class="st0" width="1920" height="737"/>
</g>
<g id="Layer_2">
</g>
<g id="Layer_1">
	<g id="Layer_4">
		<path class="st3" d="M1404.3,107.7c-40.1-16.3-83.7-21.5-125.2-33.9c-41.5-12.4-83.2-34.3-103.5-72.6c-0.4-0.7-0.7-1.5-1.1-2.2
			H720.8c-0.8,1.2-1.7,2.3-2.5,3.5c-28.4,39.6-57.2,79.9-73.9,125.7c-3,8.3-5.7,17-5.2,25.8c0.7,11,6.3,21.2,12.9,30.1
			c27,36.3,70.9,56.4,114.9,66.7c44.1,10.3,89.6,12.1,134.2,20c114.4,20.3,217.6,79.5,319.6,135.3c38.1,20.8,79.3,42,122.6,37.7
			c41.2-4,77.4-31.4,100.6-65.7c23.2-34.3,34.8-75,43.2-115.5c4.4-21.5,8-43.7,3.7-65.2C1482.2,155,1444.4,124,1404.3,107.7z"/>
		<path class="st5" d="M617.3,738.5c-13-33.5-31.7-61.9-52.8-80.6c-46-40.9-100.7-44.6-152.8-40.1s-104.7,16.4-156.4,3.3
			c-71-18.1-145.9-81.7-210.2-28.9c-16.6,13.6-34.5,45-46.4,81.3v65H617.3z"/>
		<path class="st2" d="M-1.3-1v241.7c7.5,12.9,17.7,23.3,31.7,28.8c18.9,7.4,42,4,58.2,16.3c7.5,5.7,12.4,14,17.1,22.1
			c17.7,30.4,35.7,61.6,42.2,96.2c7.5,40,1.9,88.5,33.6,114c29.9,24,77.8,9.2,100.8-21.4c23-30.7,27.1-71.3,27.3-109.7
			c0.7-99.3-17.3-205.1,28.7-293.1c4.6-8.8,10.4-17.8,19.6-21.6c10-4.1,21.4-1,32.1,0.9c26.2,4.6,55.3,0.3,75.2-17.4
			c25.5-22.6,30.4-41.4,23.2-56.8H-1.3z"/>
		<path class="st4" d="M1651.4-1c-53.2,43.8-76.9,111.4,17,124.2c77.2,10.5,164.4,8.4,251.7-3V-1H1651.4z"/>
		<path class="st1" d="M913.5,738.5h817.8c0.3-21.9-13-45.8-31.3-59.8c-27.1-20.7-62-28.5-91.1-46.3
			c-54.4-33.2-90.1-100.7-153.2-109.7c-49.4-7-94.5,25.5-137.2,51.4c-42.7,25.9-99.8,45.7-140,16.1c-41.7-30.7-28.8-79.3-77.9-105.6
			c-43.8-23.5-106.6-6.7-110.1,10.2c-1.6,7.5,9.5,10,10.9,21.7c2.4,20.9-28.4,33-65.7,71.3c-32.4,33.4-42.9,70.9-33.5,117.2
			C904.9,717.8,908.6,728.8,913.5,738.5z"/>
	</g>
	<g>
		<path class="st6" d="M921.8,488.5v3.4h-8.3v21h-3.9v-21h-8.3v-3.4H921.8z"/>
		<path class="st6" d="M930.2,513.2c-1.8,0-3.5-0.4-4.9-1.1s-2.5-1.9-3.3-3.3c-0.8-1.4-1.2-3.2-1.2-5.1s0.4-3.7,1.2-5.1
			c0.8-1.4,1.9-2.5,3.2-3.3c1.4-0.8,2.9-1.1,4.7-1.1c1.8,0,3.3,0.4,4.6,1.1c1.3,0.7,2.2,1.7,2.9,3s1,2.7,1,4.4c0,0.4,0,0.9,0,1.3
			c0,0.4-0.1,0.7-0.1,1h-14.8v-3h13.1l-2,0.6c0-1.7-0.4-3-1.3-3.9c-0.8-0.9-2-1.3-3.4-1.3c-1.1,0-2,0.2-2.8,0.7
			c-0.8,0.5-1.4,1.2-1.8,2.2c-0.4,1-0.6,2.2-0.6,3.6c0,1.4,0.2,2.5,0.7,3.5c0.4,1,1.1,1.7,1.9,2.2s1.8,0.7,2.9,0.7
			c1.2,0,2.2-0.2,3-0.7c0.8-0.5,1.4-1.1,1.8-2l3.1,1.5c-0.4,0.9-1,1.7-1.8,2.3s-1.6,1.2-2.7,1.5
			C932.6,513.1,931.5,513.2,930.2,513.2z"/>
		<path class="st6" d="M943.4,512.9v-18.4h3.5l0.2,3.1c0.6-1.2,1.5-2.1,2.6-2.6c1.1-0.6,2.2-0.8,3.4-0.8c1.3,0,2.6,0.3,3.7,0.9
			c1.1,0.6,2,1.5,2.5,2.7c0.4-0.8,0.9-1.5,1.6-2c0.7-0.5,1.5-0.9,2.3-1.2c0.8-0.3,1.7-0.4,2.5-0.4c1.2,0,2.3,0.2,3.3,0.7
			c1,0.5,1.9,1.2,2.5,2.2c0.6,1,1,2.3,1,3.9v12h-3.9v-11.3c0-1.5-0.4-2.6-1.1-3.2c-0.7-0.7-1.6-1-2.7-1c-0.9,0-1.7,0.2-2.4,0.6
			c-0.7,0.4-1.3,1-1.8,1.9c-0.4,0.8-0.7,1.8-0.7,3v10H956v-11.3c0-1.5-0.4-2.6-1.1-3.2c-0.7-0.7-1.6-1-2.7-1c-0.7,0-1.5,0.2-2.2,0.6
			c-0.7,0.4-1.4,1-1.8,1.8c-0.5,0.8-0.7,1.9-0.7,3.3v9.8H943.4z"/>
		<path class="st6" d="M989.1,501c0-1.2-0.3-2.2-1-2.9c-0.7-0.7-1.6-1-2.8-1c-1.1,0-2.1,0.3-2.8,0.8c-0.8,0.5-1.4,1.4-1.7,2.5
			l-3.3-1.4c0.5-1.5,1.4-2.7,2.7-3.6c1.4-0.9,3.1-1.4,5.3-1.4c1.5,0,2.8,0.2,3.9,0.7c1.1,0.5,2,1.2,2.7,2.2c0.7,1,1,2.2,1,3.7v8.2
			c0,0.9,0.5,1.4,1.4,1.4c0.4,0,0.9-0.1,1.3-0.2l-0.2,2.7c-0.6,0.3-1.3,0.4-2.1,0.4c-0.8,0-1.5-0.1-2.1-0.4
			c-0.6-0.3-1.1-0.7-1.5-1.3s-0.5-1.3-0.5-2.2V509l0.8,0c-0.2,1-0.7,1.8-1.4,2.4c-0.7,0.6-1.5,1.1-2.4,1.4c-0.9,0.3-1.8,0.5-2.8,0.5
			c-1.2,0-2.2-0.2-3.1-0.6s-1.6-0.9-2.2-1.7c-0.5-0.8-0.8-1.7-0.8-2.8c0-1.4,0.4-2.5,1.3-3.4s2.2-1.5,3.8-1.8l7.2-1.4l0,2.8
			l-5.2,1.1c-1,0.2-1.8,0.5-2.3,0.8c-0.5,0.4-0.8,0.9-0.8,1.6c0,0.7,0.3,1.2,0.8,1.6c0.5,0.4,1.2,0.6,2.1,0.6c0.6,0,1.2-0.1,1.8-0.2
			c0.6-0.1,1.1-0.4,1.6-0.7c0.5-0.3,0.8-0.8,1.1-1.3c0.3-0.5,0.4-1.2,0.4-1.9V501z"/>
		<path class="st6" d="M1018.3,513.2c-2.2,0-3.9-0.5-5.3-1.4c-1.4-0.9-2.5-2.3-3.3-4.1l3.7-1.9c0.4,1.2,0.9,2.1,1.7,2.9
			c0.8,0.8,1.9,1.1,3.3,1.1c1,0,1.9-0.2,2.6-0.6s1.3-0.9,1.7-1.6s0.6-1.5,0.6-2.5c0-1-0.2-1.9-0.6-2.6c-0.4-0.7-0.9-1.2-1.6-1.6
			c-0.7-0.4-1.5-0.5-2.6-0.5c-0.7,0-1.4,0.1-2,0.2c-0.6,0.1-1.2,0.4-1.7,0.7c-0.5,0.3-0.9,0.7-1.3,1.2l-3.2-0.6l1.5-13.4h14.2v3.4
			h-11l-0.9,6.9l-0.1,0.4h0.1c0.6-0.6,1.3-1.1,2.2-1.4c0.9-0.3,2-0.5,3.2-0.5c1.6,0,2.9,0.3,4.1,1c1.1,0.7,2,1.6,2.7,2.7
			c0.6,1.2,1,2.5,1,4c0,1.3-0.2,2.5-0.7,3.5c-0.4,1-1.1,1.9-1.9,2.6s-1.8,1.2-2.8,1.6C1020.7,513,1019.5,513.2,1018.3,513.2z"/>
	</g>
	<g>
		<path class="st6" d="M231.6,402.7V401l3.6-1.2c2.3-0.8,3.7-1.8,4.4-3.1c0.7-1.3,1-3.1,1-5.5v-88.9c0-2.3-0.3-4.1-0.9-5.4
			c-0.6-1.3-2-2.4-4.2-3.1l-3.9-1.5v-1.7h48.6c13.4,0,23.6,2.5,30.8,7.6c7.1,5,10.7,12,10.7,21c0,5-1.9,10-5.6,15
			c-3.7,5-9.6,8.8-17.7,11.6l23.6,46.9c1,1.9,2.2,3.5,3.5,4.7c1.3,1.2,3,2.2,5.2,3.1l2.2,0.9v1.5h-30.4l-25.2-53.5h-11.6v42
			c0,2.2,0.3,3.9,1,5.3c0.7,1.4,2.1,2.4,4.2,3.1l4.1,1.5v1.7H231.6z M265.8,345.8h8.2c8.2,0,14.1-2.2,17.7-6.5
			c3.6-4.4,5.4-10.9,5.4-19.5c0-8.7-1.7-15.2-5.1-19.5c-3.4-4.2-9.1-6.4-17.2-6.4h-9V345.8z"/>
		<path class="st6" d="M378,318.4c7.4,0,13.7,1.5,18.9,4.5c5.2,3,9.2,7.1,12,12.2c2.8,5.2,4.2,11,4.2,17.6c0,1.2-0.1,2.5-0.2,3.8
			c-0.1,1.3-0.3,2.5-0.7,3.5h-50.7c0.1,12.2,2.3,21.1,6.5,26.4c4.2,5.4,10.6,8.1,19,8.1c5.7,0,10.3-0.9,13.8-2.7
			c3.5-1.8,6.8-4.5,9.9-8l1.7,1.5c-3.5,6.2-8.2,11.1-14,14.6c-5.8,3.5-12.8,5.3-21,5.3c-8,0-15.2-1.7-21.4-5.2
			c-6.2-3.5-11.1-8.4-14.6-14.9c-3.5-6.5-5.3-14.2-5.3-23.1c0-9.3,2-17.2,6.1-23.7c4.1-6.5,9.3-11.5,15.7-14.9
			C364.3,320.1,371,318.4,378,318.4z M377.5,321.8c-3.3,0-6.1,1-8.4,3c-2.3,2-4.1,5.5-5.4,10.5c-1.3,5-2,12.2-2.1,21.3h29.1
			c1.1-12.4,0.7-21.2-1.4-26.7C387.2,324.5,383.3,321.8,377.5,321.8z"/>
		<path class="st6" d="M457.6,405.3c-6.7,0-12.7-1.5-18-4.5c-5.3-3-9.5-7.7-12.7-13.9c-3.1-6.3-4.7-14.4-4.7-24.2
			c0-10,1.8-18.2,5.3-24.7c3.5-6.5,8.2-11.4,13.9-14.6c5.8-3.2,12.1-4.8,18.9-4.8c4,0,7.8,0.4,11.4,1.2c3.6,0.8,6.9,2,9.7,3.6v-22.1
			c0-2.4-0.4-4.1-1.1-5.3c-0.7-1.1-2.3-1.9-4.7-2.4l-3.2-0.7V291l30.9-7.5l1.9,1.5l-0.7,23.8V392c0,2.3,0.4,4.1,1.2,5.5
			c0.8,1.4,2.3,2.4,4.4,3l1.5,0.5v1.7l-29.1,1.9l-1.5-6.1c-3.1,2-6.5,3.7-10.5,4.9C466.7,404.6,462.3,405.3,457.6,405.3z M467.4,399
			c4.8,0,9.1-1.4,13.1-4.2v-67.5c-4.2-2.7-8.5-4.1-12.9-4.1c-5.4,0-10.1,3.1-13.9,9.4c-3.9,6.3-5.8,16.2-5.8,29.7
			c0,13.5,1.8,23,5.4,28.5C457,396.2,461.7,399,467.4,399z"/>
		<path class="st6" d="M561.8,318.4c7.4,0,13.7,1.5,18.9,4.5c5.2,3,9.2,7.1,12,12.2c2.8,5.2,4.2,11,4.2,17.6c0,1.2-0.1,2.5-0.2,3.8
			c-0.1,1.3-0.3,2.5-0.7,3.5h-50.7c0.1,12.2,2.3,21.1,6.5,26.4c4.2,5.4,10.6,8.1,19,8.1c5.7,0,10.3-0.9,13.8-2.7
			c3.5-1.8,6.8-4.5,9.9-8l1.7,1.5c-3.5,6.2-8.2,11.1-14,14.6c-5.8,3.5-12.8,5.3-21,5.3c-8,0-15.2-1.7-21.4-5.2
			c-6.2-3.5-11.1-8.4-14.6-14.9c-3.5-6.5-5.3-14.2-5.3-23.1c0-9.3,2-17.2,6.1-23.7c4.1-6.5,9.3-11.5,15.7-14.9
			C548,320.1,554.8,318.4,561.8,318.4z M561.3,321.8c-3.3,0-6.1,1-8.4,3c-2.3,2-4.1,5.5-5.4,10.5c-1.3,5-2,12.2-2.1,21.3h29.1
			c1.1-12.4,0.7-21.2-1.4-26.7C571,324.5,567.1,321.8,561.3,321.8z"/>
		<path class="st6" d="M634.7,405.3c-5.6,0-10.5-0.7-15-2c-4.4-1.3-8.5-2.9-12.2-4.8l0.2-20.2h1.7l5.8,10.2
			c2.5,4.5,5.2,7.9,8.2,10.1c3,2.2,6.8,3.3,11.5,3.3c5.4,0,9.8-1.2,13.2-3.7c3.3-2.4,5-5.7,5-9.8c0-3.7-1.2-6.8-3.6-9.2
			s-6.8-4.5-13.3-6.5l-7.1-2.2c-6.9-2-12.4-5.2-16.3-9.5c-4-4.3-5.9-9.6-5.9-15.8c0-7.5,2.9-13.8,8.8-19c5.9-5.2,14.3-7.8,25.3-7.8
			c4.4,0,8.6,0.5,12.5,1.4c3.9,1,7.7,2.4,11.3,4.3l-1,18.4h-1.7l-6-10.5c-2.2-3.7-4.3-6.4-6.4-7.9c-2.1-1.5-5.2-2.3-9.4-2.3
			c-3.9,0-7.5,1.1-10.9,3.2c-3.4,2.2-5.1,5.2-5.1,9.2c0,3.9,1.4,6.9,4.3,9.2c2.9,2.3,7.2,4.4,12.8,6.3l7.6,2.2
			c8.2,2.5,14,5.9,17.5,10.3c3.5,4.4,5.3,9.6,5.3,15.7c0,8.3-3.3,14.9-9.8,19.9C655.6,402.8,646.5,405.3,634.7,405.3z"/>
		<path class="st6" d="M679.3,402.7V401l2.4-0.7c2.3-0.7,3.8-1.7,4.7-3.1c0.8-1.4,1.3-3.2,1.3-5.4v-53.2c0-2.4-0.4-4.2-1.3-5.4
			c-0.8-1.2-2.4-2-4.7-2.5l-2.4-0.5v-1.7l31.1-10l1.7,1.7l-0.5,24.1V392c0,2.3,0.4,4.1,1.3,5.4c0.8,1.4,2.4,2.4,4.5,3.1l1.7,0.5v1.7
			H679.3z M699.3,309.6c-3.9,0-7.1-1.2-9.8-3.7c-2.7-2.4-4-5.5-4-9.3c0-3.9,1.3-7,4-9.3c2.7-2.4,5.9-3.6,9.8-3.6
			c3.9,0,7.1,1.2,9.7,3.6c2.6,2.4,3.9,5.5,3.9,9.3c0,3.7-1.3,6.8-3.9,9.3C706.4,308.3,703.2,309.6,699.3,309.6z"/>
		<path class="st6" d="M763.6,373.3c-7.8,0-14.5-1.3-19.9-3.9v5.8c0,3.5,1.8,5.6,5.3,6.3l32,6c5.3,1,10.1,2.4,14.5,4
			c4.3,1.6,7.8,4,10.4,7c2.6,3,3.9,7.1,3.9,12.3c0,5.6-1.8,10.7-5.4,15.4c-3.6,4.7-9,8.5-16.1,11.4c-7.1,2.9-15.9,4.3-26.4,4.3
			c-9.1,0-16.3-0.9-21.6-2.8c-5.3-1.9-9.1-4.3-11.3-7.2c-2.2-2.9-3.3-6.1-3.3-9.3c0-4.1,1.4-8.2,4.2-12.3c2.8-4.1,6.2-7.5,10.3-9.9
			c-3.5-1.4-6.1-3.1-7.7-5.3c-1.6-2.2-2.4-4.5-2.4-7c0-2.3,0.6-4.4,1.8-6.4c1.2-2,2.6-4,4.3-6l5.6-7.1c-8.3-4.8-12.4-12.2-12.4-22.4
			c0-8.2,2.9-14.8,8.8-19.9c5.8-5.1,14.4-7.7,25.8-7.7c5.8,0,10.9,0.7,15.2,2c4.4,1.4,8,3.3,10.8,5.8c3.6-0.6,7.1-1.5,10.3-2.8
			c3.2-1.3,6.1-3.1,8.8-5.4l2.4,1.7v8.7H792c4.1,4.5,6.1,10.4,6.1,17.5c0,7.9-2.9,14.5-8.8,19.6
			C783.5,370.7,774.9,373.3,763.6,373.3z M738.1,417c0,6.7,2.1,11.7,6.2,15.1c4.1,3.4,10.7,5.1,19.6,5.1c9.4,0,16.5-1.5,21.2-4.6
			s7.1-7.4,7.1-12.9c0-3.2-1.2-5.7-3.5-7.7c-2.3-1.9-6.3-3.4-11.8-4.4l-30.8-5.8c-0.9-0.2-1.8-0.5-2.7-0.7c-1.6,2.3-2.9,4.8-3.9,7.7
			C738.6,411.8,738.1,414.5,738.1,417z M763.4,369.9c4.5,0,7.8-1.9,9.9-5.6c2.1-3.7,3.1-10,3.1-18.7c0-8.7-1-14.9-3.1-18.4
			c-2.1-3.6-5.3-5.4-9.6-5.4c-4.2,0-7.4,1.8-9.5,5.5c-2.2,3.7-3.2,9.9-3.2,18.6c0,8.7,1,14.9,3,18.5
			C755.9,368.1,759.1,369.9,763.4,369.9z"/>
		<path class="st6" d="M816.8,402.7V401l2.4-0.7c4-1.1,6-3.9,6-8.3v-53.2c0-2.5-0.4-4.3-1.2-5.5c-0.8-1.2-2.3-2-4.6-2.5l-2.5-0.7
			v-1.7l29.1-9.9l1.7,1.7l1.4,10.2c4-3.5,8.4-6.4,13.4-8.7c5-2.3,9.9-3.4,14.8-3.4c7.5,0,13.2,2,17.3,6.1c4,4.1,6,10.3,6,18.7v49
			c0,4.4,2.2,7.2,6.5,8.3l1.5,0.5v1.7h-40.1V401l2.2-0.7c4-1.2,6-4,6-8.3v-54.2c0-7.3-3.6-10.9-10.9-10.9c-5,0-10.4,2.5-16.3,7.5
			v57.8c0,4.4,2,7.2,6,8.3l1.5,0.5v1.7H816.8z"/>
		<path class="st6" d="M988,405.3c-7.5,0-13.9-1.4-19.1-4.2c-5.3-2.8-9.3-6.4-12-11c-2.7-4.5-4.1-9.6-4.1-15.1
			c0-13.7,8.8-24.3,26.5-31.6c-3.2-4.3-6-8.7-8.4-13.1c-2.4-4.4-3.7-9.6-3.7-15.5c0-8,2.9-14.5,8.6-19.3c5.7-4.8,13.2-7.2,22.5-7.2
			c9.1,0,16.1,2,21.1,6c5,4,7.5,9.3,7.5,15.9c0,5.6-2.3,10.4-6.8,14.6c-4.5,4.2-11,8-19.4,11.6c2.2,2.4,4.4,4.9,6.7,7.6
			c2.3,2.7,4.7,5.3,7.2,7.9c3.1,3.4,6,6.6,8.9,9.7c2.9,3.1,5.8,6.2,8.8,9.5c2.7-3.7,5.3-8.3,7.7-13.6c2.4-5.3,4.2-10.9,5.6-16.8
			c0.9-4.3-0.7-7.1-4.9-8.3l-1.2-0.5v-1.7h19.2v1.7l-1.5,0.5c-3.7,1.2-6.2,3.9-7.3,7.8c-1.7,6.3-3.8,12.4-6.3,18
			c-2.5,5.7-5.4,10.8-8.7,15.5l18.2,19.2c1.5,1.6,2.9,2.9,4.4,3.9c1.5,1,3.1,2,4.9,3.1l2.4,1.2v1.7h-34.3l-11.4-12.2
			c-2.2,2.4-4.6,4.7-7.3,7c-2.7,2.3-6,4.1-9.9,5.6C998.1,404.5,993.4,405.3,988,405.3z M997.8,393.9c4,0,7.5-0.6,10.7-1.8
			c3.2-1.2,5.9-2.7,8.2-4.5c-2.7-3.1-5.6-6.3-8.5-9.6c-2.9-3.3-5.7-6.5-8.3-9.6c-3.2-3.7-6.3-7.5-9.3-11.2c-3-3.7-6-7.4-8.9-10.9
			c-2.9,2.7-5.1,5.9-6.5,9.5c-1.4,3.6-2,7.4-2,11.4c0,7.7,2.3,14.1,6.9,19.1S990.6,393.9,997.8,393.9z M998.7,334.2
			c4.4-4,7.6-8,9.6-12c2-4,3-8.5,3-13.3c0-4.4-1.1-8-3.4-10.8c-2.3-2.8-5.4-4.2-9.4-4.2c-3.7,0-6.9,1.4-9.3,4.1
			c-2.5,2.7-3.7,6.2-3.7,10.4c0,2.6,0.5,5.3,1.4,8.2c1,2.8,2.7,6.1,5.2,9.7c0.7,0.9,1.6,2,2.7,3.2
			C995.9,330.7,997.2,332.3,998.7,334.2z"/>
		<path class="st6" d="M1112.1,402.7V401l3.4-1.4c2.3-0.8,3.8-1.9,4.5-3.2c0.7-1.4,1.1-3.2,1.1-5.4v-88.7c0-2.3-0.3-4.1-1-5.4
			c-0.7-1.4-2.2-2.4-4.6-3.2l-3.4-1.4v-1.7h43.7v1.7l-3.4,1.4c-2.3,0.8-3.8,1.9-4.5,3.2c-0.7,1.4-1.1,3.2-1.1,5.4V391
			c0,2.3,0.4,4.1,1.1,5.4c0.7,1.3,2.2,2.4,4.5,3.3l3.4,1.4v1.7H1112.1z"/>
		<path class="st6" d="M1162.9,402.7V401l2.4-0.7c4-1.1,6-3.9,6-8.3v-53.2c0-2.5-0.4-4.3-1.2-5.5c-0.8-1.2-2.3-2-4.6-2.5l-2.5-0.7
			v-1.7l29.1-9.9l1.7,1.7l1.4,10.2c4-3.5,8.4-6.4,13.4-8.7c5-2.3,9.9-3.4,14.8-3.4c7.5,0,13.2,2,17.3,6.1c4,4.1,6,10.3,6,18.7v49
			c0,4.4,2.2,7.2,6.5,8.3l1.5,0.5v1.7h-40.1V401l2.2-0.7c4-1.2,6-4,6-8.3v-54.2c0-7.3-3.6-10.9-10.9-10.9c-5,0-10.4,2.5-16.3,7.5
			v57.8c0,4.4,2,7.2,6,8.3l1.5,0.5v1.7H1162.9z"/>
		<path class="st6" d="M1297.2,405.3c-6.7,0-12.7-1.5-18-4.5c-5.3-3-9.5-7.7-12.7-13.9c-3.1-6.3-4.7-14.4-4.7-24.2
			c0-10,1.8-18.2,5.3-24.7c3.5-6.5,8.2-11.4,13.9-14.6c5.8-3.2,12.1-4.8,18.9-4.8c4,0,7.8,0.4,11.4,1.2c3.6,0.8,6.9,2,9.7,3.6v-22.1
			c0-2.4-0.4-4.1-1.1-5.3c-0.7-1.1-2.3-1.9-4.7-2.4l-3.2-0.7V291l30.9-7.5l1.9,1.5l-0.7,23.8V392c0,2.3,0.4,4.1,1.2,5.5
			c0.8,1.4,2.3,2.4,4.4,3l1.5,0.5v1.7l-29.1,1.9l-1.5-6.1c-3.1,2-6.5,3.7-10.5,4.9S1301.9,405.3,1297.2,405.3z M1307,399
			c4.8,0,9.1-1.4,13.1-4.2v-67.5c-4.2-2.7-8.5-4.1-12.9-4.1c-5.4,0-10.1,3.1-13.9,9.4c-3.9,6.3-5.8,16.2-5.8,29.7
			c0,13.5,1.8,23,5.4,28.5C1296.6,396.2,1301.3,399,1307,399z"/>
		<path class="st6" d="M1359.2,402.7V401l2-0.7c4.1-1.4,6.1-4.2,6.1-8.5v-90.8c0-2.4-0.4-4.1-1.2-5.3c-0.8-1.1-2.3-2-4.6-2.6
			l-2.5-0.7v-1.7l29.9-7.3l2.7,1.5l-0.7,24v21.2c4-3.3,8.2-6.1,12.8-8.4c4.6-2.3,9.7-3.5,15.2-3.5c7.4,0,13.2,2.1,17.6,6.3
			c4.4,4.2,6.5,10.7,6.5,19.4V392c0,2.3,0.5,4.1,1.4,5.4c0.9,1.4,2.5,2.4,4.8,3.1l1.4,0.5v1.7h-39.8V401l2-0.5
			c4.1-1.4,6.1-4.2,6.1-8.7v-53.4c0-4.5-0.8-7.7-2.3-9.3c-1.5-1.7-4.2-2.6-8.1-2.6c-2.5,0-5.2,0.5-8.2,1.4c-2.9,1-6,2.6-9,5v59.2
			c0,4.4,2,7.3,6.1,8.5l1.4,0.3v1.7H1359.2z"/>
		<path class="st6" d="M1500.3,405.3c-8.6,0-16.1-1.8-22.4-5.4c-6.3-3.6-11.2-8.6-14.7-15.2c-3.5-6.6-5.2-14.3-5.2-23.1
			c0-8.8,1.8-16.5,5.5-22.9c3.7-6.5,8.7-11.4,15.1-15c6.4-3.5,13.6-5.3,21.7-5.3c8,0,15.2,1.7,21.6,5.2c6.3,3.5,11.4,8.4,15,14.9
			c3.7,6.5,5.5,14.2,5.5,23.1c0,9-1.7,16.7-5.2,23.2c-3.5,6.5-8.3,11.6-14.6,15.1S1508.9,405.3,1500.3,405.3z M1500.3,401.9
			c4,0,7.1-1.1,9.5-3.4c2.4-2.3,4.1-6.3,5.2-12.1c1.1-5.8,1.6-13.9,1.6-24.5c0-10.7-0.5-18.9-1.6-24.7c-1.1-5.8-2.8-9.8-5.2-12.1
			c-2.4-2.3-5.6-3.4-9.5-3.4c-4,0-7.2,1.1-9.6,3.4c-2.4,2.3-4.2,6.3-5.3,12.1c-1.1,5.8-1.6,14-1.6,24.7c0,10.5,0.5,18.7,1.6,24.5
			c1.1,5.8,2.8,9.8,5.3,12.1C1493.2,400.7,1496.4,401.9,1500.3,401.9z"/>
		<path class="st6" d="M1549.8,402.7V401l2-0.7c4.1-1.4,6.1-4.2,6.1-8.5v-91c0-2.3-0.5-4-1.4-5.2c-0.9-1.2-2.5-2.1-4.8-2.6l-2.2-0.5
			v-1.7l31.1-7.3l2,1.5l-0.7,23.8V367c0,4.2,0,8.4,0.1,12.5c0.1,4.1,0.1,8.2,0.1,12.3c0,2.3,0.5,4.1,1.4,5.5
			c0.9,1.4,2.4,2.5,4.6,3.1l2.2,0.5v1.7H1549.8z"/>
		<path class="st6" d="M1634,405.3c-6.7,0-12.7-1.5-18-4.5c-5.3-3-9.5-7.7-12.7-13.9c-3.1-6.3-4.7-14.4-4.7-24.2
			c0-10,1.8-18.2,5.3-24.7c3.5-6.5,8.2-11.4,13.9-14.6c5.8-3.2,12.1-4.8,18.9-4.8c4,0,7.8,0.4,11.4,1.2c3.6,0.8,6.9,2,9.7,3.6v-22.1
			c0-2.4-0.4-4.1-1.1-5.3c-0.7-1.1-2.3-1.9-4.7-2.4l-3.2-0.7V291l30.9-7.5l1.9,1.5l-0.7,23.8V392c0,2.3,0.4,4.1,1.2,5.5
			c0.8,1.4,2.3,2.4,4.4,3l1.5,0.5v1.7l-29.1,1.9l-1.5-6.1c-3.1,2-6.5,3.7-10.5,4.9S1638.7,405.3,1634,405.3z M1643.8,399
			c4.8,0,9.1-1.4,13.1-4.2v-67.5c-4.2-2.7-8.5-4.1-12.9-4.1c-5.4,0-10.1,3.1-13.9,9.4c-3.9,6.3-5.8,16.2-5.8,29.7
			c0,13.5,1.8,23,5.4,28.5C1633.3,396.2,1638,399,1643.8,399z"/>
	</g>
</g>
</svg>
