<?xml version="1.0" encoding="utf-8"?>
<!-- Generator: Adobe Illustrator 26.3.1, SVG Export Plug-In . SVG Version: 6.00 Build 0)  -->
<svg version="1.1" xmlns="http://www.w3.org/2000/svg" xmlns:xlink="http://www.w3.org/1999/xlink" x="0px" y="0px"
	 viewBox="0 0 1920 737" style="enable-background:new 0 0 1920 737;" xml:space="preserve">
<style type="text/css">
	.st0{fill:#E2D8C7;}
	.st1{fill:#D9B154;}
	.st2{fill:#B6D1DA;}
	.st3{fill:#BC6F27;}
	.st4{fill:#BAB5A8;}
	.st5{fill:#AA410B;}
	.st6{fill:#FFFFFF;}
	.st7{font-family:'WorkSans-Medium';}
	.st8{font-size:36.8863px;}
	.st9{font-family:'DMSerifDisplay-Regular';}
	.st10{font-size:170px;}
</style>
<g id="Layer_3">
	<rect class="st0" width="1920" height="737"/>
</g>
<g id="Layer_2">
</g>
<g id="Layer_1">
	<g id="Layer_4">
		<path class="st3" d="M1404.3,107.7c-40.1-16.3-83.7-21.5-125.2-33.9c-41.5-12.4-83.2-34.3-103.5-72.6c-0.4-0.7-0.7-1.5-1.1-2.2
			H720.8c-0.8,1.2-1.7,2.3-2.5,3.5c-28.4,39.6-57.2,79.9-73.9,125.7c-3,8.3-5.7,17-5.2,25.8c0.7,11,6.3,21.2,12.9,30.1
			c27,36.3,70.9,56.4,114.9,66.7c44.1,10.3,89.6,12.1,134.2,20c114.4,20.3,217.6,79.5,319.6,135.3c38.1,20.8,79.3,42,122.6,37.7
			c41.2-4,77.4-31.4,100.6-65.7c23.2-34.3,34.8-75,43.2-115.5c4.4-21.5,8-43.7,3.7-65.2C1482.2,155,1444.4,124,1404.3,107.7z"/>
		<path class="st5" d="M617.3,738.5c-13-33.5-31.7-61.9-52.8-80.6c-46-40.9-100.7-44.6-152.8-40.1s-104.7,16.4-156.4,3.3
			c-71-18.1-145.9-81.7-210.2-28.9c-16.6,13.6-34.5,45-46.4,81.3v65H617.3z"/>
		<path class="st2" d="M-1.3-1v241.7c7.5,12.9,17.7,23.3,31.7,28.8c18.9,7.4,42,4,58.2,16.3c7.5,5.7,12.4,14,17.1,22.1
			c17.7,30.4,35.7,61.6,42.2,96.2c7.5,40,1.9,88.5,33.6,114c29.9,24,77.8,9.2,100.8-21.4c23-30.7,27.1-71.3,27.3-109.7
			c0.7-99.3-17.3-205.1,28.7-293.1c4.6-8.8,10.4-17.8,19.6-21.6c10-4.1,21.4-1,32.1,0.9c26.2,4.6,55.3,0.3,75.2-17.4
			c25.5-22.6,30.4-41.4,23.2-56.8H-1.3z"/>
		<path class="st4" d="M1651.4-1c-53.2,43.8-76.9,111.4,17,124.2c77.2,10.5,164.4,8.4,251.7-3V-1H1651.4z"/>
		<path class="st1" d="M913.5,738.5h817.8c0.3-21.9-13-45.8-31.3-59.8c-27.1-20.7-62-28.5-91.1-46.3
			c-54.4-33.2-90.1-100.7-153.2-109.7c-49.4-7-94.5,25.5-137.2,51.4c-42.7,25.9-99.8,45.7-140,16.1c-41.7-30.7-28.8-79.3-77.9-105.6
			c-43.8-23.5-106.6-6.7-110.1,10.2c-1.6,7.5,9.5,10,10.9,21.7c2.4,20.9-28.4,33-65.7,71.3c-32.4,33.4-42.9,70.9-33.5,117.2
			C904.9,717.8,908.6,728.8,913.5,738.5z"/>
	</g>
	<text transform="matrix(1 0 0 1 900.0941 512.856)" class="st6 st7 st8">Tema 5</text>
	<text transform="matrix(1 0 0 1 227.9073 402.7188)" class="st6 st9 st10">Redesign &amp; Indhold</text>
</g>
</svg>
