<?xml version="1.0" encoding="utf-8"?>
<!-- Generator: Adobe Illustrator 26.3.1, SVG Export Plug-In . SVG Version: 6.00 Build 0)  -->
<svg version="1.1" id="Layer_1" xmlns="http://www.w3.org/2000/svg" xmlns:xlink="http://www.w3.org/1999/xlink" x="0px" y="0px"
	 viewBox="0 0 474.3 409.9" style="enable-background:new 0 0 474.3 409.9;" xml:space="preserve">
<style type="text/css">
	.st0{clip-path:url(#SVGID_00000046298715088276722500000017593577474496052397_);fill:#D9B154;}
	.st1{clip-path:url(#SVGID_00000046298715088276722500000017593577474496052397_);fill:#BAB5A8;}
	.st2{clip-path:url(#SVGID_00000046298715088276722500000017593577474496052397_);fill:#9B9891;}
	.st3{clip-path:url(#SVGID_00000046298715088276722500000017593577474496052397_);fill:#FFFFFF;}
	.st4{clip-path:url(#SVGID_00000046298715088276722500000017593577474496052397_);fill:#FCFCFC;}
	.st5{fill:#FFFFFF;}
	.st6{fill:#E2D8C7;}
	.st7{fill:#D9B154;}
	.st8{fill:#B6D1DA;}
	.st9{fill:#BC6F27;}
	.st10{fill:#BAB5A8;}
	.st11{fill:#AA410B;}
	.st12{clip-path:url(#SVGID_00000137826359261074451310000009652476477783762614_);}
	.st13{fill:#92AFB7;}
	.st14{fill:#F7F2EB;}
	.st15{fill:#FCFCFC;}
	.st16{fill:#9B9891;}
	.st17{fill:none;stroke:#B6D1DA;stroke-width:17;stroke-miterlimit:10;}
	.st18{fill:none;stroke:#AA410B;stroke-width:17;stroke-miterlimit:10;}
</style>
<g>
	<path class="st17" d="M120.7,184.9v35.2l19.8,3.6c0,0,3.9,0.2,5.9,5.2c2,4.9,10.3,24.9,10.3,24.9s2.5,5.2,0,9.1
		c-2.5,3.9-11.6,18.7-11.6,18.7l24.9,25.1l14.8-9.1c0,0,7.6-5.4,13.3-2.2c5.7,3.2,22.4,9.4,22.4,9.4s4.7-0.7,6.4,6.6
		c1.7,7.4,4.9,20.9,4.9,20.9h35.7l4.7-19.2c0,0,1.7-6.6,5.2-7.6c3.4-1,22.9-9.4,22.9-9.4s5.7-3.4,11.3-0.5
		c5.7,3,17.5,11.3,17.5,11.3l25.9-25.1L344,264.4c0,0-3.4-3.4,0-10.1c3.4-6.6,8.6-22.9,8.6-22.9s2.2-5.9,6.6-6.2
		c4.4-0.2,21.2-5.2,21.2-5.2v-35.1l-20.9-5.3c0,0-4.7-0.5-6.4-5.4c-1.7-4.9-10.3-24.1-10.3-24.1s-4.2-5.9,2.2-12.3
		c6.4-6.4,9.6-14.8,9.6-14.8l-25.1-25.6l-17,10.6c0,0-1.7,4.2-10.3,0.5c-8.6-3.7-24.6-9.6-24.6-9.6s-3.7-1-5.4-8.1
		c-1.7-7.1-4.2-18.7-4.2-18.7h-36.2L228,92.5c0,0,0.5,5.7-7.6,7.4c-8.1,1.7-21.9,9.1-21.9,9.1s-3.7,3.2-9.6,0
		c-5.9-3.2-17.7-11.3-17.7-11.3L146,122.1l10.3,18c0,0,2.7,4.2,0.2,10.3c-2.5,6.2-8.9,22.4-8.9,22.4s0,5.2-6.4,6.6
		C134.9,180.9,120.7,184.9,120.7,184.9z"/>
	<circle class="st17" cx="250.6" cy="202.2" r="57.4"/>
</g>
</svg>
