<?xml version="1.0" encoding="utf-8"?>
<!-- Generator: Adobe Illustrator 26.3.1, SVG Export Plug-In . SVG Version: 6.00 Build 0)  -->
<svg version="1.1" id="Layer_1" xmlns="http://www.w3.org/2000/svg" xmlns:xlink="http://www.w3.org/1999/xlink" x="0px" y="0px"
	 viewBox="0 0 474.3 409.9" style="enable-background:new 0 0 474.3 409.9;" xml:space="preserve">
<style type="text/css">
	.st0{clip-path:url(#SVGID_00000130626083665414997960000011313389412953039015_);fill:#D9B154;}
	.st1{clip-path:url(#SVGID_00000130626083665414997960000011313389412953039015_);fill:#BAB5A8;}
	.st2{clip-path:url(#SVGID_00000130626083665414997960000011313389412953039015_);fill:#9B9891;}
	.st3{clip-path:url(#SVGID_00000130626083665414997960000011313389412953039015_);fill:#FFFFFF;}
	.st4{clip-path:url(#SVGID_00000130626083665414997960000011313389412953039015_);fill:#FCFCFC;}
	.st5{fill:#FFFFFF;}
	.st6{fill:#E2D8C7;}
	.st7{fill:#D9B154;}
	.st8{fill:#B6D1DA;}
	.st9{fill:#BC6F27;}
	.st10{fill:#BAB5A8;}
	.st11{fill:#AA410B;}
	.st12{clip-path:url(#SVGID_00000119828477697547986730000004889225597270837646_);}
	.st13{fill:#92AFB7;}
	.st14{fill:#F7F2EB;}
	.st15{fill:#FCFCFC;}
	.st16{fill:#9B9891;}
	.st17{fill:none;stroke:#B6D1DA;stroke-width:17;stroke-miterlimit:10;}
	.st18{fill:none;stroke:#AA410B;stroke-width:17;stroke-miterlimit:10;}
</style>
<g>
	<path class="st9" d="M265.8,300h-53.6c-4.8,0-8.6-3.9-8.6-8.6v-0.3c0-4.8,3.9-8.6,8.6-8.6h53.6c4.8,0,8.6,3.9,8.6,8.6v0.3
		C274.5,296.2,270.6,300,265.8,300z"/>
	<path class="st9" d="M254.5,327.1h-31c-3.8,0-6.9-3.1-6.9-6.9v-3.8c0-3.8,3.1-6.9,6.9-6.9h31c3.8,0,6.9,3.1,6.9,6.9v3.8
		C261.4,324,258.3,327.1,254.5,327.1z"/>
	<path class="st9" d="M269.2,273h-60.4c-4.8,0-8.8-3.9-8.8-8.8v0c0-4.8,3.9-8.8,8.8-8.8h60.4c4.8,0,8.8,3.9,8.8,8.8v0
		C278,269.1,274.1,273,269.2,273z"/>
	<path class="st9" d="M307.8,197.3c0.4,0-10.4,15.5-14.6,19.8c-6.6,6.7-12.2,10.9-12.6,17.9c-0.1,1.9,0.2,4-1.1,6.8
		c-1.5,3-4.9,6.7-8.8,6.5c-4.7-0.2-7.6-6-7.9-6.5c-4.2-7.2,1.9-17.8,9.2-26.6c0.1-0.2,0.2-0.3,0.4-0.5c2.3-2.8,4.8-5.4,7-7.7
		c0,0,0,0,0,0c3-2.3,5.8-5,8.4-7.8l0,0c10.2-11.3,16.3-26.2,16.3-42.5c0-35.6-29.3-64.4-65.5-64.4s-65.5,28.8-65.5,64.4
		c0,4.8,0.1,13.5,4.4,23.1c3.1,7.1,8.1,13.5,12.9,19c0,0,0.1,0,0.1,0.1c2.6,2.2,33.6,28.8,25.3,42.9c-0.3,0.5-3.2,6.3-7.9,6.5
		c-3.9,0.2-7.3-3.5-8.8-6.5c-1.3-2.7-1-4.8-1.1-6.8c-0.4-7-6.1-11.2-12.6-17.9c-2.7-2.8-6-6.4-9.6-11.2
		c-11.4-13.5-18.1-30.6-18.1-49.3c0-43.3,36.3-78.3,81-78.3s81,35.1,81,78.3C319.6,171.4,315.3,185.4,307.8,197.3z"/>
	<path class="st9" d="M279.3,206.8c-2.2,2.3-4.7,4.9-7,7.7c1.1-1.5,2.3-3,2.7-3.4c0.4-0.3,0.9-0.8,1.5-1.6c0.6-0.7,1.1-1.3,1.4-1.7
		C278.4,207.6,278.8,207.2,279.3,206.8z"/>
	<path class="st9" d="M287.7,199c-2.6,2.8-5.4,5.5-8.4,7.8C283.2,202.9,286.5,200,287.7,199z"/>
	<path class="st9" d="M246.2,123.7c0,0,21.5,4.7,24.3,26.2c0,0-0.6,11.5,7.6,11.5s8.7-10.4,8.7-10.4s2-27.8-31.1-40.5
		c0,0-6.9-4.7-12.2,1.8C238,118.7,246.2,123.7,246.2,123.7z"/>
	<path class="st9" d="M238.8,61.4h-0.3c-5,0-9-4-9-9V39.5c0-5,4-9,9-9h0.3c5,0,9,4,9,9v12.9C247.8,57.4,243.8,61.4,238.8,61.4z"/>
	<path class="st9" d="M145.8,246.6L145.8,246.6c-3.4-3.6-3.1-9.3,0.6-12.6l10.1-8.8c3.8-3.3,9.6-3,13,0.6l0,0
		c3.4,3.6,3.1,9.3-0.6,12.6l-10.1,8.8C155.1,250.5,149.2,250.2,145.8,246.6z"/>
	<path class="st9" d="M107.3,158L107.3,158c0-4.9,4-8.9,8.9-8.9h14.2c4.9,0,8.9,4,8.9,8.9v0c0,4.9-4,8.9-8.9,8.9h-14.2
		C111.3,166.9,107.3,162.9,107.3,158z"/>
	<path class="st9" d="M143.9,68.5L143.9,68.5c3.2-3.8,9-4.5,12.9-1.4l10.6,8.2c4,3.1,4.6,8.7,1.4,12.5l0,0c-3.2,3.8-9,4.5-12.9,1.4
		L145.3,81C141.4,77.9,140.7,72.4,143.9,68.5z"/>
	<path class="st9" d="M332.8,245.2L332.8,245.2c3.4-3.6,3.1-9.3-0.6-12.6l-10.1-8.8c-3.8-3.3-9.6-3-13,0.6v0
		c-3.4,3.6-3.1,9.3,0.6,12.6l10.1,8.8C323.6,249.2,329.4,248.9,332.8,245.2z"/>
	<path class="st9" d="M371.4,156.7L371.4,156.7c0-4.9-4-8.9-8.9-8.9h-14.2c-4.9,0-8.9,4-8.9,8.9v0c0,4.9,4,8.9,8.9,8.9h14.2
		C367.4,165.6,371.4,161.6,371.4,156.7z"/>
	<path class="st9" d="M334.7,67.2L334.7,67.2c-3.2-3.8-9-4.5-12.9-1.4L311.2,74c-4,3.1-4.6,8.7-1.4,12.5l0,0c3.2,3.8,9,4.5,12.9,1.4
		l10.6-8.2C337.3,76.6,337.9,71,334.7,67.2z"/>
</g>
</svg>
