<?xml version="1.0" encoding="utf-8"?>
<!-- Generator: Adobe Illustrator 26.3.1, SVG Export Plug-In . SVG Version: 6.00 Build 0)  -->
<svg version="1.1" xmlns="http://www.w3.org/2000/svg" xmlns:xlink="http://www.w3.org/1999/xlink" x="0px" y="0px"
	 viewBox="0 0 1920 737" style="enable-background:new 0 0 1920 737;" xml:space="preserve">
<style type="text/css">
	.st0{fill:#E2D8C7;}
	.st1{fill:#D9B154;}
	.st2{fill:#B6D1DA;}
	.st3{fill:#BC6F27;}
	.st4{fill:#BAB5A8;}
	.st5{fill:#AA410B;}
	.st6{fill:#FFFFFF;}
	.st7{font-family:'DMSerifDisplay-Regular';}
	.st8{font-size:176px;}
	.st9{font-family:'WorkSans-Medium';}
	.st10{font-size:36.8863px;}
</style>
<g id="Layer_3">
	<rect y="0.3" class="st0" width="1920" height="734"/>
</g>
<g id="Layer_2">
	<path class="st5" d="M868.8,0.3c1.3,6,3.3,12.6,6.2,19.8c18.3,47,33.3,89.1,29.8,140.7c-1.9,28.9-6.2,64,17.1,81.2
		c19.7,14.6,49.7,7.6,68.9,22.8c15.1,11.9,18.3,33.3,28.2,49.9c22.8,38.4,75.6,44.2,120.1,41.3c44.5-3,93.8-9.2,129.8,17.2
		c22.9,16.8,36.6,44.6,61.1,59c26.1,15.3,58.6,12.3,88.7,8.8c47.8-5.6,104.7-18,121.5-63.1c8.3-22.5,3.1-49.4-13-67.1
		c-23.6-25.9-70.4-39.7-67.2-74.5c1.1-11.9,8.5-22.1,15.5-31.8c38.8-54.4,69.7-114.5,91.4-177.7c3-8.7,5.5-18.9,0.6-26.5H868.8z"/>
</g>
<g id="Layer_1">
	<g id="Layer_4">
	</g>
	<path class="st4" d="M-1.3,0.3v394.8c18.5-22.2,39.3-41.9,55.8-66c34.2-35.2,67.6-78.9,63.5-127.8c-1.5-17.6-7.9-34.7-8-52.4
		c-0.3-38.8,34.3-74.6,73.1-75.4c31.3-0.7,59.5,17.8,89.8,25.4c19.1,4.7,39.1,5,58.8,4c30.4-1.6,64.3-8.5,81.4-33.8
		c13.8-20.5,11.2-46.8-0.9-68.8H-1.3z"/>
	<path class="st2" d="M148.1,529.6c44.8,3.6,94.2-7.6,131.7,17.1c48.2,31.7,48.1,102.3,79.9,150.3c9.9,14.9,22.9,27.4,37.6,37.4
		h284.3c18.3-24.7,16.6-60.7,21.3-92.3c10.1-66.4,54.4-136.8,20.8-195c-18.2-31.6-55.1-48.3-75.9-78.4
		c-16.4-23.8-21.2-53.6-33.9-79.6c-18-36.9-52.7-65.3-92.5-75.7c-84.1-21.8-168.4,34.8-255.3,37.6c-14.6,0.5-29.9-0.5-43.1,6
		c-16.8,8.2-26,26.5-33.9,43.4C170.2,341.4,45.2,521.3,148.1,529.6z"/>
	<text transform="matrix(1 0 0 1 325.8832 402.7188)" class="st6 st7 st8">User Experience</text>
	<text transform="matrix(1 0 0 1 900.0941 512.856)" class="st6 st9 st10">Tema 3</text>
	<path class="st1" d="M1598.9,734.3c-1.3-23.3-19-47.5-35.9-66.1c-44.5-49.1-99.4-102.5-165.3-95.9c-22.9,2.3-44.2,11.9-65.8,19.6
		c-74.3,26.8-154.1,33-232.9,38.6c-37.2,2.6-78.3,7-103.2,34.7c-9.2,10.3-20.5,40.9-23.8,69.1H1598.9z"/>
	<path class="st3" d="M1920.1,176.4c-21.2-11.6-43.3-20.9-58.7-26.2c-40.2-13.8-91.6-8.4-115.6,26.7c-33.8,49.5,6.2,119-11.4,176.3
		c-13,42.1-55.1,70.7-66.6,113.2c-5.6,20.6-3.1,43.2,6.7,62.1c5.7,11,14.1,21,25.2,26.8c23.4,12.2,53.3,2.6,73.1-14.9
		c19.9-17.5,32.5-41.4,47.2-63.4s33.2-43.5,58.4-51.3c13.1-4.1,27.9-4.5,41.7-6.4V176.4z"/>
</g>
</svg>
