<?xml version="1.0" encoding="utf-8"?>
<!-- Generator: Adobe Illustrator 26.3.1, SVG Export Plug-In . SVG Version: 6.00 Build 0)  -->
<svg version="1.1" xmlns="http://www.w3.org/2000/svg" xmlns:xlink="http://www.w3.org/1999/xlink" x="0px" y="0px"
	 viewBox="0 0 1920 737" style="enable-background:new 0 0 1920 737;" xml:space="preserve">
<style type="text/css">
	.st0{fill:#E2D8C7;}
	.st1{fill:#D9B154;}
	.st2{fill:#B6D1DA;}
	.st3{fill:#BC6F27;}
	.st4{fill:#BAB5A8;}
	.st5{fill:#AA410B;}
	.st6{fill:#FFFFFF;}
</style>
<g id="Layer_3">
	<rect y="0.3" class="st0" width="1920" height="734"/>
</g>
<g id="Layer_2">
	<path class="st5" d="M868.8,0.3c1.3,6,3.3,12.6,6.2,19.8c18.3,47,33.3,89.1,29.8,140.7c-1.9,28.9-6.2,64,17.1,81.2
		c19.7,14.6,49.7,7.6,68.9,22.8c15.1,11.9,18.3,33.3,28.2,49.9c22.8,38.4,75.6,44.2,120.1,41.3c44.5-3,93.8-9.2,129.8,17.2
		c22.9,16.8,36.6,44.6,61.1,59c26.1,15.3,58.6,12.3,88.7,8.8c47.8-5.6,104.7-18,121.5-63.1c8.3-22.5,3.1-49.4-13-67.1
		c-23.6-25.9-70.4-39.7-67.2-74.5c1.1-11.9,8.5-22.1,15.5-31.8c38.8-54.4,69.7-114.5,91.4-177.7c3-8.7,5.5-18.9,0.6-26.5H868.8z"/>
</g>
<g id="Layer_1">
	<g id="Layer_4">
	</g>
	<path class="st4" d="M-1.3,0.3v394.8c18.5-22.2,39.3-41.9,55.8-66c34.2-35.2,67.6-78.9,63.5-127.8c-1.5-17.6-7.9-34.7-8-52.4
		c-0.3-38.8,34.3-74.6,73.1-75.4c31.3-0.7,59.5,17.8,89.8,25.4c19.1,4.7,39.1,5,58.8,4c30.4-1.6,64.3-8.5,81.4-33.8
		c13.8-20.5,11.2-46.8-0.9-68.8H-1.3z"/>
	<path class="st2" d="M148.1,529.6c44.8,3.6,94.2-7.6,131.7,17.1c48.2,31.7,48.1,102.3,79.9,150.3c9.9,14.9,22.9,27.4,37.6,37.4
		h284.3c18.3-24.7,16.6-60.7,21.3-92.3c10.1-66.4,54.4-136.8,20.8-195c-18.2-31.6-55.1-48.3-75.9-78.4
		c-16.4-23.8-21.2-53.6-33.9-79.6c-18-36.9-52.7-65.3-92.5-75.7c-84.1-21.8-168.4,34.8-255.3,37.6c-14.6,0.5-29.9-0.5-43.1,6
		c-16.8,8.2-26,26.5-33.9,43.4C170.2,341.4,45.2,521.3,148.1,529.6z"/>
	<g>
		<path class="st6" d="M385.5,405.9c-8.9,0-16.8-1.6-23.7-4.8c-6.9-3.2-12.2-8.2-16-15c-3.8-6.9-5.7-15.9-5.7-27.2v-60.7
			c0-4.5-2.3-7.4-6.9-8.8l-3.9-1.1v-1.8h48.8v1.8l-5.1,1.4c-4.3,1.1-6.5,4-6.5,8.8v64.9c0,10.9,2.3,19,6.9,24.2
			c4.6,5.2,11.1,7.8,19.7,7.8c8.9,0,16-2.8,21.2-8.3c5.2-5.5,7.8-13.3,7.8-23.4v-64.6c0-2.3-0.4-4.4-1.1-6.2c-0.8-1.8-2.3-3-4.7-3.6
			l-4.4-1.1v-1.8h24.6v1.8l-4.8,1.2c-2.2,0.5-3.7,1.6-4.4,3.3c-0.7,1.8-1.1,3.8-1.1,6.2v64.4c0,8.6-1.7,16-5.1,22.4
			c-3.4,6.4-8.2,11.3-14.3,14.8C400.9,404.2,393.8,405.9,385.5,405.9z"/>
		<path class="st6" d="M467,405.4c-5.8,0-10.9-0.7-15.5-2c-4.6-1.3-8.8-3-12.7-5l0.2-20.9h1.8l6,10.6c2.6,4.7,5.4,8.2,8.5,10.5
			c3.1,2.3,7.1,3.4,11.9,3.4c5.6,0,10.2-1.3,13.6-3.8c3.5-2.5,5.2-5.9,5.2-10.1c0-3.9-1.2-7-3.7-9.5c-2.5-2.5-7-4.7-13.7-6.7
			l-7.4-2.3c-7.2-2.1-12.8-5.4-16.9-9.9c-4.1-4.5-6.2-9.9-6.2-16.4c0-7.7,3-14.3,9.2-19.7c6.1-5.4,14.8-8.1,26.2-8.1
			c4.6,0,8.9,0.5,12.9,1.5c4,1,7.9,2.5,11.7,4.5l-1.1,19h-1.8l-6.2-10.9c-2.2-3.9-4.4-6.6-6.6-8.2c-2.2-1.6-5.4-2.4-9.8-2.4
			c-4,0-7.7,1.1-11.3,3.3c-3.5,2.2-5.3,5.4-5.3,9.5c0,4,1.5,7.2,4.5,9.5c3,2.3,7.4,4.5,13.3,6.5l7.9,2.3c8.4,2.6,14.5,6.1,18.1,10.6
			c3.6,4.5,5.5,9.9,5.5,16.3c0,8.6-3.4,15.4-10.1,20.6C488.7,402.8,479.2,405.4,467,405.4z"/>
		<path class="st6" d="M557.5,315.4c7.6,0,14.1,1.6,19.5,4.7c5.4,3.1,9.5,7.3,12.4,12.7c2.9,5.3,4.3,11.4,4.3,18.2
			c0,1.3-0.1,2.6-0.2,4c-0.1,1.4-0.4,2.6-0.7,3.6h-52.4c0.1,12.7,2.4,21.8,6.8,27.4c4.4,5.6,10.9,8.4,19.6,8.4
			c5.9,0,10.6-0.9,14.3-2.8c3.6-1.9,7-4.6,10.2-8.3l1.8,1.6c-3.6,6.5-8.5,11.5-14.5,15.1c-6,3.6-13.3,5.5-21.7,5.5
			c-8.3,0-15.7-1.8-22.2-5.4c-6.5-3.6-11.5-8.7-15.1-15.4c-3.6-6.7-5.5-14.7-5.5-23.9c0-9.6,2.1-17.8,6.3-24.6
			c4.2-6.7,9.6-11.9,16.3-15.4C543.3,317.2,550.2,315.4,557.5,315.4z M557,318.9c-3.4,0-6.3,1-8.7,3.1c-2.4,2.1-4.3,5.7-5.6,10.9
			c-1.4,5.2-2.1,12.6-2.2,22.1h30.1c1.2-12.8,0.7-22-1.4-27.6C567,321.8,563,318.9,557,318.9z"/>
		<path class="st6" d="M602.6,402.7V401l2.6-0.7c2.3-0.7,4-1.8,4.8-3.2c0.9-1.4,1.3-3.2,1.3-5.5v-55.1c0-2.6-0.4-4.5-1.3-5.7
			c-0.9-1.2-2.5-2.1-4.8-2.6l-2.6-0.7v-1.8l30.3-10.2l1.8,1.8l1.6,15.1v1.4c1.6-3.3,3.8-6.3,6.4-9.1c2.6-2.8,5.6-5,8.8-6.8
			c3.2-1.8,6.4-2.6,9.6-2.6c4.5,0,7.9,1.2,10.2,3.7c2.3,2.5,3.5,5.6,3.5,9.3c0,4-1.1,7.1-3.4,9.2c-2.3,2.2-5,3.3-8.2,3.3
			c-4.9,0-9.3-2.5-13-7.4l-0.4-0.4c-1.2-1.6-2.5-2.6-4-2.7c-1.5-0.2-2.9,0.6-4.2,2.2c-1.2,1.1-2.1,2.3-2.9,3.8
			c-0.8,1.5-1.5,3.1-2.2,5v49.1c0,4.7,2.1,7.6,6.2,8.8l5.6,1.6v1.8H602.6z"/>
		<path class="st6" d="M718.9,402.7V401l4-1.6c2-0.8,3.4-1.9,4.1-3.3c0.8-1.3,1.1-3.2,1.1-5.5v-91.9c0-2.3-0.3-4.2-1-5.5
			c-0.6-1.3-2.1-2.4-4.3-3.3l-4-1.6v-1.8h84.3l1.1,27.1h-1.8l-7.6-16.5c-1.1-2.1-2.2-3.8-3.3-5.1c-1.2-1.3-2.9-1.9-5.3-1.9h-31.7
			v50.9h18.8c2.3,0,4.1-0.6,5.4-1.8c1.2-1.2,2.3-2.9,3.3-5l3.5-7h1.8v31.7h-1.8l-3.5-7.4c-1.1-2.1-2.2-3.8-3.3-5
			c-1.2-1.2-2.9-1.8-5.3-1.8h-18.8v54.7h35.6c2.3,0,4.2-0.6,5.5-1.8c1.3-1.2,2.3-3,3.2-5.2l7.2-16.5h1.8l-1.1,27.1H718.9z"/>
		<path class="st6" d="M815,402.7V401l4.6-1.1c2.7-0.6,4.9-1.5,6.6-2.7c1.7-1.2,3.3-3,4.8-5.2l19-27.3l-23.9-38
			c-1.2-1.8-2.2-3.1-3.2-4c-0.9-0.9-2.4-1.6-4.4-2.1l-2.5-0.7v-1.8h44.7v1.8l-3,0.7c-4.1,1.3-4.9,3.9-2.5,7.7l14.4,22.4l15.7-21.6
			c1.3-2,1.9-3.7,1.8-5c-0.1-1.3-1.2-2.3-3.4-2.9l-4.4-1.2v-1.8h25.7v1.8l-4.2,1.1c-2.6,0.7-4.6,1.6-6,2.7c-1.4,1.1-2.9,2.8-4.6,5.2
			l-18.5,25l24.1,37.5c2.9,4.6,6.9,7.5,11.8,8.8l2.8,0.9v1.8H862V401l3-0.7c2-0.5,3.3-1.4,3.8-2.9c0.5-1.5,0.2-3.1-1-5l-15.5-24.1
			l-16.7,24.3c-1.4,1.9-1.8,3.5-1.3,4.8c0.5,1.4,1.7,2.3,3.6,2.7l3.5,0.9v1.8H815z"/>
		<path class="st6" d="M912.7,443.2v-1.8l2.1-0.7c4.3-1.2,6.5-4,6.5-8.4v-95.7c0-2.6-0.4-4.5-1.3-5.8c-0.9-1.3-2.5-2.2-4.8-2.6
			l-2.5-0.5v-1.8l29.9-10.2l1.8,1.8l1.6,5.5c3.9-2.3,8.2-4.2,12.9-5.5c4.8-1.3,9.6-1.9,14.7-1.9c10.1,0,18.1,3.8,24,11.5
			c5.9,7.7,8.9,18.7,8.9,33c0,14.1-3.3,25.2-9.8,33.3c-6.5,8.1-15.7,12.1-27.5,12.1c-9.3,0-17.1-1.4-23.4-4v30.4
			c0,4.7,2.1,7.6,6.3,8.8l3.3,0.9v1.8H912.7z M960.7,400.3c5.9,0,10.5-3,14-9.2c3.5-6.1,5.2-16.2,5.2-30.4c0-14.2-1.6-24.1-4.9-29.8
			c-3.3-5.7-8-8.5-14.3-8.5c-4.3,0-9.2,1.4-14.4,4.2v70.9C950.7,399.3,955.5,400.3,960.7,400.3z"/>
		<path class="st6" d="M1059.6,315.4c7.6,0,14.1,1.6,19.5,4.7c5.4,3.1,9.5,7.3,12.4,12.7c2.9,5.3,4.3,11.4,4.3,18.2
			c0,1.3-0.1,2.6-0.2,4c-0.1,1.4-0.4,2.6-0.7,3.6h-52.4c0.1,12.7,2.4,21.8,6.8,27.4c4.4,5.6,10.9,8.4,19.6,8.4
			c5.9,0,10.6-0.9,14.3-2.8c3.6-1.9,7-4.6,10.2-8.3l1.8,1.6c-3.6,6.5-8.5,11.5-14.5,15.1c-6,3.6-13.3,5.5-21.7,5.5
			c-8.3,0-15.7-1.8-22.2-5.4c-6.5-3.6-11.5-8.7-15.1-15.4c-3.6-6.7-5.5-14.7-5.5-23.9c0-9.6,2.1-17.8,6.3-24.6
			c4.2-6.7,9.7-11.9,16.3-15.4C1045.4,317.2,1052.3,315.4,1059.6,315.4z M1059.1,318.9c-3.4,0-6.3,1-8.7,3.1
			c-2.4,2.1-4.3,5.7-5.6,10.9c-1.4,5.2-2.1,12.6-2.2,22.1h30.1c1.2-12.8,0.7-22-1.4-27.6C1069.1,321.8,1065.1,318.9,1059.1,318.9z"
			/>
		<path class="st6" d="M1104.7,402.7V401l2.6-0.7c2.3-0.7,4-1.8,4.8-3.2c0.9-1.4,1.3-3.2,1.3-5.5v-55.1c0-2.6-0.4-4.5-1.3-5.7
			c-0.9-1.2-2.5-2.1-4.8-2.6l-2.6-0.7v-1.8l30.3-10.2l1.8,1.8l1.6,15.1v1.4c1.6-3.3,3.8-6.3,6.4-9.1c2.6-2.8,5.6-5,8.8-6.8
			c3.2-1.8,6.4-2.6,9.6-2.6c4.5,0,7.9,1.2,10.2,3.7c2.3,2.5,3.5,5.6,3.5,9.3c0,4-1.1,7.1-3.4,9.2c-2.3,2.2-5,3.3-8.2,3.3
			c-4.9,0-9.3-2.5-13-7.4l-0.4-0.4c-1.2-1.6-2.5-2.6-4-2.7c-1.5-0.2-2.9,0.6-4.2,2.2c-1.2,1.1-2.1,2.3-2.9,3.8
			c-0.8,1.5-1.5,3.1-2.2,5v49.1c0,4.7,2.1,7.6,6.2,8.8l5.6,1.6v1.8H1104.7z"/>
		<path class="st6" d="M1182.6,402.7V401l2.5-0.7c2.3-0.7,4-1.8,4.8-3.2c0.9-1.4,1.3-3.3,1.3-5.6v-55.1c0-2.5-0.4-4.3-1.3-5.5
			c-0.9-1.2-2.5-2.1-4.8-2.6l-2.5-0.5V326l32.2-10.4l1.8,1.8l-0.5,25v49.3c0,2.3,0.4,4.2,1.3,5.6c0.9,1.4,2.4,2.5,4.7,3.2l1.8,0.5
			v1.8H1182.6z M1203.4,306.3c-4,0-7.4-1.3-10.1-3.8c-2.8-2.5-4.1-5.7-4.1-9.6c0-4,1.4-7.2,4.1-9.7c2.8-2.5,6.1-3.7,10.1-3.7
			c4,0,7.3,1.2,10,3.7c2.7,2.5,4,5.7,4,9.7c0,3.9-1.3,7.1-4,9.6C1210.7,305,1207.4,306.3,1203.4,306.3z"/>
		<path class="st6" d="M1275.7,315.4c7.6,0,14.1,1.6,19.5,4.7c5.4,3.1,9.5,7.3,12.4,12.7c2.9,5.3,4.3,11.4,4.3,18.2
			c0,1.3-0.1,2.6-0.2,4c-0.1,1.4-0.4,2.6-0.7,3.6h-52.4c0.1,12.7,2.4,21.8,6.8,27.4c4.4,5.6,10.9,8.4,19.6,8.4
			c5.9,0,10.6-0.9,14.3-2.8c3.6-1.9,7-4.6,10.2-8.3l1.8,1.6c-3.6,6.5-8.5,11.5-14.5,15.1c-6,3.6-13.3,5.5-21.7,5.5
			c-8.3,0-15.7-1.8-22.2-5.4c-6.5-3.6-11.5-8.7-15.1-15.4c-3.6-6.7-5.5-14.7-5.5-23.9c0-9.6,2.1-17.8,6.3-24.6
			c4.2-6.7,9.7-11.9,16.3-15.4C1261.5,317.2,1268.5,315.4,1275.7,315.4z M1275.2,318.9c-3.4,0-6.3,1-8.7,3.1
			c-2.4,2.1-4.3,5.7-5.6,10.9c-1.4,5.2-2.1,12.6-2.2,22.1h30.1c1.2-12.8,0.7-22-1.4-27.6C1285.2,321.8,1281.2,318.9,1275.2,318.9z"
			/>
		<path class="st6" d="M1320.8,402.7V401l2.5-0.7c4.1-1.2,6.2-4,6.2-8.6v-55.1c0-2.6-0.4-4.5-1.2-5.7c-0.8-1.2-2.4-2.1-4.8-2.6
			l-2.6-0.7v-1.8l30.1-10.2l1.8,1.8l1.4,10.6c4.1-3.6,8.7-6.6,13.9-9c5.2-2.3,10.3-3.5,15.3-3.5c7.7,0,13.7,2.1,17.9,6.3
			c4.2,4.2,6.2,10.7,6.2,19.4v50.7c0,4.6,2.2,7.5,6.7,8.6l1.6,0.5v1.8h-41.5V401l2.3-0.7c4.1-1.3,6.2-4.2,6.2-8.6v-56.1
			c0-7.5-3.8-11.3-11.3-11.3c-5.2,0-10.8,2.6-16.9,7.7v59.8c0,4.6,2.1,7.5,6.2,8.6l1.6,0.5v1.8H1320.8z"/>
		<path class="st6" d="M1466.2,405.4c-8,0-15.2-1.7-21.7-5.2c-6.5-3.5-11.7-8.5-15.5-15.1c-3.8-6.6-5.7-14.8-5.7-24.4
			c0-9.5,2.1-17.6,6.2-24.4c4.2-6.7,9.7-11.9,16.7-15.5c7-3.6,14.6-5.4,23-5.4c6.8,0,12.6,1.1,17.2,3.3c4.7,2.2,8.3,5.1,10.7,8.7
			c2.5,3.6,3.7,7.3,3.7,11.2c0,3.3-1,5.8-3,7.7c-2,1.8-4.6,2.7-7.7,2.7c-3.4,0-6.2-1.2-8.3-3.7s-3.3-5.7-3.7-9.7
			c-0.1-2.6-0.1-4.8,0.2-6.6c0.2-1.8,0.2-3.7,0-5.5c-0.5-2-1.2-3.3-2.2-4c-1-0.6-2.4-1-4.1-1c-7.2,0-12.7,3.1-16.6,9.3
			c-3.9,6.2-5.9,16.1-5.9,29.7c0,11.9,2.2,20.9,6.6,27.2c4.4,6.3,11.2,9.4,20.3,9.4c5.5,0,10-1,13.4-3c3.4-2,6.7-5,9.9-9l1.8,1.4
			c-2.9,6.9-7.5,12.3-13.6,16C1481.7,403.5,1474.5,405.4,1466.2,405.4z"/>
		<path class="st6" d="M1552.6,315.4c7.6,0,14.1,1.6,19.5,4.7c5.4,3.1,9.5,7.3,12.4,12.7c2.9,5.3,4.3,11.4,4.3,18.2
			c0,1.3-0.1,2.6-0.2,4c-0.1,1.4-0.4,2.6-0.7,3.6h-52.4c0.1,12.7,2.4,21.8,6.8,27.4c4.4,5.6,10.9,8.4,19.6,8.4
			c5.9,0,10.6-0.9,14.3-2.8c3.6-1.9,7-4.6,10.2-8.3l1.8,1.6c-3.6,6.5-8.5,11.5-14.5,15.1c-6,3.6-13.3,5.5-21.7,5.5
			c-8.3,0-15.7-1.8-22.2-5.4c-6.5-3.6-11.5-8.7-15.1-15.4c-3.6-6.7-5.5-14.7-5.5-23.9c0-9.6,2.1-17.8,6.3-24.6
			c4.2-6.7,9.7-11.9,16.3-15.4C1538.4,317.2,1545.3,315.4,1552.6,315.4z M1552.1,318.9c-3.4,0-6.3,1-8.7,3.1
			c-2.4,2.1-4.3,5.7-5.6,10.9c-1.4,5.2-2.1,12.6-2.2,22.1h30.1c1.2-12.8,0.7-22-1.4-27.6C1562.1,321.8,1558,318.9,1552.1,318.9z"/>
	</g>
	<g>
		<path class="st6" d="M921.8,488.5v3.4h-8.3v21h-3.9v-21h-8.3v-3.4H921.8z"/>
		<path class="st6" d="M930.2,513.2c-1.8,0-3.5-0.4-4.9-1.1s-2.5-1.9-3.3-3.3c-0.8-1.4-1.2-3.2-1.2-5.1s0.4-3.7,1.2-5.1
			c0.8-1.4,1.9-2.5,3.2-3.3c1.4-0.8,2.9-1.1,4.7-1.1c1.8,0,3.3,0.4,4.6,1.1c1.3,0.7,2.2,1.7,2.9,3s1,2.7,1,4.4c0,0.4,0,0.9,0,1.3
			c0,0.4-0.1,0.7-0.1,1h-14.8v-3h13.1l-2,0.6c0-1.7-0.4-3-1.3-3.9c-0.8-0.9-2-1.3-3.4-1.3c-1.1,0-2,0.2-2.8,0.7
			c-0.8,0.5-1.4,1.2-1.8,2.2c-0.4,1-0.6,2.2-0.6,3.6c0,1.4,0.2,2.5,0.7,3.5c0.4,1,1.1,1.7,1.9,2.2s1.8,0.7,2.9,0.7
			c1.2,0,2.2-0.2,3-0.7c0.8-0.5,1.4-1.1,1.8-2l3.1,1.5c-0.4,0.9-1,1.7-1.8,2.3s-1.6,1.2-2.7,1.5
			C932.6,513.1,931.5,513.2,930.2,513.2z"/>
		<path class="st6" d="M943.4,512.9v-18.4h3.5l0.2,3.1c0.6-1.2,1.5-2.1,2.6-2.6c1.1-0.6,2.2-0.8,3.4-0.8c1.3,0,2.6,0.3,3.7,0.9
			c1.1,0.6,2,1.5,2.5,2.7c0.4-0.8,0.9-1.5,1.6-2c0.7-0.5,1.5-0.9,2.3-1.2c0.8-0.3,1.7-0.4,2.5-0.4c1.2,0,2.3,0.2,3.3,0.7
			c1,0.5,1.9,1.2,2.5,2.2c0.6,1,1,2.3,1,3.9v12h-3.9v-11.3c0-1.5-0.4-2.6-1.1-3.2c-0.7-0.7-1.6-1-2.7-1c-0.9,0-1.7,0.2-2.4,0.6
			c-0.7,0.4-1.3,1-1.8,1.9c-0.4,0.8-0.7,1.8-0.7,3v10H956v-11.3c0-1.5-0.4-2.6-1.1-3.2c-0.7-0.7-1.6-1-2.7-1c-0.7,0-1.5,0.2-2.2,0.6
			c-0.7,0.4-1.4,1-1.8,1.8c-0.5,0.8-0.7,1.9-0.7,3.3v9.8H943.4z"/>
		<path class="st6" d="M989.1,501c0-1.2-0.3-2.2-1-2.9c-0.7-0.7-1.6-1-2.8-1c-1.1,0-2.1,0.3-2.8,0.8c-0.8,0.5-1.4,1.4-1.7,2.5
			l-3.3-1.4c0.5-1.5,1.4-2.7,2.7-3.6c1.4-0.9,3.1-1.4,5.3-1.4c1.5,0,2.8,0.2,3.9,0.7c1.1,0.5,2,1.2,2.7,2.2c0.7,1,1,2.2,1,3.7v8.2
			c0,0.9,0.5,1.4,1.4,1.4c0.4,0,0.9-0.1,1.3-0.2l-0.2,2.7c-0.6,0.3-1.3,0.4-2.1,0.4c-0.8,0-1.5-0.1-2.1-0.4
			c-0.6-0.3-1.1-0.7-1.5-1.3s-0.5-1.3-0.5-2.2V509l0.8,0c-0.2,1-0.7,1.8-1.4,2.4c-0.7,0.6-1.5,1.1-2.4,1.4c-0.9,0.3-1.8,0.5-2.8,0.5
			c-1.2,0-2.2-0.2-3.1-0.6s-1.6-0.9-2.2-1.7c-0.5-0.8-0.8-1.7-0.8-2.8c0-1.4,0.4-2.5,1.3-3.4s2.2-1.5,3.8-1.8l7.2-1.4l0,2.8
			l-5.2,1.1c-1,0.2-1.8,0.5-2.3,0.8c-0.5,0.4-0.8,0.9-0.8,1.6c0,0.7,0.3,1.2,0.8,1.6c0.5,0.4,1.2,0.6,2.1,0.6c0.6,0,1.2-0.1,1.8-0.2
			c0.6-0.1,1.1-0.4,1.6-0.7c0.5-0.3,0.8-0.8,1.1-1.3c0.3-0.5,0.4-1.2,0.4-1.9V501z"/>
		<path class="st6" d="M1018.5,513.2c-2.3,0-4.3-0.5-6-1.5c-1.7-1-2.8-2.5-3.4-4.3l3.8-1.8c0.2,0.9,0.6,1.6,1,2.3
			c0.5,0.6,1.1,1.1,1.8,1.5c0.8,0.3,1.7,0.5,2.8,0.5c1,0,1.8-0.2,2.4-0.5c0.7-0.3,1.2-0.8,1.5-1.4s0.5-1.3,0.5-2.1
			c0-0.8-0.2-1.5-0.5-2c-0.3-0.5-0.8-0.9-1.4-1.2c-0.7-0.2-1.5-0.4-2.5-0.4c-0.3,0-0.6,0-0.9,0c-0.3,0-0.6,0-1,0.1V499
			c0.2,0,0.4,0,0.6,0.1c0.2,0,0.4,0,0.6,0c1.6,0,2.7-0.3,3.4-1s1-1.6,1-3c0-1.2-0.3-2-1.1-2.7s-1.7-0.9-3-0.9
			c-1.4,0-2.4,0.3-3.2,0.9s-1.3,1.5-1.7,2.7l-3.6-1.5c0.3-1.1,0.9-2.1,1.7-3s1.8-1.5,3-1.9c1.2-0.5,2.5-0.7,3.9-0.7
			c1.7,0,3.2,0.3,4.4,0.8c1.2,0.6,2,1.3,2.6,2.3c0.6,1,0.9,2.1,0.9,3.3c0,0.9-0.1,1.8-0.4,2.5s-0.6,1.3-1.1,1.8s-0.9,0.9-1.5,1.2
			c-0.5,0.3-1.1,0.5-1.6,0.6v0.1c0.7,0,1.4,0.2,2,0.4c0.6,0.3,1.1,0.6,1.6,1.1s0.9,1,1.1,1.6c0.3,0.6,0.4,1.3,0.4,2.1
			c0,1.5-0.4,2.8-1.1,3.9c-0.7,1.1-1.8,2-3,2.6S1020.2,513.2,1018.5,513.2z"/>
	</g>
	<path class="st1" d="M1598.9,734.3c-1.3-23.3-19-47.5-35.9-66.1c-44.5-49.1-99.4-102.5-165.3-95.9c-22.9,2.3-44.2,11.9-65.8,19.6
		c-74.3,26.8-154.1,33-232.9,38.6c-37.2,2.6-78.3,7-103.2,34.7c-9.2,10.3-20.5,40.9-23.8,69.1H1598.9z"/>
	<path class="st3" d="M1920.1,176.4c-21.2-11.6-43.3-20.9-58.7-26.2c-40.2-13.8-91.6-8.4-115.6,26.7c-33.8,49.5,6.2,119-11.4,176.3
		c-13,42.1-55.1,70.7-66.6,113.2c-5.6,20.6-3.1,43.2,6.7,62.1c5.7,11,14.1,21,25.2,26.8c23.4,12.2,53.3,2.6,73.1-14.9
		c19.9-17.5,32.5-41.4,47.2-63.4s33.2-43.5,58.4-51.3c13.1-4.1,27.9-4.5,41.7-6.4V176.4z"/>
</g>
</svg>
