<?xml version="1.0" encoding="utf-8"?>
<!-- Generator: Adobe Illustrator 26.3.1, SVG Export Plug-In . SVG Version: 6.00 Build 0)  -->
<svg version="1.1" id="Layer_1" xmlns="http://www.w3.org/2000/svg" xmlns:xlink="http://www.w3.org/1999/xlink" x="0px" y="0px"
	 viewBox="0 0 5493 502" style="enable-background:new 0 0 5493 502;" xml:space="preserve">
<style type="text/css">
	.st0{fill:none;stroke:#B6D1DA;stroke-width:17;stroke-miterlimit:10;}
	.st1{fill:none;stroke:#AA410B;stroke-width:17;stroke-miterlimit:10;}
	.st2{fill:#AA410B;}
	.st3{fill:#BC6F27;}
	.st4{clip-path:url(#SVGID_00000145034314238528856560000003720560955071817871_);fill:#E28927;}
	.st5{fill:#FFFFFF;}
	.st6{clip-path:url(#SVGID_00000017513296696939961170000000706414631954611850_);fill:#89A626;}
	.st7{clip-path:url(#SVGID_00000145029913061007544840000014938441600213624980_);fill:#3B562C;}
	.st8{clip-path:url(#SVGID_00000008120426332455338630000008055033760000216986_);fill:#D9B154;}
	.st9{clip-path:url(#SVGID_00000114752131119049756020000002609544146396781440_);fill:#BAB5A8;}
	.st10{clip-path:url(#SVGID_00000116941567894992433880000016946334061312278674_);fill:#9B9891;}
	.st11{clip-path:url(#SVGID_00000083778123497536956720000011868029571967801509_);fill:#9B9891;}
	.st12{clip-path:url(#SVGID_00000109725398061794661270000005860839289955192205_);fill:#9B9891;}
	.st13{clip-path:url(#SVGID_00000085968739142711278570000005805271192479447702_);fill:#FFFFFF;}
	.st14{clip-path:url(#SVGID_00000007404533172526975300000010167264547082284436_);fill:#FCFCFC;}
	.st15{clip-path:url(#SVGID_00000116913722783653839150000012938739877193128583_);fill:#FCFCFC;}
	.st16{clip-path:url(#SVGID_00000023979930353610089870000004062667400450102162_);fill:#FCFCFC;}
	.st17{clip-path:url(#SVGID_00000130647419147671677630000001600422977020974228_);fill:#FCFCFC;}
	.st18{clip-path:url(#SVGID_00000103258473861601033890000000865188034663935109_);fill:#FCFCFC;}
	.st19{clip-path:url(#SVGID_00000081621125641158412480000003195366852371403164_);fill:#FCFCFC;}
	.st20{clip-path:url(#SVGID_00000018203723300475064000000005340677151369252736_);fill:#FCFCFC;}
	.st21{clip-path:url(#SVGID_00000143599403831107755140000015366302000942174384_);fill:#FCFCFC;}
	.st22{clip-path:url(#SVGID_00000103952343890537440940000000852824706431824557_);fill:#FCFCFC;}
	.st23{clip-path:url(#SVGID_00000042710712266801248320000007463351312237409447_);fill:#FCFCFC;}
	.st24{clip-path:url(#SVGID_00000024692519634731335590000002990639143885572791_);fill:#FCFCFC;}
	.st25{clip-path:url(#SVGID_00000078036774308175712510000008333975815131232406_);fill:#FCFCFC;}
	.st26{clip-path:url(#SVGID_00000031911097933495733460000015590427944289922195_);fill:#FCFCFC;}
	.st27{clip-path:url(#SVGID_00000097478101260636637920000013625515075016300713_);fill:#FCFCFC;}
	.st28{clip-path:url(#SVGID_00000067936417944303654640000010080816209760218014_);fill:#FCFCFC;}
	.st29{clip-path:url(#SVGID_00000106858974779667227660000010551670837752023959_);fill:#FCFCFC;}
	.st30{clip-path:url(#SVGID_00000164498312314596976590000003698090374742792635_);fill:#FCFCFC;}
	.st31{fill:#9B9891;}
	.st32{clip-path:url(#SVGID_00000003067171031484216840000015741701438846096297_);}
	.st33{fill:#B6D1DA;}
	.st34{fill:#92AFB7;}
	.st35{fill:#F7F2EB;}
	.st36{fill:#FCFCFC;}
	.st37{fill:none;stroke:#D9B154;stroke-width:14;stroke-miterlimit:10;}
	.st38{fill:#D9B154;}
	.st39{fill:none;stroke:#B83700;stroke-width:10;stroke-miterlimit:10;}
	.st40{fill:none;stroke:#000000;stroke-width:12;stroke-miterlimit:10;}
	.st41{fill:none;stroke:#000000;stroke-width:13;stroke-miterlimit:10;}
	.st42{fill:none;stroke:#000000;stroke-width:11;stroke-miterlimit:10;}
</style>
<g>
	<g>
		<path class="st0" d="M4429.4,220.6v35.2l19.8,3.6c0,0,3.9,0.2,5.9,5.2c2,4.9,10.3,24.9,10.3,24.9s2.5,5.2,0,9.1
			s-11.6,18.7-11.6,18.7l24.9,25.1l14.8-9.1c0,0,7.6-5.4,13.3-2.2c5.7,3.2,22.4,9.4,22.4,9.4s4.7-0.7,6.4,6.6
			c1.7,7.4,4.9,20.9,4.9,20.9h35.7l4.7-19.2c0,0,1.7-6.6,5.2-7.6c3.4-1,22.9-9.4,22.9-9.4s5.7-3.4,11.3-0.5
			c5.7,3,17.5,11.3,17.5,11.3l25.9-25.1l-11-17.4c0,0-3.4-3.4,0-10.1c3.4-6.6,8.6-22.9,8.6-22.9s2.2-5.9,6.6-6.2
			c4.4-0.2,21.2-5.2,21.2-5.2v-35.1l-20.9-5.3c0,0-4.7-0.5-6.4-5.4c-1.7-4.9-10.3-24.1-10.3-24.1s-4.2-5.9,2.2-12.3
			c6.4-6.4,9.6-14.8,9.6-14.8l-25.1-25.6l-17,10.6c0,0-1.7,4.2-10.3,0.5c-8.6-3.7-24.6-9.6-24.6-9.6s-3.7-1-5.4-8.1
			c-1.7-7.1-4.2-18.7-4.2-18.7h-36.2l-3.8,20.4c0,0,0.5,5.7-7.6,7.4s-21.9,9.1-21.9,9.1s-3.7,3.2-9.6,0s-17.7-11.3-17.7-11.3
			l-25.2,24.4l10.3,18c0,0,2.7,4.2,0.2,10.3c-2.5,6.2-8.9,22.4-8.9,22.4s0,5.2-6.4,6.6C4443.6,216.6,4429.4,220.6,4429.4,220.6z"/>
		<circle class="st0" cx="4559.3" cy="237.9" r="57.4"/>
	</g>
</g>
<g>
	<g>
		<ellipse class="st1" cx="4907.9" cy="177.8" rx="66.4" ry="68"/>
		<path class="st2" d="M5034.1,363.3L5034.1,363.3c7.5-5.1,9.3-15.3,4.2-22.8l-52.8-76.7c-5.1-7.5-15.3-9.3-22.8-4.2l0,0
			c-7.5,5.1-9.3,15.3-4.2,22.8l52.8,76.7C5016.5,366.5,5026.7,368.4,5034.1,363.3z"/>
		
			<rect x="4948.3" y="230.2" transform="matrix(0.8342 -0.5514 0.5514 0.8342 683.9298 2774.7029)" class="st2" width="17" height="39.2"/>
	</g>
</g>
<g>
	<g>
		<path class="st3" d="M5305.5,342.1h-53.6c-4.8,0-8.6-3.9-8.6-8.6v-0.3c0-4.8,3.9-8.6,8.6-8.6h53.6c4.8,0,8.6,3.9,8.6,8.6v0.3
			C5314.2,338.3,5310.3,342.1,5305.5,342.1z"/>
		<path class="st3" d="M5294.2,369.2h-31c-3.8,0-6.9-3.1-6.9-6.9v-3.8c0-3.8,3.1-6.9,6.9-6.9h31c3.8,0,6.9,3.1,6.9,6.9v3.8
			C5301.1,366.1,5298,369.2,5294.2,369.2z"/>
		<path class="st3" d="M5308.9,315.1h-60.4c-4.8,0-8.8-3.9-8.8-8.8l0,0c0-4.8,3.9-8.8,8.8-8.8h60.4c4.8,0,8.8,3.9,8.8,8.8l0,0
			C5317.7,311.2,5313.8,315.1,5308.9,315.1z"/>
		<path class="st3" d="M5347.5,239.4c0.4,0-10.4,15.5-14.6,19.8c-6.6,6.7-12.2,10.9-12.6,17.9c-0.1,1.9,0.2,4-1.1,6.8
			c-1.5,3-4.9,6.7-8.8,6.5c-4.7-0.2-7.6-6-7.9-6.5c-4.2-7.2,1.9-17.8,9.2-26.6c0.1-0.2,0.2-0.3,0.4-0.5c2.3-2.8,4.8-5.4,7-7.7l0,0
			c3-2.3,5.8-5,8.4-7.8l0,0c10.2-11.3,16.3-26.2,16.3-42.5c0-35.6-29.3-64.4-65.5-64.4c-36.2,0-65.5,28.8-65.5,64.4
			c0,4.8,0.1,13.5,4.4,23.1c3.1,7.1,8.1,13.5,12.9,19c0,0,0.1,0,0.1,0.1c2.6,2.2,33.6,28.8,25.3,42.9c-0.3,0.5-3.2,6.3-7.9,6.5
			c-3.9,0.2-7.3-3.5-8.8-6.5c-1.3-2.7-1-4.8-1.1-6.8c-0.4-7-6.1-11.2-12.6-17.9c-2.7-2.8-6-6.4-9.6-11.2
			c-11.4-13.5-18.1-30.6-18.1-49.3c0-43.3,36.3-78.3,81-78.3c44.7,0,81,35.1,81,78.3C5359.3,213.5,5355,227.5,5347.5,239.4z"/>
		<path class="st3" d="M5319,248.9c-2.2,2.3-4.7,4.9-7,7.7c1.1-1.5,2.3-3,2.7-3.4c0.4-0.3,0.9-0.8,1.5-1.6c0.6-0.7,1.1-1.3,1.4-1.7
			C5318.1,249.7,5318.5,249.3,5319,248.9z"/>
		<path class="st3" d="M5327.4,241.1c-2.6,2.8-5.4,5.5-8.4,7.8C5322.9,245,5326.2,242.1,5327.4,241.1z"/>
		<path class="st3" d="M5285.9,165.8c0,0,21.5,4.7,24.3,26.2c0,0-0.6,11.5,7.6,11.5c8.2,0,8.7-10.4,8.7-10.4s2-27.8-31.1-40.5
			c0,0-6.9-4.7-12.2,1.8C5277.7,160.8,5285.9,165.8,5285.9,165.8z"/>
		<path class="st3" d="M5278.5,103.5h-0.3c-5,0-9-4-9-9V81.6c0-5,4-9,9-9h0.3c5,0,9,4,9,9v12.9
			C5287.5,99.5,5283.5,103.5,5278.5,103.5z"/>
		<path class="st3" d="M5185.5,288.7L5185.5,288.7c-3.4-3.6-3.1-9.3,0.6-12.6l10.1-8.8c3.8-3.3,9.6-3,13,0.6l0,0
			c3.4,3.6,3.1,9.3-0.6,12.6l-10.1,8.8C5194.8,292.6,5188.9,292.3,5185.5,288.7z"/>
		<path class="st3" d="M5147,200.1L5147,200.1c0-4.9,4-8.9,8.9-8.9h14.2c4.9,0,8.9,4,8.9,8.9l0,0c0,4.9-4,8.9-8.9,8.9h-14.2
			C5151,209,5147,205,5147,200.1z"/>
		<path class="st3" d="M5183.6,110.6L5183.6,110.6c3.2-3.8,9-4.5,12.9-1.4l10.6,8.2c4,3.1,4.6,8.7,1.4,12.5l0,0
			c-3.2,3.8-9,4.5-12.9,1.4l-10.6-8.2C5181.1,120,5180.4,114.5,5183.6,110.6z"/>
		<path class="st3" d="M5372.5,287.3L5372.5,287.3c3.4-3.6,3.1-9.3-0.6-12.6l-10.1-8.8c-3.8-3.3-9.6-3-13,0.6l0,0
			c-3.4,3.6-3.1,9.3,0.6,12.6l10.1,8.8C5363.3,291.3,5369.1,291,5372.5,287.3z"/>
		<path class="st3" d="M5411.1,198.8L5411.1,198.8c0-4.9-4-8.9-8.9-8.9H5388c-4.9,0-8.9,4-8.9,8.9l0,0c0,4.9,4,8.9,8.9,8.9h14.2
			C5407.1,207.7,5411.1,203.7,5411.1,198.8z"/>
		<path class="st3" d="M5374.4,109.3L5374.4,109.3c-3.2-3.8-9-4.5-12.9-1.4l-10.6,8.2c-4,3.1-4.6,8.7-1.4,12.5l0,0
			c3.2,3.8,9,4.5,12.9,1.4l10.6-8.2C5377,118.7,5377.6,113.1,5374.4,109.3z"/>
	</g>
</g>
<g>
	<g>
		<g>
			<g>
				<defs>
					<path id="SVGID_1_" d="M3007.4,322.4c0.2,4.5,0.6,9,3.1,13c3.1,5,8.9,8.6,14.8,11.5c37,18.5,83.8,21.9,126,13.3
						c19.2-4,38.6-10.9,49.9-23.9c17.2-19.9,12.1-49.6,33.6-66.6c8-6.4,18.8-10,27.4-15.7c24.2-16,27.8-44.3,29.2-69.6
						c0.9-14.3,1.7-28.5,2.4-42.8c0.2-4.3,0.4-8.9-2.5-12.6c-3.2-4.1-9.2-5.9-14.8-7.5c-26.2-7.5-53.1-15-80.9-15.4
						c-19.9-0.2-39.6,3.3-59,6.7c-18.9,3.4-37.8,6.8-56.7,10.1c-12.8,2.3-26.1,4.8-36.3,11.5c-23,15.2-19.9,43.8-13.1,67.2
						c6.1,20.9,14.3,45.9-1.9,64.9C3013.3,284.5,3006.7,299.2,3007.4,322.4z"/>
				</defs>
				<clipPath id="SVGID_00000125587096278833212670000016055096095463458986_">
					<use xlink:href="#SVGID_1_"  style="overflow:visible;"/>
				</clipPath>
				
					<rect x="2991.7" y="90.7" style="clip-path:url(#SVGID_00000125587096278833212670000016055096095463458986_);fill:#E28927;" width="315.2" height="292.6"/>
			</g>
		</g>
		<g>
			<g>
				<path class="st5" d="M3080,423v1.9h-14.4V423H3080z M3081.1,417.1v1.9h-14.4v-1.9H3081.1z M3072.7,412.6l-2.8,16.8h-2.1
					l2.8-16.8H3072.7z M3078.7,412.6l-2.8,16.8h-2.1l2.8-16.8H3078.7z"/>
				<path class="st5" d="M3092,429.7c-1.3,0-2.4-0.3-3.4-0.8c-1-0.5-1.7-1.3-2.3-2.3c-0.6-1-0.8-2.2-0.8-3.6c0-1.4,0.3-2.6,0.8-3.6
					c0.6-1,1.3-1.8,2.2-2.3c1-0.5,2-0.8,3.3-0.8c1.3,0,2.3,0.3,3.2,0.8c0.9,0.5,1.5,1.2,2,2.1c0.5,0.9,0.7,1.9,0.7,3
					c0,0.3,0,0.6-0.1,0.9c0,0.3-0.1,0.5-0.1,0.7h-10.2v-2.1h9l-1.4,0.4c0-1.2-0.3-2.1-0.9-2.7c-0.6-0.6-1.4-1-2.4-1
					c-0.8,0-1.4,0.2-1.9,0.5c-0.6,0.4-1,0.9-1.3,1.5c-0.3,0.7-0.5,1.5-0.5,2.5s0.2,1.8,0.5,2.4c0.3,0.7,0.8,1.2,1.3,1.5
					c0.6,0.4,1.2,0.5,2,0.5c0.9,0,1.6-0.2,2.1-0.5c0.5-0.3,1-0.8,1.3-1.4l2.2,1c-0.3,0.6-0.7,1.2-1.3,1.6c-0.5,0.5-1.2,0.8-1.9,1.1
					C3093.6,429.5,3092.9,429.7,3092,429.7z"/>
				<path class="st5" d="M3103.4,429.4v-2c1.6-1.2,3-2.2,4.1-3.1c1.1-0.9,2-1.7,2.7-2.5c0.7-0.8,1.2-1.5,1.5-2.1
					c0.3-0.7,0.5-1.4,0.5-2.1c0-0.9-0.3-1.7-0.9-2.2c-0.6-0.6-1.4-0.9-2.4-0.9c-1.1,0-1.9,0.4-2.5,1.1c-0.6,0.7-1,1.7-1.1,2.9
					l-2.4-1.1c0.1-1.1,0.5-2,1-2.8c0.5-0.8,1.2-1.4,2.1-1.8s1.9-0.7,3.1-0.7c1,0,1.8,0.2,2.5,0.4s1.3,0.7,1.8,1.2
					c0.5,0.5,0.9,1.1,1.2,1.7c0.3,0.7,0.4,1.4,0.4,2.1c0,1.1-0.3,2.1-0.8,3.1c-0.6,1-1.4,2-2.5,3.1s-2.6,2.2-4.5,3.4v0.1
					c0.2-0.1,0.5-0.1,0.9-0.1s0.7,0,1.1-0.1c0.4,0,0.7,0,0.9,0h5.3v2.4L3103.4,429.4L3103.4,429.4z"/>
				<path class="st5" d="M3127.2,412.4c1.2,0,2.1,0.2,3,0.6s1.5,0.9,2,1.6s0.7,1.5,0.7,2.4c0,0.9-0.2,1.6-0.6,2.3s-1,1.2-1.8,1.5
					v0.1c1,0.4,1.8,0.9,2.3,1.6c0.6,0.7,0.9,1.6,0.9,2.6c0,1-0.3,1.9-0.8,2.6s-1.3,1.3-2.2,1.7c-1,0.4-2.1,0.6-3.4,0.6
					s-2.4-0.2-3.4-0.6c-1-0.4-1.7-1-2.2-1.7c-0.5-0.7-0.8-1.6-0.8-2.6c0-1,0.3-1.9,0.9-2.6c0.6-0.7,1.4-1.3,2.4-1.6v-0.1
					c-0.8-0.3-1.4-0.8-1.8-1.5c-0.5-0.7-0.7-1.4-0.7-2.3c0-1,0.3-1.8,0.7-2.4c0.5-0.7,1.1-1.2,2-1.6
					C3125,412.6,3126,412.4,3127.2,412.4z M3127.2,427.4c0.8,0,1.4-0.1,1.9-0.4c0.5-0.2,1-0.6,1.2-1c0.3-0.4,0.5-0.9,0.5-1.5
					c0-0.6-0.2-1.1-0.5-1.5c-0.3-0.4-0.7-0.8-1.3-1c-0.6-0.2-1.2-0.4-1.9-0.4c-0.7,0-1.4,0.1-1.9,0.4c-0.6,0.2-1,0.6-1.3,1
					c-0.3,0.4-0.5,0.9-0.5,1.5c0,0.6,0.2,1.1,0.5,1.5c0.3,0.4,0.7,0.8,1.3,1C3125.8,427.3,3126.4,427.4,3127.2,427.4z M3127.2,414.7
					c-0.9,0-1.6,0.2-2.2,0.7c-0.6,0.5-0.8,1.1-0.8,1.8s0.3,1.4,0.8,1.8c0.6,0.5,1.3,0.7,2.2,0.7c0.9,0,1.6-0.2,2.1-0.7
					c0.6-0.5,0.8-1.1,0.8-1.8s-0.3-1.4-0.8-1.8C3128.8,414.9,3128.1,414.7,3127.2,414.7z"/>
				<path class="st5" d="M3145.2,412.4c1.5,0,2.7,0.4,3.7,1.1c1,0.7,1.8,1.7,2.3,3s0.8,2.8,0.8,4.6c0,2-0.3,3.6-0.8,4.8
					c-0.6,1.3-1.3,2.3-2.3,2.9c-1,0.7-2.2,1-3.6,1c-1.4,0-2.7-0.3-3.7-1c-1-0.7-1.8-1.6-2.3-2.8l2.6-1.2c0.3,0.8,0.7,1.5,1.2,1.9
					c0.6,0.5,1.3,0.7,2.3,0.7c0.8,0,1.5-0.2,2-0.5c0.5-0.3,1-0.8,1.3-1.3c0.3-0.6,0.6-1.3,0.7-2.1c0.2-0.8,0.2-1.8,0.2-2.8
					c0-0.1,0-0.1,0-0.2s0-0.1,0-0.2h-0.1c-0.2,0.7-0.5,1.3-1,1.7s-1.1,0.8-1.7,1c-0.6,0.2-1.2,0.3-1.9,0.3c-1.1,0-2.1-0.2-2.9-0.7
					c-0.9-0.5-1.5-1.1-2-1.8c-0.5-0.8-0.7-1.7-0.7-2.8c0-1.2,0.3-2.2,0.7-3c0.5-0.9,1.2-1.5,2.1-2
					C3142.9,412.6,3144,412.4,3145.2,412.4z M3145.3,414.7c-1.1,0-1.9,0.3-2.5,0.9c-0.6,0.6-0.9,1.4-0.9,2.4c0,0.9,0.3,1.7,0.9,2.2
					c0.6,0.5,1.4,0.8,2.4,0.8c0.7,0,1.2-0.2,1.7-0.4c0.5-0.3,0.9-0.6,1.2-1.1c0.3-0.5,0.4-1,0.4-1.6c0-0.7-0.2-1.2-0.4-1.7
					c-0.3-0.5-0.7-0.9-1.2-1.1C3146.5,414.9,3145.9,414.7,3145.3,414.7z"/>
				<path class="st5" d="M3157.8,429.4v-2c1.6-1.2,3-2.2,4.1-3.1c1.1-0.9,2-1.7,2.7-2.5c0.7-0.8,1.2-1.5,1.5-2.1s0.5-1.4,0.5-2.1
					c0-0.9-0.3-1.7-0.9-2.2c-0.6-0.6-1.4-0.9-2.4-0.9c-1.1,0-1.9,0.4-2.5,1.1c-0.6,0.7-1,1.7-1.1,2.9l-2.4-1.1c0.1-1.1,0.5-2,1-2.8
					c0.5-0.8,1.2-1.4,2.1-1.8c0.9-0.4,1.9-0.7,3.1-0.7c1,0,1.8,0.2,2.5,0.4c0.7,0.3,1.3,0.7,1.8,1.2c0.5,0.5,0.9,1.1,1.2,1.7
					c0.3,0.7,0.4,1.4,0.4,2.1c0,1.1-0.3,2.1-0.8,3.1c-0.6,1-1.4,2-2.5,3.1c-1.2,1.1-2.6,2.2-4.5,3.4v0.1c0.2-0.1,0.5-0.1,0.9-0.1
					c0.4,0,0.7,0,1.1-0.1c0.4,0,0.7,0,0.9,0h5.3v2.4L3157.8,429.4L3157.8,429.4z"/>
				<path class="st5" d="M3174.2,412.6h12.8v2.3c-1.4,1.5-2.6,3-3.4,4.5s-1.5,3.1-1.9,4.8c-0.4,1.7-0.6,3.4-0.6,5.3h-2.8
					c0-1.9,0.3-3.7,0.7-5.5c0.5-1.8,1.2-3.5,2.2-5.1c1-1.6,2.2-3.2,3.6-4.6l0.5,0.7h-11.2V412.6z"/>
			</g>
		</g>
	</g>
</g>
<g>
	<g>
		<g>
			<g>
				<defs>
					<path id="SVGID_00000128482604808561827250000004862845302247428001_" d="M2242,172.2c-3.3,14.8,3.3,29.7,8.4,44.2
						c6,16.8,10.1,34.2,18.8,50.3s22.9,31.1,43.1,37.8c35.1,11.7,75.3-4.9,112.8,0.2c14.7,2,28.3,7.3,43,9.5
						c14.6,2.3,31.6,0.7,41.2-8.4c5.3-5.1,7.6-11.8,9.1-18.3c3.3-14,3.9-28.3,1.8-42.4c-0.9-5.7-1.9-12,2.4-16.6
						c2.7-2.9,6.9-4.4,10.3-6.7c11.8-8,11.3-22.5,9.7-34.8c-1.2-8.9-2.7-18.3-9.6-25.2c-6-6-15-9.3-23.7-12.2
						c-29.1-9.9-59.7-19.1-91.3-18.3c-20.8,0.6-41.2,5.5-61.9,5.5c-16,0-29.7-6.3-45.2-6.7C2281.1,129.1,2247.2,148.5,2242,172.2z"
						/>
				</defs>
				<clipPath id="SVGID_00000111875241643439648540000001199515521225045160_">
					<use xlink:href="#SVGID_00000128482604808561827250000004862845302247428001_"  style="overflow:visible;"/>
				</clipPath>
				
					<rect x="2239.1" y="67.1" style="clip-path:url(#SVGID_00000111875241643439648540000001199515521225045160_);fill:#89A626;" width="315.2" height="292.6"/>
			</g>
		</g>
		<g>
			<path class="st5" d="M2359.2,399.4v1.9h-14.4v-1.9H2359.2z M2360.3,393.4v1.9h-14.4v-1.9H2360.3z M2351.9,389l-2.8,16.8h-2.1
				l2.8-16.8H2351.9z M2357.9,389l-2.8,16.8h-2.1l2.8-16.8H2357.9z"/>
			<path class="st5" d="M2371.4,388.7c1.2,0,2.1,0.2,3,0.6c0.9,0.4,1.5,0.9,2,1.6s0.7,1.5,0.7,2.4c0,0.9-0.2,1.6-0.6,2.3
				s-1,1.2-1.8,1.5v0.1c1,0.4,1.8,0.9,2.3,1.6c0.6,0.7,0.9,1.6,0.9,2.6c0,1-0.3,1.9-0.8,2.6c-0.5,0.7-1.3,1.3-2.2,1.7
				c-1,0.4-2.1,0.6-3.4,0.6s-2.4-0.2-3.4-0.6c-1-0.4-1.7-1-2.2-1.7c-0.6-0.7-0.8-1.6-0.8-2.6c0-1,0.3-1.9,0.9-2.6
				c0.6-0.7,1.4-1.3,2.4-1.6V397c-0.8-0.3-1.4-0.8-1.8-1.5c-0.5-0.7-0.7-1.4-0.7-2.3c0-1,0.3-1.8,0.7-2.4c0.5-0.7,1.1-1.2,2-1.6
				C2369.2,388.9,2370.2,388.7,2371.4,388.7z M2371.4,403.7c0.8,0,1.4-0.1,1.9-0.4c0.5-0.2,1-0.6,1.2-1c0.3-0.4,0.5-0.9,0.5-1.5
				c0-0.6-0.2-1.1-0.5-1.5c-0.3-0.4-0.7-0.8-1.3-1c-0.5-0.2-1.2-0.4-1.9-0.4c-0.7,0-1.4,0.1-1.9,0.4c-0.6,0.2-1,0.6-1.3,1
				c-0.3,0.4-0.5,0.9-0.5,1.5c0,0.6,0.2,1.1,0.5,1.5c0.3,0.4,0.7,0.8,1.3,1C2370,403.6,2370.6,403.7,2371.4,403.7z M2371.4,391
				c-0.9,0-1.6,0.2-2.2,0.7c-0.6,0.5-0.8,1.1-0.8,1.8s0.3,1.4,0.8,1.8c0.6,0.5,1.3,0.7,2.2,0.7s1.6-0.2,2.1-0.7
				c0.6-0.5,0.8-1.1,0.8-1.8s-0.3-1.4-0.8-1.8C2373,391.2,2372.3,391,2371.4,391z"/>
			<path class="st5" d="M2389.5,388.7c1.5,0,2.7,0.4,3.7,1.1c1,0.7,1.8,1.7,2.3,3c0.5,1.3,0.8,2.8,0.8,4.6c0,2-0.3,3.6-0.8,4.8
				c-0.6,1.3-1.3,2.3-2.3,2.9c-1,0.7-2.2,1-3.6,1c-1.4,0-2.7-0.3-3.7-1c-1-0.7-1.8-1.6-2.3-2.8l2.6-1.2c0.3,0.8,0.7,1.5,1.2,1.9
				s1.3,0.7,2.3,0.7c0.8,0,1.5-0.2,2-0.5c0.5-0.3,1-0.8,1.3-1.3c0.3-0.6,0.6-1.3,0.7-2.1c0.2-0.8,0.2-1.8,0.2-2.8c0-0.1,0-0.1,0-0.2
				c0-0.1,0-0.1,0-0.2h-0.1c-0.2,0.7-0.5,1.3-1,1.7s-1.1,0.8-1.7,1c-0.6,0.2-1.2,0.3-1.9,0.3c-1.1,0-2.1-0.2-2.9-0.7s-1.5-1.1-2-1.8
				c-0.5-0.8-0.7-1.7-0.7-2.8c0-1.2,0.3-2.2,0.7-3c0.5-0.9,1.2-1.5,2.1-2C2387.2,388.9,2388.2,388.7,2389.5,388.7z M2389.5,391.1
				c-1.1,0-1.9,0.3-2.5,0.9c-0.6,0.6-0.9,1.4-0.9,2.4c0,0.9,0.3,1.7,0.9,2.2c0.6,0.5,1.4,0.8,2.4,0.8c0.7,0,1.2-0.2,1.7-0.4
				s0.9-0.6,1.2-1.1c0.3-0.5,0.4-1,0.4-1.6c0-0.7-0.2-1.2-0.4-1.7c-0.3-0.5-0.7-0.9-1.2-1.1C2390.7,391.2,2390.1,391.1,2389.5,391.1
				z"/>
			<path class="st5" d="M2409.7,397.6c0-0.9-0.3-1.5-0.7-2c-0.5-0.5-1.1-0.7-1.9-0.7c-0.8,0-1.4,0.2-2,0.6c-0.6,0.4-1,1-1.2,1.8
				l-2.3-1c0.3-1.1,1-1.9,1.9-2.5c1-0.7,2.2-1,3.7-1c1,0,1.9,0.2,2.7,0.5s1.4,0.9,1.9,1.5s0.7,1.5,0.7,2.6v5.7c0,0.7,0.3,1,1,1
				c0.3,0,0.6-0.1,0.9-0.2l-0.2,1.9c-0.4,0.2-0.9,0.3-1.5,0.3c-0.6,0-1.1-0.1-1.5-0.3c-0.5-0.2-0.8-0.5-1-0.9s-0.4-0.9-0.4-1.5v-0.2
				l0.6-0.1c-0.2,0.7-0.5,1.2-1,1.7c-0.5,0.5-1,0.8-1.7,1c-0.7,0.2-1.3,0.3-1.9,0.3c-0.8,0-1.5-0.2-2.2-0.4
				c-0.7-0.3-1.2-0.7-1.5-1.2s-0.6-1.2-0.6-1.9c0-1,0.3-1.8,1-2.4c0.6-0.6,1.5-1,2.7-1.3l5-1l-0.1,1.9l-3.6,0.8
				c-0.7,0.2-1.3,0.4-1.6,0.6s-0.6,0.7-0.6,1.1c0,0.5,0.2,0.9,0.6,1.2c0.4,0.3,0.9,0.4,1.5,0.4c0.4,0,0.9-0.1,1.3-0.2
				c0.4-0.1,0.8-0.3,1.1-0.5c0.3-0.3,0.6-0.5,0.8-0.9c0.2-0.4,0.3-0.8,0.3-1.3v-3.5H2409.7z"/>
			<path class="st5" d="M2425.8,388.7c0.9,0,1.7,0.1,2.4,0.4c0.7,0.3,1.3,0.7,1.8,1.2c0.5,0.6,1,1.2,1.3,2.1l-2.4,1.2
				c-0.3-0.8-0.6-1.3-1.2-1.8c-0.5-0.4-1.3-0.7-2.2-0.7c-0.7,0-1.3,0.2-1.8,0.5c-0.5,0.3-1,0.8-1.3,1.4c-0.4,0.6-0.7,1.3-0.8,2.1
				c-0.2,0.8-0.3,1.7-0.3,2.6c0,0.1,0,0.1,0,0.2c0,0.1,0,0.2,0,0.3l0.1,0.1c0.2-0.7,0.5-1.2,1-1.7c0.5-0.4,1.1-0.7,1.7-1
				c0.6-0.2,1.2-0.3,1.8-0.3c1.1,0,2.1,0.2,2.9,0.7c0.9,0.5,1.5,1.1,2,1.9c0.5,0.8,0.7,1.8,0.7,2.9c0,1.1-0.3,2.1-0.8,2.9
				c-0.5,0.8-1.2,1.5-2.1,1.9c-0.9,0.5-1.9,0.7-3.2,0.7c-1.4,0-2.7-0.4-3.7-1.1c-1-0.7-1.8-1.7-2.3-3c-0.5-1.3-0.8-2.8-0.8-4.5
				c0-1.9,0.3-3.5,0.9-4.8c0.6-1.3,1.4-2.3,2.5-2.9C2423.4,389,2424.5,388.7,2425.8,388.7z M2425.6,397.4c-0.7,0-1.2,0.2-1.7,0.4
				c-0.5,0.3-0.9,0.6-1.2,1.1c-0.3,0.5-0.4,1-0.4,1.6c0,0.6,0.2,1.2,0.5,1.6c0.3,0.5,0.7,0.9,1.2,1.2s1.1,0.4,1.7,0.4
				c1.1,0,1.9-0.3,2.4-0.9c0.6-0.6,0.9-1.4,0.9-2.3c0-0.7-0.2-1.2-0.4-1.7c-0.3-0.5-0.6-0.8-1.1-1.1
				C2426.9,397.5,2426.4,397.4,2425.6,397.4z"/>
			<path class="st5" d="M2437.4,405.7v-2c1.6-1.2,3-2.2,4.1-3.1s2-1.7,2.7-2.5c0.7-0.8,1.2-1.5,1.5-2.1c0.3-0.7,0.5-1.4,0.5-2.1
				c0-0.9-0.3-1.7-0.9-2.2c-0.6-0.6-1.4-0.9-2.4-0.9c-1.1,0-1.9,0.4-2.5,1.1c-0.6,0.7-1,1.7-1.1,2.9l-2.4-1.1c0.1-1.1,0.5-2,1-2.8
				c0.5-0.8,1.2-1.4,2.1-1.8s1.9-0.7,3.1-0.7c1,0,1.8,0.2,2.5,0.4s1.3,0.7,1.8,1.2c0.5,0.5,0.9,1.1,1.2,1.7c0.3,0.7,0.4,1.4,0.4,2.1
				c0,1.1-0.3,2.1-0.8,3.1c-0.6,1-1.4,2-2.5,3.1s-2.6,2.2-4.5,3.4v0.1c0.2-0.1,0.5-0.1,0.9-0.1s0.7,0,1.1-0.1c0.4,0,0.7,0,0.9,0h5.3
				v2.4L2437.4,405.7L2437.4,405.7z"/>
			<path class="st5" d="M2461.6,388.7c0.9,0,1.7,0.1,2.4,0.4s1.3,0.7,1.8,1.2c0.5,0.6,1,1.2,1.3,2.1l-2.4,1.2
				c-0.3-0.8-0.6-1.3-1.2-1.8c-0.5-0.4-1.3-0.7-2.2-0.7c-0.7,0-1.3,0.2-1.8,0.5c-0.5,0.3-1,0.8-1.3,1.4c-0.4,0.6-0.7,1.3-0.8,2.1
				c-0.2,0.8-0.3,1.7-0.3,2.6c0,0.1,0,0.1,0,0.2c0,0.1,0,0.2,0,0.3l0.1,0.1c0.2-0.7,0.5-1.2,1-1.7c0.5-0.4,1.1-0.7,1.7-1
				c0.6-0.2,1.2-0.3,1.8-0.3c1.1,0,2.1,0.2,2.9,0.7c0.9,0.5,1.5,1.1,2,1.9c0.5,0.8,0.7,1.8,0.7,2.9c0,1.1-0.3,2.1-0.8,2.9
				c-0.5,0.8-1.2,1.5-2.1,1.9c-0.9,0.5-1.9,0.7-3.2,0.7c-1.4,0-2.7-0.4-3.7-1.1c-1-0.7-1.8-1.7-2.3-3c-0.5-1.3-0.8-2.8-0.8-4.5
				c0-1.9,0.3-3.5,0.9-4.8c0.6-1.3,1.4-2.3,2.5-2.9C2459.2,389,2460.3,388.7,2461.6,388.7z M2461.4,397.4c-0.7,0-1.2,0.2-1.7,0.4
				s-0.9,0.6-1.2,1.1c-0.3,0.5-0.4,1-0.4,1.6c0,0.6,0.2,1.2,0.5,1.6c0.3,0.5,0.7,0.9,1.2,1.2c0.5,0.3,1.1,0.4,1.7,0.4
				c1.1,0,1.9-0.3,2.4-0.9c0.6-0.6,0.9-1.4,0.9-2.3c0-0.7-0.2-1.2-0.4-1.7c-0.3-0.5-0.6-0.8-1.1-1.1
				C2462.8,397.5,2462.2,397.4,2461.4,397.4z"/>
		</g>
	</g>
</g>
<g>
	<g>
		<g>
			<g>
				<defs>
					<path id="SVGID_00000010280839849878485870000008340059404699117999_" d="M2692.2,115.9c-24.8,9.5-33.6,33.9-39.7,55.4
						c-3.8,13.2-7.5,26.5-11.3,39.7c-7.4,25.9-14.7,51.8-22,77.6c-3.2,11.2-6.4,22.6-4.3,34c2.1,11.3,10.6,22.7,24.1,26.2
						c19.5,5.2,39.1-7,59.4-9.2c13.3-1.5,26.6,1.4,39.6,3.9c20.7,4,42,7.2,63.2,5.4c21.2-1.8,42.4-9.1,55.3-22.7
						c8-8.5,12.4-20.1,7.6-30c-5.2-10.8-19.4-17.1-25.9-27.3c-9.8-15.5,5.1-37.3,26.6-38.9c5-0.4,10.1,0.2,14.7-1.5
						c5.8-2.1,9.2-7,11.7-11.7c7-13.1,11-27.6,7.8-41.6c-3.2-14-14.5-27.3-31.1-32.3c-18.7-5.6-38.3,0.9-57.2-2.5
						c-15.9-2.9-23.9-11.1-36.7-17.8C2751.4,110.9,2718.2,106,2692.2,115.9z"/>
				</defs>
				<clipPath id="SVGID_00000015356108641938997020000014685840109404557961_">
					<use xlink:href="#SVGID_00000010280839849878485870000008340059404699117999_"  style="overflow:visible;"/>
				</clipPath>
				
					<rect x="2581.2" y="81.6" style="clip-path:url(#SVGID_00000015356108641938997020000014685840109404557961_);fill:#3B562C;" width="341.2" height="316.9"/>
			</g>
		</g>
		<g>
			<g>
				<path class="st5" d="M2690.2,418.7v1.9h-14.4v-1.9H2690.2z M2691.3,412.7v1.9h-14.4v-1.9H2691.3z M2682.9,408.3l-2.8,16.8h-2.1
					l2.8-16.8H2682.9z M2689,408.3l-2.8,16.8h-2.1l2.8-16.8H2689z"/>
				<path class="st5" d="M2702,425.3c-1.6,0-3-0.4-4.1-1.1s-2-1.7-2.4-3l2.7-1.3c0.2,0.6,0.4,1.2,0.7,1.6c0.3,0.5,0.8,0.8,1.3,1
					s1.2,0.4,2,0.4c0.7,0,1.2-0.1,1.7-0.4c0.5-0.3,0.8-0.6,1.1-1c0.3-0.4,0.4-0.9,0.4-1.5c0-0.6-0.1-1-0.3-1.4
					c-0.2-0.4-0.6-0.7-1-0.8c-0.5-0.2-1-0.3-1.7-0.3c-0.2,0-0.4,0-0.6,0c-0.2,0-0.5,0.1-0.7,0.1v-2.3c0.2,0,0.3,0.1,0.5,0.1
					c0.2,0,0.3,0,0.4,0c1.1,0,1.9-0.2,2.4-0.7c0.5-0.5,0.7-1.2,0.7-2.1c0-0.8-0.3-1.4-0.7-1.9c-0.5-0.4-1.2-0.7-2.1-0.7
					c-1,0-1.7,0.2-2.2,0.7c-0.5,0.5-0.9,1.1-1.2,1.9l-2.5-1.1c0.3-0.8,0.7-1.5,1.2-2.1c0.6-0.6,1.3-1,2.1-1.4
					c0.8-0.3,1.7-0.5,2.7-0.5c1.2,0,2.2,0.2,3,0.6s1.4,0.9,1.8,1.6c0.4,0.7,0.6,1.5,0.6,2.3c0,0.7-0.1,1.2-0.3,1.7
					c-0.2,0.5-0.5,0.9-0.8,1.3c-0.3,0.4-0.7,0.6-1,0.8c-0.4,0.2-0.8,0.3-1.1,0.4v0.1c0.5,0,1,0.1,1.4,0.3c0.4,0.2,0.8,0.4,1.1,0.8
					c0.4,0.3,0.6,0.7,0.8,1.2c0.2,0.5,0.3,0.9,0.3,1.5c0,1-0.3,1.9-0.8,2.7s-1.2,1.4-2.1,1.8C2704.2,425.1,2703.2,425.3,2702,425.3z
					"/>
				<path class="st5" d="M2721.1,425.3c-0.8,0-1.5-0.2-2.1-0.5c-0.6-0.3-1.2-0.7-1.6-1.2s-0.8-1.1-1-1.8l0.4-0.5l-0.2,3.6h-2.4
					v-18.4h2.7v8.9l-0.3-0.5c0.3-0.9,0.9-1.6,1.7-2.2c0.8-0.6,1.7-0.9,2.8-0.9c1,0,2,0.3,2.8,0.8s1.6,1.3,2,2.3
					c0.5,1,0.8,2.2,0.8,3.6c0,1.4-0.3,2.6-0.8,3.6c-0.5,1-1.2,1.8-2.1,2.3C2723.1,425.1,2722.1,425.3,2721.1,425.3z M2720.5,423.1
					c1.1,0,2-0.4,2.6-1.2c0.6-0.8,1-1.9,1-3.3c0-1.4-0.3-2.5-0.9-3.3c-0.6-0.8-1.5-1.2-2.6-1.2c-0.7,0-1.4,0.2-1.9,0.6
					c-0.6,0.4-1,0.9-1.3,1.6s-0.5,1.5-0.5,2.4s0.2,1.7,0.5,2.3s0.7,1.2,1.3,1.5C2719.2,423,2719.8,423.1,2720.5,423.1z"/>
				<path class="st5" d="M2738.1,425.3c-1.5,0-2.7-0.3-3.7-1c-1-0.7-1.7-1.6-2.3-2.8l2.6-1.3c0.3,0.8,0.7,1.5,1.2,2
					c0.5,0.5,1.3,0.8,2.3,0.8c0.7,0,1.3-0.2,1.8-0.4c0.5-0.3,0.9-0.7,1.2-1.1c0.3-0.5,0.4-1.1,0.4-1.8s-0.2-1.3-0.4-1.8
					c-0.3-0.5-0.6-0.9-1.1-1.1c-0.5-0.3-1.1-0.4-1.8-0.4c-0.5,0-1,0.1-1.4,0.2s-0.8,0.3-1.2,0.5c-0.4,0.2-0.7,0.5-0.9,0.9l-2.3-0.5
					l1-9.3h9.8v2.4h-7.6l-0.6,4.7l-0.1,0.3h0.1c0.4-0.4,0.9-0.8,1.5-1c0.6-0.3,1.4-0.4,2.2-0.4c1.1,0,2,0.2,2.8,0.7
					c0.8,0.5,1.4,1.1,1.9,1.9c0.5,0.8,0.7,1.7,0.7,2.8c0,0.9-0.2,1.8-0.5,2.5c-0.3,0.7-0.8,1.3-1.3,1.8c-0.6,0.5-1.2,0.9-2,1.1
					C2739.7,425.2,2738.9,425.3,2738.1,425.3z"/>
				<path class="st5" d="M2756.6,408c0.9,0,1.7,0.1,2.4,0.4s1.3,0.7,1.8,1.2c0.5,0.6,1,1.2,1.3,2.1l-2.4,1.2
					c-0.3-0.8-0.6-1.3-1.2-1.8c-0.5-0.4-1.3-0.7-2.2-0.7c-0.7,0-1.3,0.2-1.8,0.5c-0.5,0.3-1,0.8-1.3,1.4c-0.4,0.6-0.7,1.3-0.8,2.1
					c-0.2,0.8-0.3,1.7-0.3,2.6c0,0.1,0,0.1,0,0.2s0,0.2,0,0.3l0.1,0.1c0.2-0.7,0.5-1.2,1-1.7c0.5-0.4,1.1-0.7,1.7-1
					c0.6-0.2,1.2-0.3,1.8-0.3c1.1,0,2.1,0.2,2.9,0.7c0.9,0.5,1.5,1.1,2,1.9c0.5,0.8,0.7,1.8,0.7,2.9c0,1.1-0.3,2.1-0.8,2.9
					c-0.5,0.8-1.2,1.5-2.1,1.9c-0.9,0.5-1.9,0.7-3.2,0.7c-1.4,0-2.7-0.4-3.7-1.1s-1.8-1.7-2.3-3c-0.6-1.3-0.8-2.8-0.8-4.5
					c0-1.9,0.3-3.5,0.9-4.8c0.6-1.3,1.4-2.3,2.5-2.9C2754.1,408.3,2755.3,408,2756.6,408z M2756.4,416.8c-0.7,0-1.2,0.2-1.7,0.4
					s-0.9,0.6-1.2,1.1c-0.3,0.5-0.4,1-0.4,1.6c0,0.6,0.2,1.2,0.5,1.6c0.3,0.5,0.7,0.9,1.2,1.2c0.5,0.3,1.1,0.4,1.7,0.4
					c1.1,0,1.9-0.3,2.4-0.9c0.6-0.6,0.9-1.4,0.9-2.3c0-0.7-0.2-1.2-0.4-1.7c-0.3-0.5-0.6-0.8-1.1-1.1
					C2757.7,416.9,2757.1,416.8,2756.4,416.8z"/>
				<path class="st5" d="M2768.2,425.1v-2c1.6-1.2,3-2.2,4.1-3.1c1.1-0.9,2-1.7,2.7-2.5c0.7-0.8,1.2-1.5,1.5-2.1s0.5-1.4,0.5-2.1
					c0-0.9-0.3-1.7-0.9-2.2c-0.6-0.6-1.4-0.9-2.4-0.9c-1.1,0-1.9,0.4-2.5,1.1c-0.6,0.7-1,1.7-1.1,2.9l-2.4-1.1c0.1-1.1,0.5-2,1-2.8
					c0.5-0.8,1.2-1.4,2.1-1.8c0.9-0.4,1.9-0.7,3.1-0.7c1,0,1.8,0.2,2.5,0.4c0.7,0.3,1.3,0.7,1.8,1.2s0.9,1.1,1.2,1.7
					c0.3,0.7,0.4,1.4,0.4,2.1c0,1.1-0.3,2.1-0.8,3.1c-0.5,1-1.4,2-2.5,3.1c-1.2,1.1-2.6,2.2-4.5,3.4v0.1c0.2-0.1,0.5-0.1,0.9-0.1
					s0.7,0,1.1-0.1c0.4,0,0.7,0,0.9,0h5.3v2.4L2768.2,425.1L2768.2,425.1z"/>
				<path class="st5" d="M2791.7,412.1c1,0,1.9,0.2,2.6,0.5c0.7,0.3,1.3,0.7,1.8,1.3c0.5,0.6,0.9,1.2,1.1,1.9l-2.6,1
					c-0.2-0.8-0.6-1.4-1.1-1.8s-1.1-0.6-1.9-0.6c-0.8,0-1.4,0.2-2,0.5c-0.6,0.4-1,0.9-1.3,1.5c-0.3,0.7-0.4,1.5-0.4,2.5
					c0,1,0.2,1.8,0.5,2.4c0.3,0.7,0.7,1.2,1.3,1.5c0.6,0.4,1.2,0.5,2,0.5c0.6,0,1.1-0.1,1.5-0.3c0.4-0.2,0.8-0.5,1.1-0.9
					c0.3-0.4,0.5-0.8,0.6-1.4l2.5,0.9c-0.3,0.8-0.6,1.5-1.1,2c-0.5,0.6-1.1,1-1.9,1.3c-0.8,0.3-1.6,0.5-2.6,0.5
					c-1.3,0-2.4-0.3-3.4-0.8c-1-0.5-1.7-1.3-2.3-2.3c-0.6-1-0.8-2.2-0.8-3.6c0-1.4,0.3-2.6,0.8-3.6c0.6-1,1.3-1.8,2.3-2.3
					C2789.3,412.3,2790.5,412.1,2791.7,412.1z"/>
			</g>
		</g>
	</g>
</g>
<g>
	<g>
		<g>
			<defs>
				<path id="SVGID_00000055700564037184976520000009663545453607382168_" d="M3467.5,349.9c-5.2-11.2-6.6-23.7-7.8-36
					c-2.3-22-4.6-44-6.8-66c-1.3-12.9-2.6-26.6,3-38.3c5.3-11,15.8-18.6,23-28.4c7-9.6,10.9-21.5,19.5-29.6
					c17.7-16.9,45.9-11.3,70.3-10.5c34.2,1.1,67.8-9.7,102-11.2s73.1,9.9,87.8,40.8c4,8.4,5.9,17.7,8.7,26.6
					c7.3,23.2,20.9,43.9,29.3,66.8c8.4,22.9,10.7,50.2-3.4,70c-15.1,21.3-43.7,27.1-69.5,31.2c-28.5,4.6-57,9.2-85.5,13.7
					c-10.3,1.6-20.9,3.3-30.9,0.7c-7.4-1.9-13.9-5.9-20.8-9.2c-21-9.8-45.4-11.8-67.8-6C3496,370.4,3480.1,376.9,3467.5,349.9z"/>
			</defs>
			<clipPath id="SVGID_00000142869974005584625330000016213306915196631964_">
				<use xlink:href="#SVGID_00000055700564037184976520000009663545453607382168_"  style="overflow:visible;"/>
			</clipPath>
			
				<rect x="3432.7" y="121.7" style="clip-path:url(#SVGID_00000142869974005584625330000016213306915196631964_);fill:#D9B154;" width="382" height="264.4"/>
		</g>
		<g>
			<defs>
				<path id="SVGID_00000165919215599334355000000000934241179788821167_" d="M3467.5,349.9c-5.2-11.2-6.6-23.7-7.8-36
					c-2.3-22-4.6-44-6.8-66c-1.3-12.9-2.6-26.6,3-38.3c5.3-11,15.8-18.6,23-28.4c7-9.6,10.9-21.5,19.5-29.6
					c17.7-16.9,45.9-11.3,70.3-10.5c34.2,1.1,67.8-9.7,102-11.2s73.1,9.9,87.8,40.8c4,8.4,5.9,17.7,8.7,26.6
					c7.3,23.2,20.9,43.9,29.3,66.8c8.4,22.9,10.7,50.2-3.4,70c-15.1,21.3-43.7,27.1-69.5,31.2c-28.5,4.6-57,9.2-85.5,13.7
					c-10.3,1.6-20.9,3.3-30.9,0.7c-7.4-1.9-13.9-5.9-20.8-9.2c-21-9.8-45.4-11.8-67.8-6C3496,370.4,3480.1,376.9,3467.5,349.9z"/>
			</defs>
			<clipPath id="SVGID_00000060716310984977075700000012121997189170529427_">
				<use xlink:href="#SVGID_00000165919215599334355000000000934241179788821167_"  style="overflow:visible;"/>
			</clipPath>
			<path style="clip-path:url(#SVGID_00000060716310984977075700000012121997189170529427_);fill:#BAB5A8;" d="M3561.8,272.1v61.6
				c0,0,4,15.4,13,15.4s151.1,0,151.1,0s9.9-1,12.9-17h-29v-154c0,0,2-17-15-17s-146.5,0-146.5,0s-15.5-1-15.5,20s0,91.2,0,91.2
				L3561.8,272.1z"/>
		</g>
		<g>
			<defs>
				<path id="SVGID_00000132783716773053787710000007817573078844609417_" d="M3467.5,349.9c-5.2-11.2-6.6-23.7-7.8-36
					c-2.3-22-4.6-44-6.8-66c-1.3-12.9-2.6-26.6,3-38.3c5.3-11,15.8-18.6,23-28.4c7-9.6,10.9-21.5,19.5-29.6
					c17.7-16.9,45.9-11.3,70.3-10.5c34.2,1.1,67.8-9.7,102-11.2s73.1,9.9,87.8,40.8c4,8.4,5.9,17.7,8.7,26.6
					c7.3,23.2,20.9,43.9,29.3,66.8c8.4,22.9,10.7,50.2-3.4,70c-15.1,21.3-43.7,27.1-69.5,31.2c-28.5,4.6-57,9.2-85.5,13.7
					c-10.3,1.6-20.9,3.3-30.9,0.7c-7.4-1.9-13.9-5.9-20.8-9.2c-21-9.8-45.4-11.8-67.8-6C3496,370.4,3480.1,376.9,3467.5,349.9z"/>
			</defs>
			<clipPath id="SVGID_00000173866969718287985060000009972883642628197567_">
				<use xlink:href="#SVGID_00000132783716773053787710000007817573078844609417_"  style="overflow:visible;"/>
			</clipPath>
			<path style="clip-path:url(#SVGID_00000173866969718287985060000009972883642628197567_);fill:#9B9891;" d="M3561.8,272.1h-29.1
				v-90.9c0,0-1-19.4,14.6-19.8c15.6-0.4,14.6,19,14.6,19L3561.8,272.1L3561.8,272.1z"/>
		</g>
		<g>
			<defs>
				<path id="SVGID_00000031207287463102967300000014038174028095204244_" d="M3467.5,349.9c-5.2-11.2-6.6-23.7-7.8-36
					c-2.3-22-4.6-44-6.8-66c-1.3-12.9-2.6-26.6,3-38.3c5.3-11,15.8-18.6,23-28.4c7-9.6,10.9-21.5,19.5-29.6
					c17.7-16.9,45.9-11.3,70.3-10.5c34.2,1.1,67.8-9.7,102-11.2s73.1,9.9,87.8,40.8c4,8.4,5.9,17.7,8.7,26.6
					c7.3,23.2,20.9,43.9,29.3,66.8c8.4,22.9,10.7,50.2-3.4,70c-15.1,21.3-43.7,27.1-69.5,31.2c-28.5,4.6-57,9.2-85.5,13.7
					c-10.3,1.6-20.9,3.3-30.9,0.7c-7.4-1.9-13.9-5.9-20.8-9.2c-21-9.8-45.4-11.8-67.8-6C3496,370.4,3480.1,376.9,3467.5,349.9z"/>
			</defs>
			<clipPath id="SVGID_00000066495853582384801600000011081365402512470167_">
				<use xlink:href="#SVGID_00000031207287463102967300000014038174028095204244_"  style="overflow:visible;"/>
			</clipPath>
			<path style="clip-path:url(#SVGID_00000066495853582384801600000011081365402512470167_);fill:#9B9891;" d="M3738.8,332.1
				c0,0-3,17-13,17s-148,0-148,0s17.6,0,17.8-17H3738.8z"/>
		</g>
		<g>
			<defs>
				<path id="SVGID_00000079457283419999709990000009589732595608346787_" d="M3477.1,369.5c-6.1-10.7-8.6-23.1-10.8-35.2
					c-4.1-21.7-8.3-43.5-12.3-65.2c-2.4-12.7-4.8-26.3-0.2-38.4c4.4-11.4,14.2-19.9,20.5-30.2c6.2-10.2,9.1-22.3,17-31.1
					c16.2-18.3,44.8-15.1,69.2-16.4c34.2-1.8,66.8-15.3,100.7-19.7c34-4.4,73.7,3.7,90.9,33.3c4.7,8,7.4,17.1,10.9,25.8
					c9.2,22.5,24.5,42,34.8,64.1s14.9,49.1,2.5,70c-13.3,22.5-41.3,30.7-66.6,36.9c-28,7-56,13.9-84.1,20.8
					c-10.1,2.5-20.6,5-30.7,3.3c-7.5-1.3-14.3-4.7-21.5-7.4c-21.7-8-46.2-8-68.1-0.3C3507.2,387.6,3491.9,395.4,3477.1,369.5z"/>
			</defs>
			<clipPath id="SVGID_00000066477288605677532580000012701653139470136223_">
				<use xlink:href="#SVGID_00000079457283419999709990000009589732595608346787_"  style="overflow:visible;"/>
			</clipPath>
			
				<ellipse transform="matrix(0.9965 -8.377951e-02 8.377951e-02 0.9965 -7.5045 311.3748)" style="clip-path:url(#SVGID_00000066477288605677532580000012701653139470136223_);fill:#9B9891;" cx="3706.3" cy="245.1" rx="42.5" ry="40"/>
		</g>
		<g>
			<defs>
				<path id="SVGID_00000026864810477349035120000000887268845954024631_" d="M3467.5,349.9c-5.2-11.2-6.6-23.7-7.8-36
					c-2.3-22-4.6-44-6.8-66c-1.3-12.9-2.6-26.6,3-38.3c5.3-11,15.8-18.6,23-28.4c7-9.6,10.9-21.5,19.5-29.6
					c17.7-16.9,45.9-11.3,70.3-10.5c34.2,1.1,67.8-9.7,102-11.2s73.1,9.9,87.8,40.8c4,8.4,5.9,17.7,8.7,26.6
					c7.3,23.2,20.9,43.9,29.3,66.8c8.4,22.9,10.7,50.2-3.4,70c-15.1,21.3-43.7,27.1-69.5,31.2c-28.5,4.6-57,9.2-85.5,13.7
					c-10.3,1.6-20.9,3.3-30.9,0.7c-7.4-1.9-13.9-5.9-20.8-9.2c-21-9.8-45.4-11.8-67.8-6C3496,370.4,3480.1,376.9,3467.5,349.9z"/>
			</defs>
			<clipPath id="SVGID_00000150103316904703378510000009237822100128512421_">
				<use xlink:href="#SVGID_00000026864810477349035120000000887268845954024631_"  style="overflow:visible;"/>
			</clipPath>
			
				<circle style="clip-path:url(#SVGID_00000150103316904703378510000009237822100128512421_);fill:#FFFFFF;" cx="3708.8" cy="245.1" r="40"/>
		</g>
		<g>
			<defs>
				<path id="SVGID_00000116204569874155827360000017516781188469176212_" d="M3467.5,349.9c-5.2-11.2-6.6-23.7-7.8-36
					c-2.3-22-4.6-44-6.8-66c-1.3-12.9-2.6-26.6,3-38.3c5.3-11,15.8-18.6,23-28.4c7-9.6,10.9-21.5,19.5-29.6
					c17.7-16.9,45.9-11.3,70.3-10.5c34.2,1.1,67.8-9.7,102-11.2s73.1,9.9,87.8,40.8c4,8.4,5.9,17.7,8.7,26.6
					c7.3,23.2,20.9,43.9,29.3,66.8c8.4,22.9,10.7,50.2-3.4,70c-15.1,21.3-43.7,27.1-69.5,31.2c-28.5,4.6-57,9.2-85.5,13.7
					c-10.3,1.6-20.9,3.3-30.9,0.7c-7.4-1.9-13.9-5.9-20.8-9.2c-21-9.8-45.4-11.8-67.8-6C3496,370.4,3480.1,376.9,3467.5,349.9z"/>
			</defs>
			<clipPath id="SVGID_00000088844019991525616580000004783926353573747104_">
				<use xlink:href="#SVGID_00000116204569874155827360000017516781188469176212_"  style="overflow:visible;"/>
			</clipPath>
			
				<rect x="3573.8" y="182.1" style="clip-path:url(#SVGID_00000088844019991525616580000004783926353573747104_);fill:#FCFCFC;" width="73" height="4"/>
		</g>
		<g>
			<defs>
				<path id="SVGID_00000146493100257214170750000016859448608453046692_" d="M3467.5,349.9c-5.2-11.2-6.6-23.7-7.8-36
					c-2.3-22-4.6-44-6.8-66c-1.3-12.9-2.6-26.6,3-38.3c5.3-11,15.8-18.6,23-28.4c7-9.6,10.9-21.5,19.5-29.6
					c17.7-16.9,45.9-11.3,70.3-10.5c34.2,1.1,67.8-9.7,102-11.2s73.1,9.9,87.8,40.8c4,8.4,5.9,17.7,8.7,26.6
					c7.3,23.2,20.9,43.9,29.3,66.8c8.4,22.9,10.7,50.2-3.4,70c-15.1,21.3-43.7,27.1-69.5,31.2c-28.5,4.6-57,9.2-85.5,13.7
					c-10.3,1.6-20.9,3.3-30.9,0.7c-7.4-1.9-13.9-5.9-20.8-9.2c-21-9.8-45.4-11.8-67.8-6C3496,370.4,3480.1,376.9,3467.5,349.9z"/>
			</defs>
			<clipPath id="SVGID_00000044138672169143762500000005726408064337969552_">
				<use xlink:href="#SVGID_00000146493100257214170750000016859448608453046692_"  style="overflow:visible;"/>
			</clipPath>
			
				<rect x="3581.8" y="193.1" style="clip-path:url(#SVGID_00000044138672169143762500000005726408064337969552_);fill:#FCFCFC;" width="73" height="4"/>
		</g>
		<g>
			<defs>
				<path id="SVGID_00000096034145728090348840000015963304206942699452_" d="M3467.5,349.9c-5.2-11.2-6.6-23.7-7.8-36
					c-2.3-22-4.6-44-6.8-66c-1.3-12.9-2.6-26.6,3-38.3c5.3-11,15.8-18.6,23-28.4c7-9.6,10.9-21.5,19.5-29.6
					c17.7-16.9,45.9-11.3,70.3-10.5c34.2,1.1,67.8-9.7,102-11.2s73.1,9.9,87.8,40.8c4,8.4,5.9,17.7,8.7,26.6
					c7.3,23.2,20.9,43.9,29.3,66.8c8.4,22.9,10.7,50.2-3.4,70c-15.1,21.3-43.7,27.1-69.5,31.2c-28.5,4.6-57,9.2-85.5,13.7
					c-10.3,1.6-20.9,3.3-30.9,0.7c-7.4-1.9-13.9-5.9-20.8-9.2c-21-9.8-45.4-11.8-67.8-6C3496,370.4,3480.1,376.9,3467.5,349.9z"/>
			</defs>
			<clipPath id="SVGID_00000152250587281787442950000007248159052743155842_">
				<use xlink:href="#SVGID_00000096034145728090348840000015963304206942699452_"  style="overflow:visible;"/>
			</clipPath>
			
				<rect x="3573.8" y="213.1" style="clip-path:url(#SVGID_00000152250587281787442950000007248159052743155842_);fill:#FCFCFC;" width="73" height="4"/>
		</g>
		<g>
			<defs>
				<path id="SVGID_00000085234182966266266930000013051502597515629487_" d="M3467.5,349.9c-5.2-11.2-6.6-23.7-7.8-36
					c-2.3-22-4.6-44-6.8-66c-1.3-12.9-2.6-26.6,3-38.3c5.3-11,15.8-18.6,23-28.4c7-9.6,10.9-21.5,19.5-29.6
					c17.7-16.9,45.9-11.3,70.3-10.5c34.2,1.1,67.8-9.7,102-11.2s73.1,9.9,87.8,40.8c4,8.4,5.9,17.7,8.7,26.6
					c7.3,23.2,20.9,43.9,29.3,66.8c8.4,22.9,10.7,50.2-3.4,70c-15.1,21.3-43.7,27.1-69.5,31.2c-28.5,4.6-57,9.2-85.5,13.7
					c-10.3,1.6-20.9,3.3-30.9,0.7c-7.4-1.9-13.9-5.9-20.8-9.2c-21-9.8-45.4-11.8-67.8-6C3496,370.4,3480.1,376.9,3467.5,349.9z"/>
			</defs>
			<clipPath id="SVGID_00000082331436550708399330000005385166156961323423_">
				<use xlink:href="#SVGID_00000085234182966266266930000013051502597515629487_"  style="overflow:visible;"/>
			</clipPath>
			
				<rect x="3581.8" y="223.1" style="clip-path:url(#SVGID_00000082331436550708399330000005385166156961323423_);fill:#FCFCFC;" width="73" height="4"/>
		</g>
		<g>
			<defs>
				<path id="SVGID_00000088811231482793086500000004183204687751383176_" d="M3467.5,349.9c-5.2-11.2-6.6-23.7-7.8-36
					c-2.3-22-4.6-44-6.8-66c-1.3-12.9-2.6-26.6,3-38.3c5.3-11,15.8-18.6,23-28.4c7-9.6,10.9-21.5,19.5-29.6
					c17.7-16.9,45.9-11.3,70.3-10.5c34.2,1.1,67.8-9.7,102-11.2s73.1,9.9,87.8,40.8c4,8.4,5.9,17.7,8.7,26.6
					c7.3,23.2,20.9,43.9,29.3,66.8c8.4,22.9,10.7,50.2-3.4,70c-15.1,21.3-43.7,27.1-69.5,31.2c-28.5,4.6-57,9.2-85.5,13.7
					c-10.3,1.6-20.9,3.3-30.9,0.7c-7.4-1.9-13.9-5.9-20.8-9.2c-21-9.8-45.4-11.8-67.8-6C3496,370.4,3480.1,376.9,3467.5,349.9z"/>
			</defs>
			<clipPath id="SVGID_00000008136952642066503580000008107523253269656456_">
				<use xlink:href="#SVGID_00000088811231482793086500000004183204687751383176_"  style="overflow:visible;"/>
			</clipPath>
			
				<rect x="3588.8" y="233.1" style="clip-path:url(#SVGID_00000008136952642066503580000008107523253269656456_);fill:#FCFCFC;" width="59" height="4"/>
		</g>
		<g>
			<defs>
				<path id="SVGID_00000055665639129376694770000006923416363586933910_" d="M3467.5,349.9c-5.2-11.2-6.6-23.7-7.8-36
					c-2.3-22-4.6-44-6.8-66c-1.3-12.9-2.6-26.6,3-38.3c5.3-11,15.8-18.6,23-28.4c7-9.6,10.9-21.5,19.5-29.6
					c17.7-16.9,45.9-11.3,70.3-10.5c34.2,1.1,67.8-9.7,102-11.2s73.1,9.9,87.8,40.8c4,8.4,5.9,17.7,8.7,26.6
					c7.3,23.2,20.9,43.9,29.3,66.8c8.4,22.9,10.7,50.2-3.4,70c-15.1,21.3-43.7,27.1-69.5,31.2c-28.5,4.6-57,9.2-85.5,13.7
					c-10.3,1.6-20.9,3.3-30.9,0.7c-7.4-1.9-13.9-5.9-20.8-9.2c-21-9.8-45.4-11.8-67.8-6C3496,370.4,3480.1,376.9,3467.5,349.9z"/>
			</defs>
			<clipPath id="SVGID_00000037682252279627001410000001529573105007440782_">
				<use xlink:href="#SVGID_00000055665639129376694770000006923416363586933910_"  style="overflow:visible;"/>
			</clipPath>
			
				<rect x="3591.8" y="203.1" style="clip-path:url(#SVGID_00000037682252279627001410000001529573105007440782_);fill:#FCFCFC;" width="73" height="4"/>
		</g>
		<g>
			<defs>
				<path id="SVGID_00000149365646792881127680000014369404414731706253_" d="M3467.5,349.9c-5.2-11.2-6.6-23.7-7.8-36
					c-2.3-22-4.6-44-6.8-66c-1.3-12.9-2.6-26.6,3-38.3c5.3-11,15.8-18.6,23-28.4c7-9.6,10.9-21.5,19.5-29.6
					c17.7-16.9,45.9-11.3,70.3-10.5c34.2,1.1,67.8-9.7,102-11.2s73.1,9.9,87.8,40.8c4,8.4,5.9,17.7,8.7,26.6
					c7.3,23.2,20.9,43.9,29.3,66.8c8.4,22.9,10.7,50.2-3.4,70c-15.1,21.3-43.7,27.1-69.5,31.2c-28.5,4.6-57,9.2-85.5,13.7
					c-10.3,1.6-20.9,3.3-30.9,0.7c-7.4-1.9-13.9-5.9-20.8-9.2c-21-9.8-45.4-11.8-67.8-6C3496,370.4,3480.1,376.9,3467.5,349.9z"/>
			</defs>
			<clipPath id="SVGID_00000157303703689165687280000004980874787999107223_">
				<use xlink:href="#SVGID_00000149365646792881127680000014369404414731706253_"  style="overflow:visible;"/>
			</clipPath>
			
				<rect x="3659.8" y="193.1" style="clip-path:url(#SVGID_00000157303703689165687280000004980874787999107223_);fill:#FCFCFC;" width="22" height="4"/>
		</g>
		<g>
			<defs>
				<path id="SVGID_00000096023673094643505440000009700174764257309097_" d="M3467.5,349.9c-5.2-11.2-6.6-23.7-7.8-36
					c-2.3-22-4.6-44-6.8-66c-1.3-12.9-2.6-26.6,3-38.3c5.3-11,15.8-18.6,23-28.4c7-9.6,10.9-21.5,19.5-29.6
					c17.7-16.9,45.9-11.3,70.3-10.5c34.2,1.1,67.8-9.7,102-11.2s73.1,9.9,87.8,40.8c4,8.4,5.9,17.7,8.7,26.6
					c7.3,23.2,20.9,43.9,29.3,66.8c8.4,22.9,10.7,50.2-3.4,70c-15.1,21.3-43.7,27.1-69.5,31.2c-28.5,4.6-57,9.2-85.5,13.7
					c-10.3,1.6-20.9,3.3-30.9,0.7c-7.4-1.9-13.9-5.9-20.8-9.2c-21-9.8-45.4-11.8-67.8-6C3496,370.4,3480.1,376.9,3467.5,349.9z"/>
			</defs>
			<clipPath id="SVGID_00000036218772002038816880000017426991269628176810_">
				<use xlink:href="#SVGID_00000096023673094643505440000009700174764257309097_"  style="overflow:visible;"/>
			</clipPath>
			
				<rect x="3589.8" y="275.1" style="clip-path:url(#SVGID_00000036218772002038816880000017426991269628176810_);fill:#FCFCFC;" width="13" height="4"/>
		</g>
		<g>
			<defs>
				<path id="SVGID_00000142876319894469251730000005781669589121850292_" d="M3467.5,349.9c-5.2-11.2-6.6-23.7-7.8-36
					c-2.3-22-4.6-44-6.8-66c-1.3-12.9-2.6-26.6,3-38.3c5.3-11,15.8-18.6,23-28.4c7-9.6,10.9-21.5,19.5-29.6
					c17.7-16.9,45.9-11.3,70.3-10.5c34.2,1.1,67.8-9.7,102-11.2s73.1,9.9,87.8,40.8c4,8.4,5.9,17.7,8.7,26.6
					c7.3,23.2,20.9,43.9,29.3,66.8c8.4,22.9,10.7,50.2-3.4,70c-15.1,21.3-43.7,27.1-69.5,31.2c-28.5,4.6-57,9.2-85.5,13.7
					c-10.3,1.6-20.9,3.3-30.9,0.7c-7.4-1.9-13.9-5.9-20.8-9.2c-21-9.8-45.4-11.8-67.8-6C3496,370.4,3480.1,376.9,3467.5,349.9z"/>
			</defs>
			<clipPath id="SVGID_00000052782750230686846580000006183215029823348610_">
				<use xlink:href="#SVGID_00000142876319894469251730000005781669589121850292_"  style="overflow:visible;"/>
			</clipPath>
			
				<rect x="3654.8" y="307.1" style="clip-path:url(#SVGID_00000052782750230686846580000006183215029823348610_);fill:#FCFCFC;" width="13" height="4"/>
		</g>
		<g>
			<defs>
				<path id="SVGID_00000129914957234176378100000017472955539954207655_" d="M3467.5,349.9c-5.2-11.2-6.6-23.7-7.8-36
					c-2.3-22-4.6-44-6.8-66c-1.3-12.9-2.6-26.6,3-38.3c5.3-11,15.8-18.6,23-28.4c7-9.6,10.9-21.5,19.5-29.6
					c17.7-16.9,45.9-11.3,70.3-10.5c34.2,1.1,67.8-9.7,102-11.2s73.1,9.9,87.8,40.8c4,8.4,5.9,17.7,8.7,26.6
					c7.3,23.2,20.9,43.9,29.3,66.8c8.4,22.9,10.7,50.2-3.4,70c-15.1,21.3-43.7,27.1-69.5,31.2c-28.5,4.6-57,9.2-85.5,13.7
					c-10.3,1.6-20.9,3.3-30.9,0.7c-7.4-1.9-13.9-5.9-20.8-9.2c-21-9.8-45.4-11.8-67.8-6C3496,370.4,3480.1,376.9,3467.5,349.9z"/>
			</defs>
			<clipPath id="SVGID_00000091014778037396490590000003065818774526201279_">
				<use xlink:href="#SVGID_00000129914957234176378100000017472955539954207655_"  style="overflow:visible;"/>
			</clipPath>
			
				<rect x="3573.8" y="245.1" style="clip-path:url(#SVGID_00000091014778037396490590000003065818774526201279_);fill:#FCFCFC;" width="87" height="4"/>
		</g>
		<g>
			<defs>
				<path id="SVGID_00000003099232648345618590000013290996747168819120_" d="M3467.5,349.9c-5.2-11.2-6.6-23.7-7.8-36
					c-2.3-22-4.6-44-6.8-66c-1.3-12.9-2.6-26.6,3-38.3c5.3-11,15.8-18.6,23-28.4c7-9.6,10.9-21.5,19.5-29.6
					c17.7-16.9,45.9-11.3,70.3-10.5c34.2,1.1,67.8-9.7,102-11.2s73.1,9.9,87.8,40.8c4,8.4,5.9,17.7,8.7,26.6
					c7.3,23.2,20.9,43.9,29.3,66.8c8.4,22.9,10.7,50.2-3.4,70c-15.1,21.3-43.7,27.1-69.5,31.2c-28.5,4.6-57,9.2-85.5,13.7
					c-10.3,1.6-20.9,3.3-30.9,0.7c-7.4-1.9-13.9-5.9-20.8-9.2c-21-9.8-45.4-11.8-67.8-6C3496,370.4,3480.1,376.9,3467.5,349.9z"/>
			</defs>
			<clipPath id="SVGID_00000029766620764988483750000005484883007206942892_">
				<use xlink:href="#SVGID_00000003099232648345618590000013290996747168819120_"  style="overflow:visible;"/>
			</clipPath>
			
				<rect x="3573.8" y="255.1" style="clip-path:url(#SVGID_00000029766620764988483750000005484883007206942892_);fill:#FCFCFC;" width="73" height="4"/>
		</g>
		<g>
			<defs>
				<path id="SVGID_00000143583532676193098890000014203976976927493269_" d="M3467.5,349.9c-5.2-11.2-6.6-23.7-7.8-36
					c-2.3-22-4.6-44-6.8-66c-1.3-12.9-2.6-26.6,3-38.3c5.3-11,15.8-18.6,23-28.4c7-9.6,10.9-21.5,19.5-29.6
					c17.7-16.9,45.9-11.3,70.3-10.5c34.2,1.1,67.8-9.7,102-11.2s73.1,9.9,87.8,40.8c4,8.4,5.9,17.7,8.7,26.6
					c7.3,23.2,20.9,43.9,29.3,66.8c8.4,22.9,10.7,50.2-3.4,70c-15.1,21.3-43.7,27.1-69.5,31.2c-28.5,4.6-57,9.2-85.5,13.7
					c-10.3,1.6-20.9,3.3-30.9,0.7c-7.4-1.9-13.9-5.9-20.8-9.2c-21-9.8-45.4-11.8-67.8-6C3496,370.4,3480.1,376.9,3467.5,349.9z"/>
			</defs>
			<clipPath id="SVGID_00000158002124078901253790000001558856329707509943_">
				<use xlink:href="#SVGID_00000143583532676193098890000014203976976927493269_"  style="overflow:visible;"/>
			</clipPath>
			
				<rect x="3581.8" y="265.1" style="clip-path:url(#SVGID_00000158002124078901253790000001558856329707509943_);fill:#FCFCFC;" width="73" height="4"/>
		</g>
		<g>
			<defs>
				<path id="SVGID_00000096766042839631786900000015161415191769426845_" d="M3467.5,349.9c-5.2-11.2-6.6-23.7-7.8-36
					c-2.3-22-4.6-44-6.8-66c-1.3-12.9-2.6-26.6,3-38.3c5.3-11,15.8-18.6,23-28.4c7-9.6,10.9-21.5,19.5-29.6
					c17.7-16.9,45.9-11.3,70.3-10.5c34.2,1.1,67.8-9.7,102-11.2s73.1,9.9,87.8,40.8c4,8.4,5.9,17.7,8.7,26.6
					c7.3,23.2,20.9,43.9,29.3,66.8c8.4,22.9,10.7,50.2-3.4,70c-15.1,21.3-43.7,27.1-69.5,31.2c-28.5,4.6-57,9.2-85.5,13.7
					c-10.3,1.6-20.9,3.3-30.9,0.7c-7.4-1.9-13.9-5.9-20.8-9.2c-21-9.8-45.4-11.8-67.8-6C3496,370.4,3480.1,376.9,3467.5,349.9z"/>
			</defs>
			<clipPath id="SVGID_00000040573785927115285870000012779348746922012838_">
				<use xlink:href="#SVGID_00000096766042839631786900000015161415191769426845_"  style="overflow:visible;"/>
			</clipPath>
			
				<rect x="3602.8" y="286.1" style="clip-path:url(#SVGID_00000040573785927115285870000012779348746922012838_);fill:#FCFCFC;" width="73" height="4"/>
		</g>
		<g>
			<defs>
				<path id="SVGID_00000179614122498098625750000008729692179262199996_" d="M3467.5,349.9c-5.2-11.2-6.6-23.7-7.8-36
					c-2.3-22-4.6-44-6.8-66c-1.3-12.9-2.6-26.6,3-38.3c5.3-11,15.8-18.6,23-28.4c7-9.6,10.9-21.5,19.5-29.6
					c17.7-16.9,45.9-11.3,70.3-10.5c34.2,1.1,67.8-9.7,102-11.2s73.1,9.9,87.8,40.8c4,8.4,5.9,17.7,8.7,26.6
					c7.3,23.2,20.9,43.9,29.3,66.8c8.4,22.9,10.7,50.2-3.4,70c-15.1,21.3-43.7,27.1-69.5,31.2c-28.5,4.6-57,9.2-85.5,13.7
					c-10.3,1.6-20.9,3.3-30.9,0.7c-7.4-1.9-13.9-5.9-20.8-9.2c-21-9.8-45.4-11.8-67.8-6C3496,370.4,3480.1,376.9,3467.5,349.9z"/>
			</defs>
			<clipPath id="SVGID_00000005973720635872827360000015779177647468277154_">
				<use xlink:href="#SVGID_00000179614122498098625750000008729692179262199996_"  style="overflow:visible;"/>
			</clipPath>
			
				<rect x="3575.8" y="299.1" style="clip-path:url(#SVGID_00000005973720635872827360000015779177647468277154_);fill:#FCFCFC;" width="73" height="4"/>
		</g>
		<g>
			<defs>
				<path id="SVGID_00000029034697097921316120000018257306096315199364_" d="M3467.5,349.9c-5.2-11.2-6.6-23.7-7.8-36
					c-2.3-22-4.6-44-6.8-66c-1.3-12.9-2.6-26.6,3-38.3c5.3-11,15.8-18.6,23-28.4c7-9.6,10.9-21.5,19.5-29.6
					c17.7-16.9,45.9-11.3,70.3-10.5c34.2,1.1,67.8-9.7,102-11.2s73.1,9.9,87.8,40.8c4,8.4,5.9,17.7,8.7,26.6
					c7.3,23.2,20.9,43.9,29.3,66.8c8.4,22.9,10.7,50.2-3.4,70c-15.1,21.3-43.7,27.1-69.5,31.2c-28.5,4.6-57,9.2-85.5,13.7
					c-10.3,1.6-20.9,3.3-30.9,0.7c-7.4-1.9-13.9-5.9-20.8-9.2c-21-9.8-45.4-11.8-67.8-6C3496,370.4,3480.1,376.9,3467.5,349.9z"/>
			</defs>
			<clipPath id="SVGID_00000123434824291973396770000012063798965379745958_">
				<use xlink:href="#SVGID_00000029034697097921316120000018257306096315199364_"  style="overflow:visible;"/>
			</clipPath>
			
				<rect x="3575.8" y="307.1" style="clip-path:url(#SVGID_00000123434824291973396770000012063798965379745958_);fill:#FCFCFC;" width="73" height="4"/>
		</g>
		<g>
			<defs>
				<path id="SVGID_00000005240157679315947140000013063500505291094434_" d="M3467.5,349.9c-5.2-11.2-6.6-23.7-7.8-36
					c-2.3-22-4.6-44-6.8-66c-1.3-12.9-2.6-26.6,3-38.3c5.3-11,15.8-18.6,23-28.4c7-9.6,10.9-21.5,19.5-29.6
					c17.7-16.9,45.9-11.3,70.3-10.5c34.2,1.1,67.8-9.7,102-11.2s73.1,9.9,87.8,40.8c4,8.4,5.9,17.7,8.7,26.6
					c7.3,23.2,20.9,43.9,29.3,66.8c8.4,22.9,10.7,50.2-3.4,70c-15.1,21.3-43.7,27.1-69.5,31.2c-28.5,4.6-57,9.2-85.5,13.7
					c-10.3,1.6-20.9,3.3-30.9,0.7c-7.4-1.9-13.9-5.9-20.8-9.2c-21-9.8-45.4-11.8-67.8-6C3496,370.4,3480.1,376.9,3467.5,349.9z"/>
			</defs>
			<clipPath id="SVGID_00000180326211464025983240000001633066134482008242_">
				<use xlink:href="#SVGID_00000005240157679315947140000013063500505291094434_"  style="overflow:visible;"/>
			</clipPath>
			
				<rect x="3588.8" y="316.1" style="clip-path:url(#SVGID_00000180326211464025983240000001633066134482008242_);fill:#FCFCFC;" width="73" height="4"/>
		</g>
		<g>
			<defs>
				<path id="SVGID_00000146483366450703282900000013916122169788806335_" d="M3467.5,349.9c-5.2-11.2-6.6-23.7-7.8-36
					c-2.3-22-4.6-44-6.8-66c-1.3-12.9-2.6-26.6,3-38.3c5.3-11,15.8-18.6,23-28.4c7-9.6,10.9-21.5,19.5-29.6
					c17.7-16.9,45.9-11.3,70.3-10.5c34.2,1.1,67.8-9.7,102-11.2s73.1,9.9,87.8,40.8c4,8.4,5.9,17.7,8.7,26.6
					c7.3,23.2,20.9,43.9,29.3,66.8c8.4,22.9,10.7,50.2-3.4,70c-15.1,21.3-43.7,27.1-69.5,31.2c-28.5,4.6-57,9.2-85.5,13.7
					c-10.3,1.6-20.9,3.3-30.9,0.7c-7.4-1.9-13.9-5.9-20.8-9.2c-21-9.8-45.4-11.8-67.8-6C3496,370.4,3480.1,376.9,3467.5,349.9z"/>
			</defs>
			<clipPath id="SVGID_00000060727693597195329570000010684987984778924694_">
				<use xlink:href="#SVGID_00000146483366450703282900000013916122169788806335_"  style="overflow:visible;"/>
			</clipPath>
			
				<rect x="3608.8" y="275.1" style="clip-path:url(#SVGID_00000060727693597195329570000010684987984778924694_);fill:#FCFCFC;" width="55" height="4"/>
		</g>
	</g>
	<g>
		<path class="st31" d="M3702.3,263.9c-1.9,0-3.4-0.2-4.6-0.6c-1.1-0.4-2-1-2.5-1.9c-0.5-0.8-0.8-1.9-0.8-3.2v-6
			c0-1.4-0.3-2.4-0.9-3c-0.6-0.6-1.7-0.9-3.2-0.9v-3.5c1.5,0,2.6-0.3,3.2-0.9c0.6-0.6,0.9-1.6,0.9-3v-6c0-1.3,0.3-2.4,0.8-3.2
			s1.4-1.4,2.5-1.8c1.1-0.4,2.7-0.6,4.6-0.6v3.4c-1.3,0-2.2,0.2-2.8,0.6c-0.6,0.4-0.9,1.1-0.9,2v6.5c0,1.3-0.3,2.3-1,3.1
			c-0.7,0.8-1.6,1.3-2.9,1.6c1.3,0.3,2.2,0.9,2.9,1.6c0.7,0.8,1,1.8,1,3.1v6.5c0,0.9,0.3,1.6,0.9,2s1.5,0.6,2.8,0.6V263.9z"/>
		<path class="st31" d="M3716.2,229.4c1.9,0,3.4,0.2,4.6,0.6c1.1,0.4,2,1,2.5,1.8s0.8,1.9,0.8,3.2v6c0,1.4,0.3,2.4,0.9,3
			c0.6,0.6,1.7,0.9,3.2,0.9v3.5c-1.5,0-2.6,0.3-3.2,0.9c-0.6,0.6-0.9,1.6-0.9,3v6c0,1.3-0.3,2.4-0.8,3.2c-0.5,0.8-1.4,1.4-2.5,1.8
			c-1.1,0.4-2.7,0.6-4.6,0.6v-3.4c1.3,0,2.2-0.2,2.8-0.6c0.6-0.4,0.9-1.1,0.9-2v-6.5c0-1.3,0.3-2.3,1-3.1c0.7-0.8,1.6-1.3,2.8-1.6
			c-1.2-0.3-2.2-0.9-2.8-1.6c-0.7-0.8-1-1.8-1-3.1v-6.5c0-0.9-0.3-1.6-0.9-2c-0.6-0.4-1.5-0.6-2.8-0.6V229.4z"/>
	</g>
	<ellipse class="st31" cx="3709.3" cy="240.2" rx="2.4" ry="2.6"/>
	<path class="st31" d="M3707.5,257.1L3707.5,257.1c-1-0.3-1.6-1.4-1.3-2.5l2.1-6.6c0.3-1,1.4-1.6,2.5-1.3l0,0c1,0.3,1.6,1.4,1.3,2.5
		l-2.1,6.6C3709.6,256.9,3708.5,257.4,3707.5,257.1z"/>
</g>
<g>
	<g>
		<g>
			<g>
				<defs>
					<path id="SVGID_00000011024432481019177210000011711415887706015646_" d="M4250,194c4.4,13.6,13.6,25,22.1,36.5
						s16.8,23.9,18.9,38.1c0.6,4,0.6,8.4-0.9,12.2c-3.6,8.7-14.1,12.2-19.4,19.9c-9.6,13.8,1.2,34.4-6.9,49.2
						c-2.6,4.8-7.1,8.4-12,11c-8.3,4.3-17.6,5.9-26.8,7.3c-15.5,2.4-31.1,4.9-46.6,7.4c-11,1.7-22.1,3.5-33.3,2.6
						c-11.2-0.9-21.9-4.5-33-6.5c-16.2-2.8-32.7-1.8-49.1-1.1c-11.7,0.5-24.9,0.4-33.1-8c-4.8-4.9-7.1-12-12.4-16.6
						c-12.3-10.8-31.6-1.8-47.7-5c-16.5-3.3-27.8-20.2-29.5-37.1c-1.7-16.9,4-33.5,11-49s15-30.6,18.4-47.1
						c2.9-14.1,2.2-29,6.3-42.8c1.7-5.8,4.4-11.5,9.2-15.3c3.9-3.2,8.9-4.8,13.8-6.1c61.4-15.5,126.9,18.5,188.6,4.3
						c14.1-3.2,28-8.9,42.4-8.4c10.4,0.4,25.6,5.8,24.7,17.6c-0.4,5.1-5.8,11.3-6.6,17.2C4247.1,180.7,4248,187.6,4250,194z"/>
				</defs>
				<clipPath id="SVGID_00000005977055057396759450000014428580399224295567_">
					<use xlink:href="#SVGID_00000011024432481019177210000011711415887706015646_"  style="overflow:visible;"/>
				</clipPath>
				<g style="clip-path:url(#SVGID_00000005977055057396759450000014428580399224295567_);">
					<rect x="3920.2" y="129.1" class="st3" width="384.5" height="266.9"/>
					<g>
						<path class="st33" d="M4048,279.9v62.2c0,0,4,15.5,13.1,15.5c9.1,0,152.1,0,152.1,0s10-1,13-17.2H4197V185
							c0,0,2-17.2-15.1-17.2s-147.5,0-147.5,0s-15.6-1-15.6,20.2s0,92.1,0,92.1L4048,279.9z"/>
						<path class="st34" d="M4048,279.9h-29.3v-91.8c0,0-1-19.6,14.7-20c15.7-0.4,14.7,19.2,14.7,19.2L4048,279.9L4048,279.9z"/>
						<path class="st34" d="M4226.2,340.4c0,0-3,17.2-13.1,17.2s-149,0-149,0s17.7,0,17.9-17.2H4226.2z"/>
						
							<ellipse transform="matrix(0.9961 -8.811306e-02 8.811306e-02 0.9961 -5.9469 370.4762)" class="st34" cx="4193.4" cy="252.6" rx="42.8" ry="40.4"/>
						<ellipse class="st35" cx="4196" cy="252.6" rx="40.3" ry="40.4"/>
						<g>
							<path class="st34" d="M4188.6,269.9c-1.9,0-3.4-0.2-4.6-0.6c-1.1-0.4-2-1-2.5-1.9c-0.5-0.8-0.8-1.9-0.8-3.2v-6.1
								c0-1.4-0.3-2.4-0.9-3c-0.6-0.6-1.7-0.9-3.2-0.9v-3.5c1.5,0,2.6-0.3,3.2-0.9c0.6-0.6,0.9-1.6,0.9-3v-6.1
								c0-1.3,0.3-2.4,0.8-3.2c0.5-0.8,1.4-1.4,2.5-1.8c1.1-0.4,2.7-0.6,4.6-0.6v3.4c-1.3,0-2.2,0.2-2.8,0.6c-0.6,0.4-0.9,1.1-0.9,2
								v6.6c0,1.3-0.3,2.3-1,3.1c-0.7,0.8-1.6,1.3-2.9,1.6c1.3,0.3,2.2,0.9,2.9,1.6c0.7,0.8,1,1.8,1,3.1v6.6c0,0.9,0.3,1.6,0.9,2
								c0.6,0.4,1.5,0.6,2.8,0.6V269.9z"/>
							<path class="st34" d="M4202.6,235c1.9,0,3.4,0.2,4.6,0.6c1.1,0.4,2,1,2.5,1.8s0.8,1.9,0.8,3.2v6.1c0,1.4,0.3,2.4,0.9,3
								c0.6,0.6,1.7,0.9,3.2,0.9v3.5c-1.5,0-2.6,0.3-3.2,0.9c-0.6,0.6-0.9,1.6-0.9,3v6.1c0,1.3-0.3,2.4-0.8,3.2
								c-0.5,0.8-1.4,1.4-2.5,1.8c-1.1,0.4-2.7,0.6-4.6,0.6v-3.4c1.3,0,2.2-0.2,2.8-0.6c0.6-0.4,0.9-1.1,0.9-2v-6.4
								c0-1.3,0.3-2.3,1-3.1c0.7-0.8,1.6-1.3,2.8-1.6c-1.2-0.3-2.2-0.9-2.8-1.6c-0.7-0.8-1-1.8-1-3.1v-6.6c0-0.9-0.3-1.6-0.9-2
								c-0.6-0.4-1.5-0.6-2.8-0.6V235z"/>
						</g>
						<rect x="4060.1" y="189" class="st36" width="73.5" height="4"/>
						<rect x="4068.1" y="200.1" class="st36" width="73.5" height="4"/>
						<rect x="4060.1" y="220.3" class="st36" width="73.5" height="4"/>
						<rect x="4068.1" y="230.4" class="st36" width="73.5" height="4"/>
						<rect x="4075.2" y="240.5" class="st36" width="59.4" height="4"/>
						<rect x="4078.2" y="210.2" class="st36" width="73.5" height="4"/>
						<rect x="4146.6" y="200.1" class="st36" width="22.1" height="4"/>
						<rect x="4076.2" y="282.9" class="st36" width="13.1" height="4"/>
						<rect x="4141.6" y="315.2" class="st36" width="13.1" height="4"/>
						<rect x="4060.1" y="252.6" class="st36" width="87.6" height="4"/>
						<rect x="4060.1" y="262.7" class="st36" width="73.5" height="4"/>
						<rect x="4068.1" y="272.8" class="st36" width="73.5" height="4"/>
						<rect x="4089.3" y="294" class="st36" width="73.5" height="4"/>
						<rect x="4062.1" y="307.1" class="st36" width="73.5" height="4"/>
						<rect x="4062.1" y="315.2" class="st36" width="73.5" height="4"/>
						<rect x="4075.2" y="324.3" class="st36" width="73.5" height="4"/>
						<rect x="4095.3" y="282.9" class="st36" width="55.4" height="4"/>
					</g>
				</g>
			</g>
		</g>
	</g>
</g>
<g>
	<ellipse class="st37" cx="1122.2" cy="176.1" rx="74.4" ry="72.4"/>
	<path class="st38" d="M1250.5,336.9L1250.5,336.9c-2.9,2.2-7,1.7-9.3-1.1l-75.9-94.6c-2.2-2.8-1.7-6.8,1.1-9l0,0
		c2.9-2.2,7-1.7,9.3,1.1l75.9,94.6C1253.8,330.6,1253.3,334.7,1250.5,336.9z"/>
</g>
<g>
	<path class="st33" d="M2062.3,234.7c0,0,0-0.1,0-0.1c0-0.2,0-0.4,0-0.6c0,0,0-0.1,0-0.1c0-0.1,0-0.1,0-0.2h-8.2c0,0.1,0,0.1,0,0.2
		c0,0,0,0.1,0,0.1c0,0.2,0,0.4,0,0.5c0,0,0,0.1,0,0.1c0,0.1,0,0.2,0,0.3c-0.8,58-47.9,104.7-105.9,104.7s-105.9-47.6-105.9-106.3
		s46.6-105.4,104.3-106.2v-8.2c-62.3,0.9-112.6,51.8-112.6,114.5s51.1,114.5,114.2,114.5s113.2-50.4,114.1-112.8
		C2062.3,234.9,2062.3,234.8,2062.3,234.7L2062.3,234.7z"/>
	<path class="st33" d="M1946.4,118.9c-0.1,0-0.2,0-0.2,0c-0.1,0-0.1,0-0.2,0c-0.3,0.1-0.6,0.2-0.9,0.2c0,0-0.1,0-0.1,0
		c0,0-0.1,0-0.1,0c-0.3,0.1-0.7,0.1-1,0.1v119.3h6.9V118.9H1946.4L1946.4,118.9z"/>
	<path class="st33" d="M2061.6,239.2c0-0.8,0.2-1.6,0.3-2.4c0.1-0.4,0.2-0.8,0.3-1.3v-3H1944v6.8L2061.6,239.2
		C2061.6,239.3,2061.6,239.2,2061.6,239.2L2061.6,239.2z"/>
	<path class="st33" d="M2000.4,333.1c0.2-0.1,0.4-0.2,0.5-0.4l0.1-4.8l-56.7-100.7l-0.2,12.3c0.1,0.4,0.2,0.7,0.2,1.1l53.1,94.5
		C1998.5,334.5,1999.4,333.8,2000.4,333.1L2000.4,333.1z"/>
	<path class="st33" d="M1971.8,94v116.4l116-0.4C2087.8,210,2090.4,97.6,1971.8,94z M2079.4,203.9l-101.6,0.4v-102
		C2081.7,105.3,2079.4,203.9,2079.4,203.9L2079.4,203.9z"/>
</g>
<g>
	<rect x="1376" y="218.1" class="st39" width="42.7" height="140.3"/>
	<rect x="1452" y="171.8" class="st39" width="42.7" height="186.7"/>
	<rect x="1525.7" y="195.7" class="st39" width="42.7" height="162.8"/>
	<rect x="1599.4" y="136.7" class="st39" width="39.2" height="221.7"/>
	<rect x="1669.7" y="83.4" class="st39" width="46.3" height="275.1"/>
</g>
<g>
	<g id="Layer_1_00000024682719681397935280000004745547641973403562_">
		<g>
			<ellipse class="st40" cx="124" cy="260.1" rx="99" ry="96"/>
			<g>
				<path d="M164.6,218.3v81.3H152v-47.1l1-22.4h-0.1l-25.5,69.4h-11.3l-25.5-69.4h-0.1l1,22.4v47.1H78.9v-81.3h20.2l16.8,47
					l5.8,19.4h0.3l6-19.4l16.8-47.1L164.6,218.3L164.6,218.3z"/>
			</g>
		</g>
	</g>
</g>
<g>
	<g id="Layer_1_00000141446771292955804600000004638250964504817031_">
		<g>
			<circle class="st41" cx="443.6" cy="260.6" r="91.4"/>
			<g>
				<path d="M444.6,203.9c7.8,0,14.6,1.2,20.4,3.7s10.3,6,13.6,10.6c3.3,4.6,4.9,10.1,4.9,16.5c0,6.9-1.5,12.6-4.5,17.2
					c-3,4.5-7,8-12.1,10.4c-5,2.4-10.6,3.9-16.8,4.6v19h-14.7v-26.7c8.6-1.3,15.3-2.9,20.1-4.8c4.8-1.9,8.2-4.3,10.1-7.1
					c2-2.8,2.9-6.4,2.9-10.5s-0.9-7.7-2.7-10.6c-1.9-2.9-4.6-5.2-8.3-6.8c-3.7-1.5-8.4-2.3-14.1-2.3c-7.8,0-14.2,2.2-19.1,6.5
					c-4.9,4.3-7.9,10.2-8.8,17.7L403,234c1.3-6,3.8-11.3,7.5-15.9c3.7-4.5,8.5-8.1,14.2-10.6C430.5,205.1,437.2,203.9,444.6,203.9z
					 M442.5,301.5c3.4,0,6.2,1.1,8.4,3.2c2.1,2.1,3.2,4.9,3.2,8.4c0,3.5-1.1,6.2-3.2,8.4c-2.1,2.1-4.9,3.2-8.4,3.2s-6.2-1.1-8.4-3.2
					c-2.1-2.1-3.2-4.9-3.2-8.4c0-3.4,1.1-6.2,3.2-8.4C436.3,302.6,439.1,301.5,442.5,301.5z"/>
			</g>
		</g>
	</g>
</g>
<g>
	<g id="Layer_1_00000129175677546217128140000016469592306223644585_">
		<g>
			<ellipse class="st42" cx="798.1" cy="255.5" rx="101.9" ry="98.2"/>
			<g>
				<path class="st42" d="M823.9,217.7c-1.2,14.9-12.9,27.1-25.8,27.1c-12.9,0-24.7-12.2-25.8-27.1c-1.2-15.5,10.3-27.1,25.8-27.1
					C813.6,190.6,825.1,202.5,823.9,217.7z"/>
				<path class="st42" d="M798.1,263c-25.5,0-51.4,13.6-56.2,39.2c-0.6,3.1,1.2,6.1,4.6,6.1h103.3c3.3,0,5.2-2.9,4.6-6.1
					C849.5,276.6,823.6,263,798.1,263z"/>
			</g>
		</g>
	</g>
</g>
</svg>
