<svg xmlns="http://www.w3.org/2000/svg" xmlns:xlink="http://www.w3.org/1999/xlink" width="1920" height="1080" viewBox="0 0 1920 1080">
  <defs>
    <clipPath id="clip-LANDING_PAGE_PORTFOLIO_2">
      <rect width="1920" height="1080"/>
    </clipPath>
  </defs>
  <g id="LANDING_PAGE_PORTFOLIO_2" data-name="LANDING PAGE_PORTFOLIO – 2" clip-path="url(#clip-LANDING_PAGE_PORTFOLIO_2)">
    <rect width="1920" height="1080" fill="#fff"/>
    <rect id="Rectangle_143" data-name="Rectangle 143" width="1716" height="163" transform="translate(102 74)" fill="#fff"/>
    <path id="Rectangle_143_-_Outline" data-name="Rectangle 143 - Outline" d="M1,1V162H1715V1H1M0,0H1716V163H0Z" transform="translate(102 74)"/>
    <rect id="Rectangle_144" data-name="Rectangle 144" width="1716" height="669" transform="translate(102 284)" fill="#fff"/>
    <path id="Rectangle_144_-_Outline" data-name="Rectangle 144 - Outline" d="M1,1V668H1715V1H1M0,0H1716V669H0Z" transform="translate(102 284)"/>
    <text id="header" transform="translate(125 116)" fill="#0d0d0d" font-size="26" font-family="WorkSans-LightItalic, Work Sans" font-weight="300" font-style="italic"><tspan x="0" y="0">header</tspan></text>
    <path id="header_-_Outline" data-name="header - Outline" d="M67.5.734A6.281,6.281,0,0,1,64.167-.12a5.509,5.509,0,0,1-2.113-2.327,7.193,7.193,0,0,1-.7-3.169,9.657,9.657,0,0,1,.824-3.974,7.173,7.173,0,0,1,2.458-3,6.714,6.714,0,0,1,3.926-1.143,5.524,5.524,0,0,1,2.926.749,5.08,5.08,0,0,1,1.886,2.03,6.184,6.184,0,0,1,.654,2.869q0,.049,0,.1h.15l-.153.116c-.007.216-.024.442-.052.676a5.866,5.866,0,0,1-.2.967l-.106.359H63.658q0,.14,0,.28a4.738,4.738,0,0,0,.49,2.2,3.625,3.625,0,0,0,1.364,1.467,3.954,3.954,0,0,0,2.088.538A4.355,4.355,0,0,0,69.869-2a4.608,4.608,0,0,0,1.515-1.537l.267-.444,1.9,1.232-.276.42A7.1,7.1,0,0,1,71.83-.731,6.392,6.392,0,0,1,69.884.355,7.211,7.211,0,0,1,67.5.734Zm-5.139-6.6q0,.126,0,.254a6.2,6.2,0,0,0,.6,2.733A4.524,4.524,0,0,0,64.689-.972,5.3,5.3,0,0,0,67.5-.266a6.217,6.217,0,0,0,2.058-.323A5.4,5.4,0,0,0,71.2-1.5a6.185,6.185,0,0,0,.944-.961l-.186-.121A5.632,5.632,0,0,1,70.4-1.15a5.338,5.338,0,0,1-2.793.766H67.6a4.938,4.938,0,0,1-2.614-.684,4.661,4.661,0,0,1-1.73-1.861,5.724,5.724,0,0,1-.6-2.661q0-.14,0-.28Zm1.387-1H71.6l.024-.118H63.762Q63.753-6.929,63.745-6.87ZM72.78-7.988h.247q0-.05,0-.1a5.2,5.2,0,0,0-.542-2.409,4.094,4.094,0,0,0-1.52-1.636,4.545,4.545,0,0,0-2.4-.6,5.737,5.737,0,0,0-3.354.963A6.186,6.186,0,0,0,63.09-9.182a8.214,8.214,0,0,0-.427,1.194h.286q.023-.09.048-.18a6.938,6.938,0,0,1,1.079-2.255,5.441,5.441,0,0,1,1.845-1.6,5.394,5.394,0,0,1,2.562-.592,4.255,4.255,0,0,1,2.308.61,3.985,3.985,0,0,1,1.469,1.632,5.073,5.073,0,0,1,.493,2.262q0,.062,0,.124Zm-8.794,0h7.767q0-.062,0-.124a4.085,4.085,0,0,0-.391-1.82,2.958,2.958,0,0,0-1.105-1.228,3.277,3.277,0,0,0-1.774-.456,4.409,4.409,0,0,0-2.092.474,4.449,4.449,0,0,0-1.509,1.31A5.918,5.918,0,0,0,63.986-7.988ZM51.454.734A5.555,5.555,0,0,1,48.43-.085a5.421,5.421,0,0,1-1.989-2.258,7.321,7.321,0,0,1-.687-3.221,9.9,9.9,0,0,1,.494-3.162,7.989,7.989,0,0,1,1.443-2.606,6.916,6.916,0,0,1,2.269-1.779,6.591,6.591,0,0,1,2.924-.649,5.86,5.86,0,0,1,2.585.545,4.444,4.444,0,0,1,1.813,1.595,4.445,4.445,0,0,1,.244.427l1.9-8.286h2.327L57.129.5H54.976l.251-1.231a6.446,6.446,0,0,1-.636.515A5.3,5.3,0,0,1,51.454.734Zm1.43-13.494a5.6,5.6,0,0,0-2.484.547,5.922,5.922,0,0,0-1.943,1.523A6.993,6.993,0,0,0,47.2-8.408a8.9,8.9,0,0,0-.442,2.844,6.334,6.334,0,0,0,.587,2.785,4.436,4.436,0,0,0,1.625,1.85,4.573,4.573,0,0,0,2.488.663,4.484,4.484,0,0,0,1.917-.393,4.7,4.7,0,0,1-1.605.275A4.911,4.911,0,0,1,49.309-1,4.222,4.222,0,0,1,47.615-2.8a6.075,6.075,0,0,1-.587-2.761,8.968,8.968,0,0,1,.415-2.781,6.838,6.838,0,0,1,1.207-2.243A5.766,5.766,0,0,1,50.528-12.1a5.332,5.332,0,0,1,2.408-.547,4.748,4.748,0,0,1,2.293.555,4.03,4.03,0,0,1,1.222,1.022l-.008-.012a3.412,3.412,0,0,0-1.411-1.239A4.875,4.875,0,0,0,52.884-12.76ZM56.2-.5h.134L60.5-18.48h-.273L58.051-9.014l-.683-.05a6.882,6.882,0,0,1,.124,1.342,8.867,8.867,0,0,1-.414,2.7,8.609,8.609,0,0,1-1,2.119l.572.195ZM52.936-11.642a4.342,4.342,0,0,0-1.96.441,4.772,4.772,0,0,0-1.554,1.249,5.843,5.843,0,0,0-1.029,1.917,7.973,7.973,0,0,0-.365,2.471,5.094,5.094,0,0,0,.479,2.309,3.2,3.2,0,0,0,1.3,1.39,3.926,3.926,0,0,0,1.963.481,3.594,3.594,0,0,0,1.855-.491,4.764,4.764,0,0,0,1.494-1.39,7.523,7.523,0,0,0,1.011-2.06,7.869,7.869,0,0,0,.366-2.4,4.518,4.518,0,0,0-.482-2.213,3.137,3.137,0,0,0-1.258-1.274A3.761,3.761,0,0,0,52.936-11.642ZM35.854.734A5.555,5.555,0,0,1,32.83-.085a5.421,5.421,0,0,1-1.989-2.258,7.321,7.321,0,0,1-.687-3.221,9.9,9.9,0,0,1,.494-3.162,7.989,7.989,0,0,1,1.443-2.606,6.916,6.916,0,0,1,2.269-1.779,6.591,6.591,0,0,1,2.924-.649,5.723,5.723,0,0,1,2.6.561,4.6,4.6,0,0,1,1.791,1.588,4.537,4.537,0,0,1,.237.4l.534-2.294h2.326L41.529.5H39.376l.251-1.231a6.446,6.446,0,0,1-.636.515A5.3,5.3,0,0,1,35.854.734Zm1.43-13.494a5.6,5.6,0,0,0-2.484.547,5.922,5.922,0,0,0-1.943,1.523A6.993,6.993,0,0,0,31.6-8.408a8.9,8.9,0,0,0-.442,2.844,6.334,6.334,0,0,0,.587,2.785,4.436,4.436,0,0,0,1.625,1.85,4.573,4.573,0,0,0,2.488.663,4.479,4.479,0,0,0,1.927-.4,4.55,4.55,0,0,1-1.589.28A4.965,4.965,0,0,1,33.709-1,4.222,4.222,0,0,1,32.015-2.8a6.075,6.075,0,0,1-.587-2.761,8.968,8.968,0,0,1,.415-2.781,6.838,6.838,0,0,1,1.207-2.243A5.766,5.766,0,0,1,34.928-12.1a5.332,5.332,0,0,1,2.408-.547,4.748,4.748,0,0,1,2.293.555,4.022,4.022,0,0,1,1.175.966,3.612,3.612,0,0,0-1.366-1.185A4.74,4.74,0,0,0,37.284-12.76ZM40.6-.5h.135l2.784-12h-.274l-.794,3.409-.7-.05a6.8,6.8,0,0,1,.14,1.419,8.867,8.867,0,0,1-.414,2.7,8.392,8.392,0,0,1-1.009,2.116l.581.2ZM37.336-11.642a4.342,4.342,0,0,0-1.96.441,4.772,4.772,0,0,0-1.554,1.249,5.843,5.843,0,0,0-1.029,1.917,7.973,7.973,0,0,0-.365,2.471,5.094,5.094,0,0,0,.479,2.309,3.2,3.2,0,0,0,1.3,1.39,3.98,3.98,0,0,0,1.989.481,3.478,3.478,0,0,0,1.813-.49,4.955,4.955,0,0,0,1.5-1.4,7.314,7.314,0,0,0,1.021-2.057,7.869,7.869,0,0,0,.366-2.4,4.518,4.518,0,0,0-.482-2.213,3.137,3.137,0,0,0-1.258-1.274A3.761,3.761,0,0,0,37.336-11.642ZM22.048.734A6.281,6.281,0,0,1,18.719-.12a5.509,5.509,0,0,1-2.113-2.327,7.193,7.193,0,0,1-.7-3.169A9.657,9.657,0,0,1,16.73-9.59a7.173,7.173,0,0,1,2.458-3,6.714,6.714,0,0,1,3.926-1.143,5.524,5.524,0,0,1,2.926.749,5.08,5.08,0,0,1,1.886,2.03,6.184,6.184,0,0,1,.654,2.869q0,.049,0,.1h.15l-.153.116c-.007.216-.024.442-.052.676a5.867,5.867,0,0,1-.2.967l-.106.359H18.21q0,.14,0,.28a4.738,4.738,0,0,0,.49,2.2,3.625,3.625,0,0,0,1.364,1.467,3.954,3.954,0,0,0,2.088.538A4.355,4.355,0,0,0,24.421-2a4.608,4.608,0,0,0,1.515-1.537l.267-.444,1.9,1.232-.276.42a7.1,7.1,0,0,1-1.44,1.594A6.392,6.392,0,0,1,24.436.355,7.211,7.211,0,0,1,22.048.734Zm-5.139-6.6q0,.126,0,.254a6.2,6.2,0,0,0,.6,2.733A4.524,4.524,0,0,0,19.241-.972a5.3,5.3,0,0,0,2.807.706,6.217,6.217,0,0,0,2.058-.323A5.4,5.4,0,0,0,25.748-1.5a6.185,6.185,0,0,0,.944-.961l-.186-.121A5.632,5.632,0,0,1,24.953-1.15a5.338,5.338,0,0,1-2.793.766h-.009a4.938,4.938,0,0,1-2.613-.684,4.661,4.661,0,0,1-1.73-1.861,5.724,5.724,0,0,1-.6-2.661q0-.14,0-.28Zm1.387-1h7.855l.024-.118H18.314Q18.305-6.929,18.3-6.87Zm9.036-1.118h.247q0-.05,0-.1a5.2,5.2,0,0,0-.542-2.409,4.094,4.094,0,0,0-1.52-1.636,4.545,4.545,0,0,0-2.4-.6,5.737,5.737,0,0,0-3.354.963,6.186,6.186,0,0,0-2.118,2.589,8.214,8.214,0,0,0-.427,1.194H17.5q.023-.09.048-.18a6.938,6.938,0,0,1,1.079-2.255,5.441,5.441,0,0,1,1.845-1.6,5.394,5.394,0,0,1,2.562-.592,4.255,4.255,0,0,1,2.308.61,3.984,3.984,0,0,1,1.469,1.632,5.073,5.073,0,0,1,.493,2.262q0,.062,0,.124Zm-8.794,0H26.3q0-.062,0-.124a4.085,4.085,0,0,0-.391-1.82A2.958,2.958,0,0,0,24.81-11.16a3.277,3.277,0,0,0-1.774-.456,4.409,4.409,0,0,0-2.092.474,4.449,4.449,0,0,0-1.509,1.31A5.917,5.917,0,0,0,18.538-7.988ZM77.279.5H74.953l3.248-14h2.084l-.2,1.148a5.521,5.521,0,0,1,1.368-.918,5.147,5.147,0,0,1,2.215-.49,5.35,5.35,0,0,1,.9.072,2.058,2.058,0,0,1,.839.33l.31.217-.742,2.134-.527-.316a1.555,1.555,0,0,0-.462-.175,3.191,3.191,0,0,0-.685-.066,3.456,3.456,0,0,0-1.835.5,4.584,4.584,0,0,0-1.464,1.456,6.915,6.915,0,0,0-.919,2.3V-7.3Zm-1.068-1h.273L78.11-7.52a8.637,8.637,0,0,1,.571-1.744l-.363-.317ZM79-12.5l-.618,2.664.047-.11a7.756,7.756,0,0,1,.353-.724L79.1-12.5Zm4.673-.26a4.155,4.155,0,0,0-1.788.394q-.074.035-.146.072a4.571,4.571,0,0,1,1.57-.27,4.183,4.183,0,0,1,.9.09q.106.023.206.053l.091-.261q-.048-.012-.1-.021A4.351,4.351,0,0,0,83.668-12.76ZM11.993.5H9.669l1.908-8.334a3.38,3.38,0,0,0-.277-2.838,2.609,2.609,0,0,0-2.252-.944,4.464,4.464,0,0,0-2.247.545A4.672,4.672,0,0,0,5.2-9.542a7.426,7.426,0,0,0-.973,2.351L2.452.5H.125L4.751-19.48H7.077L5.458-12.5a5.988,5.988,0,0,1,1.4-.79,6.737,6.737,0,0,1,2.527-.465,5.105,5.105,0,0,1,2.791.741,4,4,0,0,1,1.661,2.16,5.952,5.952,0,0,1,.04,3.221Zm-1.07-1H11.2l1.7-7.361a4.982,4.982,0,0,0-.013-2.679,2.986,2.986,0,0,0-1.251-1.636,4.128,4.128,0,0,0-2.253-.585,5.744,5.744,0,0,0-2.153.393q-.124.05-.244.105a5.781,5.781,0,0,1,2.06-.354A3.585,3.585,0,0,1,12.1-11.272a4.3,4.3,0,0,1,.451,3.664Zm-9.54,0h.273l1.6-6.919A9,9,0,0,1,3.9-9.25l-.523.157ZM5.545-18.48,3.534-9.79,3.614-10a5.83,5.83,0,0,1,.459-.954L5.819-18.48Z" transform="translate(125 116)"/>
    <text id="main" transform="translate(125 324)" fill="#0d0d0d" font-size="26" font-family="WorkSans-LightItalic, Work Sans" font-weight="300" font-style="italic"><tspan x="0" y="0">main</tspan></text>
    <path id="main_-_Outline" data-name="main - Outline" d="M30.784.734A5.555,5.555,0,0,1,27.76-.085a5.421,5.421,0,0,1-1.989-2.258,7.321,7.321,0,0,1-.687-3.221,9.9,9.9,0,0,1,.494-3.162,7.988,7.988,0,0,1,1.443-2.606,6.916,6.916,0,0,1,2.269-1.779,6.591,6.591,0,0,1,2.924-.649,5.723,5.723,0,0,1,2.6.561,4.6,4.6,0,0,1,1.791,1.588,4.537,4.537,0,0,1,.237.4l.534-2.294h2.326L36.459.5H34.306l.251-1.231a6.445,6.445,0,0,1-.636.515A5.3,5.3,0,0,1,30.784.734Zm1.43-13.494a5.6,5.6,0,0,0-2.484.547,5.922,5.922,0,0,0-1.943,1.523,6.993,6.993,0,0,0-1.261,2.282,8.9,8.9,0,0,0-.442,2.844,6.334,6.334,0,0,0,.587,2.785A4.436,4.436,0,0,0,28.3-.929a4.573,4.573,0,0,0,2.488.663,4.479,4.479,0,0,0,1.927-.4,4.55,4.55,0,0,1-1.589.28A4.965,4.965,0,0,1,28.639-1,4.222,4.222,0,0,1,26.945-2.8a6.075,6.075,0,0,1-.587-2.761,8.968,8.968,0,0,1,.415-2.781,6.838,6.838,0,0,1,1.207-2.243A5.766,5.766,0,0,1,29.858-12.1a5.332,5.332,0,0,1,2.408-.547,4.748,4.748,0,0,1,2.293.555,4.022,4.022,0,0,1,1.175.966,3.612,3.612,0,0,0-1.367-1.185A4.74,4.74,0,0,0,32.214-12.76ZM35.53-.5h.135l2.784-12h-.274l-.794,3.409-.7-.05a6.8,6.8,0,0,1,.14,1.419,8.867,8.867,0,0,1-.414,2.7A8.392,8.392,0,0,1,35.4-2.906l.581.2ZM32.266-11.642a4.342,4.342,0,0,0-1.96.441,4.772,4.772,0,0,0-1.554,1.249,5.844,5.844,0,0,0-1.029,1.917,7.973,7.973,0,0,0-.365,2.471,5.094,5.094,0,0,0,.479,2.309,3.2,3.2,0,0,0,1.3,1.39,3.98,3.98,0,0,0,1.989.481,3.478,3.478,0,0,0,1.813-.49,4.955,4.955,0,0,0,1.5-1.4,7.314,7.314,0,0,0,1.021-2.057,7.869,7.869,0,0,0,.366-2.4,4.518,4.518,0,0,0-.482-2.213,3.137,3.137,0,0,0-1.258-1.274A3.761,3.761,0,0,0,32.266-11.642ZM57.623.5H55.3l1.908-8.334a3.38,3.38,0,0,0-.277-2.838,2.609,2.609,0,0,0-2.252-.944,4.464,4.464,0,0,0-2.247.545,4.672,4.672,0,0,0-1.6,1.529,7.426,7.426,0,0,0-.973,2.351L48.082.5H45.755L49-13.5h2.151l-.216,1.08q.221-.178.464-.336a6.5,6.5,0,0,1,3.614-1,5.139,5.139,0,0,1,2.832.743,3.959,3.959,0,0,1,1.634,2.163,6.051,6.051,0,0,1,.025,3.217Zm-1.07-1h.275l1.7-7.361a5.081,5.081,0,0,0,0-2.683,2.944,2.944,0,0,0-1.226-1.633,4.165,4.165,0,0,0-2.29-.583,5.682,5.682,0,0,0-2.7.623,5.628,5.628,0,0,1,2.359-.479,3.585,3.585,0,0,1,3.052,1.344,4.3,4.3,0,0,1,.451,3.664Zm-9.54,0h.273l1.6-6.919a8.938,8.938,0,0,1,.684-1.926l-.46-.2Zm2.784-12-.632,2.724.074-.215a5.593,5.593,0,0,1,.357-.821l.338-1.689ZM42.257.5H39.931l3.248-14h2.327Zm-1.068-1h.273l2.784-12h-.273ZM21.042.5H18.716l1.909-8.308a3.661,3.661,0,0,0-.212-2.882,2.347,2.347,0,0,0-2.109-.926,4.453,4.453,0,0,0-2.259.557,4.6,4.6,0,0,0-1.6,1.55,7.406,7.406,0,0,0-.826,1.872l-.007.031L11.733.5H9.406l1.937-8.31a3.66,3.66,0,0,0-.212-2.881,2.347,2.347,0,0,0-2.109-.926,4.464,4.464,0,0,0-2.247.545A4.56,4.56,0,0,0,5.192-9.546a7.615,7.615,0,0,0-.962,2.355L2.452.5H.125l3.248-14H5.524L5.31-12.429q.213-.172.448-.326a6.437,6.437,0,0,1,3.6-1.005,4.78,4.78,0,0,1,2.738.75,3.813,3.813,0,0,1,1.364,1.662,6.171,6.171,0,0,1,1.416-1.324,6.593,6.593,0,0,1,3.764-1.087,4.844,4.844,0,0,1,2.749.748,3.837,3.837,0,0,1,1.553,2.172A6.313,6.313,0,0,1,22.9-7.606Zm-1.071-1h.274l1.679-7.334a5.355,5.355,0,0,0,.06-2.724,2.826,2.826,0,0,0-1.151-1.624,3.871,3.871,0,0,0-2.191-.578,5.708,5.708,0,0,0-2.932.744,5.5,5.5,0,0,1,2.594-.6,3.313,3.313,0,0,1,2.935,1.362,4.573,4.573,0,0,1,.36,3.671Zm-9.306,0h.273L12.5-7.22l-.029-1.222a8.3,8.3,0,0,1-.154.859ZM1.383-.5h.273l1.6-6.919a9.156,9.156,0,0,1,.679-1.928l-.455-.2ZM9.022-12.616a3.313,3.313,0,0,1,2.935,1.362A3.345,3.345,0,0,1,12.5-9.66c.082-.2.173-.4.269-.592-.021-.1-.047-.2-.077-.3a2.905,2.905,0,0,0-1.155-1.631A3.809,3.809,0,0,0,9.36-12.76a5.651,5.651,0,0,0-2.632.594A5.66,5.66,0,0,1,9.022-12.616ZM4.167-12.5,3.535-9.776l.074-.215a5.647,5.647,0,0,1,.358-.823L4.3-12.5ZM44.98-15.022a1.473,1.473,0,0,1-1.069-.419,1.44,1.44,0,0,1-.419-1.043,1.671,1.671,0,0,1,.491-1.257,1.612,1.612,0,0,1,1.153-.465,1.473,1.473,0,0,1,1.069.419,1.44,1.44,0,0,1,.419,1.043,1.71,1.71,0,0,1-.465,1.231A1.6,1.6,0,0,1,44.98-15.022Zm.156-2.184a.627.627,0,0,0-.459.185.706.706,0,0,0-.185.537.438.438,0,0,0,.127.335.466.466,0,0,0,.361.127.588.588,0,0,0,.459-.185.71.71,0,0,0,.185-.537.438.438,0,0,0-.127-.335A.466.466,0,0,0,45.136-17.206Z" transform="translate(125 324)"/>
    <text id="_.grid_1-1" data-name=".grid_1-1" transform="translate(168 395)" fill="#0d0d0d" font-size="26" font-family="WorkSans-LightItalic, Work Sans" font-weight="300" font-style="italic"><tspan x="0" y="0">.grid_1-1</tspan></text>
    <path id="_.grid_1-1_-_Outline" data-name=".grid_1-1 - Outline" d="M10.478,6.09a7.415,7.415,0,0,1-2.2-.322,6.218,6.218,0,0,1-1.851-.92A5.211,5.211,0,0,1,5.073,3.382a5.612,5.612,0,0,1-.729-1.94L4.266,1.02,6.489.249,6.6.813A3.78,3.78,0,0,0,7.892,3.146a4.233,4.233,0,0,0,2.716.8,4.939,4.939,0,0,0,1.949-.376,3.58,3.58,0,0,0,1.481-1.237,6.656,6.656,0,0,0,1-2.49l0-.008.2-.842q-.156.123-.323.237A5.8,5.8,0,0,1,11.57.214,5.684,5.684,0,0,1,8.609-.572a5.486,5.486,0,0,1-2.058-2.2,6.832,6.832,0,0,1-.733-3.21A9.294,9.294,0,0,1,6.3-9a7.433,7.433,0,0,1,1.408-2.48,6.648,6.648,0,0,1,2.22-1.672,6.773,6.773,0,0,1,2.89-.606,5.409,5.409,0,0,1,2.989.8,4.863,4.863,0,0,1,1.734,1.948l.574-2.483h2.328L17.231.27a8.878,8.878,0,0,1-1.411,3.3,5.9,5.9,0,0,1-2.315,1.913A7.3,7.3,0,0,1,10.478,6.09ZM5.422,1.678a4.447,4.447,0,0,0,.5,1.18A4.216,4.216,0,0,0,7.018,4.043a5.221,5.221,0,0,0,1.555.77,6.417,6.417,0,0,0,1.906.276,6.31,6.31,0,0,0,2.615-.515,4.915,4.915,0,0,0,1.923-1.6A7.9,7.9,0,0,0,16.257.044l1.7-7.3-.514-.051A8.189,8.189,0,0,1,16.8-4.339q-.066.153-.138.3l.4.4-.116.3a5.483,5.483,0,0,1-.312.677L16.01.057a7.62,7.62,0,0,1-1.162,2.862,4.562,4.562,0,0,1-1.9,1.571,5.932,5.932,0,0,1-2.341.456,5.194,5.194,0,0,1-3.342-1.02A4.589,4.589,0,0,1,5.754,1.563Zm7.4-14.438a5.782,5.782,0,0,0-2.466.512,5.654,5.654,0,0,0-1.888,1.422A6.439,6.439,0,0,0,7.246-8.678a8.3,8.3,0,0,0-.428,2.7,5.846,5.846,0,0,0,.619,2.744A4.5,4.5,0,0,0,9.123-1.43a4.7,4.7,0,0,0,2.447.644,5.082,5.082,0,0,0,1.957-.369A5.275,5.275,0,0,1,11.882-.9,4.552,4.552,0,0,1,8.41-2.3,5.192,5.192,0,0,1,7.118-5.98,7.906,7.906,0,0,1,7.8-9.3a5.928,5.928,0,0,1,1.987-2.424,5.245,5.245,0,0,1,3.083-.923,4.81,4.81,0,0,1,2.318.567,3.959,3.959,0,0,1,.934.7,3.852,3.852,0,0,0-.859-.751A4.434,4.434,0,0,0,12.818-12.76Zm.052,1.118a4.209,4.209,0,0,0-2.507.741A4.942,4.942,0,0,0,8.71-8.879a6.915,6.915,0,0,0-.592,2.9,4.177,4.177,0,0,0,1.022,3A3.546,3.546,0,0,0,11.882-1.9a3.859,3.859,0,0,0,2.4-.758,5.031,5.031,0,0,0,1.6-2.073,7.3,7.3,0,0,0,.57-2.909,4.774,4.774,0,0,0-.474-2.248,3.06,3.06,0,0,0-1.266-1.3A3.821,3.821,0,0,0,12.87-11.642Zm5.223,2.676a7,7,0,0,1-.019,1.215v.006L19.182-12.5H18.91ZM63.037,4.218H48.494l.477-2.2H63.514Zm-13.3-1h12.5l.043-.2h-12.5ZM42.406.734a5.555,5.555,0,0,1-3.024-.819,5.421,5.421,0,0,1-1.989-2.258,7.321,7.321,0,0,1-.687-3.221A9.9,9.9,0,0,1,37.2-8.726a7.988,7.988,0,0,1,1.443-2.606,6.916,6.916,0,0,1,2.269-1.779,6.591,6.591,0,0,1,2.924-.649,5.86,5.86,0,0,1,2.585.545,4.444,4.444,0,0,1,1.813,1.595,4.445,4.445,0,0,1,.244.427l1.9-8.286h2.327L48.081.5H45.928l.251-1.231a6.446,6.446,0,0,1-.636.515A5.3,5.3,0,0,1,42.406.734Zm1.43-13.494a5.6,5.6,0,0,0-2.484.547,5.922,5.922,0,0,0-1.943,1.523,6.994,6.994,0,0,0-1.261,2.282,8.9,8.9,0,0,0-.442,2.844,6.334,6.334,0,0,0,.587,2.785,4.436,4.436,0,0,0,1.625,1.85,4.573,4.573,0,0,0,2.488.663,4.484,4.484,0,0,0,1.917-.393,4.7,4.7,0,0,1-1.605.275A4.911,4.911,0,0,1,40.261-1,4.222,4.222,0,0,1,38.567-2.8a6.075,6.075,0,0,1-.587-2.761,8.968,8.968,0,0,1,.415-2.781A6.838,6.838,0,0,1,39.6-10.588,5.766,5.766,0,0,1,41.48-12.1a5.332,5.332,0,0,1,2.408-.547,4.748,4.748,0,0,1,2.293.555A4.03,4.03,0,0,1,47.4-11.065l-.008-.012a3.412,3.412,0,0,0-1.411-1.239A4.875,4.875,0,0,0,43.836-12.76ZM47.152-.5h.134l4.162-17.98h-.273L49-9.014l-.683-.05a6.882,6.882,0,0,1,.124,1.342,8.867,8.867,0,0,1-.414,2.7,8.609,8.609,0,0,1-1,2.119l.572.195ZM43.888-11.642a4.342,4.342,0,0,0-1.96.441,4.772,4.772,0,0,0-1.554,1.249,5.843,5.843,0,0,0-1.029,1.917,7.973,7.973,0,0,0-.365,2.471,5.1,5.1,0,0,0,.479,2.309,3.2,3.2,0,0,0,1.3,1.39,3.926,3.926,0,0,0,1.963.481,3.593,3.593,0,0,0,1.855-.491,4.764,4.764,0,0,0,1.494-1.39,7.523,7.523,0,0,0,1.011-2.06,7.869,7.869,0,0,0,.366-2.4,4.518,4.518,0,0,0-.482-2.213A3.137,3.137,0,0,0,45.7-11.209,3.761,3.761,0,0,0,43.888-11.642ZM1.482.708A1.553,1.553,0,0,1,.369.283,1.469,1.469,0,0,1-.084-.806,1.816,1.816,0,0,1,.407-2.115a1.671,1.671,0,0,1,1.231-.517,1.519,1.519,0,0,1,1.087.425,1.469,1.469,0,0,1,.453,1.089A1.816,1.816,0,0,1,2.687.191,1.641,1.641,0,0,1,1.482.708Zm.156-2.34a.666.666,0,0,0-.511.211.842.842,0,0,0-.211.615.468.468,0,0,0,.145.367.56.56,0,0,0,.421.147A.629.629,0,0,0,1.967-.5a.842.842,0,0,0,.211-.615.468.468,0,0,0-.145-.367A.53.53,0,0,0,1.638-1.632ZM89.239.5H86.914l3.211-13.985q.075-.3.148-.572-.1.07-.212.14a12.731,12.731,0,0,1-1.895,1,10.26,10.26,0,0,1-1.928.615l-.588.121-.047-2.25.39-.095a10.857,10.857,0,0,0,1.925-.684,13.652,13.652,0,0,0,1.931-1.078,8.175,8.175,0,0,0,1.458-1.21l.149-.161h1.993Zm-1.07-1h.275l3.746-16.16h-.3a8.676,8.676,0,0,1-.965.835l.784.461c-.119.356-.226.7-.319,1.021s-.191.69-.293,1.1ZM86.62-13.658l0,.231a9.959,9.959,0,0,0,1.151-.411,11.729,11.729,0,0,0,1.745-.923,7.366,7.366,0,0,0,1.073-.826l-.187.128A14.657,14.657,0,0,1,88.335-14.3,12.386,12.386,0,0,1,86.62-13.658ZM69.167.5H66.842l3.211-13.985q.075-.3.148-.572-.1.07-.212.14a12.731,12.731,0,0,1-1.895,1,10.261,10.261,0,0,1-1.928.615l-.588.121-.047-2.25.39-.095a10.856,10.856,0,0,0,1.925-.684,13.652,13.652,0,0,0,1.931-1.078,8.176,8.176,0,0,0,1.458-1.21l.149-.161h1.993ZM68.1-.5h.275l3.746-16.16h-.3a8.676,8.676,0,0,1-.965.835l.784.461c-.119.356-.226.7-.319,1.021s-.191.69-.293,1.1Zm-1.55-13.158,0,.231a9.959,9.959,0,0,0,1.151-.411,11.729,11.729,0,0,0,1.745-.923,7.365,7.365,0,0,0,1.073-.826l-.187.128A14.658,14.658,0,0,1,68.263-14.3,12.386,12.386,0,0,1,66.548-13.658ZM32.481.5H30.155l3.248-14h2.327Zm-1.068-1h.273l2.784-12H34.2Zm-8.4,1H20.691l3.248-14h2.084l-.2,1.148a5.521,5.521,0,0,1,1.368-.918,5.147,5.147,0,0,1,2.216-.49,5.351,5.351,0,0,1,.9.072,2.058,2.058,0,0,1,.839.33l.31.217-.742,2.134-.527-.316a1.555,1.555,0,0,0-.462-.175,3.191,3.191,0,0,0-.685-.066,3.456,3.456,0,0,0-1.835.5,4.584,4.584,0,0,0-1.464,1.456,6.915,6.915,0,0,0-.919,2.3V-7.3Zm-1.068-1h.273l1.626-7.02a8.636,8.636,0,0,1,.571-1.744l-.363-.317Zm2.784-12-.618,2.664.047-.11a7.754,7.754,0,0,1,.353-.724l.319-1.831Zm4.673-.26a4.155,4.155,0,0,0-1.788.394q-.074.035-.146.072a4.571,4.571,0,0,1,1.57-.27,4.184,4.184,0,0,1,.9.09q.106.023.206.053l.091-.261q-.048-.012-.1-.021A4.352,4.352,0,0,0,29.406-12.76Zm53.9,7.02H74.3l.547-2.326h9.009Zm-7.747-1h6.955l.077-.326H75.64ZM35.2-15.022a1.473,1.473,0,0,1-1.069-.419,1.44,1.44,0,0,1-.419-1.043,1.671,1.671,0,0,1,.491-1.257,1.612,1.612,0,0,1,1.153-.465,1.473,1.473,0,0,1,1.069.419,1.44,1.44,0,0,1,.419,1.043,1.71,1.71,0,0,1-.465,1.231A1.6,1.6,0,0,1,35.2-15.022Zm.156-2.184a.626.626,0,0,0-.459.185.706.706,0,0,0-.185.537.438.438,0,0,0,.127.335.466.466,0,0,0,.361.127.588.588,0,0,0,.459-.185.71.71,0,0,0,.185-.537.438.438,0,0,0-.127-.335A.466.466,0,0,0,35.36-17.206Z" transform="translate(168 395)"/>
    <g id="Group_34" data-name="Group 34" transform="translate(88 12)">
      <rect id="Rectangle_145" data-name="Rectangle 145" width="105" height="469" transform="translate(186 390)" fill="#fff"/>
      <path id="Rectangle_145_-_Outline" data-name="Rectangle 145 - Outline" d="M1,1V468H104V1H1M0,0H105V469H0Z" transform="translate(186 390)"/>
      <rect id="Rectangle_147" data-name="Rectangle 147" width="106" height="469" transform="translate(1453 390)" fill="#fff"/>
      <path id="Rectangle_147_-_Outline" data-name="Rectangle 147 - Outline" d="M1,1V468H105V1H1M0,0H106V469H0Z" transform="translate(1453 390)"/>
      <rect id="Rectangle_146" data-name="Rectangle 146" width="1074" height="469" transform="translate(336 390)" fill="#fff"/>
      <path id="Rectangle_146_-_Outline" data-name="Rectangle 146 - Outline" d="M1,1V468H1073V1H1M0,0H1074V469H0Z" transform="translate(336 390)"/>
      <text id="_.col_1-1" data-name=".col_1-1" transform="translate(199 424)" fill="#0d0d0d" font-size="22" font-family="WorkSans-LightItalic, Work Sans" font-weight="300" font-style="italic"><tspan x="0" y="0">.col_1-1</tspan></text>
      <path id="_.col_1-1_-_Outline" data-name=".col_1-1 - Outline" d="M42.731,3.646H30.268l.437-2.012H43.168Zm-11.223-1H41.925l0-.012H31.511ZM21.142.7a5.428,5.428,0,0,1-2.891-.745,4.936,4.936,0,0,1-1.845-2,5.933,5.933,0,0,1-.626-2.7,8,8,0,0,1,.766-3.565,6.159,6.159,0,0,1,2.143-2.474,5.716,5.716,0,0,1,3.2-.907,5.4,5.4,0,0,1,2.917.748,4.942,4.942,0,0,1,1.808,1.98,5.932,5.932,0,0,1,.615,2.7,8.123,8.123,0,0,1-.753,3.55,6.144,6.144,0,0,1-2.131,2.5A5.665,5.665,0,0,1,21.142.7ZM18.929-9.734a5.258,5.258,0,0,0-1.485,1.858,7.018,7.018,0,0,0-.664,3.123A4.942,4.942,0,0,0,17.3-2.5,3.9,3.9,0,0,0,18.775-.9q.108.067.222.126-.067-.038-.133-.079A3.91,3.91,0,0,1,17.392-2.5a5.247,5.247,0,0,1-.49-2.3,7.665,7.665,0,0,1,.355-2.377,5.835,5.835,0,0,1,1.012-1.9A4.656,4.656,0,0,1,18.929-9.734Zm5.179-.468.069.041a3.8,3.8,0,0,1,1.454,1.63,5.33,5.33,0,0,1,.477,2.3,7.893,7.893,0,0,1-.342,2.372,5.7,5.7,0,0,1-1.014,1.916,4.817,4.817,0,0,1-.712.707,5.223,5.223,0,0,0,1.536-1.923A7.134,7.134,0,0,0,26.23-6.27a4.942,4.942,0,0,0-.507-2.25A3.956,3.956,0,0,0,24.275-10.1Q24.193-10.155,24.108-10.2Zm-2.262.45a3.659,3.659,0,0,0-1.56.338,3.526,3.526,0,0,0-1.243.975,4.842,4.842,0,0,0-.836,1.576A6.67,6.67,0,0,0,17.9-4.8a4.258,4.258,0,0,0,.39,1.862,2.887,2.887,0,0,0,1.1,1.234,3.342,3.342,0,0,0,1.793.452,3.587,3.587,0,0,0,1.546-.337,3.605,3.605,0,0,0,1.246-.987,4.7,4.7,0,0,0,.834-1.582,6.9,6.9,0,0,0,.3-2.072A4.344,4.344,0,0,0,24.727-8.1,2.782,2.782,0,0,0,23.651-9.31,3.394,3.394,0,0,0,21.846-9.752ZM9.5.7A5.345,5.345,0,0,1,6.741-.01,4.9,4.9,0,0,1,4.882-1.966,5.889,5.889,0,0,1,4.23-4.752,8,8,0,0,1,4.984-8.27a6.179,6.179,0,0,1,2.153-2.5,5.8,5.8,0,0,1,3.269-.93,5.364,5.364,0,0,1,2.243.452A4.3,4.3,0,0,1,14.3-9.94,4.675,4.675,0,0,1,15.164-8l.095.474-2.111.5-.089-.525a2.675,2.675,0,0,0-.843-1.6,2.643,2.643,0,0,0-1.854-.6A3.671,3.671,0,0,0,8.724-9.4,3.653,3.653,0,0,0,7.476-8.379,4.983,4.983,0,0,0,6.647-6.8a6.53,6.53,0,0,0-.295,2A4.081,4.081,0,0,0,6.769-2.9,2.983,2.983,0,0,0,7.893-1.682a3.277,3.277,0,0,0,1.721.434,3.041,3.041,0,0,0,1.717-.5A2.919,2.919,0,0,0,12.453-3.1l.188-.445,1.982.759L14.4-2.3A4.978,4.978,0,0,1,12.474-.1,5.527,5.527,0,0,1,9.5.7ZM7.457-9.77A5.231,5.231,0,0,0,5.884-7.834,7.01,7.01,0,0,0,5.23-4.752a4.9,4.9,0,0,0,.536,2.318A3.866,3.866,0,0,0,7.251-.87a3.81,3.81,0,0,0,.6.286,3.738,3.738,0,0,1-.474-.242A4.009,4.009,0,0,1,5.881-2.443,5.066,5.066,0,0,1,5.352-4.8,7.526,7.526,0,0,1,5.7-7.105a5.978,5.978,0,0,1,1-1.9A4.785,4.785,0,0,1,7.457-9.77Zm5.7,7.5A3.922,3.922,0,0,1,11.879-.913L11.863-.9l.083-.05a3.923,3.923,0,0,0,1.3-1.291ZM12.4-10.255a3.014,3.014,0,0,1,.486.358,3.585,3.585,0,0,1,1.038,1.662l.137-.032a3.561,3.561,0,0,0-.555-1.065A3.283,3.283,0,0,0,12.4-10.255ZM31.02.676A2.359,2.359,0,0,1,28.807-.4a3.54,3.54,0,0,1-.21-2.62L31.745-16.56h2.127L30.649-2.725c-.17.742-.071,1.054,0,1.173.107.172.364.259.763.259a4.513,4.513,0,0,0,.562-.029,2.506,2.506,0,0,0,.394-.082l.889-.267-.6,2-.219.091a3.276,3.276,0,0,1-.662.2A4.221,4.221,0,0,1,31.02.676ZM32.539-15.56,29.571-2.791a2.613,2.613,0,0,0,.1,1.889c.082.14.329.561,1.293.578a1.562,1.562,0,0,1-1.158-.7,2.536,2.536,0,0,1-.129-1.927l2.938-12.61ZM1.254.676A1.406,1.406,0,0,1,.259.3,1.319,1.319,0,0,1-.148-.682,1.611,1.611,0,0,1,.289-1.843a1.489,1.489,0,0,1,1.1-.461,1.378,1.378,0,0,1,.973.381,1.319,1.319,0,0,1,.407.977A1.611,1.611,0,0,1,2.329.215,1.464,1.464,0,0,1,1.254.676ZM1.386-1.3a.485.485,0,0,0-.377.155.615.615,0,0,0-.157.467.316.316,0,0,0,.1.255.4.4,0,0,0,.3.1.461.461,0,0,0,.355-.155.615.615,0,0,0,.157-.467.316.316,0,0,0-.1-.255A.372.372,0,0,0,1.386-1.3ZM64.9.5H62.776l2.739-11.929q.037-.149.074-.291l-.012.008a10.849,10.849,0,0,1-1.615.853,8.76,8.76,0,0,1-1.646.525l-.588.121-.043-2.058.39-.095a9.11,9.11,0,0,0,1.615-.574,11.474,11.474,0,0,0,1.623-.906,6.841,6.841,0,0,0,1.22-1.012l.149-.161H68.5Zm-.87-1h.075l2.884-12.441c-.1.288-.182.565-.257.826s-.161.581-.247.924Zm-1.33-11v.036a8.463,8.463,0,0,0,.869-.316q.322-.137.636-.3l-.1.047A10.632,10.632,0,0,1,62.7-11.5Zm3.65-1.859.647.381.242-1.042h-.126A7.405,7.405,0,0,1,66.352-13.359ZM47.917.5H45.792l2.739-11.929q.037-.149.074-.291l-.012.008a10.849,10.849,0,0,1-1.615.853,8.76,8.76,0,0,1-1.646.525l-.588.121L44.7-12.271l.39-.095a9.11,9.11,0,0,0,1.615-.574,11.474,11.474,0,0,0,1.623-.906,6.842,6.842,0,0,0,1.22-1.012l.149-.161h1.817Zm-.87-1h.075l2.884-12.441c-.1.288-.182.565-.257.826s-.161.581-.247.924Zm-1.33-11v.036a8.463,8.463,0,0,0,.869-.316q.322-.137.636-.3l-.1.047A10.633,10.633,0,0,1,45.718-11.5Zm3.65-1.859.647.381.242-1.042h-.126A7.4,7.4,0,0,1,49.368-13.359ZM59.884-4.78H52.1L52.6-6.9h7.781Zm-6.519-1h5.727l.029-.122H53.394Z" transform="translate(199 424)"/>
      <text id="_.col_1-2" data-name=".col_1-2" transform="translate(357 424)" fill="#0d0d0d" font-size="22" font-family="WorkSans-LightItalic, Work Sans" font-weight="300" font-style="italic"><tspan x="0" y="0">.col_1-2</tspan></text>
      <path id="_.col_1-2_-_Outline" data-name=".col_1-2 - Outline" d="M42.731,3.646H30.268l.437-2.012H43.168Zm-11.223-1H41.925l0-.012H31.511ZM21.142.7a5.428,5.428,0,0,1-2.891-.745,4.936,4.936,0,0,1-1.845-2,5.933,5.933,0,0,1-.626-2.7,8,8,0,0,1,.766-3.565,6.159,6.159,0,0,1,2.143-2.474,5.716,5.716,0,0,1,3.2-.907,5.4,5.4,0,0,1,2.917.748,4.942,4.942,0,0,1,1.808,1.98,5.932,5.932,0,0,1,.615,2.7,8.123,8.123,0,0,1-.753,3.55,6.144,6.144,0,0,1-2.131,2.5A5.665,5.665,0,0,1,21.142.7ZM18.929-9.734a5.258,5.258,0,0,0-1.485,1.858,7.018,7.018,0,0,0-.664,3.123A4.942,4.942,0,0,0,17.3-2.5,3.9,3.9,0,0,0,18.775-.9q.108.067.222.126-.067-.038-.133-.079A3.911,3.911,0,0,1,17.392-2.5a5.247,5.247,0,0,1-.49-2.3,7.665,7.665,0,0,1,.355-2.377,5.835,5.835,0,0,1,1.012-1.9A4.656,4.656,0,0,1,18.929-9.734Zm5.179-.468.069.041a3.8,3.8,0,0,1,1.454,1.63,5.33,5.33,0,0,1,.477,2.3,7.893,7.893,0,0,1-.342,2.372,5.694,5.694,0,0,1-1.014,1.916,4.817,4.817,0,0,1-.712.707,5.223,5.223,0,0,0,1.536-1.923A7.134,7.134,0,0,0,26.23-6.27a4.942,4.942,0,0,0-.507-2.25A3.956,3.956,0,0,0,24.275-10.1Q24.193-10.155,24.108-10.2Zm-2.262.45a3.659,3.659,0,0,0-1.56.338,3.526,3.526,0,0,0-1.243.975,4.842,4.842,0,0,0-.836,1.576A6.67,6.67,0,0,0,17.9-4.8a4.258,4.258,0,0,0,.39,1.862,2.887,2.887,0,0,0,1.1,1.234,3.342,3.342,0,0,0,1.792.452,3.586,3.586,0,0,0,1.546-.337,3.605,3.605,0,0,0,1.246-.987,4.7,4.7,0,0,0,.834-1.582,6.9,6.9,0,0,0,.3-2.072A4.344,4.344,0,0,0,24.727-8.1,2.782,2.782,0,0,0,23.651-9.31,3.394,3.394,0,0,0,21.846-9.752ZM9.5.7A5.345,5.345,0,0,1,6.741-.01,4.9,4.9,0,0,1,4.882-1.966,5.889,5.889,0,0,1,4.23-4.752,8,8,0,0,1,4.984-8.27a6.179,6.179,0,0,1,2.153-2.5,5.8,5.8,0,0,1,3.269-.93,5.364,5.364,0,0,1,2.243.452A4.3,4.3,0,0,1,14.3-9.94,4.675,4.675,0,0,1,15.164-8l.095.474-2.111.5-.089-.525a2.675,2.675,0,0,0-.843-1.6,2.643,2.643,0,0,0-1.854-.6A3.671,3.671,0,0,0,8.724-9.4,3.653,3.653,0,0,0,7.476-8.379,4.983,4.983,0,0,0,6.647-6.8a6.53,6.53,0,0,0-.295,2A4.081,4.081,0,0,0,6.769-2.9,2.983,2.983,0,0,0,7.893-1.682a3.277,3.277,0,0,0,1.721.434,3.041,3.041,0,0,0,1.717-.5A2.919,2.919,0,0,0,12.453-3.1l.188-.445,1.982.759L14.4-2.3A4.978,4.978,0,0,1,12.474-.1,5.527,5.527,0,0,1,9.5.7ZM7.457-9.769A5.231,5.231,0,0,0,5.884-7.834,7.01,7.01,0,0,0,5.23-4.752a4.9,4.9,0,0,0,.536,2.318A3.866,3.866,0,0,0,7.251-.87a3.809,3.809,0,0,0,.6.287,3.737,3.737,0,0,1-.474-.242A4.009,4.009,0,0,1,5.881-2.443,5.066,5.066,0,0,1,5.352-4.8,7.526,7.526,0,0,1,5.7-7.105a5.978,5.978,0,0,1,1-1.9A4.785,4.785,0,0,1,7.457-9.769Zm5.7,7.5A3.922,3.922,0,0,1,11.879-.913L11.863-.9l.083-.05a3.923,3.923,0,0,0,1.3-1.291ZM12.4-10.255a3.014,3.014,0,0,1,.486.358,3.585,3.585,0,0,1,1.038,1.662l.137-.032a3.561,3.561,0,0,0-.555-1.065A3.283,3.283,0,0,0,12.4-10.255ZM31.02.676A2.359,2.359,0,0,1,28.807-.4a3.54,3.54,0,0,1-.21-2.62L31.745-16.56h2.127L30.649-2.725c-.17.742-.071,1.054,0,1.173.107.172.364.259.763.259a4.512,4.512,0,0,0,.562-.029,2.506,2.506,0,0,0,.394-.082l.889-.267-.6,2-.219.091a3.276,3.276,0,0,1-.662.2A4.221,4.221,0,0,1,31.02.676ZM32.539-15.56,29.571-2.791a2.613,2.613,0,0,0,.1,1.889c.082.14.329.561,1.293.578a1.562,1.562,0,0,1-1.158-.7,2.536,2.536,0,0,1-.129-1.927l2.938-12.61ZM1.254.676A1.407,1.407,0,0,1,.259.3,1.319,1.319,0,0,1-.148-.682,1.611,1.611,0,0,1,.289-1.843a1.489,1.489,0,0,1,1.1-.461,1.378,1.378,0,0,1,.973.381,1.319,1.319,0,0,1,.407.977A1.611,1.611,0,0,1,2.329.215,1.464,1.464,0,0,1,1.254.676ZM1.386-1.3a.485.485,0,0,0-.377.155.615.615,0,0,0-.157.467.316.316,0,0,0,.1.255.4.4,0,0,0,.3.1.461.461,0,0,0,.355-.155.615.615,0,0,0,.157-.467.316.316,0,0,0-.1-.255A.372.372,0,0,0,1.386-1.3ZM70.751.5H60.067L60.5-1.334l.157-.11c1.356-.948,2.635-1.85,3.8-2.681a35.947,35.947,0,0,0,3.027-2.386,10.475,10.475,0,0,0,1.943-2.223,4.08,4.08,0,0,0,.65-2.178,2.042,2.042,0,0,0-.66-1.746,3.079,3.079,0,0,0-1.9-.548,3.346,3.346,0,0,0-2.359.86,4.693,4.693,0,0,0-1.36,2.311l-.194.724-1.724-1.326.1-.329A6.423,6.423,0,0,1,63.1-13.147a5.487,5.487,0,0,1,1.911-1.536,5.806,5.806,0,0,1,2.574-.557,5.589,5.589,0,0,1,2.367.476A3.85,3.85,0,0,1,71.6-13.35a4.068,4.068,0,0,1,.6,2.24,5.6,5.6,0,0,1-.555,2.438A9.42,9.42,0,0,1,70.168-6.5a19.034,19.034,0,0,1-2.124,2.023c-.79.65-1.647,1.3-2.546,1.946q-.708.5-1.435,1.018h7.169Zm-7.745-1h6.956l0-.012H63.558c-.111,0-.284,0-.512.011Zm-1.677,0h.651v-.652l-.6.418Zm6.189-13.706a4.048,4.048,0,0,1,2.5.75,3,3,0,0,1,1.056,2.544,4.915,4.915,0,0,1-.407,1.954q.037-.073.072-.146A4.607,4.607,0,0,0,71.2-11.11a3.092,3.092,0,0,0-.437-1.7,2.827,2.827,0,0,0-1.231-1.049,4.6,4.6,0,0,0-1.945-.383,4.818,4.818,0,0,0-2.134.455,4.5,4.5,0,0,0-1.565,1.258A5.381,5.381,0,0,0,63.043-11l.018.014a5.505,5.505,0,0,1,1.425-2.1A4.36,4.36,0,0,1,67.518-14.206ZM47.917.5H45.792l2.739-11.929q.037-.149.074-.291l-.012.008a10.849,10.849,0,0,1-1.615.853,8.759,8.759,0,0,1-1.646.525l-.588.121L44.7-12.271l.39-.095a9.11,9.11,0,0,0,1.615-.574,11.474,11.474,0,0,0,1.623-.906,6.841,6.841,0,0,0,1.22-1.012l.149-.161h1.817Zm-.87-1h.075l2.884-12.441c-.1.288-.182.565-.257.826s-.161.581-.247.924Zm-1.33-11v.036a8.463,8.463,0,0,0,.869-.316q.322-.137.636-.3l-.1.047A10.633,10.633,0,0,1,45.718-11.5Zm3.65-1.859.647.381.242-1.042h-.126A7.4,7.4,0,0,1,49.368-13.359ZM59.884-4.78H52.1L52.6-6.9h7.781Zm-6.519-1h5.727l.029-.122H53.394Z" transform="translate(357 424)"/>
      <text id="_.col_1-3" data-name=".col_1-3" transform="translate(1469 424)" fill="#0d0d0d" font-size="22" font-family="WorkSans-LightItalic, Work Sans" font-weight="300" font-style="italic"><tspan x="0" y="0">.col_1-3</tspan></text>
      <path id="_.col_1-3_-_Outline" data-name=".col_1-3 - Outline" d="M42.731,3.646H30.268l.437-2.012H43.168Zm-11.223-1H41.925l0-.012H31.511ZM66.352.72A5.3,5.3,0,0,1,62.829-.465,5.552,5.552,0,0,1,61-3.611l-.1-.468,2.168-.573.083.551a3.319,3.319,0,0,0,1.041,2.048,3.153,3.153,0,0,0,2.226.761,3.659,3.659,0,0,0,1.734-.381,2.659,2.659,0,0,0,1.08-1.022,2.858,2.858,0,0,0,.382-1.485,1.886,1.886,0,0,0-.666-1.6,3.15,3.15,0,0,0-1.98-.565h-.286a2.617,2.617,0,0,0-.275.019l-.693.077L66.2-8.462l.443.044c.15.015.288.03.408.045a2.531,2.531,0,0,0,.312.018A4.043,4.043,0,0,0,69.117-8.7a2.444,2.444,0,0,0,1.057-.914A2.537,2.537,0,0,0,70.538-11a2.157,2.157,0,0,0-.329-1.245,2.1,2.1,0,0,0-.9-.74,3.3,3.3,0,0,0-1.348-.265,3.429,3.429,0,0,0-2.069.574,3.575,3.575,0,0,0-1.207,1.6l-.221.548-1.84-1.129.17-.4a5.015,5.015,0,0,1,2.061-2.377,6.158,6.158,0,0,1,3.216-.83,5.3,5.3,0,0,1,2.318.49,3.937,3.937,0,0,1,1.633,1.423,3.985,3.985,0,0,1,.6,2.2,4.466,4.466,0,0,1-.523,2.164,4.074,4.074,0,0,1-1.428,1.527,4.379,4.379,0,0,1-.459.25l.068.045a3.294,3.294,0,0,1,1.075,1.2,3.556,3.556,0,0,1,.388,1.674,4.774,4.774,0,0,1-.756,2.709A4.946,4.946,0,0,1,69,.131,6.016,6.016,0,0,1,66.352.72ZM62.1-3.362a4.367,4.367,0,0,0,1.374,2.133,4.274,4.274,0,0,0,2.879.949,5.479,5.479,0,0,0,.811-.059,5.715,5.715,0,0,1-.745.047,4.159,4.159,0,0,1-2.9-1.021,4.213,4.213,0,0,1-1.246-2.094Zm7.977-2.674a3.088,3.088,0,0,1,.538,1.856,3.883,3.883,0,0,1-.52,1.991A3.649,3.649,0,0,1,68.82-.9,3.928,3.928,0,0,0,70.15-2.137a3.8,3.8,0,0,0,.586-2.153A2.569,2.569,0,0,0,70.464-5.5,2.3,2.3,0,0,0,70.076-6.036Zm-3.1-1.306a5.3,5.3,0,0,1,1.161.122V-7.4a6.248,6.248,0,0,1-.776.047,3.606,3.606,0,0,1-.378-.019Zm.979-6.908a4.292,4.292,0,0,1,1.754.351,3.114,3.114,0,0,1,1.319,1.086A3.128,3.128,0,0,1,71.538-11a3.748,3.748,0,0,1-.254,1.4,3.537,3.537,0,0,0,.332-1.55,3.006,3.006,0,0,0-.437-1.654,2.912,2.912,0,0,0-1.227-1.063,4.312,4.312,0,0,0-1.884-.39,6.256,6.256,0,0,0-.89.062A5.921,5.921,0,0,1,67.958-14.25Zm-4.061,2.2.107.066a4.482,4.482,0,0,1,1.293-1.5,3.656,3.656,0,0,1,.935-.493,4.537,4.537,0,0,0-.865.4A3.935,3.935,0,0,0,63.9-12.048ZM21.142.7a5.428,5.428,0,0,1-2.891-.745,4.936,4.936,0,0,1-1.845-2,5.933,5.933,0,0,1-.626-2.7,8,8,0,0,1,.766-3.565,6.159,6.159,0,0,1,2.143-2.474,5.716,5.716,0,0,1,3.2-.907,5.4,5.4,0,0,1,2.917.748,4.942,4.942,0,0,1,1.808,1.98,5.932,5.932,0,0,1,.615,2.7,8.123,8.123,0,0,1-.753,3.55,6.145,6.145,0,0,1-2.131,2.5A5.665,5.665,0,0,1,21.142.7ZM18.929-9.734a5.258,5.258,0,0,0-1.485,1.858,7.018,7.018,0,0,0-.664,3.123A4.942,4.942,0,0,0,17.3-2.5,3.9,3.9,0,0,0,18.775-.9q.108.067.222.126-.067-.038-.133-.079A3.91,3.91,0,0,1,17.392-2.5a5.247,5.247,0,0,1-.49-2.3,7.665,7.665,0,0,1,.355-2.377,5.835,5.835,0,0,1,1.012-1.9A4.656,4.656,0,0,1,18.929-9.734Zm5.179-.468.069.041a3.8,3.8,0,0,1,1.454,1.63,5.33,5.33,0,0,1,.477,2.3,7.893,7.893,0,0,1-.342,2.372,5.7,5.7,0,0,1-1.014,1.916,4.817,4.817,0,0,1-.712.707,5.223,5.223,0,0,0,1.536-1.923A7.134,7.134,0,0,0,26.23-6.27a4.942,4.942,0,0,0-.507-2.25A3.956,3.956,0,0,0,24.275-10.1Q24.193-10.155,24.108-10.2Zm-2.262.45a3.659,3.659,0,0,0-1.56.338,3.526,3.526,0,0,0-1.243.975,4.842,4.842,0,0,0-.836,1.576A6.67,6.67,0,0,0,17.9-4.8a4.258,4.258,0,0,0,.39,1.862,2.887,2.887,0,0,0,1.1,1.234,3.342,3.342,0,0,0,1.792.452,3.587,3.587,0,0,0,1.546-.337,3.606,3.606,0,0,0,1.246-.987,4.7,4.7,0,0,0,.834-1.582,6.9,6.9,0,0,0,.3-2.072A4.344,4.344,0,0,0,24.727-8.1,2.782,2.782,0,0,0,23.651-9.31,3.394,3.394,0,0,0,21.846-9.752ZM9.5.7A5.345,5.345,0,0,1,6.741-.01,4.9,4.9,0,0,1,4.882-1.966,5.889,5.889,0,0,1,4.23-4.752,8,8,0,0,1,4.984-8.27a6.179,6.179,0,0,1,2.153-2.5,5.8,5.8,0,0,1,3.269-.93,5.364,5.364,0,0,1,2.243.452A4.3,4.3,0,0,1,14.3-9.94,4.675,4.675,0,0,1,15.164-8l.095.474-2.111.5-.089-.525a2.675,2.675,0,0,0-.843-1.6,2.643,2.643,0,0,0-1.854-.6A3.671,3.671,0,0,0,8.724-9.4,3.653,3.653,0,0,0,7.476-8.379,4.983,4.983,0,0,0,6.647-6.8a6.53,6.53,0,0,0-.295,2A4.081,4.081,0,0,0,6.769-2.9,2.983,2.983,0,0,0,7.893-1.682a3.277,3.277,0,0,0,1.721.434,3.041,3.041,0,0,0,1.717-.5A2.919,2.919,0,0,0,12.453-3.1l.188-.445,1.982.759L14.4-2.3A4.978,4.978,0,0,1,12.474-.1,5.527,5.527,0,0,1,9.5.7ZM7.457-9.77A5.231,5.231,0,0,0,5.884-7.834,7.01,7.01,0,0,0,5.23-4.752a4.9,4.9,0,0,0,.536,2.318A3.866,3.866,0,0,0,7.251-.87a3.81,3.81,0,0,0,.6.286,3.738,3.738,0,0,1-.474-.242A4.009,4.009,0,0,1,5.881-2.443,5.066,5.066,0,0,1,5.352-4.8,7.525,7.525,0,0,1,5.7-7.105a5.978,5.978,0,0,1,1-1.9A4.785,4.785,0,0,1,7.457-9.77Zm5.7,7.5A3.922,3.922,0,0,1,11.879-.913L11.863-.9l.083-.05a3.923,3.923,0,0,0,1.3-1.291ZM12.4-10.255a3.014,3.014,0,0,1,.486.358,3.585,3.585,0,0,1,1.038,1.662l.137-.032a3.561,3.561,0,0,0-.555-1.065A3.283,3.283,0,0,0,12.4-10.255ZM31.02.676A2.359,2.359,0,0,1,28.807-.4a3.54,3.54,0,0,1-.21-2.62L31.745-16.56h2.127L30.649-2.725c-.17.742-.071,1.054,0,1.173.107.172.364.259.763.259a4.513,4.513,0,0,0,.562-.029,2.507,2.507,0,0,0,.394-.082l.889-.267-.6,2-.219.091a3.276,3.276,0,0,1-.662.2A4.221,4.221,0,0,1,31.02.676ZM32.539-15.56,29.571-2.791a2.613,2.613,0,0,0,.1,1.889c.082.14.329.561,1.293.578a1.562,1.562,0,0,1-1.158-.7,2.536,2.536,0,0,1-.129-1.927l2.938-12.61ZM1.254.676A1.406,1.406,0,0,1,.259.3,1.319,1.319,0,0,1-.148-.682,1.611,1.611,0,0,1,.289-1.843a1.489,1.489,0,0,1,1.1-.461,1.378,1.378,0,0,1,.973.381,1.319,1.319,0,0,1,.407.977A1.611,1.611,0,0,1,2.329.215,1.464,1.464,0,0,1,1.254.676ZM1.386-1.3a.485.485,0,0,0-.377.155.615.615,0,0,0-.157.467.316.316,0,0,0,.1.255.4.4,0,0,0,.3.1.461.461,0,0,0,.355-.155.615.615,0,0,0,.157-.467.316.316,0,0,0-.1-.255A.372.372,0,0,0,1.386-1.3ZM47.917.5H45.792l2.739-11.929q.037-.149.074-.291l-.012.008a10.851,10.851,0,0,1-1.615.853,8.76,8.76,0,0,1-1.646.525l-.588.121L44.7-12.271l.39-.095a9.11,9.11,0,0,0,1.615-.574,11.474,11.474,0,0,0,1.623-.906,6.842,6.842,0,0,0,1.22-1.012l.149-.161h1.817Zm-.87-1h.075l2.884-12.441c-.1.288-.182.565-.257.826s-.161.581-.247.924Zm-1.33-11v.036a8.465,8.465,0,0,0,.869-.316q.322-.137.636-.3l-.1.046A10.632,10.632,0,0,1,45.718-11.5Zm3.65-1.859.647.381.242-1.042h-.126A7.4,7.4,0,0,1,49.368-13.359ZM59.884-4.78H52.1L52.6-6.9h7.781Zm-6.519-1h5.727l.029-.122H53.394Z" transform="translate(1469 424)"/>
    </g>
    <path id="Rectangle_148" data-name="Rectangle 148" d="M1,1V557H1608V1H1M0,0H1609V558H0Z" transform="translate(156 357)"/>
    <text id="img_img_img_img_img_img" data-name="img
img
img
img
img
img" transform="translate(1438 718)" fill="#0d0d0d" font-size="22" font-family="WorkSans-LightItalic, Work Sans" font-weight="300" font-style="italic"><tspan x="0" y="0">img</tspan><tspan x="0" y="26">img</tspan><tspan x="0" y="52">img</tspan><tspan x="0" y="78">img</tspan><tspan x="0" y="104">img</tspan><tspan x="0" y="130">img</tspan></text>
    <path id="img_img_img_img_img_img_-_Outline" data-name="img
img
img
img
img
img - Outline" d="M4.488-15.482a1.321,1.321,0,0,1,.959.377,1.294,1.294,0,0,1,.377.937,1.522,1.522,0,0,1-.415,1.095,1.426,1.426,0,0,1-1.053.439,1.321,1.321,0,0,1-.959-.377,1.294,1.294,0,0,1-.377-.937,1.488,1.488,0,0,1,.439-1.119A1.458,1.458,0,0,1,4.488-15.482Zm-.132,1.848a.426.426,0,0,0,.333-.133.529.529,0,0,0,.135-.4.291.291,0,0,0-.085-.229.32.32,0,0,0-.251-.085.452.452,0,0,0-.335.135.5.5,0,0,0-.133.4.291.291,0,0,0,.085.229A.32.32,0,0,0,4.356-13.634Zm8.47,1.914a4.12,4.12,0,0,1,2.36.648,3.284,3.284,0,0,1,1.129,1.324,5.29,5.29,0,0,1,1.137-1.039,5.654,5.654,0,0,1,3.228-.933,4.174,4.174,0,0,1,2.369.646,3.322,3.322,0,0,1,1.345,1.88,5.416,5.416,0,0,1-.037,2.776L22.772.5H20.646l1.637-7.124A3.03,3.03,0,0,0,22.115-9a1.915,1.915,0,0,0-1.721-.75,3.692,3.692,0,0,0-1.873.461A3.816,3.816,0,0,0,17.2-8.005a6.188,6.188,0,0,0-.69,1.563l-.006.024L14.9.5H12.768l1.661-7.126A3.028,3.028,0,0,0,14.261-9a1.915,1.915,0,0,0-1.721-.75,3.7,3.7,0,0,0-1.863.451A3.782,3.782,0,0,0,9.364-8.036a6.366,6.366,0,0,0-.8,1.969L7.042.5H4.915L7.7-11.5H9.674l-.159.8q.108-.079.221-.154A5.522,5.522,0,0,1,12.826-11.72ZM21.976-.5l1.407-6.146a4.459,4.459,0,0,0,.052-2.266,2.317,2.317,0,0,0-.943-1.332,2.991,2.991,0,0,0-1.459-.463,2.677,2.677,0,0,1,1.908,1.141A3.941,3.941,0,0,1,23.257-6.4L21.9-.5ZM15.628-8.685c-.016-.076-.036-.151-.058-.222a2.384,2.384,0,0,0-.947-1.339,2.932,2.932,0,0,0-1.445-.461,2.677,2.677,0,0,1,1.908,1.141,2.785,2.785,0,0,1,.434,1.106Q15.573-8.574,15.628-8.685Zm-7.5.815-.227-.1L6.173-.5h.073l1.34-5.795A7.88,7.88,0,0,1,8.132-7.87Zm7.274,1.753L15.4-6.384,14.028-.5H14.1ZM32.1-11.72a4.652,4.652,0,0,1,2.571.685,4.176,4.176,0,0,1,1.4,1.494l.453-1.959h2.128L35.907.246A7.587,7.587,0,0,1,34.7,3.069a5.07,5.07,0,0,1-1.989,1.643,6.252,6.252,0,0,1-2.593.518,6.35,6.35,0,0,1-1.886-.276,5.337,5.337,0,0,1-1.589-.79A4.486,4.486,0,0,1,25.479,2.9a4.825,4.825,0,0,1-.627-1.668L24.774.812,26.8.109l.111.564A3.125,3.125,0,0,0,27.978,2.6a3.508,3.508,0,0,0,2.25.66,4.1,4.1,0,0,0,1.619-.312,2.953,2.953,0,0,0,1.221-1.021A5.558,5.558,0,0,0,33.9-.149l0-.008.117-.506-.107.075a4.982,4.982,0,0,1-2.867.846A4.885,4.885,0,0,1,28.5-.418a4.718,4.718,0,0,1-1.77-1.891A5.856,5.856,0,0,1,26.1-5.06a7.941,7.941,0,0,1,.412-2.582,6.366,6.366,0,0,1,1.206-2.124,5.7,5.7,0,0,1,1.9-1.434A5.806,5.806,0,0,1,32.1-11.72Zm5.288,1.22h-.072l-.675,2.92q.008.115.012.234ZM29.833-.913a3.65,3.65,0,0,1-1.521-.978A4.467,4.467,0,0,1,27.2-5.06,6.766,6.766,0,0,1,27.782-7.9a5.092,5.092,0,0,1,1.707-2.082q.089-.063.181-.12a4.69,4.69,0,0,0-1.2.989,5.371,5.371,0,0,0-1.016,1.792A6.944,6.944,0,0,0,27.1-5.06a4.871,4.871,0,0,0,.515,2.286,3.682,3.682,0,0,0,1.4,1.5A3.659,3.659,0,0,0,29.833-.913Zm1.473-.775a3.191,3.191,0,0,0,1.988-.626A4.181,4.181,0,0,0,34.62-4.037,6.1,6.1,0,0,0,35.1-6.468,3.964,3.964,0,0,0,34.7-8.334a2.515,2.515,0,0,0-1.04-1.071,3.158,3.158,0,0,0-1.522-.369,3.487,3.487,0,0,0-2.077.613,4.105,4.105,0,0,0-1.373,1.68A5.775,5.775,0,0,0,28.2-5.06a3.461,3.461,0,0,0,.844,2.485A2.927,2.927,0,0,0,31.306-1.688Zm5.048-4.386L36.088-6.1a6.982,6.982,0,0,1-.55,2.46q-.045.105-.094.208l.239.239ZM34.126,2.131A7.176,7.176,0,0,0,34.933.02L35.5-2.4q-.045.092-.093.181L34.874.065A7.183,7.183,0,0,1,34.126,2.131Zm-6.01,1.72a3.6,3.6,0,0,1-.764-.469,3.931,3.931,0,0,1-1.281-1.96l-.137.047a3.659,3.659,0,0,0,.4.909,3.49,3.49,0,0,0,.905.982A4.152,4.152,0,0,0,28.116,3.851ZM2.771-11.5H4.9L2.113.5H-.013Zm.868,1H3.565L1.245-.5h.073Zm.849,21.018a1.321,1.321,0,0,1,.959.377,1.294,1.294,0,0,1,.377.937,1.522,1.522,0,0,1-.415,1.095,1.426,1.426,0,0,1-1.053.439,1.322,1.322,0,0,1-.959-.377,1.294,1.294,0,0,1-.377-.937,1.488,1.488,0,0,1,.439-1.119A1.458,1.458,0,0,1,4.488,10.518Zm-.132,1.848a.426.426,0,0,0,.333-.133.529.529,0,0,0,.135-.4.291.291,0,0,0-.085-.229.32.32,0,0,0-.251-.085.452.452,0,0,0-.335.135.5.5,0,0,0-.133.4.291.291,0,0,0,.085.229A.32.32,0,0,0,4.356,12.366Zm8.47,1.914a4.12,4.12,0,0,1,2.36.648,3.284,3.284,0,0,1,1.129,1.324,5.29,5.29,0,0,1,1.137-1.039,5.654,5.654,0,0,1,3.228-.933,4.174,4.174,0,0,1,2.369.646,3.322,3.322,0,0,1,1.345,1.88,5.416,5.416,0,0,1-.037,2.777L22.772,26.5H20.646l1.637-7.124A3.03,3.03,0,0,0,22.115,17a1.915,1.915,0,0,0-1.721-.75,3.692,3.692,0,0,0-1.873.461A3.816,3.816,0,0,0,17.2,17.995a6.188,6.188,0,0,0-.69,1.563l-.006.024L14.9,26.5H12.768l1.661-7.126A3.028,3.028,0,0,0,14.261,17a1.915,1.915,0,0,0-1.721-.75,3.7,3.7,0,0,0-1.863.451,3.783,3.783,0,0,0-1.312,1.265,6.367,6.367,0,0,0-.8,1.969L7.042,26.5H4.915L7.7,14.5H9.674l-.159.8q.108-.079.221-.154A5.522,5.522,0,0,1,12.826,14.28Zm9.15,11.22,1.407-6.146a4.459,4.459,0,0,0,.052-2.266,2.317,2.317,0,0,0-.943-1.332,2.991,2.991,0,0,0-1.459-.463,2.677,2.677,0,0,1,1.909,1.141,3.941,3.941,0,0,1,.316,3.167L21.9,25.5Zm-6.347-8.185c-.016-.076-.036-.151-.058-.222a2.384,2.384,0,0,0-.947-1.339,2.932,2.932,0,0,0-1.445-.461,2.677,2.677,0,0,1,1.908,1.141,2.785,2.785,0,0,1,.434,1.106Q15.573,17.426,15.628,17.315Zm-7.5.815-.227-.1L6.173,25.5h.073l1.34-5.795A7.88,7.88,0,0,1,8.132,18.13Zm7.274,1.753-.006-.267L14.028,25.5H14.1ZM32.1,14.28a4.652,4.652,0,0,1,2.571.685,4.176,4.176,0,0,1,1.4,1.494l.453-1.959h2.128L35.907,26.246A7.587,7.587,0,0,1,34.7,29.069a5.07,5.07,0,0,1-1.989,1.643,6.252,6.252,0,0,1-2.593.518,6.35,6.35,0,0,1-1.886-.276,5.338,5.338,0,0,1-1.589-.79A4.486,4.486,0,0,1,25.479,28.9a4.825,4.825,0,0,1-.627-1.668l-.078-.422,2.027-.7.111.564A3.125,3.125,0,0,0,27.978,28.6a3.508,3.508,0,0,0,2.25.66,4.1,4.1,0,0,0,1.619-.312,2.954,2.954,0,0,0,1.221-1.021,5.558,5.558,0,0,0,.829-2.078l0-.008.117-.507-.107.075a4.981,4.981,0,0,1-2.867.846,4.885,4.885,0,0,1-2.545-.676,4.718,4.718,0,0,1-1.77-1.891A5.856,5.856,0,0,1,26.1,20.94a7.941,7.941,0,0,1,.412-2.582,6.366,6.366,0,0,1,1.206-2.124,5.7,5.7,0,0,1,1.9-1.434A5.807,5.807,0,0,1,32.1,14.28Zm5.288,1.22h-.072l-.675,2.92q.008.115.012.233Zm-7.553,9.586a3.65,3.65,0,0,1-1.521-.978A4.467,4.467,0,0,1,27.2,20.94a6.766,6.766,0,0,1,.584-2.837,5.092,5.092,0,0,1,1.707-2.082q.089-.063.181-.12a4.69,4.69,0,0,0-1.2.989,5.372,5.372,0,0,0-1.016,1.792A6.944,6.944,0,0,0,27.1,20.94a4.871,4.871,0,0,0,.515,2.286,3.68,3.68,0,0,0,2.22,1.86Zm1.473-.774a3.191,3.191,0,0,0,1.988-.626,4.181,4.181,0,0,0,1.326-1.723,6.1,6.1,0,0,0,.476-2.431,3.965,3.965,0,0,0-.392-1.866,2.515,2.515,0,0,0-1.04-1.071,3.157,3.157,0,0,0-1.522-.369,3.487,3.487,0,0,0-2.077.613,4.106,4.106,0,0,0-1.373,1.68A5.775,5.775,0,0,0,28.2,20.94a3.461,3.461,0,0,0,.844,2.485A2.927,2.927,0,0,0,31.306,24.312Zm5.048-4.386-.266-.027a6.981,6.981,0,0,1-.55,2.46q-.045.105-.094.208l.239.239Zm-2.228,8.205a7.178,7.178,0,0,0,.807-2.111L35.5,23.6q-.045.092-.093.181l-.53,2.285A7.182,7.182,0,0,1,34.126,28.131Zm-6.01,1.72a3.6,3.6,0,0,1-.764-.469,3.931,3.931,0,0,1-1.281-1.96l-.137.047a3.659,3.659,0,0,0,.4.909,3.491,3.491,0,0,0,.905.982A4.152,4.152,0,0,0,28.116,29.851ZM2.771,14.5H4.9l-2.784,12H-.013Zm.868,1H3.565l-2.32,10h.073Zm.849,21.018a1.321,1.321,0,0,1,.959.377,1.294,1.294,0,0,1,.377.937,1.522,1.522,0,0,1-.415,1.095,1.426,1.426,0,0,1-1.053.439,1.322,1.322,0,0,1-.959-.377,1.294,1.294,0,0,1-.377-.937,1.488,1.488,0,0,1,.439-1.119A1.458,1.458,0,0,1,4.488,36.518Zm-.132,1.848a.426.426,0,0,0,.333-.133.529.529,0,0,0,.135-.4.291.291,0,0,0-.085-.229.32.32,0,0,0-.251-.085.452.452,0,0,0-.335.135.5.5,0,0,0-.133.4.291.291,0,0,0,.085.229A.32.32,0,0,0,4.356,38.366Zm8.47,1.914a4.12,4.12,0,0,1,2.36.648,3.284,3.284,0,0,1,1.129,1.324,5.29,5.29,0,0,1,1.137-1.039,5.654,5.654,0,0,1,3.228-.933,4.174,4.174,0,0,1,2.369.646,3.322,3.322,0,0,1,1.345,1.88,5.416,5.416,0,0,1-.037,2.777L22.772,52.5H20.646l1.637-7.124A3.03,3.03,0,0,0,22.115,43a1.915,1.915,0,0,0-1.721-.75,3.692,3.692,0,0,0-1.873.461A3.816,3.816,0,0,0,17.2,43.995a6.188,6.188,0,0,0-.69,1.563l-.006.024L14.9,52.5H12.768l1.661-7.126A3.028,3.028,0,0,0,14.261,43a1.915,1.915,0,0,0-1.721-.75,3.7,3.7,0,0,0-1.863.451,3.783,3.783,0,0,0-1.312,1.265,6.367,6.367,0,0,0-.8,1.969L7.042,52.5H4.915L7.7,40.5H9.674l-.159.8q.108-.079.221-.154A5.522,5.522,0,0,1,12.826,40.28Zm9.15,11.22,1.407-6.146a4.459,4.459,0,0,0,.052-2.266,2.317,2.317,0,0,0-.943-1.332,2.991,2.991,0,0,0-1.459-.463,2.677,2.677,0,0,1,1.909,1.141,3.941,3.941,0,0,1,.316,3.167L21.9,51.5Zm-6.347-8.185c-.016-.076-.036-.151-.058-.222a2.384,2.384,0,0,0-.947-1.339,2.933,2.933,0,0,0-1.445-.461,2.677,2.677,0,0,1,1.909,1.141,2.785,2.785,0,0,1,.434,1.106Q15.573,43.426,15.628,43.315Zm-7.5.815-.227-.1L6.173,51.5h.073l1.34-5.795A7.88,7.88,0,0,1,8.132,44.13Zm7.274,1.753-.006-.267L14.028,51.5H14.1ZM32.1,40.28a4.652,4.652,0,0,1,2.571.685,4.176,4.176,0,0,1,1.4,1.494l.453-1.959h2.128L35.907,52.246A7.587,7.587,0,0,1,34.7,55.069a5.07,5.07,0,0,1-1.989,1.643,6.252,6.252,0,0,1-2.593.518,6.351,6.351,0,0,1-1.886-.276,5.338,5.338,0,0,1-1.589-.79A4.487,4.487,0,0,1,25.479,54.9a4.825,4.825,0,0,1-.627-1.668l-.078-.422,2.027-.7.111.564A3.125,3.125,0,0,0,27.978,54.6a3.508,3.508,0,0,0,2.25.66,4.1,4.1,0,0,0,1.619-.312,2.954,2.954,0,0,0,1.221-1.021,5.559,5.559,0,0,0,.829-2.078l0-.008.117-.507-.107.075a4.981,4.981,0,0,1-2.867.846,4.885,4.885,0,0,1-2.545-.676,4.718,4.718,0,0,1-1.77-1.891A5.856,5.856,0,0,1,26.1,46.94a7.941,7.941,0,0,1,.412-2.582,6.366,6.366,0,0,1,1.206-2.124,5.7,5.7,0,0,1,1.9-1.434A5.807,5.807,0,0,1,32.1,40.28Zm5.288,1.22h-.072l-.675,2.92q.008.115.012.233Zm-7.553,9.586a3.65,3.65,0,0,1-1.521-.978A4.467,4.467,0,0,1,27.2,46.94a6.766,6.766,0,0,1,.584-2.837,5.092,5.092,0,0,1,1.707-2.082q.089-.063.181-.121a4.689,4.689,0,0,0-1.2.989,5.372,5.372,0,0,0-1.016,1.792A6.944,6.944,0,0,0,27.1,46.94a4.871,4.871,0,0,0,.515,2.287,3.68,3.68,0,0,0,2.22,1.86Zm1.473-.774a3.191,3.191,0,0,0,1.988-.626,4.181,4.181,0,0,0,1.326-1.723,6.1,6.1,0,0,0,.476-2.431,3.965,3.965,0,0,0-.392-1.866,2.515,2.515,0,0,0-1.04-1.071,3.157,3.157,0,0,0-1.522-.369,3.487,3.487,0,0,0-2.077.613,4.105,4.105,0,0,0-1.373,1.68A5.775,5.775,0,0,0,28.2,46.94a3.461,3.461,0,0,0,.844,2.485A2.927,2.927,0,0,0,31.306,50.312Zm5.048-4.386-.266-.027a6.981,6.981,0,0,1-.55,2.46q-.045.105-.094.208l.239.239Zm-2.228,8.2a7.178,7.178,0,0,0,.806-2.11L35.5,49.6q-.045.092-.093.181l-.53,2.285A7.184,7.184,0,0,1,34.126,54.13Zm-6.01,1.721a3.6,3.6,0,0,1-.765-.47,3.931,3.931,0,0,1-1.281-1.96l-.137.047a3.659,3.659,0,0,0,.4.909,3.491,3.491,0,0,0,.905.982A4.153,4.153,0,0,0,28.116,55.851ZM2.771,40.5H4.9l-2.784,12H-.013Zm.868,1H3.565l-2.32,10h.073Zm.849,21.018a1.321,1.321,0,0,1,.959.377,1.294,1.294,0,0,1,.377.937,1.522,1.522,0,0,1-.415,1.095,1.426,1.426,0,0,1-1.053.439,1.322,1.322,0,0,1-.959-.377,1.294,1.294,0,0,1-.377-.937,1.488,1.488,0,0,1,.439-1.119A1.458,1.458,0,0,1,4.488,62.518Zm-.132,1.848a.426.426,0,0,0,.333-.133.529.529,0,0,0,.135-.4.291.291,0,0,0-.085-.229.32.32,0,0,0-.251-.085.452.452,0,0,0-.335.135.5.5,0,0,0-.133.4.291.291,0,0,0,.085.229A.32.32,0,0,0,4.356,64.366Zm8.47,1.914a4.12,4.12,0,0,1,2.36.648,3.284,3.284,0,0,1,1.129,1.324,5.29,5.29,0,0,1,1.137-1.039,5.654,5.654,0,0,1,3.228-.933,4.174,4.174,0,0,1,2.369.646,3.322,3.322,0,0,1,1.345,1.88,5.416,5.416,0,0,1-.037,2.777L22.772,78.5H20.646l1.637-7.124A3.029,3.029,0,0,0,22.115,69a1.915,1.915,0,0,0-1.721-.75,3.692,3.692,0,0,0-1.873.461A3.817,3.817,0,0,0,17.2,69.995a6.189,6.189,0,0,0-.69,1.563l-.006.024L14.9,78.5H12.768l1.661-7.126A3.028,3.028,0,0,0,14.261,69a1.915,1.915,0,0,0-1.721-.75,3.7,3.7,0,0,0-1.863.451,3.783,3.783,0,0,0-1.312,1.265,6.367,6.367,0,0,0-.8,1.969L7.042,78.5H4.915L7.7,66.5H9.674l-.159.8q.108-.079.221-.154A5.522,5.522,0,0,1,12.826,66.28Zm9.15,11.22,1.407-6.146a4.459,4.459,0,0,0,.052-2.266,2.317,2.317,0,0,0-.943-1.332,2.991,2.991,0,0,0-1.459-.463,2.677,2.677,0,0,1,1.909,1.141,3.941,3.941,0,0,1,.316,3.166L21.9,77.5Zm-6.347-8.185c-.016-.076-.036-.151-.058-.222a2.384,2.384,0,0,0-.947-1.339,2.933,2.933,0,0,0-1.445-.461,2.677,2.677,0,0,1,1.909,1.141,2.785,2.785,0,0,1,.434,1.106Q15.573,69.426,15.628,69.315Zm-7.5.815-.227-.1L6.173,77.5h.073l1.34-5.795A7.88,7.88,0,0,1,8.132,70.13Zm7.274,1.753-.006-.267L14.028,77.5H14.1ZM32.1,66.28a4.652,4.652,0,0,1,2.571.685,4.176,4.176,0,0,1,1.4,1.494l.453-1.959h2.128L35.907,78.246A7.587,7.587,0,0,1,34.7,81.069a5.07,5.07,0,0,1-1.989,1.643,6.252,6.252,0,0,1-2.593.518,6.35,6.35,0,0,1-1.886-.276,5.338,5.338,0,0,1-1.589-.79A4.486,4.486,0,0,1,25.479,80.9a4.825,4.825,0,0,1-.627-1.668l-.078-.422,2.027-.7.111.564A3.125,3.125,0,0,0,27.978,80.6a3.508,3.508,0,0,0,2.25.66,4.1,4.1,0,0,0,1.619-.312,2.954,2.954,0,0,0,1.221-1.021,5.559,5.559,0,0,0,.829-2.078l0-.008.117-.506-.107.075a4.982,4.982,0,0,1-2.867.846,4.885,4.885,0,0,1-2.545-.676,4.718,4.718,0,0,1-1.77-1.891A5.856,5.856,0,0,1,26.1,72.94a7.941,7.941,0,0,1,.412-2.582,6.366,6.366,0,0,1,1.206-2.124,5.7,5.7,0,0,1,1.9-1.434A5.807,5.807,0,0,1,32.1,66.28Zm5.288,1.22h-.072l-.675,2.92q.008.115.012.234Zm-7.553,9.587a3.65,3.65,0,0,1-1.521-.978A4.467,4.467,0,0,1,27.2,72.94a6.766,6.766,0,0,1,.584-2.837,5.092,5.092,0,0,1,1.707-2.082q.089-.063.181-.121a4.69,4.69,0,0,0-1.2.989,5.371,5.371,0,0,0-1.016,1.792A6.944,6.944,0,0,0,27.1,72.94a4.871,4.871,0,0,0,.515,2.286,3.68,3.68,0,0,0,2.221,1.86Zm1.473-.775a3.191,3.191,0,0,0,1.988-.626,4.181,4.181,0,0,0,1.326-1.723,6.1,6.1,0,0,0,.476-2.431,3.964,3.964,0,0,0-.392-1.866,2.515,2.515,0,0,0-1.04-1.071,3.158,3.158,0,0,0-1.522-.369,3.487,3.487,0,0,0-2.077.613,4.105,4.105,0,0,0-1.373,1.68A5.775,5.775,0,0,0,28.2,72.94a3.461,3.461,0,0,0,.844,2.485A2.927,2.927,0,0,0,31.306,76.312Zm5.048-4.386-.266-.027a6.981,6.981,0,0,1-.55,2.46q-.045.105-.094.208l.239.239Zm-2.228,8.205a7.178,7.178,0,0,0,.807-2.111L35.5,75.6q-.045.092-.093.181l-.53,2.285A7.182,7.182,0,0,1,34.126,80.131Zm-6.01,1.72a3.6,3.6,0,0,1-.764-.469,3.931,3.931,0,0,1-1.281-1.96l-.137.047a3.659,3.659,0,0,0,.4.909,3.49,3.49,0,0,0,.905.982A4.152,4.152,0,0,0,28.116,81.851ZM2.771,66.5H4.9l-2.784,12H-.013Zm.868,1H3.565l-2.32,10h.073Zm.849,21.018a1.321,1.321,0,0,1,.959.377,1.294,1.294,0,0,1,.377.937,1.522,1.522,0,0,1-.415,1.095,1.426,1.426,0,0,1-1.053.439,1.322,1.322,0,0,1-.959-.377,1.294,1.294,0,0,1-.377-.937,1.488,1.488,0,0,1,.439-1.119A1.458,1.458,0,0,1,4.488,88.518Zm-.132,1.848a.426.426,0,0,0,.333-.133.529.529,0,0,0,.135-.4.291.291,0,0,0-.085-.229.32.32,0,0,0-.251-.085.452.452,0,0,0-.335.135.5.5,0,0,0-.133.4.291.291,0,0,0,.085.229A.32.32,0,0,0,4.356,90.366Zm8.47,1.914a4.12,4.12,0,0,1,2.36.648,3.284,3.284,0,0,1,1.129,1.324,5.29,5.29,0,0,1,1.137-1.039,5.654,5.654,0,0,1,3.228-.933,4.174,4.174,0,0,1,2.369.646,3.322,3.322,0,0,1,1.345,1.88,5.416,5.416,0,0,1-.037,2.777L22.772,104.5H20.646l1.637-7.124A3.029,3.029,0,0,0,22.115,95a1.915,1.915,0,0,0-1.721-.75,3.692,3.692,0,0,0-1.873.461A3.817,3.817,0,0,0,17.2,95.995a6.189,6.189,0,0,0-.69,1.563l-.006.024L14.9,104.5H12.768l1.661-7.126A3.028,3.028,0,0,0,14.261,95a1.915,1.915,0,0,0-1.721-.75,3.7,3.7,0,0,0-1.863.451,3.783,3.783,0,0,0-1.312,1.265,6.367,6.367,0,0,0-.8,1.969L7.042,104.5H4.915L7.7,92.5H9.674l-.159.8q.108-.079.221-.154A5.522,5.522,0,0,1,12.826,92.28Zm9.15,11.22,1.407-6.146a4.459,4.459,0,0,0,.052-2.266,2.317,2.317,0,0,0-.943-1.332,2.991,2.991,0,0,0-1.459-.463,2.677,2.677,0,0,1,1.909,1.141,3.941,3.941,0,0,1,.316,3.166L21.9,103.5Zm-6.347-8.185c-.016-.076-.036-.15-.058-.222a2.384,2.384,0,0,0-.947-1.338,2.933,2.933,0,0,0-1.445-.461,2.677,2.677,0,0,1,1.909,1.141,2.785,2.785,0,0,1,.434,1.106Q15.573,95.426,15.628,95.315Zm-7.5.815-.227-.1L6.173,103.5h.073l1.34-5.795A7.88,7.88,0,0,1,8.132,96.13Zm7.274,1.753-.006-.267L14.028,103.5H14.1ZM32.1,92.28a4.652,4.652,0,0,1,2.571.685,4.176,4.176,0,0,1,1.4,1.494l.453-1.959h2.128l-2.739,11.746a7.587,7.587,0,0,1-1.207,2.824,5.07,5.07,0,0,1-1.989,1.643,6.252,6.252,0,0,1-2.593.518,6.35,6.35,0,0,1-1.886-.276,5.337,5.337,0,0,1-1.589-.79,4.485,4.485,0,0,1-1.163-1.262,4.825,4.825,0,0,1-.627-1.668l-.078-.422,2.027-.7.111.564a3.125,3.125,0,0,0,1.066,1.929,3.508,3.508,0,0,0,2.25.66,4.1,4.1,0,0,0,1.619-.312,2.953,2.953,0,0,0,1.221-1.021,5.558,5.558,0,0,0,.829-2.078l0-.008.117-.506-.107.075a4.982,4.982,0,0,1-2.867.846,4.885,4.885,0,0,1-2.545-.676,4.718,4.718,0,0,1-1.77-1.891A5.856,5.856,0,0,1,26.1,98.94a7.941,7.941,0,0,1,.412-2.582,6.366,6.366,0,0,1,1.206-2.124,5.7,5.7,0,0,1,1.9-1.434A5.807,5.807,0,0,1,32.1,92.28Zm5.288,1.22h-.072l-.675,2.92q.008.115.012.233Zm-7.553,9.587a3.65,3.65,0,0,1-1.521-.978A4.467,4.467,0,0,1,27.2,98.94a6.766,6.766,0,0,1,.584-2.837,5.092,5.092,0,0,1,1.707-2.082q.089-.063.181-.12a4.69,4.69,0,0,0-1.2.989,5.371,5.371,0,0,0-1.016,1.792A6.944,6.944,0,0,0,27.1,98.94a4.871,4.871,0,0,0,.515,2.286,3.68,3.68,0,0,0,2.221,1.86Zm1.473-.775a3.191,3.191,0,0,0,1.988-.626,4.181,4.181,0,0,0,1.326-1.723,6.1,6.1,0,0,0,.476-2.431,3.965,3.965,0,0,0-.392-1.866,2.515,2.515,0,0,0-1.04-1.071,3.158,3.158,0,0,0-1.522-.369,3.487,3.487,0,0,0-2.077.613,4.106,4.106,0,0,0-1.373,1.68A5.775,5.775,0,0,0,28.2,98.94a3.461,3.461,0,0,0,.844,2.485A2.927,2.927,0,0,0,31.306,102.312Zm5.048-4.386-.266-.027a6.981,6.981,0,0,1-.55,2.46q-.045.105-.094.208l.239.239Zm-2.228,8.206a7.176,7.176,0,0,0,.807-2.111l.564-2.42q-.045.092-.093.181l-.53,2.284A7.183,7.183,0,0,1,34.126,106.131Zm-6.01,1.72a3.6,3.6,0,0,1-.764-.469,3.931,3.931,0,0,1-1.281-1.96l-.137.047a3.659,3.659,0,0,0,.4.909,3.49,3.49,0,0,0,.905.982A4.152,4.152,0,0,0,28.116,107.851ZM2.771,92.5H4.9l-2.784,12H-.013Zm.868,1H3.565l-2.32,10h.073Zm.849,21.018a1.321,1.321,0,0,1,.959.377,1.294,1.294,0,0,1,.377.937,1.522,1.522,0,0,1-.415,1.095,1.426,1.426,0,0,1-1.053.439,1.322,1.322,0,0,1-.959-.377,1.294,1.294,0,0,1-.377-.937,1.488,1.488,0,0,1,.439-1.119A1.458,1.458,0,0,1,4.488,114.518Zm-.132,1.848a.426.426,0,0,0,.333-.133.529.529,0,0,0,.135-.4.291.291,0,0,0-.085-.229.32.32,0,0,0-.251-.085.452.452,0,0,0-.335.135.5.5,0,0,0-.133.4.291.291,0,0,0,.085.229A.32.32,0,0,0,4.356,116.366Zm8.47,1.914a4.12,4.12,0,0,1,2.36.648,3.284,3.284,0,0,1,1.129,1.324,5.29,5.29,0,0,1,1.137-1.039,5.654,5.654,0,0,1,3.228-.933,4.174,4.174,0,0,1,2.369.646,3.322,3.322,0,0,1,1.345,1.88,5.416,5.416,0,0,1-.037,2.777L22.772,130.5H20.646l1.637-7.124A3.029,3.029,0,0,0,22.115,121a1.915,1.915,0,0,0-1.721-.75,3.692,3.692,0,0,0-1.873.461,3.817,3.817,0,0,0-1.323,1.286,6.189,6.189,0,0,0-.69,1.563l-.006.024L14.9,130.5H12.768l1.661-7.126A3.028,3.028,0,0,0,14.261,121a1.915,1.915,0,0,0-1.721-.75,3.7,3.7,0,0,0-1.863.451,3.783,3.783,0,0,0-1.312,1.265,6.367,6.367,0,0,0-.8,1.969L7.042,130.5H4.915l2.784-12H9.674l-.159.8q.108-.079.221-.154A5.522,5.522,0,0,1,12.826,118.28Zm9.15,11.22,1.407-6.146a4.459,4.459,0,0,0,.052-2.266,2.317,2.317,0,0,0-.943-1.332,2.991,2.991,0,0,0-1.459-.463,2.677,2.677,0,0,1,1.909,1.141,3.941,3.941,0,0,1,.316,3.166L21.9,129.5Zm-6.347-8.185c-.016-.076-.036-.15-.058-.222a2.384,2.384,0,0,0-.947-1.338,2.932,2.932,0,0,0-1.445-.461,2.677,2.677,0,0,1,1.908,1.141,2.785,2.785,0,0,1,.434,1.106Q15.573,121.426,15.628,121.315Zm-7.5.815-.227-.1L6.173,129.5h.073l1.34-5.795A7.88,7.88,0,0,1,8.132,122.13Zm7.274,1.753-.006-.267L14.028,129.5H14.1Zm16.692-5.6a4.652,4.652,0,0,1,2.571.685,4.175,4.175,0,0,1,1.4,1.494l.453-1.959h2.128l-2.739,11.746a7.587,7.587,0,0,1-1.207,2.824,5.07,5.07,0,0,1-1.989,1.643,6.252,6.252,0,0,1-2.593.517,6.35,6.35,0,0,1-1.886-.276,5.337,5.337,0,0,1-1.589-.79,4.486,4.486,0,0,1-1.163-1.262,4.825,4.825,0,0,1-.627-1.668l-.078-.422,2.027-.7.111.564a3.125,3.125,0,0,0,1.066,1.929,3.508,3.508,0,0,0,2.25.66,4.1,4.1,0,0,0,1.619-.312,2.954,2.954,0,0,0,1.221-1.021,5.558,5.558,0,0,0,.829-2.078l0-.008.117-.506-.107.075a4.982,4.982,0,0,1-2.867.846,4.885,4.885,0,0,1-2.545-.676,4.718,4.718,0,0,1-1.77-1.891,5.856,5.856,0,0,1-.629-2.752,7.941,7.941,0,0,1,.412-2.582,6.366,6.366,0,0,1,1.206-2.124,5.7,5.7,0,0,1,1.9-1.434A5.807,5.807,0,0,1,32.1,118.28Zm5.288,1.22h-.072l-.675,2.92q.008.115.012.233Zm-7.553,9.586a3.65,3.65,0,0,1-1.521-.978A4.467,4.467,0,0,1,27.2,124.94a6.766,6.766,0,0,1,.584-2.837,5.092,5.092,0,0,1,1.707-2.082q.089-.063.181-.12a4.69,4.69,0,0,0-1.2.989,5.371,5.371,0,0,0-1.016,1.792,6.944,6.944,0,0,0-.358,2.258,4.871,4.871,0,0,0,.515,2.286,3.68,3.68,0,0,0,2.22,1.86Zm1.473-.774a3.191,3.191,0,0,0,1.988-.626,4.181,4.181,0,0,0,1.326-1.723,6.1,6.1,0,0,0,.476-2.431,3.965,3.965,0,0,0-.392-1.866,2.515,2.515,0,0,0-1.04-1.071,3.158,3.158,0,0,0-1.522-.369,3.487,3.487,0,0,0-2.077.613,4.106,4.106,0,0,0-1.373,1.68,5.775,5.775,0,0,0-.494,2.421,3.461,3.461,0,0,0,.844,2.485A2.927,2.927,0,0,0,31.306,128.312Zm5.048-4.386-.266-.027a6.981,6.981,0,0,1-.55,2.46q-.045.105-.094.208l.239.239Zm-2.228,8.205a7.177,7.177,0,0,0,.807-2.111l.564-2.42q-.045.092-.093.181l-.53,2.284A7.184,7.184,0,0,1,34.126,132.131Zm-6.01,1.72a3.6,3.6,0,0,1-.764-.469,3.931,3.931,0,0,1-1.281-1.96l-.137.047a3.659,3.659,0,0,0,.4.909,3.491,3.491,0,0,0,.905.982A4.152,4.152,0,0,0,28.116,133.851ZM2.771,118.5H4.9l-2.784,12H-.013Zm.868,1H3.565l-2.32,10h.073Z" transform="translate(1438 718)"/>
    <text id="p" transform="translate(1617 840)" fill="#0d0d0d" font-size="22" font-family="WorkSans-LightItalic, Work Sans" font-weight="300" font-style="italic"><tspan x="0" y="0">p</tspan></text>
    <path id="p_-_Outline" data-name="p - Outline" d="M1.08,5.12H-1.047L2.792-11.5h1.98l-.181.875a4.949,4.949,0,0,1,1.086-.637A5.493,5.493,0,0,1,7.854-11.7a4.45,4.45,0,0,1,2.473.7,4.634,4.634,0,0,1,1.652,1.919,6.3,6.3,0,0,1,.577,2.746,8.659,8.659,0,0,1-.421,2.72,7.025,7.025,0,0,1-1.209,2.249A5.768,5.768,0,0,1,9.024.161,5.464,5.464,0,0,1,6.556.72,4.827,4.827,0,0,1,4.13.126,4.051,4.051,0,0,1,2.586-1.432Zm-.869-1H.284L1.989-3.3h0v0q-.012-.094-.021-.191ZM8.436-10.659a3.665,3.665,0,0,1,1.127.44,3.751,3.751,0,0,1,1.409,1.543,5.094,5.094,0,0,1,.506,2.34,7.665,7.665,0,0,1-.355,2.377,6.392,6.392,0,0,1-1,1.932,4.915,4.915,0,0,1-.93.926,4.825,4.825,0,0,0,.96-.9A6.03,6.03,0,0,0,11.185-3.93a7.661,7.661,0,0,0,.371-2.406,5.313,5.313,0,0,0-.479-2.314,3.649,3.649,0,0,0-1.3-1.513A3.245,3.245,0,0,0,8.436-10.659Zm-.912.907a3.427,3.427,0,0,0-1.615.371A3.773,3.773,0,0,0,4.666-8.31a5.278,5.278,0,0,0-.832,1.679,7.417,7.417,0,0,0-.3,2.143,3.367,3.367,0,0,0,.813,2.4,2.861,2.861,0,0,0,2.229.862A3.253,3.253,0,0,0,8.1-1.588a3.739,3.739,0,0,0,1.232-1.05,5.4,5.4,0,0,0,.845-1.632,6.67,6.67,0,0,0,.305-2.067,4.113,4.113,0,0,0-.4-1.884A2.731,2.731,0,0,0,9.049-9.361,2.881,2.881,0,0,0,7.524-9.752ZM2.833-7.233,2.2-4.482l.158-.2.181.086a8.357,8.357,0,0,1,.34-2.322q.054-.179.116-.352Z" transform="translate(1617 840)"/>
    <text id="p-2" data-name="p" transform="translate(353 840)" fill="#0d0d0d" font-size="22" font-family="WorkSans-LightItalic, Work Sans" font-weight="300" font-style="italic"><tspan x="0" y="0">p</tspan></text>
    <path id="p_-_Outline-2" data-name="p - Outline" d="M1.08,5.12H-1.047L2.792-11.5h1.98l-.181.875a4.949,4.949,0,0,1,1.086-.637A5.493,5.493,0,0,1,7.854-11.7a4.45,4.45,0,0,1,2.473.7,4.634,4.634,0,0,1,1.652,1.919,6.3,6.3,0,0,1,.577,2.746,8.659,8.659,0,0,1-.421,2.72,7.025,7.025,0,0,1-1.209,2.249A5.768,5.768,0,0,1,9.024.161,5.464,5.464,0,0,1,6.556.72,4.827,4.827,0,0,1,4.13.126,4.051,4.051,0,0,1,2.586-1.432Zm-.869-1H.284L1.989-3.3h0v0q-.012-.094-.021-.191ZM8.436-10.659a3.665,3.665,0,0,1,1.127.44,3.751,3.751,0,0,1,1.409,1.543,5.094,5.094,0,0,1,.506,2.34,7.665,7.665,0,0,1-.355,2.377,6.392,6.392,0,0,1-1,1.932,4.915,4.915,0,0,1-.93.926,4.825,4.825,0,0,0,.96-.9A6.03,6.03,0,0,0,11.185-3.93a7.661,7.661,0,0,0,.371-2.406,5.313,5.313,0,0,0-.479-2.314,3.649,3.649,0,0,0-1.3-1.513A3.245,3.245,0,0,0,8.436-10.659Zm-.912.907a3.427,3.427,0,0,0-1.615.371A3.773,3.773,0,0,0,4.666-8.31a5.278,5.278,0,0,0-.832,1.679,7.417,7.417,0,0,0-.3,2.143,3.367,3.367,0,0,0,.813,2.4,2.861,2.861,0,0,0,2.229.862A3.253,3.253,0,0,0,8.1-1.588a3.739,3.739,0,0,0,1.232-1.05,5.4,5.4,0,0,0,.845-1.632,6.67,6.67,0,0,0,.305-2.067,4.113,4.113,0,0,0-.4-1.884A2.731,2.731,0,0,0,9.049-9.361,2.881,2.881,0,0,0,7.524-9.752ZM2.833-7.233,2.2-4.482l.158-.2.181.086a8.357,8.357,0,0,1,.34-2.322q.054-.179.116-.352Z" transform="translate(353 840)"/>
  </g>
</svg>
