<?xml version="1.0" encoding="utf-8"?>
<!-- Generator: Adobe Illustrator 26.3.1, SVG Export Plug-In . SVG Version: 6.00 Build 0)  -->
<svg version="1.1" id="Layer_1" xmlns="http://www.w3.org/2000/svg" xmlns:xlink="http://www.w3.org/1999/xlink" x="0px" y="0px"
	 viewBox="0 0 681.4 743.8" style="enable-background:new 0 0 681.4 743.8;" xml:space="preserve">
<style type="text/css">
	.st0{clip-path:url(#SVGID_00000159467173387915302650000011837865665317554094_);}
	.st1{fill:#B5D0D9;}
	.st2{fill:#C56505;}
	.st3{fill:#AC5317;}
	.st4{fill:#FFFFFF;}
	.st5{fill:#FBFBFB;}
	.st6{clip-path:url(#SVGID_00000090269240935042600690000008283796046861443727_);}
	.st7{fill:#D8B054;}
	.st8{fill:#984608;}
	.st9{fill:#833408;}
	.st10{fill:#F6F1EA;}
	.st11{clip-path:url(#SVGID_00000003103285255567258800000014052221396016702119_);}
	.st12{fill:#AED1DA;}
	.st13{clip-path:url(#SVGID_00000012453965449603397630000014607090832312387753_);}
	.st14{fill:#E0AF3E;}
	.st15{clip-path:url(#SVGID_00000044177260331908657430000008108586501439222928_);}
	.st16{fill:#B73700;}
	.st17{fill:#E2E2E2;}
	.st18{fill:#FFBA00;}
	.st19{fill:#002B00;}
	.st20{fill:#EF261A;}
	.st21{fill:#98D308;}
	.st22{fill:#002B44;}
	.st23{fill:none;stroke:#B73700;stroke-width:39;stroke-miterlimit:10;}
	.st24{fill:none;stroke:#D8B054;stroke-width:50;stroke-miterlimit:10;}
	.st25{fill:#E2D8C7;}
	.st26{clip-path:url(#SVGID_00000158005213620091410380000013345886218046977965_);fill:#F4A61E;}
	.st27{clip-path:url(#SVGID_00000065797436077207478270000013683874187986222726_);fill:#CC922B;}
	.st28{clip-path:url(#SVGID_00000050623842639970969590000015739743194081203336_);fill:#E28927;}
	.st29{clip-path:url(#SVGID_00000039851040405181918040000005641307927954024623_);fill:#89A626;}
	.st30{clip-path:url(#SVGID_00000062877467810383301650000010045170245195232899_);fill:#5B8B45;}
	.st31{clip-path:url(#SVGID_00000168101006042806861430000014160729730015216293_);fill:#3B562C;}
	.st32{clip-path:url(#SVGID_00000023269542913985879150000011437446792130591652_);fill:#A6D3DC;}
	.st33{clip-path:url(#SVGID_00000083788212454754857110000000108062177125308586_);fill:#F9F9F9;}
</style>
<g>
	<g>
		<defs>
			<path id="SVGID_00000006681022014650971130000011955335953045114555_" d="M221.7,68.5c-49.5,19-67.1,67.6-79.3,110.7
				c-7.5,26.4-15,52.9-22.5,79.3c-14.7,51.7-29.3,103.4-44,155c-6.3,22.3-12.7,45.2-8.6,67.9c4.1,22.6,21.1,45.3,48.1,52.4
				c38.9,10.3,78.1-13.9,118.7-18.4c26.5-2.9,53.1,2.8,79,7.8c41.3,7.9,83.9,14.3,126.2,10.8c42.3-3.5,84.7-18.1,110.4-45.4
				c16-17,24.7-40.1,15.1-60c-10.4-21.5-38.8-34.1-51.8-54.6c-19.6-31,10.2-74.4,53.2-77.6c9.9-0.7,20.2,0.3,29.3-2.9
				c11.6-4.1,18.3-13.9,23.3-23.3c13.9-26.1,22-55.1,15.6-83.1s-29-54.5-62.1-64.4c-37.4-11.1-76.5,1.8-114.2-4.9
				c-31.7-5.7-47.8-22.1-73.3-35.6C339.9,58.4,273.7,48.6,221.7,68.5z"/>
		</defs>
		<clipPath id="SVGID_00000131334129047477043490000011526357291668292262_">
			<use xlink:href="#SVGID_00000006681022014650971130000011955335953045114555_"  style="overflow:visible;"/>
		</clipPath>
		
			<rect style="clip-path:url(#SVGID_00000131334129047477043490000011526357291668292262_);fill:#3B562C;" width="681.4" height="632.7"/>
	</g>
	<g>
		<g>
			<path class="st4" d="M217.8,673.1v3.7H189v-3.7H217.8z M220,661.2v3.8h-28.8v-3.8H220z M203.2,652.3l-5.5,33.5h-4.2l5.5-33.5
				H203.2z M215.3,652.3l-5.5,33.5h-4.2l5.5-33.5H215.3z"/>
			<path class="st4" d="M241.3,686.3c-3.1,0-5.9-0.7-8.2-2.1c-2.3-1.4-3.9-3.4-4.7-5.9l5.3-2.5c0.3,1.2,0.8,2.3,1.4,3.1
				c0.6,0.9,1.5,1.5,2.5,2c1,0.5,2.4,0.7,3.9,0.7c1.3,0,2.4-0.2,3.4-0.7c0.9-0.5,1.6-1.1,2.1-2c0.5-0.8,0.7-1.8,0.7-2.9
				c0-1.1-0.2-2-0.6-2.8c-0.4-0.7-1.1-1.3-2-1.6c-0.9-0.3-2-0.5-3.4-0.5c-0.4,0-0.8,0-1.2,0c-0.4,0-0.9,0.1-1.3,0.1v-4.6
				c0.3,0,0.6,0.1,0.9,0.1c0.3,0,0.6,0,0.8,0c2.2,0,3.8-0.4,4.7-1.3c0.9-0.9,1.4-2.3,1.4-4.1c0-1.6-0.5-2.8-1.4-3.7
				c-1-0.8-2.3-1.3-4.1-1.3c-1.9,0-3.3,0.4-4.3,1.3c-1,0.9-1.8,2.1-2.4,3.7l-5-2.1c0.5-1.6,1.3-2.9,2.4-4.1c1.1-1.2,2.5-2,4.1-2.7
				c1.6-0.6,3.4-0.9,5.4-0.9c2.4,0,4.4,0.4,6,1.2c1.6,0.8,2.8,1.8,3.6,3.2c0.8,1.4,1.2,2.9,1.2,4.5c0,1.3-0.2,2.4-0.6,3.4
				c-0.4,1-0.9,1.8-1.5,2.5c-0.6,0.7-1.3,1.2-2,1.6c-0.7,0.4-1.5,0.6-2.2,0.8v0.1c1,0,1.9,0.2,2.7,0.6c0.8,0.4,1.6,0.8,2.2,1.5
				c0.7,0.6,1.2,1.4,1.5,2.3c0.4,0.9,0.6,1.8,0.6,2.9c0,2-0.5,3.8-1.5,5.3c-1,1.5-2.4,2.7-4.2,3.6
				C245.7,685.9,243.7,686.3,241.3,686.3z"/>
			<path class="st4" d="M279.4,686.3c-1.5,0-2.9-0.3-4.1-0.9c-1.2-0.6-2.3-1.4-3.1-2.4c-0.8-1-1.5-2.2-1.9-3.5l0.7-0.9l-0.4,7.1
				h-4.8V649h5.4v17.8l-0.6-0.9c0.6-1.8,1.7-3.2,3.3-4.3c1.6-1.1,3.4-1.7,5.6-1.7c2,0,3.9,0.5,5.6,1.6c1.7,1.1,3.1,2.6,4,4.5
				c1,2,1.5,4.4,1.5,7.2c0,2.7-0.5,5.1-1.5,7.1c-1,2-2.4,3.5-4.1,4.5C283.4,685.8,281.5,686.3,279.4,686.3z M278.2,681.9
				c2.2,0,3.9-0.8,5.2-2.4c1.2-1.6,1.9-3.7,1.9-6.5c0-2.7-0.6-4.9-1.8-6.5c-1.2-1.6-2.9-2.3-5.1-2.3c-1.4,0-2.7,0.4-3.7,1.1
				c-1.1,0.7-1.9,1.8-2.5,3.1c-0.6,1.3-0.9,2.9-0.9,4.7c0,1.8,0.3,3.3,0.9,4.6c0.6,1.3,1.4,2.3,2.5,3
				C275.6,681.6,276.8,681.9,278.2,681.9z"/>
			<path class="st4" d="M313.3,686.3c-3,0-5.4-0.6-7.3-1.9c-1.9-1.3-3.4-3.1-4.5-5.6l5.1-2.6c0.5,1.6,1.3,3,2.3,4
				c1,1,2.6,1.5,4.6,1.5c1.4,0,2.6-0.3,3.6-0.8c1-0.5,1.8-1.3,2.3-2.2c0.5-1,0.8-2.1,0.8-3.5c0-1.4-0.3-2.6-0.8-3.6
				c-0.5-0.9-1.2-1.7-2.2-2.2c-0.9-0.5-2.1-0.7-3.6-0.7c-1,0-1.9,0.1-2.7,0.3c-0.8,0.2-1.6,0.5-2.3,0.9c-0.7,0.4-1.3,1-1.8,1.7
				l-4.5-0.9l2-18.5h19.5v4.7h-15.2l-1.2,9.4l-0.1,0.6h0.1c0.8-0.8,1.8-1.5,3-2c1.2-0.5,2.7-0.7,4.4-0.7c2.2,0,4,0.4,5.6,1.3
				c1.6,0.9,2.8,2.1,3.7,3.7c0.9,1.6,1.3,3.4,1.3,5.5c0,1.8-0.3,3.5-0.9,4.9c-0.6,1.4-1.5,2.6-2.6,3.6c-1.1,1-2.4,1.7-3.9,2.2
				C316.6,686,315,686.3,313.3,686.3z"/>
			<path class="st4" d="M350.3,651.7c1.8,0,3.4,0.2,4.8,0.7c1.4,0.5,2.6,1.3,3.6,2.3c1,1.1,1.9,2.4,2.6,4.1l-4.8,2.3
				c-0.5-1.5-1.2-2.6-2.3-3.5c-1-0.8-2.5-1.3-4.3-1.3c-1.3,0-2.5,0.3-3.5,1c-1,0.6-1.9,1.5-2.6,2.7c-0.7,1.2-1.3,2.5-1.6,4.1
				c-0.4,1.6-0.6,3.3-0.6,5.1c0,0.1,0,0.2,0,0.3c0,0.1,0,0.3,0,0.6l0.2,0.1c0.4-1.4,1-2.4,2-3.3c1-0.8,2.1-1.4,3.3-1.9
				c1.2-0.4,2.4-0.6,3.6-0.6c2.2,0,4.2,0.4,5.8,1.3c1.7,0.9,3,2.1,3.9,3.7c0.9,1.6,1.4,3.5,1.4,5.7c0,2.2-0.5,4.2-1.5,5.8
				c-1,1.6-2.3,2.9-4.1,3.8c-1.7,0.9-3.8,1.3-6.3,1.3c-2.8,0-5.3-0.7-7.3-2.1c-2-1.4-3.5-3.4-4.6-6c-1.1-2.6-1.6-5.6-1.6-9
				c0-3.8,0.6-7,1.8-9.6c1.2-2.6,2.8-4.5,4.9-5.8C345.4,652.4,347.8,651.7,350.3,651.7z M350,669.2c-1.3,0-2.4,0.3-3.4,0.8
				c-1,0.5-1.8,1.2-2.3,2.2s-0.8,2-0.8,3.2c0,1.2,0.3,2.3,0.9,3.2c0.6,0.9,1.4,1.7,2.4,2.3c1,0.6,2.1,0.8,3.3,0.8
				c2.1,0,3.7-0.6,4.8-1.7c1.2-1.1,1.7-2.7,1.7-4.6c0-1.3-0.3-2.3-0.8-3.3c-0.5-0.9-1.2-1.6-2.2-2.1
				C352.6,669.4,351.4,669.2,350,669.2z"/>
			<path class="st4" d="M373.5,685.8v-4c3.2-2.3,5.9-4.3,8.1-6.1s3.9-3.4,5.3-4.9c1.3-1.5,2.3-2.9,2.9-4.2c0.6-1.3,0.9-2.7,0.9-4.1
				c0-1.8-0.6-3.3-1.7-4.4c-1.1-1.1-2.7-1.7-4.7-1.7c-2.1,0-3.8,0.7-5,2.1c-1.2,1.4-1.9,3.3-2.1,5.8l-4.7-2.2c0.2-2.1,0.9-4,1.9-5.5
				c1-1.6,2.4-2.8,4.1-3.6c1.7-0.8,3.8-1.3,6.1-1.3c1.9,0,3.6,0.3,5,0.8c1.4,0.5,2.6,1.3,3.6,2.3c1,1,1.7,2.1,2.3,3.4
				c0.5,1.3,0.8,2.7,0.8,4.1c0,2.1-0.5,4.2-1.6,6.2c-1,2-2.7,4-5,6.1c-2.3,2.1-5.2,4.3-8.9,6.7v0.1c0.4-0.1,1-0.1,1.7-0.1
				c0.7,0,1.4,0,2.1-0.1c0.7,0,1.3,0,1.7,0h10.6v4.7H373.5z"/>
			<path class="st4" d="M420.3,659.9c2,0,3.8,0.3,5.2,0.9c1.4,0.6,2.6,1.4,3.6,2.5c1,1.1,1.7,2.3,2.2,3.7l-5.1,2
				c-0.4-1.6-1.1-2.8-2.1-3.6c-1-0.8-2.2-1.2-3.8-1.2c-1.5,0-2.8,0.3-3.9,1c-1.1,0.7-1.9,1.7-2.5,3c-0.6,1.3-0.8,2.9-0.8,4.9
				c0,1.9,0.3,3.5,0.9,4.8c0.6,1.3,1.4,2.3,2.5,3c1.1,0.7,2.4,1,3.9,1c1.2,0,2.1-0.2,3-0.6c0.8-0.4,1.5-0.9,2.1-1.7
				c0.6-0.7,0.9-1.6,1.1-2.7l4.9,1.7c-0.5,1.5-1.2,2.9-2.2,4c-1,1.1-2.2,2-3.7,2.6c-1.5,0.6-3.2,0.9-5.1,0.9c-2.5,0-4.7-0.5-6.7-1.6
				c-1.9-1-3.4-2.6-4.5-4.5c-1.1-2-1.6-4.3-1.6-7.1c0-2.7,0.5-5.1,1.6-7.1c1.1-2,2.6-3.5,4.5-4.5
				C415.7,660.4,417.9,659.9,420.3,659.9z"/>
		</g>
	</g>
</g>
</svg>
