<?xml version="1.0" encoding="utf-8"?>
<!-- Generator: Adobe Illustrator 26.3.1, SVG Export Plug-In . SVG Version: 6.00 Build 0)  -->
<svg version="1.1" id="Layer_1" xmlns="http://www.w3.org/2000/svg" xmlns:xlink="http://www.w3.org/1999/xlink" x="0px" y="0px"
	 viewBox="0 0 572.3 703.4" style="enable-background:new 0 0 572.3 703.4;" xml:space="preserve">
<style type="text/css">
	.st0{clip-path:url(#SVGID_00000073715592864130546140000002098784832203660177_);}
	.st1{fill:#B5D0D9;}
	.st2{fill:#C56505;}
	.st3{fill:#AC5317;}
	.st4{fill:#FFFFFF;}
	.st5{fill:#FBFBFB;}
	.st6{clip-path:url(#SVGID_00000024688607973066455220000004826499185618005665_);}
	.st7{fill:#D8B054;}
	.st8{fill:#984608;}
	.st9{fill:#833408;}
	.st10{fill:#F6F1EA;}
	.st11{clip-path:url(#SVGID_00000085223857913459005380000009884638925805658032_);}
	.st12{fill:#AED1DA;}
	.st13{clip-path:url(#SVGID_00000088826373250417900610000015987994434399703445_);}
	.st14{fill:#E0AF3E;}
	.st15{clip-path:url(#SVGID_00000099625955402319456880000005992411113115199160_);}
	.st16{fill:#B73700;}
	.st17{fill:#E2E2E2;}
	.st18{fill:#FFBA00;}
	.st19{fill:#002B00;}
	.st20{fill:#EF261A;}
	.st21{fill:#98D308;}
	.st22{fill:#002B44;}
	.st23{fill:none;stroke:#B73700;stroke-width:39;stroke-miterlimit:10;}
	.st24{fill:none;stroke:#D8B054;stroke-width:50;stroke-miterlimit:10;}
	.st25{fill:#E2D8C7;}
	.st26{clip-path:url(#SVGID_00000160869690658053282140000017676518532806990209_);fill:#F4A61E;}
	.st27{clip-path:url(#SVGID_00000030458224674893447970000010882278876543462811_);fill:#CC922B;}
	.st28{clip-path:url(#SVGID_00000057848142993677455010000002247567806593981111_);fill:#E28927;}
	.st29{clip-path:url(#SVGID_00000033335537185524393430000014284274246436990398_);fill:#89A626;}
	.st30{clip-path:url(#SVGID_00000110444339399571870470000002794987231991283075_);fill:#5B8B45;}
	.st31{clip-path:url(#SVGID_00000116941378240207625930000001322440227393556885_);fill:#3B562C;}
	.st32{clip-path:url(#SVGID_00000031198387603422139880000000922047973346877108_);fill:#A6D3DC;}
	.st33{clip-path:url(#SVGID_00000143594671911917767680000012685409178723874465_);fill:#F9F9F9;}
</style>
<g>
	<g>
		<defs>
			<path id="SVGID_00000052063634330258173920000002574621061608337812_" d="M0.1,431.8c0.3,8.9,1.2,18,6.1,26
				c6.2,10,17.8,17.1,29.6,23c73.8,37,167.3,43.8,251.5,26.5c38.3-7.9,77.1-21.7,99.7-47.8c34.4-39.7,24.2-99.1,67.1-133
				c16-12.7,37.5-19.9,54.8-31.3c48.4-32,55.5-88.5,58.4-138.9c1.7-28.5,3.3-57,4.7-85.5c0.4-8.6,0.7-17.8-5-25.1
				c-6.3-8.1-18.4-11.8-29.6-15C485,15.7,431.4,0.7,375.8,0C336.1-0.4,296.8,6.5,258,13.4c-37.7,6.7-75.5,13.5-113.2,20.2
				c-25.6,4.6-52.2,9.5-72.4,22.9c-46,30.3-39.7,87.5-26.2,134.1c12.2,41.7,28.6,91.7-3.8,129.6C11.8,356-1.3,385.5,0.1,431.8z"/>
		</defs>
		<clipPath id="SVGID_00000131368651787922655720000017166410159545312931_">
			<use xlink:href="#SVGID_00000052063634330258173920000002574621061608337812_"  style="overflow:visible;"/>
		</clipPath>
		
			<rect x="-31.3" y="-30.9" style="clip-path:url(#SVGID_00000131368651787922655720000017166410159545312931_);fill:#E28927;" width="629.3" height="584.3"/>
	</g>
	<g>
		<g>
			<path class="st4" d="M145,632.7v3.7h-28.7v-3.7H145z M147.2,620.8v3.8h-28.8v-3.8H147.2z M130.5,611.9l-5.5,33.5h-4.2l5.5-33.5
				H130.5z M142.5,611.9l-5.5,33.5h-4.2l5.5-33.5H142.5z"/>
			<path class="st4" d="M169.1,645.9c-2.5,0-4.8-0.5-6.7-1.6c-1.9-1-3.4-2.6-4.5-4.5c-1.1-2-1.6-4.3-1.6-7.1c0-2.7,0.5-5.1,1.6-7.1
				c1.1-2,2.5-3.5,4.4-4.5c1.9-1,4-1.6,6.5-1.6c2.5,0,4.6,0.5,6.3,1.5c1.7,1,3,2.4,4,4.2c0.9,1.8,1.4,3.8,1.4,6c0,0.6,0,1.2-0.1,1.7
				c0,0.5-0.1,1-0.2,1.4h-20.4v-4.2h18l-2.7,0.8c0-2.3-0.6-4.1-1.7-5.3c-1.2-1.2-2.7-1.9-4.7-1.9c-1.5,0-2.7,0.3-3.8,1
				c-1.1,0.7-1.9,1.7-2.5,3c-0.6,1.3-0.9,3-0.9,4.9c0,1.9,0.3,3.5,0.9,4.8c0.6,1.3,1.5,2.3,2.6,3c1.1,0.7,2.4,1,4,1
				c1.7,0,3.1-0.3,4.1-1c1-0.6,1.9-1.5,2.5-2.7l4.3,2c-0.6,1.2-1.4,2.3-2.5,3.2c-1,0.9-2.3,1.6-3.7,2.1S170.8,645.9,169.1,645.9z"/>
			<path class="st4" d="M191.9,645.4v-4c3.2-2.3,5.9-4.3,8.1-6.1s3.9-3.4,5.3-4.9c1.3-1.5,2.3-2.9,2.9-4.2c0.6-1.3,0.9-2.7,0.9-4.1
				c0-1.8-0.6-3.3-1.7-4.4c-1.1-1.1-2.7-1.7-4.7-1.7c-2.1,0-3.8,0.7-5,2.1c-1.2,1.4-1.9,3.3-2.1,5.8l-4.7-2.2c0.2-2.1,0.9-4,1.9-5.5
				c1-1.6,2.4-2.8,4.1-3.6c1.7-0.8,3.8-1.3,6.1-1.3c1.9,0,3.6,0.3,5,0.8c1.4,0.5,2.6,1.3,3.6,2.3c1,1,1.7,2.1,2.3,3.4
				c0.5,1.3,0.8,2.7,0.8,4.1c0,2.1-0.5,4.2-1.6,6.2c-1.1,2-2.7,4-5,6.1c-2.3,2.1-5.2,4.3-8.9,6.7v0.1c0.4-0.1,1-0.1,1.7-0.1
				c0.7,0,1.4,0,2.1-0.1c0.7,0,1.3,0,1.7,0h10.6v4.7H191.9z"/>
			<path class="st4" d="M239.3,611.4c2.3,0,4.2,0.4,5.9,1.1c1.7,0.7,3,1.8,3.9,3.1c0.9,1.3,1.4,2.9,1.4,4.8c0,1.7-0.4,3.2-1.2,4.5
				c-0.8,1.3-2,2.3-3.6,3v0.1c1.9,0.7,3.5,1.8,4.6,3.2c1.1,1.4,1.7,3.1,1.7,5.2c0,2-0.5,3.7-1.5,5.1c-1,1.4-2.5,2.5-4.4,3.3
				c-1.9,0.8-4.1,1.2-6.7,1.2c-2.6,0-4.8-0.4-6.7-1.2c-1.9-0.8-3.3-1.9-4.4-3.3c-1-1.4-1.6-3.1-1.6-5.1c0-2,0.6-3.8,1.7-5.2
				c1.1-1.4,2.7-2.5,4.7-3.2v-0.1c-1.5-0.6-2.7-1.6-3.6-2.9c-0.9-1.3-1.3-2.8-1.3-4.6c0-1.9,0.5-3.5,1.4-4.8
				c0.9-1.3,2.2-2.3,3.9-3.1C235,611.8,237,611.4,239.3,611.4z M239.3,641.3c1.5,0,2.8-0.2,3.8-0.7c1-0.4,1.9-1.1,2.4-1.9
				c0.6-0.8,0.9-1.8,0.9-2.9c0-1.2-0.3-2.2-0.9-3c-0.6-0.8-1.4-1.5-2.5-1.9c-1.1-0.4-2.3-0.7-3.8-0.7c-1.4,0-2.7,0.2-3.8,0.7
				c-1.1,0.4-1.9,1.1-2.5,1.9c-0.6,0.8-0.9,1.8-0.9,3c0,1.1,0.3,2.1,0.9,2.9c0.6,0.8,1.4,1.5,2.5,1.9
				C236.5,641.1,237.8,641.3,239.3,641.3z M239.3,616c-1.8,0-3.2,0.4-4.3,1.3c-1.1,0.9-1.6,2.1-1.6,3.6s0.5,2.7,1.6,3.6
				c1.1,0.9,2.5,1.3,4.3,1.3c1.8,0,3.2-0.4,4.2-1.3c1.1-0.9,1.6-2.1,1.6-3.6s-0.5-2.7-1.6-3.6C242.5,616.4,241.1,616,239.3,616z"/>
			<path class="st4" d="M275.3,611.4c2.9,0,5.3,0.7,7.3,2.1c2,1.4,3.5,3.4,4.5,6c1,2.6,1.5,5.6,1.5,9.1c0,3.9-0.5,7.1-1.6,9.6
				c-1.1,2.6-2.6,4.5-4.5,5.8c-2,1.3-4.3,1.9-7.1,1.9c-2.8,0-5.3-0.6-7.3-1.9c-2-1.3-3.6-3.1-4.6-5.6l5.1-2.4
				c0.5,1.6,1.3,2.9,2.4,3.8c1.1,0.9,2.6,1.4,4.5,1.4c1.6,0,2.9-0.3,3.9-0.9c1-0.6,1.9-1.5,2.5-2.6c0.6-1.2,1.1-2.5,1.3-4.2
				c0.3-1.6,0.4-3.5,0.4-5.5c0-0.1,0-0.2,0-0.3c0-0.1,0-0.2,0-0.3h-0.2c-0.4,1.4-1,2.5-2,3.3c-1,0.8-2.1,1.5-3.3,1.9
				c-1.2,0.4-2.4,0.6-3.7,0.6c-2.2,0-4.1-0.4-5.8-1.3c-1.7-0.9-3-2.1-3.9-3.6c-0.9-1.6-1.4-3.4-1.4-5.5c0-2.3,0.5-4.4,1.4-6
				c1-1.7,2.3-3,4.1-3.9C270.7,611.8,272.9,611.4,275.3,611.4z M275.4,616.1c-2.1,0-3.8,0.6-4.9,1.7c-1.1,1.2-1.7,2.8-1.7,4.8
				c0,1.8,0.6,3.3,1.8,4.3c1.2,1,2.8,1.5,4.8,1.5c1.3,0,2.4-0.3,3.4-0.8c1-0.5,1.8-1.2,2.3-2.2c0.6-0.9,0.8-2,0.8-3.2
				c0-1.3-0.3-2.4-0.8-3.3c-0.6-0.9-1.3-1.7-2.3-2.2C277.8,616.4,276.7,616.1,275.4,616.1z"/>
			<path class="st4" d="M300.5,645.4v-4c3.2-2.3,5.9-4.3,8.1-6.1s3.9-3.4,5.3-4.9c1.3-1.5,2.3-2.9,2.9-4.2c0.6-1.3,0.9-2.7,0.9-4.1
				c0-1.8-0.6-3.3-1.7-4.4c-1.1-1.1-2.7-1.7-4.7-1.7c-2.1,0-3.8,0.7-5,2.1c-1.2,1.4-1.9,3.3-2.1,5.8l-4.7-2.2c0.2-2.1,0.9-4,1.9-5.5
				c1-1.6,2.4-2.8,4.1-3.6c1.7-0.8,3.8-1.3,6.1-1.3c1.9,0,3.6,0.3,5,0.8c1.4,0.5,2.6,1.3,3.6,2.3c1,1,1.7,2.1,2.3,3.4
				c0.5,1.3,0.8,2.7,0.8,4.1c0,2.1-0.5,4.2-1.6,6.2c-1.1,2-2.7,4-5,6.1c-2.3,2.1-5.2,4.3-8.9,6.7v0.1c0.4-0.1,1-0.1,1.7-0.1
				c0.7,0,1.4,0,2.1-0.1c0.7,0,1.3,0,1.7,0h10.6v4.7H300.5z"/>
			<path class="st4" d="M333.1,611.9h25.5v4.5c-2.8,2.9-5.1,5.9-6.8,9c-1.7,3.1-3,6.2-3.7,9.5c-0.8,3.3-1.1,6.8-1.1,10.5h-5.5
				c0-3.7,0.5-7.4,1.4-10.9c0.9-3.5,2.4-6.9,4.3-10.2c1.9-3.2,4.3-6.3,7.2-9.1l1,1.4h-22.3V611.9z"/>
		</g>
	</g>
</g>
</svg>
