<?xml version="1.0" encoding="utf-8"?>
<!-- Generator: Adobe Illustrator 26.3.1, SVG Export Plug-In . SVG Version: 6.00 Build 0)  -->
<svg version="1.1" id="Layer_1" xmlns="http://www.w3.org/2000/svg" xmlns:xlink="http://www.w3.org/1999/xlink" x="0px" y="0px"
	 viewBox="0 0 565.2 651.6" style="enable-background:new 0 0 565.2 651.6;" xml:space="preserve">
<style type="text/css">
	.st0{clip-path:url(#SVGID_00000168797894854712527620000013743377285863807636_);}
	.st1{fill:#B5D0D9;}
	.st2{fill:#C56505;}
	.st3{fill:#AC5317;}
	.st4{fill:#FFFFFF;}
	.st5{fill:#FBFBFB;}
	.st6{clip-path:url(#SVGID_00000148634990663421778740000011012604400248221333_);}
	.st7{fill:#D8B054;}
	.st8{fill:#984608;}
	.st9{fill:#833408;}
	.st10{fill:#F6F1EA;}
	.st11{clip-path:url(#SVGID_00000163760876625075620760000014777377779934201481_);}
	.st12{fill:#AED1DA;}
	.st13{clip-path:url(#SVGID_00000038381462091576561040000001678522398665288345_);}
	.st14{fill:#E0AF3E;}
	.st15{clip-path:url(#SVGID_00000099628581877463339690000011276656841504560045_);}
	.st16{fill:#B73700;}
	.st17{fill:#E2E2E2;}
	.st18{fill:#FFBA00;}
	.st19{fill:#002B00;}
	.st20{fill:#EF261A;}
	.st21{fill:#98D308;}
	.st22{fill:#002B44;}
	.st23{fill:none;stroke:#B73700;stroke-width:39;stroke-miterlimit:10;}
	.st24{fill:none;stroke:#D8B054;stroke-width:50;stroke-miterlimit:10;}
	.st25{fill:#E2D8C7;}
	.st26{clip-path:url(#SVGID_00000032620187284958388240000004956726975534372799_);fill:#F4A61E;}
	.st27{clip-path:url(#SVGID_00000008107262117187154890000007396901108139128982_);fill:#CC922B;}
	.st28{clip-path:url(#SVGID_00000158707438336195636460000011018603248222173611_);fill:#E28927;}
	.st29{clip-path:url(#SVGID_00000051345458123072895400000010240559837820723123_);fill:#89A626;}
	.st30{clip-path:url(#SVGID_00000165230219295824347000000006143897946058929575_);fill:#5B8B45;}
	.st31{clip-path:url(#SVGID_00000077292270739153707600000005139167012770330254_);fill:#3B562C;}
	.st32{clip-path:url(#SVGID_00000124158186531762087880000003805365276921975707_);fill:#A6D3DC;}
	.st33{clip-path:url(#SVGID_00000022550538040636545960000009944126965567032476_);fill:#F9F9F9;}
</style>
<g>
	<g>
		<defs>
			<path id="SVGID_00000167369780526059868650000004255125652654217381_" d="M104.9,25.3c-33,13.4-59.8,38-67.2,67.1
				c-5.7,22.4,0,45.5,3.6,68.2c9.3,58.1,4.5,117.6-13.8,174.2C15.9,370.3-1,405.5,0.1,442.1c0.2,7.4,1.2,15,4.9,21.8
				c4.5,8.4,12.7,15.2,21.9,20.7c37,22.3,86.8,24.4,132.8,21.3c46-3.1,92.5-10.6,138-4.3c36.1,5,69.7,18.5,105.7,23.7
				c36,5.2,78.7-0.5,98.8-25.1c22.6-27.6,7.2-64.3-10.5-94.1s-37.4-63.8-21.6-94.3c8.5-16.4,26-28.5,41.5-41.1
				c21.8-17.8,41.2-38.4,49.6-62.5s4.1-52-16.6-70.5c-11.9-10.6-28-17.4-43-25.2c-35.1-18.3-64.8-43.1-86.4-71.9
				C407,29.6,399.5,17.5,386.4,10c-13.1-7.5-29.9-9.3-45.9-9.9c-43.8-1.6-81.7,11.1-123.9,13.7C176.5,16.4,143.9,9.4,104.9,25.3z"/>
		</defs>
		<clipPath id="SVGID_00000048484276668722695500000004941963946441240964_">
			<use xlink:href="#SVGID_00000167369780526059868650000004255125652654217381_"  style="overflow:visible;"/>
		</clipPath>
		
			<rect x="-40.1" y="-26.7" style="clip-path:url(#SVGID_00000048484276668722695500000004941963946441240964_);fill:#F4A61E;" width="629.3" height="584.3"/>
	</g>
	<g>
		<path class="st4" d="M152,636.9v3.7h-28.7v-3.7H152z M154.2,625v3.8h-28.8V625H154.2z M137.4,616.1l-5.5,33.5h-4.2l5.5-33.5H137.4
			z M149.5,616.1l-5.5,33.5h-4.2l5.5-33.5H149.5z"/>
		<path class="st4" d="M180.3,624.2v4.3H162v-4.3H180.3z M175.6,612.5c1,0,2,0.1,2.9,0.3c0.9,0.2,1.5,0.5,2,0.9l-1,3.9
			c-0.4-0.2-0.8-0.4-1.3-0.5c-0.5-0.1-1-0.2-1.6-0.2c-1.4,0-2.5,0.3-3.3,1c-0.8,0.6-1.2,1.7-1.2,3.1v3.7l0.2,1.4v23.6h-5.4v-29.1
			c0-1.3,0.2-2.4,0.6-3.5c0.4-1,1-1.9,1.8-2.6c0.8-0.7,1.7-1.2,2.8-1.6C173.1,612.6,174.3,612.5,175.6,612.5z"/>
		<path class="st4" d="M204.9,649.6v-8.4h-16.4v-3.7c0.1-0.2,0.2-0.4,0.3-0.6c0.2-0.2,0.3-0.5,0.5-0.8l14-20h6.7V637h5.7v4.2H210
			v8.4H204.9z M193.6,637h11.3v-11.8c0-0.8,0-1.7,0.1-2.5s0.1-1.7,0.1-2.6H205c-0.4,0.8-0.9,1.7-1.4,2.7c-0.6,1-1.1,1.8-1.7,2.5
			l-7.9,11.3c-0.1,0.1-0.1,0.1-0.2,0.2C193.7,636.9,193.7,636.9,193.6,637z"/>
		<path class="st4" d="M242.1,633.3c0-1.7-0.5-3-1.4-3.9c-0.9-0.9-2.2-1.4-3.8-1.4c-1.5,0-2.8,0.4-3.9,1.1c-1.1,0.7-1.9,1.9-2.4,3.5
			l-4.6-1.9c0.6-2.1,1.9-3.7,3.8-5c1.9-1.3,4.3-1.9,7.3-1.9c2,0,3.8,0.3,5.4,1c1.6,0.7,2.8,1.7,3.7,3c0.9,1.3,1.3,3,1.3,5.1v11.3
			c0,1.3,0.6,1.9,1.9,1.9c0.6,0,1.2-0.1,1.8-0.3l-0.3,3.8c-0.8,0.4-1.8,0.6-2.9,0.6c-1.1,0-2.1-0.2-2.9-0.6c-0.9-0.4-1.5-1-2-1.8
			c-0.5-0.8-0.7-1.8-0.7-3v-0.4l1.1-0.1c-0.3,1.3-0.9,2.4-1.9,3.3c-0.9,0.9-2,1.5-3.3,1.9c-1.3,0.4-2.5,0.6-3.8,0.6
			c-1.6,0-3-0.3-4.3-0.8s-2.3-1.3-3-2.3c-0.7-1-1.1-2.3-1.1-3.8c0-1.9,0.6-3.5,1.9-4.7c1.2-1.2,3-2,5.3-2.5l9.9-1.9l-0.1,3.8
			l-7.2,1.5c-1.4,0.3-2.5,0.7-3.2,1.2c-0.7,0.5-1.1,1.3-1.1,2.2c0,0.9,0.4,1.7,1.1,2.3c0.7,0.6,1.7,0.8,2.9,0.8
			c0.8,0,1.7-0.1,2.5-0.3c0.8-0.2,1.5-0.5,2.2-1c0.6-0.5,1.1-1,1.5-1.8c0.4-0.7,0.5-1.6,0.5-2.6V633.3z"/>
		<path class="st4" d="M274.2,615.6c1.8,0,3.4,0.2,4.8,0.7c1.4,0.5,2.6,1.3,3.6,2.3c1,1.1,1.9,2.4,2.6,4.1l-4.8,2.3
			c-0.5-1.5-1.2-2.6-2.3-3.5c-1-0.8-2.5-1.3-4.3-1.3c-1.3,0-2.5,0.3-3.5,1c-1,0.6-1.9,1.5-2.6,2.7c-0.7,1.2-1.3,2.5-1.6,4.1
			c-0.4,1.6-0.6,3.3-0.6,5.1c0,0.1,0,0.2,0,0.3c0,0.1,0,0.3,0,0.6l0.2,0.1c0.4-1.4,1-2.4,2-3.3c1-0.8,2.1-1.4,3.3-1.9
			s2.4-0.6,3.6-0.6c2.2,0,4.2,0.4,5.8,1.3c1.7,0.9,3,2.1,3.9,3.7c0.9,1.6,1.4,3.5,1.4,5.7c0,2.2-0.5,4.2-1.5,5.8
			c-1,1.6-2.3,2.9-4.1,3.8c-1.7,0.9-3.8,1.3-6.3,1.3c-2.8,0-5.3-0.7-7.3-2.1c-2-1.4-3.5-3.4-4.6-6c-1-2.6-1.6-5.6-1.6-9
			c0-3.8,0.6-7,1.8-9.6c1.2-2.6,2.8-4.5,4.9-5.8C269.3,616.3,271.6,615.6,274.2,615.6z M273.9,633c-1.3,0-2.4,0.3-3.4,0.8
			c-1,0.5-1.8,1.2-2.3,2.2s-0.8,2-0.8,3.2c0,1.2,0.3,2.3,0.9,3.2c0.6,0.9,1.4,1.7,2.4,2.3c1,0.6,2.1,0.8,3.3,0.8
			c2.1,0,3.7-0.6,4.8-1.7c1.2-1.1,1.7-2.7,1.7-4.6c0-1.3-0.3-2.3-0.8-3.3c-0.5-0.9-1.2-1.6-2.2-2.1C276.5,633.3,275.3,633,273.9,633
			z"/>
		<path class="st4" d="M303.9,649.6v-23c0-0.7,0-1.4,0-2.1c0-0.7,0-1.5,0.1-2.3c-1.2,1.1-2.5,2.1-3.9,2.9c-1.5,0.8-3,1.4-4.5,1.7
			l-1-4.7c0.7-0.1,1.5-0.3,2.5-0.7c0.9-0.4,1.9-0.8,2.9-1.4c1-0.6,1.9-1.2,2.8-1.9c0.8-0.7,1.5-1.3,2-2h4.6v33.5H303.9z"/>
		<path class="st4" d="M334.8,650.1c-2.5,0-4.8-0.5-6.7-1.6c-1.9-1-3.4-2.6-4.5-4.5c-1.1-2-1.6-4.3-1.6-7.1c0-2.7,0.5-5.1,1.6-7.1
			c1.1-2,2.5-3.5,4.4-4.5c1.9-1,4-1.6,6.5-1.6c2.5,0,4.6,0.5,6.3,1.5c1.7,1,3,2.4,4,4.2c0.9,1.8,1.4,3.8,1.4,6c0,0.6,0,1.2-0.1,1.7
			c0,0.5-0.1,1-0.2,1.4h-20.4v-4.2h18l-2.7,0.8c0-2.3-0.6-4.1-1.7-5.3c-1.2-1.2-2.7-1.9-4.7-1.9c-1.5,0-2.7,0.3-3.8,1
			c-1.1,0.7-1.9,1.7-2.5,3c-0.6,1.3-0.9,3-0.9,4.9c0,1.9,0.3,3.5,0.9,4.8c0.6,1.3,1.5,2.3,2.6,3c1.1,0.7,2.4,1,4,1
			c1.7,0,3.1-0.3,4.1-1c1-0.6,1.9-1.5,2.5-2.7l4.3,2c-0.6,1.2-1.4,2.3-2.5,3.2c-1,0.9-2.3,1.6-3.7,2.1
			C338,649.9,336.5,650.1,334.8,650.1z"/>
	</g>
</g>
</svg>
