<?xml version="1.0" encoding="utf-8"?>
<!-- Generator: Adobe Illustrator 26.3.1, SVG Export Plug-In . SVG Version: 6.00 Build 0)  -->
<svg version="1.1" id="Layer_1" xmlns="http://www.w3.org/2000/svg" xmlns:xlink="http://www.w3.org/1999/xlink" x="0px" y="0px"
	 viewBox="0 0 566.1 708.2" style="enable-background:new 0 0 566.1 708.2;" xml:space="preserve">
<style type="text/css">
	.st0{clip-path:url(#SVGID_00000090975421158128126210000011393265342143677620_);}
	.st1{fill:#B5D0D9;}
	.st2{fill:#C56505;}
	.st3{fill:#AC5317;}
	.st4{fill:#FFFFFF;}
	.st5{fill:#FBFBFB;}
	.st6{clip-path:url(#SVGID_00000042708508618177310430000014542702764750813371_);}
	.st7{fill:#D8B054;}
	.st8{fill:#984608;}
	.st9{fill:#833408;}
	.st10{fill:#F6F1EA;}
	.st11{clip-path:url(#SVGID_00000163058004626748830900000006784418143173033889_);}
	.st12{fill:#AED1DA;}
	.st13{clip-path:url(#SVGID_00000078744784436436229780000013018779345311615373_);}
	.st14{fill:#E0AF3E;}
	.st15{clip-path:url(#SVGID_00000121257434506388104690000001836387887180805823_);}
	.st16{fill:#B73700;}
	.st17{fill:#E2E2E2;}
	.st18{fill:#FFBA00;}
	.st19{fill:#002B00;}
	.st20{fill:#EF261A;}
	.st21{fill:#98D308;}
	.st22{fill:#002B44;}
	.st23{fill:none;stroke:#B73700;stroke-width:39;stroke-miterlimit:10;}
	.st24{fill:none;stroke:#D8B054;stroke-width:50;stroke-miterlimit:10;}
	.st25{fill:#E2D8C7;}
	.st26{clip-path:url(#SVGID_00000030483435309468764100000007566868602219950516_);fill:#F4A61E;}
	.st27{clip-path:url(#SVGID_00000116939019213506658470000015672484374050848423_);fill:#CC922B;}
	.st28{clip-path:url(#SVGID_00000123414030362058995530000015728215453102030508_);fill:#E28927;}
	.st29{clip-path:url(#SVGID_00000132078511129720271420000003805648107063579300_);fill:#89A626;}
	.st30{clip-path:url(#SVGID_00000053532894797597847940000016669767518779612545_);fill:#5B8B45;}
	.st31{clip-path:url(#SVGID_00000035496567787757683920000002044992201292846743_);fill:#3B562C;}
	.st32{clip-path:url(#SVGID_00000175287468296994779680000006600973874630419101_);fill:#A6D3DC;}
	.st33{clip-path:url(#SVGID_00000101784650953434665080000015296983756611694764_);fill:#F9F9F9;}
</style>
<g>
	<g>
		<defs>
			<path id="SVGID_00000062885808438081783070000004206444068240366227_" d="M37.6,49.6c-16.6,30-12.8,64.6-7,97.1
				s13.1,66.1,2.6,97.9c-8.6,25.9-28.6,49.2-32.5,75.8c-2.6,18.2,2.6,36.5,7.9,54.3c7,23.4,14.6,47.2,30.7,67.5
				c16.2,20.2,42.8,36.6,72.7,37.4c40.4,1,73.2-25.2,111.3-36.1c52.5-15.1,110-0.2,164.7,8.8c54.7,9,120.4,9,155.7-25.8
				c21.9-21.5,26.2-51.9,19.4-79.2c-6.8-27.3-23.2-52.2-39.5-76.7c-14.9-22.5-30.1-45.2-51.3-64.2c-29.6-26.5-70.5-44.7-114.2-50.9
				c-47.2-6.7-104.7-2.9-133-34.1C194.1,87,215.8,26.4,159,4.9C115.1-11.8,55.8,16.8,37.6,49.6z"/>
		</defs>
		<clipPath id="SVGID_00000052818207113160762080000003145508839232646827_">
			<use xlink:href="#SVGID_00000062885808438081783070000004206444068240366227_"  style="overflow:visible;"/>
		</clipPath>
		
			<rect x="-50.3" y="-27.3" style="clip-path:url(#SVGID_00000052818207113160762080000003145508839232646827_);fill:#5B8B45;" width="629.3" height="584.3"/>
	</g>
	<g>
		<g>
			<path class="st4" d="M187.7,636.3v3.7H159v-3.7H187.7z M190,624.4v3.8h-28.8v-3.8H190z M173.2,615.5l-5.5,33.5h-4.2l5.5-33.5
				H173.2z M185.2,615.5l-5.5,33.5h-4.2l5.5-33.5H185.2z"/>
			<path class="st4" d="M211,649.5c-3,0-5.4-0.6-7.3-1.9c-1.9-1.3-3.4-3.1-4.5-5.6l5.1-2.6c0.5,1.6,1.3,3,2.3,4c1,1,2.6,1.5,4.6,1.5
				c1.4,0,2.6-0.3,3.6-0.8c1-0.5,1.8-1.3,2.3-2.2c0.5-1,0.8-2.1,0.8-3.5c0-1.4-0.3-2.6-0.8-3.6c-0.5-0.9-1.2-1.7-2.2-2.2
				c-0.9-0.5-2.1-0.7-3.6-0.7c-1,0-1.9,0.1-2.7,0.3c-0.8,0.2-1.6,0.5-2.3,0.9c-0.7,0.4-1.3,1-1.8,1.7l-4.5-0.9l2-18.5h19.5v4.7
				h-15.2l-1.2,9.4l-0.1,0.6h0.1c0.8-0.8,1.8-1.5,3-2c1.2-0.5,2.7-0.7,4.4-0.7c2.2,0,4,0.4,5.6,1.3c1.6,0.9,2.8,2.1,3.7,3.7
				c0.9,1.6,1.3,3.4,1.3,5.5c0,1.8-0.3,3.5-0.9,4.9c-0.6,1.4-1.5,2.6-2.6,3.6c-1.1,1-2.4,1.7-3.9,2.2
				C214.3,649.2,212.7,649.5,211,649.5z"/>
			<path class="st4" d="M249.1,649.5c-1.5,0-2.9-0.3-4.1-0.9c-1.2-0.6-2.3-1.4-3.1-2.4c-0.8-1-1.5-2.2-1.9-3.5l0.7-0.9l-0.4,7.1
				h-4.8v-36.8h5.4V630l-0.6-0.9c0.6-1.8,1.7-3.2,3.3-4.3c1.6-1.1,3.4-1.7,5.6-1.7c2,0,3.9,0.5,5.6,1.6c1.7,1.1,3.1,2.6,4,4.5
				c1,2,1.5,4.4,1.5,7.2c0,2.7-0.5,5.1-1.5,7.1c-1,2-2.4,3.5-4.1,4.5C253.1,649,251.2,649.5,249.1,649.5z M248,645.1
				c2.2,0,3.9-0.8,5.2-2.4c1.2-1.6,1.9-3.7,1.9-6.5c0-2.7-0.6-4.9-1.8-6.5c-1.2-1.6-2.9-2.3-5.1-2.3c-1.4,0-2.7,0.4-3.7,1.1
				c-1,0.7-1.9,1.8-2.5,3.1c-0.6,1.3-0.9,2.9-0.9,4.7c0,1.8,0.3,3.3,0.9,4.6c0.6,1.3,1.4,2.3,2.5,3
				C245.3,644.8,246.6,645.1,248,645.1z"/>
			<path class="st4" d="M284.2,615c2.3,0,4.2,0.4,5.9,1.1c1.7,0.7,3,1.8,3.9,3.1c0.9,1.3,1.4,2.9,1.4,4.8c0,1.7-0.4,3.2-1.2,4.5
				c-0.8,1.3-2,2.3-3.6,3v0.1c1.9,0.7,3.5,1.8,4.6,3.2c1.1,1.4,1.7,3.1,1.7,5.2c0,2-0.5,3.7-1.5,5.1c-1,1.4-2.5,2.5-4.4,3.3
				c-1.9,0.8-4.1,1.2-6.7,1.2c-2.6,0-4.8-0.4-6.7-1.2c-1.9-0.8-3.3-1.9-4.4-3.3c-1-1.4-1.6-3.1-1.6-5.1c0-2,0.6-3.8,1.7-5.2
				c1.1-1.4,2.7-2.5,4.7-3.2v-0.1c-1.5-0.6-2.7-1.6-3.6-2.9c-0.9-1.3-1.3-2.8-1.3-4.6c0-1.9,0.5-3.5,1.4-4.8
				c0.9-1.3,2.2-2.3,3.9-3.1C280,615.4,282,615,284.2,615z M284.2,644.9c1.5,0,2.8-0.2,3.8-0.7c1-0.4,1.9-1.1,2.4-1.9
				c0.6-0.8,0.9-1.8,0.9-2.9c0-1.2-0.3-2.2-0.9-3c-0.6-0.8-1.4-1.5-2.5-1.9c-1.1-0.4-2.3-0.7-3.8-0.7c-1.4,0-2.7,0.2-3.8,0.7
				c-1.1,0.4-1.9,1.1-2.5,1.9c-0.6,0.8-0.9,1.8-0.9,3c0,1.1,0.3,2.1,0.9,2.9c0.6,0.8,1.4,1.5,2.5,1.9
				C281.5,644.7,282.8,644.9,284.2,644.9z M284.2,619.6c-1.8,0-3.2,0.4-4.3,1.3c-1.1,0.9-1.6,2.1-1.6,3.6s0.5,2.7,1.6,3.6
				c1.1,0.9,2.5,1.3,4.3,1.3c1.8,0,3.2-0.4,4.2-1.3c1.1-0.9,1.6-2.1,1.6-3.6s-0.5-2.7-1.6-3.6C287.4,620,286,619.6,284.2,619.6z"/>
			<path class="st4" d="M323.1,649.5c-1.5,0-2.9-0.3-4.1-0.9c-1.2-0.6-2.3-1.4-3.1-2.4c-0.8-1-1.5-2.2-1.9-3.5l0.7-0.9l-0.4,7.1
				h-4.8v-36.8h5.4V630l-0.6-0.9c0.6-1.8,1.7-3.2,3.3-4.3c1.6-1.1,3.4-1.7,5.6-1.7c2,0,3.9,0.5,5.6,1.6c1.7,1.1,3.1,2.6,4,4.5
				c1,2,1.5,4.4,1.5,7.2c0,2.7-0.5,5.1-1.5,7.1c-1,2-2.4,3.5-4.1,4.5C327.1,649,325.2,649.5,323.1,649.5z M321.9,645.1
				c2.2,0,3.9-0.8,5.2-2.4c1.2-1.6,1.9-3.7,1.9-6.5c0-2.7-0.6-4.9-1.8-6.5c-1.2-1.6-2.9-2.3-5.1-2.3c-1.4,0-2.7,0.4-3.7,1.1
				c-1.1,0.7-1.9,1.8-2.5,3.1c-0.6,1.3-0.9,2.9-0.9,4.7c0,1.8,0.3,3.3,0.9,4.6c0.6,1.3,1.4,2.3,2.5,3
				C319.3,644.8,320.5,645.1,321.9,645.1z"/>
			<path class="st4" d="M361,649v-8.4h-16.4v-3.7c0.1-0.2,0.2-0.4,0.3-0.6c0.2-0.2,0.3-0.5,0.5-0.8l14-20h6.7v20.9h5.7v4.2h-5.7v8.4
				H361z M349.7,636.4H361v-11.8c0-0.8,0-1.7,0.1-2.5s0.1-1.7,0.1-2.6h-0.1c-0.4,0.8-0.9,1.7-1.4,2.7c-0.6,1-1.1,1.8-1.7,2.5
				l-7.9,11.3c-0.1,0.1-0.1,0.1-0.2,0.2C349.9,636.2,349.8,636.3,349.7,636.4z"/>
			<path class="st4" d="M393.9,649.5c-3,0-5.4-0.6-7.3-1.9c-1.9-1.3-3.4-3.1-4.5-5.6l5.1-2.6c0.5,1.6,1.3,3,2.3,4
				c1,1,2.6,1.5,4.6,1.5c1.4,0,2.6-0.3,3.6-0.8c1-0.5,1.8-1.3,2.3-2.2c0.5-1,0.8-2.1,0.8-3.5c0-1.4-0.3-2.6-0.8-3.6
				c-0.5-0.9-1.2-1.7-2.2-2.2c-0.9-0.5-2.1-0.7-3.6-0.7c-1,0-1.9,0.1-2.7,0.3c-0.8,0.2-1.6,0.5-2.3,0.9c-0.7,0.4-1.3,1-1.8,1.7
				L383,634l2-18.5h19.5v4.7h-15.2l-1.2,9.4l-0.1,0.6h0.1c0.8-0.8,1.8-1.5,3-2c1.2-0.5,2.7-0.7,4.4-0.7c2.2,0,4,0.4,5.6,1.3
				c1.6,0.9,2.8,2.1,3.7,3.7c0.9,1.6,1.3,3.4,1.3,5.5c0,1.8-0.3,3.5-0.9,4.9c-0.6,1.4-1.5,2.6-2.6,3.6c-1.1,1-2.4,1.7-3.9,2.2
				C397.3,649.2,395.7,649.5,393.9,649.5z"/>
		</g>
	</g>
</g>
</svg>
