<?xml version="1.0" encoding="utf-8"?>
<!-- Generator: Adobe Illustrator 26.3.1, SVG Export Plug-In . SVG Version: 6.00 Build 0)  -->
<svg version="1.1" id="Layer_1" xmlns="http://www.w3.org/2000/svg" xmlns:xlink="http://www.w3.org/1999/xlink" x="0px" y="0px"
	 viewBox="0 0 556.9 645.3" style="enable-background:new 0 0 556.9 645.3;" xml:space="preserve">
<style type="text/css">
	.st0{clip-path:url(#SVGID_00000111875703709654969370000013134167185594003088_);}
	.st1{fill:#B5D0D9;}
	.st2{fill:#C56505;}
	.st3{fill:#AC5317;}
	.st4{fill:#FFFFFF;}
	.st5{fill:#FBFBFB;}
	.st6{clip-path:url(#SVGID_00000156551965596657570580000013572179683224683947_);}
	.st7{fill:#D8B054;}
	.st8{fill:#984608;}
	.st9{fill:#833408;}
	.st10{fill:#F6F1EA;}
	.st11{clip-path:url(#SVGID_00000045605500970669766260000012634355706153844866_);}
	.st12{fill:#AED1DA;}
	.st13{clip-path:url(#SVGID_00000170263555950789861190000001754813302338539143_);}
	.st14{fill:#E0AF3E;}
	.st15{clip-path:url(#SVGID_00000078742326703842573700000006281434524929466012_);}
	.st16{fill:#B73700;}
	.st17{fill:#E2E2E2;}
	.st18{fill:#FFBA00;}
	.st19{fill:#002B00;}
	.st20{fill:#EF261A;}
	.st21{fill:#98D308;}
	.st22{fill:#002B44;}
	.st23{fill:none;stroke:#B73700;stroke-width:39;stroke-miterlimit:10;}
	.st24{fill:none;stroke:#D8B054;stroke-width:50;stroke-miterlimit:10;}
	.st25{fill:#E2D8C7;}
	.st26{clip-path:url(#SVGID_00000098196964917120764260000016964498915046323874_);fill:#F4A61E;}
	.st27{clip-path:url(#SVGID_00000063606401534433820600000003093750459670572203_);fill:#CC922B;}
	.st28{clip-path:url(#SVGID_00000153693503873161677540000017217074309300743356_);fill:#E28927;}
	.st29{clip-path:url(#SVGID_00000039829355349393677990000004878754505411110559_);fill:#89A626;}
	.st30{clip-path:url(#SVGID_00000111170392120284482480000014915527202543559563_);fill:#5B8B45;}
	.st31{clip-path:url(#SVGID_00000027584003629452199870000014641624285328627858_);fill:#3B562C;}
	.st32{clip-path:url(#SVGID_00000098183407283920508980000009507034979841333646_);fill:#A6D3DC;}
	.st33{clip-path:url(#SVGID_00000114052274104451148820000012759285597937959091_);fill:#F9F9F9;}
</style>
<g>
	<g>
		<g>
			<defs>
				<path id="SVGID_00000007404295984642116070000011225506260060680894_" d="M4.9,133.7c-8.3,41.7-4.3,84.3-0.4,126.5
					c2.1,22,4.4,44.8,17.3,64.3c9.8,14.9,25.3,27.1,42.2,37.1c29.7,17.8,64.5,30,100.8,35.4c24.2,3.6,48.8,4.3,73.3,6.4
					c54.8,4.7,108.9,16.6,163.9,14.9c55-1.7,114-20.9,137.5-61c12.5-21.3,13.4-45.7,14.1-69.2c1.1-35.3,2.1-70.7,3.2-106
					c0.2-8.2,0.3-17-5.3-23.9c-12.9-15.7-46.7-12-59-28c-8.5-11.2-2-27.1-11.3-37.9c-6.6-7.6-18.8-10.2-29.8-13.1
					c-40.7-10.9-74.7-33.3-111-51.5s-79.2-33-121.2-25.9c-51,8.6-82.5,45.2-128.5,61.6C43.9,80.1,14.4,86,4.9,133.7z"/>
			</defs>
			<clipPath id="SVGID_00000031903178858438901110000011377629093410398596_">
				<use xlink:href="#SVGID_00000007404295984642116070000011225506260060680894_"  style="overflow:visible;"/>
			</clipPath>
			
				<rect x="-40.8" y="-82.7" style="clip-path:url(#SVGID_00000031903178858438901110000011377629093410398596_);fill:#CC922B;" width="629.3" height="584.3"/>
		</g>
	</g>
	<g>
		<path class="st4" d="M206.1,580.9v3.7h-28.7v-3.7H206.1z M208.3,569v3.8h-28.8V569H208.3z M191.6,560.1l-5.5,33.5h-4.2l5.5-33.5
			H191.6z M203.6,560.1l-5.5,33.5h-4.2l5.5-33.5H203.6z"/>
		<path class="st4" d="M230,567.7c2,0,3.8,0.3,5.2,0.9c1.4,0.6,2.6,1.4,3.6,2.5c1,1.1,1.7,2.3,2.2,3.7l-5.1,2
			c-0.4-1.6-1.1-2.8-2.1-3.6c-1-0.8-2.2-1.2-3.8-1.2c-1.5,0-2.8,0.3-3.9,1c-1.1,0.7-1.9,1.7-2.5,3c-0.6,1.3-0.8,2.9-0.8,4.9
			c0,1.9,0.3,3.5,0.9,4.8c0.6,1.3,1.4,2.3,2.5,3c1.1,0.7,2.4,1,3.9,1c1.2,0,2.1-0.2,3-0.6c0.8-0.4,1.5-0.9,2.1-1.7
			c0.6-0.7,0.9-1.6,1.1-2.7l4.9,1.7c-0.5,1.5-1.2,2.9-2.2,4c-1,1.1-2.2,2-3.7,2.6c-1.5,0.6-3.2,0.9-5.1,0.9c-2.5,0-4.7-0.5-6.7-1.6
			c-1.9-1-3.4-2.6-4.5-4.5c-1.1-2-1.6-4.3-1.6-7.1c0-2.7,0.5-5.1,1.6-7.1c1.1-2,2.6-3.5,4.5-4.5C225.3,568.2,227.5,567.7,230,567.7z
			"/>
		<path class="st4" d="M263.8,567.7c2,0,3.8,0.3,5.2,0.9c1.4,0.6,2.6,1.4,3.6,2.5c1,1.1,1.7,2.3,2.2,3.7l-5.1,2
			c-0.4-1.6-1.1-2.8-2.1-3.6c-1-0.8-2.2-1.2-3.8-1.2c-1.5,0-2.8,0.3-3.9,1c-1.1,0.7-1.9,1.7-2.5,3c-0.6,1.3-0.8,2.9-0.8,4.9
			c0,1.9,0.3,3.5,0.9,4.8c0.6,1.3,1.4,2.3,2.5,3c1.1,0.7,2.4,1,3.9,1c1.2,0,2.1-0.2,3-0.6c0.8-0.4,1.5-0.9,2.1-1.7
			c0.6-0.7,0.9-1.6,1.1-2.7l4.9,1.7c-0.5,1.5-1.2,2.9-2.2,4c-1,1.1-2.2,2-3.7,2.6c-1.5,0.6-3.2,0.9-5.1,0.9c-2.5,0-4.7-0.5-6.7-1.6
			c-1.9-1-3.4-2.6-4.5-4.5c-1.1-2-1.6-4.3-1.6-7.1c0-2.7,0.5-5.1,1.6-7.1c1.1-2,2.6-3.5,4.5-4.5
			C259.2,568.2,261.4,567.7,263.8,567.7z"/>
		<path class="st4" d="M297.6,559.6c2.9,0,5.3,0.7,7.3,2.1c2,1.4,3.5,3.4,4.5,6c1,2.6,1.5,5.6,1.5,9.1c0,3.9-0.5,7.1-1.6,9.6
			c-1.1,2.6-2.6,4.5-4.5,5.8c-2,1.3-4.3,1.9-7.1,1.9c-2.8,0-5.3-0.6-7.3-1.9c-2-1.3-3.6-3.1-4.6-5.6l5.1-2.4
			c0.5,1.6,1.3,2.9,2.4,3.8c1.1,0.9,2.6,1.4,4.5,1.4c1.6,0,2.9-0.3,3.9-0.9c1-0.6,1.9-1.5,2.5-2.6c0.6-1.2,1.1-2.5,1.3-4.2
			c0.3-1.6,0.4-3.5,0.4-5.5c0-0.1,0-0.2,0-0.3c0-0.1,0-0.2,0-0.3h-0.2c-0.4,1.4-1,2.5-2,3.3c-1,0.8-2.1,1.5-3.3,1.9
			c-1.2,0.4-2.4,0.6-3.7,0.6c-2.2,0-4.1-0.4-5.8-1.3c-1.7-0.9-3-2.1-3.9-3.6c-0.9-1.6-1.4-3.4-1.4-5.5c0-2.3,0.5-4.4,1.4-6
			c1-1.7,2.3-3,4.1-3.9C293,560.1,295.1,559.6,297.6,559.6z M297.6,564.4c-2.1,0-3.8,0.6-4.9,1.7c-1.1,1.2-1.7,2.8-1.7,4.8
			c0,1.8,0.6,3.3,1.8,4.3c1.2,1,2.8,1.5,4.8,1.5c1.3,0,2.4-0.3,3.4-0.8c1-0.5,1.8-1.2,2.3-2.2c0.6-0.9,0.8-2,0.8-3.2
			c0-1.3-0.3-2.4-0.8-3.3c-0.6-0.9-1.3-1.7-2.3-2.2C300,564.6,298.9,564.4,297.6,564.4z"/>
		<path class="st4" d="M322.7,593.6v-4c3.2-2.3,5.9-4.3,8.1-6.1s3.9-3.4,5.3-4.9c1.3-1.5,2.3-2.9,2.9-4.2c0.6-1.3,0.9-2.7,0.9-4.1
			c0-1.8-0.6-3.3-1.7-4.4c-1.1-1.1-2.7-1.7-4.7-1.7c-2.1,0-3.8,0.7-5,2.1c-1.2,1.4-1.9,3.3-2.1,5.8l-4.7-2.2c0.2-2.1,0.9-4,1.9-5.5
			c1-1.6,2.4-2.8,4.1-3.6c1.7-0.8,3.8-1.3,6.1-1.3c1.9,0,3.6,0.3,5,0.8c1.4,0.5,2.6,1.3,3.6,2.3c1,1,1.7,2.1,2.3,3.4
			c0.5,1.3,0.8,2.7,0.8,4.1c0,2.1-0.5,4.2-1.6,6.2c-1,2-2.7,4-5,6.1c-2.3,2.1-5.2,4.3-8.9,6.7v0.1c0.4-0.1,1-0.1,1.7-0.1
			c0.7,0,1.4,0,2.1-0.1c0.7,0,1.3,0,1.7,0h10.6v4.7H322.7z"/>
		<path class="st4" d="M357.9,593.6v-4c3.2-2.3,5.9-4.3,8.1-6.1s3.9-3.4,5.3-4.9c1.3-1.5,2.3-2.9,2.9-4.2c0.6-1.3,0.9-2.7,0.9-4.1
			c0-1.8-0.6-3.3-1.7-4.4c-1.1-1.1-2.7-1.7-4.7-1.7c-2.1,0-3.8,0.7-5,2.1c-1.2,1.4-1.9,3.3-2.1,5.8l-4.7-2.2c0.2-2.1,0.9-4,1.9-5.5
			c1-1.6,2.4-2.8,4.1-3.6c1.7-0.8,3.8-1.3,6.1-1.3c1.9,0,3.6,0.3,5,0.8c1.4,0.5,2.6,1.3,3.6,2.3c1,1,1.7,2.1,2.3,3.4
			c0.5,1.3,0.8,2.7,0.8,4.1c0,2.1-0.5,4.2-1.6,6.2c-1.1,2-2.7,4-5,6.1c-2.3,2.1-5.2,4.3-8.9,6.7v0.1c0.4-0.1,1-0.1,1.7-0.1
			c0.7,0,1.4,0,2.1-0.1c0.7,0,1.3,0,1.7,0h10.6v4.7H357.9z"/>
		<path class="st4" d="M407.3,594.1c-1.5,0-2.9-0.3-4.1-0.9c-1.2-0.6-2.3-1.4-3.1-2.4c-0.8-1-1.5-2.2-1.9-3.5l0.7-0.9l-0.4,7.1h-4.8
			v-36.8h5.4v17.8l-0.6-0.9c0.6-1.8,1.7-3.2,3.3-4.3c1.6-1.1,3.4-1.7,5.6-1.7c2,0,3.9,0.5,5.6,1.6c1.7,1.1,3.1,2.6,4,4.5
			c1,2,1.5,4.4,1.5,7.2c0,2.7-0.5,5.1-1.5,7.1c-1,2-2.4,3.5-4.1,4.5C411.3,593.6,409.4,594.1,407.3,594.1z M406.1,589.8
			c2.2,0,3.9-0.8,5.2-2.4c1.2-1.6,1.9-3.7,1.9-6.5c0-2.7-0.6-4.9-1.8-6.5c-1.2-1.6-2.9-2.3-5.1-2.3c-1.4,0-2.7,0.4-3.7,1.1
			c-1,0.7-1.9,1.8-2.5,3.1c-0.6,1.3-0.9,2.9-0.9,4.7c0,1.8,0.3,3.3,0.9,4.6c0.6,1.3,1.4,2.3,2.5,3
			C403.5,589.4,404.8,589.8,406.1,589.8z"/>
	</g>
</g>
</svg>
