<?xml version="1.0" encoding="utf-8"?>
<!-- Generator: Adobe Illustrator 26.3.1, SVG Export Plug-In . SVG Version: 6.00 Build 0)  -->
<svg version="1.1" id="Layer_1" xmlns="http://www.w3.org/2000/svg" xmlns:xlink="http://www.w3.org/1999/xlink" x="0px" y="0px"
	 viewBox="0 0 7195 1625" style="enable-background:new 0 0 7195 1625;" xml:space="preserve">
<style type="text/css">
	.st0{clip-path:url(#SVGID_00000178188684795860568480000005013021933609381799_);}
	.st1{fill:#B5D0D9;}
	.st2{fill:#C56505;}
	.st3{fill:#AC5317;}
	.st4{fill:#FFFFFF;}
	.st5{fill:#FBFBFB;}
	.st6{clip-path:url(#SVGID_00000046305087395728357210000006247305868085940642_);}
	.st7{fill:#D8B054;}
	.st8{fill:#984608;}
	.st9{fill:#833408;}
	.st10{fill:#F6F1EA;}
	.st11{clip-path:url(#SVGID_00000139982343468805717720000007352745802360280475_);}
	.st12{fill:#AED1DA;}
	.st13{clip-path:url(#SVGID_00000134213876458021983940000012151192841749128629_);}
	.st14{fill:#E0AF3E;}
	.st15{clip-path:url(#SVGID_00000036973122091080091870000010215414565245412287_);}
	.st16{fill:#B73700;}
	.st17{fill:#E2E2E2;}
	.st18{fill:#FFBA00;}
	.st19{fill:#002B00;}
	.st20{fill:#EF261A;}
	.st21{fill:#98D308;}
	.st22{fill:#002B44;}
	.st23{fill:none;stroke:#B73700;stroke-width:39;stroke-miterlimit:10;}
	.st24{fill:none;stroke:#D8B054;stroke-width:50;stroke-miterlimit:10;}
	.st25{fill:#E2D8C7;}
	.st26{clip-path:url(#SVGID_00000145748179169679608480000000792919872271382678_);fill:#F4A61E;}
	.st27{clip-path:url(#SVGID_00000134251559846088122480000013559715454711404717_);fill:#CC922B;}
	.st28{clip-path:url(#SVGID_00000043456206610563953320000010619783780575750330_);fill:#E28927;}
	.st29{clip-path:url(#SVGID_00000034777484346403873350000017232694121515639228_);fill:#89A626;}
	.st30{clip-path:url(#SVGID_00000126297183766175472800000006011454108921184937_);fill:#5B8B45;}
	.st31{clip-path:url(#SVGID_00000103258345393975601890000004672015202693264036_);fill:#3B562C;}
	.st32{clip-path:url(#SVGID_00000177447825835983514340000011238948162970943405_);fill:#A6D3DC;}
	.st33{clip-path:url(#SVGID_00000029747841372124324910000018377113488427009174_);fill:#F9F9F9;}
</style>
<rect x="-0.5" class="st25" width="7195" height="1625"/>
<g>
	<g>
		<defs>
			<path id="SVGID_00000139282630751500204950000003692160234374919324_" d="M699.6,714.3c-33,13.4-59.8,38-67.2,67.1
				c-5.7,22.4,0,45.5,3.6,68.2c9.3,58.1,4.5,117.6-13.8,174.2c-11.5,35.5-28.5,70.7-27.4,107.3c0.2,7.4,1.2,15,4.9,21.8
				c4.5,8.4,12.7,15.2,21.9,20.7c37,22.3,86.8,24.4,132.8,21.3s92.5-10.6,138-4.3c36.1,5,69.7,18.5,105.7,23.7
				c36,5.2,78.7-0.5,98.8-25.1c22.6-27.6,7.2-64.3-10.5-94.1c-17.6-29.8-37.4-63.8-21.6-94.3c8.5-16.4,26-28.5,41.5-41.1
				c21.8-17.8,41.2-38.4,49.6-62.5s4.1-52-16.6-70.5c-11.9-10.6-28-17.4-43-25.2c-35.1-18.3-64.8-43.1-86.4-71.9
				c-8.3-11.1-15.8-23.1-28.8-30.6c-13.1-7.5-29.9-9.3-45.9-9.9c-43.8-1.6-81.7,11.1-123.9,13.7
				C771.2,705.4,738.7,698.4,699.6,714.3z"/>
		</defs>
		<clipPath id="SVGID_00000112609956897362705320000012232564890322112920_">
			<use xlink:href="#SVGID_00000139282630751500204950000003692160234374919324_"  style="overflow:visible;"/>
		</clipPath>
		
			<rect x="554.6" y="662.3" style="clip-path:url(#SVGID_00000112609956897362705320000012232564890322112920_);fill:#F4A61E;" width="629.3" height="584.3"/>
	</g>
	<g>
		<defs>
			<path id="SVGID_00000124134591124157829870000007925398508048971667_" d="M1402.5,878.7c-8.3,41.7-4.3,84.3-0.4,126.5
				c2.1,22,4.4,44.8,17.3,64.3c9.8,14.9,25.3,27.1,42.2,37.1c29.7,17.8,64.5,30,100.8,35.4c24.2,3.6,48.8,4.3,73.3,6.4
				c54.8,4.7,108.9,16.6,163.9,14.9c55-1.7,114-20.9,137.5-61c12.5-21.3,13.4-45.7,14.1-69.2c1.1-35.3,2.1-70.7,3.2-106
				c0.2-8.2,0.3-17-5.3-23.9c-12.9-15.7-46.7-12-59-28c-8.5-11.2-2-27.1-11.3-37.9c-6.6-7.6-18.8-10.2-29.8-13.1
				c-40.7-10.9-74.7-33.3-111-51.5s-79.2-33-121.2-25.9c-51,8.6-82.5,45.2-128.5,61.6C1441.5,825.1,1412,831,1402.5,878.7z"/>
		</defs>
		<clipPath id="SVGID_00000164487621830062499220000013016311252045734840_">
			<use xlink:href="#SVGID_00000124134591124157829870000007925398508048971667_"  style="overflow:visible;"/>
		</clipPath>
		
			<rect x="1356.8" y="662.3" style="clip-path:url(#SVGID_00000164487621830062499220000013016311252045734840_);fill:#CC922B;" width="629.3" height="584.3"/>
	</g>
	<g>
		<defs>
			<path id="SVGID_00000052077560666475207120000006774380886950750880_" d="M2181.8,1125.1c0.3,8.9,1.2,18,6.1,26
				c6.2,10,17.8,17.1,29.6,23c73.8,37,167.3,43.8,251.5,26.5c38.3-7.9,77.1-21.7,99.7-47.8c34.4-39.7,24.2-99.1,67.1-133
				c16-12.7,37.5-19.9,54.8-31.3c48.4-32,55.5-88.5,58.4-138.9c1.7-28.5,3.3-57,4.7-85.5c0.4-8.6,0.7-17.8-5-25.1
				c-6.3-8.1-18.4-11.8-29.6-15c-52.5-14.9-106.1-30-161.7-30.6c-39.7-0.5-78.9,6.5-117.7,13.4c-37.7,6.7-75.5,13.5-113.2,20.2
				c-25.6,4.6-52.2,9.5-72.4,22.9c-46,30.3-39.7,87.5-26.2,134.1c12.2,41.7,28.6,91.7-3.8,129.6
				C2193.5,1049.3,2180.3,1078.7,2181.8,1125.1z"/>
		</defs>
		<clipPath id="SVGID_00000119118237893694269150000013811984170234516372_">
			<use xlink:href="#SVGID_00000052077560666475207120000006774380886950750880_"  style="overflow:visible;"/>
		</clipPath>
		
			<rect x="2150.4" y="662.3" style="clip-path:url(#SVGID_00000119118237893694269150000013811984170234516372_);fill:#E28927;" width="629.3" height="584.3"/>
	</g>
	<g>
		<defs>
			<path id="SVGID_00000150789948812354622100000000755387907523688861_" d="M2962.8,872.3c-6.5,29.6,6.6,59.3,16.8,88.2
				c11.9,33.6,20.1,68.3,37.5,100.4c17.4,32,45.8,62.1,86,75.4c70,23.3,150.4-9.7,225.2,0.4c29.3,4,56.6,14.5,85.8,19
				c29.2,4.5,63.1,1.4,82.3-16.8c10.6-10.2,15.1-23.5,18.2-36.6c6.5-27.9,7.7-56.6,3.5-84.7c-1.7-11.3-3.8-23.9,4.7-33.1
				c5.3-5.7,13.8-8.8,20.6-13.4c23.6-15.9,22.6-44.9,19.4-69.5c-2.3-17.7-5.3-36.5-19.1-50.4c-11.9-11.9-30-18.5-47.4-24.4
				c-58.2-19.8-119.2-38.2-182.4-36.6c-41.5,1.1-82.2,10.9-123.7,10.9c-32,0-59.3-12.5-90.2-13.3
				C3040.9,786.2,2973.2,825,2962.8,872.3z"/>
		</defs>
		<clipPath id="SVGID_00000028308748213159626160000002810442987493777314_">
			<use xlink:href="#SVGID_00000150789948812354622100000000755387907523688861_"  style="overflow:visible;"/>
		</clipPath>
		
			<rect x="2956.9" y="662.3" style="clip-path:url(#SVGID_00000028308748213159626160000002810442987493777314_);fill:#89A626;" width="629.3" height="584.3"/>
	</g>
	<g>
		<defs>
			<path id="SVGID_00000006683884081749315030000002729437037417049250_" d="M3824.6,739.2c-16.6,30-12.8,64.6-7,97.1
				s13.1,66.1,2.6,97.9c-8.6,25.9-28.6,49.2-32.5,75.8c-2.6,18.2,2.6,36.5,7.9,54.3c7,23.4,14.6,47.2,30.7,67.5
				c16.2,20.2,42.8,36.6,72.7,37.4c40.4,1,73.2-25.2,111.3-36.1c52.5-15.1,110-0.2,164.7,8.8s120.4,9,155.7-25.8
				c21.9-21.5,26.2-51.9,19.4-79.2c-6.8-27.3-23.2-52.2-39.5-76.7c-14.9-22.5-30.1-45.2-51.3-64.2c-29.6-26.5-70.5-44.7-114.2-50.9
				c-47.2-6.7-104.7-2.9-133-34.1c-31.1-34.4-9.4-94.9-66.2-116.4C3902.1,677.9,3842.8,706.5,3824.6,739.2z"/>
		</defs>
		<clipPath id="SVGID_00000124842269798049128200000006205017680238526632_">
			<use xlink:href="#SVGID_00000006683884081749315030000002729437037417049250_"  style="overflow:visible;"/>
		</clipPath>
		
			<rect x="3736.7" y="662.3" style="clip-path:url(#SVGID_00000124842269798049128200000006205017680238526632_);fill:#5B8B45;" width="629.3" height="584.3"/>
	</g>
	<g>
		<defs>
			<path id="SVGID_00000129887623898061277640000007267013016989150134_" d="M4784.7,721.3c-49.5,19-67.1,67.6-79.3,110.7
				c-7.5,26.4-15,52.9-22.5,79.3c-14.7,51.7-29.3,103.4-44,155c-6.3,22.3-12.7,45.2-8.6,67.9c4.1,22.6,21.1,45.3,48.1,52.4
				c38.9,10.3,78.1-13.9,118.7-18.4c26.5-2.9,53.1,2.8,79,7.8c41.3,7.9,83.9,14.3,126.2,10.8c42.3-3.5,84.7-18.1,110.4-45.4
				c16-17,24.7-40.1,15.1-60c-10.4-21.5-38.8-34.1-51.8-54.6c-19.6-31,10.2-74.4,53.2-77.6c9.9-0.7,20.2,0.3,29.3-2.9
				c11.6-4.1,18.3-13.9,23.3-23.3c13.9-26.1,22-55.1,15.6-83.1s-29-54.5-62.1-64.4c-37.4-11.1-76.5,1.8-114.2-4.9
				c-31.7-5.7-47.8-22.1-73.3-35.6C4902.8,711.3,4836.6,701.4,4784.7,721.3z"/>
		</defs>
		<clipPath id="SVGID_00000003094522965710356740000000296672004700611246_">
			<use xlink:href="#SVGID_00000129887623898061277640000007267013016989150134_"  style="overflow:visible;"/>
		</clipPath>
		
			<rect x="4562.9" y="652.9" style="clip-path:url(#SVGID_00000003094522965710356740000000296672004700611246_);fill:#3B562C;" width="681.4" height="632.7"/>
	</g>
	<g>
		<defs>
			<path id="SVGID_00000000922273391809187410000015233653854710929298_" d="M5391.4,889.9c9.5,17.8,27.4,31.7,39,48.6
				c26.6,38.8,16.3,87.3-3.2,128.7c-8.3,17.5-18.2,35-18.6,53.7c-0.8,34.6,33.3,65.7,74.3,76.2s86.5,3.1,124.7-12.7
				c50.7-21,96.5-57.2,153.4-56.2c42.5,0.7,83.9,22.8,125,14.1c32.8-6.9,55.7-33.4,59.1-60.5c3.4-27.2-10-54.3-30.1-76.3
				c-12.3-13.4-27.1-25.4-37.3-39.8c-30.2-42.5-15.1-96.4,8.9-141.4c10.6-20,23.2-41.6,16-62.5c-4.5-13.4-16.6-24.3-30.2-32.8
				c-43-27-104.9-32.9-154.5-14.8c-23.6,8.6-45.4,22.3-71.2,23.7c-27.7,1.4-52.9-11.7-77.9-21.4c-37.8-14.8-79.8-22.6-121.8-22.8
				c-21-0.1-46,4-53.8,19.7c-20.1,40.7,61.5,30.5,34.7,76.9C5407.6,825.2,5367.6,845.2,5391.4,889.9z"/>
		</defs>
		<clipPath id="SVGID_00000121986519661612763270000017849552506035180198_">
			<use xlink:href="#SVGID_00000000922273391809187410000015233653854710929298_"  style="overflow:visible;"/>
		</clipPath>
		
			<rect x="5357.5" y="662.3" style="clip-path:url(#SVGID_00000121986519661612763270000017849552506035180198_);fill:#A6D3DC;" width="629.3" height="584.3"/>
	</g>
	<g>
		<defs>
			<path id="SVGID_00000121281491040453043540000018380168562562959276_" d="M6230.6,845.7c-29.1,33.3-43,74-47.5,114.6
				c-5.2,46.5,3.9,98.1,46.3,130c35.2,26.5,86.4,34,134.5,34.7c48.2,0.7,96.8-4.4,144.4,1.9c46,6.1,92.6,22.6,137.4,12.3
				c57.9-13.4,86.7-65.6,98.4-113.2c6.7-26.9,10.3-55.1,2.1-81.7c-4.8-15.8-13.6-30.6-18.3-46.4c-13.7-45.9,8.4-93.8,5.8-141
				c-0.4-8.1-1.8-16.7-7.9-23.2c-9.6-10.3-27.5-12.3-43.5-13.2c-94.1-5.1-197.7-6.2-278.3,33.9
				C6343.9,784.3,6273.7,796.2,6230.6,845.7z"/>
		</defs>
		<clipPath id="SVGID_00000107551190063159483230000016900230586468283824_">
			<use xlink:href="#SVGID_00000121281491040453043540000018380168562562959276_"  style="overflow:visible;"/>
		</clipPath>
		
			<rect x="6162.4" y="662.3" style="clip-path:url(#SVGID_00000107551190063159483230000016900230586468283824_);fill:#F9F9F9;" width="629.3" height="584.3"/>
	</g>
</g>
<g>
	<path class="st4" d="M746.7,1325.9v3.7h-28.7v-3.7H746.7z M748.9,1314v3.8h-28.8v-3.8H748.9z M732.2,1305.1l-5.5,33.5h-4.2
		l5.5-33.5H732.2z M744.2,1305.1l-5.5,33.5h-4.2l5.5-33.5H744.2z"/>
	<path class="st4" d="M775,1313.2v4.3h-18.3v-4.3H775z M770.4,1301.5c1,0,2,0.1,2.9,0.3c0.9,0.2,1.5,0.5,2,0.9l-1,3.9
		c-0.4-0.2-0.8-0.4-1.3-0.5c-0.5-0.1-1-0.2-1.6-0.2c-1.4,0-2.5,0.3-3.3,1c-0.8,0.6-1.2,1.7-1.2,3.1v3.7l0.2,1.4v23.6h-5.4v-29.1
		c0-1.3,0.2-2.4,0.6-3.5c0.4-1,1-1.9,1.8-2.6c0.8-0.7,1.7-1.2,2.8-1.6C767.8,1301.6,769,1301.5,770.4,1301.5z"/>
	<path class="st4" d="M799.6,1338.6v-8.4h-16.4v-3.7c0.1-0.2,0.2-0.4,0.3-0.6c0.2-0.2,0.3-0.5,0.5-0.8l14-20h6.7v20.9h5.7v4.2h-5.7
		v8.4H799.6z M788.3,1326h11.3v-11.8c0-0.8,0-1.7,0.1-2.5s0.1-1.7,0.1-2.6h-0.1c-0.4,0.8-0.9,1.7-1.4,2.7c-0.6,1-1.1,1.8-1.7,2.5
		l-7.9,11.3c-0.1,0.1-0.1,0.1-0.2,0.2C788.5,1325.9,788.4,1325.9,788.3,1326z"/>
	<path class="st4" d="M836.8,1322.3c0-1.7-0.5-3-1.4-3.9c-0.9-0.9-2.2-1.4-3.8-1.4c-1.5,0-2.8,0.4-3.9,1.1c-1.1,0.7-1.9,1.9-2.4,3.5
		l-4.6-1.9c0.6-2.1,1.9-3.7,3.8-5c1.9-1.3,4.3-1.9,7.3-1.9c2,0,3.8,0.3,5.4,1c1.6,0.7,2.8,1.7,3.7,3c0.9,1.3,1.3,3,1.3,5.1v11.3
		c0,1.3,0.6,1.9,1.9,1.9c0.6,0,1.2-0.1,1.8-0.3l-0.3,3.8c-0.8,0.4-1.8,0.6-2.9,0.6c-1.1,0-2.1-0.2-2.9-0.6c-0.9-0.4-1.5-1-2-1.8
		c-0.5-0.8-0.7-1.8-0.7-3v-0.4l1.1-0.1c-0.3,1.3-0.9,2.4-1.9,3.3c-0.9,0.9-2,1.5-3.3,1.9c-1.3,0.4-2.5,0.6-3.8,0.6
		c-1.6,0-3-0.3-4.3-0.8s-2.3-1.3-3-2.3c-0.7-1-1.1-2.3-1.1-3.8c0-1.9,0.6-3.5,1.9-4.7c1.2-1.2,3-2,5.3-2.5l9.9-1.9l-0.1,3.8
		l-7.2,1.5c-1.4,0.3-2.5,0.7-3.2,1.2c-0.7,0.5-1.1,1.3-1.1,2.2c0,0.9,0.4,1.7,1.1,2.3c0.7,0.6,1.7,0.8,2.9,0.8
		c0.8,0,1.7-0.1,2.5-0.3c0.8-0.2,1.5-0.5,2.2-1c0.6-0.5,1.1-1,1.5-1.8c0.4-0.7,0.5-1.6,0.5-2.6V1322.3z"/>
	<path class="st4" d="M868.9,1304.6c1.8,0,3.4,0.2,4.8,0.7c1.4,0.5,2.6,1.3,3.6,2.3c1,1.1,1.9,2.4,2.6,4.1l-4.8,2.3
		c-0.5-1.5-1.2-2.6-2.3-3.5c-1-0.8-2.5-1.3-4.3-1.3c-1.3,0-2.5,0.3-3.5,1c-1,0.6-1.9,1.5-2.6,2.7c-0.7,1.2-1.3,2.5-1.6,4.1
		c-0.4,1.6-0.6,3.3-0.6,5.1c0,0.1,0,0.2,0,0.3c0,0.1,0,0.3,0,0.6l0.2,0.1c0.4-1.4,1-2.4,2-3.3c1-0.8,2.1-1.4,3.3-1.9
		s2.4-0.6,3.6-0.6c2.2,0,4.2,0.4,5.8,1.3c1.7,0.9,3,2.1,3.9,3.7c0.9,1.6,1.4,3.5,1.4,5.7c0,2.2-0.5,4.2-1.5,5.8
		c-1,1.6-2.3,2.9-4.1,3.8c-1.7,0.9-3.8,1.3-6.3,1.3c-2.8,0-5.3-0.7-7.3-2.1c-2-1.4-3.5-3.4-4.6-6c-1-2.6-1.6-5.6-1.6-9
		c0-3.8,0.6-7,1.8-9.6c1.2-2.6,2.8-4.5,4.9-5.8C864.1,1305.3,866.4,1304.6,868.9,1304.6z M868.6,1322c-1.3,0-2.4,0.3-3.4,0.8
		c-1,0.5-1.8,1.2-2.3,2.2s-0.8,2-0.8,3.2c0,1.2,0.3,2.3,0.9,3.2c0.6,0.9,1.4,1.7,2.4,2.3c1,0.6,2.1,0.8,3.3,0.8
		c2.1,0,3.7-0.6,4.8-1.7c1.2-1.1,1.7-2.7,1.7-4.6c0-1.3-0.3-2.3-0.8-3.3c-0.5-0.9-1.2-1.6-2.2-2.1C871.2,1322.3,870,1322,868.6,1322
		z"/>
	<path class="st4" d="M898.7,1338.6v-23c0-0.7,0-1.4,0-2.1c0-0.7,0-1.5,0.1-2.3c-1.2,1.1-2.5,2.1-3.9,2.9c-1.5,0.8-3,1.4-4.5,1.7
		l-1-4.7c0.7-0.1,1.5-0.3,2.5-0.7c0.9-0.4,1.9-0.8,2.9-1.4c1-0.6,1.9-1.2,2.8-1.9c0.8-0.7,1.5-1.3,2-2h4.6v33.5H898.7z"/>
	<path class="st4" d="M929.5,1339.1c-2.5,0-4.8-0.5-6.7-1.6c-1.9-1-3.4-2.6-4.5-4.5c-1.1-2-1.6-4.3-1.6-7.1c0-2.7,0.5-5.1,1.6-7.1
		c1.1-2,2.5-3.5,4.4-4.5c1.9-1,4-1.6,6.5-1.6c2.5,0,4.6,0.5,6.3,1.5c1.7,1,3,2.4,4,4.2c0.9,1.8,1.4,3.8,1.4,6c0,0.6,0,1.2-0.1,1.7
		c0,0.5-0.1,1-0.2,1.4h-20.4v-4.2h18l-2.7,0.8c0-2.3-0.6-4.1-1.7-5.3c-1.2-1.2-2.7-1.9-4.7-1.9c-1.5,0-2.7,0.3-3.8,1
		c-1.1,0.7-1.9,1.7-2.5,3c-0.6,1.3-0.9,3-0.9,4.9c0,1.9,0.3,3.5,0.9,4.8c0.6,1.3,1.5,2.3,2.6,3c1.1,0.7,2.4,1,4,1
		c1.7,0,3.1-0.3,4.1-1c1-0.6,1.9-1.5,2.5-2.7l4.3,2c-0.6,1.2-1.4,2.3-2.5,3.2c-1,0.9-2.3,1.6-3.7,2.1
		C932.7,1338.9,931.2,1339.1,929.5,1339.1z"/>
</g>
<g>
	<path class="st4" d="M1603.7,1325.9v3.7h-28.7v-3.7H1603.7z M1605.9,1314v3.8h-28.8v-3.8H1605.9z M1589.2,1305.1l-5.5,33.5h-4.2
		l5.5-33.5H1589.2z M1601.2,1305.1l-5.5,33.5h-4.2l5.5-33.5H1601.2z"/>
	<path class="st4" d="M1627.6,1312.7c2,0,3.8,0.3,5.2,0.9c1.4,0.6,2.6,1.4,3.6,2.5c1,1.1,1.7,2.3,2.2,3.7l-5.1,2
		c-0.4-1.6-1.1-2.8-2.1-3.6c-1-0.8-2.2-1.2-3.8-1.2c-1.5,0-2.8,0.3-3.9,1c-1.1,0.7-1.9,1.7-2.5,3c-0.6,1.3-0.8,2.9-0.8,4.9
		c0,1.9,0.3,3.5,0.9,4.8c0.6,1.3,1.4,2.3,2.5,3c1.1,0.7,2.4,1,3.9,1c1.2,0,2.1-0.2,3-0.6c0.8-0.4,1.5-0.9,2.1-1.7
		c0.6-0.7,0.9-1.6,1.1-2.7l4.9,1.7c-0.5,1.5-1.2,2.9-2.2,4c-1,1.1-2.2,2-3.7,2.6c-1.5,0.6-3.2,0.9-5.1,0.9c-2.5,0-4.7-0.5-6.7-1.6
		c-1.9-1-3.4-2.6-4.5-4.5c-1.1-2-1.6-4.3-1.6-7.1c0-2.7,0.5-5.1,1.6-7.1c1.1-2,2.6-3.5,4.5-4.5
		C1622.9,1313.3,1625.1,1312.7,1627.6,1312.7z"/>
	<path class="st4" d="M1661.4,1312.7c2,0,3.8,0.3,5.2,0.9c1.4,0.6,2.6,1.4,3.6,2.5c1,1.1,1.7,2.3,2.2,3.7l-5.1,2
		c-0.4-1.6-1.1-2.8-2.1-3.6c-1-0.8-2.2-1.2-3.8-1.2c-1.5,0-2.8,0.3-3.9,1c-1.1,0.7-1.9,1.7-2.5,3c-0.6,1.3-0.8,2.9-0.8,4.9
		c0,1.9,0.3,3.5,0.9,4.8c0.6,1.3,1.4,2.3,2.5,3c1.1,0.7,2.4,1,3.9,1c1.2,0,2.1-0.2,3-0.6c0.8-0.4,1.5-0.9,2.1-1.7
		c0.6-0.7,0.9-1.6,1.1-2.7l4.9,1.7c-0.5,1.5-1.2,2.9-2.2,4c-1,1.1-2.2,2-3.7,2.6c-1.5,0.6-3.2,0.9-5.1,0.9c-2.5,0-4.7-0.5-6.7-1.6
		c-1.9-1-3.4-2.6-4.5-4.5c-1.1-2-1.6-4.3-1.6-7.1c0-2.7,0.5-5.1,1.6-7.1c1.1-2,2.6-3.5,4.5-4.5
		C1656.8,1313.3,1659,1312.7,1661.4,1312.7z"/>
	<path class="st4" d="M1695.2,1304.6c2.9,0,5.3,0.7,7.3,2.1c2,1.4,3.5,3.4,4.5,6c1,2.6,1.5,5.6,1.5,9.1c0,3.9-0.5,7.1-1.6,9.6
		c-1.1,2.6-2.6,4.5-4.5,5.8c-2,1.3-4.3,1.9-7.1,1.9c-2.8,0-5.3-0.6-7.3-1.9c-2-1.3-3.6-3.1-4.6-5.6l5.1-2.4c0.5,1.6,1.3,2.9,2.4,3.8
		c1.1,0.9,2.6,1.4,4.5,1.4c1.6,0,2.9-0.3,3.9-0.9c1-0.6,1.9-1.5,2.5-2.6c0.6-1.2,1.1-2.5,1.3-4.2c0.3-1.6,0.4-3.5,0.4-5.5
		c0-0.1,0-0.2,0-0.3c0-0.1,0-0.2,0-0.3h-0.2c-0.4,1.4-1,2.5-2,3.3c-1,0.8-2.1,1.5-3.3,1.9c-1.2,0.4-2.4,0.6-3.7,0.6
		c-2.2,0-4.1-0.4-5.8-1.3c-1.7-0.9-3-2.1-3.9-3.6c-0.9-1.6-1.4-3.4-1.4-5.5c0-2.3,0.5-4.4,1.4-6c1-1.7,2.3-3,4.1-3.9
		C1690.6,1305.1,1692.7,1304.6,1695.2,1304.6z M1695.2,1309.4c-2.1,0-3.8,0.6-4.9,1.7c-1.1,1.2-1.7,2.8-1.7,4.8
		c0,1.8,0.6,3.3,1.8,4.3c1.2,1,2.8,1.5,4.8,1.5c1.3,0,2.4-0.3,3.4-0.8c1-0.5,1.8-1.2,2.3-2.2c0.6-0.9,0.8-2,0.8-3.2
		c0-1.3-0.3-2.4-0.8-3.3c-0.6-0.9-1.3-1.7-2.3-2.2C1697.6,1309.6,1696.5,1309.4,1695.2,1309.4z"/>
	<path class="st4" d="M1720.4,1338.6v-4c3.2-2.3,5.9-4.3,8.1-6.1s3.9-3.4,5.3-4.9c1.3-1.5,2.3-2.9,2.9-4.2c0.6-1.3,0.9-2.7,0.9-4.1
		c0-1.8-0.6-3.3-1.7-4.4c-1.1-1.1-2.7-1.7-4.7-1.7c-2.1,0-3.8,0.7-5,2.1c-1.2,1.4-1.9,3.3-2.1,5.8l-4.7-2.2c0.2-2.1,0.9-4,1.9-5.5
		c1-1.6,2.4-2.8,4.1-3.6c1.7-0.8,3.8-1.3,6.1-1.3c1.9,0,3.6,0.3,5,0.8c1.4,0.5,2.6,1.3,3.6,2.3c1,1,1.7,2.1,2.3,3.4
		c0.5,1.3,0.8,2.7,0.8,4.1c0,2.1-0.5,4.2-1.6,6.2c-1,2-2.7,4-5,6.1c-2.3,2.1-5.2,4.3-8.9,6.7v0.1c0.4-0.1,1-0.1,1.7-0.1
		c0.7,0,1.4,0,2.1-0.1c0.7,0,1.3,0,1.7,0h10.6v4.7H1720.4z"/>
	<path class="st4" d="M1755.5,1338.6v-4c3.2-2.3,5.9-4.3,8.1-6.1s3.9-3.4,5.3-4.9c1.3-1.5,2.3-2.9,2.9-4.2c0.6-1.3,0.9-2.7,0.9-4.1
		c0-1.8-0.6-3.3-1.7-4.4c-1.1-1.1-2.7-1.7-4.7-1.7c-2.1,0-3.8,0.7-5,2.1c-1.2,1.4-1.9,3.3-2.1,5.8l-4.7-2.2c0.2-2.1,0.9-4,1.9-5.5
		c1-1.6,2.4-2.8,4.1-3.6c1.7-0.8,3.8-1.3,6.1-1.3c1.9,0,3.6,0.3,5,0.8c1.4,0.5,2.6,1.3,3.6,2.3c1,1,1.7,2.1,2.3,3.4
		c0.5,1.3,0.8,2.7,0.8,4.1c0,2.1-0.5,4.2-1.6,6.2c-1.1,2-2.7,4-5,6.1c-2.3,2.1-5.2,4.3-8.9,6.7v0.1c0.4-0.1,1-0.1,1.7-0.1
		c0.7,0,1.4,0,2.1-0.1c0.7,0,1.3,0,1.7,0h10.6v4.7H1755.5z"/>
	<path class="st4" d="M1804.9,1339.1c-1.5,0-2.9-0.3-4.1-0.9c-1.2-0.6-2.3-1.4-3.1-2.4c-0.8-1-1.5-2.2-1.9-3.5l0.7-0.9l-0.4,7.1
		h-4.8v-36.8h5.4v17.8l-0.6-0.9c0.6-1.8,1.7-3.2,3.3-4.3c1.6-1.1,3.4-1.7,5.6-1.7c2,0,3.9,0.5,5.6,1.6c1.7,1.1,3.1,2.6,4,4.5
		c1,2,1.5,4.4,1.5,7.2c0,2.7-0.5,5.1-1.5,7.1c-1,2-2.4,3.5-4.1,4.5C1808.9,1338.6,1807,1339.1,1804.9,1339.1z M1803.8,1334.8
		c2.2,0,3.9-0.8,5.2-2.4c1.2-1.6,1.9-3.7,1.9-6.5c0-2.7-0.6-4.9-1.8-6.5c-1.2-1.6-2.9-2.3-5.1-2.3c-1.4,0-2.7,0.4-3.7,1.1
		c-1,0.7-1.9,1.8-2.5,3.1c-0.6,1.3-0.9,2.9-0.9,4.7c0,1.8,0.3,3.3,0.9,4.6c0.6,1.3,1.4,2.3,2.5,3
		C1801.1,1334.4,1802.4,1334.8,1803.8,1334.8z"/>
</g>
<g>
	<path class="st4" d="M2326.7,1325.9v3.7h-28.7v-3.7H2326.7z M2328.9,1314v3.8h-28.8v-3.8H2328.9z M2312.2,1305.1l-5.5,33.5h-4.2
		l5.5-33.5H2312.2z M2324.2,1305.1l-5.5,33.5h-4.2l5.5-33.5H2324.2z"/>
	<path class="st4" d="M2350.8,1339.1c-2.5,0-4.8-0.5-6.7-1.6c-1.9-1-3.4-2.6-4.5-4.5c-1.1-2-1.6-4.3-1.6-7.1c0-2.7,0.5-5.1,1.6-7.1
		c1.1-2,2.5-3.5,4.4-4.5c1.9-1,4-1.6,6.5-1.6c2.5,0,4.6,0.5,6.3,1.5c1.7,1,3,2.4,4,4.2c0.9,1.8,1.4,3.8,1.4,6c0,0.6,0,1.2-0.1,1.7
		c0,0.5-0.1,1-0.2,1.4h-20.4v-4.2h18l-2.7,0.8c0-2.3-0.6-4.1-1.7-5.3c-1.2-1.2-2.7-1.9-4.7-1.9c-1.5,0-2.7,0.3-3.8,1
		c-1.1,0.7-1.9,1.7-2.5,3c-0.6,1.3-0.9,3-0.9,4.9c0,1.9,0.3,3.5,0.9,4.8c0.6,1.3,1.5,2.3,2.6,3c1.1,0.7,2.4,1,4,1
		c1.7,0,3.1-0.3,4.1-1c1-0.6,1.9-1.5,2.5-2.7l4.3,2c-0.6,1.2-1.4,2.3-2.5,3.2c-1,0.9-2.3,1.6-3.7,2.1S2352.5,1339.1,2350.8,1339.1z"
		/>
	<path class="st4" d="M2373.6,1338.6v-4c3.2-2.3,5.9-4.3,8.1-6.1s3.9-3.4,5.3-4.9c1.3-1.5,2.3-2.9,2.9-4.2c0.6-1.3,0.9-2.7,0.9-4.1
		c0-1.8-0.6-3.3-1.7-4.4c-1.1-1.1-2.7-1.7-4.7-1.7c-2.1,0-3.8,0.7-5,2.1c-1.2,1.4-1.9,3.3-2.1,5.8l-4.7-2.2c0.2-2.1,0.9-4,1.9-5.5
		c1-1.6,2.4-2.8,4.1-3.6c1.7-0.8,3.8-1.3,6.1-1.3c1.9,0,3.6,0.3,5,0.8c1.4,0.5,2.6,1.3,3.6,2.3c1,1,1.7,2.1,2.3,3.4
		c0.5,1.3,0.8,2.7,0.8,4.1c0,2.1-0.5,4.2-1.6,6.2c-1.1,2-2.7,4-5,6.1c-2.3,2.1-5.2,4.3-8.9,6.7v0.1c0.4-0.1,1-0.1,1.7-0.1
		c0.7,0,1.4,0,2.1-0.1c0.7,0,1.3,0,1.7,0h10.6v4.7H2373.6z"/>
	<path class="st4" d="M2421,1304.7c2.3,0,4.2,0.4,5.9,1.1c1.7,0.7,3,1.8,3.9,3.1c0.9,1.3,1.4,2.9,1.4,4.8c0,1.7-0.4,3.2-1.2,4.5
		c-0.8,1.3-2,2.3-3.6,3v0.1c1.9,0.7,3.5,1.8,4.6,3.2c1.1,1.4,1.7,3.1,1.7,5.2c0,2-0.5,3.7-1.5,5.1c-1,1.4-2.5,2.5-4.4,3.3
		c-1.9,0.8-4.1,1.2-6.7,1.2c-2.6,0-4.8-0.4-6.7-1.2c-1.9-0.8-3.3-1.9-4.4-3.3c-1-1.4-1.6-3.1-1.6-5.1c0-2,0.6-3.8,1.7-5.2
		c1.1-1.4,2.7-2.5,4.7-3.2v-0.1c-1.5-0.6-2.7-1.6-3.6-2.9c-0.9-1.3-1.3-2.8-1.3-4.6c0-1.9,0.5-3.5,1.4-4.8c0.9-1.3,2.2-2.3,3.9-3.1
		C2416.7,1305,2418.7,1304.7,2421,1304.7z M2421,1334.6c1.5,0,2.8-0.2,3.8-0.7c1-0.4,1.9-1.1,2.4-1.9c0.6-0.8,0.9-1.8,0.9-2.9
		c0-1.2-0.3-2.2-0.9-3c-0.6-0.8-1.4-1.5-2.5-1.9c-1.1-0.4-2.3-0.7-3.8-0.7c-1.4,0-2.7,0.2-3.8,0.7c-1.1,0.4-1.9,1.1-2.5,1.9
		c-0.6,0.8-0.9,1.8-0.9,3c0,1.1,0.3,2.1,0.9,2.9c0.6,0.8,1.4,1.5,2.5,1.9C2418.2,1334.3,2419.5,1334.6,2421,1334.6z M2421,1309.2
		c-1.8,0-3.2,0.4-4.3,1.3c-1.1,0.9-1.6,2.1-1.6,3.6s0.5,2.7,1.6,3.6c1.1,0.9,2.5,1.3,4.3,1.3c1.8,0,3.2-0.4,4.2-1.3
		c1.1-0.9,1.6-2.1,1.6-3.6s-0.5-2.7-1.6-3.6C2424.2,1309.7,2422.8,1309.2,2421,1309.2z"/>
	<path class="st4" d="M2457,1304.6c2.9,0,5.3,0.7,7.3,2.1c2,1.4,3.5,3.4,4.5,6c1,2.6,1.5,5.6,1.5,9.1c0,3.9-0.5,7.1-1.6,9.6
		c-1.1,2.6-2.6,4.5-4.5,5.8c-2,1.3-4.3,1.9-7.1,1.9c-2.8,0-5.3-0.6-7.3-1.9c-2-1.3-3.6-3.1-4.6-5.6l5.1-2.4c0.5,1.6,1.3,2.9,2.4,3.8
		c1.1,0.9,2.6,1.4,4.5,1.4c1.6,0,2.9-0.3,3.9-0.9c1-0.6,1.9-1.5,2.5-2.6c0.6-1.2,1.1-2.5,1.3-4.2c0.3-1.6,0.4-3.5,0.4-5.5
		c0-0.1,0-0.2,0-0.3c0-0.1,0-0.2,0-0.3h-0.2c-0.4,1.4-1,2.5-2,3.3c-1,0.8-2.1,1.5-3.3,1.9c-1.2,0.4-2.4,0.6-3.7,0.6
		c-2.2,0-4.1-0.4-5.8-1.3c-1.7-0.9-3-2.1-3.9-3.6c-0.9-1.6-1.4-3.4-1.4-5.5c0-2.3,0.5-4.4,1.4-6c1-1.7,2.3-3,4.1-3.9
		C2452.4,1305.1,2454.5,1304.6,2457,1304.6z M2457.1,1309.4c-2.1,0-3.8,0.6-4.9,1.7c-1.1,1.2-1.7,2.8-1.7,4.8c0,1.8,0.6,3.3,1.8,4.3
		c1.2,1,2.8,1.5,4.8,1.5c1.3,0,2.4-0.3,3.4-0.8c1-0.5,1.8-1.2,2.3-2.2c0.6-0.9,0.8-2,0.8-3.2c0-1.3-0.3-2.4-0.8-3.3
		c-0.6-0.9-1.3-1.7-2.3-2.2C2459.5,1309.6,2458.4,1309.4,2457.1,1309.4z"/>
	<path class="st4" d="M2482.2,1338.6v-4c3.2-2.3,5.9-4.3,8.1-6.1s3.9-3.4,5.3-4.9c1.3-1.5,2.3-2.9,2.9-4.2c0.6-1.3,0.9-2.7,0.9-4.1
		c0-1.8-0.6-3.3-1.7-4.4c-1.1-1.1-2.7-1.7-4.7-1.7c-2.1,0-3.8,0.7-5,2.1c-1.2,1.4-1.9,3.3-2.1,5.8l-4.7-2.2c0.2-2.1,0.9-4,1.9-5.5
		c1-1.6,2.4-2.8,4.1-3.6c1.7-0.8,3.8-1.3,6.1-1.3c1.9,0,3.6,0.3,5,0.8c1.4,0.5,2.6,1.3,3.6,2.3c1,1,1.7,2.1,2.3,3.4
		c0.5,1.3,0.8,2.7,0.8,4.1c0,2.1-0.5,4.2-1.6,6.2c-1.1,2-2.7,4-5,6.1c-2.3,2.1-5.2,4.3-8.9,6.7v0.1c0.4-0.1,1-0.1,1.7-0.1
		c0.7,0,1.4,0,2.1-0.1c0.7,0,1.3,0,1.7,0h10.6v4.7H2482.2z"/>
	<path class="st4" d="M2514.8,1305.1h25.5v4.5c-2.8,2.9-5.1,5.9-6.8,9c-1.7,3.1-3,6.2-3.7,9.5c-0.8,3.3-1.1,6.8-1.1,10.5h-5.5
		c0-3.7,0.5-7.4,1.4-10.9c0.9-3.5,2.4-6.9,4.3-10.2c1.9-3.2,4.3-6.3,7.2-9.1l1,1.4h-22.3V1305.1z"/>
</g>
<g>
	<path class="st4" d="M3196.7,1325.9v3.7h-28.7v-3.7H3196.7z M3198.9,1314v3.8h-28.8v-3.8H3198.9z M3182.2,1305.1l-5.5,33.5h-4.2
		l5.5-33.5H3182.2z M3194.2,1305.1l-5.5,33.5h-4.2l5.5-33.5H3194.2z"/>
	<path class="st4" d="M3221.1,1304.7c2.3,0,4.2,0.4,5.9,1.1c1.7,0.7,3,1.8,3.9,3.1c0.9,1.3,1.4,2.9,1.4,4.8c0,1.7-0.4,3.2-1.2,4.5
		c-0.8,1.3-2,2.3-3.6,3v0.1c1.9,0.7,3.5,1.8,4.6,3.2c1.1,1.4,1.7,3.1,1.7,5.2c0,2-0.5,3.7-1.5,5.1c-1,1.4-2.5,2.5-4.4,3.3
		c-1.9,0.8-4.1,1.2-6.7,1.2c-2.6,0-4.8-0.4-6.7-1.2c-1.9-0.8-3.3-1.9-4.4-3.3c-1.1-1.4-1.6-3.1-1.6-5.1c0-2,0.6-3.8,1.7-5.2
		c1.1-1.4,2.7-2.5,4.7-3.2v-0.1c-1.5-0.6-2.7-1.6-3.6-2.9c-0.9-1.3-1.3-2.8-1.3-4.6c0-1.9,0.5-3.5,1.4-4.8c0.9-1.3,2.2-2.3,3.9-3.1
		C3216.9,1305,3218.9,1304.7,3221.1,1304.7z M3221.1,1334.6c1.5,0,2.8-0.2,3.8-0.7c1-0.4,1.9-1.1,2.4-1.9c0.6-0.8,0.9-1.8,0.9-2.9
		c0-1.2-0.3-2.2-0.9-3c-0.6-0.8-1.4-1.5-2.5-1.9c-1-0.4-2.3-0.7-3.8-0.7c-1.4,0-2.7,0.2-3.8,0.7c-1.1,0.4-1.9,1.1-2.5,1.9
		c-0.6,0.8-0.9,1.8-0.9,3c0,1.1,0.3,2.1,0.9,2.9c0.6,0.8,1.4,1.5,2.5,1.9C3218.4,1334.3,3219.7,1334.6,3221.1,1334.6z
		 M3221.1,1309.2c-1.8,0-3.2,0.4-4.3,1.3c-1.1,0.9-1.6,2.1-1.6,3.6s0.5,2.7,1.6,3.6c1.1,0.9,2.5,1.3,4.3,1.3c1.8,0,3.2-0.4,4.2-1.3
		c1.1-0.9,1.6-2.1,1.6-3.6s-0.5-2.7-1.6-3.6C3224.3,1309.7,3222.9,1309.2,3221.1,1309.2z"/>
	<path class="st4" d="M3257.2,1304.6c2.9,0,5.3,0.7,7.3,2.1c2,1.4,3.5,3.4,4.5,6c1,2.6,1.5,5.6,1.5,9.1c0,3.9-0.5,7.1-1.6,9.6
		c-1.1,2.6-2.6,4.5-4.5,5.8c-2,1.3-4.3,1.9-7.1,1.9c-2.8,0-5.3-0.6-7.3-1.9c-2-1.3-3.6-3.1-4.6-5.6l5.1-2.4c0.5,1.6,1.3,2.9,2.4,3.8
		c1.1,0.9,2.6,1.4,4.5,1.4c1.6,0,2.9-0.3,3.9-0.9c1-0.6,1.9-1.5,2.5-2.6c0.6-1.2,1.1-2.5,1.3-4.2c0.3-1.6,0.4-3.5,0.4-5.5
		c0-0.1,0-0.2,0-0.3c0-0.1,0-0.2,0-0.3h-0.2c-0.4,1.4-1,2.5-2,3.3c-1,0.8-2.1,1.5-3.3,1.9c-1.2,0.4-2.4,0.6-3.7,0.6
		c-2.2,0-4.1-0.4-5.8-1.3c-1.7-0.9-3-2.1-3.9-3.6c-0.9-1.6-1.4-3.4-1.4-5.5c0-2.3,0.5-4.4,1.4-6c1-1.7,2.3-3,4.1-3.9
		C3252.6,1305.1,3254.7,1304.6,3257.2,1304.6z M3257.2,1309.4c-2.1,0-3.8,0.6-4.9,1.7c-1.1,1.2-1.7,2.8-1.7,4.8
		c0,1.8,0.6,3.3,1.8,4.3c1.2,1,2.8,1.5,4.8,1.5c1.3,0,2.4-0.3,3.4-0.8c1-0.5,1.8-1.2,2.3-2.2c0.6-0.9,0.8-2,0.8-3.2
		c0-1.3-0.3-2.4-0.8-3.3c-0.6-0.9-1.3-1.7-2.3-2.2C3259.7,1309.6,3258.5,1309.4,3257.2,1309.4z"/>
	<path class="st4" d="M3297.7,1322.3c0-1.7-0.5-3-1.4-3.9c-0.9-0.9-2.2-1.4-3.8-1.4c-1.5,0-2.8,0.4-3.9,1.1
		c-1.1,0.7-1.9,1.9-2.4,3.5l-4.6-1.9c0.6-2.1,1.9-3.7,3.8-5c1.9-1.3,4.3-1.9,7.3-1.9c2,0,3.8,0.3,5.4,1c1.6,0.7,2.8,1.7,3.7,3
		c0.9,1.3,1.3,3,1.3,5.1v11.3c0,1.3,0.6,1.9,1.9,1.9c0.6,0,1.2-0.1,1.8-0.3l-0.3,3.8c-0.8,0.4-1.8,0.6-2.9,0.6
		c-1.1,0-2.1-0.2-2.9-0.6c-0.9-0.4-1.5-1-2-1.8c-0.5-0.8-0.7-1.8-0.7-3v-0.4l1.1-0.1c-0.3,1.3-0.9,2.4-1.9,3.3
		c-0.9,0.9-2,1.5-3.3,1.9c-1.3,0.4-2.5,0.6-3.8,0.6c-1.6,0-3-0.3-4.3-0.8c-1.3-0.5-2.3-1.3-3-2.3c-0.7-1-1.1-2.3-1.1-3.8
		c0-1.9,0.6-3.5,1.9-4.7c1.2-1.2,3-2,5.3-2.5l9.9-1.9l-0.1,3.8l-7.2,1.5c-1.4,0.3-2.5,0.7-3.2,1.2c-0.7,0.5-1.1,1.3-1.1,2.2
		c0,0.9,0.4,1.7,1.1,2.3c0.7,0.6,1.7,0.8,2.9,0.8c0.8,0,1.7-0.1,2.5-0.3c0.8-0.2,1.5-0.5,2.2-1c0.6-0.5,1.1-1,1.5-1.8
		c0.4-0.7,0.5-1.6,0.5-2.6V1322.3z"/>
	<path class="st4" d="M3329.8,1304.6c1.8,0,3.4,0.2,4.8,0.7c1.4,0.5,2.6,1.3,3.6,2.3c1,1.1,1.9,2.4,2.6,4.1l-4.8,2.3
		c-0.5-1.5-1.2-2.6-2.3-3.5c-1-0.8-2.5-1.3-4.3-1.3c-1.3,0-2.5,0.3-3.5,1c-1,0.6-1.9,1.5-2.6,2.7c-0.7,1.2-1.3,2.5-1.6,4.1
		c-0.4,1.6-0.6,3.3-0.6,5.1c0,0.1,0,0.2,0,0.3c0,0.1,0,0.3,0,0.6l0.2,0.1c0.4-1.4,1-2.4,2-3.3c1-0.8,2.1-1.4,3.3-1.9
		c1.2-0.4,2.4-0.6,3.6-0.6c2.2,0,4.2,0.4,5.8,1.3c1.7,0.9,3,2.1,3.9,3.7c0.9,1.6,1.4,3.5,1.4,5.7c0,2.2-0.5,4.2-1.5,5.8
		c-1,1.6-2.3,2.9-4.1,3.8c-1.7,0.9-3.8,1.3-6.3,1.3c-2.8,0-5.3-0.7-7.3-2.1c-2-1.4-3.5-3.4-4.6-6c-1-2.6-1.6-5.6-1.6-9
		c0-3.8,0.6-7,1.8-9.6c1.2-2.6,2.8-4.5,4.9-5.8C3324.9,1305.3,3327.2,1304.6,3329.8,1304.6z M3329.5,1322c-1.3,0-2.4,0.3-3.4,0.8
		c-1,0.5-1.8,1.2-2.3,2.2s-0.8,2-0.8,3.2c0,1.2,0.3,2.3,0.9,3.2c0.6,0.9,1.4,1.7,2.4,2.3c1,0.6,2.1,0.8,3.3,0.8
		c2.1,0,3.7-0.6,4.8-1.7c1.2-1.1,1.7-2.7,1.7-4.6c0-1.3-0.3-2.3-0.8-3.3c-0.5-0.9-1.2-1.6-2.2-2.1
		C3332.1,1322.3,3330.9,1322,3329.5,1322z"/>
	<path class="st4" d="M3353,1338.6v-4c3.2-2.3,5.9-4.3,8.1-6.1s3.9-3.4,5.3-4.9c1.3-1.5,2.3-2.9,2.9-4.2c0.6-1.3,0.9-2.7,0.9-4.1
		c0-1.8-0.6-3.3-1.7-4.4c-1.1-1.1-2.7-1.7-4.7-1.7c-2.1,0-3.8,0.7-5,2.1c-1.2,1.4-1.9,3.3-2.1,5.8l-4.7-2.2c0.2-2.1,0.9-4,1.9-5.5
		c1-1.6,2.4-2.8,4.1-3.6c1.7-0.8,3.8-1.3,6.1-1.3c1.9,0,3.6,0.3,5,0.8c1.4,0.5,2.6,1.3,3.6,2.3c1,1,1.7,2.1,2.3,3.4
		c0.5,1.3,0.8,2.7,0.8,4.1c0,2.1-0.5,4.2-1.6,6.2c-1.1,2-2.7,4-5,6.1c-2.3,2.1-5.2,4.3-8.9,6.7v0.1c0.4-0.1,1-0.1,1.7-0.1
		c0.7,0,1.4,0,2.1-0.1c0.7,0,1.3,0,1.7,0h10.6v4.7H3353z"/>
	<path class="st4" d="M3401.3,1304.6c1.8,0,3.4,0.2,4.8,0.7c1.4,0.5,2.6,1.3,3.6,2.3c1,1.1,1.9,2.4,2.6,4.1l-4.8,2.3
		c-0.5-1.5-1.2-2.6-2.3-3.5c-1-0.8-2.5-1.3-4.3-1.3c-1.3,0-2.5,0.3-3.5,1c-1,0.6-1.9,1.5-2.6,2.7c-0.7,1.2-1.3,2.5-1.6,4.1
		c-0.4,1.6-0.6,3.3-0.6,5.1c0,0.1,0,0.2,0,0.3c0,0.1,0,0.3,0,0.6l0.2,0.1c0.4-1.4,1-2.4,2-3.3c1-0.8,2.1-1.4,3.3-1.9
		c1.2-0.4,2.4-0.6,3.6-0.6c2.2,0,4.2,0.4,5.8,1.3c1.7,0.9,3,2.1,3.9,3.7c0.9,1.6,1.4,3.5,1.4,5.7c0,2.2-0.5,4.2-1.5,5.8
		c-1,1.6-2.3,2.9-4.1,3.8c-1.7,0.9-3.8,1.3-6.3,1.3c-2.8,0-5.3-0.7-7.3-2.1c-2-1.4-3.5-3.4-4.6-6c-1-2.6-1.6-5.6-1.6-9
		c0-3.8,0.6-7,1.8-9.6c1.2-2.6,2.8-4.5,4.9-5.8C3396.4,1305.3,3398.8,1304.6,3401.3,1304.6z M3401,1322c-1.3,0-2.4,0.3-3.4,0.8
		c-1,0.5-1.8,1.2-2.3,2.2s-0.8,2-0.8,3.2c0,1.2,0.3,2.3,0.9,3.2c0.6,0.9,1.4,1.7,2.4,2.3c1,0.6,2.1,0.8,3.3,0.8
		c2.1,0,3.7-0.6,4.8-1.7c1.2-1.1,1.7-2.7,1.7-4.6c0-1.3-0.3-2.3-0.8-3.3c-0.5-0.9-1.2-1.6-2.2-2.1
		C3403.6,1322.3,3402.4,1322,3401,1322z"/>
</g>
<g>
	<path class="st4" d="M3974.7,1325.9v3.7h-28.7v-3.7H3974.7z M3976.9,1314v3.8h-28.8v-3.8H3976.9z M3960.2,1305.1l-5.5,33.5h-4.2
		l5.5-33.5H3960.2z M3972.2,1305.1l-5.5,33.5h-4.2l5.5-33.5H3972.2z"/>
	<path class="st4" d="M3998,1339.1c-3,0-5.4-0.6-7.3-1.9c-1.9-1.3-3.4-3.1-4.5-5.6l5.1-2.6c0.5,1.6,1.3,3,2.3,4c1,1,2.6,1.5,4.6,1.5
		c1.4,0,2.6-0.3,3.6-0.8c1-0.5,1.8-1.3,2.3-2.2c0.5-1,0.8-2.1,0.8-3.5c0-1.4-0.3-2.6-0.8-3.6c-0.5-0.9-1.2-1.7-2.2-2.2
		c-0.9-0.5-2.1-0.7-3.6-0.7c-1,0-1.9,0.1-2.7,0.3c-0.8,0.2-1.6,0.5-2.3,0.9c-0.7,0.4-1.3,1-1.8,1.7l-4.5-0.9l2-18.5h19.5v4.7h-15.2
		l-1.2,9.4l-0.1,0.6h0.1c0.8-0.8,1.8-1.5,3-2c1.2-0.5,2.7-0.7,4.4-0.7c2.2,0,4,0.4,5.6,1.3c1.6,0.9,2.8,2.1,3.7,3.7
		c0.9,1.6,1.3,3.4,1.3,5.5c0,1.8-0.3,3.5-0.9,4.9c-0.6,1.4-1.5,2.6-2.6,3.6c-1.1,1-2.4,1.7-3.9,2.2
		C4001.3,1338.9,3999.7,1339.1,3998,1339.1z"/>
	<path class="st4" d="M4036.1,1339.1c-1.5,0-2.9-0.3-4.1-0.9c-1.2-0.6-2.3-1.4-3.1-2.4c-0.8-1-1.5-2.2-1.9-3.5l0.7-0.9l-0.4,7.1
		h-4.8v-36.8h5.4v17.8l-0.6-0.9c0.6-1.8,1.7-3.2,3.3-4.3c1.6-1.1,3.4-1.7,5.6-1.7c2,0,3.9,0.5,5.6,1.6c1.7,1.1,3.1,2.6,4,4.5
		c1,2,1.5,4.4,1.5,7.2c0,2.7-0.5,5.1-1.5,7.1c-1,2-2.4,3.5-4.1,4.5C4040.1,1338.6,4038.2,1339.1,4036.1,1339.1z M4034.9,1334.8
		c2.2,0,3.9-0.8,5.2-2.4c1.2-1.6,1.9-3.7,1.9-6.5c0-2.7-0.6-4.9-1.8-6.5c-1.2-1.6-2.9-2.3-5.1-2.3c-1.4,0-2.7,0.4-3.7,1.1
		c-1,0.7-1.9,1.8-2.5,3.1c-0.6,1.3-0.9,2.9-0.9,4.7c0,1.8,0.3,3.3,0.9,4.6c0.6,1.3,1.4,2.3,2.5,3
		C4032.3,1334.4,4033.5,1334.8,4034.9,1334.8z"/>
	<path class="st4" d="M4071.2,1304.7c2.3,0,4.2,0.4,5.9,1.1c1.7,0.7,3,1.8,3.9,3.1c0.9,1.3,1.4,2.9,1.4,4.8c0,1.7-0.4,3.2-1.2,4.5
		c-0.8,1.3-2,2.3-3.6,3v0.1c1.9,0.7,3.5,1.8,4.6,3.2c1.1,1.4,1.7,3.1,1.7,5.2c0,2-0.5,3.7-1.5,5.1c-1,1.4-2.5,2.5-4.4,3.3
		c-1.9,0.8-4.1,1.2-6.7,1.2c-2.6,0-4.8-0.4-6.7-1.2c-1.9-0.8-3.3-1.9-4.4-3.3c-1-1.4-1.6-3.1-1.6-5.1c0-2,0.6-3.8,1.7-5.2
		c1.1-1.4,2.7-2.5,4.7-3.2v-0.1c-1.5-0.6-2.7-1.6-3.6-2.9c-0.9-1.3-1.3-2.8-1.3-4.6c0-1.9,0.5-3.5,1.4-4.8c0.9-1.3,2.2-2.3,3.9-3.1
		C4066.9,1305,4068.9,1304.7,4071.2,1304.7z M4071.2,1334.6c1.5,0,2.8-0.2,3.8-0.7c1-0.4,1.9-1.1,2.4-1.9c0.6-0.8,0.9-1.8,0.9-2.9
		c0-1.2-0.3-2.2-0.9-3c-0.6-0.8-1.4-1.5-2.5-1.9c-1.1-0.4-2.3-0.7-3.8-0.7c-1.4,0-2.7,0.2-3.8,0.7c-1.1,0.4-1.9,1.1-2.5,1.9
		c-0.6,0.8-0.9,1.8-0.9,3c0,1.1,0.3,2.1,0.9,2.9c0.6,0.8,1.4,1.5,2.5,1.9C4068.5,1334.3,4069.7,1334.6,4071.2,1334.6z
		 M4071.2,1309.2c-1.8,0-3.2,0.4-4.3,1.3c-1.1,0.9-1.6,2.1-1.6,3.6s0.5,2.7,1.6,3.6c1.1,0.9,2.5,1.3,4.3,1.3c1.8,0,3.2-0.4,4.2-1.3
		c1.1-0.9,1.6-2.1,1.6-3.6s-0.5-2.7-1.6-3.6C4074.4,1309.7,4073,1309.2,4071.2,1309.2z"/>
	<path class="st4" d="M4110.1,1339.1c-1.5,0-2.9-0.3-4.1-0.9c-1.2-0.6-2.3-1.4-3.1-2.4c-0.8-1-1.5-2.2-1.9-3.5l0.7-0.9l-0.4,7.1
		h-4.8v-36.8h5.4v17.8l-0.6-0.9c0.6-1.8,1.7-3.2,3.3-4.3c1.6-1.1,3.4-1.7,5.6-1.7c2,0,3.9,0.5,5.6,1.6c1.7,1.1,3.1,2.6,4,4.5
		c1,2,1.5,4.4,1.5,7.2c0,2.7-0.5,5.1-1.5,7.1c-1,2-2.4,3.5-4.1,4.5C4114.1,1338.6,4112.1,1339.1,4110.1,1339.1z M4108.9,1334.8
		c2.2,0,3.9-0.8,5.2-2.4c1.2-1.6,1.9-3.7,1.9-6.5c0-2.7-0.6-4.9-1.8-6.5c-1.2-1.6-2.9-2.3-5.1-2.3c-1.4,0-2.7,0.4-3.7,1.1
		c-1.1,0.7-1.9,1.8-2.5,3.1c-0.6,1.3-0.9,2.9-0.9,4.7c0,1.8,0.3,3.3,0.9,4.6c0.6,1.3,1.4,2.3,2.5,3
		C4106.3,1334.4,4107.5,1334.8,4108.9,1334.8z"/>
	<path class="st4" d="M4148,1338.6v-8.4h-16.4v-3.7c0.1-0.2,0.2-0.4,0.3-0.6c0.2-0.2,0.3-0.5,0.5-0.8l14-20h6.7v20.9h5.7v4.2h-5.7
		v8.4H4148z M4136.7,1326h11.3v-11.8c0-0.8,0-1.7,0.1-2.5s0.1-1.7,0.1-2.6h-0.1c-0.4,0.8-0.9,1.7-1.4,2.7c-0.6,1-1.1,1.8-1.7,2.5
		l-7.9,11.3c-0.1,0.1-0.1,0.1-0.2,0.2C4136.8,1325.9,4136.8,1325.9,4136.7,1326z"/>
	<path class="st4" d="M4180.9,1339.1c-3,0-5.4-0.6-7.3-1.9c-1.9-1.3-3.4-3.1-4.5-5.6l5.1-2.6c0.5,1.6,1.3,3,2.3,4
		c1,1,2.6,1.5,4.6,1.5c1.4,0,2.6-0.3,3.6-0.8c1-0.5,1.8-1.3,2.3-2.2c0.5-1,0.8-2.1,0.8-3.5c0-1.4-0.3-2.6-0.8-3.6
		c-0.5-0.9-1.2-1.7-2.2-2.2c-0.9-0.5-2.1-0.7-3.6-0.7c-1,0-1.9,0.1-2.7,0.3c-0.8,0.2-1.6,0.5-2.3,0.9c-0.7,0.4-1.3,1-1.8,1.7
		l-4.5-0.9l2-18.5h19.5v4.7h-15.2l-1.2,9.4l-0.1,0.6h0.1c0.8-0.8,1.8-1.5,3-2c1.2-0.5,2.7-0.7,4.4-0.7c2.2,0,4,0.4,5.6,1.3
		c1.6,0.9,2.8,2.1,3.7,3.7c0.9,1.6,1.3,3.4,1.3,5.5c0,1.8-0.3,3.5-0.9,4.9c-0.6,1.4-1.5,2.6-2.6,3.6c-1.1,1-2.4,1.7-3.9,2.2
		C4184.2,1338.9,4182.6,1339.1,4180.9,1339.1z"/>
</g>
<g>
	<path class="st4" d="M4780.7,1325.9v3.7h-28.7v-3.7H4780.7z M4782.9,1314v3.8h-28.8v-3.8H4782.9z M4766.2,1305.1l-5.5,33.5h-4.2
		l5.5-33.5H4766.2z M4778.2,1305.1l-5.5,33.5h-4.2l5.5-33.5H4778.2z"/>
	<path class="st4" d="M4804.3,1339.1c-3.1,0-5.9-0.7-8.2-2.1c-2.3-1.4-3.9-3.4-4.7-5.9l5.3-2.5c0.3,1.2,0.8,2.3,1.4,3.1
		c0.6,0.9,1.5,1.5,2.5,2c1,0.5,2.4,0.7,3.9,0.7c1.3,0,2.4-0.2,3.4-0.7c0.9-0.5,1.6-1.1,2.1-2c0.5-0.8,0.7-1.8,0.7-2.9
		c0-1.1-0.2-2-0.6-2.8c-0.4-0.7-1.1-1.3-2-1.6c-0.9-0.3-2-0.5-3.4-0.5c-0.4,0-0.8,0-1.2,0c-0.4,0-0.9,0.1-1.3,0.1v-4.6
		c0.3,0,0.6,0.1,0.9,0.1c0.3,0,0.6,0,0.8,0c2.2,0,3.8-0.4,4.7-1.3c0.9-0.9,1.4-2.3,1.4-4.1c0-1.6-0.5-2.8-1.4-3.7
		c-1-0.8-2.3-1.3-4.1-1.3c-1.9,0-3.3,0.4-4.3,1.3c-1,0.9-1.8,2.1-2.4,3.7l-5-2.1c0.5-1.6,1.3-2.9,2.4-4.1c1.1-1.2,2.5-2,4.1-2.7
		c1.6-0.6,3.4-0.9,5.4-0.9c2.4,0,4.4,0.4,6,1.2c1.6,0.8,2.8,1.8,3.6,3.2c0.8,1.4,1.2,2.9,1.2,4.5c0,1.3-0.2,2.4-0.6,3.4
		c-0.4,1-0.9,1.8-1.5,2.5c-0.6,0.7-1.3,1.2-2,1.6c-0.7,0.4-1.5,0.6-2.2,0.8v0.1c1,0,1.9,0.2,2.7,0.6c0.8,0.4,1.6,0.8,2.2,1.5
		c0.7,0.6,1.2,1.4,1.5,2.3c0.4,0.9,0.6,1.8,0.6,2.9c0,2-0.5,3.8-1.5,5.3c-1,1.5-2.4,2.7-4.2,3.6
		C4808.7,1338.7,4806.6,1339.1,4804.3,1339.1z"/>
	<path class="st4" d="M4842.3,1339.1c-1.5,0-2.9-0.3-4.1-0.9c-1.2-0.6-2.3-1.4-3.1-2.4c-0.8-1-1.5-2.2-1.9-3.5l0.7-0.9l-0.4,7.1
		h-4.8v-36.8h5.4v17.8l-0.6-0.9c0.6-1.8,1.7-3.2,3.3-4.3c1.6-1.1,3.4-1.7,5.6-1.7c2,0,3.9,0.5,5.6,1.6c1.7,1.1,3.1,2.6,4,4.5
		c1,2,1.5,4.4,1.5,7.2c0,2.7-0.5,5.1-1.5,7.1c-1,2-2.4,3.5-4.1,4.5C4846.3,1338.6,4844.4,1339.1,4842.3,1339.1z M4841.1,1334.8
		c2.2,0,3.9-0.8,5.2-2.4c1.2-1.6,1.9-3.7,1.9-6.5c0-2.7-0.6-4.9-1.8-6.5c-1.2-1.6-2.9-2.3-5.1-2.3c-1.4,0-2.7,0.4-3.7,1.1
		c-1.1,0.7-1.9,1.8-2.5,3.1c-0.6,1.3-0.9,2.9-0.9,4.7c0,1.8,0.3,3.3,0.9,4.6c0.6,1.3,1.4,2.3,2.5,3
		C4838.5,1334.4,4839.7,1334.8,4841.1,1334.8z"/>
	<path class="st4" d="M4876.2,1339.1c-3,0-5.4-0.6-7.3-1.9c-1.9-1.3-3.4-3.1-4.5-5.6l5.1-2.6c0.5,1.6,1.3,3,2.3,4
		c1,1,2.6,1.5,4.6,1.5c1.4,0,2.6-0.3,3.6-0.8c1-0.5,1.8-1.3,2.3-2.2c0.5-1,0.8-2.1,0.8-3.5c0-1.4-0.3-2.6-0.8-3.6
		c-0.5-0.9-1.2-1.7-2.2-2.2c-0.9-0.5-2.1-0.7-3.6-0.7c-1,0-1.9,0.1-2.7,0.3c-0.8,0.2-1.6,0.5-2.3,0.9c-0.7,0.4-1.3,1-1.8,1.7
		l-4.5-0.9l2-18.5h19.5v4.7h-15.2l-1.2,9.4l-0.1,0.6h0.1c0.8-0.8,1.8-1.5,3-2c1.2-0.5,2.7-0.7,4.4-0.7c2.2,0,4,0.4,5.6,1.3
		c1.6,0.9,2.8,2.1,3.7,3.7c0.9,1.6,1.3,3.4,1.3,5.5c0,1.8-0.3,3.5-0.9,4.9c-0.6,1.4-1.5,2.6-2.6,3.6c-1.1,1-2.4,1.7-3.9,2.2
		C4879.6,1338.9,4878,1339.1,4876.2,1339.1z"/>
	<path class="st4" d="M4913.3,1304.6c1.8,0,3.4,0.2,4.8,0.7c1.4,0.5,2.6,1.3,3.6,2.3c1,1.1,1.9,2.4,2.6,4.1l-4.8,2.3
		c-0.5-1.5-1.2-2.6-2.3-3.5c-1-0.8-2.5-1.3-4.3-1.3c-1.3,0-2.5,0.3-3.5,1c-1,0.6-1.9,1.5-2.6,2.7c-0.7,1.2-1.3,2.5-1.6,4.1
		c-0.4,1.6-0.6,3.3-0.6,5.1c0,0.1,0,0.2,0,0.3c0,0.1,0,0.3,0,0.6l0.2,0.1c0.4-1.4,1-2.4,2-3.3c1-0.8,2.1-1.4,3.3-1.9
		c1.2-0.4,2.4-0.6,3.6-0.6c2.2,0,4.2,0.4,5.8,1.3c1.7,0.9,3,2.1,3.9,3.7c0.9,1.6,1.4,3.5,1.4,5.7c0,2.2-0.5,4.2-1.5,5.8
		c-1,1.6-2.3,2.9-4.1,3.8c-1.7,0.9-3.8,1.3-6.3,1.3c-2.8,0-5.3-0.7-7.3-2.1c-2-1.4-3.5-3.4-4.6-6c-1.1-2.6-1.6-5.6-1.6-9
		c0-3.8,0.6-7,1.8-9.6c1.2-2.6,2.8-4.5,4.9-5.8C4908.4,1305.3,4910.7,1304.6,4913.3,1304.6z M4912.9,1322c-1.3,0-2.4,0.3-3.4,0.8
		c-1,0.5-1.8,1.2-2.3,2.2s-0.8,2-0.8,3.2c0,1.2,0.3,2.3,0.9,3.2c0.6,0.9,1.4,1.7,2.4,2.3c1,0.6,2.1,0.8,3.3,0.8
		c2.1,0,3.7-0.6,4.8-1.7c1.2-1.1,1.7-2.7,1.7-4.6c0-1.3-0.3-2.3-0.8-3.3c-0.5-0.9-1.2-1.6-2.2-2.1
		C4915.5,1322.3,4914.3,1322,4912.9,1322z"/>
	<path class="st4" d="M4936.5,1338.6v-4c3.2-2.3,5.9-4.3,8.1-6.1s3.9-3.4,5.3-4.9c1.3-1.5,2.3-2.9,2.9-4.2c0.6-1.3,0.9-2.7,0.9-4.1
		c0-1.8-0.6-3.3-1.7-4.4c-1.1-1.1-2.7-1.7-4.7-1.7c-2.1,0-3.8,0.7-5,2.1c-1.2,1.4-1.9,3.3-2.1,5.8l-4.7-2.2c0.2-2.1,0.9-4,1.9-5.5
		c1-1.6,2.4-2.8,4.1-3.6c1.7-0.8,3.8-1.3,6.1-1.3c1.9,0,3.6,0.3,5,0.8c1.4,0.5,2.6,1.3,3.6,2.3c1,1,1.7,2.1,2.3,3.4
		c0.5,1.3,0.8,2.7,0.8,4.1c0,2.1-0.5,4.2-1.6,6.2c-1,2-2.7,4-5,6.1c-2.3,2.1-5.2,4.3-8.9,6.7v0.1c0.4-0.1,1-0.1,1.7-0.1
		c0.7,0,1.4,0,2.1-0.1c0.7,0,1.3,0,1.7,0h10.6v4.7H4936.5z"/>
	<path class="st4" d="M4983.2,1312.7c2,0,3.8,0.3,5.2,0.9c1.4,0.6,2.6,1.4,3.6,2.5c1,1.1,1.7,2.3,2.2,3.7l-5.1,2
		c-0.4-1.6-1.1-2.8-2.1-3.6c-1-0.8-2.2-1.2-3.8-1.2c-1.5,0-2.8,0.3-3.9,1c-1.1,0.7-1.9,1.7-2.5,3c-0.6,1.3-0.8,2.9-0.8,4.9
		c0,1.9,0.3,3.5,0.9,4.8c0.6,1.3,1.4,2.3,2.5,3c1.1,0.7,2.4,1,3.9,1c1.2,0,2.1-0.2,3-0.6c0.8-0.4,1.5-0.9,2.1-1.7
		c0.6-0.7,0.9-1.6,1.1-2.7l4.9,1.7c-0.5,1.5-1.2,2.9-2.2,4c-1,1.1-2.2,2-3.7,2.6c-1.5,0.6-3.2,0.9-5.1,0.9c-2.5,0-4.7-0.5-6.7-1.6
		c-1.9-1-3.4-2.6-4.5-4.5c-1.1-2-1.6-4.3-1.6-7.1c0-2.7,0.5-5.1,1.6-7.1c1.1-2,2.6-3.5,4.5-4.5
		C4978.6,1313.3,4980.8,1312.7,4983.2,1312.7z"/>
</g>
<g>
	<path class="st4" d="M5613.7,1325.9v3.7h-28.7v-3.7H5613.7z M5615.9,1314v3.8h-28.8v-3.8H5615.9z M5599.2,1305.1l-5.5,33.5h-4.2
		l5.5-33.5H5599.2z M5611.2,1305.1l-5.5,33.5h-4.2l5.5-33.5H5611.2z"/>
	<path class="st4" d="M5641.3,1322.3c0-1.7-0.5-3-1.4-3.9c-0.9-0.9-2.2-1.4-3.8-1.4c-1.5,0-2.8,0.4-3.9,1.1
		c-1.1,0.7-1.9,1.9-2.4,3.5l-4.6-1.9c0.6-2.1,1.9-3.7,3.8-5c1.9-1.3,4.3-1.9,7.3-1.9c2,0,3.8,0.3,5.4,1c1.6,0.7,2.8,1.7,3.7,3
		c0.9,1.3,1.3,3,1.3,5.1v11.3c0,1.3,0.6,1.9,1.9,1.9c0.6,0,1.2-0.1,1.8-0.3l-0.3,3.8c-0.8,0.4-1.8,0.6-2.9,0.6
		c-1.1,0-2.1-0.2-2.9-0.6c-0.9-0.4-1.5-1-2-1.8c-0.5-0.8-0.7-1.8-0.7-3v-0.4l1.1-0.1c-0.3,1.3-0.9,2.4-1.9,3.3
		c-0.9,0.9-2,1.5-3.3,1.9c-1.3,0.4-2.5,0.6-3.8,0.6c-1.6,0-3-0.3-4.3-0.8c-1.3-0.5-2.3-1.3-3-2.3c-0.7-1-1.1-2.3-1.1-3.8
		c0-1.9,0.6-3.5,1.9-4.7c1.2-1.2,3-2,5.3-2.5l9.9-1.9l-0.1,3.8l-7.2,1.5c-1.4,0.3-2.5,0.7-3.2,1.2c-0.7,0.5-1.1,1.3-1.1,2.2
		c0,0.9,0.4,1.7,1.1,2.3c0.7,0.6,1.7,0.8,2.9,0.8c0.8,0,1.7-0.1,2.5-0.3c0.8-0.2,1.5-0.5,2.2-1c0.6-0.5,1.1-1,1.5-1.8
		c0.4-0.7,0.5-1.6,0.5-2.6V1322.3z"/>
	<path class="st4" d="M5673.4,1304.6c1.8,0,3.4,0.2,4.8,0.7c1.4,0.5,2.6,1.3,3.6,2.3c1,1.1,1.9,2.4,2.6,4.1l-4.8,2.3
		c-0.5-1.5-1.2-2.6-2.3-3.5c-1-0.8-2.5-1.3-4.3-1.3c-1.3,0-2.5,0.3-3.5,1c-1,0.6-1.9,1.5-2.6,2.7c-0.7,1.2-1.3,2.5-1.6,4.1
		c-0.4,1.6-0.6,3.3-0.6,5.1c0,0.1,0,0.2,0,0.3c0,0.1,0,0.3,0,0.6l0.2,0.1c0.4-1.4,1-2.4,2-3.3c1-0.8,2.1-1.4,3.3-1.9
		s2.4-0.6,3.6-0.6c2.2,0,4.2,0.4,5.8,1.3c1.7,0.9,3,2.1,3.9,3.7c0.9,1.6,1.4,3.5,1.4,5.7c0,2.2-0.5,4.2-1.5,5.8
		c-1,1.6-2.3,2.9-4.1,3.8c-1.7,0.9-3.8,1.3-6.3,1.3c-2.8,0-5.3-0.7-7.3-2.1c-2-1.4-3.5-3.4-4.6-6c-1-2.6-1.6-5.6-1.6-9
		c0-3.8,0.6-7,1.8-9.6c1.2-2.6,2.8-4.5,4.9-5.8C5668.5,1305.3,5670.8,1304.6,5673.4,1304.6z M5673,1322c-1.3,0-2.4,0.3-3.4,0.8
		c-1,0.5-1.8,1.2-2.3,2.2c-0.6,0.9-0.8,2-0.8,3.2c0,1.2,0.3,2.3,0.9,3.2c0.6,0.9,1.4,1.7,2.4,2.3c1,0.6,2.1,0.8,3.3,0.8
		c2.1,0,3.7-0.6,4.8-1.7c1.2-1.1,1.7-2.7,1.7-4.6c0-1.3-0.3-2.3-0.8-3.3c-0.5-0.9-1.2-1.6-2.2-2.1
		C5675.6,1322.3,5674.4,1322,5673,1322z"/>
	<path class="st4" d="M5707,1339.1c-2.1,0-4-0.5-5.7-1.6c-1.7-1-3.1-2.6-4-4.5c-1-2-1.5-4.3-1.5-7.1c0-2.8,0.5-5.2,1.6-7.2
		c1-2,2.5-3.5,4.2-4.5c1.8-1,3.7-1.5,5.8-1.5c2.2,0,4,0.6,5.5,1.8c1.5,1.2,2.5,2.7,3,4.6l-0.6,0.6v-17.9h5.4v36.8h-4.8l-0.4-6.9
		l0.7,0.1c-0.2,1.5-0.8,2.8-1.7,3.9c-0.9,1.1-2,1.9-3.3,2.5C5709.9,1338.8,5708.5,1339.1,5707,1339.1z M5708.2,1334.8
		c1.5,0,2.7-0.4,3.8-1.1c1-0.7,1.9-1.8,2.4-3.1c0.6-1.4,0.9-3,0.9-4.9c0-1.8-0.3-3.3-0.9-4.5c-0.6-1.3-1.4-2.2-2.4-2.9
		c-1-0.7-2.2-1-3.6-1c-2.3,0-4,0.8-5.3,2.3c-1.3,1.6-1.9,3.7-1.9,6.5c0,2.7,0.6,4.9,1.8,6.5C5704.3,1334,5706,1334.8,5708.2,1334.8z
		"/>
	<path class="st4" d="M5745.1,1339.1c-3.1,0-5.9-0.7-8.2-2.1c-2.3-1.4-3.9-3.4-4.7-5.9l5.3-2.5c0.3,1.2,0.8,2.3,1.4,3.1
		c0.6,0.9,1.5,1.5,2.5,2c1,0.5,2.4,0.7,3.9,0.7c1.3,0,2.4-0.2,3.4-0.7c0.9-0.5,1.6-1.1,2.1-2c0.5-0.8,0.7-1.8,0.7-2.9
		c0-1.1-0.2-2-0.6-2.8c-0.4-0.7-1.1-1.3-2-1.6c-0.9-0.3-2-0.5-3.4-0.5c-0.4,0-0.8,0-1.2,0c-0.4,0-0.9,0.1-1.3,0.1v-4.6
		c0.3,0,0.6,0.1,0.9,0.1c0.3,0,0.6,0,0.8,0c2.2,0,3.8-0.4,4.7-1.3c0.9-0.9,1.4-2.3,1.4-4.1c0-1.6-0.5-2.8-1.4-3.7
		c-1-0.8-2.3-1.3-4.1-1.3c-1.9,0-3.3,0.4-4.3,1.3c-1,0.9-1.8,2.1-2.4,3.7l-5-2.1c0.5-1.6,1.3-2.9,2.4-4.1c1.1-1.2,2.5-2,4.1-2.7
		c1.6-0.6,3.4-0.9,5.4-0.9c2.4,0,4.4,0.4,6,1.2c1.6,0.8,2.8,1.8,3.6,3.2c0.8,1.4,1.2,2.9,1.2,4.5c0,1.3-0.2,2.4-0.6,3.4
		c-0.4,1-0.9,1.8-1.5,2.5c-0.6,0.7-1.3,1.2-2,1.6c-0.7,0.4-1.5,0.6-2.2,0.8v0.1c1,0,1.9,0.2,2.7,0.6c0.8,0.4,1.6,0.8,2.2,1.5
		c0.7,0.6,1.2,1.4,1.5,2.3c0.4,0.9,0.6,1.8,0.6,2.9c0,2-0.5,3.8-1.5,5.3s-2.4,2.7-4.2,3.6
		C5749.5,1338.7,5747.4,1339.1,5745.1,1339.1z"/>
	<path class="st4" d="M5779.3,1339.1c-2.1,0-4-0.5-5.7-1.6c-1.7-1-3.1-2.6-4-4.5c-1-2-1.5-4.3-1.5-7.1c0-2.8,0.5-5.2,1.6-7.2
		c1-2,2.5-3.5,4.2-4.5c1.8-1,3.7-1.5,5.8-1.5c2.2,0,4,0.6,5.5,1.8c1.5,1.2,2.5,2.7,3,4.6l-0.6,0.6v-17.9h5.4v36.8h-4.8l-0.4-6.9
		l0.7,0.1c-0.2,1.5-0.8,2.8-1.7,3.9c-0.9,1.1-2,1.9-3.3,2.5C5782.2,1338.8,5780.8,1339.1,5779.3,1339.1z M5780.4,1334.8
		c1.5,0,2.7-0.4,3.8-1.1c1-0.7,1.9-1.8,2.4-3.1c0.6-1.4,0.9-3,0.9-4.9c0-1.8-0.3-3.3-0.9-4.5c-0.6-1.3-1.4-2.2-2.4-2.9
		c-1-0.7-2.2-1-3.6-1c-2.3,0-4,0.8-5.3,2.3c-1.3,1.6-1.9,3.7-1.9,6.5c0,2.7,0.6,4.9,1.8,6.5
		C5776.5,1334,5778.2,1334.8,5780.4,1334.8z"/>
	<path class="st4" d="M5817.7,1312.7c2,0,3.8,0.3,5.2,0.9c1.4,0.6,2.6,1.4,3.6,2.5c1,1.1,1.7,2.3,2.2,3.7l-5.1,2
		c-0.4-1.6-1.1-2.8-2.1-3.6c-1-0.8-2.2-1.2-3.8-1.2c-1.5,0-2.8,0.3-3.9,1c-1.1,0.7-1.9,1.7-2.5,3c-0.6,1.3-0.8,2.9-0.8,4.9
		c0,1.9,0.3,3.5,0.9,4.8c0.6,1.3,1.4,2.3,2.5,3c1.1,0.7,2.4,1,3.9,1c1.2,0,2.1-0.2,3-0.6c0.8-0.4,1.5-0.9,2.1-1.7
		c0.6-0.7,0.9-1.6,1.1-2.7l4.9,1.7c-0.5,1.5-1.2,2.9-2.2,4c-1,1.1-2.2,2-3.7,2.6c-1.5,0.6-3.2,0.9-5.1,0.9c-2.5,0-4.7-0.5-6.7-1.6
		c-1.9-1-3.4-2.6-4.5-4.5c-1.1-2-1.6-4.3-1.6-7.1c0-2.7,0.5-5.1,1.6-7.1c1.1-2,2.6-3.5,4.5-4.5
		C5813.1,1313.3,5815.2,1312.7,5817.7,1312.7z"/>
</g>
<g>
	<path class="st4" d="M6399.7,1325.9v3.7h-28.7v-3.7H6399.7z M6401.9,1314v3.8h-28.8v-3.8H6401.9z M6385.2,1305.1l-5.5,33.5h-4.2
		l5.5-33.5H6385.2z M6397.2,1305.1l-5.5,33.5h-4.2l5.5-33.5H6397.2z"/>
	<path class="st4" d="M6428,1313.2v4.3h-18.3v-4.3H6428z M6423.4,1301.5c1,0,2,0.1,2.9,0.3c0.9,0.2,1.5,0.5,2,0.9l-1,3.9
		c-0.4-0.2-0.8-0.4-1.3-0.5c-0.5-0.1-1-0.2-1.6-0.2c-1.4,0-2.5,0.3-3.3,1c-0.8,0.6-1.2,1.7-1.2,3.1v3.7l0.2,1.4v23.6h-5.4v-29.1
		c0-1.3,0.2-2.4,0.6-3.5c0.4-1,1-1.9,1.8-2.6c0.8-0.7,1.7-1.2,2.8-1.6C6420.8,1301.6,6422,1301.5,6423.4,1301.5z M6448.1,1313.2v4.3
		h-18.3v-4.3H6448.1z M6443.5,1301.5c1,0,2,0.1,2.9,0.3c0.9,0.2,1.5,0.5,2,0.9l-1,3.9c-0.4-0.2-0.8-0.4-1.3-0.5
		c-0.5-0.1-1-0.2-1.6-0.2c-1.4,0-2.5,0.3-3.3,1c-0.8,0.6-1.2,1.7-1.2,3.1v3.7l0.2,1.4v23.6h-5.4v-29.1c0-1.3,0.2-2.4,0.6-3.5
		c0.4-1,1-1.9,1.8-2.6c0.8-0.7,1.7-1.2,2.8-1.6C6440.9,1301.6,6442.1,1301.5,6443.5,1301.5z"/>
	<path class="st4" d="M6473.5,1313.2v4.3h-18.3v-4.3H6473.5z M6468.9,1301.5c1,0,2,0.1,2.9,0.3c0.9,0.2,1.5,0.5,2,0.9l-1,3.9
		c-0.4-0.2-0.8-0.4-1.3-0.5c-0.5-0.1-1-0.2-1.6-0.2c-1.4,0-2.5,0.3-3.3,1c-0.8,0.6-1.2,1.7-1.2,3.1v3.7l0.2,1.4v23.6h-5.4v-29.1
		c0-1.3,0.2-2.4,0.6-3.5c0.4-1,1-1.9,1.8-2.6c0.8-0.7,1.7-1.2,2.8-1.6C6466.3,1301.6,6467.5,1301.5,6468.9,1301.5z M6493.7,1313.2
		v4.3h-18.3v-4.3H6493.7z M6489,1301.5c1,0,2,0.1,2.9,0.3c0.9,0.2,1.5,0.5,2,0.9l-1,3.9c-0.4-0.2-0.8-0.4-1.3-0.5
		c-0.5-0.1-1-0.2-1.6-0.2c-1.4,0-2.5,0.3-3.3,1c-0.8,0.6-1.2,1.7-1.2,3.1v3.7l0.2,1.4v23.6h-5.4v-29.1c0-1.3,0.2-2.4,0.6-3.5
		c0.4-1,1-1.9,1.8-2.6c0.8-0.7,1.7-1.2,2.8-1.6C6486.4,1301.6,6487.6,1301.5,6489,1301.5z"/>
	<path class="st4" d="M6519.1,1313.2v4.3h-18.3v-4.3H6519.1z M6514.4,1301.5c1,0,2,0.1,2.9,0.3s1.5,0.5,2,0.9l-1,3.9
		c-0.4-0.2-0.8-0.4-1.3-0.5c-0.5-0.1-1-0.2-1.6-0.2c-1.4,0-2.5,0.3-3.3,1c-0.8,0.6-1.2,1.7-1.2,3.1v3.7l0.2,1.4v23.6h-5.4v-29.1
		c0-1.3,0.2-2.4,0.6-3.5c0.4-1,1-1.9,1.8-2.6c0.8-0.7,1.7-1.2,2.8-1.6C6511.8,1301.6,6513,1301.5,6514.4,1301.5z M6539.2,1313.2v4.3
		h-18.3v-4.3H6539.2z M6534.5,1301.5c1,0,2,0.1,2.9,0.3c0.9,0.2,1.5,0.5,2,0.9l-1,3.9c-0.4-0.2-0.8-0.4-1.3-0.5
		c-0.5-0.1-1-0.2-1.6-0.2c-1.4,0-2.5,0.3-3.3,1c-0.8,0.6-1.2,1.7-1.2,3.1v3.7l0.2,1.4v23.6h-5.4v-29.1c0-1.3,0.2-2.4,0.6-3.5
		c0.4-1,1-1.9,1.8-2.6c0.8-0.7,1.7-1.2,2.8-1.6C6531.9,1301.6,6533.1,1301.5,6534.5,1301.5z"/>
</g>
</svg>
