<?xml version="1.0" encoding="utf-8"?>
<!-- Generator: Adobe Illustrator 26.3.1, SVG Export Plug-In . SVG Version: 6.00 Build 0)  -->
<svg version="1.1" id="Layer_1" xmlns="http://www.w3.org/2000/svg" xmlns:xlink="http://www.w3.org/1999/xlink" x="0px" y="0px"
	 viewBox="0 0 629.3 720.6" style="enable-background:new 0 0 629.3 720.6;" xml:space="preserve">
<style type="text/css">
	.st0{clip-path:url(#SVGID_00000051385806005011757430000008469321163040970424_);}
	.st1{fill:#B5D0D9;}
	.st2{fill:#C56505;}
	.st3{fill:#AC5317;}
	.st4{fill:#FFFFFF;}
	.st5{fill:#FBFBFB;}
	.st6{clip-path:url(#SVGID_00000119077995757004339530000012440829485095892905_);}
	.st7{fill:#D8B054;}
	.st8{fill:#984608;}
	.st9{fill:#833408;}
	.st10{fill:#F6F1EA;}
	.st11{clip-path:url(#SVGID_00000121958947780761206860000010910747480146144666_);}
	.st12{fill:#AED1DA;}
	.st13{clip-path:url(#SVGID_00000111913979879078518440000004525112448764321415_);}
	.st14{fill:#E0AF3E;}
	.st15{clip-path:url(#SVGID_00000050645964166346928810000003468898221218316733_);}
	.st16{fill:#B73700;}
	.st17{fill:#E2E2E2;}
	.st18{fill:#FFBA00;}
	.st19{fill:#002B00;}
	.st20{fill:#EF261A;}
	.st21{fill:#98D308;}
	.st22{fill:#002B44;}
	.st23{fill:none;stroke:#B73700;stroke-width:39;stroke-miterlimit:10;}
	.st24{fill:none;stroke:#D8B054;stroke-width:50;stroke-miterlimit:10;}
	.st25{fill:#E2D8C7;}
	.st26{clip-path:url(#SVGID_00000051351840269148278720000002674264327023185536_);fill:#F4A61E;}
	.st27{clip-path:url(#SVGID_00000071517989846036559450000018413537851546621062_);fill:#CC922B;}
	.st28{clip-path:url(#SVGID_00000157994776036141180610000015444461467700548284_);fill:#E28927;}
	.st29{clip-path:url(#SVGID_00000062914353765841234020000014233095188707298962_);fill:#89A626;}
	.st30{clip-path:url(#SVGID_00000179610767579739006140000002092888232872394919_);fill:#5B8B45;}
	.st31{clip-path:url(#SVGID_00000015336705838084824270000003601876248915893904_);fill:#3B562C;}
	.st32{clip-path:url(#SVGID_00000170244143330027429020000006451031025253210777_);fill:#A6D3DC;}
	.st33{clip-path:url(#SVGID_00000031198795821970194350000003848322843172310914_);fill:#F9F9F9;}
</style>
<g>
	<g>
		<defs>
			<path id="SVGID_00000062149869852425703400000009064924070534461103_" d="M68.2,183.3c-29.1,33.3-43,74-47.5,114.6
				c-5.2,46.5,3.9,98.1,46.3,130c35.2,26.5,86.4,34,134.5,34.7c48.2,0.7,96.8-4.4,144.4,1.9c46,6.1,92.6,22.6,137.4,12.3
				c57.9-13.4,86.7-65.6,98.4-113.2c6.7-26.9,10.3-55.1,2.1-81.7c-4.8-15.8-13.6-30.6-18.3-46.4c-13.7-45.9,8.4-93.8,5.8-141
				c-0.4-8.1-1.8-16.7-7.9-23.2C553.8,61,535.9,59,519.9,58.1C425.8,53,322.3,51.9,241.6,92C181.4,121.9,111.3,133.9,68.2,183.3z"/>
		</defs>
		<clipPath id="SVGID_00000073717645979146287560000008138301911355488188_">
			<use xlink:href="#SVGID_00000062149869852425703400000009064924070534461103_"  style="overflow:visible;"/>
		</clipPath>
		
			<rect style="clip-path:url(#SVGID_00000073717645979146287560000008138301911355488188_);fill:#F9F9F9;" width="629.3" height="584.3"/>
	</g>
	<g>
		<path class="st4" d="M237.3,663.6v3.7h-28.7v-3.7H237.3z M239.5,651.7v3.8h-28.8v-3.8H239.5z M222.7,642.8l-5.5,33.5H213l5.5-33.5
			H222.7z M234.8,642.8l-5.5,33.5h-4.2l5.5-33.5H234.8z"/>
		<path class="st4" d="M265.6,650.9v4.3h-18.3v-4.3H265.6z M260.9,639.1c1,0,2,0.1,2.9,0.3c0.9,0.2,1.5,0.5,2,0.9l-1,3.9
			c-0.4-0.2-0.8-0.4-1.3-0.5c-0.5-0.1-1-0.2-1.6-0.2c-1.4,0-2.5,0.3-3.3,1c-0.8,0.6-1.2,1.7-1.2,3.1v3.7l0.2,1.4v23.6h-5.4v-29.1
			c0-1.3,0.2-2.4,0.6-3.5c0.4-1,1-1.9,1.8-2.6c0.8-0.7,1.7-1.2,2.8-1.6C258.4,639.3,259.6,639.1,260.9,639.1z M285.7,650.9v4.3
			h-18.3v-4.3H285.7z M281.1,639.1c1,0,2,0.1,2.9,0.3c0.9,0.2,1.5,0.5,2,0.9l-1,3.9c-0.4-0.2-0.8-0.4-1.3-0.5
			c-0.5-0.1-1-0.2-1.6-0.2c-1.4,0-2.5,0.3-3.3,1c-0.8,0.6-1.2,1.7-1.2,3.1v3.7l0.2,1.4v23.6h-5.4v-29.1c0-1.3,0.2-2.4,0.6-3.5
			c0.4-1,1-1.9,1.8-2.6c0.8-0.7,1.7-1.2,2.8-1.6C278.5,639.3,279.7,639.1,281.1,639.1z"/>
		<path class="st4" d="M311.1,650.9v4.3h-18.3v-4.3H311.1z M306.4,639.1c1,0,2,0.1,2.9,0.3c0.9,0.2,1.5,0.5,2,0.9l-1,3.9
			c-0.4-0.2-0.8-0.4-1.3-0.5c-0.5-0.1-1-0.2-1.6-0.2c-1.4,0-2.5,0.3-3.3,1c-0.8,0.6-1.2,1.7-1.2,3.1v3.7l0.2,1.4v23.6h-5.4v-29.1
			c0-1.3,0.2-2.4,0.6-3.5c0.4-1,1-1.9,1.8-2.6c0.8-0.7,1.7-1.2,2.8-1.6C303.9,639.3,305.1,639.1,306.4,639.1z M331.2,650.9v4.3
			h-18.3v-4.3H331.2z M326.6,639.1c1,0,2,0.1,2.9,0.3c0.9,0.2,1.5,0.5,2,0.9l-1,3.9c-0.4-0.2-0.8-0.4-1.3-0.5
			c-0.5-0.1-1-0.2-1.6-0.2c-1.4,0-2.5,0.3-3.3,1c-0.8,0.6-1.2,1.7-1.2,3.1v3.7l0.2,1.4v23.6h-5.4v-29.1c0-1.3,0.2-2.4,0.6-3.5
			c0.4-1,1-1.9,1.8-2.6c0.8-0.7,1.7-1.2,2.8-1.6C324,639.3,325.2,639.1,326.6,639.1z"/>
		<path class="st4" d="M356.6,650.9v4.3h-18.3v-4.3H356.6z M352,639.1c1,0,2,0.1,2.9,0.3s1.5,0.5,2,0.9l-1,3.9
			c-0.4-0.2-0.8-0.4-1.3-0.5c-0.5-0.1-1-0.2-1.6-0.2c-1.4,0-2.5,0.3-3.3,1c-0.8,0.6-1.2,1.7-1.2,3.1v3.7l0.2,1.4v23.6h-5.4v-29.1
			c0-1.3,0.2-2.4,0.6-3.5c0.4-1,1-1.9,1.8-2.6c0.8-0.7,1.7-1.2,2.8-1.6C349.4,639.3,350.6,639.1,352,639.1z M376.7,650.9v4.3h-18.3
			v-4.3H376.7z M372.1,639.1c1,0,2,0.1,2.9,0.3c0.9,0.2,1.5,0.5,2,0.9l-1,3.9c-0.4-0.2-0.8-0.4-1.3-0.5c-0.5-0.1-1-0.2-1.6-0.2
			c-1.4,0-2.5,0.3-3.3,1c-0.8,0.6-1.2,1.7-1.2,3.1v3.7l0.2,1.4v23.6h-5.4v-29.1c0-1.3,0.2-2.4,0.6-3.5c0.4-1,1-1.9,1.8-2.6
			c0.8-0.7,1.7-1.2,2.8-1.6C369.5,639.3,370.7,639.1,372.1,639.1z"/>
	</g>
</g>
</svg>
