<?xml version="1.0" encoding="utf-8"?>
<!-- Generator: Adobe Illustrator 26.3.1, SVG Export Plug-In . SVG Version: 6.00 Build 0)  -->
<svg version="1.1" id="Layer_1" xmlns="http://www.w3.org/2000/svg" xmlns:xlink="http://www.w3.org/1999/xlink" x="0px" y="0px"
	 viewBox="0 0 629.3 730.1" style="enable-background:new 0 0 629.3 730.1;" xml:space="preserve">
<style type="text/css">
	.st0{clip-path:url(#SVGID_00000019666425155637123190000015654351731058664096_);}
	.st1{fill:#B5D0D9;}
	.st2{fill:#C56505;}
	.st3{fill:#AC5317;}
	.st4{fill:#FFFFFF;}
	.st5{fill:#FBFBFB;}
	.st6{clip-path:url(#SVGID_00000176006909740617211740000014597810337722291640_);}
	.st7{fill:#D8B054;}
	.st8{fill:#984608;}
	.st9{fill:#833408;}
	.st10{fill:#F6F1EA;}
	.st11{clip-path:url(#SVGID_00000065058909328720269740000011140916655354945408_);}
	.st12{fill:#AED1DA;}
	.st13{clip-path:url(#SVGID_00000161625392184897816530000009755663868432312223_);}
	.st14{fill:#E0AF3E;}
	.st15{clip-path:url(#SVGID_00000008833047561825792760000002282616556762426554_);}
	.st16{fill:#B73700;}
	.st17{fill:#E2E2E2;}
	.st18{fill:#FFBA00;}
	.st19{fill:#002B00;}
	.st20{fill:#EF261A;}
	.st21{fill:#98D308;}
	.st22{fill:#002B44;}
	.st23{fill:none;stroke:#B73700;stroke-width:39;stroke-miterlimit:10;}
	.st24{fill:none;stroke:#D8B054;stroke-width:50;stroke-miterlimit:10;}
	.st25{fill:#E2D8C7;}
	.st26{clip-path:url(#SVGID_00000059305971109663600400000006047810133353881269_);fill:#F4A61E;}
	.st27{clip-path:url(#SVGID_00000115490428585419972130000009901439259427981999_);fill:#CC922B;}
	.st28{clip-path:url(#SVGID_00000044899685961607804140000002082801700835999935_);fill:#E28927;}
	.st29{clip-path:url(#SVGID_00000007402899641576699000000012630607768359855534_);fill:#89A626;}
	.st30{clip-path:url(#SVGID_00000162311940761030793870000008272885825900156053_);fill:#5B8B45;}
	.st31{clip-path:url(#SVGID_00000127740255908841310200000002055823867403371665_);fill:#3B562C;}
	.st32{clip-path:url(#SVGID_00000123399105954029167950000012717382007136734910_);fill:#A6D3DC;}
	.st33{clip-path:url(#SVGID_00000101807812022666398520000013387248282058817416_);fill:#F9F9F9;}
</style>
<g>
	<g>
		<defs>
			<path id="SVGID_00000147912150113775662650000003624612831195862148_" d="M33.9,227.6c9.5,17.8,27.4,31.7,39,48.6
				c26.6,38.8,16.3,87.3-3.2,128.7c-8.3,17.5-18.2,35-18.6,53.7c-0.8,34.6,33.3,65.7,74.3,76.2s86.5,3.1,124.7-12.7
				c50.7-21,96.5-57.2,153.4-56.2c42.5,0.7,83.9,22.8,125,14.1c32.8-6.9,55.7-33.4,59.1-60.5c3.4-27.2-10-54.3-30.1-76.3
				c-12.3-13.4-27.1-25.4-37.3-39.8c-30.2-42.5-15.1-96.4,8.9-141.4c10.6-20,23.2-41.6,16-62.5C540.6,86,528.5,75,514.9,66.5
				c-43-27-104.9-32.9-154.5-14.8C336.8,60.3,315,74,289.1,75.3c-27.7,1.4-52.9-11.7-77.9-21.4c-37.8-14.8-79.8-22.6-121.8-22.8
				c-21-0.1-46,4-53.8,19.7c-20.1,40.7,61.5,30.5,34.7,76.9C50,162.8,10.1,182.8,33.9,227.6z"/>
		</defs>
		<clipPath id="SVGID_00000101801746643517531650000006602245472816079260_">
			<use xlink:href="#SVGID_00000147912150113775662650000003624612831195862148_"  style="overflow:visible;"/>
		</clipPath>
		
			<rect style="clip-path:url(#SVGID_00000101801746643517531650000006602245472816079260_);fill:#A6D3DC;" width="629.3" height="584.3"/>
	</g>
	<g>
		<path class="st4" d="M256.2,663.6v3.7h-28.7v-3.7H256.2z M258.4,651.7v3.8h-28.8v-3.8H258.4z M241.6,642.8l-5.5,33.5h-4.2
			l5.5-33.5H241.6z M253.7,642.8l-5.5,33.5H244l5.5-33.5H253.7z"/>
		<path class="st4" d="M283.7,660c0-1.7-0.5-3-1.4-3.9c-0.9-0.9-2.2-1.4-3.8-1.4c-1.5,0-2.8,0.4-3.9,1.1c-1.1,0.7-1.9,1.9-2.4,3.5
			l-4.6-1.9c0.6-2.1,1.9-3.7,3.8-5c1.9-1.3,4.3-1.9,7.3-1.9c2,0,3.8,0.3,5.4,1c1.6,0.7,2.8,1.7,3.7,3c0.9,1.3,1.3,3,1.3,5.1v11.3
			c0,1.3,0.6,1.9,1.9,1.9c0.6,0,1.2-0.1,1.8-0.3l-0.3,3.8c-0.8,0.4-1.8,0.6-2.9,0.6c-1.1,0-2.1-0.2-2.9-0.6c-0.9-0.4-1.5-1-2-1.8
			c-0.5-0.8-0.7-1.8-0.7-3V671l1.1-0.1c-0.3,1.3-0.9,2.4-1.9,3.3c-0.9,0.9-2,1.5-3.3,1.9c-1.3,0.4-2.5,0.6-3.8,0.6
			c-1.6,0-3-0.3-4.3-0.8c-1.3-0.5-2.3-1.3-3-2.3c-0.7-1-1.1-2.3-1.1-3.8c0-1.9,0.6-3.5,1.9-4.7c1.2-1.2,3-2,5.3-2.5l9.9-1.9
			l-0.1,3.8l-7.2,1.5c-1.4,0.3-2.5,0.7-3.2,1.2c-0.7,0.5-1.1,1.3-1.1,2.2c0,0.9,0.4,1.7,1.1,2.3c0.7,0.6,1.7,0.8,2.9,0.8
			c0.8,0,1.7-0.1,2.5-0.3c0.8-0.2,1.5-0.5,2.2-1c0.6-0.5,1.1-1,1.5-1.8c0.4-0.7,0.5-1.6,0.5-2.6V660z"/>
		<path class="st4" d="M315.8,642.3c1.8,0,3.4,0.2,4.8,0.7c1.4,0.5,2.6,1.3,3.6,2.3c1,1.1,1.9,2.4,2.6,4.1l-4.8,2.3
			c-0.5-1.5-1.2-2.6-2.3-3.5c-1-0.8-2.5-1.3-4.3-1.3c-1.3,0-2.5,0.3-3.5,1c-1,0.6-1.9,1.5-2.6,2.7c-0.7,1.2-1.3,2.5-1.6,4.1
			c-0.4,1.6-0.6,3.3-0.6,5.1c0,0.1,0,0.2,0,0.3c0,0.1,0,0.3,0,0.6l0.2,0.1c0.4-1.4,1-2.4,2-3.3c1-0.8,2.1-1.4,3.3-1.9
			s2.4-0.6,3.6-0.6c2.2,0,4.2,0.4,5.8,1.3c1.7,0.9,3,2.1,3.9,3.7c0.9,1.6,1.4,3.5,1.4,5.7c0,2.2-0.5,4.2-1.5,5.8
			c-1,1.6-2.3,2.9-4.1,3.8c-1.7,0.9-3.8,1.3-6.3,1.3c-2.8,0-5.3-0.7-7.3-2.1c-2-1.4-3.5-3.4-4.6-6c-1-2.6-1.6-5.6-1.6-9
			c0-3.8,0.6-7,1.8-9.6c1.2-2.6,2.8-4.5,4.9-5.8C310.9,642.9,313.3,642.3,315.8,642.3z M315.5,659.7c-1.3,0-2.4,0.3-3.4,0.8
			c-1,0.5-1.8,1.2-2.3,2.2c-0.6,0.9-0.8,2-0.8,3.2c0,1.2,0.3,2.3,0.9,3.2c0.6,0.9,1.4,1.7,2.4,2.3c1,0.6,2.1,0.8,3.3,0.8
			c2.1,0,3.7-0.6,4.8-1.7c1.2-1.1,1.7-2.7,1.7-4.6c0-1.3-0.3-2.3-0.8-3.3c-0.5-0.9-1.2-1.6-2.2-2.1
			C318.1,659.9,316.9,659.7,315.5,659.7z"/>
		<path class="st4" d="M349.5,676.8c-2.1,0-4-0.5-5.7-1.6c-1.7-1-3.1-2.6-4-4.5c-1-2-1.5-4.3-1.5-7.1c0-2.8,0.5-5.2,1.6-7.2
			c1-2,2.5-3.5,4.2-4.5c1.8-1,3.7-1.5,5.8-1.5c2.2,0,4,0.6,5.5,1.8c1.5,1.2,2.5,2.7,3,4.6l-0.6,0.6v-17.9h5.4v36.8h-4.8l-0.4-6.9
			l0.7,0.1c-0.2,1.5-0.8,2.8-1.7,3.9c-0.9,1.1-2,1.9-3.3,2.5C352.4,676.5,351,676.8,349.5,676.8z M350.6,672.4
			c1.5,0,2.7-0.4,3.8-1.1c1-0.7,1.9-1.8,2.4-3.1c0.6-1.4,0.9-3,0.9-4.9c0-1.8-0.3-3.3-0.9-4.5c-0.6-1.3-1.4-2.2-2.4-2.9
			c-1-0.7-2.2-1-3.6-1c-2.3,0-4,0.8-5.3,2.3c-1.3,1.6-1.9,3.7-1.9,6.5c0,2.7,0.6,4.9,1.8,6.5C346.7,671.6,348.4,672.4,350.6,672.4z"
			/>
		<path class="st4" d="M387.6,676.8c-3.1,0-5.9-0.7-8.2-2.1c-2.3-1.4-3.9-3.4-4.7-5.9l5.3-2.5c0.3,1.2,0.8,2.3,1.4,3.1
			c0.6,0.9,1.5,1.5,2.5,2c1,0.5,2.4,0.7,3.9,0.7c1.3,0,2.4-0.2,3.4-0.7c0.9-0.5,1.6-1.1,2.1-2c0.5-0.8,0.7-1.8,0.7-2.9
			c0-1.1-0.2-2-0.6-2.8c-0.4-0.7-1.1-1.3-2-1.6c-0.9-0.3-2-0.5-3.4-0.5c-0.4,0-0.8,0-1.2,0c-0.4,0-0.9,0.1-1.3,0.1v-4.6
			c0.3,0,0.6,0.1,0.9,0.1c0.3,0,0.6,0,0.8,0c2.2,0,3.8-0.4,4.7-1.3c0.9-0.9,1.4-2.3,1.4-4.1c0-1.6-0.5-2.8-1.4-3.7
			c-1-0.8-2.3-1.3-4.1-1.3c-1.9,0-3.3,0.4-4.3,1.3c-1,0.9-1.8,2.1-2.4,3.7l-5-2.1c0.5-1.6,1.3-2.9,2.4-4.1c1.1-1.2,2.5-2,4.1-2.7
			c1.6-0.6,3.4-0.9,5.4-0.9c2.4,0,4.4,0.4,6,1.2c1.6,0.8,2.8,1.8,3.6,3.2c0.8,1.4,1.2,2.9,1.2,4.5c0,1.3-0.2,2.4-0.6,3.4
			c-0.4,1-0.9,1.8-1.5,2.5c-0.6,0.7-1.3,1.2-2,1.6c-0.7,0.4-1.5,0.6-2.2,0.8v0.1c1,0,1.9,0.2,2.7,0.6c0.8,0.4,1.6,0.8,2.2,1.5
			c0.7,0.6,1.2,1.4,1.5,2.3c0.4,0.9,0.6,1.8,0.6,2.9c0,2-0.5,3.8-1.5,5.3s-2.4,2.7-4.2,3.6C392,676.4,389.9,676.8,387.6,676.8z"/>
		<path class="st4" d="M421.7,676.8c-2.1,0-4-0.5-5.7-1.6c-1.7-1-3.1-2.6-4-4.5c-1-2-1.5-4.3-1.5-7.1c0-2.8,0.5-5.2,1.6-7.2
			c1-2,2.5-3.5,4.2-4.5c1.8-1,3.7-1.5,5.8-1.5c2.2,0,4,0.6,5.5,1.8c1.5,1.2,2.5,2.7,3,4.6l-0.6,0.6v-17.9h5.4v36.8h-4.8l-0.4-6.9
			l0.7,0.1c-0.2,1.5-0.8,2.8-1.7,3.9c-0.9,1.1-2,1.9-3.3,2.5C424.6,676.5,423.2,676.8,421.7,676.8z M422.9,672.4
			c1.5,0,2.7-0.4,3.8-1.1c1-0.7,1.9-1.8,2.4-3.1c0.6-1.4,0.9-3,0.9-4.9c0-1.8-0.3-3.3-0.9-4.5c-0.6-1.3-1.4-2.2-2.4-2.9
			c-1-0.7-2.2-1-3.6-1c-2.3,0-4,0.8-5.3,2.3c-1.3,1.6-1.9,3.7-1.9,6.5c0,2.7,0.6,4.9,1.8,6.5C419,671.6,420.7,672.4,422.9,672.4z"/>
		<path class="st4" d="M460.1,650.4c2,0,3.8,0.3,5.2,0.9c1.4,0.6,2.6,1.4,3.6,2.5c1,1.1,1.7,2.3,2.2,3.7l-5.1,2
			c-0.4-1.6-1.1-2.8-2.1-3.6c-1-0.8-2.2-1.2-3.8-1.2c-1.5,0-2.8,0.3-3.9,1c-1.1,0.7-1.9,1.7-2.5,3c-0.6,1.3-0.8,2.9-0.8,4.9
			c0,1.9,0.3,3.5,0.9,4.8c0.6,1.3,1.4,2.3,2.5,3c1.1,0.7,2.4,1,3.9,1c1.2,0,2.1-0.2,3-0.6c0.8-0.4,1.5-0.9,2.1-1.7
			c0.6-0.7,0.9-1.6,1.1-2.7l4.9,1.7c-0.5,1.5-1.2,2.9-2.2,4c-1,1.1-2.2,2-3.7,2.6c-1.5,0.6-3.2,0.9-5.1,0.9c-2.5,0-4.7-0.5-6.7-1.6
			c-1.9-1-3.4-2.6-4.5-4.5c-1.1-2-1.6-4.3-1.6-7.1c0-2.7,0.5-5.1,1.6-7.1c1.1-2,2.6-3.5,4.5-4.5
			C455.5,650.9,457.7,650.4,460.1,650.4z"/>
	</g>
</g>
</svg>
