<?xml version="1.0" encoding="utf-8"?>
<!-- Generator: Adobe Illustrator 26.3.1, SVG Export Plug-In . SVG Version: 6.00 Build 0)  -->
<svg version="1.1" id="Layer_1" xmlns="http://www.w3.org/2000/svg" xmlns:xlink="http://www.w3.org/1999/xlink" x="0px" y="0px"
	 viewBox="0 0 603.4 654.9" style="enable-background:new 0 0 603.4 654.9;" xml:space="preserve">
<style type="text/css">
	.st0{clip-path:url(#SVGID_00000043429459276024920850000010726355709382357674_);}
	.st1{fill:#B5D0D9;}
	.st2{fill:#C56505;}
	.st3{fill:#AC5317;}
	.st4{fill:#FFFFFF;}
	.st5{fill:#FBFBFB;}
	.st6{clip-path:url(#SVGID_00000172420301326758539020000018178117394707862975_);}
	.st7{fill:#D8B054;}
	.st8{fill:#984608;}
	.st9{fill:#833408;}
	.st10{fill:#F6F1EA;}
	.st11{clip-path:url(#SVGID_00000174594284842869804520000008983741426069039804_);}
	.st12{fill:#AED1DA;}
	.st13{clip-path:url(#SVGID_00000170992818173244836140000009781242243877708707_);}
	.st14{fill:#E0AF3E;}
	.st15{clip-path:url(#SVGID_00000053517760379604687280000016604065475050956676_);}
	.st16{fill:#B73700;}
	.st17{fill:#E2E2E2;}
	.st18{fill:#FFBA00;}
	.st19{fill:#002B00;}
	.st20{fill:#EF261A;}
	.st21{fill:#98D308;}
	.st22{fill:#002B44;}
	.st23{fill:none;stroke:#B73700;stroke-width:39;stroke-miterlimit:10;}
	.st24{fill:none;stroke:#D8B054;stroke-width:50;stroke-miterlimit:10;}
	.st25{fill:#E2D8C7;}
	.st26{clip-path:url(#SVGID_00000165924695783425725220000017780128310753833626_);fill:#F4A61E;}
	.st27{clip-path:url(#SVGID_00000090995049850111921080000015507663501267654554_);fill:#CC922B;}
	.st28{clip-path:url(#SVGID_00000006699489648856181440000016060423447015180476_);fill:#E28927;}
	.st29{clip-path:url(#SVGID_00000063602644735797945820000012369189338170471552_);fill:#89A626;}
	.st30{clip-path:url(#SVGID_00000032648770641910707790000005785010282072456627_);fill:#5B8B45;}
	.st31{clip-path:url(#SVGID_00000135693220821455719120000014520134819017895059_);fill:#3B562C;}
	.st32{clip-path:url(#SVGID_00000140731134264749378460000014703851011053152918_);fill:#A6D3DC;}
	.st33{clip-path:url(#SVGID_00000168083719556098713660000010351348821761185431_);fill:#F9F9F9;}
</style>
<g>
	<g>
		<defs>
			<path id="SVGID_00000040544498786821192200000008449614493371927998_" d="M1.7,130.5c-6.5,29.6,6.6,59.3,16.8,88.2
				c11.9,33.6,20.1,68.3,37.5,100.4s45.8,62.1,86,75.4c70,23.3,150.4-9.7,225.2,0.4c29.3,4,56.6,14.5,85.8,19
				c29.2,4.5,63.1,1.4,82.3-16.8c10.6-10.2,15.1-23.5,18.2-36.6c6.5-27.9,7.7-56.6,3.5-84.7c-1.7-11.3-3.8-23.9,4.7-33.1
				c5.3-5.7,13.8-8.8,20.6-13.4c23.6-15.9,22.6-44.9,19.4-69.5c-2.3-17.7-5.3-36.5-19.1-50.4c-11.9-11.9-30-18.5-47.4-24.4
				c-58.2-19.8-119.2-38.2-182.4-36.6c-41.5,1.1-82.2,10.9-123.7,10.9c-32,0-59.3-12.5-90.2-13.3C79.9,44.5,12.2,83.2,1.7,130.5z"/>
		</defs>
		<clipPath id="SVGID_00000121977162563990916740000012554564573165452168_">
			<use xlink:href="#SVGID_00000040544498786821192200000008449614493371927998_"  style="overflow:visible;"/>
		</clipPath>
		
			<rect x="-4.1" y="-79.4" style="clip-path:url(#SVGID_00000121977162563990916740000012554564573165452168_);fill:#89A626;" width="629.3" height="584.3"/>
	</g>
	<g>
		<path class="st4" d="M235.7,584.2v3.7h-28.7v-3.7H235.7z M237.9,572.3v3.8h-28.8v-3.8H237.9z M221.1,563.4l-5.5,33.5h-4.2
			l5.5-33.5H221.1z M233.2,563.4l-5.5,33.5h-4.2l5.5-33.5H233.2z"/>
		<path class="st4" d="M260.1,562.9c2.3,0,4.2,0.4,5.9,1.1c1.7,0.7,3,1.8,3.9,3.1c0.9,1.3,1.4,2.9,1.4,4.8c0,1.7-0.4,3.2-1.2,4.5
			c-0.8,1.3-2,2.3-3.6,3v0.1c1.9,0.7,3.5,1.8,4.6,3.2c1.1,1.4,1.7,3.1,1.7,5.2c0,2-0.5,3.7-1.5,5.1c-1,1.4-2.5,2.5-4.4,3.3
			c-1.9,0.8-4.1,1.2-6.7,1.2c-2.6,0-4.8-0.4-6.7-1.2c-1.9-0.8-3.3-1.9-4.4-3.3c-1.1-1.4-1.6-3.1-1.6-5.1c0-2,0.6-3.8,1.7-5.2
			c1.1-1.4,2.7-2.5,4.7-3.2v-0.1c-1.5-0.6-2.7-1.6-3.6-2.9c-0.9-1.3-1.3-2.8-1.3-4.6c0-1.9,0.5-3.5,1.4-4.8c0.9-1.3,2.2-2.3,3.9-3.1
			C255.8,563.3,257.8,562.9,260.1,562.9z M260.1,592.8c1.5,0,2.8-0.2,3.8-0.7c1-0.4,1.9-1.1,2.4-1.9c0.6-0.8,0.9-1.8,0.9-2.9
			c0-1.2-0.3-2.2-0.9-3c-0.6-0.8-1.4-1.5-2.5-1.9c-1-0.4-2.3-0.7-3.8-0.7c-1.4,0-2.7,0.2-3.8,0.7c-1.1,0.4-1.9,1.1-2.5,1.9
			c-0.6,0.8-0.9,1.8-0.9,3c0,1.1,0.3,2.1,0.9,2.9c0.6,0.8,1.4,1.5,2.5,1.9C257.4,592.6,258.6,592.8,260.1,592.8z M260.1,567.5
			c-1.8,0-3.2,0.4-4.3,1.3c-1.1,0.9-1.6,2.1-1.6,3.6s0.5,2.7,1.6,3.6c1.1,0.9,2.5,1.3,4.3,1.3c1.8,0,3.2-0.4,4.2-1.3
			c1.1-0.9,1.6-2.1,1.6-3.6s-0.5-2.7-1.6-3.6C263.3,567.9,261.9,567.5,260.1,567.5z"/>
		<path class="st4" d="M296.2,562.9c2.9,0,5.3,0.7,7.3,2.1c2,1.4,3.5,3.4,4.5,6c1,2.6,1.5,5.6,1.5,9.1c0,3.9-0.5,7.1-1.6,9.6
			c-1.1,2.6-2.6,4.5-4.5,5.8c-2,1.3-4.3,1.9-7.1,1.9c-2.8,0-5.3-0.6-7.3-1.9c-2-1.3-3.6-3.1-4.6-5.6l5.1-2.4
			c0.5,1.6,1.3,2.9,2.4,3.8c1.1,0.9,2.6,1.4,4.5,1.4c1.6,0,2.9-0.3,3.9-0.9c1-0.6,1.9-1.5,2.5-2.6c0.6-1.2,1.1-2.5,1.3-4.2
			c0.3-1.6,0.4-3.5,0.4-5.5c0-0.1,0-0.2,0-0.3c0-0.1,0-0.2,0-0.3h-0.2c-0.4,1.4-1,2.5-2,3.3c-1,0.8-2.1,1.5-3.3,1.9
			c-1.2,0.4-2.4,0.6-3.7,0.6c-2.2,0-4.1-0.4-5.8-1.3c-1.7-0.9-3-2.1-3.9-3.6c-0.9-1.6-1.4-3.4-1.4-5.5c0-2.3,0.5-4.4,1.4-6
			c1-1.7,2.3-3,4.1-3.9C291.6,563.3,293.7,562.9,296.2,562.9z M296.2,567.6c-2.1,0-3.8,0.6-4.9,1.7c-1.1,1.2-1.7,2.8-1.7,4.8
			c0,1.8,0.6,3.3,1.8,4.3c1.2,1,2.8,1.5,4.8,1.5c1.3,0,2.4-0.3,3.4-0.8c1-0.5,1.8-1.2,2.3-2.2c0.6-0.9,0.8-2,0.8-3.2
			c0-1.3-0.3-2.4-0.8-3.3c-0.6-0.9-1.3-1.7-2.3-2.2C298.6,567.9,297.5,567.6,296.2,567.6z"/>
		<path class="st4" d="M336.7,580.6c0-1.7-0.5-3-1.4-3.9c-0.9-0.9-2.2-1.4-3.8-1.4c-1.5,0-2.8,0.4-3.9,1.1c-1.1,0.7-1.9,1.9-2.4,3.5
			l-4.6-1.9c0.6-2.1,1.9-3.7,3.8-5c1.9-1.3,4.3-1.9,7.3-1.9c2,0,3.8,0.3,5.4,1c1.6,0.7,2.8,1.7,3.7,3c0.9,1.3,1.3,3,1.3,5.1v11.3
			c0,1.3,0.6,1.9,1.9,1.9c0.6,0,1.2-0.1,1.8-0.3l-0.3,3.8c-0.8,0.4-1.8,0.6-2.9,0.6c-1.1,0-2.1-0.2-2.9-0.6c-0.9-0.4-1.5-1-2-1.8
			c-0.5-0.8-0.7-1.8-0.7-3v-0.4l1.1-0.1c-0.3,1.3-0.9,2.4-1.9,3.3c-0.9,0.9-2,1.5-3.3,1.9c-1.3,0.4-2.5,0.6-3.8,0.6
			c-1.6,0-3-0.3-4.3-0.8c-1.3-0.5-2.3-1.3-3-2.3c-0.7-1-1.1-2.3-1.1-3.8c0-1.9,0.6-3.5,1.9-4.7c1.2-1.2,3-2,5.3-2.5l9.9-1.9
			l-0.1,3.8l-7.2,1.5c-1.4,0.3-2.5,0.7-3.2,1.2c-0.7,0.5-1.1,1.3-1.1,2.2c0,0.9,0.4,1.7,1.1,2.3c0.7,0.6,1.7,0.8,2.9,0.8
			c0.8,0,1.7-0.1,2.5-0.3c0.8-0.2,1.5-0.5,2.2-1c0.6-0.5,1.1-1,1.5-1.8c0.4-0.7,0.5-1.6,0.5-2.6V580.6z"/>
		<path class="st4" d="M368.8,562.9c1.8,0,3.4,0.2,4.8,0.7c1.4,0.5,2.6,1.3,3.6,2.3c1,1.1,1.9,2.4,2.6,4.1l-4.8,2.3
			c-0.5-1.5-1.2-2.6-2.3-3.5c-1-0.8-2.5-1.3-4.3-1.3c-1.3,0-2.5,0.3-3.5,1c-1,0.6-1.9,1.5-2.6,2.7c-0.7,1.2-1.3,2.5-1.6,4.1
			c-0.4,1.6-0.6,3.3-0.6,5.1c0,0.1,0,0.2,0,0.3c0,0.1,0,0.3,0,0.6l0.2,0.1c0.4-1.4,1-2.4,2-3.3c1-0.8,2.1-1.4,3.3-1.9
			c1.2-0.4,2.4-0.6,3.6-0.6c2.2,0,4.2,0.4,5.8,1.3c1.7,0.9,3,2.1,3.9,3.7c0.9,1.6,1.4,3.5,1.4,5.7c0,2.2-0.5,4.2-1.5,5.8
			c-1,1.6-2.3,2.9-4.1,3.8c-1.7,0.9-3.8,1.3-6.3,1.3c-2.8,0-5.3-0.7-7.3-2.1c-2-1.4-3.5-3.4-4.6-6c-1-2.6-1.6-5.6-1.6-9
			c0-3.8,0.6-7,1.8-9.6c1.2-2.6,2.8-4.5,4.9-5.8C363.9,563.5,366.2,562.9,368.8,562.9z M368.4,580.3c-1.3,0-2.4,0.3-3.4,0.8
			c-1,0.5-1.8,1.2-2.3,2.2s-0.8,2-0.8,3.2c0,1.2,0.3,2.3,0.9,3.2c0.6,0.9,1.4,1.7,2.4,2.3c1,0.6,2.1,0.8,3.3,0.8
			c2.1,0,3.7-0.6,4.8-1.7c1.2-1.1,1.7-2.7,1.7-4.6c0-1.3-0.3-2.3-0.8-3.3c-0.5-0.9-1.2-1.6-2.2-2.1
			C371,580.5,369.9,580.3,368.4,580.3z"/>
		<path class="st4" d="M392,596.9v-4c3.2-2.3,5.9-4.3,8.1-6.1s3.9-3.4,5.3-4.9c1.3-1.5,2.3-2.9,2.9-4.2c0.6-1.3,0.9-2.7,0.9-4.1
			c0-1.8-0.6-3.3-1.7-4.4c-1.1-1.1-2.7-1.7-4.7-1.7c-2.1,0-3.8,0.7-5,2.1c-1.2,1.4-1.9,3.3-2.1,5.8l-4.7-2.2c0.2-2.1,0.9-4,1.9-5.5
			c1-1.6,2.4-2.8,4.1-3.6c1.7-0.8,3.8-1.3,6.1-1.3c1.9,0,3.6,0.3,5,0.8c1.4,0.5,2.6,1.3,3.6,2.3c1,1,1.7,2.1,2.3,3.4
			c0.5,1.3,0.8,2.7,0.8,4.1c0,2.1-0.5,4.2-1.6,6.2c-1.1,2-2.7,4-5,6.1c-2.3,2.1-5.2,4.3-8.9,6.7v0.1c0.4-0.1,1-0.1,1.7-0.1
			c0.7,0,1.4,0,2.1-0.1c0.7,0,1.3,0,1.7,0h10.6v4.7H392z"/>
		<path class="st4" d="M440.3,562.9c1.8,0,3.4,0.2,4.8,0.7c1.4,0.5,2.6,1.3,3.6,2.3c1,1.1,1.9,2.4,2.6,4.1l-4.8,2.3
			c-0.5-1.5-1.2-2.6-2.3-3.5c-1-0.8-2.5-1.3-4.3-1.3c-1.3,0-2.5,0.3-3.5,1c-1,0.6-1.9,1.5-2.6,2.7c-0.7,1.2-1.3,2.5-1.6,4.1
			c-0.4,1.6-0.6,3.3-0.6,5.1c0,0.1,0,0.2,0,0.3c0,0.1,0,0.3,0,0.6l0.2,0.1c0.4-1.4,1-2.4,2-3.3c1-0.8,2.1-1.4,3.3-1.9
			c1.2-0.4,2.4-0.6,3.6-0.6c2.2,0,4.2,0.4,5.8,1.3c1.7,0.9,3,2.1,3.9,3.7c0.9,1.6,1.4,3.5,1.4,5.7c0,2.2-0.5,4.2-1.5,5.8
			c-1,1.6-2.3,2.9-4.1,3.8c-1.7,0.9-3.8,1.3-6.3,1.3c-2.8,0-5.3-0.7-7.3-2.1c-2-1.4-3.5-3.4-4.6-6c-1-2.6-1.6-5.6-1.6-9
			c0-3.8,0.6-7,1.8-9.6c1.2-2.6,2.8-4.5,4.9-5.8C435.4,563.5,437.7,562.9,440.3,562.9z M439.9,580.3c-1.3,0-2.4,0.3-3.4,0.8
			c-1,0.5-1.8,1.2-2.3,2.2s-0.8,2-0.8,3.2c0,1.2,0.3,2.3,0.9,3.2c0.6,0.9,1.4,1.7,2.4,2.3c1,0.6,2.1,0.8,3.3,0.8
			c2.1,0,3.7-0.6,4.8-1.7c1.2-1.1,1.7-2.7,1.7-4.6c0-1.3-0.3-2.3-0.8-3.3c-0.5-0.9-1.2-1.6-2.2-2.1
			C442.6,580.5,441.4,580.3,439.9,580.3z"/>
	</g>
</g>
</svg>
