<?xml version="1.0" encoding="UTF-8"?><svg xmlns="http://www.w3.org/2000/svg" width="115" height="116" xmlns:xlink="http://www.w3.org/1999/xlink" viewBox="0 0 115 116"><defs><style>.i{fill:url(#h);}.j{fill:#f5a51f;}.k{fill:#fbed95;}.l{fill:#f19529;}.m{fill:#c06718;}.n{fill:#e18828;}.o{fill:#206614;}.p{fill:#2a7d1f;}</style><linearGradient id="h" x1="-111.7034" y1="761.8997" x2="-87.6662" y2="761.8997" gradientTransform="translate(177.6758 -734.5697) rotate(-.6357)" gradientUnits="userSpaceOnUse"><stop offset=".0706" stop-color="#4e3b1d"/><stop offset="1" stop-color="#896329"/></linearGradient></defs><g id="a"/><g id="b"/><g id="c"><g id="d"/></g><g id="e"><g id="f"/><g id="g"><g><path class="p" d="M88.6121,23.3618s-6.5759-1.1678-8.9181-3.7806-2.8008-6.6103-2.8008-6.6103c0,0-4.4365-4.7571-7.3842-3.5825,0,0,10.477-10.277,15.9713-.4094s3.1317,14.3829,3.1317,14.3829Z"/><path class="j" d="M93.2046,101.9031c-10.1521,10.2412-23.942,12.2989-38.3918,10.5278-10.5827-1.2971-21.8837-3.6509-30.5439-11.3413C3.7838,82.8988,1.4347,53.7697,19.0219,36.0281c8.4128-8.4867,19.8255-12.7734,31.7249-13.0048,12.9766-.2524,26.5248,4.3289,37.2109,13.8182,20.485,18.1909,22.8341,47.32,5.2469,65.0616Z"/><path class="n" d="M74.196,33.8033S34.0862,14.8283,15.6896,48.7076c-.7935,1.4613-5.6037,10.716-4.309,22.1666,2.3669,20.9319,23.1299,31.2808,25.2465,32.2946-1.8634-2.7172-10.3146-15.6839-6.2712-31.968,3.0004-12.0837,11.3267-19.7349,13.928-22.0654,4.5158-4.0457,9.0361-6.4956,12.3268-8.2791,6.8736-3.7253,13.1116-5.8291,17.5852-7.0529Z"/><path class="l" d="M74.3395,33.9896c-24.9001,3.5061-43.9949,18.8784-47.5786,37.1387-.4276,2.1788-3.6239,20.111,9.8663,32.0404,13.3913,11.842,31.8523,7.7116,34.4719,7.0819,19.1844-4.6117,34.3489-22.7234,32.5981-37.3372-3.1515-26.3048-21.4637-35.1244-21.4637-35.1244,0,0,5.557,5.868,9.7169,14.691,2.5048,5.3126,8.3314,19.5066,1.3346,32.4213-4.1925,7.7385-11.7408,12.612-15.0591,14.7545-3.1073,2.0062-4.6609,3.0093-6.7571,3.4743-9.7127,2.1546-21.7935-7.1786-26.145-17.8527-4.4933-11.0219,.0036-21.5787,1.767-25.615,7.153-16.373,22.6534-23.6931,27.2488-25.6727Z"/><path class="k" d="M93.253,57.326c.7881,1.6753,7.2712,16.1151-1.2104,30.4118-5.4409,9.1712-14.0171,13.1884-17.0834,14.4627,3.4332-4.2839,7.2974-9.9177,10.624-16.919,5.2381-11.0245,7.0377-21.0088,7.6698-27.9555Z"/><path class="m" d="M79.5794,36.7189c.8988,.3547,.799,.42,.9473,.5494,.2472,.2157,.2455,.4206-.1755,1.0544-.6736,1.0141-3.0858,.7539-5.3879-.5812-2.302-1.3351-2.4482-1.0556-1.7746-2.0697,.3368-.507,3.2023,1.5082,4.1773,1.6134s1.5894-.8124,2.2133-.5662Z"/><path class="i" d="M83.5718,26.8633c1.6031-1.2466,4.4492-2.8288,5.647-4.1329,3.5935-3.9122,10.4956-1.4161,8.9299-3.249-1.5066-1.7637-6.972,.2159-11.4967,2.5509-1.745,.9005-2.1094,.6647-3.8941,2.0524-2.1143,1.644-2.5772,4.2367-3.9633,5.9408-2.8178,3.4642-5.2671,5.8746-3.8678,7.5127,2.0876,2.4439,2.2324-5.6887,8.6449-10.6749Z"/><path class="o" d="M89.0737,20.0884s-.9197,1.182-3.6527-1.0806c-1.8872-1.5624-3.6264-5.7361-4.3327-7.11-.3841-.7472-1.4541-1.7376-2.1702-2.2139-1.6241-1.0801-8.2304-1.5692-9.5129-.2509,.3047-.3321,.7872-.7537,1.469-.9666,2.0703-.6463,8.1463,.1278,8.9158,.7825,2.2678,1.9296,1.394,1.5359,2.6026,3.2343,1.2408,1.7439,.8685,6.8795,6.6811,7.6051Z"/></g></g></g></svg>