<?xml version="1.0" encoding="UTF-8"?><svg xmlns="http://www.w3.org/2000/svg" width="124.05" height="67.96" viewBox="0 0 124.05 67.96"><defs><style>.o{fill:none;}.p{fill:#f5a51f;}.q{fill:#fbed95;}.r{fill:#f19529;}.s{fill:#e18828;opacity:.76;}</style></defs><g id="a"><g><path class="r" d="M8.73,40.78c-.18,.37-1.17,2.43-.43,4.36,1.17,3.05,5.93,4.02,8.91,3.95,1.58-.04,2.93-.4,5.62-1.12,2.03-.54,3.3-1.04,5.64-1.44,2.36-.4,3.84-.66,4.23,0,.51,.86-.85,3.33-2.82,4.31-1.06,.53-1.98,.46-2.82,1.44-.19,.22-.78,.9-.75,1.69,.06,1.81,3.34,3.06,3.99,3.19,3.08,.61,6.27,.59,9.34-.04,6.73-1.39,7-2.45,9.85-1.94,2.41,.43,2.61,1.36,7.17,2.86,2.2,.73,3.87,1.07,5.64,1.44,3.84,.79,8.41,1.73,14.1,1.44,1.86-.09,9.42-.48,9.87-2.87,.1-.54-.4-1.32-1.41-2.87-1.52-2.35-2.38-2.73-2.82-4.31-.21-.75-.56-2.02,0-2.87,1.06-1.61,4.5-.49,9.87,0,3.56,.32,6.07,.19,9.87,0,10.39-.53,12.09-2.16,12.69-2.87,.31-.37,1.78-2.21,1.41-4.31-.41-2.33-2.84-3.6-4.23-4.31-3.66-1.86-7.66-1.74-15.51-1.44-2.29,.09-4.16,.23-7.05,0-2-.16-2.94-.37-5.47-.72-3.9-.53-5.78-.59-8.19-.84-9.26-.94-9.15-2.85-14.53-2.76-5.13,.09-5.43,1.83-12.69,2.87-4.45,.64-6.33,.27-11.49,.28-10.14,.02-24.67,.03-27.98,6.9Z"/><path class="p" d="M13.09,46.27c.98,.43,2.1,.3,3.14,.09,3.45-.69,6.74-2.12,10.22-2.64s7.43,.08,9.74,2.79c.89,1.05,1.49,2.42,1.34,3.8-.15,1.38-1.19,2.69-2.54,2.85,4.26,1.36,8.61-1.93,13.08-2.01,2.31-.04,4.55,.79,6.74,1.53,7.33,2.46,14.96,4.01,22.65,4.6,1.02,.08,2.44-.23,2.38-1.27-.04-.67-.73-1.07-1.2-1.54-1.79-1.78-.61-4.84,.77-6.96,.68-1.04,1.44-2.11,2.54-2.65,1.56-.77,3.4-.33,5.1,.02,6.87,1.41,14.1,.97,20.76-1.26,1.18-.39,2.59-1.3,2.27-2.52-.12-.46-.48-.82-.86-1.1-2.86-2.13-6.8-1.25-10.32-.83-10.38,1.25-20.65-2.37-30.63-5.55-2.04-.65-4.11-1.29-6.24-1.41-2.47-.14-4.91,.42-7.33,.95-6.49,1.42-13.02,2.62-19.59,3.59-1.85,.27-3.71,.53-5.58,.61-3.01,.13-5.99-.25-8.95-.76-1.72-.3-3.59-.74-5.25,.07-2.87,1.4-6.65,7.65-2.25,9.58Z"/><path class="p" d="M86.69,50.4c-.19,.15-.37,.32-.47,.54-.11,.27-.08,.58,0,.87,.37,1.57,1.57,2.84,2.98,3.59s3,1.04,4.57,1.2c1.31,.13,2.64,.18,3.93-.1s2.53-.91,3.37-1.94c.67-.82,1.02-2.1,.36-2.93-.48-.61-1.32-.75-2.08-.85l-4.58-.62c-2.63-.35-5.74-1.57-8.08,.24Z"/><path class="r" d="M101.06,53.94c-.84,1.03-2.08,1.66-3.37,1.94-1.29,.28-2.62,.23-3.93,.1-1.58-.16-3.17-.45-4.57-1.2-1.4-.75-2.6-2.02-2.98-3.59,0-.02,0-.05-.01-.07-.08,.25-.05,.53,.01,.79,.37,1.57,1.57,2.84,2.98,3.59,1.4,.75,3,1.04,4.57,1.2,1.31,.13,2.64,.18,3.93-.1s2.53-.91,3.37-1.94c.49-.61,.81-1.46,.68-2.21-.09,.53-.34,1.06-.68,1.48Z"/><g><path class="s" d="M76.4,59.46c-5.69,.29-10.26-.65-14.1-1.44-1.77-.36-3.44-.71-5.64-1.44-4.56-1.5-4.76-2.43-7.17-2.86-2.85-.51-3.12,.55-9.85,1.94-3.07,.63-6.26,.65-9.34,.04-.57-.11-3.13-1.08-3.82-2.52-.1,.24-.18,.49-.17,.77,.06,1.81,3.34,3.06,3.99,3.19,3.08,.61,6.27,.59,9.34-.04,6.73-1.39,7-2.45,9.85-1.94,2.41,.43,2.61,1.36,7.17,2.86,2.2,.73,3.87,1.07,5.64,1.44,3.84,.79,8.41,1.73,14.1,1.44,1.86-.1,9.42-.48,9.87-2.87,.05-.24-.05-.54-.23-.93-1.35,1.94-7.92,2.28-9.63,2.37Z"/><path class="s" d="M32.6,46.43c.21-.55,.27-1.04,.1-1.34-.39-.66-1.87-.4-4.23,0-2.34,.4-3.61,.89-5.64,1.44-2.69,.72-4.04,1.08-5.62,1.12-2.97,.08-7.74-.9-8.91-3.95-.11-.28-.17-.56-.21-.84-.1,.7-.09,1.5,.21,2.28,1.17,3.05,5.93,4.02,8.91,3.95,1.58-.04,2.93-.4,5.62-1.12,2.03-.54,3.3-1.04,5.64-1.44,2.22-.38,3.64-.61,4.13-.1Z"/><path class="s" d="M115.86,40.74c-.25,1.47-1.16,2.63-1.4,2.91-.6,.72-2.3,2.34-12.69,2.87-3.8,.19-6.31,.32-9.87,0-5.37-.49-8.81-1.61-9.87,0-.37,.57-.34,1.31-.22,1.96,.05-.19,.11-.36,.22-.53,.83-1.27,3.16-.84,6.73-.36,1.89-.38,4,.2,5.92,.54,2.27,.07,4.34-.03,7.08-.17,10.39-.53,12.09-2.16,12.69-2.87,.31-.37,1.78-2.21,1.41-4.31,0-.01,0-.02-.01-.03Z"/></g><path class="q" d="M14.14,47.18c1.02,.11,2.02-.24,3-.56,3.02-.99,6.09-1.83,9.2-2.5-2.32-.46-4.77-.26-6.99,.57-1.45,.54-2.85,1.34-4.39,1.35-2.42,.01-4.11-2.01-3.73-4.41-2.92,2.07,.67,5.32,2.92,5.55Z"/><path class="q" d="M78.87,57.99c1.15,.08,2.63-.09,2.96-1.22,.23-.8-.32-1.63-.96-2.15s-1.42-.89-1.93-1.54c-.72-.91-.8-2.21-.48-3.33,.32-1.12,.98-2.1,1.63-3.07-1.56,1.36-3.26,3.08-3.03,5.16,.15,1.4,1.16,2.53,2.12,3.55-.19,.68-1.09,.78-1.78,.74-4.61-.29-9.45-1.01-14.05-.81,3.98,2.33,11,2.39,15.52,2.68Z"/><path class="o" d="M110.99,43.68c.59-.2,1.19-.42,1.64-.86,1-1,.78-2.79-.11-3.9s-2.23-1.7-3.52-2.25c.74,.7,1.5,1.42,1.92,2.36s.39,2.16-.33,2.88c-.48,.48-1.16,.67-1.82,.82-3.3,.79-6.65,1.34-10.03,1.64-2.64,.24-6.5-.49-8.89,.51,6.73,1.81,14.59,.96,21.14-1.22Z"/><path class="q" d="M106.55,41.03c-2.89,1.23-6.16,.84-9.26,1.24-1.78,.23-3.52,.71-5.25,1.2,3.29-.43,6.6-.66,9.91-.69,.88,0,1.77,0,2.64-.15,1.76-.3,3.4-1.24,4.57-2.61,.14-.17,.29-.36,.29-.59,0-.2-.11-.39-.24-.54-.63-.81-1.62-1.39-2.64-1.46,.63,.34,1.54,.53,1.68,1.36,.18,1.11-.85,1.89-1.71,2.25Z"/><path class="q" d="M111.29,38.33c.35,.24,.71,.54,.81,.97,.15,.69-.45,1.29-1.01,1.7-3,2.2-6.62,3.53-10.31,3.78-.92,.06-1.84,.06-2.76,.1-2.18,.1-4.38,.47-6.54,.15-2.2-.33-4.46-1.36-6.55-.59,1.09-.1,2.17,.28,3.22,.59,6.61,1.91,13.71,.86,20.32-1.04,1.02-.29,2.05-.61,2.97-1.14s1.75-1.3,2.17-2.3c.31-.73,.36-1.68-.18-2.26-.27-.29-.64-.45-1-.59-1.02-.39-2.53-1.03-3.61-.89,.1,.6,1.96,1.16,2.48,1.52Z"/><path class="q" d="M100.28,53.89c.33-.45,.58-1.06,.33-1.56-.27-.54-.96-.68-1.55-.69,.38,.19,.82,.47,.83,.9,0,.17-.07,.33-.15,.48-.25,.47-.59,.89-1.01,1.21-1.05,.82-2.44,1.01-3.76,1.12-.65,.05-1.33,.09-1.94-.14,.36,.42,.96,.47,1.51,.49,1.1,.04,2.05-.02,3.13-.23,.56-.11,2.61-.79,2.61-1.59Z"/></g></g><g id="b"/><g id="c"/><g id="d"/><g id="e"/><g id="f"/><g id="g"/><g id="h"/><g id="i"/><g id="j"/><g id="k"/><g id="l"/><g id="m"/><g id="n"/></svg>