<?xml version="1.0" encoding="utf-8"?>
<!-- Generator: Adobe Illustrator 26.3.1, SVG Export Plug-In . SVG Version: 6.00 Build 0)  -->
<svg version="1.1" xmlns="http://www.w3.org/2000/svg" xmlns:xlink="http://www.w3.org/1999/xlink" x="0px" y="0px"
	 viewBox="0 0 1920 737" style="enable-background:new 0 0 1920 737;" xml:space="preserve">
<style type="text/css">
	.st0{fill:#E2D8C7;}
	.st1{fill:#D9B154;}
	.st2{fill:#B6D1DA;}
	.st3{fill:#BC6F27;}
	.st4{fill:#BAB5A8;}
	.st5{fill:#AA410B;}
	.st6{fill:#FFFFFF;}
</style>
<g id="Layer_3">
	<rect class="st0" width="1920" height="733.8"/>
</g>
<g id="Layer_2">
</g>
<g id="Layer_1">
	<g id="Layer_4">
	</g>
	<path class="st1" d="M311.7,413.2c-8.4-87.1,42.1-176.8,120.8-214.8c101.7-49,224.2-11.3,322,45.1S941.7,375,1049.9,406.9
		c27.4,8.1,63.1,23.8,57.8,51.8c-1.9,9.7-8.8,17.6-15.7,24.8c-32.7,33.9-74.2,64.1-121.3,65.2c-42.8,1-82.3-22.1-124.3-30.7
		c-58.4-12-122.1,6.2-165.4,47.1c-40.1,37.9-70.8,97.4-125.9,100.3c-40.2,2.1-46.9-25.9-71.7-46.8c-21-17.6-42.3-26-66.3-40.9
		C359.8,542.2,318.3,481.1,311.7,413.2z"/>
	<g>
		<path class="st6" d="M551.8,402.7V401l4.4-1.6c2.3-0.9,4.2-2.1,5.5-3.4c1.3-1.3,2.3-3.3,3.2-5.7l36.3-104h15l35.7,104.7
			c0.9,2.6,2,4.5,3.2,5.9c1.2,1.4,3,2.5,5.5,3.4l2.1,0.7v1.8h-44.7V401l2.6-0.9c2.5-0.9,4-2.3,4.5-4c0.5-1.7,0.4-3.7-0.3-6.1
			l-8.3-25.3h-39.1l-8.4,24.8c-0.8,2.6-1.1,4.6-0.8,6.2c0.3,1.5,1.7,2.8,4.1,3.7l3.9,1.6v1.8H551.8z M578.5,361.2h36.8l-17.8-54.7
			L578.5,361.2z"/>
		<path class="st6" d="M668.3,402.7V401l2.5-0.7c4.1-1.2,6.2-4,6.2-8.6v-55.1c0-2.6-0.4-4.5-1.2-5.7c-0.8-1.2-2.4-2.1-4.8-2.6
			l-2.6-0.7v-1.8l30.1-10.2l1.8,1.8l1.4,10.6c4.1-3.6,8.7-6.6,13.9-9c5.2-2.3,10.3-3.5,15.3-3.5c7.7,0,13.7,2.1,17.9,6.3
			c4.2,4.2,6.2,10.7,6.2,19.4v50.7c0,4.6,2.2,7.5,6.7,8.6l1.6,0.5v1.8h-41.5V401l2.3-0.7c4.1-1.3,6.2-4.2,6.2-8.6v-56.1
			c0-7.5-3.8-11.3-11.3-11.3c-5.2,0-10.8,2.6-16.9,7.7v59.8c0,4.6,2.1,7.5,6.2,8.6l1.6,0.5v1.8H668.3z"/>
		<path class="st6" d="M770.4,402.7V401l2.5-0.7c2.3-0.7,4-1.8,4.8-3.2c0.9-1.4,1.3-3.3,1.3-5.6v-55.1c0-2.5-0.4-4.3-1.3-5.5
			c-0.9-1.2-2.5-2.1-4.8-2.6l-2.5-0.5V326l32.2-10.4l1.8,1.8l-0.5,25v49.3c0,2.3,0.4,4.2,1.3,5.6c0.9,1.4,2.4,2.5,4.7,3.2l1.8,0.5
			v1.8H770.4z M791.1,306.3c-4,0-7.4-1.3-10.1-3.8c-2.8-2.5-4.1-5.7-4.1-9.6c0-4,1.4-7.2,4.1-9.7c2.8-2.5,6.1-3.7,10.1-3.7
			c4,0,7.3,1.2,10,3.7c2.7,2.5,4,5.7,4,9.7c0,3.9-1.4,7.1-4,9.6C798.5,305,795.1,306.3,791.1,306.3z"/>
		<path class="st6" d="M819.3,402.7V401l2.5-0.7c2.2-0.6,3.8-1.6,4.7-3c0.9-1.4,1.4-3.3,1.5-5.6v-55.1c0-2.6-0.4-4.5-1.2-5.7
			c-0.8-1.2-2.4-2.1-4.8-2.6l-2.6-0.7v-1.8l30.1-10.2l1.8,1.8l1.4,12c3.9-3.9,8.3-7.2,13.3-9.9c5-2.7,10.2-4,15.6-4
			c5.6,0,10.1,1.1,13.6,3.4c3.4,2.3,6,5.8,7.7,10.6c4.6-4.3,9.5-7.8,14.9-10.3c5.3-2.5,10.5-3.8,15.6-3.8c8.3,0,14.5,2,18.4,6
			c3.9,4,5.9,10.3,5.9,18.8v51.6c0,4.6,2.1,7.5,6.3,8.6l1.9,0.5v1.8h-40.7V401l1.8-0.5c2.2-0.7,3.8-1.8,4.7-3.2
			c0.9-1.4,1.3-3.3,1.3-5.6v-53.9c0-4.9-0.9-8.3-2.6-10.1c-1.8-1.8-4.6-2.7-8.4-2.7c-3.1,0-6,0.7-8.9,2c-2.9,1.3-5.9,3.4-9.1,6.1
			c0.6,1.9,1,3.9,1.1,6.2c0.2,2.2,0.3,4.6,0.3,7v45.6c0.1,4.6,2.2,7.5,6.3,8.6l1.6,0.5v1.8h-40.8V401l2.5-0.7
			c2.2-0.7,3.8-1.7,4.7-3.1c0.9-1.3,1.3-3.2,1.3-5.5V338c0-4.7-0.9-8-2.6-10c-1.7-2-4.6-3-8.7-3c-2.7,0-5.4,0.7-8.1,2
			c-2.7,1.3-5.5,3.3-8.4,5.9v59c0,4.6,2.1,7.5,6.2,8.6l1.6,0.5v1.8H819.3z"/>
		<path class="st6" d="M997.2,405.4c-6.8,0-12.5-1.9-17.2-5.8c-4.6-3.9-7-9.4-7-16.7c0-5.5,2.8-10.6,8.4-15.2
			c5.6-4.6,14.5-8.1,26.6-10.5c1.9-0.4,4-0.7,6.3-1.1c2.3-0.4,4.8-0.8,7.4-1.3v-13.9c0-8-1-13.6-2.9-16.8c-1.9-3.2-5-4.8-9.1-4.8
			c-2.8,0-5,0.9-6.7,2.7c-1.6,1.8-2.7,5-3.2,9.4l-0.4,1.9c-0.2,5-1.5,8.7-3.7,11.1c-2.2,2.3-5,3.5-8.3,3.5c-3.1,0-5.6-0.9-7.6-2.8
			c-2-1.9-3-4.4-3-7.6c0-4.8,1.7-8.9,5-12.1c3.3-3.3,7.8-5.7,13.3-7.4c5.5-1.6,11.5-2.5,18-2.5c10.4,0,18.5,2.6,24.2,7.7
			c5.7,5.1,8.5,13.4,8.5,24.9v38.9c0,5.3,2.5,7.9,7.4,7.9h3.9l1.6,1.4c-2.2,2.8-4.7,5-7.3,6.5c-2.6,1.5-6.4,2.3-11.2,2.3
			c-5.2,0-9.2-1.2-12.2-3.6c-3-2.4-5-5.6-5.9-9.6c-3.5,3.8-7.1,7-10.8,9.6C1007.9,404,1003.1,405.4,997.2,405.4z M1008,394.6
			c2.3,0,4.5-0.6,6.6-1.7c2.1-1.1,4.5-2.8,7.3-5.2v-29.6c-1.2,0.2-2.3,0.5-3.5,0.7c-1.2,0.2-2.5,0.5-4,0.7
			c-5.4,1.4-9.7,3.8-12.9,7.1c-3.2,3.3-4.8,7.8-4.8,13.5c0,4.8,1.1,8.4,3.3,10.8C1002.1,393.4,1004.8,394.6,1008,394.6z"/>
		<path class="st6" d="M1096.1,405.4c-7.5,0-13.3-1.9-17.5-5.6c-4.2-3.8-6.2-9.7-6.2-18v-60.2h-12.1v-1.8l4.2-0.7
			c3.6-0.8,6.8-2,9.4-3.5c2.6-1.5,5.2-3.6,7.8-6.2l14.4-16h1.8l-0.5,24.6h19.7v3.5h-19.9v63.4c0,4.1,0.9,7.2,2.7,9.3
			c1.8,2.1,4.1,3.2,7,3.2c2.5,0,4.6-0.6,6.5-1.8c1.9-1.2,3.8-2.9,5.6-5l1.8,1.8c-2.3,4-5.6,7.2-9.7,9.5
			C1107,404.2,1102,405.4,1096.1,405.4z"/>
		<path class="st6" d="M1126.6,402.7V401l2.5-0.7c2.3-0.7,4-1.8,4.8-3.2c0.9-1.4,1.3-3.3,1.3-5.6v-55.1c0-2.5-0.4-4.3-1.3-5.5
			c-0.9-1.2-2.5-2.1-4.8-2.6l-2.5-0.5V326l32.2-10.4l1.8,1.8l-0.5,25v49.3c0,2.3,0.4,4.2,1.3,5.6c0.9,1.4,2.4,2.5,4.7,3.2l1.8,0.5
			v1.8H1126.6z M1147.3,306.3c-4,0-7.4-1.3-10.1-3.8c-2.8-2.5-4.1-5.7-4.1-9.6c0-4,1.4-7.2,4.1-9.7c2.8-2.5,6.1-3.7,10.1-3.7
			c4,0,7.3,1.2,10,3.7c2.7,2.5,4,5.7,4,9.7c0,3.9-1.3,7.1-4,9.6C1154.7,305,1151.3,306.3,1147.3,306.3z"/>
		<path class="st6" d="M1220,405.4c-8.9,0-16.7-1.8-23.2-5.5c-6.6-3.7-11.6-8.9-15.2-15.8c-3.6-6.8-5.4-14.8-5.4-23.9
			s1.9-17.1,5.7-23.8c3.8-6.7,9-11.8,15.7-15.5c6.6-3.6,14.1-5.5,22.4-5.5c8.3,0,15.8,1.8,22.4,5.4c6.6,3.6,11.8,8.7,15.6,15.4
			c3.8,6.7,5.7,14.7,5.7,23.9c0,9.3-1.8,17.3-5.4,24c-3.6,6.7-8.6,12-15.1,15.7C1236.7,403.5,1229,405.4,1220,405.4z M1220,401.8
			c4.1,0,7.4-1.2,9.9-3.5c2.5-2.3,4.3-6.5,5.4-12.5c1.1-6,1.7-14.4,1.7-25.3c0-11-0.6-19.5-1.7-25.5c-1.1-6-2.9-10.1-5.4-12.5
			c-2.5-2.3-5.8-3.5-9.9-3.5c-4.1,0-7.4,1.2-9.9,3.5c-2.5,2.3-4.3,6.5-5.5,12.5c-1.1,6-1.7,14.5-1.7,25.5c0,10.9,0.6,19.4,1.7,25.3
			c1.1,6,2.9,10.2,5.5,12.5C1212.6,400.7,1215.9,401.8,1220,401.8z"/>
		<path class="st6" d="M1271.4,402.7V401l2.5-0.7c4.1-1.2,6.2-4,6.2-8.6v-55.1c0-2.6-0.4-4.5-1.2-5.7c-0.8-1.2-2.4-2.1-4.8-2.6
			l-2.6-0.7v-1.8l30.1-10.2l1.8,1.8l1.4,10.6c4.1-3.6,8.7-6.6,13.9-9c5.2-2.3,10.3-3.5,15.3-3.5c7.7,0,13.7,2.1,17.9,6.3
			c4.2,4.2,6.2,10.7,6.2,19.4v50.7c0,4.6,2.2,7.5,6.7,8.6l1.6,0.5v1.8h-41.5V401l2.3-0.7c4.1-1.3,6.2-4.2,6.2-8.6v-56.1
			c0-7.5-3.8-11.3-11.3-11.3c-5.2,0-10.8,2.6-16.9,7.7v59.8c0,4.6,2.1,7.5,6.2,8.6l1.6,0.5v1.8H1271.4z"/>
	</g>
	<g>
		<path class="st6" d="M922.8,488.5v3.4h-8.3v21h-3.9v-21h-8.3v-3.4H922.8z"/>
		<path class="st6" d="M931.2,513.2c-1.8,0-3.5-0.4-4.9-1.1s-2.5-1.9-3.3-3.3c-0.8-1.4-1.2-3.2-1.2-5.1s0.4-3.7,1.2-5.1
			c0.8-1.4,1.9-2.5,3.2-3.3c1.4-0.8,2.9-1.1,4.7-1.1c1.8,0,3.3,0.4,4.6,1.1c1.3,0.7,2.2,1.7,2.9,3s1,2.7,1,4.4c0,0.4,0,0.9,0,1.3
			c0,0.4-0.1,0.7-0.1,1h-14.8v-3h13.1l-2,0.6c0-1.7-0.4-3-1.3-3.9c-0.8-0.9-2-1.3-3.4-1.3c-1.1,0-2,0.2-2.8,0.7
			c-0.8,0.5-1.4,1.2-1.8,2.2c-0.4,1-0.6,2.2-0.6,3.6c0,1.4,0.2,2.5,0.7,3.5c0.4,1,1.1,1.7,1.9,2.2s1.8,0.7,2.9,0.7
			c1.2,0,2.2-0.2,3-0.7c0.8-0.5,1.4-1.1,1.8-2l3.1,1.5c-0.4,0.9-1,1.7-1.8,2.3s-1.6,1.2-2.7,1.5
			C933.6,513.1,932.5,513.2,931.2,513.2z"/>
		<path class="st6" d="M944.4,512.9v-18.4h3.5l0.2,3.1c0.6-1.2,1.5-2.1,2.6-2.6c1.1-0.6,2.2-0.8,3.4-0.8c1.3,0,2.6,0.3,3.7,0.9
			c1.1,0.6,2,1.5,2.5,2.7c0.4-0.8,0.9-1.5,1.6-2c0.7-0.5,1.5-0.9,2.3-1.2c0.8-0.3,1.7-0.4,2.5-0.4c1.2,0,2.3,0.2,3.3,0.7
			c1,0.5,1.9,1.2,2.5,2.2c0.6,1,1,2.3,1,3.9v12h-3.9v-11.3c0-1.5-0.4-2.6-1.1-3.2c-0.7-0.7-1.6-1-2.7-1c-0.9,0-1.7,0.2-2.4,0.6
			c-0.7,0.4-1.3,1-1.8,1.9c-0.4,0.8-0.7,1.8-0.7,3v10H957v-11.3c0-1.5-0.4-2.6-1.1-3.2c-0.7-0.7-1.6-1-2.7-1c-0.7,0-1.5,0.2-2.2,0.6
			c-0.7,0.4-1.4,1-1.8,1.8c-0.5,0.8-0.7,1.9-0.7,3.3v9.8H944.4z"/>
		<path class="st6" d="M990.1,501c0-1.2-0.3-2.2-1-2.9c-0.7-0.7-1.6-1-2.8-1c-1.1,0-2.1,0.3-2.8,0.8c-0.8,0.5-1.4,1.4-1.7,2.5
			l-3.3-1.4c0.5-1.5,1.4-2.7,2.7-3.6c1.4-0.9,3.1-1.4,5.3-1.4c1.5,0,2.8,0.2,3.9,0.7c1.1,0.5,2,1.2,2.7,2.2c0.7,1,1,2.2,1,3.7v8.2
			c0,0.9,0.5,1.4,1.4,1.4c0.4,0,0.9-0.1,1.3-0.2l-0.2,2.7c-0.6,0.3-1.3,0.4-2.1,0.4c-0.8,0-1.5-0.1-2.1-0.4
			c-0.6-0.3-1.1-0.7-1.5-1.3s-0.5-1.3-0.5-2.2V509l0.8,0c-0.2,1-0.7,1.8-1.4,2.4c-0.7,0.6-1.5,1.1-2.4,1.4c-0.9,0.3-1.8,0.5-2.8,0.5
			c-1.2,0-2.2-0.2-3.1-0.6s-1.6-0.9-2.2-1.7c-0.5-0.8-0.8-1.7-0.8-2.8c0-1.4,0.4-2.5,1.3-3.4s2.2-1.5,3.8-1.8l7.2-1.4l0,2.8
			l-5.2,1.1c-1,0.2-1.8,0.5-2.3,0.8c-0.5,0.4-0.8,0.9-0.8,1.6c0,0.7,0.3,1.2,0.8,1.6c0.5,0.4,1.2,0.6,2.1,0.6c0.6,0,1.2-0.1,1.8-0.2
			c0.6-0.1,1.1-0.4,1.6-0.7c0.5-0.3,0.8-0.8,1.1-1.3c0.3-0.5,0.4-1.2,0.4-1.9V501z"/>
		<path class="st6" d="M1022.2,512.9v-6.1h-11.9v-2.7c0-0.1,0.1-0.3,0.2-0.4c0.1-0.2,0.2-0.4,0.4-0.6l10.1-14.5h4.8v15.2h4.1v3.1
			h-4.1v6.1H1022.2z M1014,503.7h8.2v-8.6c0-0.6,0-1.2,0.1-1.8c0-0.6,0.1-1.2,0.1-1.9h-0.1c-0.3,0.6-0.6,1.2-1.1,1.9
			c-0.4,0.7-0.8,1.3-1.2,1.8l-5.8,8.2c0,0-0.1,0.1-0.1,0.1C1014.1,503.6,1014.1,503.6,1014,503.7z"/>
	</g>
	<path class="st5" d="M1216.9,713.8c62.3,7.9,124.8,14.5,187.4,20h248.4c11.3-5.9,20.7-14.3,26.6-26.4c6.1-12.4,7.2-26.6,7.9-40.5
		c2-39,2.2-78.1,0.5-117.1c-58.4-19.9-107.5-63.2-167.4-78.1c-30.9-7.7-63.2-7.3-95-6c-84.6,3.4-169,13.2-252.2,29.2
		c-10.1,1.9-20.7,4.2-28.6,10.8c-7,5.8-11.1,14.3-14.8,22.5c-15.1,33.8-54.9,113.6-43.1,151.1
		C1097.5,714.3,1185.4,709.8,1216.9,713.8z"/>
	<path class="st2" d="M306.6,733.8c0.9-10.7,1.6-21.4,2.2-32c3.5-62.1,3.1-133.5-21.5-176c-14.1-24.4-33.6-34.1-51-49.3
		C171.9,420.9,156.4,238.3,86.4,219c-23.2-6.4-56.2,3-87.7,20.5v494.3H306.6z"/>
	<path class="st4" d="M1438.7-0.2c-3,11.4-5.3,23.5-8.8,36c-17.3,62.6-49.1,121.2-42.4,188.2c6.3,62.2,55.8,124.8,118.2,122.1
		c43-1.8,82.5-33.2,125.2-27.6c24.9,3.2,46.2,18.5,68.9,29.1c22.7,10.6,51.5,16,71.4,0.7c8.9-6.8,14.7-16.9,19.4-27.1
		c18.6-40.6,22.7-87.7,11.3-130.9c-4.5-17.1-11.3-34.2-9.6-51.8c3-30.3,32-53.2,62.1-57.6c22.2-3.3,44.6,1.6,65.7,9.8v-91H1438.7z"
		/>
	<path class="st3" d="M1055.6,0.6c-0.2-0.3-0.4-0.6-0.6-0.9H413.8c0.2,1.4,0.4,2.8,0.6,4.2c15.8,94.8,132.9,27,196.1,35.8
		c48.5,6.7,86,44.8,130.4,65.3c30.4,14,63.8,19.7,96.8,25.2l150.1,25.1c6.8,1.1,13.7,2.3,20.6,1.9c23.5-1.4,42.6-21.3,50.6-43.5
		c8-22.2,7-46.4,6-69.9C1064.4,28.9,1063.5,13.3,1055.6,0.6z"/>
</g>
</svg>
