<?xml version="1.0" encoding="utf-8"?>
<!-- Generator: Adobe Illustrator 26.3.1, SVG Export Plug-In . SVG Version: 6.00 Build 0)  -->
<svg version="1.1" xmlns="http://www.w3.org/2000/svg" xmlns:xlink="http://www.w3.org/1999/xlink" x="0px" y="0px"
	 viewBox="0 0 1920 737" style="enable-background:new 0 0 1920 737;" xml:space="preserve">
<style type="text/css">
	.st0{fill:#E2D8C7;}
	.st1{fill:#D9B154;}
	.st2{fill:#B6D1DA;}
	.st3{fill:#BC6F27;}
	.st4{fill:#BAB5A8;}
	.st5{fill:#AA410B;}
	.st6{fill:#FFFFFF;}
	.st7{font-family:'DMSerifDisplay-Regular';}
	.st8{font-size:176px;}
	.st9{font-family:'WorkSans-Medium';}
	.st10{font-size:36.8863px;}
</style>
<g id="Layer_3">
	<rect class="st0" width="1920" height="733.8"/>
</g>
<g id="Layer_2">
</g>
<g id="Layer_1">
	<g id="Layer_4">
	</g>
	<path class="st1" d="M311.7,413.2c-8.4-87.1,42.1-176.8,120.8-214.8c101.7-49,224.2-11.3,322,45.1S941.7,375,1049.9,406.9
		c27.4,8.1,63.1,23.8,57.8,51.8c-1.9,9.7-8.8,17.6-15.7,24.8c-32.7,33.9-74.2,64.1-121.3,65.2c-42.8,1-82.3-22.1-124.3-30.7
		c-58.4-12-122.1,6.2-165.4,47.1c-40.1,37.9-70.8,97.4-125.9,100.3c-40.2,2.1-46.9-25.9-71.7-46.8c-21-17.6-42.3-26-66.3-40.9
		C359.8,542.2,318.3,481.1,311.7,413.2z"/>
	<text transform="matrix(1 0 0 1 550.3654 402.7188)" class="st6 st7 st8">Animation</text>
	<text transform="matrix(1 0 0 1 901.0941 512.856)" class="st6 st9 st10">Tema 4</text>
	<path class="st5" d="M1216.9,713.8c62.3,7.9,124.8,14.5,187.4,20h248.4c11.3-5.9,20.7-14.3,26.6-26.4c6.1-12.4,7.2-26.6,7.9-40.5
		c2-39,2.2-78.1,0.5-117.1c-58.4-19.9-107.5-63.2-167.4-78.1c-30.9-7.7-63.2-7.3-95-6c-84.6,3.4-169,13.2-252.2,29.2
		c-10.1,1.9-20.7,4.2-28.6,10.8c-7,5.8-11.1,14.3-14.8,22.5c-15.1,33.8-54.9,113.6-43.1,151.1
		C1097.5,714.3,1185.4,709.8,1216.9,713.8z"/>
	<path class="st2" d="M306.6,733.8c0.9-10.7,1.6-21.4,2.2-32c3.5-62.1,3.1-133.5-21.5-176c-14.1-24.4-33.6-34.1-51-49.3
		C171.9,420.9,156.4,238.3,86.4,219c-23.2-6.4-56.2,3-87.7,20.5v494.3H306.6z"/>
	<path class="st4" d="M1438.7-0.2c-3,11.4-5.3,23.5-8.8,36c-17.3,62.6-49.1,121.2-42.4,188.2c6.3,62.2,55.8,124.8,118.2,122.1
		c43-1.8,82.5-33.2,125.2-27.6c24.9,3.2,46.2,18.5,68.9,29.1c22.7,10.6,51.5,16,71.4,0.7c8.9-6.8,14.7-16.9,19.4-27.1
		c18.6-40.6,22.7-87.7,11.3-130.9c-4.5-17.1-11.3-34.2-9.6-51.8c3-30.3,32-53.2,62.1-57.6c22.2-3.3,44.6,1.6,65.7,9.8v-91H1438.7z"
		/>
	<path class="st3" d="M1055.6,0.6c-0.2-0.3-0.4-0.6-0.6-0.9H413.8c0.2,1.4,0.4,2.8,0.6,4.2c15.8,94.8,132.9,27,196.1,35.8
		c48.5,6.7,86,44.8,130.4,65.3c30.4,14,63.8,19.7,96.8,25.2l150.1,25.1c6.8,1.1,13.7,2.3,20.6,1.9c23.5-1.4,42.6-21.3,50.6-43.5
		c8-22.2,7-46.4,6-69.9C1064.4,28.9,1063.5,13.3,1055.6,0.6z"/>
</g>
</svg>
