<?xml version="1.0" encoding="utf-8"?>
<!-- Generator: Adobe Illustrator 26.3.1, SVG Export Plug-In . SVG Version: 6.00 Build 0)  -->
<svg version="1.1" id="Layer_1" xmlns="http://www.w3.org/2000/svg" xmlns:xlink="http://www.w3.org/1999/xlink" x="0px" y="0px"
	 viewBox="0 0 388.1 263" style="enable-background:new 0 0 388.1 263;" xml:space="preserve">
<style type="text/css">
	.st0{clip-path:url(#SVGID_00000158707911354053360910000002103387796657082244_);fill:#D9B154;}
	.st1{clip-path:url(#SVGID_00000158707911354053360910000002103387796657082244_);fill:#BAB5A8;}
	.st2{clip-path:url(#SVGID_00000158707911354053360910000002103387796657082244_);fill:#9B9891;}
	.st3{clip-path:url(#SVGID_00000158707911354053360910000002103387796657082244_);fill:#FFFFFF;}
	.st4{clip-path:url(#SVGID_00000158707911354053360910000002103387796657082244_);fill:#FCFCFC;}
	.st5{fill:#FFFFFF;}
	.st6{fill:#E2D8C7;}
	.st7{fill:#D9B154;}
	.st8{fill:#B6D1DA;}
	.st9{fill:#BC6F27;}
	.st10{fill:#BAB5A8;}
	.st11{fill:#AA410B;}
	.st12{clip-path:url(#SVGID_00000152966643809556486580000012055618581477586364_);}
	.st13{fill:#92AFB7;}
	.st14{fill:#F7F2EB;}
	.st15{fill:#FCFCFC;}
	.st16{fill:#9B9891;}
</style>
<g>
	<g>
		<defs>
			<path id="SVGID_00000029726437665863914510000002558438237278979734_" d="M328.3,66.7c4.4,13.6,13.6,25,22.1,36.5
				s16.8,23.9,18.9,38.1c0.6,4,0.6,8.4-0.9,12.2c-3.6,8.7-14.1,12.2-19.4,19.9c-9.6,13.8,1.2,34.4-6.9,49.2c-2.6,4.8-7.1,8.4-12,11
				c-8.3,4.3-17.6,5.9-26.8,7.3c-15.5,2.4-31.1,4.9-46.6,7.4c-11,1.7-22.1,3.5-33.3,2.6s-21.9-4.5-33-6.5
				c-16.2-2.8-32.7-1.8-49.1-1.1c-11.7,0.5-24.9,0.4-33.1-8c-4.8-4.9-7.1-12-12.4-16.6c-12.3-10.8-31.6-1.8-47.7-5
				c-16.5-3.3-27.8-20.2-29.5-37.1c-1.7-16.9,4-33.5,11-49S44.6,97,48,80.5c2.9-14.1,2.2-29,6.3-42.8c1.7-5.8,4.4-11.5,9.2-15.3
				c3.9-3.2,8.9-4.8,13.8-6.1c61.4-15.5,126.9,18.5,188.6,4.3c14.1-3.2,28-8.9,42.4-8.4c10.4,0.4,25.6,5.8,24.7,17.6
				c-0.4,5.1-5.8,11.3-6.6,17.2C325.4,53.4,326.3,60.3,328.3,66.7z"/>
		</defs>
		<clipPath id="SVGID_00000045609848033753084920000017645918193691615400_">
			<use xlink:href="#SVGID_00000029726437665863914510000002558438237278979734_"  style="overflow:visible;"/>
		</clipPath>
		<g style="clip-path:url(#SVGID_00000045609848033753084920000017645918193691615400_);">
			<rect x="-1.5" y="1.8" class="st9" width="384.5" height="266.9"/>
			<g>
				<path class="st8" d="M126.3,152.6v62.2c0,0,4,15.5,13.1,15.5c9.1,0,152.1,0,152.1,0s10-1,13-17.2h-29.2V57.7
					c0,0,2-17.2-15.1-17.2c-17.1,0-147.5,0-147.5,0s-15.6-1-15.6,20.2s0,92.1,0,92.1L126.3,152.6z"/>
				<path class="st13" d="M126.3,152.6H97V60.8c0,0-1-19.6,14.7-20c15.7-0.4,14.7,19.2,14.7,19.2v92.6H126.3z"/>
				<path class="st13" d="M304.5,213.1c0,0-3,17.2-13.1,17.2s-149,0-149,0s17.7,0,17.9-17.2H304.5z"/>
				
					<ellipse transform="matrix(0.9961 -8.811136e-02 8.811136e-02 0.9961 -9.9846 24.4316)" class="st13" cx="271.7" cy="125.3" rx="42.8" ry="40.4"/>
				<ellipse class="st14" cx="274.3" cy="125.3" rx="40.3" ry="40.4"/>
				<g>
					<path class="st13" d="M266.9,142.6c-1.9,0-3.4-0.2-4.6-0.6c-1.1-0.4-2-1-2.5-1.9c-0.5-0.8-0.8-1.9-0.8-3.2v-6.1
						c0-1.4-0.3-2.4-0.9-3c-0.6-0.6-1.7-0.9-3.2-0.9v-3.5c1.5,0,2.6-0.3,3.2-0.9c0.6-0.6,0.9-1.6,0.9-3v-6.1c0-1.3,0.3-2.4,0.8-3.2
						c0.5-0.8,1.4-1.4,2.5-1.8c1.1-0.4,2.7-0.6,4.6-0.6v3.4c-1.3,0-2.2,0.2-2.8,0.6c-0.6,0.4-0.9,1.1-0.9,2v6.6c0,1.3-0.3,2.3-1,3.1
						c-0.7,0.8-1.6,1.3-2.9,1.6c1.3,0.3,2.2,0.9,2.9,1.6c0.7,0.8,1,1.8,1,3.1v6.6c0,0.9,0.3,1.6,0.9,2s1.5,0.6,2.8,0.6V142.6z"/>
					<path class="st13" d="M280.9,107.7c1.9,0,3.4,0.2,4.6,0.6c1.1,0.4,2,1,2.5,1.8c0.5,0.8,0.8,1.9,0.8,3.2v6.1
						c0,1.4,0.3,2.4,0.9,3s1.7,0.9,3.2,0.9v3.5c-1.5,0-2.6,0.3-3.2,0.9c-0.6,0.6-0.9,1.6-0.9,3v6.1c0,1.3-0.3,2.4-0.8,3.2
						c-0.5,0.8-1.4,1.4-2.5,1.8c-1.1,0.4-2.7,0.6-4.6,0.6v-3.4c1.3,0,2.2-0.2,2.8-0.6c0.6-0.4,0.9-1.1,0.9-2V130
						c0-1.3,0.3-2.3,1-3.1c0.7-0.8,1.6-1.3,2.8-1.6c-1.2-0.3-2.2-0.9-2.8-1.6c-0.7-0.8-1-1.8-1-3.1v-6.6c0-0.9-0.3-1.6-0.9-2
						s-1.5-0.6-2.8-0.6V107.7z"/>
				</g>
				<rect x="138.4" y="61.7" class="st15" width="73.5" height="4"/>
				<rect x="146.4" y="72.8" class="st15" width="73.5" height="4"/>
				<rect x="138.4" y="93" class="st15" width="73.5" height="4"/>
				<rect x="146.4" y="103.1" class="st15" width="73.5" height="4"/>
				<rect x="153.5" y="113.2" class="st15" width="59.4" height="4"/>
				<rect x="156.5" y="82.9" class="st15" width="73.5" height="4"/>
				<rect x="224.9" y="72.8" class="st15" width="22.1" height="4"/>
				<rect x="154.5" y="155.6" class="st15" width="13.1" height="4"/>
				<rect x="219.9" y="187.9" class="st15" width="13.1" height="4"/>
				<rect x="138.4" y="125.3" class="st15" width="87.6" height="4"/>
				<rect x="138.4" y="135.4" class="st15" width="73.5" height="4"/>
				<rect x="146.4" y="145.5" class="st15" width="73.5" height="4"/>
				<rect x="167.6" y="166.7" class="st15" width="73.5" height="4"/>
				<rect x="140.4" y="179.8" class="st15" width="73.5" height="4"/>
				<rect x="140.4" y="187.9" class="st15" width="73.5" height="4"/>
				<rect x="153.5" y="197" class="st15" width="73.5" height="4"/>
				<rect x="173.6" y="155.6" class="st15" width="55.4" height="4"/>
			</g>
		</g>
	</g>
</g>
</svg>
