<?xml version="1.0" encoding="utf-8"?>
<!-- Generator: Adobe Illustrator 26.3.1, SVG Export Plug-In . SVG Version: 6.00 Build 0)  -->
<svg version="1.1" id="Layer_1" xmlns="http://www.w3.org/2000/svg" xmlns:xlink="http://www.w3.org/1999/xlink" x="0px" y="0px"
	 viewBox="0 0 382 264" style="enable-background:new 0 0 382 264;" xml:space="preserve">
<style type="text/css">
	.st0{clip-path:url(#SVGID_00000149375578217812824790000000534971611663696529_);fill:#D9B154;}
	.st1{clip-path:url(#SVGID_00000149375578217812824790000000534971611663696529_);fill:#BAB5A8;}
	.st2{clip-path:url(#SVGID_00000149375578217812824790000000534971611663696529_);fill:#9B9891;}
	.st3{clip-path:url(#SVGID_00000149375578217812824790000000534971611663696529_);fill:#FFFFFF;}
	.st4{clip-path:url(#SVGID_00000149375578217812824790000000534971611663696529_);fill:#FCFCFC;}
	.st5{fill:#FFFFFF;}
	.st6{fill:#E2D8C7;}
	.st7{fill:#D9B154;}
	.st8{fill:#B6D1DA;}
	.st9{fill:#BC6F27;}
	.st10{fill:#BAB5A8;}
	.st11{fill:#AA410B;}
	.st12{clip-path:url(#SVGID_00000078045031682036910740000010967978092565366943_);}
	.st13{fill:#92AFB7;}
	.st14{fill:#F7F2EB;}
	.st15{fill:#FCFCFC;}
	.st16{fill:#9B9891;}
</style>
<g>
	<defs>
		<path id="SVGID_1_" d="M34.8,227.8c-5.2-11.2-6.6-23.7-7.8-36c-2.3-22-4.6-44-6.8-66c-1.3-12.9-2.6-26.6,3-38.3
			c5.3-11,15.8-18.6,23-28.4c7-9.6,10.9-21.5,19.5-29.6C83.4,12.6,111.6,18.2,136,19c34.2,1.1,67.8-9.7,102-11.2s73.1,9.9,87.8,40.8
			c4,8.4,5.9,17.7,8.7,26.6c7.3,23.2,20.9,43.9,29.3,66.8s10.7,50.2-3.4,70c-15.1,21.3-43.7,27.1-69.5,31.2
			c-28.5,4.6-57,9.2-85.5,13.7c-10.3,1.6-20.9,3.3-30.9,0.7c-7.4-1.9-13.9-5.9-20.8-9.2c-21-9.8-45.4-11.8-67.8-6
			C63.3,248.3,47.4,254.8,34.8,227.8z"/>
	</defs>
	<clipPath id="SVGID_00000152986822387728449420000004877536864201591942_">
		<use xlink:href="#SVGID_1_"  style="overflow:visible;"/>
	</clipPath>
	
		<rect y="-0.4" style="clip-path:url(#SVGID_00000152986822387728449420000004877536864201591942_);fill:#D9B154;" width="382" height="264.4"/>
	<path style="clip-path:url(#SVGID_00000152986822387728449420000004877536864201591942_);fill:#BAB5A8;" d="M129.1,150v61.6
		c0,0,4,15.4,13,15.4s151.1,0,151.1,0s9.9-1,12.9-17h-29V56c0,0,2-17-15-17s-146.5,0-146.5,0s-15.5-1-15.5,20s0,91.2,0,91.2
		L129.1,150z"/>
	<path style="clip-path:url(#SVGID_00000152986822387728449420000004877536864201591942_);fill:#9B9891;" d="M129.1,150H100V59.1
		c0,0-1-19.4,14.6-19.8c15.6-0.4,14.6,19,14.6,19L129.1,150L129.1,150z"/>
	<path style="clip-path:url(#SVGID_00000152986822387728449420000004877536864201591942_);fill:#9B9891;" d="M306.1,210
		c0,0-3,17-13,17s-148,0-148,0s17.6,0,17.8-17H306.1z"/>
	
		<ellipse transform="matrix(0.9965 -8.378083e-02 8.378083e-02 0.9965 -9.343 23.355)" style="clip-path:url(#SVGID_00000152986822387728449420000004877536864201591942_);fill:#9B9891;" cx="273.6" cy="123" rx="42.5" ry="40"/>
	
		<circle style="clip-path:url(#SVGID_00000152986822387728449420000004877536864201591942_);fill:#FFFFFF;" cx="276.1" cy="123" r="40"/>
	
		<rect x="141.1" y="60" style="clip-path:url(#SVGID_00000152986822387728449420000004877536864201591942_);fill:#FCFCFC;" width="73" height="4"/>
	
		<rect x="149.1" y="71" style="clip-path:url(#SVGID_00000152986822387728449420000004877536864201591942_);fill:#FCFCFC;" width="73" height="4"/>
	
		<rect x="141.1" y="91" style="clip-path:url(#SVGID_00000152986822387728449420000004877536864201591942_);fill:#FCFCFC;" width="73" height="4"/>
	
		<rect x="149.1" y="101" style="clip-path:url(#SVGID_00000152986822387728449420000004877536864201591942_);fill:#FCFCFC;" width="73" height="4"/>
	
		<rect x="156.1" y="111" style="clip-path:url(#SVGID_00000152986822387728449420000004877536864201591942_);fill:#FCFCFC;" width="59" height="4"/>
	
		<rect x="159.1" y="81" style="clip-path:url(#SVGID_00000152986822387728449420000004877536864201591942_);fill:#FCFCFC;" width="73" height="4"/>
	
		<rect x="227.1" y="71" style="clip-path:url(#SVGID_00000152986822387728449420000004877536864201591942_);fill:#FCFCFC;" width="22" height="4"/>
	
		<rect x="157.1" y="153" style="clip-path:url(#SVGID_00000152986822387728449420000004877536864201591942_);fill:#FCFCFC;" width="13" height="4"/>
	
		<rect x="222.1" y="185" style="clip-path:url(#SVGID_00000152986822387728449420000004877536864201591942_);fill:#FCFCFC;" width="13" height="4"/>
	
		<rect x="141.1" y="123" style="clip-path:url(#SVGID_00000152986822387728449420000004877536864201591942_);fill:#FCFCFC;" width="87" height="4"/>
	
		<rect x="141.1" y="133" style="clip-path:url(#SVGID_00000152986822387728449420000004877536864201591942_);fill:#FCFCFC;" width="73" height="4"/>
	
		<rect x="149.1" y="143" style="clip-path:url(#SVGID_00000152986822387728449420000004877536864201591942_);fill:#FCFCFC;" width="73" height="4"/>
	
		<rect x="170.1" y="164" style="clip-path:url(#SVGID_00000152986822387728449420000004877536864201591942_);fill:#FCFCFC;" width="73" height="4"/>
	
		<rect x="143.1" y="177" style="clip-path:url(#SVGID_00000152986822387728449420000004877536864201591942_);fill:#FCFCFC;" width="73" height="4"/>
	
		<rect x="143.1" y="185" style="clip-path:url(#SVGID_00000152986822387728449420000004877536864201591942_);fill:#FCFCFC;" width="73" height="4"/>
	
		<rect x="156.1" y="194" style="clip-path:url(#SVGID_00000152986822387728449420000004877536864201591942_);fill:#FCFCFC;" width="73" height="4"/>
	
		<rect x="176.1" y="153" style="clip-path:url(#SVGID_00000152986822387728449420000004877536864201591942_);fill:#FCFCFC;" width="55" height="4"/>
</g>
<g>
	<path class="st16" d="M269.6,141.8c-1.9,0-3.4-0.2-4.6-0.6c-1.1-0.4-2-1-2.5-1.9c-0.5-0.8-0.8-1.9-0.8-3.2v-6c0-1.4-0.3-2.4-0.9-3
		s-1.7-0.9-3.2-0.9v-3.5c1.5,0,2.6-0.3,3.2-0.9s0.9-1.6,0.9-3v-6c0-1.3,0.3-2.4,0.8-3.2c0.5-0.8,1.4-1.4,2.5-1.8s2.7-0.6,4.6-0.6
		v3.4c-1.3,0-2.2,0.2-2.8,0.6c-0.6,0.4-0.9,1.1-0.9,2v6.5c0,1.3-0.3,2.3-1,3.1c-0.7,0.8-1.6,1.3-2.9,1.6c1.3,0.3,2.2,0.9,2.9,1.6
		c0.7,0.8,1,1.8,1,3.1v6.5c0,0.9,0.3,1.6,0.9,2s1.5,0.6,2.8,0.6V141.8z"/>
	<path class="st16" d="M283.5,107.3c1.9,0,3.4,0.2,4.6,0.6c1.1,0.4,2,1,2.5,1.8s0.8,1.9,0.8,3.2v6c0,1.4,0.3,2.4,0.9,3
		s1.7,0.9,3.2,0.9v3.5c-1.5,0-2.6,0.3-3.2,0.9s-0.9,1.6-0.9,3v6c0,1.3-0.3,2.4-0.8,3.2s-1.4,1.4-2.5,1.8c-1.1,0.4-2.7,0.6-4.6,0.6
		v-3.4c1.3,0,2.2-0.2,2.8-0.6c0.6-0.4,0.9-1.1,0.9-2v-6.5c0-1.3,0.3-2.3,1-3.1c0.7-0.8,1.6-1.3,2.8-1.6c-1.2-0.3-2.2-0.9-2.8-1.6
		c-0.7-0.8-1-1.8-1-3.1v-6.5c0-0.9-0.3-1.6-0.9-2s-1.5-0.6-2.8-0.6V107.3z"/>
</g>
<ellipse class="st16" cx="276.6" cy="118.1" rx="2.4" ry="2.6"/>
<path class="st16" d="M274.8,135L274.8,135c-1-0.3-1.6-1.4-1.3-2.5l2.1-6.6c0.3-1,1.4-1.6,2.5-1.3l0,0c1,0.3,1.6,1.4,1.3,2.5
	l-2.1,6.6C276.9,134.8,275.8,135.3,274.8,135z"/>
</svg>
